<svg xmlns="http://www.w3.org/2000/svg" width="40" height="28.728" viewBox="0 0 40 28.728">
  <g id="Grupo_1182069" data-name="Grupo 1182069" transform="translate(0 -72.085)">
    <path id="Trazado_1007722" data-name="Trazado 1007722" d="M39.414,99.6h0l-2.242,0,0-1.891a.586.586,0,0,0-.586-.586h0a.586.586,0,0,0-.586.587L36,99.6l-8.772.01L27.217,92.1l6.071-.007a1.159,1.159,0,0,0,1.158-1.161L34.439,84.8a1.159,1.159,0,0,0-1.16-1.158h0l-6.071.007,0-2.425,8.772-.01.016,13.835a.586.586,0,0,0,.586.586h0a.586.586,0,0,0,.586-.587l-.016-13.835H38.3a1.618,1.618,0,0,0,1.614-1.617l0-1.538A1.618,1.618,0,0,0,38.3,76.442h0l-3.756,0a.586.586,0,0,0,0,1.173h0l3.756,0h0a.444.444,0,0,1,.443.443l0,1.538a.443.443,0,0,1-.442.443l-11.1.013,0-2.424,4.685-.006a.586.586,0,0,0,0-1.173h0l-4.684.006,0-2.753a1.619,1.619,0,0,0-1.619-1.617h0L14.359,72.1a1.619,1.619,0,0,0-1.617,1.621l0,2.753-11.1.013A1.616,1.616,0,0,0,.033,78.1l0,1.538A1.615,1.615,0,0,0,1.65,81.255H2.813v1.756a.586.586,0,0,0,1.173,0V81.252l8.766-.01,0,2.425-6.071.007a1.159,1.159,0,0,0-1.158,1.161l.007,6.126a1.159,1.159,0,0,0,1.16,1.158h0l6.071-.007.009,7.514-8.787.01V85.667a.586.586,0,0,0-1.173,0V99.638l-2.227,0a.586.586,0,0,0,0,1.173h0l38.827-.045a.586.586,0,0,0,0-1.173Zm-6.147-14.78.007,6.1-6.058.007-.007-6.1ZM1.651,80.082h0a.443.443,0,0,1-.443-.442l0-1.538a.443.443,0,0,1,.442-.444l11.1-.013,0,2.425ZM6.7,90.947l-.007-6.1,6.058-.007.007,6.1Zm7.211-17.229a.446.446,0,0,1,.445-.446l11.215-.013h0a.446.446,0,0,1,.446.445l.03,25.908-1.465,0-.012-10.341a1.86,1.86,0,0,0-.534-1.309,1.809,1.809,0,0,0-1.3-.547h0l-5.509.006a1.809,1.809,0,0,0-1.3.55,1.859,1.859,0,0,0-.531,1.311l.012,10.341-1.466,0Zm2.657,15.564a.694.694,0,0,1,.2-.489.645.645,0,0,1,.463-.2l5.509-.006h0a.645.645,0,0,1,.463.2.694.694,0,0,1,.2.489l.012,10.341-6.83.008Z" transform="translate(0)" fill="#3e5d56"/>
    <path id="Trazado_1007723" data-name="Trazado 1007723" d="M194.085,120.8h0l1.955,0,0,1.955a1.1,1.1,0,0,0,1.095,1.093h0l1.486,0a1.095,1.095,0,0,0,1.093-1.1l0-1.955,1.955,0a1.1,1.1,0,0,0,1.093-1.1l0-1.486a1.095,1.095,0,0,0-1.095-1.093h0l-1.955,0,0-1.955a1.095,1.095,0,0,0-1.095-1.093h0l-1.486,0a1.095,1.095,0,0,0-1.093,1.1l0,1.955-1.955,0a1.095,1.095,0,0,0-1.093,1.1l0,1.486a1.095,1.095,0,0,0,1.095,1.093Zm2.54-2.505a.586.586,0,0,0,.586-.587l0-2.463,1.33,0,0,2.464a.586.586,0,0,0,.586.586h0l2.463,0,0,1.33-2.464,0a.586.586,0,0,0-.586.587l0,2.463-1.33,0,0-2.464a.586.586,0,0,0-.586-.586h0l-2.463,0,0-1.33Z" transform="translate(-177.901 -38.705)" fill="#3e5d56"/>
  </g>
</svg>
