<svg xmlns="http://www.w3.org/2000/svg" width="40" height="43.365" viewBox="0 0 40 43.365">
  <g id="Grupo_1179576" data-name="Grupo 1179576" transform="translate(-19.857)">
    <g id="Grupo_1179575" data-name="Grupo 1179575" transform="translate(19.857)">
      <path id="Trazado_1001337" data-name="Trazado 1001337" d="M491.908,131.108h0Z" transform="translate(-451.91 -119.999)" fill="#3e5d56"/>
      <path id="Trazado_1001338" data-name="Trazado 1001338" d="M48.746,0A11.07,11.07,0,0,0,41.1,3.061H24.487A2.429,2.429,0,0,0,22.06,5.486v.662a2.43,2.43,0,0,0-2.2,2.416V40.938a2.429,2.429,0,0,0,2.427,2.427H46.806a2.429,2.429,0,0,0,2.427-2.427v-.662a2.429,2.429,0,0,0,2.2-2.415V24.393a.635.635,0,1,0-1.271,0V37.861a1.157,1.157,0,0,1-1.156,1.155H24.487a1.157,1.157,0,0,1-1.156-1.155V5.486a1.157,1.157,0,0,1,1.156-1.155H39.95A11.105,11.105,0,1,0,48.746,0ZM24.487,40.287H47.962v.652a1.157,1.157,0,0,1-1.156,1.156H22.284a1.157,1.157,0,0,1-1.156-1.156V8.565a1.157,1.157,0,0,1,.932-1.134v30.43a2.429,2.429,0,0,0,2.427,2.426Zm34.1-29.177a9.838,9.838,0,1,1-9.838-9.839,9.885,9.885,0,0,1,9.838,9.839Z" transform="translate(-19.857)" fill="#3e5d56"/>
      <path id="Trazado_1001339" data-name="Trazado 1001339" d="M86.5,124.882h5.415a.635.635,0,1,0,0-1.271H86.5a.635.635,0,1,0,0,1.271Z" transform="translate(-80.268 -113.137)" fill="#3e5d56"/>
      <path id="Trazado_1001340" data-name="Trazado 1001340" d="M86.5,73.716H87.9a.635.635,0,1,0,0-1.271H86.5a.635.635,0,1,0,0,1.271Z" transform="translate(-80.268 -66.307)" fill="#3e5d56"/>
      <path id="Trazado_1001341" data-name="Trazado 1001341" d="M86.5,153.089h5.415a.635.635,0,1,0,0-1.271H86.5a.635.635,0,1,0,0,1.271Z" transform="translate(-80.268 -138.954)" fill="#3e5d56"/>
      <path id="Trazado_1001342" data-name="Trazado 1001342" d="M86.5,209.5h9.81a.635.635,0,0,0,0-1.271H86.5a.635.635,0,1,0,0,1.271Z" transform="translate(-80.268 -190.588)" fill="#3e5d56"/>
      <path id="Trazado_1001343" data-name="Trazado 1001343" d="M86.5,237.71h9.81a.635.635,0,0,0,0-1.271H86.5a.635.635,0,1,0,0,1.271Z" transform="translate(-80.268 -216.405)" fill="#3e5d56"/>
      <path id="Trazado_1001344" data-name="Trazado 1001344" d="M107.822,296.009H86.5a.635.635,0,0,0,0,1.271h21.326a.635.635,0,1,0,0-1.271Z" transform="translate(-80.268 -270.928)" fill="#3e5d56"/>
      <path id="Trazado_1001345" data-name="Trazado 1001345" d="M107.822,325.794H86.5a.635.635,0,0,0,0,1.271h21.326a.635.635,0,1,0,0-1.271Z" transform="translate(-80.268 -298.189)" fill="#3e5d56"/>
      <path id="Trazado_1001346" data-name="Trazado 1001346" d="M107.822,355.578H86.5a.635.635,0,1,0,0,1.271h21.326a.635.635,0,1,0,0-1.271Z" transform="translate(-80.268 -325.449)" fill="#3e5d56"/>
      <path id="Trazado_1001347" data-name="Trazado 1001347" d="M175.538,385.363H160.481a.635.635,0,1,0,0,1.271h15.057a.635.635,0,1,0,0-1.271Z" transform="translate(-147.984 -352.71)" fill="#3e5d56"/>
      <path id="Trazado_1001348" data-name="Trazado 1001348" d="M86.5,386.634h3.309a.635.635,0,1,0,0-1.271H86.5a.635.635,0,1,0,0,1.271Z" transform="translate(-80.268 -352.71)" fill="#3e5d56"/>
      <path id="Trazado_1001349" data-name="Trazado 1001349" d="M86.5,416.418h21.326a.635.635,0,1,0,0-1.271H86.5a.635.635,0,1,0,0,1.271Z" transform="translate(-80.268 -379.971)" fill="#3e5d56"/>
      <path id="Trazado_1001350" data-name="Trazado 1001350" d="M297.92,64.933a.654.654,0,0,0-.16-.269l-7.376-7.375a2.44,2.44,0,0,0-3.451,3.451l7.375,7.375a.659.659,0,0,0,.252.155l2.711.884a1.219,1.219,0,0,0,1.526-1.526ZM289.8,61.812l1.654-1.654,4.954,4.954-1.654,1.654Zm-1.972-3.625a1.175,1.175,0,0,1,1.654,0l1.073,1.073L288.9,60.914l-1.073-1.073A1.171,1.171,0,0,1,287.832,58.187Zm8.108,9.2,1.087-1.087.526,1.613Z" transform="translate(-263.65 -51.785)" fill="#3e5d56"/>
    </g>
  </g>
</svg>
