<svg xmlns="http://www.w3.org/2000/svg" width="40" height="40" viewBox="0 0 40 40">
  <path id="Trazado_1007729" data-name="Trazado 1007729" d="M39.862,25.379A1.379,1.379,0,0,1,41.241,24h5.517a1.379,1.379,0,0,1,1.379,1.379v1.379a6.207,6.207,0,0,1,6.207,6.207,2.07,2.07,0,0,1-1.379,1.951v.807A1.379,1.379,0,0,1,51.586,37.1H48.828a1.379,1.379,0,0,1-1.379-1.379v-.69h-.69v.69A1.379,1.379,0,0,1,45.379,37.1H42.621a1.379,1.379,0,0,1-1.379-1.379v-.69h-.69v.69A1.379,1.379,0,0,1,39.172,37.1H36.414a1.379,1.379,0,0,1-1.379-1.379v-.807a2.07,2.07,0,0,1-1.379-1.951,6.207,6.207,0,0,1,6.207-6.207Zm-4.138,8.276H52.276a.69.69,0,0,0,.69-.69,4.828,4.828,0,0,0-4.828-4.828H39.862a4.828,4.828,0,0,0-4.828,4.828A.69.69,0,0,0,35.724,33.655Zm.69,1.379v.69h2.759v-.69Zm12.414,0h2.759v.69H48.828Zm-6.207,0v.69h2.759v-.69Zm4.138-9.655v1.379H41.241V25.379ZM24,44.69a1.379,1.379,0,0,1,1.379-1.379H62.621A1.379,1.379,0,0,1,64,44.69v4.138a1.379,1.379,0,0,1-1.379,1.379H59.862v2.069a1.379,1.379,0,0,1-1.379,1.379H57.1v8.276a2.069,2.069,0,0,1-4.138,0V59.862H35.034v2.069a2.069,2.069,0,0,1-4.138,0V53.655H29.517a1.379,1.379,0,0,1-1.379-1.379V50.207H25.379A1.379,1.379,0,0,1,24,48.828ZM52.966,57.1v1.379H35.034V57.1Zm0-1.379H35.034V53.655h1.379a1.379,1.379,0,0,0,1.379-1.379V50.207H50.207v2.069a1.379,1.379,0,0,0,1.379,1.379h1.379Zm1.379,4.138V53.655h1.379v8.276a.69.69,0,1,1-1.379,0Zm-20.69-4.138v6.207a.69.69,0,1,1-1.379,0V53.655h1.379Zm19.31-3.448h5.517V50.207h-6.9v2.069ZM36.414,50.207v2.069h-6.9V50.207Zm15.172-1.379H62.621V44.69H25.379v4.138H51.586Z" transform="translate(-24 -24)" fill="#3e5d56" fill-rule="evenodd"/>
</svg>
