<svg xmlns="http://www.w3.org/2000/svg" width="40" height="40.468" viewBox="0 0 40 40.468">
  <g id="Grupo_1182073" data-name="Grupo 1182073" transform="translate(-88.81 -84)">
    <path id="Trazado_1007730" data-name="Trazado 1007730" d="M119.52,124.468H89.588a.778.778,0,0,1-.778-.778V84.778A.778.778,0,0,1,89.588,84H107.36a.778.778,0,0,1,0,1.556H90.366v37.355H119.52a.778.778,0,0,1,0,1.556Z" fill="#3e5d56"/>
    <path id="Trazado_1007731" data-name="Trazado 1007731" d="M704.968,345.339a.778.778,0,0,1-.778-.778v-9.782a.778.778,0,1,1,1.556,0v9.782A.778.778,0,0,1,704.968,345.339Z" transform="translate(-585.448 -237.84)" fill="#3e5d56"/>
    <path id="Trazado_1007732" data-name="Trazado 1007732" d="M467.128,97.723h-9.843a3.1,3.1,0,0,1-3.1-3.1V84.785a.778.778,0,0,1,1.328-.55l12.16,12.16a.778.778,0,0,1-.55,1.328ZM455.746,86.664v7.964a1.54,1.54,0,0,0,1.539,1.539h7.964Z" transform="translate(-347.608 -0.007)" fill="#3e5d56"/>
    <path id="Trazado_1007733" data-name="Trazado 1007733" d="M261.816,402.556h-14.6a.778.778,0,1,1,0-1.556h14.6a.778.778,0,1,1,0,1.556Z" transform="translate(-149.963 -301.581)" fill="#3e5d56"/>
    <path id="Trazado_1007734" data-name="Trazado 1007734" d="M261.816,469.636h-14.6a.778.778,0,0,1,0-1.556h14.6a.778.778,0,0,1,0,1.556Z" transform="translate(-149.963 -365.399)" fill="#3e5d56"/>
    <path id="Trazado_1007735" data-name="Trazado 1007735" d="M261.816,536.676h-14.6a.778.778,0,1,1,0-1.556h14.6a.778.778,0,1,1,0,1.556Z" transform="translate(-149.963 -429.178)" fill="#3e5d56"/>
    <path id="Trazado_1007736" data-name="Trazado 1007736" d="M163.356,153.685H151.618a.778.778,0,0,1-.778-.778v-6.129a.778.778,0,0,1,.778-.778h11.738a.778.778,0,0,1,.778.778v6.129A.778.778,0,0,1,163.356,153.685ZM152.4,152.129h10.181v-4.572H152.4Z" transform="translate(-59.013 -58.984)" fill="#3e5d56"/>
    <path id="Trazado_1007737" data-name="Trazado 1007737" d="M538.48,553.646a9.263,9.263,0,1,1,9.29-9.263A9.287,9.287,0,0,1,538.48,553.646Zm0-16.969a7.706,7.706,0,1,0,7.734,7.706A7.729,7.729,0,0,0,538.48,536.676Z" transform="translate(-418.96 -429.178)" fill="#3e5d56"/>
    <path id="Trazado_1007738" data-name="Trazado 1007738" d="M608.211,651.217a.778.778,0,0,1-.551-.228l-3.242-3.243a.778.778,0,1,1,1.1-1.1l2.693,2.693,5.934-5.934a.778.778,0,0,1,1.1,1.1l-6.485,6.486A.778.778,0,0,1,608.211,651.217Z" transform="translate(-490.312 -531.991)" fill="#3e5d56"/>
  </g>
</svg>
