<svg xmlns="http://www.w3.org/2000/svg" width="40" height="40.062" viewBox="0 0 40 40.062">
  <g id="Grupo_1181036" data-name="Grupo 1181036" transform="translate(-0.398)">
    <path id="Trazado_1001329" data-name="Trazado 1001329" d="M129.751,188.37a3.144,3.144,0,0,0,1.973-3.122,3.177,3.177,0,0,0-2.983-2.943,3.127,3.127,0,0,0-3.126,2.1.587.587,0,1,0,1.107.388,1.964,1.964,0,0,1,1.961-1.317,1.973,1.973,0,0,1,.632,3.8A2.061,2.061,0,0,0,128,189.192v.02a.587.587,0,0,0,1.174,0v-.02A.894.894,0,0,1,129.751,188.37Z" transform="translate(-115.388 -168.037)" fill="#3e5d56"/>
    <path id="Trazado_1001330" data-name="Trazado 1001330" d="M312.37,274.473h12.351a.587.587,0,0,0,0-1.174H312.37a.587.587,0,0,0,0,1.174Z" transform="translate(-287.02 -251.914)" fill="#3e5d56"/>
    <path id="Trazado_1001331" data-name="Trazado 1001331" d="M312.37,245.327h12.351a.587.587,0,0,0,0-1.174H312.37a.587.587,0,0,0,0,1.174Z" transform="translate(-287.02 -225.049)" fill="#3e5d56"/>
    <path id="Trazado_1001332" data-name="Trazado 1001332" d="M312.37,216.183h12.351a.587.587,0,0,0,0-1.174H312.37a.587.587,0,0,0,0,1.174Z" transform="translate(-287.02 -198.185)" fill="#3e5d56"/>
    <path id="Trazado_1001333" data-name="Trazado 1001333" d="M312.37,187.037h12.351a.587.587,0,0,0,0-1.174H312.37a.587.587,0,0,0,0,1.174Z" transform="translate(-287.02 -171.32)" fill="#3e5d56"/>
    <path id="Trazado_1001334" data-name="Trazado 1001334" d="M40.4,1.823A1.825,1.825,0,0,0,38.574,0H14.5A1.825,1.825,0,0,0,12.68,1.823V11.954h0a.587.587,0,0,0,.587.587h2.206a3.825,3.825,0,0,1,3.82,3.82v5.924a3.449,3.449,0,0,1-3.445,3.445H10.687a3.449,3.449,0,0,1-3.445-3.445V16.362a3.823,3.823,0,0,1,3.344-3.791.587.587,0,1,0-.145-1.165,5,5,0,0,0-4.372,4.956v.188a2.63,2.63,0,1,0,0,5.257v.479a4.624,4.624,0,0,0,4.291,4.606V28.58H4.8a4.4,4.4,0,0,0-4.4,4.4v6.5a.587.587,0,1,0,1.174,0V35.233h4.02v4.243a.587.587,0,1,0,1.174,0V34.646a.587.587,0,0,0-.587-.587H1.571V32.98A3.226,3.226,0,0,1,4.8,29.754h16.94a3.23,3.23,0,0,1,3.226,3.226v1.079H20.357a.587.587,0,0,0-.587.587v4.829a.587.587,0,0,0,1.174,0V35.233h4.02v4.243a.587.587,0,0,0,1.174,0v-6.5a4.4,4.4,0,0,0-4.4-4.4H16.176V26.891a4.624,4.624,0,0,0,4.291-4.606v-.479a2.63,2.63,0,1,0,0-5.257,5.17,5.17,0,0,0-.788-2.874H37.7a.587.587,0,0,0,.587-.587V6.875a.587.587,0,0,0-.587-.587H15.378a.587.587,0,0,0-.587.587v4.492h-.937V5.352h25.37V35.163a.65.65,0,0,1-.649.65H28.295a.587.587,0,1,0,0,1.174h10.28A1.825,1.825,0,0,0,40.4,35.163Zm-34.4,18.81a1.455,1.455,0,1,1,0-2.91h.075v2.91H5.993Zm5.54,7.947V26.9H15V28.58ZM13.854,1.823a.65.65,0,0,1,.65-.649H38.574a.65.65,0,0,1,.65.649V4.178H13.854Zm6.688,15.9a1.455,1.455,0,0,1,0,2.91h-.075v-2.91h.075ZM37.114,7.462V12.5H18.638a4.971,4.971,0,0,0-2.673-1.109V7.462Z" fill="#3e5d56"/>
    <path id="Trazado_1001335" data-name="Trazado 1001335" d="M189.433,26.7h-4.5a.587.587,0,1,0,0,1.174h4.5a.587.587,0,1,0,0-1.174Z" transform="translate(-169.553 -24.609)" fill="#3e5d56"/>
    <path id="Trazado_1001336" data-name="Trazado 1001336" d="M345.8,313.136l1.468-.244a2.9,2.9,0,0,0,1.585-.815l6.4-6.4a1.887,1.887,0,1,0-2.669-2.669l-6.4,6.4a2.9,2.9,0,0,0-.815,1.585l-.244,1.468a.587.587,0,0,0,.579.683A.579.579,0,0,0,345.8,313.136Zm.727-1.951a1.734,1.734,0,0,1,.487-.947l6.4-6.4a.714.714,0,0,1,1.009,1.009l-6.4,6.4a1.733,1.733,0,0,1-.947.487l-.659.109Z" transform="translate(-317.75 -278.79)" fill="#3e5d56"/>
    <circle id="Elipse_13743" data-name="Elipse 13743" cx="0.587" cy="0.587" r="0.587" transform="translate(37.114 2.089)" fill="#3e5d56"/>
    <circle id="Elipse_13744" data-name="Elipse 13744" cx="0.587" cy="0.587" r="0.587" transform="translate(12.697 22.94)" fill="#3e5d56"/>
  </g>
</svg>
