<svg xmlns="http://www.w3.org/2000/svg" width="84" height="84" viewBox="0 0 84 84">
  <g id="Grupo_1181037" data-name="Grupo 1181037" transform="translate(-185.711 -1963)">
    <rect id="Rectángulo_455105" data-name="Rectángulo 455105" width="84" height="84" transform="translate(185.711 1963)" fill="#bbded6"/>
    <g id="Grupo_1179087" data-name="Grupo 1179087" transform="translate(196.711 1974)">
      <g id="Grupo_1179085" data-name="Grupo 1179085">
        <g id="Grupo_1179069" data-name="Grupo 1179069">
          <path id="Trazado_999939" data-name="Trazado 999939" d="M16.93,5.65A.842.842,0,0,1,17,6v4a1,1,0,0,1-1,1H12a1,1,0,0,1-1-1V6a1,1,0,0,1,1-1h4A.988.988,0,0,1,16.93,5.65Z" fill="#5cd6b3"/>
        </g>
        <g id="Grupo_1179070" data-name="Grupo 1179070">
          <path id="Trazado_999940" data-name="Trazado 999940" d="M21,10V6a1,1,0,0,1,1-1h4a.988.988,0,0,1,.93.65A.842.842,0,0,1,27,6v4a1,1,0,0,1-1,1H22A1,1,0,0,1,21,10Z" fill="#5cd6b3"/>
        </g>
        <g id="Grupo_1179071" data-name="Grupo 1179071">
          <path id="Trazado_999941" data-name="Trazado 999941" d="M6.93,5.65A.842.842,0,0,1,7,6v4a1,1,0,0,1-1,1H2a1,1,0,0,1-1-1V6A1,1,0,0,1,2,5H6A.988.988,0,0,1,6.93,5.65Z" fill="#5cd6b3"/>
        </g>
        <g id="Grupo_1179072" data-name="Grupo 1179072">
          <path id="Trazado_999942" data-name="Trazado 999942" d="M53,3V7H37V2a1,1,0,0,1,1-1H52a1,1,0,0,1,1,1Z" fill="#b27946"/>
        </g>
        <g id="Grupo_1179073" data-name="Grupo 1179073">
          <path id="Trazado_999943" data-name="Trazado 999943" d="M38.02,44.9a1.138,1.138,0,0,0,.45.1H57V7H53V3h6a2.006,2.006,0,0,1,2,2V47a2.006,2.006,0,0,1-2,2H31V39h2.07a.785.785,0,0,0,.16.28l4.47,5.36a1.144,1.144,0,0,0,.32.26Z" fill="#cf9e76"/>
        </g>
        <g id="Grupo_1179074" data-name="Grupo 1179074">
          <path id="Trazado_999944" data-name="Trazado 999944" d="M39,39l-.98,5.9a1.144,1.144,0,0,1-.32-.26l-4.47-5.36a.785.785,0,0,1-.16-.28Z" fill="#5cd6b3"/>
        </g>
        <g id="Grupo_1179075" data-name="Grupo 1179075">
          <path id="Trazado_999945" data-name="Trazado 999945" d="M33,29V7H57V24H55l-2.07,1.65A.988.988,0,0,0,52,25H48a1,1,0,0,0-1,1v3H33ZM51,17a6,6,0,1,0-6,6A6,6,0,0,0,51,17Z" fill="#e6e9ed"/>
        </g>
        <g id="Grupo_1179076" data-name="Grupo 1179076">
          <path id="Trazado_999946" data-name="Trazado 999946" d="M52.93,35.65A.988.988,0,0,0,52,35H48a1,1,0,0,0-1,1v4a1,1,0,0,0,1,1h4a1,1,0,0,0,1-1V36A.842.842,0,0,0,52.93,35.65ZM33,38.64V29H47v1a1,1,0,0,0,1,1h4a1,1,0,0,0,1-1V26a.842.842,0,0,0-.07-.35L55,24h2V45H38.47a1.138,1.138,0,0,1-.45-.1L39,39H33.07A.922.922,0,0,1,33,38.64Z" fill="#e6e9ed"/>
        </g>
        <g id="Grupo_1179077" data-name="Grupo 1179077">
          <path id="Trazado_999947" data-name="Trazado 999947" d="M52.93,35.65A.842.842,0,0,1,53,36v4a1,1,0,0,1-1,1H48a1,1,0,0,1-1-1V36a1,1,0,0,1,1-1h4A.988.988,0,0,1,52.93,35.65Z" fill="#fcd770"/>
        </g>
        <g id="Grupo_1179078" data-name="Grupo 1179078">
          <path id="Trazado_999948" data-name="Trazado 999948" d="M52.93,25.65A.842.842,0,0,1,53,26v4a1,1,0,0,1-1,1H48a1,1,0,0,1-1-1V26a1,1,0,0,1,1-1h4A.988.988,0,0,1,52.93,25.65Z" fill="#fcd770"/>
        </g>
        <g id="Grupo_1179079" data-name="Grupo 1179079">
          <circle id="Elipse_13713" data-name="Elipse 13713" cx="6" cy="6" r="6" transform="translate(39 11)" fill="#5cd6b3"/>
        </g>
        <g id="Grupo_1179080" data-name="Grupo 1179080">
          <path id="Trazado_999949" data-name="Trazado 999949" d="M20.4,61H5l.39-3.95a7.854,7.854,0,0,1,1.8-4.28c.1-.12.2-.24.31-.36A7.959,7.959,0,0,1,12,50l1.41,2.11a1.981,1.981,0,0,0,1.66.89h1.86a1.981,1.981,0,0,0,1.66-.89L20,50a7.956,7.956,0,0,1,6.6,7.05L27,61Z" fill="#5cd6b3"/>
        </g>
        <g id="Grupo_1179081" data-name="Grupo 1179081">
          <path id="Trazado_999950" data-name="Trazado 999950" d="M9.34,24.26l-.01.01-2.44.98A2.986,2.986,0,0,0,5,28.03V36a11.007,11.007,0,0,0,7.86,10.55L12,50a7.959,7.959,0,0,0-4.5,2.41c-.11.12-.21.24-.31.36L1,51V30a15,15,0,0,1,30,0V51l-6.19,1.77A7.887,7.887,0,0,0,20,50l-.86-3.45A11.012,11.012,0,0,0,27,36V28.84a3,3,0,0,0-2.83-3L10.81,25.1A1.915,1.915,0,0,1,9.34,24.26Z" fill="#fcd770"/>
        </g>
        <g id="Grupo_1179082" data-name="Grupo 1179082">
          <path id="Trazado_999951" data-name="Trazado 999951" d="M19.14,46.55,20,50l-1.41,2.11a1.981,1.981,0,0,1-1.66.89H15.07a1.981,1.981,0,0,1-1.66-.89L12,50l.86-3.45a11.18,11.18,0,0,0,6.28,0Z" fill="#f0d0b4"/>
        </g>
        <g id="Grupo_1179083" data-name="Grupo 1179083">
          <path id="Trazado_999952" data-name="Trazado 999952" d="M27,28.84V36a11.012,11.012,0,0,1-7.86,10.55,11.18,11.18,0,0,1-6.28,0A11.007,11.007,0,0,1,5,36V28.03a2.986,2.986,0,0,1,1.89-2.78l2.44-.98.01-.01a1.915,1.915,0,0,0,1.47.84l13.36.74a3,3,0,0,1,2.83,3Z" fill="#f0d0b4"/>
        </g>
        <g id="Grupo_1179084" data-name="Grupo 1179084">
          <path id="Trazado_999953" data-name="Trazado 999953" d="M33,38.64a.922.922,0,0,0,.07.36H31V30a14.932,14.932,0,0,0-3-9V3h9V7H33V38.64Z" fill="#d3a06c"/>
        </g>
      </g>
      <g id="Grupo_1179086" data-name="Grupo 1179086">
        <path id="Trazado_999954" data-name="Trazado 999954" d="M15.172,40H14v2h1.172a7.882,7.882,0,0,0,5.535-2.293l-1.414-1.414A5.868,5.868,0,0,1,15.172,40Z"/>
        <path id="Trazado_999955" data-name="Trazado 999955" d="M44,20h2V18h2V16H46V14H44v2H42v2h2Z"/>
        <path id="Trazado_999956" data-name="Trazado 999956" d="M45,24a7,7,0,1,0-7-7A7.009,7.009,0,0,0,45,24Zm0-12a5,5,0,1,1-5,5A5.006,5.006,0,0,1,45,12Z"/>
        <path id="Trazado_999957" data-name="Trazado 999957" d="M2,12H6a2,2,0,0,0,2-2V6.081l1.625-1.3L8.375,3.218,7.03,4.3A1.98,1.98,0,0,0,6,4H2A2,2,0,0,0,0,6v4A2,2,0,0,0,2,12ZM2,6H4.9l-.825.66-.367-.367L2.293,7.707,3.926,9.34,6,7.68V10H2Z"/>
        <path id="Trazado_999958" data-name="Trazado 999958" d="M12,12h4a2,2,0,0,0,2-2V6.081l1.625-1.3-1.25-1.563L17.03,4.3A1.98,1.98,0,0,0,16,4H12a2,2,0,0,0-2,2v4A2,2,0,0,0,12,12Zm0-6h2.9l-.825.66-.367-.367L12.293,7.707,13.926,9.34,16,7.68V10H12Z"/>
        <path id="Trazado_999959" data-name="Trazado 999959" d="M22,12h4a2,2,0,0,0,2-2V6.081l1.625-1.3-1.25-1.563L27.03,4.3A1.98,1.98,0,0,0,26,4H22a2,2,0,0,0-2,2v4A2,2,0,0,0,22,12Zm0-6h2.9l-.825.66-.367-.367L22.293,7.707,23.926,9.34,26,7.68V10H22Z"/>
        <path id="Trazado_999960" data-name="Trazado 999960" d="M52,24H48a2,2,0,0,0-2,2v4a2,2,0,0,0,2,2h4a2,2,0,0,0,2-2V26.081l1.625-1.3-1.25-1.563L53.03,24.294A1.989,1.989,0,0,0,52,24Zm0,6H48V26h2.9l-.825.66-.367-.367-1.414,1.414,1.633,1.633L52,27.68Z"/>
        <path id="Trazado_999961" data-name="Trazado 999961" d="M54.375,33.219,53.03,34.3A1.98,1.98,0,0,0,52,34H48a2,2,0,0,0-2,2v4a2,2,0,0,0,2,2h4a2,2,0,0,0,2-2V36.081l1.625-1.3ZM52,40H48V36h2.9l-.825.66-.367-.367-1.414,1.414,1.633,1.633L52,37.68Z"/>
        <path id="Trazado_999962" data-name="Trazado 999962" d="M59,2H54a2,2,0,0,0-2-2H38a2,2,0,0,0-2,2H30V4h6V6H32V30a15.9,15.9,0,0,0-3-9.292V12H27v6.411A15.977,15.977,0,0,0,0,30V51.753l5.59,1.6a8.873,8.873,0,0,0-1.191,3.6L3.9,62H28.106L27.6,56.953a8.887,8.887,0,0,0-1.19-3.6l5.59-1.6V50H59a3,3,0,0,0,3-3V5A3,3,0,0,0,59,2ZM38,2H52V6H38ZM56,8V44H39.18l1-6H34V8ZM37.372,42.684,35.135,40H37.82ZM21.62,60l.294-1.473A4.421,4.421,0,0,0,22,57.662v-.248a4.384,4.384,0,0,0-1.293-3.121l-1.414,1.414A2.4,2.4,0,0,1,20,57.414v.248a2.424,2.424,0,0,1-.047.473L19.581,60H12.42l-.373-1.865A2.424,2.424,0,0,1,12,57.662v-.248a2.4,2.4,0,0,1,.707-1.707l-1.414-1.414A4.384,4.384,0,0,0,10,57.414v.248a4.421,4.421,0,0,0,.086.865L10.38,60H6.1l.285-2.848a6.952,6.952,0,0,1,5.17-6.012l1.016,1.524A2.99,2.99,0,0,0,15.07,54h1.859a2.992,2.992,0,0,0,2.5-1.337L20.44,51.14a6.951,6.951,0,0,1,5.169,6.012L25.9,60ZM16,46A10.011,10.011,0,0,1,6,36V28.031a1.987,1.987,0,0,1,1.258-1.856l1.816-.728a2.909,2.909,0,0,0,1.682.651l13.354.742a2,2,0,0,1,1.89,2V36A10.011,10.011,0,0,1,16,46Zm0,2a12.012,12.012,0,0,0,2.407-.243l.515,2.056-1.16,1.741A1,1,0,0,1,16.93,52H15.07a1,1,0,0,1-.832-.445l-1.161-1.741.514-2.057A12.032,12.032,0,0,0,16,48Zm14,2.245-4.89,1.4a8.926,8.926,0,0,0-4.293-2.495l-.492-1.966A12.01,12.01,0,0,0,28,36V28.838a4,4,0,0,0-3.778-3.993L10.868,24.1a.918.918,0,0,1-.36-1.738l.939-.47-.9-1.789-.939.47A2.9,2.9,0,0,0,8,23.186a2.955,2.955,0,0,0,.046.519l-1.531.613A3.979,3.979,0,0,0,4,28.031V36a12.01,12.01,0,0,0,7.674,11.181l-.492,1.967a8.919,8.919,0,0,0-4.293,2.495L2,50.245V30a14,14,0,0,1,28,0ZM60,47a1,1,0,0,1-1,1H32V38.638a2.007,2.007,0,0,0,.463,1.281l4.471,5.363A2,2,0,0,0,38.469,46H58V6H54V4h5a1,1,0,0,1,1,1Z"/>
        <path id="Trazado_999963" data-name="Trazado 999963" d="M36,24h4v2H36Z"/>
        <path id="Trazado_999964" data-name="Trazado 999964" d="M36,28h8v2H36Z"/>
        <path id="Trazado_999965" data-name="Trazado 999965" d="M36,32h6v2H36Z"/>
        <circle id="Elipse_13714" data-name="Elipse 13714" cx="1" cy="1" r="1" transform="translate(21 31)"/>
        <circle id="Elipse_13715" data-name="Elipse 13715" cx="1" cy="1" r="1" transform="translate(9 31)"/>
      </g>
    </g>
  </g>
</svg>
