<svg xmlns="http://www.w3.org/2000/svg" width="643.537" height="279.31" viewBox="0 0 643.537 279.31">
  <g id="Grupo_1182040" data-name="Grupo 1182040" transform="translate(-134.007 -533.021)">
    <g id="Grupo_1182035" data-name="Grupo 1182035" transform="translate(473.287 656.706)">
      <path id="Trazado_1007628" data-name="Trazado 1007628" d="M1517.6,1042.462,1457.43,982.29a50.41,50.41,0,0,0-71.294,0l-60.07,60.172Z" transform="translate(-1326.064 -967.524)" fill="#ffbdb6"/>
      <path id="Trazado_1007629" data-name="Trazado 1007629" d="M1326.06,1230.78v57.928a22.757,22.757,0,0,0,22.756,22.759H1494.84a22.755,22.755,0,0,0,22.756-22.759V1230.78Z" transform="translate(-1326.06 -1155.842)" fill="#ffbdb6"/>
      <circle id="Elipse_13900" data-name="Elipse 13900" cx="28.288" cy="28.288" r="28.288" transform="translate(67.428 10.712)" fill="#fff"/>
      <text id="_4" data-name="4" transform="translate(86.72 49.765)" fill="#12263f" font-size="32" font-family="SegoeUIBlack, Segoe UI"><tspan x="0" y="0">4</tspan></text>
    </g>
    <g id="Grupo_1182036" data-name="Grupo 1182036" transform="translate(247.007 656.706)">
      <path id="Trazado_1007630" data-name="Trazado 1007630" d="M722.853,1042.462,662.68,982.29a50.408,50.408,0,0,0-71.293,0l-60.07,60.172Z" transform="translate(-531.316 -967.524)" fill="#99bfb7"/>
      <path id="Trazado_1007631" data-name="Trazado 1007631" d="M531.315,1230.78v57.928a22.757,22.757,0,0,0,22.758,22.759H700.1a22.755,22.755,0,0,0,22.755-22.759V1230.78Z" transform="translate(-531.315 -1155.842)" fill="#99bfb7"/>
      <path id="Trazado_1007632" data-name="Trazado 1007632" d="M824.763,1033.443a28.289,28.289,0,1,1-28.288-28.288A28.286,28.286,0,0,1,824.763,1033.443Z" transform="translate(-700.759 -994.443)" fill="#fff"/>
      <text id="_2" data-name="2" transform="translate(85.951 49.765)" fill="#12263f" font-size="32" font-family="SegoeUIBlack, Segoe UI"><tspan x="0" y="0">2</tspan></text>
    </g>
    <g id="Grupo_1182037" data-name="Grupo 1182037" transform="translate(586.008 533.021)">
      <path id="Trazado_1007633" data-name="Trazado 1007633" d="M1914.973,816.474,1854.8,876.645a50.4,50.4,0,0,1-71.293,0l-60.071-60.171Z" transform="translate(-1723.437 -735.787)" fill="#99bfb7"/>
      <path id="Trazado_1007634" data-name="Trazado 1007634" d="M1723.44,613.708v-57.93a22.757,22.757,0,0,1,22.756-22.758H1892.22a22.755,22.755,0,0,1,22.756,22.758v57.93Z" transform="translate(-1723.439 -533.021)" fill="#99bfb7"/>
      <path id="Trazado_1007635" data-name="Trazado 1007635" d="M2016.886,871.636a28.288,28.288,0,1,0-28.288,28.29A28.287,28.287,0,0,0,2016.886,871.636Z" transform="translate(-1892.707 -754.898)" fill="#fff"/>
      <text id="_5" data-name="5" transform="translate(86.603 127.449)" fill="#12263f" font-size="32" font-family="SegoeUIBlack, Segoe UI"><tspan x="0" y="0">5</tspan></text>
    </g>
    <g id="Grupo_1182038" data-name="Grupo 1182038" transform="translate(360.172 533.021)">
      <path id="Trazado_1007637" data-name="Trazado 1007637" d="M1120.224,816.474l-60.174,60.171a50.4,50.4,0,0,1-71.293,0l-60.068-60.171Z" transform="translate(-928.689 -735.787)" fill="#fbe5b2"/>
      <path id="Trazado_1007638" data-name="Trazado 1007638" d="M928.689,613.708v-57.93a22.757,22.757,0,0,1,22.756-22.758H1097.47a22.755,22.755,0,0,1,22.755,22.758v57.93Z" transform="translate(-928.689 -533.021)" fill="#fbe5b2"/>
      <path id="Trazado_1007639" data-name="Trazado 1007639" d="M1222.134,871.636a28.288,28.288,0,1,0-28.288,28.29A28.287,28.287,0,0,0,1222.134,871.636Z" transform="translate(-1098.13 -755.011)" fill="#fff"/>
      <text id="_3" data-name="3" transform="translate(85.835 127.449)" fill="#12263f" font-size="32" font-family="SegoeUIBlack, Segoe UI"><tspan x="0" y="0">3</tspan></text>
    </g>
    <g id="Grupo_1182039" data-name="Grupo 1182039" transform="translate(133.941 533.021)">
      <path id="Trazado_1007641" data-name="Trazado 1007641" d="M325.477,826.572,265.3,886.743a50.407,50.407,0,0,1-71.294,0l-60.069-60.171Z" transform="translate(-133.875 -745.884)" fill="#ffbdb6"/>
      <path id="Trazado_1007642" data-name="Trazado 1007642" d="M133.941,623.8V565.876A22.757,22.757,0,0,1,156.7,543.117H302.721a22.756,22.756,0,0,1,22.756,22.759V623.8Z" transform="translate(-133.875 -543.117)" fill="#ffbdb6"/>
      <path id="Trazado_1007643" data-name="Trazado 1007643" d="M427.387,881.734A28.288,28.288,0,1,0,399.1,910.022,28.287,28.287,0,0,0,427.387,881.734Z" transform="translate(-303.744 -764.87)" fill="#fff"/>
      <text id="_1" data-name="1" transform="translate(86.066 127.576)" fill="#12263f" font-size="32" font-family="SegoeUIBlack, Segoe UI"><tspan x="0" y="0">1</tspan></text>
    </g>
    <g id="Grupo_1182047" data-name="Grupo 1182047" transform="translate(202 556.844)">
      <g id="Grupo_1182047-2" data-name="Grupo 1182047" transform="translate(0.826 1.645)">
        <path id="Trazado_1007644" data-name="Trazado 1007644" d="M414.145,107.822l6.4-6.4a.437.437,0,0,1,.619,0l1.369,1.369.9,1.368a.437.437,0,0,1,0,.619l-6.165,6.165-1.445-1.445Z" transform="translate(-369.676 -91.042)" fill="#fea3ce"/>
        <path id="Trazado_1007645" data-name="Trazado 1007645" d="M437.564,116.351l-1.368-1.368-6.707,6.707,1.677,1.677,6.4-6.4A.437.437,0,0,0,437.564,116.351Z" transform="translate(-383.343 -103.231)" fill="#fe7ab6"/>
        <path id="Trazado_1007646" data-name="Trazado 1007646" d="M178.876,192.6a29.4,29.4,0,0,1,2.642-2.593l11.073-9.58a11.969,11.969,0,0,0,1.42-1.457l-2.61-4.8-5.249-3.062a11.961,11.961,0,0,0-1.457,1.42l-9.58,11.073a29.417,29.417,0,0,1-2.593,2.642l-7.627,6.848,2.476,4.664,4.657,2.47Z" transform="translate(-147.682 -153.224)" fill="#8ac9fe"/>
        <path id="Trazado_1007647" data-name="Trazado 1007647" d="M208.536,238.77l6.848-7.627a29.4,29.4,0,0,1,2.642-2.593l11.073-9.58a11.978,11.978,0,0,0,1.42-1.457l-2.058-3.561c-.22.259-.459.521-.72.782l-9.682,9.682c-1.1,1.1-3.014,1.467-4.164,2.618-1.129,1.129-1.5,3.042-2.618,4.164l-5.825,5.825Z" transform="translate(-183.804 -191.378)" fill="#60b7ff"/>
        <path id="Trazado_1007648" data-name="Trazado 1007648" d="M368.539,155.881a10,10,0,0,0,1.211-2.75l.2-.83c.106-.434-.177-.736-.493-1.052l-1.536-1.845-1.846-1.846a1.278,1.278,0,0,0-1.206-.338l-.83.2a11.963,11.963,0,0,0-4.761,2.378l5.466,5.466,2.624,2.315a11.97,11.97,0,0,0,1.167-1.7Z" transform="translate(-320.812 -131.911)" fill="#f5f8f9"/>
        <path id="Trazado_1007649" data-name="Trazado 1007649" d="M412.05,176.127a11.962,11.962,0,0,0,2.378-4.761l.2-.83a1.278,1.278,0,0,0-.338-1.206l-1.845-1.845a10.455,10.455,0,0,1-3.176,5.863Z" transform="translate(-365.335 -149.992)" fill="#e8edf2"/>
        <path id="Trazado_1007650" data-name="Trazado 1007650" d="M102.982,384.939c1.188,1.188,5.77,1.9,7.95-.531l4.314-4.832-1.875-2.339-5.1-5.1-5.063,4.546A5.692,5.692,0,0,0,102.982,384.939Z" transform="translate(-91.056 -332.261)" fill="#60b7ff"/>
        <path id="Trazado_1007651" data-name="Trazado 1007651" d="M124.819,426.287l4.546-5.063-2.416-2.416-1.692,1.692-.568.787-.585.366-.966.966-.636.855-.517.3-.617.617q-.175.175-.36.336c-.2.174-.409.555-.625.7-.232.16-.472.088-.72.22a7.15,7.15,0,0,1-2.46.778l-.641.08A5.692,5.692,0,0,0,124.819,426.287Z" transform="translate(-104.633 -373.831)" fill="#26a6fe"/>
        <path id="Trazado_1007652" data-name="Trazado 1007652" d="M239.091,283.235l-1.662,1.662-.735.425-.425.734-1.146,1.146-.734.426-.425.735-1.655,1.653a1.9,1.9,0,0,1-2.681,0l-.005-.005a1.9,1.9,0,0,1,0-2.681l1.655-1.653.734-.426.425-.735,1.146-1.145.735-.426.425-.735,1.662-1.662a1.9,1.9,0,0,1,2.681,0l.005.005A1.9,1.9,0,0,1,239.091,283.235Z" transform="translate(-204.837 -250.196)" fill="#f5f8f9"/>
        <path id="Trazado_1007653" data-name="Trazado 1007653" d="M17.148,323.473l-6.166,6.166a.437.437,0,0,1-.619,0L9,328.735l-1.369-1.369a.437.437,0,0,1,0-.619l6.4-6.4Z" transform="translate(-7.499 -286.141)" fill="#fea3ce"/>
        <path id="Trazado_1007654" data-name="Trazado 1007654" d="M21.192,342.4l1.368,1.368a.437.437,0,0,0,.619,0l6.4-6.4L27.9,335.7Z" transform="translate(-19.695 -299.81)" fill="#fe7ab6"/>
        <path id="Trazado_1007655" data-name="Trazado 1007655" d="M92.453,78.725a29.4,29.4,0,0,1-2.642,2.593L78.739,90.9a11.976,11.976,0,0,0-1.42,1.457l3,5.184,4.939,2.752a11.96,11.96,0,0,0,1.457-1.42L96.292,87.8a29.417,29.417,0,0,1,2.593-2.642l7.627-6.848-2.167-4.354L99.3,71.1Z" transform="translate(-69.684 -64.145)" fill="#8ac9fe"/>
        <path id="Trazado_1007656" data-name="Trazado 1007656" d="M134.91,123.653a29.415,29.415,0,0,1,2.593-2.642l7.627-6.848-1.676-3.156-5.9,5.9c-1.067,1.067-2.929,1.383-4.014,2.467-1.2,1.2-1.618,3.164-2.769,4.315l-9.7,9.7c-.252.252-.5.482-.746.7l3.542,2.066a11.961,11.961,0,0,0,1.457-1.42Z" transform="translate(-107.992 -99.69)" fill="#60b7ff"/>
        <path id="Trazado_1007657" data-name="Trazado 1007657" d="M54.839,267.189a11.966,11.966,0,0,0-1.211,3.06l-.2.83a1.278,1.278,0,0,0,.338,1.206l1.845,1.845,1.845,1.381a1.278,1.278,0,0,0,1.206.338l.83-.2a7.8,7.8,0,0,0,2.518-.825,11.971,11.971,0,0,0,1.7-1.167l-2.237-2.7-5.467-5.467A11.972,11.972,0,0,0,54.839,267.189Z" transform="translate(-48.371 -237.278)" fill="#f5f8f9"/>
        <path id="Trazado_1007658" data-name="Trazado 1007658" d="M79.534,315.5c-3.144,3.144-5.846,3.158-5.847,3.158l1.845,1.845a1.278,1.278,0,0,0,1.206.338l.83-.2a11.962,11.962,0,0,0,4.761-2.378l-2.778-2.778Z" transform="translate(-66.449 -281.802)" fill="#e8edf2"/>
        <path id="Trazado_1007659" data-name="Trazado 1007659" d="M291.144,9.187a5.692,5.692,0,0,0-8.26.222l-4.546,5.063,5.1,5.1,2.493,1.875,4.6-4.392c2.428-2.18,1.86-6.621.609-7.873Z" transform="translate(-248.721 -7.52)" fill="#60b7ff"/>
        <path id="Trazado_1007660" data-name="Trazado 1007660" d="M330.712,27.457l-.728.728c-.185.185-.393.612-.623.842-.168.168-.347.128-.536.318l-.96.96c-.186.186-.378.6-.577.8s-.383.164-.582.364l-1.689,1.689,2.416,2.416,5.063-4.546a5.692,5.692,0,0,0,.222-8.26s.474,1.263-.763,3.181c-.126.195-.269.615-.432.823s-.364.223-.581.453Q330.831,27.339,330.712,27.457Z" transform="translate(-290.294 -21.097)" fill="#26a6fe"/>
        <path id="Trazado_1007661" data-name="Trazado 1007661" d="M196.218,138.515l-2.81,2.812-.735.426-.425.735-2.812,2.81a1.9,1.9,0,0,1-2.681,0l-.005-.005a1.9,1.9,0,0,1,0-2.681l2.812-2.81.626-.317.534-.843,2.81-2.811a1.9,1.9,0,0,1,2.681,0l.005.005A1.9,1.9,0,0,1,196.218,138.515Z" transform="translate(-166.653 -121.302)" fill="#f5f8f9"/>
      </g>
      <g id="Grupo_1182048" data-name="Grupo 1182048" transform="translate(0.007 0)">
        <path id="Trazado_1007662" data-name="Trazado 1007662" d="M139.174,96.926l-2.737-2.737a1.259,1.259,0,0,0-1.778,0L129.746,99.1a2.116,2.116,0,0,0-1.508-.2l-.831.2a12.787,12.787,0,0,0-6.643,4.059l-9.581,11.072a28.829,28.829,0,0,1-2.521,2.568L95.973,128.194a6.512,6.512,0,0,0-.254,9.451,6.447,6.447,0,0,0,4.6,1.907l.182,0a6.453,6.453,0,0,0,4.671-2.16l11.4-12.69a28.554,28.554,0,0,1,2.567-2.521l6.539-5.657a.82.82,0,1,0-1.073-1.241l-6.54,5.657a30.207,30.207,0,0,0-2.715,2.666l-6.27,6.983-1.568-1.568a.82.82,0,0,0-1.16,1.16l1.63,1.63-4.027,4.484a4.872,4.872,0,0,1-8.5-3.253,4.88,4.88,0,0,1,1.617-3.626l4.485-4.027,2.081,2.081a.82.82,0,1,0,1.16-1.16l-2.019-2.019,6.984-6.27a30.507,30.507,0,0,0,2.665-2.715l9.581-11.072a11.144,11.144,0,0,1,.8-.832l7.156,7.156a11.215,11.215,0,0,1-.832.8l-1.638,1.417a.82.82,0,1,0,1.073,1.241L130.2,112.6a12.8,12.8,0,0,0,4.058-6.644l.2-.83a2.108,2.108,0,0,0-.2-1.509l4.912-4.912a1.259,1.259,0,0,0,0-1.778Zm-6.3,7.811-.2.83a11.189,11.189,0,0,1-1.129,2.85c-.166.293-.347.579-.54.858l-6.912-6.912q.416-.288.859-.54a11.176,11.176,0,0,1,2.85-1.128l.829-.2a.464.464,0,0,1,.433.121l3.691,3.692A.46.46,0,0,1,132.871,104.737Zm.291-2.34-2.2-2.2,4.581-4.581,2.2,2.2Z" transform="translate(-83.553 -83.562)"/>
        <path id="Trazado_1007663" data-name="Trazado 1007663" d="M229.142,273.313l-6.782,6.782a2.716,2.716,0,0,0,0,3.838l.008.008a2.716,2.716,0,0,0,3.841,0l6.782-6.782a2.716,2.716,0,0,0,0-3.838l-.008-.008A2.719,2.719,0,0,0,229.142,273.313Zm-4.095,9.469a1.076,1.076,0,0,1-1.519,0l-.008-.008a1.076,1.076,0,0,1,0-1.521l1.658-1.658,1.527,1.527Zm2.818-2.818-1.527-1.527,1.146-1.146,1.527,1.527ZM231.829,276l-1.658,1.658-1.527-1.527,1.658-1.658a1.076,1.076,0,0,1,1.519,0l.008.008a1.076,1.076,0,0,1,0,1.521Z" transform="translate(-197.337 -242.718)"/>
        <path id="Trazado_1007664" data-name="Trazado 1007664" d="M11.31,40.654l.831-.2a12.789,12.789,0,0,0,6.643-4.059L28.364,25.32a28.815,28.815,0,0,1,2.521-2.568l10.927-9.81a.82.82,0,0,0-1.1-1.221l-2.721,2.443L31.573,7.743,35.6,3.258a4.872,4.872,0,0,1,7.7,5.924.82.82,0,0,0,1.371.9,6.514,6.514,0,0,0-.842-8.176,6.512,6.512,0,0,0-9.45.255l-11.4,12.69a28.54,28.54,0,0,1-2.567,2.521L14.612,22.4a.82.82,0,0,0,1.073,1.241l5.806-5.023A30.205,30.205,0,0,0,24.2,15.948l6.27-6.983,6.3,6.3-6.983,6.27a30.507,30.507,0,0,0-2.665,2.715L17.543,35.319q-.34.393-.713.75L9.668,28.907c.239-.249.489-.488.749-.713l2.373-2.053A.82.82,0,0,0,11.717,24.9L9.344,26.953A12.8,12.8,0,0,0,5.286,33.6l-.2.83a2.108,2.108,0,0,0,.2,1.509L.374,40.848a1.259,1.259,0,0,0,0,1.779l2.737,2.737a1.259,1.259,0,0,0,1.778,0L9.8,40.45a2.126,2.126,0,0,0,1.018.262,2.084,2.084,0,0,0,.49-.058ZM4,43.932l-2.2-2.2,4.582-4.581,2.2,2.2Zm6.489-4.993L6.8,35.247a.46.46,0,0,1-.121-.432l.2-.83a11.029,11.029,0,0,1,1.74-3.808l6.94,6.94a11.045,11.045,0,0,1-3.808,1.74l-.829.2a.463.463,0,0,1-.433-.121Z" transform="translate(-0.007 0)"/>
        <path id="Trazado_1007665" data-name="Trazado 1007665" d="M182.976,139.97a2.708,2.708,0,0,0,1.921-.794l6.782-6.782a2.716,2.716,0,0,0,0-3.838l-.008-.008a2.716,2.716,0,0,0-3.841,0l-6.782,6.782a2.716,2.716,0,0,0,0,3.838l.008.008A2.707,2.707,0,0,0,182.976,139.97Zm6.016-10.263a1.076,1.076,0,0,1,1.519,0l.008.008a1.076,1.076,0,0,1,0,1.521l-2.811,2.811-1.527-1.527Zm-6.782,6.782,2.811-2.811,1.527,1.527-2.811,2.811a1.076,1.076,0,0,1-1.519,0l-.008-.008a1.076,1.076,0,0,1,0-1.521Z" transform="translate(-160.543 -113.782)"/>
        <circle id="Elipse_13901" data-name="Elipse 13901" cx="0.82" cy="0.82" r="0.82" transform="translate(38.833 3.152)"/>
        <circle id="Elipse_13902" data-name="Elipse 13902" cx="0.82" cy="0.82" r="0.82" transform="translate(40.906 5.224)"/>
        <circle id="Elipse_13903" data-name="Elipse 13903" cx="0.82" cy="0.82" r="0.82" transform="translate(36.714 5.272)"/>
        <circle id="Elipse_13904" data-name="Elipse 13904" cx="0.82" cy="0.82" r="0.82" transform="translate(38.786 7.343)"/>
        <circle id="Elipse_13905" data-name="Elipse 13905" cx="0.82" cy="0.82" r="0.82" transform="translate(34.594 7.391)"/>
        <circle id="Elipse_13906" data-name="Elipse 13906" cx="0.82" cy="0.82" r="0.82" transform="translate(36.666 9.463)"/>
        <circle id="Elipse_13907" data-name="Elipse 13907" cx="0.82" cy="0.82" r="0.82" transform="translate(17.682 44.886)"/>
        <circle id="Elipse_13908" data-name="Elipse 13908" cx="0.82" cy="0.82" r="0.82" transform="translate(19.754 46.957)"/>
        <circle id="Elipse_13909" data-name="Elipse 13909" cx="0.82" cy="0.82" r="0.82" transform="translate(15.563 47.005)"/>
        <circle id="Elipse_13910" data-name="Elipse 13910" cx="0.82" cy="0.82" r="0.82" transform="translate(17.635 49.077)"/>
        <circle id="Elipse_13911" data-name="Elipse 13911" cx="0.82" cy="0.82" r="0.82" transform="translate(13.442 49.125)"/>
        <circle id="Elipse_13912" data-name="Elipse 13912" cx="0.82" cy="0.82" r="0.82" transform="translate(15.515 51.196)"/>
      </g>
    </g>
    <g id="Grupo_1182052" data-name="Grupo 1182052" transform="translate(239.006 731.35)">
      <g id="Grupo_1182050" data-name="Grupo 1182050" transform="translate(87.022 1.02)">
        <path id="Trazado_1007666" data-name="Trazado 1007666" d="M119.309,26.823q2.45,0,4.822-.176l.955-5.342,1.986,5.058q2.324-.28,4.538-.72l.964,3.745h1.02a2.027,2.027,0,0,1,1.177.376C135.373,17.65,132.292,10,119.309,10s-16.064,7.65-15.463,19.764a2.027,2.027,0,0,1,1.177-.376h1.02l.964-3.745a63.474,63.474,0,0,0,12.3,1.18Z" transform="translate(-102.982 -10)" fill="#ffc144" fill-rule="evenodd"/>
        <path id="Trazado_1007667" data-name="Trazado 1007667" d="M117.15,126.125q-2.369.174-4.822.176a63.466,63.466,0,0,1-12.3-1.18l-.964,3.745h-1.02a2.041,2.041,0,1,0,0,4.082H99.71a13.361,13.361,0,0,0,9.557,8.825,13.236,13.236,0,0,0,6.123,0,13.361,13.361,0,0,0,9.557-8.825h1.668a2.041,2.041,0,0,0,0-4.082h-1.02l-.964-3.745q-2.211.438-4.538.72l-1.986-5.058Z" transform="translate(-96.001 -109.478)" fill="#f3c9a6" fill-rule="evenodd"/>
        <path id="Trazado_1007668" data-name="Trazado 1007668" d="M115.612,248.826A13.361,13.361,0,0,1,106.056,240h-1.668c0,7.982-4.253,12.67,2.511,14.452a6.082,6.082,0,0,1,3.612-1.187h1.99C114.94,253.267,115.612,251.426,115.612,248.826Z" transform="translate(-102.347 -216.531)" fill="#ffc144" fill-rule="evenodd"/>
        <path id="Trazado_1007669" data-name="Trazado 1007669" d="M295.558,240A13.361,13.361,0,0,1,286,248.827c0,2.6.672,4.441,3.112,4.441h1.99a6.083,6.083,0,0,1,3.612,1.187c6.763-1.783,2.511-6.47,2.511-14.452h-1.668Z" transform="translate(-266.613 -216.532)" fill="#ffc144" fill-rule="evenodd"/>
        <g id="Grupo_1182049" data-name="Grupo 1182049" transform="translate(2.041 32.295)">
          <path id="Trazado_1007670" data-name="Trazado 1007670" d="M217.612,332.48a5.637,5.637,0,0,0,4.362-2.067c-.985-.72-1.3-2.146-1.3-3.929a13.236,13.236,0,0,1-6.123,0c0,1.783-.316,3.209-1.3,3.929A5.637,5.637,0,0,0,217.612,332.48Z" transform="translate(-203.326 -326.484)" fill="#f3c9a6" fill-rule="evenodd"/>
          <path id="Trazado_1007671" data-name="Trazado 1007671" d="M116,462h6.123v4.082H116Z" transform="translate(-116.001 -448.173)" fill="#f3c9a6" fill-rule="evenodd"/>
          <path id="Trazado_1007672" data-name="Trazado 1007672" d="M336,462h6.123v4.082H336Z" transform="translate(-313.55 -448.173)" fill="#f3c9a6" fill-rule="evenodd"/>
        </g>
        <path id="Trazado_1007673" data-name="Trazado 1007673" d="M138.45,378.967v-4.082h6.123V371.62a6.141,6.141,0,0,0-6.123-6.123h-1.99a2.982,2.982,0,0,1-1.811-.512,5.637,5.637,0,0,1-8.725,0,2.982,2.982,0,0,1-1.811.512h-1.99A6.141,6.141,0,0,0,116,371.62v3.265h6.123v4.082Z" transform="translate(-113.96 -328.762)" fill="#c193dc" fill-rule="evenodd"/>
        <path id="Trazado_1007674" data-name="Trazado 1007674" d="M170.358,365.524a9.612,9.612,0,0,0,17.478,0q-.284-.027-.576-.027h-1.99a2.982,2.982,0,0,1-1.811-.512,5.637,5.637,0,0,1-8.725,0,2.982,2.982,0,0,1-1.811.512h-1.99Q170.643,365.5,170.358,365.524Z" transform="translate(-162.77 -328.762)" fill="#b278d3" fill-rule="evenodd"/>
      </g>
      <g id="Grupo_1182051" data-name="Grupo 1182051" transform="translate(86.002 0)">
        <path id="Trazado_1007675" data-name="Trazado 1007675" d="M118.672,25.33a3.058,3.058,0,0,0,1.181-4.987c.321-7.725-.976-12.848-4.074-16.1C113.057,1.388,108.991,0,103.349,0a24.589,24.589,0,0,0-6.027.675,1.02,1.02,0,1,0,.5,1.978,22.567,22.567,0,0,1,5.523-.612c5.054,0,8.636,1.181,10.953,3.611,2.581,2.708,3.716,7.094,3.542,13.744-.069,0-.138-.008-.208-.008h-.23l-.767-2.979a1.021,1.021,0,0,0-1.187-.747c-1.2.238-2.438.442-3.68.608l-1.7-4.319a1.02,1.02,0,0,0-1.954.193l-.814,4.557c-1.309.08-2.637.12-3.958.12a62.436,62.436,0,0,1-12.1-1.16,1.021,1.021,0,0,0-1.187.746l-.767,2.979h-.229c-.07,0-.14,0-.209.008-.146-5.443.571-9.285,2.234-12.024a1.02,1.02,0,1,0-1.745-1.059c-1.966,3.239-2.762,7.706-2.5,14.029a3.058,3.058,0,0,0,1.181,4.987,35.344,35.344,0,0,1-.768,5.614c-.409,2.09-.763,3.9-.349,5.42a4.531,4.531,0,0,0,2.753,2.991,7.11,7.11,0,0,0-1.619,4.523v7.347a1.021,1.021,0,0,0,1.02,1.02h28.572a1.021,1.021,0,0,0,1.02-1.02V43.879a7.11,7.11,0,0,0-1.619-4.523,4.531,4.531,0,0,0,2.753-2.991c.414-1.525.06-3.33-.349-5.42A35.327,35.327,0,0,1,118.672,25.33Zm-29.609-3.9h1.02a1.021,1.021,0,0,0,.988-.766l.726-2.819a64.829,64.829,0,0,0,11.551,1.019c1.637,0,3.284-.06,4.9-.178a1.02,1.02,0,0,0,.93-.838l.32-1.789.667,1.7a1.022,1.022,0,0,0,1.072.64c1.232-.148,2.461-.333,3.667-.552l.726,2.819a1.02,1.02,0,0,0,.988.766h1.02a1.02,1.02,0,0,1,0,2.041h-1.668a1.02,1.02,0,0,0-.97.7,12.24,12.24,0,0,1-23.3,0,1.02,1.02,0,0,0-.97-.7H89.063a1.02,1.02,0,1,1,0-2.041Zm25.421,18.306a1.03,1.03,0,0,0,.1.069,5.1,5.1,0,0,1,2.035,4.074v2.245h-4.082a1.02,1.02,0,1,0-2.041,0v4.082H96.206V46.123a1.02,1.02,0,1,0-2.041,0H90.084V43.878A5.1,5.1,0,0,1,92.118,39.8a.983.983,0,0,0,.1-.07,5.079,5.079,0,0,1,1.823-.826,10.628,10.628,0,0,0,18.623,0A5.08,5.08,0,0,1,114.485,39.735Zm-11.135,2.637a8.642,8.642,0,0,1-6.987-3.6h.813a4.447,4.447,0,0,0,1.592-.272,6.657,6.657,0,0,0,9.162,0,4.445,4.445,0,0,0,1.592.272h.813a8.642,8.642,0,0,1-6.987,3.6Zm2.837-5.321c.035.057.073.115.113.173a4.613,4.613,0,0,1-5.9,0c.038-.056.075-.112.108-.166a5.812,5.812,0,0,0,.745-2.519,14.2,14.2,0,0,0,4.191,0,5.822,5.822,0,0,0,.741,2.513ZM88.879,35.83a11.555,11.555,0,0,1,.382-4.494,38.369,38.369,0,0,0,.794-5.717A14.514,14.514,0,0,0,94.88,31.9a14.226,14.226,0,0,0,4.363,2.195c-.161,2.426-1.1,2.646-2.067,2.646h-1.99a7.1,7.1,0,0,0-3.793,1.094c-1.9-.588-2.343-1.371-2.514-2Zm1.2,12.334h4.082v2.041H90.084Zm22.449,2.041V48.164h4.082v2.041ZM117.82,35.83c-.171.629-.618,1.412-2.514,2a7.1,7.1,0,0,0-3.793-1.094h-1.99c-.964,0-1.907-.22-2.067-2.646a14.225,14.225,0,0,0,4.363-2.195,14.514,14.514,0,0,0,4.824-6.277,38.384,38.384,0,0,0,.794,5.717A11.554,11.554,0,0,1,117.82,35.83Z" transform="translate(-86.002 0)"/>
        <path id="Trazado_1007676" data-name="Trazado 1007676" d="M223.719,266.145a1.02,1.02,0,0,0,1.394.373,3.554,3.554,0,0,1,3.555,0,1.02,1.02,0,0,0,1.02-1.767,5.6,5.6,0,0,0-5.6,0A1.021,1.021,0,0,0,223.719,266.145Z" transform="translate(-209.543 -237.062)"/>
        <path id="Trazado_1007677" data-name="Trazado 1007677" d="M196.885,210.119a2.7,2.7,0,0,0,1.844-.763,1.02,1.02,0,0,0-1.384-1.5.586.586,0,0,1-.919,0,1.02,1.02,0,1,0-1.384,1.5A2.7,2.7,0,0,0,196.885,210.119Z" transform="translate(-183.619 -186.402)"/>
        <path id="Trazado_1007678" data-name="Trazado 1007678" d="M276.888,210.119a2.7,2.7,0,0,0,1.843-.763,1.02,1.02,0,0,0-1.384-1.5.586.586,0,0,1-.919,0,1.02,1.02,0,0,0-1.384,1.5,2.7,2.7,0,0,0,1.844.763Z" transform="translate(-255.459 -186.403)"/>
        <path id="Trazado_1007679" data-name="Trazado 1007679" d="M149.174,26.349a1.02,1.02,0,1,0,0-2.041h0a1.02,1.02,0,1,0,0,2.041Z" transform="translate(-141.811 -21.828)"/>
      </g>
    </g>
    <g id="Grupo_1182053" data-name="Grupo 1182053" transform="translate(387.035 556.843)">
      <path id="Trazado_1007680" data-name="Trazado 1007680" d="M80,58.263l-4.2,1.615a.527.527,0,0,1-.378,0l-4.2-1.615A26.337,26.337,0,0,1,54.346,33.682v-18.9a1.053,1.053,0,0,1,.744-1.007L75.306,7.55a1.053,1.053,0,0,1,.62,0l20.217,6.22a1.053,1.053,0,0,1,.744,1.007v18.9A26.337,26.337,0,0,1,80,58.263Z" transform="translate(-6.711 -6.713)" fill="#dff6fd"/>
      <path id="Trazado_1007681" data-name="Trazado 1007681" d="M100.193,84.078A23.064,23.064,0,0,1,85.408,62.551V45.674a.527.527,0,0,1,.372-.5L103.251,39.8a.526.526,0,0,1,.31,0l17.471,5.376a.527.527,0,0,1,.372.5V62.551a23.064,23.064,0,0,1-14.785,21.527l-3.024,1.163a.527.527,0,0,1-.378,0Z" transform="translate(-34.501 -35.582)" fill="#80d261"/>
      <path id="Trazado_1007682" data-name="Trazado 1007682" d="M314.956,209.509l-4.169-4.169,5.413-4.331a2.2,2.2,0,0,1,3.086,3.086Z" transform="translate(-236.137 -179.404)" fill="#dff6fd"/>
      <path id="Trazado_1007683" data-name="Trazado 1007683" d="M145.719,218.959a7.924,7.924,0,0,0-7.959-7.8h-5.85a.316.316,0,0,0-.291.192l-.581,1.356a1.265,1.265,0,0,1-1.163.767h-1.034a.982.982,0,0,1-.68-.259.95.95,0,0,1-.22-1.063l.331-.772a.158.158,0,0,0-.145-.22h-7.746a.316.316,0,0,0-.291.192l-2.551,5.952a.527.527,0,0,0,.484.734h10.992a.982.982,0,0,1,.983.982,7.861,7.861,0,1,0,15.721-.059Z" transform="translate(-63.208 -188.913)" fill="#f2fbff"/>
      <path id="Trazado_1007684" data-name="Trazado 1007684" d="M188.523,84.561l-2.472-.761V99.834a23.064,23.064,0,0,1-14.785,21.527,8.951,8.951,0,0,1-6.426,0,23.155,23.155,0,0,1-3.993-1.995,23.006,23.006,0,0,0,6.837,4.1l3.024,1.163a.527.527,0,0,0,.378,0l3.024-1.163A23.064,23.064,0,0,0,188.9,101.941V85.064a.527.527,0,0,0-.372-.5Z" transform="translate(-101.992 -74.972)" fill="#68ca44"/>
      <circle id="Elipse_13913" data-name="Elipse 13913" cx="3.136" cy="3.136" r="3.136" transform="translate(71.514 26.969)" fill="#01c0fa"/>
      <path id="Trazado_1007685" data-name="Trazado 1007685" d="M123.835,23.035A7.53,7.53,0,0,1,131.2,30.23a7.338,7.338,0,0,1-.758,3.429,1.065,1.065,0,0,0-.083.731l.63,2.519a.527.527,0,0,1-.639.639l-2.519-.63A1.065,1.065,0,0,0,127.1,37a7.333,7.333,0,0,1-3.261.76,7.534,7.534,0,0,1-7.359-7.121A7.363,7.363,0,0,1,123.835,23.035Z" transform="translate(-62.292 -20.608)" fill="#e53950"/>
      <path id="Trazado_1007686" data-name="Trazado 1007686" d="M159.782,34.39a1.065,1.065,0,0,1,.083-.731,7.338,7.338,0,0,0,.758-3.429,7.53,7.53,0,0,0-7.361-7.195h0a7.507,7.507,0,0,1,3.461,5.942,7.363,7.363,0,0,1-7.359,7.6,7.157,7.157,0,0,0,3.9,1.179,7.332,7.332,0,0,0,3.261-.76,1.064,1.064,0,0,1,.731-.082l2.519.63a.527.527,0,0,0,.639-.639Z" transform="translate(-91.719 -20.608)" fill="#ca2e43"/>
      <path id="Trazado_1007687" data-name="Trazado 1007687" d="M281.369,252.43a3.926,3.926,0,1,0-3.926,3.926A3.931,3.931,0,0,0,281.369,252.43Zm-6.273,0a2.346,2.346,0,1,1,2.346,2.346A2.349,2.349,0,0,1,275.1,252.43Z" transform="translate(-202.792 -222.325)"/>
      <path id="Trazado_1007688" data-name="Trazado 1007688" d="M180.806,54.888a.79.79,0,0,0,.79-.79V50.826a.79.79,0,1,0-1.58,0V54.1A.79.79,0,0,0,180.806,54.888Z" transform="translate(-119.142 -44.765)"/>
      <circle id="Elipse_13914" data-name="Elipse 13914" cx="0.79" cy="0.79" r="0.79" transform="translate(60.752 11.938)"/>
      <path id="Trazado_1007689" data-name="Trazado 1007689" d="M89.664,6.3,69.448.082a1.835,1.835,0,0,0-1.085,0L62.912,1.76a7.715,7.715,0,0,0-1.369-.123,8.083,8.083,0,0,0-5.661,2.286L48.146,6.3a1.834,1.834,0,0,0-1.3,1.762v18.9A27.126,27.126,0,0,0,64.234,52.288l4.2,1.615a1.315,1.315,0,0,0,.945,0l4.2-1.615A27.126,27.126,0,0,0,90.965,26.969V8.065a1.834,1.834,0,0,0-1.3-1.762Zm-.279,20.667A25.7,25.7,0,0,1,73.009,50.813l-4.1,1.579-4.1-1.579A25.7,25.7,0,0,1,48.425,26.969V8.065a.262.262,0,0,1,.186-.252l5.672-1.745a8.033,8.033,0,0,0-.711,1.989l-2.525.777a1.31,1.31,0,0,0-.929,1.258V26.969A23.854,23.854,0,0,0,65.408,49.233L68.433,50.4a1.315,1.315,0,0,0,.945,0L72.4,49.233A23.854,23.854,0,0,0,87.693,26.969v-8.64a.79.79,0,1,0-1.58,0v8.64A22.274,22.274,0,0,1,71.835,47.759l-2.93,1.127-2.93-1.127A22.274,22.274,0,0,1,51.7,26.969V10.287l1.692-.521q0,.145,0,.291a7.891,7.891,0,0,0,.931,3.431.79.79,0,1,0,1.4-.742,6.3,6.3,0,0,1-.746-2.74,6.573,6.573,0,0,1,6.569-6.789,6.776,6.776,0,0,1,6.571,6.422,6.507,6.507,0,0,1-.676,3.061,1.858,1.858,0,0,0-.141,1.273l.523,2.093-2.093-.523a1.857,1.857,0,0,0-1.273.141,6.5,6.5,0,0,1-2.911.678,6.38,6.38,0,0,1-3.66-1.181.79.79,0,0,0-.9,1.3,7.953,7.953,0,0,0,4.565,1.466,8.072,8.072,0,0,0,3.612-.842.276.276,0,0,1,.189-.024l2.519.63a1.317,1.317,0,0,0,1.6-1.6l-.63-2.519a.276.276,0,0,1,.024-.189,8.184,8.184,0,0,0,.84-3.8,7.98,7.98,0,0,0-1.47-4.4l.682-.21,17.208,5.295v4.355a.79.79,0,1,0,1.58,0v-4.55a1.31,1.31,0,0,0-.929-1.258L69.292,3.458a1.315,1.315,0,0,0-.774,0L67.094,3.9a8.487,8.487,0,0,0-1.7-1.247l3.436-1.057a.266.266,0,0,1,.155,0L89.2,7.813a.262.262,0,0,1,.186.252Z"/>
      <path id="Trazado_1007690" data-name="Trazado 1007690" d="M136.072,193.674l-1.5,1.2a8.761,8.761,0,0,0-3.519-.734H125.2a1.1,1.1,0,0,0-1.017.671l-.581,1.356a.475.475,0,0,1-.437.288h-1.034a.206.206,0,0,1-.135-.041.16.16,0,0,1-.039-.18l.331-.771a.948.948,0,0,0-.871-1.322h-7.746a1.1,1.1,0,0,0-1.017.671l-2.551,5.952a1.317,1.317,0,0,0,1.211,1.835h4.128a.79.79,0,0,0,0-1.58h-3.729l2.271-5.3h6.48a1.739,1.739,0,0,0,1.668,2.315h1.034a2.053,2.053,0,0,0,1.889-1.246l.458-1.069h5.537a7.139,7.139,0,0,1,7.169,7.017,7.07,7.07,0,1,1-14.141.053,1.774,1.774,0,0,0-1.773-1.772h-3.176a.79.79,0,1,0,0,1.58h3.176a.192.192,0,0,1,.192.192,8.651,8.651,0,1,0,17.3-.065,8.491,8.491,0,0,0-.722-3.37l1.188-1.485a2.986,2.986,0,0,0-4.2-4.2Zm2.963,3.209-.791.989a8.8,8.8,0,0,0-2.182-2.167l1-.8a1.406,1.406,0,0,1,1.976,1.975Z" transform="translate(-56.502 -172.684)"/>
    </g>
    <g id="Grupo_1182056" data-name="Grupo 1182056" transform="translate(656.007 561.382)">
      <g id="Flat_8_" transform="translate(0.755 0.755)">
        <path id="Trazado_1007691" data-name="Trazado 1007691" d="M7.5,473.5H57.44v3.021H7.5Z" transform="translate(-7.5 -426.58)" fill="#ebfdc0"/>
        <path id="Trazado_1007692" data-name="Trazado 1007692" d="M67.823,407.653H20.5v-5.034l17.989-2.3a5.034,5.034,0,0,1,5.672,4.994v0a5.034,5.034,0,0,1,5.672-4.994l17.989,2.3Z" transform="translate(-19.191 -360.733)" fill="#fff"/>
        <path id="Trazado_1007693" data-name="Trazado 1007693" d="M44.161,444.184a5.094,5.094,0,0,0-.048-.684H20.5v3.021H67.823V443.5H44.209A5.093,5.093,0,0,0,44.161,444.184Z" transform="translate(-19.191 -399.601)" fill="#e4e8ed"/>
        <path id="Trazado_1007694" data-name="Trazado 1007694" d="M111.61,109.538,98.029,95.9a8.677,8.677,0,0,1,12.294-12.247l1.286,1.291,1.286-1.291A8.677,8.677,0,0,1,125.19,95.9Z" transform="translate(-86.639 -73.693)" fill="#f88fa4"/>
        <path id="Trazado_1007695" data-name="Trazado 1007695" d="M125.2,154.681l-13.58,13.633-13.58-13.633a8.635,8.635,0,0,1-2.359-4.413,8.667,8.667,0,0,0,2.359,7.836l13.58,13.633L125.2,158.1a8.668,8.668,0,0,0,2.359-7.836A8.636,8.636,0,0,1,125.2,154.681Z" transform="translate(-86.646 -135.893)" fill="#f05475"/>
        <g id="Grupo_1182054" data-name="Grupo 1182054" transform="translate(3.222)">
          <path id="Trazado_1007696" data-name="Trazado 1007696" d="M49.569,281.521H46.548V278.5H42.521v3.021H39.5v4.027h3.021v3.021h4.027v-3.021h3.021Z" transform="translate(-39.5 -251.214)" fill="#ebfdc0"/>
          <path id="Trazado_1007697" data-name="Trazado 1007697" d="M413.569,10.521h-3.021V7.5h-4.027v3.021H403.5v4.027h3.021v3.021h4.027V14.548h3.021Z" transform="translate(-366.85 -7.5)" fill="#ebfdc0"/>
        </g>
      </g>
      <g id="Grupo_1182055" data-name="Grupo 1182055" transform="translate(12.838 10.673)">
        <path id="Trazado_1007698" data-name="Trazado 1007698" d="M157.5,106h1.51v1.51H157.5Z" transform="translate(-154.479 -106)" fill="#fff"/>
        <path id="Trazado_1007699" data-name="Trazado 1007699" d="M127.5,130h1.51v1.51H127.5Z" transform="translate(-127.5 -127.584)" fill="#fff"/>
      </g>
      <g id="Outline_8_" transform="translate(0)">
        <path id="Trazado_1007700" data-name="Trazado 1007700" d="M1.51,401.665H32.874v-1.51H26.48v-1.582a4.28,4.28,0,0,1,4.27-4.28,4.378,4.378,0,0,1,.551.035l2.357.3.191-1.5-2.357-.3a5.9,5.9,0,0,0-.742-.047,5.783,5.783,0,0,0-5.025,2.931,5.783,5.783,0,0,0-5.025-2.931,5.878,5.878,0,0,0-.742.047l-18.649,2.38v4.944H0v4.531H5.89v-1.51H1.51Zm1.309-5.125,17.33-2.212a4.376,4.376,0,0,1,.551-.035,4.28,4.28,0,0,1,4.27,4.28v1.582H2.819Z" transform="translate(0 -353.235)"/>
        <path id="Trazado_1007701" data-name="Trazado 1007701" d="M116.241,400.028l-14.793-1.888-.191,1.5,13.474,1.72v3.614H100.484v1.51H116.04v1.51H73.5v1.51h44.05v-4.531h-1.309Z" transform="translate(-66.1 -358.053)"/>
        <path id="Trazado_1007702" data-name="Trazado 1007702" d="M40.558,282.579v-3.021h3.021v-5.538H40.558V271H35.021v3.021H32v5.538h3.021v3.021Zm-7.048-4.531v-2.517h3.021V272.51h2.517v3.021h3.021v2.517H39.048v3.021H36.531v-3.021Z" transform="translate(-28.778 -243.714)"/>
        <path id="Trazado_1007703" data-name="Trazado 1007703" d="M404.558,3.021V0h-5.538V3.021H396V8.558h3.021v3.021h5.538V8.558h3.021V3.021Zm1.51,4.027h-3.021v3.021h-2.517V7.048H397.51V4.531h3.021V1.51h2.517V4.531h3.021Z" transform="translate(-356.128)"/>
        <path id="Trazado_1007704" data-name="Trazado 1007704" d="M20.5,219h1.51v1.51H20.5Z" transform="translate(-18.436 -196.95)"/>
        <path id="Trazado_1007705" data-name="Trazado 1007705" d="M475.5,219h1.51v1.51H475.5Z" transform="translate(-427.624 -196.95)"/>
        <path id="Trazado_1007706" data-name="Trazado 1007706" d="M90.135,86.089a7.922,7.922,0,0,1,12.922-8.645l1.821,1.828,1.821-1.828a7.868,7.868,0,0,1,5.612-2.331c.262,0,.528.013.789.039l.149-1.5c-.311-.031-.627-.047-.939-.047a9.368,9.368,0,0,0-6.682,2.776l-.751.754-.751-.754A9.433,9.433,0,0,0,88.741,86.671Z" transform="translate(-79.152 -66.192)"/>
        <path id="Trazado_1007707" data-name="Trazado 1007707" d="M356.382,86.157a7.9,7.9,0,0,1-.611,3.056l1.394.582a9.436,9.436,0,0,0-6.154-12.718L350.6,78.53a7.923,7.923,0,0,1,5.777,7.626Z" transform="translate(-315.304 -69.316)"/>
        <path id="Trazado_1007708" data-name="Trazado 1007708" d="M162.952,248.273l-1.07-1.066-10.6,10.639-10.6-10.639-1.07,1.066,11.668,11.713Z" transform="translate(-125.559 -222.317)"/>
        <path id="Trazado_1007709" data-name="Trazado 1007709" d="M65.163,150.537l4.081,9.988,3.34-11.4,2.612,8.106,3.166-4.18H91.781v-1.51H77.612l-1.868,2.466-3.228-10.018-3.507,11.964-3.571-8.74-2.673,4.328H50.5v1.51H63.608Z" transform="translate(-45.415 -129.495)"/>
      </g>
    </g>
    <g id="Grupo_1182058" data-name="Grupo 1182058" transform="translate(539.941 729.836)">
      <g id="Grupo_1182057" data-name="Grupo 1182057" transform="translate(0 2.27)">
        <path id="Trazado_1007710" data-name="Trazado 1007710" d="M31.673,43.07a6.183,6.183,0,1,0,6.192,6.183A6.194,6.194,0,0,0,31.673,43.07Zm0,10.714a4.531,4.531,0,1,1,4.54-4.531A4.54,4.54,0,0,1,31.673,53.784Z" transform="translate(-3.78 -8.321)"/>
        <path id="Trazado_1007711" data-name="Trazado 1007711" d="M35.41,48.555l-3.773,3.773a.833.833,0,0,1-1.167,0l-1.593-1.593a.825.825,0,0,1,1.167-1.167l1.014,1.005,3.177-3.185a.828.828,0,0,1,1.175,1.167Z" transform="translate(-4.247 -8.925)"/>
        <path id="Trazado_1007712" data-name="Trazado 1007712" d="M29.378,11.616a.827.827,0,0,1-.826.826H7.736a.826.826,0,0,1,0-1.652H28.552A.822.822,0,0,1,29.378,11.616Z" transform="translate(-1.025 -3.534)"/>
        <path id="Trazado_1007713" data-name="Trazado 1007713" d="M20.333,43.816a.832.832,0,0,1-.826.826H6.186a.826.826,0,1,1,0-1.652H19.507A.827.827,0,0,1,20.333,43.816Z" transform="translate(-0.795 -8.309)"/>
        <path id="Trazado_1007714" data-name="Trazado 1007714" d="M52.175,18.689A9.681,9.681,0,1,0,47.7,31.635,9.695,9.695,0,0,0,52.175,18.689Zm-5.2,11.455A8.033,8.033,0,1,1,50.693,19.4,7.985,7.985,0,0,1,46.971,30.144Z" transform="translate(-5.008 -3.895)"/>
        <path id="Trazado_1007715" data-name="Trazado 1007715" d="M54.125,44.012c-.009,0-.009-.009-.009-.017L48.572,33.383a.817.817,0,0,0-1.09-.358l-.221.1L46.5,31.585A13.052,13.052,0,0,0,38.642,8.232V4.076A1.807,1.807,0,0,0,36.836,2.27H1.806A1.807,1.807,0,0,0,0,4.076V43.143c0,.017.009.034.009.051a.859.859,0,0,0,.043.213.255.255,0,0,0,.034.085.9.9,0,0,0,.145.221l.017.017,8.934,8.943a.846.846,0,0,0,.588.238H36.836a1.807,1.807,0,0,0,1.806-1.806V34.362a13.025,13.025,0,0,0,2.921-.383l.749,1.55-.221.111a.858.858,0,0,0-.426.485.8.8,0,0,0,.06.639l5.528,10.6a3.768,3.768,0,0,0,5.008,1.8,4.77,4.77,0,0,0,.5-.281,3.789,3.789,0,0,0,1.363-4.863ZM8.943,50.093,2.819,43.969H8.79a.158.158,0,0,1,.153.153Zm28.046,1.014a.158.158,0,0,1-.153.153H10.6V44.122A1.807,1.807,0,0,0,8.79,42.317H1.652V4.076a.153.153,0,0,1,.153-.153h35.03a.153.153,0,0,1,.153.153V8.317A12.972,12.972,0,0,0,27.007,15H10.748a.826.826,0,1,0,0,1.652h15.5c-.043.128-.1.238-.145.358a13.379,13.379,0,0,0-.69,3.475H5.391a.826.826,0,1,0,0,1.652H25.415a12.746,12.746,0,0,0,.852,3.833H5.391a.826.826,0,1,0,0,1.652h21.65a12.923,12.923,0,0,0,3.228,3.841H5.391a.826.826,0,1,0,0,1.652h27.5a11.271,11.271,0,0,0,1.286.52,13.022,13.022,0,0,0,2.811.639ZM34.724,32.079a11.417,11.417,0,1,1,8.721-.52,11.349,11.349,0,0,1-8.721.52Zm9.445.971c.324-.162.647-.341.954-.528l.647,1.329L43.8,34.8l-.647-1.337c.341-.128.681-.256,1.014-.417Zm7.716,14.428a3.779,3.779,0,0,1-.383.2,2.121,2.121,0,0,1-2.777-1.065l-5.144-9.863,3.9-1.9,5.161,9.888a2.141,2.141,0,0,1-.758,2.734Z" transform="translate(0 -2.27)"/>
      </g>
      <path id="Trazado_1007716" data-name="Trazado 1007716" d="M53.432,17.629a11.412,11.412,0,1,0,.52,8.721,11.333,11.333,0,0,0-.52-8.721Zm-6.039,13.7a9.691,9.691,0,1,1,4.48-12.946,9.675,9.675,0,0,1-4.48,12.946Z" transform="translate(-4.707 -1.323)" fill="#caebff"/>
      <path id="Trazado_1007717" data-name="Trazado 1007717" d="M53.285,39.119l-1.967.954-.647-1.337c.341-.128.681-.256,1.014-.417s.647-.341.954-.528Z" transform="translate(-7.514 -5.268)" fill="#4ebde5"/>
      <path id="Trazado_1007718" data-name="Trazado 1007718" d="M59.474,53.152a3.78,3.78,0,0,1-.383.2,2.121,2.121,0,0,1-2.777-1.065L51.17,42.429l3.9-1.9,5.161,9.888a2.141,2.141,0,0,1-.758,2.734Z" transform="translate(-7.589 -5.674)" fill="#4ebde5"/>
      <path id="Trazado_1007719" data-name="Trazado 1007719" d="M9.434,51.383v5.97L3.31,51.23H9.28A.158.158,0,0,1,9.434,51.383Z" transform="translate(-0.491 -7.261)" fill="#e0e0e0"/>
      <path id="Trazado_1007720" data-name="Trazado 1007720" d="M11.036,15.291H27.3A12.972,12.972,0,0,1,37.277,8.6V4.363a.153.153,0,0,0-.153-.153H2.093a.153.153,0,0,0-.153.153V42.6H9.077a1.807,1.807,0,0,1,1.806,1.806v7.137H37.124a.158.158,0,0,0,.153-.153V34.565a13.023,13.023,0,0,1-2.811-.639,11.271,11.271,0,0,1-1.286-.52H5.679a.826.826,0,0,1,0-1.652H30.557a12.923,12.923,0,0,1-3.228-3.841H5.679a.826.826,0,1,1,0-1.652H26.554a12.746,12.746,0,0,1-.852-3.833H5.679a.826.826,0,1,1,0-1.652H25.7a13.379,13.379,0,0,1,.69-3.475c.043-.119.1-.23.145-.358h-15.5a.826.826,0,0,1,0-1.652ZM28.181,37.307A6.183,6.183,0,1,1,22,43.49,6.2,6.2,0,0,1,28.181,37.307Zm-22.5-.068H19a.826.826,0,0,1,0,1.652H5.679a.826.826,0,0,1,0-1.652ZM7,11.466A.826.826,0,1,1,7,9.814H27.815a.826.826,0,1,1,0,1.652Z" transform="translate(-0.288 -0.288)" fill="#eaeaea"/>
      <path id="Trazado_1007721" data-name="Trazado 1007721" d="M31.961,45.01a4.531,4.531,0,1,0,4.54,4.531A4.534,4.534,0,0,0,31.961,45.01Zm-.5,7a.833.833,0,0,1-1.167,0L28.7,50.418a.825.825,0,1,1,1.167-1.167l1.014,1.005,3.177-3.185a.828.828,0,0,1,1.175,1.167Z" transform="translate(-4.068 -6.338)" fill="#f49292"/>
    </g>
  </g>
</svg>
