<svg xmlns="http://www.w3.org/2000/svg" width="44.182" height="30.364" viewBox="0 0 44.182 30.364">
  <g id="Grupo_1181649" data-name="Grupo 1181649" transform="translate(-306.818 -2548.951)">
    <g id="Grupo_1181645" data-name="Grupo 1181645" transform="translate(-7 -0.999)">
      <path id="Polígono_11" data-name="Polígono 11" d="M6.5,0,13,5H0Z" transform="translate(358 2558) rotate(90)" fill="#3e5d56"/>
      <rect id="Rectángulo_455983" data-name="Rectángulo 455983" width="6" height="7" transform="translate(349 2561)" fill="#3e5d56"/>
    </g>
    <path id="Trazado_1006132" data-name="Trazado 1006132" d="M10.957,18.926,6.07,13.848a.473.473,0,0,0-.675-.006,3.39,3.39,0,0,0-.343,4.413.482.482,0,0,0,.04.047c.311.327.65.666,1.01,1.025.682.682,1.386,1.386,1.908,2.023a.3.3,0,0,1-.038.417c-.041.037-.168.149-.392-.083-1.229-1.275-2.484-2.564-3.7-3.813v-8.6A1.939,1.939,0,0,0,0,9.268V20.512a.473.473,0,0,0,.149.345c3.16,2.968,5.151,4.719,5.714,5.21v3.724a.473.473,0,0,0,.473.473h7.329a.473.473,0,0,0,.473-.473V26.619c0-.513,0-.96.008-1.354.028-3-.028-3.147-2.008-5.135C11.8,19.788,11.415,19.4,10.957,18.926Zm2.244,6.33c0,.4-.008.846-.008,1.363v2.7H6.809V25.851a.473.473,0,0,0-.165-.359c-.02-.018-2.055-1.768-5.7-5.185V9.269a.993.993,0,0,1,1.986,0v8.8a.473.473,0,0,0,.134.33l.04.041c1.245,1.279,2.532,2.6,3.792,3.907a1.187,1.187,0,0,0,1.7.133,1.246,1.246,0,0,0,.141-1.723c-.551-.673-1.273-1.394-1.971-2.092-.346-.346-.674-.673-.971-.985a2.446,2.446,0,0,1-.043-2.789l4.52,4.7c.464.482.852.872,1.194,1.215a6.535,6.535,0,0,1,1.551,1.867,7.785,7.785,0,0,1,.181,2.592ZM28.325,7.331a1.942,1.942,0,0,0-1.939,1.937v8.6c-1.216,1.249-2.471,2.539-3.7,3.813-.225.233-.351.12-.392.083a.3.3,0,0,1-.038-.417c.522-.636,1.226-1.341,1.908-2.023.359-.359.7-.7,1.01-1.026a.474.474,0,0,0,.04-.047,3.39,3.39,0,0,0-.343-4.413.473.473,0,0,0-.334-.139h0a.473.473,0,0,0-.336.145l-4.886,5.077c-.459.477-.843.863-1.182,1.2-1.98,1.989-2.036,2.133-2.008,5.135,0,.394.008.842.008,1.354v3.172a.473.473,0,0,0,.473.473h7.329a.473.473,0,0,0,.473-.473V26.067c.563-.491,2.554-2.243,5.714-5.21a.473.473,0,0,0,.149-.345V9.268a1.942,1.942,0,0,0-1.939-1.937Zm.993,12.976c-3.644,3.417-5.678,5.167-5.7,5.185a.473.473,0,0,0-.165.359v3.467H17.071v-2.7c0-.517,0-.967-.008-1.363a7.784,7.784,0,0,1,.181-2.592A6.534,6.534,0,0,1,18.8,20.8c.342-.343.729-.733,1.194-1.215l4.52-4.7a2.447,2.447,0,0,1-.043,2.789c-.3.312-.625.639-.971.985-.7.7-1.419,1.419-1.97,2.092a1.246,1.246,0,0,0,.141,1.723,1.187,1.187,0,0,0,1.7-.133c1.26-1.306,2.547-2.628,3.792-3.907l.04-.041a.473.473,0,0,0,.134-.33v-8.8a.993.993,0,0,1,1.986,0V20.307ZM17.8,17.259c-.857.713-1.667,1.386-2.324,1.986a.473.473,0,0,1-.638,0c-.657-.6-1.466-1.273-2.324-1.986C9.454,14.711,5.64,11.54,4.437,8.177a.473.473,0,0,1,.89-.319c1.116,3.12,4.82,6.2,7.8,8.674.733.61,1.432,1.191,2.038,1.728.606-.537,1.3-1.118,2.038-1.728a50.845,50.845,0,0,0,5.358-4.908c1.786-2,2.69-3.741,2.763-5.331a4.949,4.949,0,0,0-1.684-3.81A5.424,5.424,0,0,0,19.813.946h0a5.339,5.339,0,0,0-4.268,2.145.473.473,0,0,1-.759,0A5.339,5.339,0,0,0,10.515.946h0A5.424,5.424,0,0,0,6.687,2.483,5.466,5.466,0,0,0,5.076,5.27a.473.473,0,1,1-.928-.18A6.385,6.385,0,0,1,6.018,1.814,6.376,6.376,0,0,1,10.51,0h.005a6.292,6.292,0,0,1,4.646,2.064A6.293,6.293,0,0,1,19.808,0h0a6.376,6.376,0,0,1,4.492,1.814,5.917,5.917,0,0,1,1.96,4.522C26.079,10.379,21.491,14.194,17.8,17.259Zm4.979-8.868c1.125-1.9,1.009-3.245-.4-4.655a3.644,3.644,0,0,0-2.571-1.018.473.473,0,0,1,0-.946h0a4.6,4.6,0,0,1,3.24,1.3c1.731,1.731,1.9,3.522.544,5.806a.473.473,0,0,1-.813-.483ZM2.189,6.6a.473.473,0,0,1,.473-.473H7.677a.473.473,0,0,1,.446.315l.635,1.787,2.226-4.363a.473.473,0,0,1,.886.128L13,10.057l1.729-3.651a.473.473,0,0,1,.427-.27H18.73a.473.473,0,1,1,0,.946H15.454l-2.226,4.7a.473.473,0,0,1-.892-.116L11.194,5.532,9.1,9.635a.473.473,0,0,1-.867-.057L7.343,7.072H2.662A.473.473,0,0,1,2.189,6.6Z" transform="translate(306.868 2549.001)" fill="#3e5d56" stroke="#3e5d56" stroke-width="0.1"/>
  </g>
</svg>
