<svg xmlns="http://www.w3.org/2000/svg" width="44" height="24.743" viewBox="0 0 44 24.743">
  <g id="Grupo_1181650" data-name="Grupo 1181650" transform="translate(-309 -2549.76)">
    <g id="Grupo_1181645" data-name="Grupo 1181645" transform="translate(-5 -2.368)">
      <path id="Polígono_11" data-name="Polígono 11" d="M6.5,0,13,5H0Z" transform="translate(358 2558) rotate(90)" fill="#3e5d56"/>
      <rect id="Rectángulo_455983" data-name="Rectángulo 455983" width="6" height="7" transform="translate(349 2561)" fill="#3e5d56"/>
    </g>
    <path id="Trazado_1006133" data-name="Trazado 1006133" d="M11.08,69.684l-10.57.04h0a.507.507,0,0,1,0-1.014l10.961-.042h0a.507.507,0,0,1,.49.376l.417,1.555,1.642-5.423a.507.507,0,0,1,.987.072l1.176,7.9L17.1,68.84a.507.507,0,0,1,.89-.213l1.347,1.662L20.017,69a.507.507,0,0,1,.449-.271h3.682a.507.507,0,0,1,0,1.014H20.772l-.9,1.7a.507.507,0,0,1-.843.083L17.87,70.089l-1.284,6.005a.507.507,0,0,1-.5.4h-.016a.507.507,0,0,1-.485-.432l-1.255-8.432-1.5,4.963a.507.507,0,0,1-.975-.016Zm18.865-6.6a8.109,8.109,0,0,0-5.713-2.307h-.007a8,8,0,0,0-5.985,2.71,8,8,0,0,0-5.985-2.71h-.007A8.373,8.373,0,0,0,4.164,67.2a.507.507,0,1,0,.994.2,7.165,7.165,0,0,1,2.094-3.6,7.089,7.089,0,0,1,5-2.01h.006a6.979,6.979,0,0,1,5.578,2.8.507.507,0,0,0,.814,0,6.979,6.979,0,0,1,5.579-2.8h.006a7.089,7.089,0,0,1,5,2.01,6.471,6.471,0,0,1,2.2,4.984c-.1,2.072-1.268,4.339-3.585,6.93a65.576,65.576,0,0,1-6.911,6.333c-.972.808-1.9,1.576-2.69,2.284-.794-.707-1.719-1.476-2.69-2.284-3.827-3.182-8.591-7.142-10.057-11.172a.507.507,0,0,0-.953.347c1.56,4.287,6.44,8.344,10.362,11.6,1.105.919,2.149,1.787,3,2.561a.507.507,0,0,0,.684,0c.847-.774,1.891-1.642,3-2.561C26.312,78.893,32.2,74,32.44,68.833a7.524,7.524,0,0,0-2.5-5.748Zm-1.623,9.145a.507.507,0,0,0,.695-.177c1.717-2.895,1.506-5.163-.686-7.354a5.817,5.817,0,0,0-4.1-1.638h0a.507.507,0,0,0,0,1.014,4.8,4.8,0,0,1,3.384,1.341c1.855,1.855,2.008,3.628.53,6.12A.507.507,0,0,0,28.322,72.231Z" transform="translate(308.999 2488.982)" fill="#3e5d56"/>
  </g>
</svg>
