<svg xmlns="http://www.w3.org/2000/svg" width="96" height="96" viewBox="0 0 96 96">
  <g id="Grupo_1177477" data-name="Grupo 1177477" transform="translate(-383.746 -8400.001)">
    <path id="Trazado_997400" data-name="Trazado 997400" d="M48,0A48,48,0,1,1,0,48,48,48,0,0,1,48,0Z" transform="translate(383.746 8400.001)" fill="#ffbdb6"/>
    <g id="Grupo_1179617" data-name="Grupo 1179617" transform="translate(349.343 8414.331)">
      <g id="Grupo_1179604" data-name="Grupo 1179604" transform="translate(75.091 21.085)">
        <g id="Grupo_1179603" data-name="Grupo 1179603" transform="translate(0)">
          <path id="Trazado_1001432" data-name="Trazado 1001432" d="M201.392,160.322a.986.986,0,0,0-.986.986v1.054a.986.986,0,0,0,1.973,0v-1.054A.987.987,0,0,0,201.392,160.322Z" transform="translate(-200.406 -160.322)" fill="#773b3d"/>
        </g>
      </g>
      <g id="Grupo_1179606" data-name="Grupo 1179606" transform="translate(87.742 21.085)">
        <g id="Grupo_1179605" data-name="Grupo 1179605">
          <path id="Trazado_1001433" data-name="Trazado 1001433" d="M297.584,160.322a.986.986,0,0,0-.986.986v1.054a.986.986,0,0,0,1.973,0v-1.054A.986.986,0,0,0,297.584,160.322Z" transform="translate(-296.598 -160.322)" fill="#773b3d"/>
        </g>
      </g>
      <g id="Grupo_1179608" data-name="Grupo 1179608" transform="translate(78.254 28.465)">
        <g id="Grupo_1179607" data-name="Grupo 1179607" transform="translate(0)">
          <path id="Trazado_1001434" data-name="Trazado 1001434" d="M232.468,216.729a.986.986,0,0,0-1.395-.009,4.347,4.347,0,0,1-4.94,0,.986.986,0,1,0-1.386,1.4,6.222,6.222,0,0,0,7.711,0A.986.986,0,0,0,232.468,216.729Z" transform="translate(-224.454 -216.435)" fill="#773b3d"/>
        </g>
      </g>
      <g id="Grupo_1179610" data-name="Grupo 1179610" transform="translate(74.037 17.923)">
        <g id="Grupo_1179609" data-name="Grupo 1179609">
          <path id="Trazado_1001435" data-name="Trazado 1001435" d="M195.485,136.274h-2.108a.986.986,0,0,0,0,1.973h2.109a.986.986,0,1,0,0-1.973Z" transform="translate(-192.39 -136.274)" fill="#773b3d"/>
        </g>
      </g>
      <g id="Grupo_1179612" data-name="Grupo 1179612" transform="translate(86.688 17.923)">
        <g id="Grupo_1179611" data-name="Grupo 1179611">
          <path id="Trazado_1001436" data-name="Trazado 1001436" d="M291.677,136.274h-2.109a.986.986,0,0,0,0,1.973h2.109a.986.986,0,0,0,0-1.973Z" transform="translate(-288.582 -136.274)" fill="#773b3d"/>
        </g>
      </g>
      <g id="Grupo_1179614" data-name="Grupo 1179614" transform="translate(56.114)">
        <g id="Grupo_1179613" data-name="Grupo 1179613">
          <path id="Trazado_1001437" data-name="Trazado 1001437" d="M103.529,46.984,96.419,44.8a2.262,2.262,0,0,0-1.253-2.16l-4.4-2.2V37.3a14.714,14.714,0,0,0,6.184-10.029h.586a3.737,3.737,0,0,0,3.754-3.252,3.616,3.616,0,0,0-2.09-3.659V9.421a7.32,7.32,0,0,0-7.312-7.312h-.167A12.435,12.435,0,0,0,84.446,0a25.148,25.148,0,0,0-12.27,2.77,42.779,42.779,0,0,1-6.127,2.365.986.986,0,0,0-.633,1.327A8.95,8.95,0,0,0,67.023,8.8c-.491.6-1.42,2.15-1.42,5.189v6.419a3.6,3.6,0,0,0,1.514,6.867h.736a14.709,14.709,0,0,0,6.184,10.03v3.134l-4.4,2.2a2.262,2.262,0,0,0-1.253,2.16l-7.11,2.186a7.275,7.275,0,0,0-5.163,6.989V66.352a.986.986,0,0,0,1.973,0V53.973a5.312,5.312,0,0,1,3.77-5.1l7.4-2.274,1.305,1.741L69.075,49.82a3.091,3.091,0,0,0-.58,3.573l2.824,5.647H68.63V57.917a.986.986,0,1,0-1.973,0V59.04H62.372a.986.986,0,0,0-.986.986v6.326a.986.986,0,0,0,.986.986H72.915a.986.986,0,0,0,.986-.986V64.2L75.2,66.793a.986.986,0,0,0,1.764-.882l-6.7-13.4a1.121,1.121,0,0,1,.21-1.3l2.088-2.088a.986.986,0,0,0,.092-1.289l-2.235-2.98a.3.3,0,0,1,.107-.455l3.885-1.943,2.743,9.4a.986.986,0,1,0,1.894-.552l-.432-1.482a11.542,11.542,0,0,0,7.583,0l-3.792,13-2.129-7.3a.986.986,0,1,0-1.894.552l3.076,10.545a.986.986,0,0,0,1.894,0L90.4,42.46,94.284,44.4a.3.3,0,0,1,.108.455l-2.235,2.98a.987.987,0,0,0,.092,1.289l2.088,2.088a1.121,1.121,0,0,1,.21,1.3l-6.7,13.4a.986.986,0,1,0,1.765.882l6.7-13.4a3.091,3.091,0,0,0-.58-3.573l-1.483-1.483,1.305-1.74,7.4,2.274a5.312,5.312,0,0,1,3.77,5.1V66.352a.986.986,0,0,0,1.973,0V53.973A7.275,7.275,0,0,0,103.529,46.984Zm-31.6,18.381h-8.57V61.012h3.3v.068a.986.986,0,1,0,1.973,0v-.068h3.3Zm1.063-60.8A23.234,23.234,0,0,1,84.446,1.973c3.639,0,6.891,1.523,7.564,3.543a.986.986,0,0,0,1.872-.624,4.653,4.653,0,0,0-.2-.5,5.348,5.348,0,0,1,3.55,5.03V20.031H96.109a1.123,1.123,0,0,1-1.122-1.122V17.855a12.567,12.567,0,0,0-3.452-8.077.988.988,0,0,0-.995-.243c-5.476,1.729-13.2,3.187-18.88.311a10.611,10.611,0,0,1-3.845-3.193A48.514,48.514,0,0,0,72.991,4.567ZM88.8,40.908l-1.884,6.459a9.57,9.57,0,0,1-9.019,0l-1.884-6.46V38.461a14.67,14.67,0,0,0,12.787,0ZM82.4,37.954A12.734,12.734,0,0,1,69.684,25.235a.986.986,0,0,0-1.973,0V25.3h-.595a1.65,1.65,0,0,1-1.64-1.823A1.75,1.75,0,0,1,67.267,22H68.7a3.1,3.1,0,0,0,3.095-3.095V15.186a.986.986,0,1,0-1.973,0v3.723A1.123,1.123,0,0,1,68.7,20.031H67.576V13.989a6.649,6.649,0,0,1,.9-3.841,13.559,13.559,0,0,0,2.137,1.377,18.414,18.414,0,0,0,7.908,1.918,37.332,37.332,0,0,0,12-1.838,10.4,10.4,0,0,1,2.492,6.25v1.054A3.1,3.1,0,0,0,96.109,22H97.69a1.65,1.65,0,0,1,1.64,1.823A1.75,1.75,0,0,1,97.54,25.3h-.445v-.058a.986.986,0,0,0-.986-.986h0a.986.986,0,0,0-.986.986A12.736,12.736,0,0,1,82.4,37.954Z" transform="translate(-56.114)" fill="#773b3d"/>
        </g>
      </g>
      <g id="Grupo_1179616" data-name="Grupo 1179616" transform="translate(96.177 56.931)">
        <g id="Grupo_1179615" data-name="Grupo 1179615" transform="translate(0)">
          <path id="Trazado_1001438" data-name="Trazado 1001438" d="M366.986,435.507h-1.649v-1.649a.986.986,0,0,0-1.973,0v1.649h-1.649a.986.986,0,0,0,0,1.973h1.649v1.649a.986.986,0,1,0,1.973,0v-1.649h1.649a.986.986,0,1,0,0-1.973Z" transform="translate(-360.728 -432.871)" fill="#773b3d"/>
        </g>
      </g>
    </g>
  </g>
</svg>
