<svg xmlns="http://www.w3.org/2000/svg" width="96" height="96" viewBox="0 0 96 96">
  <g id="Grupo_1177478" data-name="Grupo 1177478" transform="translate(-383.746 -8400.001)">
    <path id="Trazado_997400" data-name="Trazado 997400" d="M48,0A48,48,0,1,1,0,48,48,48,0,0,1,48,0Z" transform="translate(383.746 8400.001)" fill="#ffbdb6"/>
    <g id="Grupo_1179618" data-name="Grupo 1179618" transform="translate(341.907 8418.865)">
      <path id="Trazado_1001439" data-name="Trazado 1001439" d="M108.618,5.121h-7.829a2.565,2.565,0,0,0-2.414-1.707H94.021a4.268,4.268,0,0,0-8.364,0H81.3A2.565,2.565,0,0,0,78.89,5.121H71.061A2.564,2.564,0,0,0,68.5,7.682V55.709a2.564,2.564,0,0,0,2.561,2.561h29.021V56.563H71.061a.855.855,0,0,1-.854-.854V7.682a.854.854,0,0,1,.854-.854h7.682V8.536H71.914v5.121h1.707V10.243H78.89A2.565,2.565,0,0,0,81.3,11.95H98.375a2.565,2.565,0,0,0,2.414-1.707h5.268V46.32H99.228v6.829H73.621V15.364H71.914V54.856h28.521l7.328-7.329V8.536h-6.829V6.829h7.682a.854.854,0,0,1,.854.854V55.709a.854.854,0,0,1-.854.854H105.2V58.27h3.414a2.564,2.564,0,0,0,2.561-2.561V7.682A2.564,2.564,0,0,0,108.618,5.121ZM104.85,48.027l-3.914,3.914V48.027ZM99.228,9.389a.855.855,0,0,1-.854.854H81.3a.855.855,0,0,1-.854-.854V5.975a.855.855,0,0,1,.854-.854h5.975V4.268a2.561,2.561,0,1,1,5.121,0v.854h5.975a.855.855,0,0,1,.854.854V9.389Z" fill="#773b3d"/>
      <path id="Trazado_1001440" data-name="Trazado 1001440" d="M361,497h1.707v1.707H361Z" transform="translate(-259.211 -440.437)" fill="#773b3d"/>
      <path id="Trazado_1001441" data-name="Trazado 1001441" d="M199.414,127.5v3.414H196v6.828h3.414v3.414h6.829v-3.414h3.414v-6.828h-3.414V127.5Zm8.536,5.121v3.414h-3.414v3.414h-3.414v-3.414h-3.414v-3.414h3.414v-3.414h3.414v3.414Z" transform="translate(-112.989 -112.989)" fill="#773b3d"/>
      <path id="Trazado_1001442" data-name="Trazado 1001442" d="M143.5,342.619h5.121V337.5H143.5Zm1.707-3.414h1.707v1.707h-1.707Z" transform="translate(-66.464 -299.088)" fill="#773b3d"/>
      <path id="Trazado_1001443" data-name="Trazado 1001443" d="M218.5,285H235.57v1.707H218.5Z" transform="translate(-132.928 -252.564)" fill="#773b3d"/>
      <path id="Trazado_1001444" data-name="Trazado 1001444" d="M148.621,270H143.5v5.121h5.121Zm-1.707,3.414h-1.707v-1.707h1.707Z" transform="translate(-66.464 -239.271)" fill="#773b3d"/>
      <path id="Trazado_1001445" data-name="Trazado 1001445" d="M218.5,420h11.95V421.7H218.5Z" transform="translate(-132.928 -372.198)" fill="#773b3d"/>
      <path id="Trazado_1001446" data-name="Trazado 1001446" d="M218.5,352.5H235.57v1.707H218.5Z" transform="translate(-132.928 -312.381)" fill="#773b3d"/>
      <path id="Trazado_1001447" data-name="Trazado 1001447" d="M143.5,410.118h5.121V405H143.5Zm1.707-3.414h1.707v1.707h-1.707Z" transform="translate(-66.464 -358.905)" fill="#773b3d"/>
      <path id="Trazado_1001448" data-name="Trazado 1001448" d="M368.5,140.112h1.707v1.707H368.5Z" transform="translate(-265.857 -124.166)" fill="#773b3d"/>
      <path id="Trazado_1001449" data-name="Trazado 1001449" d="M368.5,110.112h1.707v1.707H368.5Z" transform="translate(-265.857 -97.58)" fill="#773b3d"/>
    </g>
  </g>
</svg>
