<svg xmlns="http://www.w3.org/2000/svg" width="358" height="504" viewBox="0 0 358 504">
  <g id="Grupo_1181836" data-name="Grupo 1181836" transform="translate(7355 7624)">
    <path id="Sustracción_109" data-name="Sustracción 109" d="M85,39c-22.01,0-42.889-4.033-58.792-11.357C18.471,24.08,12.272,19.912,7.78,15.256,3.148,10.45.53,5.318,0,0H170c-.53,5.319-3.148,10.451-7.781,15.256-4.49,4.656-10.69,8.824-18.428,12.387C127.889,34.967,107.01,39,85,39Z" transform="translate(-7355 -7295)" fill="#bbded6"/>
    <path id="Sustracción_110" data-name="Sustracción 110" d="M85,39c-22.01,0-42.889-4.033-58.792-11.357C18.471,24.08,12.272,19.912,7.78,15.256,3.148,10.45.53,5.318,0,0H170c-.53,5.319-3.148,10.451-7.781,15.256-4.49,4.656-10.69,8.824-18.428,12.387C127.889,34.967,107.01,39,85,39Z" transform="translate(-7167 -7295)" fill="#ffbdb6"/>
    <text id="Profilaxis_hepatitis_B" data-name="Profilaxis hepatitis B" transform="translate(-7338 -7206)" fill="#3e5d56" font-size="16" font-family="SegoeUI-Bold, Segoe UI" font-weight="700" letter-spacing="0.003em"><tspan x="-35.145" y="17">Profilaxis </tspan><tspan x="-40.161" y="37">hepatitis B</tspan></text>
    <text id="Anticoncepción_de_emergencia" data-name="Anticoncepción de emergencia" transform="translate(-7135 -7206)" fill="#773b3d" font-size="16" font-family="SegoeUI-Bold, Segoe UI" font-weight="700" letter-spacing="0.003em"><tspan x="-58.651" y="17">Anticoncepción </tspan><tspan x="-55.404" y="37">de emergencia</tspan></text>
    <line id="Línea_3376" data-name="Línea 3376" x2="189" transform="translate(-7270.5 -7225.5)" fill="none" stroke="#773b3d" stroke-linecap="round" stroke-width="3"/>
    <line id="Línea_3377" data-name="Línea 3377" y1="29.5" transform="translate(-7270 -7256)" fill="none" stroke="#773b3d" stroke-linecap="round" stroke-width="3"/>
    <line id="Línea_3378" data-name="Línea 3378" y1="29.5" transform="translate(-7082 -7256)" fill="none" stroke="#773b3d" stroke-linecap="round" stroke-width="3"/>
    <g id="Grupo_1181830" data-name="Grupo 1181830" transform="translate(-7924.711 -11583)">
      <path id="Trazado_1007131" data-name="Trazado 1007131" d="M41,0h2c6.075,0,9.283,4.593,11,11l30,93a11,11,0,0,1-11,11H11A11,11,0,0,1,0,104L30,11C31.588,5.072,34.925,0,41,0Z" transform="translate(705.711 4348)" fill="#ffbdb6"/>
      <g id="Elipse_13878" data-name="Elipse 13878" transform="translate(739.711 4351)" fill="none" stroke="#773b3d" stroke-width="1">
        <circle cx="8" cy="8" r="8" stroke="none"/>
        <circle cx="8" cy="8" r="7.5" fill="none"/>
      </g>
    </g>
    <circle id="Elipse_13879" data-name="Elipse 13879" cx="4" cy="4" r="4" transform="translate(-7274 -7230)" fill="#773b3d"/>
    <circle id="Elipse_13880" data-name="Elipse 13880" cx="4" cy="4" r="4" transform="translate(-7086 -7230)" fill="#773b3d"/>
    <rect id="Rectángulo_456128" data-name="Rectángulo 456128" width="170" height="90" transform="translate(-7353 -7404)" fill="#fff"/>
    <rect id="Rectángulo_456133" data-name="Rectángulo 456133" width="170" height="90" transform="translate(-7168 -7404)" fill="#fff"/>
    <rect id="Rectángulo_456129" data-name="Rectángulo 456129" width="170" height="90" transform="translate(-7353 -7514)" fill="#fff"/>
    <rect id="Rectángulo_456132" data-name="Rectángulo 456132" width="170" height="90" transform="translate(-7168 -7514)" fill="#fff"/>
    <rect id="Rectángulo_456130" data-name="Rectángulo 456130" width="170" height="90" transform="translate(-7353 -7624)" fill="#fff"/>
    <rect id="Rectángulo_456131" data-name="Rectángulo 456131" width="170" height="90" transform="translate(-7168 -7624)" fill="#fff"/>
    <text id="Según_antecedente_vacunal." data-name="Según antecedente vacunal." transform="translate(-7338 -7576)" fill="#12263f" font-size="16" font-family="SegoeUI, Segoe UI" letter-spacing="0.003em"><tspan x="0" y="17">Según antecedente </tspan><tspan x="0" y="35">vacunal.</tspan></text>
    <text id="Inmunoglobulina_y_vacuna." data-name="Inmunoglobulina y vacuna." transform="translate(-7338 -7468)" fill="#12263f" font-size="16" font-family="SegoeUI, Segoe UI" letter-spacing="0.003em"><tspan x="0" y="17">Inmunoglobulina </tspan><tspan x="0" y="35">y vacuna.</tspan></text>
    <text id="Registro_en_historia_clínica." data-name="Registro en historia clínica." transform="translate(-7338 -7358)" fill="#12263f" font-size="16" font-family="SegoeUI, Segoe UI" letter-spacing="0.003em"><tspan x="0" y="17">Registro en </tspan><tspan x="0" y="35">historia clínica.</tspan></text>
    <text id="Riesgo_de_embarazo." data-name="Riesgo de
embarazo." transform="translate(-7148 -7576)" fill="#12263f" font-size="16" font-family="SegoeUI, Segoe UI" letter-spacing="0.003em"><tspan x="0" y="17">Riesgo de</tspan><tspan x="0" y="35">embarazo.</tspan></text>
    <text id="Mayor_efectividad_temprana." data-name="Mayor efectividad temprana." transform="translate(-7148 -7476)" fill="#12263f" font-size="16" font-family="SegoeUI, Segoe UI" letter-spacing="0.003em"><tspan x="0" y="17">Mayor efectividad </tspan><tspan x="0" y="35">temprana.</tspan></text>
    <text id="Explicación_comprensible." data-name="Explicación comprensible." transform="translate(-7148 -7360)" fill="#12263f" font-size="16" font-family="SegoeUI, Segoe UI" letter-spacing="0.003em"><tspan x="0" y="17">Explicación </tspan><tspan x="0" y="35">comprensible.</tspan></text>
    <g id="Grupo_1181832" data-name="Grupo 1181832" transform="translate(-7340.22 -7616)">
      <path id="Trazado_1007132" data-name="Trazado 1007132" d="M172.854,398.441h3.185a.462.462,0,0,0,0-.924h-3.185A.462.462,0,0,0,172.854,398.441Z" transform="translate(-159.706 -373.027)" fill="#3e5d56"/>
      <path id="Trazado_1007133" data-name="Trazado 1007133" d="M45.524,398.441a.462.462,0,0,0,0-.924H42.339a.462.462,0,0,0,0,.924Z" transform="translate(-37.231 -373.027)" fill="#3e5d56"/>
      <path id="Trazado_1007134" data-name="Trazado 1007134" d="M33.139,25.989a1.447,1.447,0,0,0-2.018-.136l-1.46,1.28-3.784-4.355.879-.77c.435-.381-.155-1.093-.609-.695l-4.929,4.321c-.483.424-1.146-.343-.662-.768l7.409-6.5c.484-.424,1.146.344.662.768l-.741.649c-.435.381.154,1.093.609.695l.741-.649a1.432,1.432,0,0,0-1.88-2.158l-.817.716-2.013-2.317-.63-.725h0l-8.253-9.5a1.418,1.418,0,0,0-1.977-.134l-.333.292L12.25,4.767a1.418,1.418,0,0,0-1.977-.134l-.093.081L6.217.154C5.838-.283,5.123.3,5.52.76L9.485,5.324l-.1.084a1.409,1.409,0,0,0-.135,1.98l1.084,1.248L10,8.93a1.409,1.409,0,0,0-.135,1.98l2.287,2.632a.462.462,0,0,0-.205.384v1.7a.462.462,0,0,0,.462.462h.528v1.065l-2.124,2.5q-.095.24-.189,0L8.5,17.151V16.085H9.03a.462.462,0,0,0,.462-.462v-1.7a.462.462,0,0,0-.462-.462H4.371a.462.462,0,0,0-.462.462v1.7a.462.462,0,0,0,.462.462H4.9v1.065l-2.124,2.5a2.336,2.336,0,0,0-.555,1.51v2.574a.462.462,0,0,0,.924,0V22.7h7.113v4.29H3.144v-.785a.462.462,0,0,0-.924,0v3.709a1.625,1.625,0,0,0,1.625,1.622H9.556a1.621,1.621,0,0,0,1.164-.492,1.621,1.621,0,0,0,1.164.492H17.6a1.625,1.625,0,0,0,1.625-1.622v-8.24l1.545,1.778-.82.719a1.432,1.432,0,0,0,1.88,2.158l3.355-2.942,3.784,4.355L27.5,29.025a1.432,1.432,0,0,0,1.88,2.158L33,28.01a1.439,1.439,0,0,0,.138-2.021ZM24,20.618l-1.262-1.452,1.844-1.616L25.843,19Zm-4.88-.469L23.5,16.308l.473.544-4.382,3.842ZM9.952,6.781A.483.483,0,0,1,10,6.1l.883-.775a.473.473,0,0,1,.67.045l1.084,1.248-1.6,1.406Zm.66,2.844,3.662-3.211a.473.473,0,0,1,.67.045l.869,1-.578.506a.463.463,0,0,0,.609.695l.575-.5,1.1,1.267L16.173,10.6a.463.463,0,0,0,.609.695l1.344-1.178,1.1,1.267-.578.506a.463.463,0,0,0,.609.695l.575-.5,1.1,1.267-1.347,1.181a.463.463,0,0,0,.609.695l1.344-1.178L22.9,15.61l-4.382,3.842-1.971-2.3V16.085h.528a.462.462,0,0,0,.462-.462v-1.7a.462.462,0,0,0-.462-.462H13.311L10.565,10.3a.483.483,0,0,1,.047-.679Zm2.262,4.764h3.735v.773H12.874Zm2.745,1.7v.773H13.864v-.773ZM18.3,26.992H11.185V22.7H18.3ZM4.833,14.388H8.568v.773H4.833Zm2.745,1.7v.773H5.823v-.773ZM3.144,21.777a2.107,2.107,0,0,1,.335-1.526l2.1-2.469H7.826l2.1,2.469a2.106,2.106,0,0,1,.335,1.526Zm6.412,8.836H3.845a.7.7,0,0,1-.7-.7v-2h7.113v2A.7.7,0,0,1,9.556,30.613Zm8.041,0H11.885a.7.7,0,0,1-.7-.7v-2H18.3v2A.7.7,0,0,1,17.6,30.613Zm.365-10.362a2.106,2.106,0,0,1,.335,1.526H11.185a2.107,2.107,0,0,1,.335-1.526l2.1-2.469h2.224Zm2.237,1.14,1.843-1.616L23.3,21.227l-1.843,1.616Zm12.192,5.924-3.618,3.172c-.483.424-1.146-.344-.662-.768l3.618-3.172a.507.507,0,0,1,.662.768Z" transform="translate(0 0)" fill="#3e5d56"/>
    </g>
    <g id="Grupo_1181833" data-name="Grupo 1181833" transform="translate(-7344 -7507)">
      <path id="Trazado_1007135" data-name="Trazado 1007135" d="M30.023,13.237a1.474,1.474,0,0,0-1.387.981h-1.21a7.831,7.831,0,0,0-1.215-2.932l.856-.856a1.5,1.5,0,0,0,1.674-.288,1.471,1.471,0,0,0,0-2.08L27.354,6.674a1.471,1.471,0,0,0-2.367,1.674l-.856.856A7.838,7.838,0,0,0,21.2,7.99V6.779a1.471,1.471,0,0,0-.49-2.858H18.747a1.471,1.471,0,0,0-.49,2.858V7.99a7.821,7.821,0,0,0-2.451.918V7.354a1.473,1.473,0,0,0-1.471-1.471h-.981V3.922a.982.982,0,0,0-.981-.981h-.49V.49a.49.49,0,0,0-.981,0V2.942h-.49a.982.982,0,0,0-.981.981V5.883H8.451A1.473,1.473,0,0,0,6.981,7.354V22.642a1.467,1.467,0,0,0,.49,2.851H8.942v2.942h-.49a1.471,1.471,0,0,0,0,2.942h5.883a1.471,1.471,0,1,0,0-2.942h-.49V25.493h1.471a1.467,1.467,0,0,0,.49-2.851v-.174a7.833,7.833,0,0,0,2.451.918V24.6a1.471,1.471,0,0,0,.49,2.858h1.961A1.471,1.471,0,0,0,21.2,24.6v-1.21a7.831,7.831,0,0,0,2.932-1.215l.856.856A1.471,1.471,0,0,0,27.354,24.7l1.386-1.386a1.47,1.47,0,0,0,0-2.08,1.5,1.5,0,0,0-1.674-.288l-.856-.856a7.839,7.839,0,0,0,1.215-2.932h1.21a1.471,1.471,0,0,0,2.858-.49V14.708a1.473,1.473,0,0,0-1.471-1.471ZM10.412,3.922h1.961V5.883H10.412ZM8.451,6.864h5.883a.491.491,0,0,1,.49.49v15.2H7.961V7.354A.491.491,0,0,1,8.451,6.864Zm6.373,23.042a.491.491,0,0,1-.49.49H8.451a.49.49,0,0,1,0-.981h5.883A.491.491,0,0,1,14.825,29.906Zm-1.961-1.471H9.922V25.493h2.942Zm2.451-3.922H7.471a.49.49,0,0,1,0-.981h7.844a.49.49,0,0,1,0,.981Zm15.2-7.844a.49.49,0,0,1-.981,0,.49.49,0,0,0-.49-.49H27.009a.49.49,0,0,0-.486.426,6.846,6.846,0,0,1-1.343,3.242.49.49,0,0,0,.043.644l1.439,1.439a.491.491,0,0,0,.694,0,.5.5,0,0,1,.693,0,.49.49,0,0,1,0,.693l-1.386,1.386a.491.491,0,0,1-.694-.694.49.49,0,0,0,0-.693l-1.438-1.438a.489.489,0,0,0-.644-.043,6.847,6.847,0,0,1-3.242,1.343.49.49,0,0,0-.426.486V25a.49.49,0,0,0,.49.49.49.49,0,0,1,0,.981H18.747a.49.49,0,0,1,0-.981.49.49,0,0,0,.49-.49V22.97a.49.49,0,0,0-.425-.486,6.839,6.839,0,0,1-3.007-1.178V10.071a6.832,6.832,0,0,1,3.007-1.178.491.491,0,0,0,.425-.486V6.373a.49.49,0,0,0-.49-.49.49.49,0,0,1,0-.981h1.961a.49.49,0,1,1,0,.981.49.49,0,0,0-.49.49V8.407a.49.49,0,0,0,.425.486,6.849,6.849,0,0,1,3.242,1.343.489.489,0,0,0,.644-.043l1.438-1.438a.49.49,0,0,0,0-.693.491.491,0,0,1,.694-.694l1.386,1.387a.489.489,0,0,1,0,.693.5.5,0,0,1-.693,0,.491.491,0,0,0-.694,0l-1.439,1.438a.49.49,0,0,0-.043.644,6.839,6.839,0,0,1,1.343,3.242.492.492,0,0,0,.487.427h2.034a.49.49,0,0,0,.49-.49.49.49,0,0,1,.981,0Z" fill="#3e5d56"/>
      <path id="Trazado_1007136" data-name="Trazado 1007136" d="M30.922,26.961a1.961,1.961,0,1,0-1.961,1.961A1.963,1.963,0,0,0,30.922,26.961Zm-1.961.981a.981.981,0,1,1,.981-.981A.982.982,0,0,1,28.961,27.942Z" transform="translate(-10.705 -12.744)" fill="#3e5d56"/>
      <path id="Trazado_1007137" data-name="Trazado 1007137" d="M33.471,35a1.471,1.471,0,1,0,1.471,1.471A1.473,1.473,0,0,0,33.471,35Zm0,1.961a.49.49,0,1,1,.49-.49A.491.491,0,0,1,33.471,36.961Z" transform="translate(-13.253 -17.841)" fill="#3e5d56"/>
      <path id="Trazado_1007138" data-name="Trazado 1007138" d="M39.471,27a1.471,1.471,0,1,0,1.471,1.471A1.473,1.473,0,0,0,39.471,27Zm0,1.961a.49.49,0,1,1,.49-.49A.491.491,0,0,1,39.471,28.961Z" transform="translate(-16.312 -13.763)" fill="#3e5d56"/>
      <path id="Trazado_1007139" data-name="Trazado 1007139" d="M11.6,20.981l1.906.01h0a.49.49,0,0,0,0-.981L11.6,20h0a.49.49,0,0,0,0,.981Z" transform="translate(-2.606 -10.195)" fill="#3e5d56"/>
      <path id="Trazado_1007140" data-name="Trazado 1007140" d="M11.6,25.981l1.895.01h0a.49.49,0,0,0,0-.981L11.6,25h0a.49.49,0,0,0,0,.981Z" transform="translate(-2.606 -12.744)" fill="#3e5d56"/>
      <path id="Trazado_1007141" data-name="Trazado 1007141" d="M11.6,30.981l1.885.01h0a.49.49,0,0,0,0-.981L11.6,30h0a.49.49,0,0,0,0,.981Z" transform="translate(-2.606 -15.292)" fill="#3e5d56"/>
      <path id="Trazado_1007142" data-name="Trazado 1007142" d="M11.6,35.981l1.873.01h0a.49.49,0,0,0,0-.981L11.6,35h0a.49.49,0,0,0,0,.981Z" transform="translate(-2.606 -17.841)" fill="#3e5d56"/>
      <path id="Trazado_1007143" data-name="Trazado 1007143" d="M11.6,40.961l1.874.01h0a.49.49,0,0,0,0-.981l-1.873-.01h0a.49.49,0,0,0,0,.981Z" transform="translate(-2.606 -20.38)" fill="#3e5d56"/>
    </g>
    <g id="Grupo_1181834" data-name="Grupo 1181834" transform="translate(-7395.5 -7393.667)">
      <path id="Trazado_1007144" data-name="Trazado 1007144" d="M79.055,6.868a.415.415,0,0,0,.415-.415V3.435a2.178,2.178,0,0,0-2.177-2.174H71.112V.415A.415.415,0,0,0,70.7,0H66.273a.415.415,0,0,0-.415.415v.846H59.677A2.178,2.178,0,0,0,57.5,3.435V26.16a2.178,2.178,0,0,0,2.177,2.174H77.293A2.178,2.178,0,0,0,79.47,26.16V8.637a.415.415,0,0,0-.83,0V26.16A1.347,1.347,0,0,1,77.293,27.5H59.677A1.347,1.347,0,0,1,58.33,26.16V3.435a1.347,1.347,0,0,1,1.347-1.344h3.315V3.154H59.811a.415.415,0,0,0-.415.415V21.5a.415.415,0,1,0,.83,0V3.984h2.766V4.83a.415.415,0,0,0,.415.415H73.563a.415.415,0,0,0,.415-.415V3.984h2.766V25.612H60.226v-1.93a.415.415,0,1,0-.83,0v2.345a.415.415,0,0,0,.415.415H77.159a.415.415,0,0,0,.415-.415V3.569a.415.415,0,0,0-.415-.415H73.978V2.092h3.315A1.347,1.347,0,0,1,78.64,3.435V6.453a.415.415,0,0,0,.415.415ZM66.688.83h3.594V2.523H66.688Zm6.46,3.585H63.822V2.092h2.036v.846a.415.415,0,0,0,.415.415H70.7a.415.415,0,0,0,.415-.415V2.092h2.036V4.415Z" fill="#3e5d56"/>
      <path id="Trazado_1007145" data-name="Trazado 1007145" d="M202.311,124.521h-2.07a.415.415,0,0,0-.415.415v1.334h-1.335a.415.415,0,0,0-.415.415v2.062a.415.415,0,0,0,.415.415h1.335V130.5a.415.415,0,0,0,.415.415h2.07a.415.415,0,0,0,.415-.415v-1.334h1.346a.415.415,0,0,0,.415-.415v-2.062a.415.415,0,0,0-.415-.415h-1.346v-1.334A.415.415,0,0,0,202.311,124.521Zm1.346,2.579v1.232h-1.346a.415.415,0,0,0-.415.415v1.334h-1.24v-1.334a.415.415,0,0,0-.415-.415h-1.335V127.1h1.335a.415.415,0,0,0,.415-.415v-1.334h1.24v1.334a.415.415,0,0,0,.415.415Z" transform="translate(-132.796 -117.63)" fill="#3e5d56"/>
      <path id="Trazado_1007146" data-name="Trazado 1007146" d="M132.9,270.567a.415.415,0,0,0,.415.415H146.45a.415.415,0,0,0,0-.83H133.316A.415.415,0,0,0,132.9,270.567Z" transform="translate(-71.228 -255.202)" fill="#3e5d56"/>
      <path id="Trazado_1007147" data-name="Trazado 1007147" d="M133.316,315.982h12.027a.415.415,0,0,0,0-.83H133.316a.415.415,0,0,0,0,.83Z" transform="translate(-71.228 -297.711)" fill="#3e5d56"/>
      <path id="Trazado_1007148" data-name="Trazado 1007148" d="M133.316,360.911H146.45a.415.415,0,0,0,0-.83H133.316a.415.415,0,1,0,0,.83Z" transform="translate(-71.228 -340.154)" fill="#3e5d56"/>
      <path id="Trazado_1007149" data-name="Trazado 1007149" d="M326.551,423.081h-2.583a.415.415,0,1,0,0,.83h2.583a.415.415,0,0,0,0-.83Z" transform="translate(-251.33 -399.668)" fill="#3e5d56"/>
      <path id="Trazado_1007150" data-name="Trazado 1007150" d="M262.211,423.081a.415.415,0,0,0,0,.83h1.753a.415.415,0,0,0,0-.83Z" transform="translate(-192.99 -399.668)" fill="#3e5d56"/>
    </g>
    <g id="Grupo_1181835" data-name="Grupo 1181835" transform="translate(-7198.772 -7636.043)">
      <path id="Trazado_1007151" data-name="Trazado 1007151" d="M91.346,110.255a4.657,4.657,0,0,1-1.491-2.99l-.67-6.943a.474.474,0,0,0-.944.091l.67,6.943a5.6,5.6,0,0,0,1.795,3.6l2.582,2.366a.474.474,0,1,0,.64-.7Z" transform="translate(-29.574 -63.027)" fill="#773b3d"/>
      <path id="Trazado_1007152" data-name="Trazado 1007152" d="M66.156,40.04c.485-1.821-.682-3.751-3.244-5.328-.187-.115-.36-.227-.523-.336a.473.473,0,0,0-.171-.116,9.878,9.878,0,0,1-1.264-1.021,4.923,4.923,0,0,0,3.572-1.108,2.789,2.789,0,0,0,1-2.188c-.054-.78.23-.951.291-.978a.44.44,0,0,0,.378-.325.472.472,0,0,0-.177-.5c-.01-.009-.952-.906-.87-4.317.047-1.945-1.438-3.313-3.972-3.659-1.034-.141-4.38-.448-6.22,1.118a5.463,5.463,0,0,0-.9.884c-1.37,1.7-1.876,4.261-1.5,7.6.93,8.325-1.469,9.551-1.481,9.557a.474.474,0,0,0-.131.8,3.343,3.343,0,0,0,4.212-.089A11.231,11.231,0,0,0,56.3,44.49a8.74,8.74,0,0,1-1.636,7.077.474.474,0,1,0,.769.554,10.156,10.156,0,0,0,2-5.59c.4.632.859,1.273,1.369,1.921a28.057,28.057,0,0,0,3.549,3.754.474.474,0,0,0,.612-.724c-.068-.057-6.776-5.791-6.874-11.553a16.044,16.044,0,0,1,.3-4.06q.054-.148.1-.3a1.12,1.12,0,0,1,.362-.511c.4-.272,1.163-.038,2.344.458,1.317.553,2.238.62,2.818.206a1.18,1.18,0,0,0,.28-.28l.12.075c1.058.651,3.436,2.376,2.8,4.384-.16-.012-.32-.02-.483-.02a6.724,6.724,0,0,0-.749.042.474.474,0,1,0,.106.942,5.759,5.759,0,0,1,.643-.036,6.018,6.018,0,0,1,.748,11.961.474.474,0,0,0,.061.944.458.458,0,0,0,.062,0,6.984,6.984,0,0,0,.555-13.693ZM52.69,39.865a2.416,2.416,0,0,1-.6-.16c.866-.924,2.141-3.437,1.4-10.043a11.915,11.915,0,0,1,.356-5.142,14.329,14.329,0,0,0,.964,3.393c.846,2.276,1.716,4.629.727,7.5l-.01.029c-.014.04-.025.08-.039.12a.468.468,0,0,0-.018.07,12.5,12.5,0,0,0-.331,3.125,2.832,2.832,0,0,1-2.454,1.107Zm8.769-4.908c-.1.07-.545.253-1.893-.313a4.853,4.853,0,0,0-2.719-.6A12.866,12.866,0,0,0,55.7,27.583a9.411,9.411,0,0,1-.91-4.125,2.186,2.186,0,0,1,.521-1.207,3.524,3.524,0,0,1,1.669-.96,2.26,2.26,0,0,1,.269-.053.47.47,0,0,0,.19-.065,10.928,10.928,0,0,1,3.6-.068,5.771,5.771,0,0,1,1.628.46,3.861,3.861,0,0,1-2.611,3.815,6.892,6.892,0,0,1-.882.245c-1.042.245-2.47.581-2.7,1.946a1.839,1.839,0,0,0,.554,1.582,2.734,2.734,0,0,0,1.929.7q.144,0,.291-.012a.474.474,0,1,0-.075-.945,1.921,1.921,0,0,1-1.482-.426.892.892,0,0,1-.282-.748c.115-.69.893-.924,1.98-1.179a7.5,7.5,0,0,0,1.014-.287,4.894,4.894,0,0,0,3.213-4.026A2.144,2.144,0,0,1,64.2,23.8a8.5,8.5,0,0,0,.826,4.589,2.032,2.032,0,0,0-.447,1.616,1.851,1.851,0,0,1-.686,1.42,4.41,4.41,0,0,1-3.748.788,1.182,1.182,0,0,1-.108-.264.474.474,0,0,0-.941.116,2.126,2.126,0,0,0,.36.848l.007.011A7.68,7.68,0,0,0,61.5,34.914a.22.22,0,0,1-.043.043Z" transform="translate(0)" fill="#773b3d"/>
    </g>
    <g id="XMLID_1031_" transform="translate(-7148 -7505)">
      <g id="XMLID_971_">
        <g id="XMLID_977_">
          <path id="XMLID_1030_" d="M22,4.711h.761a.481.481,0,1,0,0-.961H20.937a.481.481,0,0,0-.481.481V6.057a.481.481,0,1,0,.961,0V5.528a11.354,11.354,0,1,1-9.1-4.567,11.525,11.525,0,0,1,1.385.084.481.481,0,0,0,.116-.954A12.49,12.49,0,0,0,12.315,0,12.315,12.315,0,0,0,3.607,21.023,12.315,12.315,0,0,0,22,4.711Z" fill="#773b3d"/>
          <path id="XMLID_1029_" d="M67.26,69.306a.481.481,0,0,0-.663.149,9.18,9.18,0,1,0,2.873-2.867.481.481,0,0,0,.513.813,8.222,8.222,0,1,1-1.435,12.773,8.274,8.274,0,0,1-1.139-10.2A.481.481,0,0,0,67.26,69.306Z" transform="translate(-62.045 -62.046)" fill="#773b3d"/>
          <path id="XMLID_1028_" d="M376.65,247.291h.593a.481.481,0,1,0,0-.962h-.593a.481.481,0,0,0,0,.962Z" transform="translate(-358.085 -234.488)" fill="#773b3d"/>
          <path id="XMLID_1004_" d="M103.835,246.487a.481.481,0,0,0,.481.481h.593a.481.481,0,1,0,0-.961h-.593A.481.481,0,0,0,103.835,246.487Z" transform="translate(-98.843 -234.179)" fill="#773b3d"/>
          <path id="XMLID_1001_" d="M247.291,104.909v-.593a.481.481,0,1,0-.962,0v.593a.481.481,0,0,0,.962,0Z" transform="translate(-234.488 -98.843)" fill="#773b3d"/>
          <path id="XMLID_1415_" d="M246.006,376.65v.593a.481.481,0,1,0,.962,0v-.593a.481.481,0,0,0-.962,0Z" transform="translate(-234.179 -358.085)" fill="#773b3d"/>
          <path id="XMLID_996_" d="M189.793,156.28a.481.481,0,0,0-.68.68l1.629,1.629a1.656,1.656,0,1,0,2.921,0l3.287-3.288a.481.481,0,1,0-.68-.68l-3.287,3.288a1.653,1.653,0,0,0-1.561,0Zm3.1,3.09a.695.695,0,1,1-.695-.695A.7.7,0,0,1,192.9,159.37Z" transform="translate(-179.887 -147.054)" fill="#773b3d"/>
          <path id="XMLID_980_" d="M119,119a.48.48,0,1,0-.34.141A.483.483,0,0,0,119,119Z" transform="translate(-112.497 -112.497)" fill="#773b3d"/>
          <path id="XMLID_979_" d="M315.919,10.839a.481.481,0,1,0-.34-.141A.483.483,0,0,0,315.919,10.839Z" transform="translate(-300.273 -9.403)" fill="#773b3d"/>
        </g>
      </g>
    </g>
    <path id="Trazado_1007153" data-name="Trazado 1007153" d="M29.087,35.223a.509.509,0,0,0,.765-.522l-.282-1.624a4.283,4.283,0,0,0-2.344-7.87H26.3A4.3,4.3,0,0,0,22.559,23H19.683a4.283,4.283,0,0,0-2.344,7.87l-.283,1.624a.509.509,0,0,0,.765.522L20.2,31.572h.4a4.289,4.289,0,0,0,3.746,2.207h2.359Zm-9.03-4.669a.509.509,0,0,0-.264.074l-1.543.937.15-.865a.509.509,0,0,0-.26-.535,3.266,3.266,0,0,1,1.541-6.148h2.876a3.278,3.278,0,0,1,2.516,1.189H24.35A4.287,4.287,0,0,0,20.2,30.554Zm1.333.323a.51.51,0,0,0-.022-.048,3.266,3.266,0,0,1,2.981-4.605h2.876a3.266,3.266,0,0,1,1.541,6.148.509.509,0,0,0-.26.535l.15.865-1.543-.937a.509.509,0,0,0-.264-.074h-2.5a3.272,3.272,0,0,1-2.96-1.884Zm5.029-1.384a.631.631,0,1,1-.631-.631A.631.631,0,0,1,26.419,29.493Zm-2.288,0a.631.631,0,1,1-.631-.631A.631.631,0,0,1,24.131,29.493Zm3.314,0a.631.631,0,1,1,.631.631A.631.631,0,0,1,27.445,29.493Zm-8.789,13.79a16.149,16.149,0,0,0-2.509-.419,4.4,4.4,0,0,0,2.092-3.95,3.183,3.183,0,0,0-3.371-3.487A3.183,3.183,0,0,0,11.5,38.913a4.4,4.4,0,0,0,2.084,3.946,15.1,15.1,0,0,0-2.5.424C9.093,43.793,8,44.883,8,46.351v4.866a1.421,1.421,0,0,0,1.42,1.42h10.9a1.421,1.421,0,0,0,1.42-1.42V46.351c0-1.464-1.123-2.583-3.081-3.069Zm-6.141-4.369a2.178,2.178,0,0,1,2.353-2.469,2.178,2.178,0,0,1,2.353,2.469c0,1.793-1.056,3.253-2.353,3.253S12.515,40.707,12.515,38.913Zm8.2,12.3a.4.4,0,0,1-.4.4h-1.47v-3.94a.509.509,0,0,0-1.018,0v3.94H11.908v-3.94a.509.509,0,0,0-1.018,0v3.94H9.42a.4.4,0,0,1-.4-.4V46.351c0-1.229,1.258-1.811,2.313-2.082a14.037,14.037,0,0,1,3.506-.444,14.82,14.82,0,0,1,3.575.445c.862.214,2.309.769,2.309,2.081Zm15.744-7.935a16.149,16.149,0,0,0-2.509-.419,4.4,4.4,0,0,0,2.092-3.95,3.183,3.183,0,0,0-3.371-3.487,3.183,3.183,0,0,0-3.371,3.487,4.4,4.4,0,0,0,2.084,3.946,15.1,15.1,0,0,0-2.5.424c-1.984.51-3.077,1.6-3.077,3.067v4.866a1.421,1.421,0,0,0,1.42,1.42h10.9a1.421,1.421,0,0,0,1.42-1.42V46.351C39.545,44.886,38.422,43.768,36.464,43.282Zm-6.141-4.369a2.178,2.178,0,0,1,2.353-2.469,2.178,2.178,0,0,1,2.353,2.469c0,1.793-1.056,3.253-2.353,3.253S30.323,40.707,30.323,38.913Zm8.2,12.3a.4.4,0,0,1-.4.4h-1.47v-3.94a.509.509,0,0,0-1.018,0v3.94H29.715v-3.94a.509.509,0,0,0-1.018,0v3.94h-1.47a.4.4,0,0,1-.4-.4V46.351c0-1.229,1.258-1.811,2.313-2.082a14.037,14.037,0,0,1,3.506-.444,14.82,14.82,0,0,1,3.575.445c.862.214,2.309.769,2.309,2.081Z" transform="translate(-7156 -7418.753)" fill="#773b3d"/>
  </g>
</svg>
