<svg xmlns="http://www.w3.org/2000/svg" width="65.197" height="88.5" viewBox="0 0 65.197 88.5">
  <g id="Grupo_1181722" data-name="Grupo 1181722" transform="translate(-67.407 0)">
    <path id="Trazado_1006224" data-name="Trazado 1006224" d="M217.212,62.05a5.029,5.029,0,0,1-2.76-.821v4.527h5.519V61.229A5.031,5.031,0,0,1,217.212,62.05Z" transform="translate(-121.628 -50.645)" fill="#e8b800"/>
    <g id="Grupo_1181712" data-name="Grupo 1181712" transform="translate(68.703 17.152)">
      <path id="Trazado_1006225" data-name="Trazado 1006225" d="M126.865,142.233a.519.519,0,0,0-.637,0l-4.139,3.223a.519.519,0,0,1-.837-.409v-14.36a11.234,11.234,0,0,1,7.415-20.94V100.1a.864.864,0,0,0-.864-.864H115.168v6.325a.692.692,0,0,1-.691.691H89.1a.692.692,0,0,1-.691-.691V99.232H75.771a.864.864,0,0,0-.864.864v68.323a.864.864,0,0,0,.864.864H127.8a.864.864,0,0,0,.864-.864V143.636Z" transform="translate(-74.907 -99.232)" fill="#f6a96c"/>
    </g>
    <path id="Trazado_1006226" data-name="Trazado 1006226" d="M82.314,168.42V164.8h-2.4a.519.519,0,0,1-.519-.519V104.24a.519.519,0,0,1,.519-.519h2.4V100.1a.864.864,0,0,1,.864-.864H75.771a.864.864,0,0,0-.864.864V168.42a.864.864,0,0,0,.864.864h7.407A.864.864,0,0,1,82.314,168.42Z" transform="translate(-6.204 -82.08)" fill="#ea9b58"/>
    <path id="Trazado_1006227" data-name="Trazado 1006227" d="M143.569,166.937a.519.519,0,0,1-.837-.409V152.164a11.232,11.232,0,0,1,2.927-20.887v-5.556a.519.519,0,0,0-.519-.519h-8.492v1.836a.692.692,0,0,1-.691.691h-25.38a.692.692,0,0,1-.691-.691V125.2h-8.492a.519.519,0,0,0-.519.519v60.036a.519.519,0,0,0,.519.519H145.14a.519.519,0,0,0,.519-.519V165.31Z" transform="translate(-27.684 -103.561)" fill="#dff6fd"/>
    <g id="Grupo_1181713" data-name="Grupo 1181713" transform="translate(73.192 21.641)">
      <path id="Trazado_1006228" data-name="Trazado 1006228" d="M106.062,185.757V125.721a.519.519,0,0,1,.519-.519h-5.186a.519.519,0,0,0-.519.519v60.036a.519.519,0,0,0,.519.519h5.186A.519.519,0,0,1,106.062,185.757Z" transform="translate(-100.876 -125.202)" fill="#c8effe"/>
    </g>
    <g id="Grupo_1181714" data-name="Grupo 1181714" transform="translate(82.029 15.11)">
      <path id="Trazado_1006229" data-name="Trazado 1006229" d="M178.246,96.649h-25.38a.864.864,0,0,1-.864-.864v-7.5a.864.864,0,0,1,.864-.864h25.38a.864.864,0,0,1,.864.864v7.5A.864.864,0,0,1,178.246,96.649Z" transform="translate(-152.002 -87.418)" fill="#fac600"/>
    </g>
    <g id="Grupo_1181715" data-name="Grupo 1181715" transform="translate(82.029 15.11)">
      <path id="Trazado_1006230" data-name="Trazado 1006230" d="M156.457,95.785v-7.5a.864.864,0,0,1,.864-.864h-4.455a.864.864,0,0,0-.864.864v7.5a.864.864,0,0,0,.864.864h4.455A.864.864,0,0,1,156.457,95.785Z" transform="translate(-152.002 -87.418)" fill="#e8b800"/>
    </g>
    <path id="Trazado_1006231" data-name="Trazado 1006231" d="M348.319,282.532a11.181,11.181,0,0,1-5.294-1.325v14.36a.519.519,0,0,0,.837.409L348,292.753a.519.519,0,0,1,.637,0l4.139,3.223a.519.519,0,0,0,.837-.409v-14.36A11.183,11.183,0,0,1,348.319,282.532Z" transform="translate(-227.977 -232.6)" fill="#fb2b3a"/>
    <path id="Trazado_1006232" data-name="Trazado 1006232" d="M343.025,281.207v14.36a.519.519,0,0,0,.837.409l3.569-2.78v-10.7A11.163,11.163,0,0,1,343.025,281.207Z" transform="translate(-227.977 -232.6)" fill="#e41f2d"/>
    <g id="Grupo_1181718" data-name="Grupo 1181718" transform="translate(109.108 27.464)">
      <g id="Grupo_1181716" data-name="Grupo 1181716" transform="translate(0 0)">
        <circle id="Elipse_13872" data-name="Elipse 13872" cx="11.234" cy="11.234" r="11.234" fill="#4fc123"/>
      </g>
      <g id="Grupo_1181717" data-name="Grupo 1181717" transform="translate(0)">
        <path id="Trazado_1006233" data-name="Trazado 1006233" d="M314.39,170.123a11.238,11.238,0,0,1,8.371-10.864,11.234,11.234,0,1,0,0,21.729A11.238,11.238,0,0,1,314.39,170.123Z" transform="translate(-308.663 -158.889)" fill="#47a920"/>
      </g>
    </g>
    <g id="Grupo_1181719" data-name="Grupo 1181719" transform="translate(90.53 1.296)">
      <circle id="Elipse_13873" data-name="Elipse 13873" cx="5.054" cy="5.054" r="5.054" transform="translate(0)" fill="#fac600"/>
    </g>
    <g id="Grupo_1181720" data-name="Grupo 1181720" transform="translate(90.53 1.296)">
      <path id="Trazado_1006234" data-name="Trazado 1006234" d="M205.521,12.554A5.054,5.054,0,0,1,208.4,7.989a5.054,5.054,0,1,0,0,9.129A5.054,5.054,0,0,1,205.521,12.554Z" transform="translate(-201.179 -7.5)" fill="#e8b800"/>
    </g>
    <g id="Grupo_1181721" data-name="Grupo 1181721" transform="translate(67.407 0)">
      <path id="Trazado_1006235" data-name="Trazado 1006235" d="M142.914,185.535l-2.938,2.938-1.57-1.57a1.3,1.3,0,0,0-1.833,1.833l2.487,2.487a1.3,1.3,0,0,0,1.833,0l3.854-3.855a1.3,1.3,0,0,0-1.833-1.833Z" transform="translate(-124.303 -153.151)"/>
      <path id="Trazado_1006236" data-name="Trazado 1006236" d="M142.914,254.979l-2.938,2.938-1.57-1.57a1.3,1.3,0,0,0-1.833,1.833l2.487,2.487a1.3,1.3,0,0,0,1.833,0l3.854-3.854a1.3,1.3,0,0,0-1.833-1.833Z" transform="translate(-124.303 -210.591)"/>
      <path id="Trazado_1006237" data-name="Trazado 1006237" d="M203.546,280.733h18.563a1.3,1.3,0,0,0,0-2.593H203.546a1.3,1.3,0,0,0,0,2.593Z" transform="translate(-178.942 -230.063)"/>
      <path id="Trazado_1006238" data-name="Trazado 1006238" d="M142.914,324.422l-2.938,2.938-1.57-1.57a1.3,1.3,0,0,0-1.833,1.833l2.487,2.487a1.3,1.3,0,0,0,1.833,0l3.854-3.854a1.3,1.3,0,0,0-1.833-1.833Z" transform="translate(-124.303 -268.031)"/>
      <path id="Trazado_1006239" data-name="Trazado 1006239" d="M222.109,322.8H203.546a1.3,1.3,0,1,0,0,2.593h18.563a1.3,1.3,0,1,0,0-2.593Z" transform="translate(-178.942 -267.003)"/>
      <path id="Trazado_1006240" data-name="Trazado 1006240" d="M222.109,347.583H203.546a1.3,1.3,0,0,0,0,2.593h18.563a1.3,1.3,0,0,0,0-2.593Z" transform="translate(-178.942 -287.503)"/>
      <path id="Trazado_1006241" data-name="Trazado 1006241" d="M142.914,393.864l-2.938,2.938-1.57-1.57a1.3,1.3,0,0,0-1.833,1.833l2.487,2.487a1.3,1.3,0,0,0,1.833,0l3.854-3.855a1.3,1.3,0,0,0-1.833-1.833Z" transform="translate(-124.303 -325.47)"/>
      <path id="Trazado_1006242" data-name="Trazado 1006242" d="M222.109,392.243H203.546a1.3,1.3,0,0,0,0,2.593h18.563a1.3,1.3,0,0,0,0-2.593Z" transform="translate(-178.942 -324.443)"/>
      <path id="Trazado_1006243" data-name="Trazado 1006243" d="M223.405,418.321a1.3,1.3,0,0,0-1.3-1.3H203.546a1.3,1.3,0,0,0,0,2.593h18.563A1.3,1.3,0,0,0,223.405,418.321Z" transform="translate(-178.942 -344.942)"/>
      <path id="Trazado_1006244" data-name="Trazado 1006244" d="M131.588,39.873a1.3,1.3,0,0,0-1.546.985,9.937,9.937,0,1,1-.289-5.353,1.3,1.3,0,0,0,2.455-.833,12.525,12.525,0,0,0-8.448-8.031V18.017a2.163,2.163,0,0,0-2.161-2.161H110.428a2.161,2.161,0,0,0-2.155-2.042H99.639V11.232a6.35,6.35,0,1,0-8.112,0v2.582H82.894a2.161,2.161,0,0,0-2.155,2.042H69.568a2.163,2.163,0,0,0-2.161,2.161V86.339A2.163,2.163,0,0,0,69.568,88.5H121.6a2.163,2.163,0,0,0,2.161-2.161V64.21L124,64.4a1.815,1.815,0,0,0,2.93-1.432V49.354a12.438,12.438,0,0,0,1.3-.926,12.58,12.58,0,0,0,4.336-7.009,1.3,1.3,0,0,0-.985-1.546ZM121.167,26.2c-.273-.018-.548-.029-.825-.029-.361,0-.718.019-1.071.049V22.16a1.817,1.817,0,0,0-1.815-1.815h-7.022v-1.9h10.733ZM95.583,2.593A3.757,3.757,0,1,1,91.826,6.35a3.762,3.762,0,0,1,3.757-3.757ZM94.12,12.528a6.31,6.31,0,0,0,2.926,0v1.285H94.12V12.528Zm27.047,73.379H70V18.449H80.733v1.9H73.711A1.817,1.817,0,0,0,71.9,22.16V82.2a1.817,1.817,0,0,0,1.815,1.815h31.615a1.3,1.3,0,0,0,0-2.593H74.489V22.938h6.244v.54a2.163,2.163,0,0,0,2.161,2.161h4.628a1.3,1.3,0,1,0,0-2.593h-4.2V16.407h24.515v6.639H93.572a1.3,1.3,0,1,0,0,2.593h14.7a2.163,2.163,0,0,0,2.161-2.161v-.54h6.244v3.778A12.582,12.582,0,0,0,109.9,31.79H92.011a1.3,1.3,0,0,0,0,2.593h16.567a12.421,12.421,0,0,0-.487,1.691H92.011a1.3,1.3,0,0,0,0,2.593h15.8c0,.011,0,.021,0,.032a12.452,12.452,0,0,0,1.087,5.095H92.011a1.3,1.3,0,0,0,0,2.593h18.447a12.624,12.624,0,0,0,3.293,2.963V62.967a1.813,1.813,0,0,0,2.927,1.434V81.418h-5.3a1.3,1.3,0,0,0,0,2.593h6.081a1.817,1.817,0,0,0,1.815-1.815V62.382l1.071-.834.825.642V85.907Zm3.174-24.532-2.883-2.245a1.813,1.813,0,0,0-2.23,0l-2.883,2.245V50.57a12.462,12.462,0,0,0,8,0Z" transform="translate(-67.407 0)"/>
      <path id="Trazado_1006245" data-name="Trazado 1006245" d="M351.227,202.3l-4.808,4.808-2.777-2.777a1.3,1.3,0,1,0-1.833,1.833l3.694,3.693a1.3,1.3,0,0,0,1.833,0l5.725-5.725a1.3,1.3,0,0,0-1.834-1.833Z" transform="translate(-294.064 -167.016)"/>
      <path id="Trazado_1006246" data-name="Trazado 1006246" d="M202.128,107.918a1.3,1.3,0,0,0-1.3-1.3H188.477a1.3,1.3,0,0,0,0,2.593h12.354A1.3,1.3,0,0,0,202.128,107.918Z" transform="translate(-166.478 -88.192)"/>
    </g>
  </g>
</svg>
