<svg xmlns="http://www.w3.org/2000/svg" xmlns:xlink="http://www.w3.org/1999/xlink" width="308" height="307.936" viewBox="0 0 308 307.936">
  <defs>
    <linearGradient id="linear-gradient" x1="7.075" y1="3.618" x2="5.027" y2="3.469" gradientUnits="objectBoundingBox">
      <stop offset="0" stop-color="#516bc0"/>
      <stop offset="1" stop-color="#6a91d2"/>
    </linearGradient>
    <linearGradient id="linear-gradient-2" x1="8.862" y1="125.914" x2="8.869" y2="129.092" gradientUnits="objectBoundingBox">
      <stop offset="0" stop-color="#080c2a"/>
      <stop offset="1" stop-color="#09003c"/>
    </linearGradient>
  </defs>
  <g id="_197372367_ab33f01c-0778-4f45-808e-a45cce84dfac" data-name="197372367_ab33f01c-0778-4f45-808e-a45cce84dfac" transform="translate(744 743.793)">
    <path id="Trazado_1006247" data-name="Trazado 1006247" d="M-436.189-435.858H-743.974l-.01-240.511v-65.578a4.525,4.525,0,0,1,.16-1.846h307.635a3.8,3.8,0,0,1,.159,1.605v15.743l-.009,54.726.009,169.106v47.5l0,13.654v3.443a12.149,12.149,0,0,1-.009,1.783A1,1,0,0,1-436.189-435.858Z" fill="#98cfd4"/>
    <path id="Trazado_1006248" data-name="Trazado 1006248" d="M805.686,799.75l6.121-.01-.434.315-.082,34.734H806l-.061-24.3-.022-6.836A14.251,14.251,0,0,0,805.686,799.75Z" transform="translate(-1311.035 -1305.828)" fill="#a299c6"/>
    <path id="Trazado_1006249" data-name="Trazado 1006249" d="M747.082,604.609l7.587.042a12.523,12.523,0,0,1,3.85.182L758,607.166a6.95,6.95,0,0,1,4.449,3.416,7.12,7.12,0,0,1,.515,5.362,6.611,6.611,0,0,1-3.453,3.914,6.382,6.382,0,0,1-2.194.61c-1.281.118-2.629.048-3.917.051l-7.317.024-20.747-.023-.045,14.1-6.121.01c-.362-.684-.142-2.717-.14-3.53l.05-10.6-13.646.109-.015-.1,1.641-.08a11.858,11.858,0,0,0-1.225-.912,6.647,6.647,0,0,1-1.676-1.994,7.174,7.174,0,0,1-.443-5.228l.07-.218.351-1.052a6.951,6.951,0,0,1,4.155-3.691l28.892-.086c1.126.09,6.439.284,7.155-.137a17.987,17.987,0,0,1,.552-2.55Z" transform="translate(-1224.519 -1140.715)" fill="#2b8165"/>
    <path id="Trazado_1006250" data-name="Trazado 1006250" d="M971.875,604.609l7.587.042a12.521,12.521,0,0,1,3.85.182l-.519,2.332-8.937.023c-1.391.018-3.4.312-4.722-.069a17.986,17.986,0,0,1,.552-2.55Z" transform="translate(-1449.312 -1140.715)" fill="#091450"/>
    <path id="Trazado_1006251" data-name="Trazado 1006251" d="M805.686,722.142l0-14.138,6.162.022-.045,14.1Z" transform="translate(-1311.035 -1228.22)" fill="#091450"/>
    <path id="Trazado_1006252" data-name="Trazado 1006252" d="M740.119-69.652a14.271,14.271,0,0,1,3.152.451c4.158.75,7.987,1.6,11.219,4.528,3.282,2.976,4.619,7.091,5.4,11.323l12.513.009a68.858,68.858,0,0,1,7.628.173c3.074.791,5.651,2.172,7.324,4.975a9.988,9.988,0,0,1,1.431,5.8,26.09,26.09,0,0,1-.739,3.734l-1.308,5.647-4.849,20.84-6.233,26.8L771.4,33.467l-.294.969a12.51,12.51,0,0,0-3.85-.182l-7.587-.042-2.189-.039,1.861-7.688a17.619,17.619,0,0,0,.952-4.505c.607-1.753,1.362-3.463,1.889-5.244a37.8,37.8,0,0,0,1.083-12.519l-7.783,1.8-1.334.189A72.244,72.244,0,0,1,727.29,4.6l-4.258-1.1c-.766-.235-1.525-.574-2.308-.74l-.261-.053-.189.073c-.65-.362-1.351-.5-1.974-.9l14-3.672,6.787-2.5c.393-.64.821-.76,1.457-1.1,1.4-.752,5.467-3.668,6.16-5.153a6.489,6.489,0,0,0,.112-1.435c.074-1.1.156-2.191.329-3.284l1.866-9.971a70.14,70.14,0,0,1,1.594-7.338l.153-.02c.24-1.4.282-2.876.432-4.293a91.427,91.427,0,0,0,.559-14.139,35.338,35.338,0,0,0-1.116-7.987,13.219,13.219,0,0,0-5.88-7.649l-.18-.094c-1.586-.85-3.337-1.3-4.982-2.015Z" transform="translate(-1237.107 -570.317)" fill="#2b8165"/>
    <path id="Trazado_1006253" data-name="Trazado 1006253" d="M975.13,36.183l12.513.009a68.858,68.858,0,0,1,7.628.173,36.354,36.354,0,0,1-1.166,6.821l-2.065,9.1-9.476,39.763-4.542,19.2c-.957,4.136-1.772,8.47-3.114,12.492l-2.189-.039,1.861-7.688a17.622,17.622,0,0,0,.952-4.505c.607-1.753,1.362-3.463,1.888-5.244a37.8,37.8,0,0,0,1.083-12.519,113.575,113.575,0,0,0-1.948-11.825c-.972-4.408-2.331-8.969-2.5-13.494a91.781,91.781,0,0,1,.849-12.151A95.767,95.767,0,0,0,975.13,36.183Z" transform="translate(-1452.346 -659.85)" fill="#449d71"/>
    <path id="Trazado_1006254" data-name="Trazado 1006254" d="M740.119-69.652a14.272,14.272,0,0,1,3.152.451c4.158.75,7.987,1.6,11.219,4.528,3.282,2.976,4.619,7.091,5.4,11.323a95.77,95.77,0,0,1-.225,20.095,91.814,91.814,0,0,0-.849,12.151c.17,4.526,1.53,9.086,2.5,13.494a113.614,113.614,0,0,1,1.948,11.825l-7.783,1.8-1.334.189A72.244,72.244,0,0,1,727.289,4.6l-4.258-1.1c-.766-.235-1.525-.574-2.308-.74l-.261-.053-.189.073c-.651-.362-1.351-.5-1.974-.9l14-3.672,6.787-2.5c.393-.64.821-.76,1.457-1.1,1.4-.752,5.467-3.668,6.16-5.153a6.5,6.5,0,0,0,.112-1.435c.074-1.1.156-2.191.329-3.284l1.866-9.971a70.14,70.14,0,0,1,1.594-7.338l.153-.02c.24-1.4.282-2.876.432-4.293a91.427,91.427,0,0,0,.559-14.139,35.334,35.334,0,0,0-1.116-7.987,13.219,13.219,0,0,0-5.88-7.649l-.18-.094c-1.586-.85-3.337-1.3-4.982-2.015Z" transform="translate(-1237.106 -570.317)" fill="#097180"/>
    <path id="Trazado_1006255" data-name="Trazado 1006255" d="M864.963,170.963a20.61,20.61,0,0,0,5.9.478,129.378,129.378,0,0,1-3.185,13.207A26.781,26.781,0,0,1,865.4,190.2a19.048,19.048,0,0,1-5.766,5.945,31.2,31.2,0,0,1-6.338,3.123c.393-.64.821-.76,1.457-1.1,1.4-.752,5.467-3.668,6.16-5.153a6.488,6.488,0,0,0,.112-1.435c.074-1.1.156-2.191.329-3.284l1.866-9.971a70.155,70.155,0,0,1,1.594-7.338Z" transform="translate(-1351.309 -773.884)" fill="#fa8574"/>
    <path id="Trazado_1006256" data-name="Trazado 1006256" d="M732.342,323.521c2.188-.576,4.482-.877,6.709-1.278,8.727-1.568,18.877-3.129,25.606-9.429,1.051-.984,1.731-2.2,2.668-3.254l-1.3,17.461a72.244,72.244,0,0,1-26.86-1.606l-4.258-1.1c-.766-.235-1.525-.574-2.308-.74Z" transform="translate(-1248.986 -891.137)" fill="#13b1ae"/>
    <path id="Trazado_1006257" data-name="Trazado 1006257" d="M-451.4,825.214c.7,1,.983,3.034,1.311,4.245l4.116,15.717c.219.785.577,3.072,1.152,3.485l1.22-.015,8.623-.266.77,3.337a15.662,15.662,0,0,1,.292,2l-.394.385c.079.2.091.37.274.494a5.646,5.646,0,0,1,1.2,1.194l1.379.383c2.122.5,4.042.045,6.139-.33l.209.055c.537-.253,1.213-.368,1.786-.577.68-.248,2.2-1.145,2.838-1.1a9.66,9.66,0,0,1,1.917,2.126l16.018,0h5.29l26.025-.107.017,5.78,1.544.571,7.663-.039c1.782,0,4.059-.262,5.751.259a5.878,5.878,0,0,1,3.424,2.8l.084.166a5.983,5.983,0,0,1,.572,4.394,6.7,6.7,0,0,1-2.969,4.027l-.171.089a6.8,6.8,0,0,1-2.9.825c-2.524.138-5.12.021-7.649.018l-14.488-.014-45.157,0-140.3-.017-35.563.02-10.28.02a34.9,34.9,0,0,1-5.329-.089L-617.2,875a6.246,6.246,0,0,1-1.769-.5,6.48,6.48,0,0,1-3.552-3.808l-.065-.2a4.532,4.532,0,0,1-.244-1.092,6.281,6.281,0,0,1,1.624-4.95,6.65,6.65,0,0,1,3.089-1.859c1.757-.411,4.162-.131,5.984-.134l12.618-.012.738-4.678c.451-.453.737-.342,1.36-.371l7.111-.141a38.454,38.454,0,0,0,5.174-2.126c1.314-.638,2.888-1.6,4.363-1.641.461.912,2.948,1.9,3.9,2.429a34.358,34.358,0,0,1,3.038,1.628l4.071,2.1c2.194,1.094,6.463,2.681,7.307,5.2a4.149,4.149,0,0,1,.24,1.276l.579-.016a31.43,31.43,0,0,1,4.238-.01l.081.021v-.144a46.545,46.545,0,0,1,1.177-6.769,9.016,9.016,0,0,1,.7-2.308,23.522,23.522,0,0,0,6.964-.162l4.893-1.488c1.7-.63,3.459-2.073,5.21-2.383a3.115,3.115,0,0,0,1.173,1.138l.356.262,1.8,1.04,1.777.918,2.55,1.221,2.6,1.308L-523.1,861a15.72,15.72,0,0,0,2.665,1.152l6.462-.02.084,4.425c.957,0,2.7.235,3.537-.132a3.877,3.877,0,0,0,.107-1.484l-.016-2.8,15.5.051a62.52,62.52,0,0,1,7.274.118,19.882,19.882,0,0,0-4.106,3.349l10.238-.018a15.73,15.73,0,0,1,2.7-1.918l4.077-2.951a16.155,16.155,0,0,0,4.353-4.041,2.767,2.767,0,0,1,.418-.561l.165-.157,4.535-.1,5.689-.393a10.409,10.409,0,0,1,.219-2.862l.144-3.444,6.57-.023Z" transform="translate(-102.486 -1327.38)" fill="#6f8fcb"/>
    <path id="Trazado_1006258" data-name="Trazado 1006258" d="M800.4,1066.48a4.607,4.607,0,0,1,3.9.254l.139.075a4.57,4.57,0,0,1,1.441,2.285,3.469,3.469,0,0,1-.6,2.775,4.079,4.079,0,0,1-2.776,1.62,3.706,3.706,0,0,1-2.725-.907,3.533,3.533,0,0,1-1.243-2.567C798.5,1068.385,799.343,1067.594,800.4,1066.48Z" transform="translate(-1304.987 -1531.225)" fill="#091450"/>
    <path id="Trazado_1006259" data-name="Trazado 1006259" d="M-197.774,1090.747l35.81.13,3.6.058.026,2.231-39.52.008.007-2.447Z" transform="translate(-462.033 -1552.003)" fill="#091450"/>
    <path id="Trazado_1006260" data-name="Trazado 1006260" d="M-474.842,1090.65l14.005.047c4.108.293,8.3.081,12.424.106l7.433.009a24.321,24.321,0,0,0,3.939-.126l.579-.016v2.578l-38.431.058Z" transform="translate(-227.664 -1551.939)" fill="#091450"/>
    <path id="Trazado_1006261" data-name="Trazado 1006261" d="M-471.958,1033.417l7.111-.141a55.416,55.416,0,0,1,5.513,8.828l-1.217.055-14.005-.047.5-3.646.738-4.678C-472.867,1033.334-472.581,1033.446-471.958,1033.417Z" transform="translate(-227.95 -1503.401)" fill="#80c1c9"/>
    <path id="Trazado_1006262" data-name="Trazado 1006262" d="M-401.973,1008.82c.461.912,2.948,1.9,3.9,2.429a34.333,34.333,0,0,1,3.038,1.627l4.071,2.1c2.194,1.094,6.463,2.681,7.307,5.2a4.15,4.15,0,0,1,.24,1.276,24.328,24.328,0,0,1-3.939.126l-7.433-.009c-4.12-.026-8.316.187-12.424-.106l1.218-.055a55.417,55.417,0,0,0-5.513-8.828,38.459,38.459,0,0,0,5.174-2.125C-405.022,1009.823-403.448,1008.859-401.973,1008.82Z" transform="translate(-281.287 -1482.711)" fill="#0a7e8b"/>
    <path id="Trazado_1006263" data-name="Trazado 1006263" d="M-374.338,1027.654l-.246-.019-1.287-.755-1.87-1.266v-.149l.3-.072,1.219.808a10.032,10.032,0,0,1,1.746-1.609,34.309,34.309,0,0,1,3.038,1.627l4.071,2.1c2.194,1.094,6.463,2.681,7.307,5.2a4.147,4.147,0,0,1,.24,1.276,24.349,24.349,0,0,1-3.939.126l-7.433-.01c-4.12-.026-8.316.187-12.424-.106l1.218-.055,14.479.1a28.684,28.684,0,0,0-3.775-4.765,16.3,16.3,0,0,1-2.569-2.313Z" transform="translate(-304.886 -1496.055)" fill="#095578"/>
    <path id="Trazado_1006264" data-name="Trazado 1006264" d="M725.025,1026.74l26.025-.107.017,5.78,1.544.571a4.312,4.312,0,0,1,1.554,3.355,3.206,3.206,0,0,1-1.054,2.348,3.933,3.933,0,0,1-3.126.981,3.733,3.733,0,0,1-2.641-1.63,2.9,2.9,0,0,1-.489-2.376,5.166,5.166,0,0,1,1.392-2.546,53.294,53.294,0,0,0-7.414-.07l-16.046.022-.56.3-.139-.075a4.607,4.607,0,0,0-3.9-.254l-.186-.055-14.589-.059-.55-2.532-1.142-3.648,16.018,0Z" transform="translate(-1224.769 -1497.781)" fill="#091450"/>
    <path id="Trazado_1006265" data-name="Trazado 1006265" d="M804.721,1050.92l5.565.02-.05,2.675-.56.3-.139-.075a4.607,4.607,0,0,0-3.9-.254l-.186-.055a5.893,5.893,0,0,0-.132-2.467Z" transform="translate(-1310.219 -1518.328)" fill="#a299c6"/>
    <path id="Trazado_1006266" data-name="Trazado 1006266" d="M711.132,1050.936l14.413-.017.594.142a5.893,5.893,0,0,1,.132,2.467l-14.589-.059Z" transform="translate(-1231.042 -1518.327)" fill="#98cfd4"/>
    <path id="Trazado_1006267" data-name="Trazado 1006267" d="M840.586,1050.913l24.921-.025-.106,2.045-1.4.7a53.277,53.277,0,0,0-7.414-.07l-16.046.022Z" transform="translate(-1340.518 -1518.301)" fill="#98cfd4"/>
    <path id="Trazado_1006268" data-name="Trazado 1006268" d="M-183.563,1007.182c1.7-.63,3.459-2.073,5.21-2.383a3.115,3.115,0,0,0,1.173,1.139l.356.262,1.8,1.04,1.777.918,2.55,1.221,2.6,1.308,5.031,2.248a15.722,15.722,0,0,0,2.665,1.152c1.493,1.138,2.209,1.847,2.471,3.763l.051.39-3.6-.058-35.81-.129v-.144a46.549,46.549,0,0,1,1.177-6.769,9.016,9.016,0,0,1,.7-2.308,23.524,23.524,0,0,0,6.964-.162Z" transform="translate(-462.515 -1479.309)" fill="#097180"/>
    <path id="Trazado_1006269" data-name="Trazado 1006269" d="M-72.673,1017.78a3.61,3.61,0,0,1-1.853-1.453,2.387,2.387,0,0,1,.447-1.052l.693-1.063c.108-.2.226-.22.424-.329l1.8,1.04,1.777.918a2.62,2.62,0,0,0-1.078.793c-.3.308.02,0-.376.221-.312.171-.368.448-.752.6l-.926.414Z" transform="translate(-566.375 -1486.994)" fill="#095578"/>
    <path id="Trazado_1006270" data-name="Trazado 1006270" d="M-61.507,1028.632l.926-.414c.383-.153.44-.43.752-.6.4-.217.075.088.376-.221a2.62,2.62,0,0,1,1.078-.793l2.55,1.221,2.6,1.308,5.031,2.248a15.717,15.717,0,0,0,2.665,1.152c1.493,1.139,2.209,1.847,2.471,3.763l.051.391-3.6-.058-.04-.208a3.8,3.8,0,0,0-.745-.93c-2.027-2.21-5.16-3.093-7.829-4.305l-2.821-1.115A11.4,11.4,0,0,1-61.507,1028.632Z" transform="translate(-577.389 -1497.755)" fill="#364290"/>
    <path id="Trazado_1006271" data-name="Trazado 1006271" d="M-195.421,1030.088a23.522,23.522,0,0,0,6.964-.162,72.637,72.637,0,0,1,5.4,9.286l-14.239-.046a46.55,46.55,0,0,1,1.177-6.769A9.04,9.04,0,0,1-195.421,1030.088Z" transform="translate(-462.514 -1500.567)" fill="#80c1c9"/>
    <path id="Trazado_1006272" data-name="Trazado 1006272" d="M268.385,825.214c.7,1,.983,3.034,1.311,4.245l4.116,15.717c.219.785.577,3.072,1.152,3.485l1.22-.015,8.623-.266.77,3.337a15.662,15.662,0,0,1,.292,2l-.394.385c.079.2.091.37.274.494a5.645,5.645,0,0,1,1.2,1.194l1.379.383c2.121.5,4.042.045,6.139-.33l.209.055c.537-.253,1.213-.368,1.786-.577.68-.248,2.2-1.145,2.838-1.1a9.66,9.66,0,0,1,1.917,2.126l1.142,3.648.55,2.532c.084.707.031,2.525.387,3.06.366.417.21,2.015.213,2.636l-75.526-.018a5.871,5.871,0,0,1,.206-2.541l10.238-.018a15.729,15.729,0,0,1,2.7-1.918l4.077-2.951a16.154,16.154,0,0,0,4.353-4.041,2.767,2.767,0,0,1,.418-.561l.165-.157,4.535-.1,5.689-.393a10.409,10.409,0,0,1,.219-2.862l.144-3.444,6.57-.023Z" transform="translate(-822.269 -1327.38)" fill="#091450"/>
    <path id="Trazado_1006273" data-name="Trazado 1006273" d="M454.582,1064.83a2.56,2.56,0,0,0,1.1.01c.012.721.262,3.05-.109,3.522l-.845.065Z" transform="translate(-1014.001 -1530.095)" fill="#73b0bb"/>
    <path id="Trazado_1006274" data-name="Trazado 1006274" d="M639.446,1015.213c.536-.253,1.213-.368,1.786-.577.68-.248,2.2-1.145,2.838-1.1a9.661,9.661,0,0,1,1.917,2.126l1.142,3.648.55,2.532c.084.707.031,2.525.387,3.06l-12.588.005c1.254-2,3.128-3.571,3.641-6l.048-.239A16.8,16.8,0,0,0,639.446,1015.213Z" transform="translate(-1167.039 -1486.696)" fill="#a72343"/>
    <path id="Trazado_1006275" data-name="Trazado 1006275" d="M312.226,1022.381l5.689-.393.165.144c1.46,1.39,2.075,4.487,2.325,6.454l.143,3.6a9.139,9.139,0,0,0-2.117-.091l-4.573-.078-17.878.1a15.725,15.725,0,0,1,2.7-1.918l4.077-2.951a16.152,16.152,0,0,0,4.353-4.041,2.765,2.765,0,0,1,.418-.56l.165-.157Z" transform="translate(-879.824 -1493.851)" fill="#a72343"/>
    <path id="Trazado_1006276" data-name="Trazado 1006276" d="M416.292,1022.92c1.46,1.39,2.075,4.487,2.325,6.454l.143,3.6a9.145,9.145,0,0,0-2.117-.091l-4.573-.078C414.9,1030.187,415.914,1026.659,416.292,1022.92Z" transform="translate(-978.036 -1494.64)" fill="#871439"/>
    <path id="Trazado_1006277" data-name="Trazado 1006277" d="M504.056,1012.79c.079.2.091.37.274.494a5.649,5.649,0,0,1,1.2,1.194l1.379.383c2.121.5,4.042.045,6.139-.33l.209.055a16.787,16.787,0,0,1-.279,3.45l-.048.239c-.513,2.431-2.387,4-3.641,6a67.868,67.868,0,0,1-7.057,0l-11.911-.045a10.679,10.679,0,0,1-4-.035c.511-1.551,8.746-5.533,10.535-6.527l2.971-1.715a3.144,3.144,0,0,1,1.643-.728c.377-.079,1.051-1.373,1.368-1.728A2.424,2.424,0,0,1,504.056,1012.79Z" transform="translate(-1040.849 -1486.07)" fill="#d04756"/>
    <path id="Trazado_1006278" data-name="Trazado 1006278" d="M504.054,1012.79c.079.2.091.37.274.494a5.647,5.647,0,0,1,1.2,1.194l1.379.383a15.8,15.8,0,0,1-4.6,2.945l-.873-.586a8.961,8.961,0,0,0-1.547-.766,1.088,1.088,0,0,0,.572.746l.451.156a1.989,1.989,0,0,1,.885.6c-.588.527-1.344.782-1.931,1.281l-4.909,2.651c-1.4.695-3.5,1.321-4.636,2.336a10.684,10.684,0,0,1-4-.035c.511-1.551,8.746-5.533,10.534-6.527l2.971-1.715a3.143,3.143,0,0,1,1.643-.728c.377-.079,1.051-1.373,1.368-1.728A2.427,2.427,0,0,1,504.054,1012.79Z" transform="translate(-1040.847 -1486.07)" fill="#f15f65"/>
    <path id="Trazado_1006279" data-name="Trazado 1006279" d="M446.1,825.214c.7,1,.982,3.034,1.311,4.245l4.116,15.717c.219.785.577,3.072,1.152,3.485l1.22-.015,8.623-.266.77,3.337a15.668,15.668,0,0,1,.292,2l-.394.385a2.432,2.432,0,0,0-1.222.7c-.317.355-.991,1.649-1.368,1.728a3.143,3.143,0,0,0-1.643.728l-2.971,1.715c-1.788.995-10.023,4.976-10.535,6.527l-.06-.111a6.931,6.931,0,0,1-.043-1.987c.118-.219.641-.378.79-.59a2,2,0,0,0,.18-.537l-.255-.212a36.613,36.613,0,0,0-4.4.058,2.562,2.562,0,0,1-1.1-.01c-.25-1.967-.865-5.064-2.325-6.454l-.165-.144a10.409,10.409,0,0,1,.219-2.862l.144-3.444,6.57-.023Z" transform="translate(-999.982 -1327.38)" fill="#98cfd4"/>
    <path id="Trazado_1006280" data-name="Trazado 1006280" d="M477.889,400.214l.261.053c.783.165,1.542.5,2.308.74l4.258,1.1a72.243,72.243,0,0,0,26.86,1.606l1.334-.189,7.783-1.8a37.789,37.789,0,0,1-1.083,12.519c-.527,1.781-1.282,3.491-1.888,5.244a17.631,17.631,0,0,1-.952,4.505l-1.861,7.688a17.967,17.967,0,0,0-.552,2.55c-.716.421-6.029.227-7.155.137l-28.892.086a6.951,6.951,0,0,0-4.155,3.691L473.8,439.2l-.07.218a7.174,7.174,0,0,0,.443,5.228,6.652,6.652,0,0,0,1.676,1.993,11.874,11.874,0,0,1,1.225.912l-1.641.08.015.1,13.646-.109-.05,10.6c0,.812-.223,2.846.14,3.53a14.244,14.244,0,0,1,.232,3.907l.022,6.836.061,24.3-16.018,0a9.656,9.656,0,0,0-1.917-2.126c-.637-.041-2.158.855-2.838,1.1-.573.209-1.249.324-1.786.577l-.209-.055c-2.1.375-4.017.829-6.139.33l-1.379-.383a5.645,5.645,0,0,0-1.2-1.194c-.183-.124-.195-.292-.274-.494l.394-.385a15.663,15.663,0,0,0-.292-2l-.77-3.337-8.623.266-1.22.015c-.575-.413-.934-2.7-1.152-3.485l-4.116-15.717c-.329-1.211-.606-3.244-1.311-4.245a1.447,1.447,0,0,0-.038-.9l-1.179-4.039-6.454-23.62a44.092,44.092,0,0,1-1.341-7.036,22.543,22.543,0,0,1,1.154-9.059c2.6-7.51,10.474-11.831,17.241-15.043l.029.834c.423.348.556.257,1.089.234-.037.849-.228.977-.754,1.6.475.4,1.569,1.1,1.7,1.7a1.874,1.874,0,0,0,.592.691,1.726,1.726,0,0,0,.972-.1l.594-.33.267-.149c.072.5,0,.7.412,1.014a3.05,3.05,0,0,0,2.354-.485,1.044,1.044,0,0,1,.692-.332,2.024,2.024,0,0,0,.752.751,2.213,2.213,0,0,0,1.248-.22c1.466-.8,2.478-2.215,3.667-3.342a39.259,39.259,0,0,1,4.737-3.881,12.672,12.672,0,0,1,2.339-1.108c2.293-.935,4.734-1.538,6.979-2.555Z" transform="translate(-994.533 -967.83)" fill="#596bb9"/>
    <path id="Trazado_1006281" data-name="Trazado 1006281" d="M613.415,410.046a37.792,37.792,0,0,1-1.083,12.519c-.527,1.781-1.282,3.491-1.889,5.244a17.631,17.631,0,0,1-.952,4.505L607.63,440a17.974,17.974,0,0,0-.552,2.55c-.716.421-6.029.227-7.155.137l-28.892.086a6.951,6.951,0,0,0-4.155,3.691l-.351,1.052-.07.218a7.174,7.174,0,0,0,.443,5.228,6.653,6.653,0,0,0,1.676,1.994,11.862,11.862,0,0,1,1.225.912l-1.641.08.015.1,13.646-.109-.05,10.6c0,.813-.223,2.846.14,3.53a14.247,14.247,0,0,1,.232,3.907l.022,6.836.061,24.3-16.018,0a9.653,9.653,0,0,0-1.917-2.126c-.637-.041-2.158.855-2.838,1.1-.573.209-1.249.324-1.786.577l-.209-.055c-2.1.375-4.017.829-6.139.33l-1.379-.383a5.643,5.643,0,0,0-1.2-1.194c-.183-.124-.195-.292-.274-.494l.394-.385a15.663,15.663,0,0,0-.292-2l-.77-3.337-8.623.266a2.549,2.549,0,0,1,1.275-.382l5.162-1.143c2.762-.668,6.171-1.3,7.848-3.858a2.964,2.964,0,0,0,.675-2.355L550.1,457.529l-1.486-8.281a34.931,34.931,0,0,1-.732-5.69,9.539,9.539,0,0,1,1.227-4.4l-5.7-9.069c2.376,2.026,4.523,4.5,7.152,6.2l.193.123a.789.789,0,0,0,.408.2,9.255,9.255,0,0,0,1.809,0l3.456-.041,14.9-.457c5.32-.237,10.641-.388,15.822-1.74a27.664,27.664,0,0,0,9.041-4.316l.228-.158c5.524-3.893,8.137-11.685,9.219-18.057Z" transform="translate(-1087.255 -976.148)" fill="#364290"/>
    <path id="Trazado_1006282" data-name="Trazado 1006282" d="M933.193,525.391a17.634,17.634,0,0,1-.952,4.505l-1.861,7.688a17.959,17.959,0,0,0-.552,2.55c-.716.421-6.029.227-7.155.137A44.6,44.6,0,0,0,933.193,525.391Z" transform="translate(-1410.005 -1073.73)" fill="#98cfd4"/>
    <path id="Trazado_1006283" data-name="Trazado 1006283" d="M597.162,964.42a33.06,33.06,0,0,0,4.352-.426,80.742,80.742,0,0,0,9.126-1.618l.657,4.964a16.527,16.527,0,0,1,.357,2.915c-.637-.041-2.158.855-2.838,1.1-.573.209-1.249.324-1.786.577l-.209-.055c-2.1.375-4.017.829-6.139.33l-1.379-.383a5.642,5.642,0,0,0-1.2-1.194c-.183-.124-.195-.292-.274-.494l.394-.385a15.674,15.674,0,0,0-.292-2Z" transform="translate(-1134.624 -1443.42)" fill="#f37873"/>
    <path id="Trazado_1006284" data-name="Trazado 1006284" d="M601.6,993.618a7.711,7.711,0,0,1,6.032-.115,5.205,5.205,0,0,1,2.81,3.077,4.524,4.524,0,0,1,.236.833l-.19.33c-2.1.375-4.017.829-6.139.33l-1.379-.383a5.644,5.644,0,0,0-1.2-1.194c-.183-.124-.195-.292-.274-.494l.394-.385A15.585,15.585,0,0,0,601.6,993.618Z" transform="translate(-1138.295 -1469.28)" fill="#faa78d"/>
    <path id="Trazado_1006285" data-name="Trazado 1006285" d="M632.855,634.462a34.919,34.919,0,0,0-3.782-.028l-7.571.025-3.854-13.406,11.1.017,4.24.007a9.53,9.53,0,0,1,2.744.211,6.95,6.95,0,0,0-4.155,3.691l-.351,1.052-.07.218a7.174,7.174,0,0,0,.443,5.228,6.652,6.652,0,0,0,1.676,1.993,11.867,11.867,0,0,1,1.225.912Z" transform="translate(-1151.955 -1154.659)" fill="#091450"/>
    <path id="Trazado_1006286" data-name="Trazado 1006286" d="M654.294,708.19l13.646-.109-.05,10.6c0,.813-.222,2.846.14,3.53a14.247,14.247,0,0,1,.232,3.907l.022,6.836.061,24.3-16.018,0a9.656,9.656,0,0,0-1.917-2.125,16.522,16.522,0,0,0-.357-2.915l-.657-4.964a24.8,24.8,0,0,0,4.356-.919l-10.779-38.017C643.417,708.023,652.917,708.194,654.294,708.19Z" transform="translate(-1173.378 -1228.286)" fill="#98cfd4"/>
    <path id="Trazado_1006287" data-name="Trazado 1006287" d="M-23.811,351.681a3.716,3.716,0,0,1,.568.788l39.455.046-2.793,3.727c-1.2,2.338-3.852,4.073-4.817,6.55l.211.614a4.145,4.145,0,0,0,2.234-.89l-.623,2.27a9.9,9.9,0,0,0,3.924-.66c.607-.3,1.145-.716,1.771-.973a3.4,3.4,0,0,0,1.627-.835,20.518,20.518,0,0,1,2.8-1.825,12.565,12.565,0,0,0-1.043,2.231l-.015.184a22.587,22.587,0,0,0,4.946-2.275l-3.348,3.019a8.249,8.249,0,0,1-1.507,1.255c-6.767,3.213-14.644,7.533-17.241,15.043a22.54,22.54,0,0,0-1.154,9.059,44.085,44.085,0,0,0,1.341,7.036l6.454,23.62,1.179,4.039a1.446,1.446,0,0,1,.038.9L9.1,448.578l-6.57.023-.144,3.444a10.416,10.416,0,0,0-.219,2.862l-5.689.393-4.535.1-.165.157a2.766,2.766,0,0,0-.418.561,16.153,16.153,0,0,1-4.353,4.041l-4.077,2.951a15.754,15.754,0,0,0-2.7,1.918l-10.238.018A19.874,19.874,0,0,1-25.9,461.7a62.514,62.514,0,0,0-7.274-.118l-15.5-.051.016,2.8a3.878,3.878,0,0,1-.107,1.484c-.841.367-2.58.133-3.537.132l-.084-4.425-6.462.02a15.7,15.7,0,0,1-2.665-1.152l-5.031-2.248-2.6-1.308-2.55-1.221-1.777-.918-1.8-1.04-.356-.262a3.115,3.115,0,0,1-1.173-1.139l-.453-3.419,3.613-.026,1.517-49.756,6.968-.162-4.161-34.257-1.01-8.431-.4-3.9-.081-.473Z" transform="translate(-564.075 -926.771)" fill="#98cfd4"/>
    <path id="Trazado_1006288" data-name="Trazado 1006288" d="M248.3,1010.45a4.2,4.2,0,0,1,2.617,1.023,2.557,2.557,0,0,1,.5,1.155l.04.094-.165.156a2.767,2.767,0,0,0-.418.561,16.154,16.154,0,0,1-4.353,4.041l-4.077,2.951a15.749,15.749,0,0,0-2.7,1.918l-10.238.018a19.874,19.874,0,0,1,4.106-3.349c1.351-.442,2.643-1.112,3.956-1.66l3.957-1.644a5.144,5.144,0,0,0,2.342-1.412,16.714,16.714,0,0,1,2.041-2.158A12.448,12.448,0,0,1,248.3,1010.45Z" transform="translate(-823.584 -1484.09)" fill="#f15f65"/>
    <path id="Trazado_1006289" data-name="Trazado 1006289" d="M86.989,381.087l.659.168a23.174,23.174,0,0,1,.082,3.145l-.025,5.046L87.711,490.7c-.841.367-2.58.133-3.537.132l-.084-4.425-.016-96.889.027-8.4Z" transform="translate(-700.551 -951.649)" fill="#fefefe"/>
    <path id="Trazado_1006290" data-name="Trazado 1006290" d="M11.587,351.681a3.717,3.717,0,0,1,.568.788l39.455.046-2.793,3.727c-1.2,2.338-3.852,4.073-4.817,6.55a22.59,22.59,0,0,0-3.556,1.135l-2.257.747a46.813,46.813,0,0,0-5.576-.09l-10.29-.016H-13.373l.025-5.046a23.2,23.2,0,0,0-.082-3.145l-.659-.168-2.887.033-.027,8.4-16.905,0-1.01-8.431-.4-3.9-.081-.473Z" transform="translate(-599.473 -926.771)" fill="#7a7e4b"/>
    <path id="Trazado_1006291" data-name="Trazado 1006291" d="M11.587,351.681a3.717,3.717,0,0,1,.568.788l-47.477-.155-.081-.473Z" transform="translate(-599.473 -926.771)" fill="#98cfd4"/>
    <path id="Trazado_1006292" data-name="Trazado 1006292" d="M-32.263,381.089l17.943.033-.027,8.4-16.905,0Z" transform="translate(-602.13 -951.65)" fill="#dbb351"/>
    <path id="Trazado_1006293" data-name="Trazado 1006293" d="M103,381.087l62.907.032c-1.2,2.338-3.852,4.073-4.817,6.55a22.6,22.6,0,0,0-3.556,1.135l-2.257.747a46.825,46.825,0,0,0-5.576-.09l-10.29-.016H103.718l.025-5.046a23.2,23.2,0,0,0-.082-3.145Z" transform="translate(-716.564 -951.649)" fill="#dbb351"/>
    <path id="Trazado_1006294" data-name="Trazado 1006294" d="M-69.31,435.823l16.905,0,.016,96.889-6.462.02a15.693,15.693,0,0,1-2.665-1.152l-5.031-2.248-2.6-1.308-2.55-1.221-1.777-.918-1.8-1.04-.356-.262a3.116,3.116,0,0,1-1.173-1.138l-.453-3.419,3.613-.026,1.517-49.756,6.968-.162Z" transform="translate(-564.073 -997.954)" fill="#98cfd4"/>
    <path id="Trazado_1006295" data-name="Trazado 1006295" d="M338.289,411.558a3.4,3.4,0,0,0,1.627-.835,20.516,20.516,0,0,1,2.8-1.825,12.566,12.566,0,0,0-1.043,2.231l-.015.184a22.586,22.586,0,0,0,4.946-2.275l-3.348,3.019a8.256,8.256,0,0,1-1.507,1.255c-6.767,3.213-14.644,7.533-17.241,15.043a22.539,22.539,0,0,0-1.154,9.059,44.087,44.087,0,0,0,1.342,7.036l6.454,23.62,1.179,4.039a1.446,1.446,0,0,1,.038.9l-1.092,23.973-6.57.023-.144,3.444a10.416,10.416,0,0,0-.219,2.862l-5.689.393-4.535.1-.04-.094a2.557,2.557,0,0,0-.5-1.155,4.2,4.2,0,0,0-2.617-1.023l.03-1.819-.032-2.691-7.387.01.034-2.07.511-20.172.6-19.894.981-16.622c.354-4.04.646-8.715,2.155-12.5,2.808-7.039,10.592-9.99,17.1-12.7l2.257-.747a22.625,22.625,0,0,1,3.556-1.135l.211.614a4.144,4.144,0,0,0,2.234-.89l-.623,2.27a9.9,9.9,0,0,0,3.924-.66C337.124,412.232,337.663,411.814,338.289,411.558Z" transform="translate(-886.245 -975.176)" fill="#364290"/>
    <path id="Trazado_1006296" data-name="Trazado 1006296" d="M457.115,424.963a22.619,22.619,0,0,1,3.556-1.135l.211.614.078.394c-.454.424-2.207.474-2.872.435A1.733,1.733,0,0,1,457.115,424.963Z" transform="translate(-1016.144 -987.808)" fill="#2d3182"/>
    <path id="Trazado_1006297" data-name="Trazado 1006297" d="M341.652,412.079A22.588,22.588,0,0,0,346.6,409.8l-3.348,3.019a8.255,8.255,0,0,1-1.507,1.255c-6.767,3.213-14.644,7.533-17.241,15.043a22.54,22.54,0,0,0-1.154,9.059,44.084,44.084,0,0,0,1.342,7.036l6.454,23.62,1.179,4.039a1.446,1.446,0,0,1,.038.9l-1.092,23.973-6.57.023-.144,3.444a10.416,10.416,0,0,0-.219,2.862l-5.689.393-4.535.1-.04-.094a2.556,2.556,0,0,0-.5-1.155,4.2,4.2,0,0,0-2.617-1.023l.03-1.819-.032-2.691-7.387.01.034-2.07a29.831,29.831,0,0,1,4.136-.162l6.2-.249a19.571,19.571,0,0,0,3.967-.248c2.194-.533,3.179-5.634,3.6-7.549a122.306,122.306,0,0,0,2.818-24.874,113.428,113.428,0,0,0-.607-12.687l-.947-7.588c-.749-5.172-1.8-11.093.749-15.954,2.445-4.669,7.092-7.747,11.31-10.643a13.005,13.005,0,0,1,3.023-1.94,9.8,9.8,0,0,0,3.689-1.644Z" transform="translate(-886.245 -975.943)" fill="#2d3182"/>
    <path id="Trazado_1006298" data-name="Trazado 1006298" d="M351.535,981.052l13.742-.02-.144,3.444a10.418,10.418,0,0,0-.219,2.862l-5.689.393-4.535.1-.04-.094a2.557,2.557,0,0,0-.5-1.155,4.2,4.2,0,0,0-2.617-1.023l.03-1.819Z" transform="translate(-926.823 -1459.203)" fill="#d16d92"/>
    <path id="Trazado_1006299" data-name="Trazado 1006299" d="M351.573,998.191c1.756-.045,3.877-.275,5.548.318l.165.057a2.7,2.7,0,0,1,1.615,1.67,5.13,5.13,0,0,1,.331,1.943l-4.535.1-.04-.094a2.557,2.557,0,0,0-.5-1.155,4.2,4.2,0,0,0-2.617-1.023Z" transform="translate(-926.83 -1473.65)" fill="#faa78d"/>
    <path id="Trazado_1006300" data-name="Trazado 1006300" d="M-490.91-54.047l.191-2.831,9.909.114a37.126,37.126,0,0,0,5.035.091l9.411,0,1.551.016h4.514l-.661,6.084a27.91,27.91,0,0,0-.263,2.849l-1.752,13.3a36.439,36.439,0,0,1,.788,4.262l1.469,8.644,3.182,25.505.29,2.21.081.473.4,3.9,1.01,8.431,4.161,34.257-6.968.162-1.517,49.756-3.613.026.453,3.419c-1.75.31-3.508,1.753-5.21,2.383l-4.893,1.488a23.515,23.515,0,0,1-6.964.162,9.018,9.018,0,0,0-.7,2.308,46.55,46.55,0,0,0-1.177,6.769v.144l-.081-.021a31.466,31.466,0,0,0-4.238.01l-.579.016a4.149,4.149,0,0,0-.24-1.276c-.845-2.524-5.113-4.111-7.307-5.2l-4.071-2.1a34.355,34.355,0,0,0-3.038-1.627c-.951-.525-3.437-1.518-3.9-2.429-1.475.039-3.049,1-4.363,1.641A38.469,38.469,0,0,1-515.166,111l-7.111.141.729-7.029v-1.03a45.116,45.116,0,0,1-5.094.082l1.025-44.278.1-5.226.489-.169a22.6,22.6,0,0,0-2.444-.088l-4.378-.212a8.085,8.085,0,0,1-2.182-.169l5.458-66.433a45.43,45.43,0,0,0,.277-4.983l.171-7.167,20.039,5.57c1.883.547,4.3.883,6.054,1.717l-.145.722a2.966,2.966,0,0,0,2.193.208,3.81,3.81,0,0,0,.266-1.9l.244-2.489.687-11.469.149.057a5.658,5.658,0,0,0,1.56-.872l4.385-2.6,1.61-15.824A11.458,11.458,0,0,0-490.91-54.047Z" transform="translate(-177.631 -581.13)" fill="#596bb9"/>
    <path id="Trazado_1006301" data-name="Trazado 1006301" d="M-240.752,339.493l-.121-1.424,5.839-2.967a40.923,40.923,0,0,1,6.867-3.285,46.873,46.873,0,0,1-4.464,3.977l-4.979,4.349a18.68,18.68,0,0,0-2.994,2.879Z" transform="translate(-425.646 -909.967)" fill="#2d3182"/>
    <path id="Trazado_1006302" data-name="Trazado 1006302" d="M-180.477,982.24l15.407,0,.427.055.453,3.419c-1.75.31-3.507,1.753-5.21,2.383a7.329,7.329,0,0,0-2.71-4.258c-2.335-1.463-5.944-.587-8.442,0Z" transform="translate(-476.677 -1460.222)" fill="#d04756"/>
    <path id="Trazado_1006303" data-name="Trazado 1006303" d="M-184.424,988.224c2.5-.59,6.107-1.466,8.442,0a7.329,7.329,0,0,1,2.71,4.258l-4.893,1.488a23.513,23.513,0,0,1-6.964.162Z" transform="translate(-472.805 -1464.607)" fill="#f15f65"/>
    <path id="Trazado_1006304" data-name="Trazado 1006304" d="M-142.355,279.358l3.492.015,1.968,58.8,9.7-.3-1.517,49.756-3.613.026-.427-.055-3.009-44.2-6.158.486Z" transform="translate(-508.992 -865.586)" fill="#364290"/>
    <path id="Trazado_1006305" data-name="Trazado 1006305" d="M-113.576,88.936a36.44,36.44,0,0,1,.788,4.262l1.469,8.644,3.182,25.505.29,2.21.081.473.4,3.9,1.01,8.431,4.161,34.257-6.968.162-9.7.3-1.968-58.8-.209-3.961c1.121-.383,3.127-.118,4.356-.123l3.064-25.091Z" transform="translate(-527.029 -704.489)" fill="#fefefe"/>
    <path id="Trazado_1006306" data-name="Trazado 1006306" d="M-339.23,422.634l1.774-12.531,2.972-20.052,1.016-6.779a10.511,10.511,0,0,1,.547-2.79l.2.181.149,3.53,4.066,89,5.03-.036-.076,1.6-.7,5.9a9.018,9.018,0,0,0-.7,2.308,46.554,46.554,0,0,0-1.177,6.769v.144l-.081-.021a31.475,31.475,0,0,0-4.238.01l-.579.016a4.149,4.149,0,0,0-.24-1.276c-.845-2.524-5.113-4.111-7.307-5.2l-4.071-2.1a34.344,34.344,0,0,0-3.038-1.628c-.951-.525-3.437-1.518-3.9-2.429l.215-4.111a7.16,7.16,0,0,0,2.687-.081,8,8,0,0,0,.389-2.018l.757-5.308Z" transform="translate(-333.68 -951.137)" fill="#98cfd4"/>
    <path id="Trazado_1006307" data-name="Trazado 1006307" d="M-459.306,622.179l4.531,4.792.113.139-6.3,43.093-.757,5.308a7.991,7.991,0,0,1-.389,2.018,7.16,7.16,0,0,1-2.687.081l-.215,4.111c-1.475.039-3.049,1-4.363,1.641a38.467,38.467,0,0,1-5.174,2.125l-7.111.141.729-7.029v-1.03a45.129,45.129,0,0,1-5.094.082L-485,633.373l.1-5.227.489-.169,24.809,1.447Z" transform="translate(-218.247 -1155.613)" fill="#596bb9"/>
    <path id="Trazado_1006308" data-name="Trazado 1006308" d="M-452.951,981.609l11.382-.026h3.131a6.284,6.284,0,0,1,1.62.068l-.215,4.111c-1.475.039-3.049,1-4.363,1.641-.626-1.2-.95-2.461-1.994-3.429-2.233-2.07-6.758-1.377-9.563-1.335Z" transform="translate(-246.227 -1459.653)" fill="#d04756"/>
    <path id="Trazado_1006309" data-name="Trazado 1006309" d="M-456.954,987.745c2.8-.042,7.33-.735,9.563,1.335,1.044.967,1.368,2.227,1.994,3.429a38.474,38.474,0,0,1-5.174,2.125l-7.111.141Z" transform="translate(-242.225 -1464.759)" fill="#f15f65"/>
    <path id="Trazado_1006310" data-name="Trazado 1006310" d="M-453.675,622.179l4.531,4.792.113.139-6.3,43.093-.757,5.308a7.993,7.993,0,0,1-.389,2.018l-1.292-.063a.867.867,0,0,1-.14-.187,6.6,6.6,0,0,1,.091-1.411l.625-7.265,1.184-15,1.194-14.243-24.551-5.984.1-5.226.489-.169,24.809,1.447Z" transform="translate(-223.878 -1155.613)" fill="#364290"/>
    <path id="Trazado_1006311" data-name="Trazado 1006311" d="M-301.056-54.047l.191-2.831,9.909.114a37.127,37.127,0,0,0,5.035.091l9.411,0,1.551.016h4.514l-.661,6.084a27.91,27.91,0,0,0-.263,2.849l-1.752,13.3-.039.165-3.064,25.091c-1.229.005-3.235-.259-4.356.123l.209,3.961-3.492-.015a30.193,30.193,0,0,0-5.065-.181l-12.261-.309c-2.2-.04-4.471.032-6.662-.152a10.843,10.843,0,0,1-.1-1.809l.032-1.591.354-4.611.188-7.344a13.852,13.852,0,0,1-2.249-.639l.687-11.469.149.057a5.658,5.658,0,0,0,1.56-.872l4.385-2.6,1.61-15.824A11.454,11.454,0,0,0-301.056-54.047Z" transform="translate(-367.484 -581.13)" fill="#f0933e"/>
    <path id="Trazado_1006312" data-name="Trazado 1006312" d="M-254.96-39.224l11.813-.046a29.854,29.854,0,0,1,5.165.065,3.877,3.877,0,0,1,.069,1.5c-.966.416-15.238.171-17.223.079A11.477,11.477,0,0,0-254.96-39.224Z" transform="translate(-413.581 -595.953)" fill="#fefefe"/>
    <path id="Trazado_1006313" data-name="Trazado 1006313" d="M-302.839,56.894l.118-.047c2.113-.873,3.826-2.189,6.073-2.873l.259-.081a2.765,2.765,0,0,1,2.173-.009,3.124,3.124,0,0,1,.909.866c.01.351.042.471-.259.722a16.608,16.608,0,0,1-2.552,1.23c-.767.419-1.449.957-2.167,1.447a5.777,5.777,0,0,0-2.3,3.017,32.743,32.743,0,0,0,7.017-1.392,18.47,18.47,0,0,1,5.229-1.149,3.523,3.523,0,0,1,1.15,1.463,16.94,16.94,0,0,1-4.719,2.679c-1.163.5-2.359.89-3.56,1.287-.528.174-1.23.289-1.556.77l.224.2a35.946,35.946,0,0,0,6.7-2.216,4.313,4.313,0,0,1,2.379-.378c.279.074.433.418.531.669a4.934,4.934,0,0,1,.253,2.649l.025.5-.816.441,1.435.921.132.1a12.467,12.467,0,0,1-3.5,3.078c-2.373,1.348-5.41,1.658-8.087,1.895-2.636.232-5.852.607-8.409-.13l-1.225-.125a13.852,13.852,0,0,1-2.249-.639l.687-11.469.149.057a5.657,5.657,0,0,0,1.56-.872Z" transform="translate(-367.486 -674.646)" fill="#fa8574"/>
    <path id="Trazado_1006314" data-name="Trazado 1006314" d="M-217.731,132.118l.025.5-.816.441a20.874,20.874,0,0,1-3.588,1.2c-.941.194-5.125,1.224-5.714.834l.1-.245Z" transform="translate(-436.685 -741.021)" fill="#e33d1c"/>
    <path id="Trazado_1006315" data-name="Trazado 1006315" d="M-265.76-55.506h4.514l-.661,6.084a27.893,27.893,0,0,0-.263,2.849l-1.752,13.3-.039.165L-267.023-8.02c-1.229.005-3.235-.259-4.356.123l.209,3.961-3.492-.015a30.192,30.192,0,0,0-5.065-.181l-12.261-.309c-2.2-.04-4.471.032-6.662-.152a10.843,10.843,0,0,1-.1-1.809l.032-1.591.354-4.611.189-7.344,1.225.125c2.557.738,5.773.363,8.409.13,2.677-.236,5.714-.546,8.087-1.895a12.465,12.465,0,0,0,3.5-3.078c5.037-6.311,6.256-14.352,7.976-21.987.659-2.926,1.619-5.856,1.669-8.87Z" transform="translate(-376.684 -582.277)" fill="#f1742c"/>
    <path id="Trazado_1006316" data-name="Trazado 1006316" d="M-296.052,175.48l1.225.125-.706,4.283a12.255,12.255,0,0,1-.708,2.936Z" transform="translate(-378.804 -777.705)" fill="#596bb9"/>
    <path id="Trazado_1006317" data-name="Trazado 1006317" d="M-298.714,253.01l20.375.006,4.911,0a5.918,5.918,0,0,1,1.908.095l.141-.01.209,3.961-3.492-.015a30.192,30.192,0,0,0-5.065-.181l-12.261-.309c-2.2-.04-4.471.032-6.662-.152a10.847,10.847,0,0,1-.1-1.809Z" transform="translate(-376.685 -843.279)" fill="#2d3182"/>
    <path id="Trazado_1006318" data-name="Trazado 1006318" d="M-139.307,253.744l.141-.01.209,3.961-3.492-.015-.017-3.905Z" transform="translate(-508.898 -843.908)" fill="#091450"/>
    <path id="Trazado_1006319" data-name="Trazado 1006319" d="M-528.128,146.5l20.039,5.57c1.883.547,4.3.883,6.054,1.717l-.145.722a2.966,2.966,0,0,0,2.193.208,3.81,3.81,0,0,0,.266-1.9l.244-2.489a13.885,13.885,0,0,0,2.249.639l-.188,7.344-.354,4.611-.032,1.591-2.122,55.245-.3,7.245-24.809-1.447a22.6,22.6,0,0,0-2.444-.088l-4.378-.212a8.085,8.085,0,0,1-2.182-.169l5.458-66.433a45.445,45.445,0,0,0,.278-4.983Z" transform="translate(-177.631 -753.186)" fill="#fefefe"/>
    <path id="Trazado_1006320" data-name="Trazado 1006320" d="M-496.618,146.5l20.04,5.57c1.883.547,4.3.883,6.054,1.717l-.145.722a4.585,4.585,0,0,0-.716,1.283l-1.961,3.93-23.443-6.056Z" transform="translate(-209.141 -753.186)" fill="#a1addf"/>
    <path id="Trazado_1006321" data-name="Trazado 1006321" d="M-743.63-743.79H-436a3.8,3.8,0,0,1,.159,1.605v15.743l-.009,54.726.009,169.106v47.5l0,13.654v3.443a12.153,12.153,0,0,1-.009,1.783.979.979,0,0,1-.147.379l-.012-235.857-.021-1.426-.063,1.145-.2.135-16.566-9.29-.107,21.108-19.782-.113a14.189,14.189,0,0,1,.456,5.5l-.462,1.976a12.824,12.824,0,0,1-6.533,7.379c-3.152,1.7-6.891,2.41-10.4,2.938a18.051,18.051,0,0,1-3.592.367l-6.7.4c.17.537.28,1.212.764,1.547a12.534,12.534,0,0,0,1.329.166l1.1-.088-.526.871c1.645.72,3.4,1.165,4.983,2.015l.18.094a13.219,13.219,0,0,1,5.88,7.649,35.348,35.348,0,0,1,1.116,7.987,91.424,91.424,0,0,1-.559,14.139c-.15,1.417-.193,2.892-.432,4.293l-.153.02a70.114,70.114,0,0,0-1.594,7.338l-1.866,9.971c-.173,1.092-.255,2.18-.329,3.284a6.49,6.49,0,0,1-.112,1.435c-.693,1.484-4.763,4.4-6.16,5.153-.636.342-1.064.462-1.457,1.1l-6.787,2.5-14,3.673c.623.4,1.323.54,1.974.9-2.245,1.018-4.686,1.621-6.979,2.555a12.668,12.668,0,0,0-2.339,1.108A39.269,39.269,0,0,0-530.694-560c-1.188,1.127-2.2,2.541-3.667,3.342a2.212,2.212,0,0,1-1.248.22,2.025,2.025,0,0,1-.752-.751,1.044,1.044,0,0,0-.692.332,3.051,3.051,0,0,1-2.354.485c-.415-.313-.34-.513-.412-1.014l-.267.149-.594.33a1.726,1.726,0,0,1-.972.1,1.875,1.875,0,0,1-.592-.691c-.129-.6-1.224-1.3-1.7-1.7.525-.628.717-.755.753-1.6-.532.023-.666.114-1.089-.234l-.029-.834a8.255,8.255,0,0,0,1.507-1.255l3.348-3.019a22.583,22.583,0,0,1-4.946,2.275l.015-.184a12.553,12.553,0,0,1,1.043-2.231,20.523,20.523,0,0,0-2.8,1.825,3.4,3.4,0,0,1-1.627.835c-.626.257-1.164.675-1.771.973a9.907,9.907,0,0,1-3.924.66l.623-2.271a4.144,4.144,0,0,1-2.234.89l-.211-.614c.965-2.477,3.62-4.212,4.817-6.55l2.793-3.727-39.455-.046a3.717,3.717,0,0,0-.568-.787l-46.991.159-.29-2.21-3.182-25.505-1.469-8.644a36.457,36.457,0,0,0-.788-4.262l1.752-13.3a27.858,27.858,0,0,1,.263-2.849l.661-6.084h-4.514l-1.551-.016-9.411,0a37.127,37.127,0,0,1-5.034-.092l-9.909-.114-.191,2.831a11.447,11.447,0,0,1-.174,1.6l-1.61,15.824-4.385,2.6a5.656,5.656,0,0,1-1.56.872l-.149-.056-.687,11.469-.244,2.489a3.811,3.811,0,0,1-.266,1.9,2.966,2.966,0,0,1-2.193-.208l.145-.722c-1.75-.835-4.171-1.17-6.054-1.717l-20.039-5.57-.171,7.167a45.459,45.459,0,0,1-.278,4.983,154.849,154.849,0,0,0-33.979,62.451,92.569,92.569,0,0,0-2.28,11.31l-.518,3.728a12.275,12.275,0,0,1-.388,2.7h-.234l-.287-19.019-.011-139.678,0-48.443,0-14.921A68.474,68.474,0,0,1-743.63-743.79Z" transform="translate(-0.193 -0.002)" fill="#80c1c9"/>
    <path id="Trazado_1006322" data-name="Trazado 1006322" d="M634.036-319.35a6.784,6.784,0,0,1,.982-.619,15.487,15.487,0,0,1-.8,2.8l-.081.04c-.6.76-.5,3.228-.335,4.214l.121.526-.093,1.019-.092-.207A10.332,10.332,0,0,1,634.036-319.35Z" transform="translate(-1165.032 -358.555)" fill="#682c68"/>
    <path id="Trazado_1006323" data-name="Trazado 1006323" d="M636.966-295.764l.093-1.019-.121-.526c-.162-.986-.266-3.453.335-4.214a12.63,12.63,0,0,0,2.3,8.916,5.9,5.9,0,0,1,.97,1.618A12.5,12.5,0,0,1,636.966-295.764Z" transform="translate(-1168.167 -374.16)" fill="#440f3c"/>
    <path id="Trazado_1006324" data-name="Trazado 1006324" d="M-208.491-315.2l2.476.158a13.462,13.462,0,0,1-.255,3.569l-1.839-.4-.093-.008C-208.593-312.557-208.452-314.378-208.491-315.2Z" transform="translate(-453.041 -362.588)" fill="#091450"/>
    <path id="Trazado_1006325" data-name="Trazado 1006325" d="M-156.959-498.2a21.393,21.393,0,0,0,4.565-.484c-.218,1.37-.288,4.7-1.419,5.562a2.444,2.444,0,0,1-.453.276l-.411-.338a2.273,2.273,0,0,0,.144-.468,7.546,7.546,0,0,1-.3-1.066l.018-.044A10.846,10.846,0,0,0-156.959-498.2Z" transform="translate(-496.637 -207.361)" fill="#091450"/>
    <path id="Trazado_1006326" data-name="Trazado 1006326" d="M407.729,332.831a.8.8,0,0,1-.424.1c-1.118.03-7.385.243-7.848,0a1.942,1.942,0,0,1-.376-.346,13.606,13.606,0,0,1-.053-3.759l4.052.017-.016,3.967Z" transform="translate(-966.909 -907.44)" fill="#f1742c"/>
    <path id="Trazado_1006327" data-name="Trazado 1006327" d="M425.854,328.881l3.636.005a2.814,2.814,0,0,1,1.2.095c.013.979.258,3.089-.187,3.883l-4.665-.016Z" transform="translate(-989.683 -907.472)" fill="#e33d1c"/>
    <path id="Trazado_1006328" data-name="Trazado 1006328" d="M407.867,15.707l.6.128,1.886,27.4a27.48,27.48,0,0,0,1.107-5.677c.787-4.616,1.375-9.463,2.729-13.951l.34.358a58.5,58.5,0,0,0-1.252,5.851l-2.167,11.957,1.973-4.373.357.133-2.307,5.471a4.355,4.355,0,0,1-1.244.029c.353-2.4-.223-5.213-.382-7.637l-.493-9.307Z" transform="translate(-974.48 -642.537)" fill="#364290"/>
    <path id="Trazado_1006329" data-name="Trazado 1006329" d="M443.214,71.836a13.7,13.7,0,0,1,.1-2.063,10.06,10.06,0,0,1,2.339-3.945c3.208-3.734,7.059-6.322,11.205-8.894l-.453,1.475-.156-.59c-.45-.05-1.394.74-1.807,1.015l.156.2a64.608,64.608,0,0,0-5.1,5.5,21.974,21.974,0,0,0-1.694,2.179,3.646,3.646,0,0,1-.592.657c-.333.337.08-.094-.212.366-.251.394-.645.623-.9,1.052-.193.322-.568.6-.8.947Z" transform="translate(-1004.384 -677.415)" fill="#0a7e8b"/>
    <path id="Trazado_1006330" data-name="Trazado 1006330" d="M443.313-45.357a2.276,2.276,0,0,1-.384-.535c-1.033-1.8-.738-4.105-.195-6.012,1.974-6.932,7.4-10.331,13.346-13.66a3.817,3.817,0,0,1-.5,1.039,18.8,18.8,0,0,1-2.125,1.84,32.407,32.407,0,0,0-3.482,3.8,34.264,34.264,0,0,0-4.2,7,25.2,25.2,0,0,0-1.128,2.826C444.328-48.065,444.134-45.994,443.313-45.357Z" transform="translate(-1003.559 -573.782)" fill="#0a7e8b"/>
    <path id="Trazado_1006331" data-name="Trazado 1006331" d="M441.977,76.686l2.094-2.094c.229-.346.6-.625.8-.947.257-.43.652-.658.9-1.052.292-.46-.121-.029.212-.366a3.653,3.653,0,0,0,.592-.657,21.962,21.962,0,0,1,1.694-2.179,64.606,64.606,0,0,1,5.1-5.5l-.156-.2c.413-.275,1.356-1.065,1.807-1.015l.156.59c-1.455,4.971-3.125,9.989-7.957,12.614a10.2,10.2,0,0,1-2.706,1.027c-.657.139-1.887.017-2.4.366l-.357-.133Z" transform="translate(-1003.147 -682.265)" fill="#097180"/>
    <path id="Trazado_1006332" data-name="Trazado 1006332" d="M461.749-69.13a5.354,5.354,0,0,1,1.475-.649,47,47,0,0,0-2.666,5.513c-1.517,3.819-2.708,8.179-5.213,11.486a11.031,11.031,0,0,1-5.195,3.9c-.352.117-.768.143-.871.532l-.34-.358.041-.212c.821-.637,1.015-2.709,1.333-3.7a25.152,25.152,0,0,1,1.128-2.826,34.281,34.281,0,0,1,4.2-7,32.408,32.408,0,0,1,3.482-3.8,18.82,18.82,0,0,0,2.126-1.84A3.811,3.811,0,0,0,461.749-69.13Z" transform="translate(-1009.229 -570.216)" fill="#097180"/>
    <path id="Trazado_1006333" data-name="Trazado 1006333" d="M380.719,193.013a4.356,4.356,0,0,0,1.244-.029l5.44.14a6.472,6.472,0,0,1,2.319.105,26.094,26.094,0,0,1,.141,5.059l-5.563.054-10.765.1a46.771,46.771,0,0,1-.147-5.407l6.474,0,.14-.011L380.4,193Z" transform="translate(-945.307 -792.513)" fill="#f1742c"/>
    <path id="Trazado_1006334" data-name="Trazado 1006334" d="M443.268,199.414c-.366-1.415-.073-3.658-.047-5.163l5.469.05a26.091,26.091,0,0,1,.141,5.059Z" transform="translate(-1004.274 -793.585)" fill="#d04756"/>
    <path id="Trazado_1006335" data-name="Trazado 1006335" d="M-546.7-499.935a5.208,5.208,0,0,1,3.06,1.426,1,1,0,0,1,.216.49,15.66,15.66,0,0,1,.034,2.531l-.013,4.907-.055,12.784a42.071,42.071,0,0,1-.111,5.517,4.426,4.426,0,0,1-1.937,2.643,4.51,4.51,0,0,1-2.029.658,37.306,37.306,0,0,1-4.257.148l-6.975.016-4.51-.026a10.859,10.859,0,0,1-2.427-.19l-.434-.139-.235-.076a6.11,6.11,0,0,1-3.1-2.422c1.69.581,3.807.348,5.58.352l7.712.006,4.061,0a12.27,12.27,0,0,0,2.616-.115,4.32,4.32,0,0,0,2.575-1.885,1.8,1.8,0,0,0,.37-.89c.256-4.132.036-8.424.046-12.576l.018-8.2A23.542,23.542,0,0,0-546.7-499.935Z" transform="translate(-147.647 -206.304)" fill="#73b0bb"/>
    <path id="Trazado_1006336" data-name="Trazado 1006336" d="M361.634-118.528c-1.562-.395-3.45-3.234-4.231-4.569-2.05-3.5-2.442-7.446-2.873-11.389a69.5,69.5,0,0,0-1.312-8.477c5.431,5.031,11.908,11.387,12.254,19.3.08,1.822-.042,3.308-1.337,4.718a3.469,3.469,0,0,1-.709.561,6.069,6.069,0,0,1-1.188-.015Z" transform="translate(-928.247 -508.302)" fill="#13b1ae"/>
    <path id="Trazado_1006337" data-name="Trazado 1006337" d="M1111.13-564.586a11.459,11.459,0,0,1,2.036,2.021l3.243,3.544-.083,29.445-5.21-2.479Z" transform="translate(-1569.429 -151.609)" fill="#73b0bb"/>
    <path id="Trazado_1006338" data-name="Trazado 1006338" d="M306.754,16.13c-.247-1.626-.653-3.194-1-4.8a11.7,11.7,0,0,0-.394-1.995,6.935,6.935,0,0,0-1.687-1.769l-.224.076c-1.794.6-3.248.107-4.895-.725-4.674-2.363-8.024-7.316-11.75-10.9,5.025,1,9.355,2.3,13.4,5.575a16.394,16.394,0,0,1,3.638,3.819c.629.96.747,2.781,1.586,3.537l-3.037-11.2a9.544,9.544,0,0,1-2.021-.342c-3-1.053-5.79-4.319-7.73-6.767-1.733-2.186-3.1-4.66-4.976-6.737,5.183,1.757,12.862,4.133,15.466,9.426a4.169,4.169,0,0,1,.407,3.082,5.417,5.417,0,0,1-.394.854l-.244.5,4.251,18.356Z" transform="translate(-872.059 -615.626)" fill="#13b1ae"/>
    <path id="Trazado_1006339" data-name="Trazado 1006339" d="M377.622,227.779c1.523,1.132,3.207,2.807,3.477,4.8a8.175,8.175,0,0,1-1.658,6.318,9.2,9.2,0,0,1-5.527,3.449,7.283,7.283,0,0,1-5.46-1.7,8.04,8.04,0,0,1-2.856-5.586c-.067-1.216-.276-6.554.165-7.136l1.094-.045Z" transform="translate(-938.628 -821.95)" fill="#fefefe"/>
    <path id="Trazado_1006340" data-name="Trazado 1006340" d="M134.248-168.488c1.056-1.371,2.4-2.526,3.565-3.811a22.249,22.249,0,0,0,3.278-4.856l.185.07a3.383,3.383,0,0,1,1.112,1.606c.371,1.878-1.185,3.754-2.092,5.271a33.465,33.465,0,0,0,3.228-1.171l8.4-4.1a6.833,6.833,0,0,1,2.641-.864,1.327,1.327,0,0,1,1.088.635,3.365,3.365,0,0,1-.752,1.868,6.48,6.48,0,0,1,2.308.229,2.089,2.089,0,0,1,1.115,1.217c.33,1.365-.309,2.132-1.056,3.139l.074.3a2.218,2.218,0,0,1,.134,1.806c-.513,1.179-3.251,2.484-4.327,3.179l-4.436,2.98-8.078,4.559-2.8-3.495-3.54-4.456-.32-.377a10.678,10.678,0,0,1-1.4-1.7A10.451,10.451,0,0,0,134.248-168.488Z" transform="translate(-741.577 -479.376)" fill="#f37873"/>
    <path id="Trazado_1006341" data-name="Trazado 1006341" d="M134.248-120.878a2.465,2.465,0,0,1-.108,1.11,8.946,8.946,0,0,0-.168,2.618,10.677,10.677,0,0,1-1.4-1.7A10.446,10.446,0,0,0,134.248-120.878Z" transform="translate(-741.577 -526.986)" fill="#d04756"/>
    <path id="Trazado_1006342" data-name="Trazado 1006342" d="M143.757-94.223c.76.07,1.713,1.362,2.319,1.9a5.879,5.879,0,0,0,1.38.84,3.121,3.121,0,0,1,.047,1.418l-.206.3Z" transform="translate(-751.043 -549.536)" fill="#f15f65"/>
    <path id="Trazado_1006343" data-name="Trazado 1006343" d="M239.836-125.547c-2.316,1.837-5.118,2.864-7.576,4.464l-1.167.861a3.533,3.533,0,0,0-.433.312l-.2.172a2.763,2.763,0,0,1-.227-.528.831.831,0,0,1-.15-.6.873.873,0,0,1,.438-.415,2.033,2.033,0,0,0,.48-.268c.42-.28.832-.495,1.264-.747l1.053-.6a3.789,3.789,0,0,1,1.428-.588,8.117,8.117,0,0,0,2-.58l.187-.093a8.069,8.069,0,0,0,1.8-.98l1.037-.7Z" transform="translate(-824.07 -522.787)" fill="#fa8574"/>
    <path id="Trazado_1006344" data-name="Trazado 1006344" d="M803.355-540.851a56.033,56.033,0,0,0,.044-6.6l.019-14.379a38.769,38.769,0,0,1,.153-5.955,1.405,1.405,0,0,1,.465-.819.921.921,0,0,1,.456-.282A11.009,11.009,0,0,1,807.6-569l6.738.015,25.412.008,7.164-.018a21.235,21.235,0,0,1,3.1-.049c.459.069.507.282.746.642l-.014,32.532.033,16.855-21.461-.129-4.981-1.473c-2.069-.6-4.193-1.083-5.894-2.475l22.12-.092c1.119,0,6.537.24,7.244-.1l-.1-42.3-41.175.1.013,25.017A21.329,21.329,0,0,0,803.355-540.851Z" transform="translate(-1309.063 -147.79)" fill="url(#linear-gradient)"/>
    <path id="Trazado_1006345" data-name="Trazado 1006345" d="M-349.385-613.859l.04-.151a7.658,7.658,0,0,0-.171-1.849,6.142,6.142,0,0,1,1.778-5.4,6.033,6.033,0,0,1,4.811-1.024l3.059.555c.525-2.574.979-5.085,3.35-6.611a7.27,7.27,0,0,1,5.693-.673,6.623,6.623,0,0,1,4.227,3.046,13.9,13.9,0,0,1,.925,2.15c1.574-1.463,3.024-3.013,5.352-2.952a5.91,5.91,0,0,1,4.255,1.832,3.889,3.889,0,0,1,1.11,3.334,3.048,3.048,0,0,1-.273.992l-.369.855c1.713.366,3.32.77,4.363,2.312a4.631,4.631,0,0,1,.465,3.482,5.168,5.168,0,0,1-2.442,2.85,13.328,13.328,0,0,1-2.916,1.286c-.323.105-1.651.423-1.772.647a21.39,21.39,0,0,1-4.565.485,33.648,33.648,0,0,0-5.157-.346,5.778,5.778,0,0,1-.862,1.054,5.355,5.355,0,0,0-.834-.457,2.077,2.077,0,0,1-.886-.581,12.361,12.361,0,0,1-4.227-.617c-2.083-.767-3.608-2.182-5.931-2.08l-.231-.121a5.946,5.946,0,0,0-1.108,1.6,9.908,9.908,0,0,1-4.779,3.9,4.92,4.92,0,0,1-4.123-.18,3.751,3.751,0,0,1-1.922-2.212c-.371-1.581.862-3.225,2.029-4.135.329-.257.877-.494,1.067-.857Z" transform="translate(-331.13 -96.865)" fill="#364290"/>
    <path id="Trazado_1006346" data-name="Trazado 1006346" d="M-235.74-610.7l.4-.033a1.35,1.35,0,0,1,.308.7l-.363.163a3.484,3.484,0,0,1-.833-.082l-.012-.3Z" transform="translate(-429.568 -112.572)" fill="#095578"/>
    <path id="Trazado_1006347" data-name="Trazado 1006347" d="M-218.138-591.966c.368.017.391.166.64.42a.894.894,0,0,1-.15.88l-.391-.1a1.324,1.324,0,0,1-.423-.825Z" transform="translate(-444.605 -128.446)" fill="#095578"/>
    <path id="Trazado_1006348" data-name="Trazado 1006348" d="M-189.863-524.747l.36-.027c.284.336.222.5.235.929l-.369.313a.983.983,0,0,1-.691-.313C-190.288-524.413-190.294-524.369-189.863-524.747Z" transform="translate(-468.407 -185.29)" fill="#097180"/>
    <path id="Trazado_1006349" data-name="Trazado 1006349" d="M-201.354-527.527l.276.042.13.258a2.072,2.072,0,0,1-.588,1.2,1.015,1.015,0,0,1-.436-.086l-.043-.366A2.5,2.5,0,0,1-201.354-527.527Z" transform="translate(-458.521 -182.961)" fill="#095578"/>
    <path id="Trazado_1006350" data-name="Trazado 1006350" d="M-111.635-554.068l.4-.033.372.333a1.517,1.517,0,0,1-.508.976l-.451.143-.212-.291A1.729,1.729,0,0,1-111.635-554.068Z" transform="translate(-534.641 -160.479)" fill="#095578"/>
    <path id="Trazado_1006351" data-name="Trazado 1006351" d="M-212.767-567.955l.487-.072a2.005,2.005,0,0,1,.338.262c.209.253.141.487.111.782l-.375.155a1.337,1.337,0,0,1-.889-.374A1.012,1.012,0,0,1-212.767-567.955Z" transform="translate(-449.147 -148.698)" fill="#097180"/>
    <path id="Trazado_1006352" data-name="Trazado 1006352" d="M-131.9-593.919c.287.036.419.241.632.428l.016.474-.488.385c-.5-.047-.487-.015-.815-.385A1.564,1.564,0,0,1-131.9-593.919Z" transform="translate(-517.285 -126.793)" fill="#095578"/>
    <path id="Trazado_1006353" data-name="Trazado 1006353" d="M-163.619-543.148a1.9,1.9,0,0,1,.569.138,1.03,1.03,0,0,1,.373.84l-.373.308-.437-.027c-.413-.38-.494-.378-.569-.957Z" transform="translate(-490.633 -169.746)" fill="#097180"/>
    <path id="Trazado_1006354" data-name="Trazado 1006354" d="M-310.647-568.534l.216.028-.28.874c-.231.514-.484.536-.975.689l-.323-.11-.014-.428A4.577,4.577,0,0,1-310.647-568.534Z" transform="translate(-365.454 -148.269)" fill="#097180"/>
    <path id="Trazado_1006355" data-name="Trazado 1006355" d="M-233.973-546.442l.053-.011c.416-.057.564-.13.9.125a1.3,1.3,0,0,1-.183,1.017,5.453,5.453,0,0,1-.526.159l-.376-.336C-234.2-546-234.246-546.005-233.973-546.442Z" transform="translate(-431.31 -166.903)" fill="#097180"/>
    <path id="Trazado_1006356" data-name="Trazado 1006356" d="M-207.212-497.767l2.582-.016a5.782,5.782,0,0,1-.862,1.054,5.345,5.345,0,0,0-.834-.457A2.076,2.076,0,0,1-207.212-497.767Z" transform="translate(-454.123 -208.124)" fill="#f15f65"/>
    <path id="Trazado_1006357" data-name="Trazado 1006357" d="M-150.84-522.937c.337-.073.166-.083.512.052a1.491,1.491,0,0,1,.247,1.076l-.357.28a1.14,1.14,0,0,1-.793-.147,1.866,1.866,0,0,1-.048-.434A1.36,1.36,0,0,1-150.84-522.937Z" transform="translate(-501.441 -186.8)" fill="#097180"/>
    <path id="Trazado_1006358" data-name="Trazado 1006358" d="M-172.885-528.5l.3.034c.353.372.324.352.324.868l-.553.505-.526.045c-.294-.267-.236-.261-.3-.625A1.686,1.686,0,0,1-172.885-528.5Z" transform="translate(-482.522 -182.135)" fill="#097180"/>
    <path id="Trazado_1006359" data-name="Trazado 1006359" d="M-323.365-513.573l.333-.126c.318.213.294.2.376.577a7.74,7.74,0,0,1-1.437.789l-.677.029-.141-.217Z" transform="translate(-354.551 -194.66)" fill="#095578"/>
    <path id="Trazado_1006360" data-name="Trazado 1006360" d="M-287.344-563.338l.488-.121c.307.207.387.24.538.572l-.838.816-.6.182c-.365-.18-.289-.191-.424-.547C-288.017-562.947-287.77-563.027-287.344-563.338Z" transform="translate(-385.622 -152.563)" fill="#095578"/>
    <path id="Trazado_1006361" data-name="Trazado 1006361" d="M-251.879-599.39a1.59,1.59,0,0,1,.639-.107l.375.408c-.094.556-.309.7-.676,1.121l-.31.149c-.368-.128-.41-.291-.63-.593C-252.428-598.9-252.2-599.033-251.879-599.39Z" transform="translate(-415.825 -122.074)" fill="#095578"/>
    <path id="Trazado_1006362" data-name="Trazado 1006362" d="M-224.279-527.527l.548.042.153.258a4.942,4.942,0,0,1-.22,1.512l-.615-.009c-.374-.567-.917-.758-.976-1.5A2.478,2.478,0,0,1-224.279-527.527Z" transform="translate(-438.745 -182.961)" fill="#095578"/>
    <path id="Trazado_1006363" data-name="Trazado 1006363" d="M-244.409-582.643l.448-.08.442.381.008.376.153.148.3.3c.2.15.181.138.291.376l-.175.367a3.182,3.182,0,0,1-1.449.074l-.317-.592h-.454l.115.594-.3.319a1.191,1.191,0,0,1-1.016-.538l.111-.3a.9.9,0,0,0,.416-.355,6.467,6.467,0,0,1,.523-.772h.451l.263.15Z" transform="translate(-421 -136.265)" fill="#2d3182"/>
    <path id="Trazado_1006364" data-name="Trazado 1006364" d="M134.708-567.211l.088.184a9.356,9.356,0,0,0,1.522,1.792l3.565,3.8a7.148,7.148,0,0,1,1.045,1.173,13.881,13.881,0,0,1,0,2.91l-.04,10.391-.067,35.523-60.6.211L66.7-511.3l-3.412-.057a11.179,11.179,0,0,1-1.81-.066c-1.129-.229-2.719-1.627-3.748-2.221a30.425,30.425,0,0,1-3.785-2.119c2.971-.238,6.028-.124,9.008-.118l16.253.095,45.424-.045,6.957-.007a8.333,8.333,0,0,0,2.411-.108,3.827,3.827,0,0,0,.6-.574,6.53,6.53,0,0,0,.191-2.524l-.057-4.456-.055-11.208Z" transform="translate(-675.062 -149.388)" fill="#73b0bb"/>
    <path id="Trazado_1006365" data-name="Trazado 1006365" d="M-580.263-482.515c-.365-.415-.841-.717-1.189-1.15a3.437,3.437,0,0,1-.7-1.662,34.092,34.092,0,0,1-.012-3.985l.006-7.159-.007-8.829a30.381,30.381,0,0,1,.03-4.093,4.154,4.154,0,0,1,1.7-2.721,3.428,3.428,0,0,1,1.664-.577c1.373-.121,2.826-.031,4.208-.034l8.153,0,4.541,0a9.622,9.622,0,0,1,2.2.074,3.283,3.283,0,0,1,2.183,1.871,23.561,23.561,0,0,1,.2,4.955l-.018,8.2c-.01,4.152.21,8.444-.046,12.576a1.8,1.8,0,0,1-.37.89,4.321,4.321,0,0,1-2.575,1.885,12.276,12.276,0,0,1-2.616.115l-4.061,0-7.712-.006C-576.456-482.167-578.573-481.934-580.263-482.515Z" transform="translate(-136.861 -195.458)" fill="#2d3182"/>
    <path id="Trazado_1006366" data-name="Trazado 1006366" d="M-575.982-511.879a111.159,111.159,0,0,1,11.146.029,62.485,62.485,0,0,1,6.642.091,2.358,2.358,0,0,1,1.007.4,2.7,2.7,0,0,1,1.054,1.88,22.889,22.889,0,0,1,.038,3.21l.011,5.751,0,10.109c0,1.7.116,3.485-.057,5.169a3.159,3.159,0,0,1-.627,1.739,3.729,3.729,0,0,1-2.715,1.172l-12.088.014a36.781,36.781,0,0,1-5.51-.062,3.071,3.071,0,0,1-1.473-.66,3.459,3.459,0,0,1-1.292-2.464c-.138-1.54-.064-3.163-.072-4.711l-.032-8.6-.012-6.7a29.6,29.6,0,0,1,.026-3.31,3.286,3.286,0,0,1,.882-1.835A3.877,3.877,0,0,1-575.982-511.879Z" transform="translate(-138.746 -196.075)" fill="#6f8fcb"/>
    <path id="Trazado_1006367" data-name="Trazado 1006367" d="M-544.632-461.134c.737.382,4.177,10.479,4.692,11.981a4.69,4.69,0,0,1,1.2-1.248l.269.092.053.3-1.7,1.9-4.688-12.051-2.485,6.637-.687,2.072a22.4,22.4,0,0,1-1.225-3.935c-.938,1.377-2.018,2.666-3.067,3.959-.4.5-.853,1.261-1.5,1.4l-.3-.261a10.2,10.2,0,0,1-.2-2.128l.28-.218a3.875,3.875,0,0,1,.658,1.7l2.575-3.51c.428-.62,1.105-2.066,1.729-2.39.642.713.747,3.054.995,4.078C-547.7-454.719-546.207-459.975-544.632-461.134Z" transform="translate(-160.503 -239.13)" fill="#fefefe"/>
    <path id="Trazado_1006368" data-name="Trazado 1006368" d="M-366.363-500.825a6.28,6.28,0,0,1-4.127-2.96,5.656,5.656,0,0,1-.118-3.589.953.953,0,0,0,.1-.677,10.962,10.962,0,0,1-3.72-2.907,5.778,5.778,0,0,1-1.494-4.454,4.168,4.168,0,0,1,1.913-2.825,6.808,6.808,0,0,1-2.963-4.237l-.042-.236a8.583,8.583,0,0,1-.073-2.749,6.622,6.622,0,0,1,2.335-4.4,5.523,5.523,0,0,1,4.55-.528l-.046.131c-.19.363-.738.6-1.067.857-1.167.91-2.4,2.553-2.029,4.135a3.751,3.751,0,0,0,1.922,2.212,4.92,4.92,0,0,0,4.123.18,9.907,9.907,0,0,0,4.779-3.9,5.937,5.937,0,0,1,1.108-1.6l.231.121c2.324-.1,3.848,1.313,5.931,2.08a12.361,12.361,0,0,0,4.227.617,2.078,2.078,0,0,0,.886.581,5.36,5.36,0,0,1,.834.457,5.779,5.779,0,0,0,.862-1.054,33.631,33.631,0,0,1,5.157.346,10.849,10.849,0,0,1,2.143,3.436l-.018.045a7.539,7.539,0,0,0,.3,1.066,2.283,2.283,0,0,1-.144.468l.411.338c.313,2.4.191,4.738.976,7.084a19.92,19.92,0,0,1,1.066,4.191c.221,3.069-.19,5.675-2.283,8.1-1.967,2.276-4.856,3.054-7.746,3.2l-.166.006-2.476-.158c.039.824-.1,2.645.289,3.316l.093.008.312,3.3c.283.235.132.156.442.26l-.126.038a5.623,5.623,0,0,1-2.634,3.913,13.065,13.065,0,0,1-9.284,1.3l-.263-.068a13.137,13.137,0,0,1-5.233-2.605l-1.152-1.63a50.413,50.413,0,0,1,1.353-5.71A39.35,39.35,0,0,1-366.363-500.825Z" transform="translate(-310.507 -180.335)" fill="#f37873"/>
    <path id="Trazado_1006369" data-name="Trazado 1006369" d="M-164.655-475.089c.73-.317,1.825-.852,2.626-.508l.49.316a7.543,7.543,0,0,0,.3,1.066,2.282,2.282,0,0,1-.144.468l-.1-.037c-1.157-.46-2.332-.111-3.379-.519C-164.929-474.7-164.833-474.742-164.655-475.089Z" transform="translate(-489.933 -226.799)" fill="#091450"/>
    <path id="Trazado_1006370" data-name="Trazado 1006370" d="M-180.329-420.127c.614.058,1.69,1.4,2.175,1.88l.078.3a1.218,1.218,0,0,1,.15.752,1.482,1.482,0,0,1-.9.675c-.877-.108-1.522-1.481-2.1-2.179l.146-.207.6.079.288-.247-.134-.376A3.371,3.371,0,0,1-180.329-420.127Z" transform="translate(-476.36 -273.821)" fill="#f15f65"/>
    <path id="Trazado_1006371" data-name="Trazado 1006371" d="M-243.729-473.233a1.854,1.854,0,0,1,1.531.347,1.222,1.222,0,0,1,.31.977c-.09.1-.147.247-.269.31a4.52,4.52,0,0,1-.583-.032,13.568,13.568,0,0,0-2.191.025l-.19.023-2.311.636A6.624,6.624,0,0,1-243.729-473.233Z" transform="translate(-420.097 -228.881)" fill="#091450"/>
    <path id="Trazado_1006372" data-name="Trazado 1006372" d="M-328.081-426.346a2.675,2.675,0,0,0-.9.571,1.076,1.076,0,0,1,.226-.847,1.463,1.463,0,0,1,1.2-.6,2.216,2.216,0,0,1,1.808.876,7.368,7.368,0,0,1,1.4,3.75l-.127.161a2.244,2.244,0,0,1-.643-.336C-326.289-423.35-327.262-425.3-328.081-426.346Z" transform="translate(-351.085 -267.819)" fill="#091450"/>
    <path id="Trazado_1006373" data-name="Trazado 1006373" d="M-323-422.269a1.419,1.419,0,0,1,1.067-.056c.966.75,1.442,2.508,1.9,3.632C-321.208-419.272-322.181-421.225-323-422.269Z" transform="translate(-356.166 -271.896)" fill="#a72343"/>
    <path id="Trazado_1006374" data-name="Trazado 1006374" d="M-231.232-449.045l.588-.11a1.35,1.35,0,0,1,.445.26,3.487,3.487,0,0,1,.828,2.523,2.158,2.158,0,0,1-.828,1.687,1.333,1.333,0,0,1-.37.088,1.342,1.342,0,0,1-1.033-.539,3.278,3.278,0,0,1-.381-2.359l.042-.2A2.361,2.361,0,0,1-231.232-449.045Z" transform="translate(-433.113 -249.264)" fill="#091450"/>
    <path id="Trazado_1006375" data-name="Trazado 1006375" d="M-157.494-451.6a3.222,3.222,0,0,1,.7-.042,2.661,2.661,0,0,1,.475.466,4.045,4.045,0,0,1,.461,3.185,1.519,1.519,0,0,1-.856.9,1.47,1.47,0,0,1-.385.06,1.268,1.268,0,0,1-.9-.5,3.134,3.134,0,0,1-.437-1.888A2.919,2.919,0,0,1-157.494-451.6Z" transform="translate(-495.39 -247.156)" fill="#091450"/>
    <path id="Trazado_1006376" data-name="Trazado 1006376" d="M-252.479-411.068a3.645,3.645,0,0,1,.3,1.857l-.315.132a3.311,3.311,0,0,1-2.706-.16,2.544,2.544,0,0,1-1.339-1.536,1.137,1.137,0,0,1,.09-1,3.541,3.541,0,0,1,1.83-.958,1.632,1.632,0,0,1,1.457.276A2.156,2.156,0,0,1-252.479-411.068Z" transform="translate(-412.334 -280.025)" fill="#f15f65"/>
    <path id="Trazado_1006377" data-name="Trazado 1006377" d="M-240.593-410.629a2.157,2.157,0,0,1,.679,1.392l-.7.486a1.26,1.26,0,0,1-.952-.125c-.182-.435-.279-.57-.083-1.036C-241.474-410.324-240.974-410.474-240.593-410.629Z" transform="translate(-424.9 -281.857)" fill="#d04756"/>
    <path id="Trazado_1006378" data-name="Trazado 1006378" d="M-150.963-410.592l-.612.35a2.84,2.84,0,0,1-2.1.475,3.7,3.7,0,0,1-1.793-1.768,5.973,5.973,0,0,1,2.09-2.291,6.888,6.888,0,0,0,1.184-.82l.165-.138A19.9,19.9,0,0,1-150.963-410.592Z" transform="translate(-497.898 -278.342)" fill="#f15f65"/>
    <path id="Trazado_1006379" data-name="Trazado 1006379" d="M-195.182-497.783a33.627,33.627,0,0,1,5.157.346A10.85,10.85,0,0,1-187.882-494l-.018.045-.49-.316c-.8-.343-1.9.191-2.626.509l.242-.856c-.509-.646-4.154-1.388-5.27-2.109A5.783,5.783,0,0,0-195.182-497.783Z" transform="translate(-463.571 -208.124)" fill="#d04756"/>
    <path id="Trazado_1006380" data-name="Trazado 1006380" d="M-222.869-382.237c3.1.938,5.962,1.422,9.106.345l-.96,2.551a4.131,4.131,0,0,1-1.241,1.113,4.234,4.234,0,0,1-3.078.02C-221.133-378.852-221.912-380.452-222.869-382.237Z" transform="translate(-440.877 -305.876)" fill="#fefefe"/>
    <path id="Trazado_1006381" data-name="Trazado 1006381" d="M-283.747-349.532a1.154,1.154,0,0,1-.184.718l-.587.033a13.94,13.94,0,0,1-9.971-3.681,9.709,9.709,0,0,1-3.14-4.784,13.708,13.708,0,0,1-.158-2.455c.618.409,1.2,1.6,1.752,2.191,2.982,3.178,7.758,4.561,12,4.661C-284-352.024-284.138-350.2-283.747-349.532Z" transform="translate(-377.497 -324.942)" fill="#a72343"/>
    <path id="Trazado_1006382" data-name="Trazado 1006382" d="M-366.363-500.825a6.28,6.28,0,0,1-4.127-2.96,5.656,5.656,0,0,1-.118-3.589.953.953,0,0,0,.1-.677,10.962,10.962,0,0,1-3.72-2.907,5.778,5.778,0,0,1-1.494-4.454,4.168,4.168,0,0,1,1.913-2.825,6.808,6.808,0,0,1-2.963-4.237l-.042-.236a8.583,8.583,0,0,1-.073-2.749,6.622,6.622,0,0,1,2.335-4.4,5.523,5.523,0,0,1,4.55-.528l-.046.131c-.19.363-.738.6-1.067.857-1.167.91-2.4,2.553-2.029,4.135a3.751,3.751,0,0,0,1.922,2.212,4.92,4.92,0,0,0,4.123.18,9.907,9.907,0,0,0,4.779-3.9,5.937,5.937,0,0,1,1.108-1.6l.231.121.035.132c.648,2.376,1.907,3.979.538,6.466a13.227,13.227,0,0,1-1.844,2.38,3.635,3.635,0,0,0-.859,1.109c-.361,1.219.15,2.722-.215,3.933a.831.831,0,0,1-.487.619c-.736-1.054-1.419-2.805-2.814-3.085a3.594,3.594,0,0,0-2.671.407,3.01,3.01,0,0,0-1.174,2.228,6.4,6.4,0,0,0,1.145,4.665,6.017,6.017,0,0,0,4.042,1.831Z" transform="translate(-310.507 -180.335)" fill="#091450"/>
    <path id="Trazado_1006383" data-name="Trazado 1006383" d="M-37.285,177.431l9.612.151,6.373-29.446,38.29.083c-.363,2.32-1.03,4.629-1.543,6.923l-3.273,14.37-1.449,6.662A24,24,0,0,1,10,179.482L-37,179.641Z" transform="translate(-597.881 -754.572)" fill="#091450"/>
    <path id="Trazado_1006384" data-name="Trazado 1006384" d="M147.082,227.78a3.909,3.909,0,0,1,1.744.238,3.552,3.552,0,0,1,1.709,1.974,3.13,3.13,0,0,1-.093,2.218,3.516,3.516,0,0,1-2.156,1.918,6.2,6.2,0,0,1-1.734-.132,3.127,3.127,0,0,1-1.857-1.687,3.4,3.4,0,0,1,.012-2.483A3.863,3.863,0,0,1,147.082,227.78Z" transform="translate(-751.643 -821.943)" fill="#a1addf"/>
    <path id="Trazado_1006385" data-name="Trazado 1006385" d="M824.035-521.13l-.013-25.017,41.175-.1.1,42.3c-.707.339-6.124.1-7.244.1l-22.12.092a1.184,1.184,0,0,1-.305-.154c-1.1-.8-.936-3.669-1.107-4.948l-.557-3.116-.333-.926-.293-.087a36.449,36.449,0,0,1-2.4-4.115c-.36-.189-.325-.23-.465-.62l.119-.193.78-.079a2.054,2.054,0,0,0-.932.025c-.275.087-.163.127-.367-.025-.575-.428-1.063-.948-1.661-1.353A12.744,12.744,0,0,0,824.035-521.13Z" transform="translate(-1326.547 -167.12)" fill="#fefefe"/>
    <path id="Trazado_1006386" data-name="Trazado 1006386" d="M886.421-329.746l26.279.028c.271.343.192.413.15.855a4.662,4.662,0,0,1-1.8.108l-4.75-.023-19.545-.041Z" transform="translate(-1379.337 -350.284)" fill="#091450"/>
    <path id="Trazado_1006387" data-name="Trazado 1006387" d="M866.8-363.109l22.951-.028,4.362.01a5.882,5.882,0,0,1,1.3.013c.1.039.15.144.226.217l-.034.531c-.684.385-26.072.149-29.241.149-.36-.189-.325-.23-.465-.62l.119-.193Z" transform="translate(-1361.974 -322.015)" fill="#091450"/>
    <path id="Trazado_1006388" data-name="Trazado 1006388" d="M856.837-461.06c2.614-.252,30.343-.2,30.881.068a1.259,1.259,0,0,1-.124.834l-30.775-.067C856.622-460.566,856.744-460.7,856.837-461.06Z" transform="translate(-1354.204 -239.053)" fill="#091450"/>
    <path id="Trazado_1006389" data-name="Trazado 1006389" d="M856.485-429.5a15.02,15.02,0,0,1,2.915-.069l6.063,0,15.463.017,4.431,0a8.465,8.465,0,0,1,2.16.105c.145.377.085.444-.023.841a21.661,21.661,0,0,1-3.2.047l-6.93,0-20.841-.05C856.3-428.989,856.389-429.071,856.485-429.5Z" transform="translate(-1353.925 -265.802)" fill="#091450"/>
    <path id="Trazado_1006390" data-name="Trazado 1006390" d="M855.995-396.578c1.011-.243,30.584-.185,31.113.049a1.205,1.205,0,0,1-.03.853l-.117.025a15.286,15.286,0,0,1-2.317.032l-4.718,0-17.418-.026c-1,0-6.064.226-6.642-.185Z" transform="translate(-1353.487 -293.612)" fill="url(#linear-gradient-2)"/>
    <path id="Trazado_1006391" data-name="Trazado 1006391" d="M862.645-526.1a4.559,4.559,0,0,1,1.9.223,3.714,3.714,0,0,1,1.974,2.1,2.637,2.637,0,0,1-.047,2.13,4.362,4.362,0,0,1-2.559,2.241,7.256,7.256,0,0,1-1.809-.185,3.046,3.046,0,0,1-1.915-1.694,3.063,3.063,0,0,1-.15-2.488A4.55,4.55,0,0,1,862.645-526.1Z" transform="translate(-1356.845 -184.158)" fill="#f15f65"/>
    <path id="Trazado_1006392" data-name="Trazado 1006392" d="M951.964-515.81l.091.054c.377.349.213,2.411.217,3.01l-16.249,0-.309-.189-.042-2.8Z" transform="translate(-1421.004 -192.874)" fill="#a1addf"/>
    <path id="Trazado_1006393" data-name="Trazado 1006393" d="M-206.007-293.615l1.839.4c3.57,1.971,7.05,3.583,10.317,6.084,6.957,5.328,10.855,12.863,14.184,20.756l3.476,8.23,2.915,7.606c2.014-1.423,18.8-14.48,19.41-14.455a10.677,10.677,0,0,0,1.4,1.7l.32.377,3.54,4.456,2.8,3.495,2.977,3.686-11.487,10.455c-.144.871-1.846,2.5-2.489,3.275-2.922,3.517-5.809,7-9.009,10.268a38.849,38.849,0,0,1-5.035,4.6,12.965,12.965,0,0,1-3.792,1.96l-.251.075a11.876,11.876,0,0,1-8.321-1.16l-1.469-8.644a36.477,36.477,0,0,0-.788-4.262l1.752-13.3a27.854,27.854,0,0,1,.263-2.849l.661-6.084H-187.3l-1.551-.016-9.411,0a37.118,37.118,0,0,1-5.035-.091l.811-30.82c-.779-.723-2.478-1.174-2.892-2.157l.126-.038c-.31-.1-.159-.025-.442-.26Z" transform="translate(-455.142 -380.851)" fill="#fefefe"/>
    <path id="Trazado_1006394" data-name="Trazado 1006394" d="M-201.932-270.482l.126-.038a13.548,13.548,0,0,1,3.494,1.589,3.26,3.26,0,0,0-.693-.038c.069.418.239.5.574.742l.156.109-.031.247-.735-.455C-199.819-269.048-201.518-269.5-201.932-270.482Z" transform="translate(-458.59 -400.389)" fill="#2d3182"/>
    <path id="Trazado_1006395" data-name="Trazado 1006395" d="M-94.617-136.45l.085-14.732,1.467,14.748Z" transform="translate(-549.378 -501.349)" fill="#6f8fcb"/>
    <path id="Trazado_1006396" data-name="Trazado 1006396" d="M-182.221-259.4l.031-.247-.156-.109c-.335-.244-.506-.324-.574-.742a3.26,3.26,0,0,1,.693.038c3.64,2.128,6.322,4.841,7.6,8.943a9.65,9.65,0,0,1,.148,4.076c-.608,3.763-2.371,7.389-3.68,10.936-.127.344-.231.33-.019.634l1.337.071c.232.36.143.413.091.821-.547.367-2.291.124-2.958.031.857-3.207,2.334-6.307,3.363-9.483a14.8,14.8,0,0,0,1.01-4.919,10.457,10.457,0,0,0-1.482-4.747A16.767,16.767,0,0,0-182.221-259.4Z" transform="translate(-474.674 -408.862)" fill="#091450"/>
    <path id="Trazado_1006397" data-name="Trazado 1006397" d="M-70.85,2.587c1.585,5.2,2.594,10.52,4.574,15.626.493,1.27,1.322,3.5,2.549,4.168,1.043.566,2.47.137,3.525-.223a32.424,32.424,0,0,0,7.359-4.1l11.4-8.289c-.144.871-1.846,2.5-2.489,3.275-2.922,3.516-5.809,7-9.009,10.268a38.848,38.848,0,0,1-5.035,4.6,12.965,12.965,0,0,1-3.792,1.96l-.251.075a11.876,11.876,0,0,1-8.321-1.16l-1.469-8.644a36.476,36.476,0,0,0-.788-4.262Z" transform="translate(-568.003 -631.438)" fill="#7f77b0"/>
    <path id="Trazado_1006398" data-name="Trazado 1006398" d="M630.568-385.662a21.349,21.349,0,0,1,3.2.391,12.754,12.754,0,0,1,4.375,1.773c.6.405,1.085.926,1.661,1.353.205.152.092.113.367.025a2.051,2.051,0,0,1,.932-.025l-.78.079-.119.193c.139.39.1.431.465.62a36.447,36.447,0,0,0,2.4,4.115l.293.087.333.926.557,3.116c.17,1.278.011,4.144,1.107,4.948a1.187,1.187,0,0,0,.305.154c1.7,1.392,3.825,1.874,5.894,2.475l4.981,1.473c2.864,1.471,5.659,3.457,6.757,6.654l.038.126a14.19,14.19,0,0,1,.456,5.5l-.463,1.976a12.824,12.824,0,0,1-6.533,7.379c-3.152,1.7-6.891,2.41-10.4,2.938a18.051,18.051,0,0,1-3.592.367l-6.7.4-2.389-9.309a10.185,10.185,0,0,0-1.486,1.95,9.779,9.779,0,0,1-7.217,3.679,20.057,20.057,0,0,1-.06,3.762l-.037.065-10.8-.7a13.18,13.18,0,0,1-2.672-.373,19.877,19.877,0,0,1-9.36-4.41,8.018,8.018,0,0,1-2.951-5.646c-.151-4.559,3.5-8.583,7.011-11a15.545,15.545,0,0,0,2.431-1.43l.085-.143a5.9,5.9,0,0,0-.97-1.618,12.63,12.63,0,0,1-2.3-8.916l.081-.04a15.488,15.488,0,0,0,.8-2.8,6.767,6.767,0,0,0-.982.619,19.45,19.45,0,0,1,1.645-2.964,14.986,14.986,0,0,1,12.785-7.031,13.406,13.406,0,0,1,2.514.34,6.253,6.253,0,0,0,1.213.27,7.166,7.166,0,0,0,1.276-.383l2.6-.667A17.67,17.67,0,0,1,630.568-385.662Z" transform="translate(-1136.276 -302.979)" fill="#81577d"/>
    <path id="Trazado_1006399" data-name="Trazado 1006399" d="M993.932-207.251a12.626,12.626,0,0,1,2.479,4.27l.076.229a10.042,10.042,0,0,0,.577,2l-.462,1.976a3.88,3.88,0,0,1-.328-1.724,10.381,10.381,0,0,0-.4-1.821,14.054,14.054,0,0,0-2.814-4.944A3.6,3.6,0,0,0,993.932-207.251Z" transform="translate(-1469.552 -453.904)" fill="#440f3c"/>
    <path id="Trazado_1006400" data-name="Trazado 1006400" d="M749.8-308.823l.279.022a29.814,29.814,0,0,0,5.166,4.1,45.84,45.84,0,0,0,4.852,2.481c1.523.7,4.84,1.875,5.648,3.316l-.292.061a21.642,21.642,0,0,1-3.384-1.569C757.4-302.623,753.147-304.724,749.8-308.823Z" transform="translate(-1263.753 -367.985)" fill="#440f3c"/>
    <path id="Trazado_1006401" data-name="Trazado 1006401" d="M844.693-333.565a18.021,18.021,0,0,1,1.689,3.939,17.269,17.269,0,0,0,5.135,7.546c.884.729,1.885,1.31,2.8,2a10.552,10.552,0,0,1-4.406-2.343,21.282,21.282,0,0,1-5.259-8,17.673,17.673,0,0,1-.672-2.4c.644,1.18,1.107,2.438,1.721,3.633a3.158,3.158,0,0,0,.646,1.015,2.591,2.591,0,0,0-.36-1,19.93,19.93,0,0,1-.8-2.157A20.932,20.932,0,0,1,844.693-333.565Z" transform="translate(-1343.431 -347.053)" fill="#440f3c"/>
    <path id="Trazado_1006402" data-name="Trazado 1006402" d="M812.357-321.5c-4.065-3.8-9.3-3.646-14.336-5.207a33.222,33.222,0,0,1-13.449-8.734,26.25,26.25,0,0,1-5.109-6.853c1.215,1.259,2.248,2.691,3.445,3.968a46.906,46.906,0,0,0,12.466,9.754,22.93,22.93,0,0,0,3.837,1.68c5.066,1.521,10.022,1.374,14.018,5.405A3.6,3.6,0,0,1,812.357-321.5Z" transform="translate(-1288.85 -339.67)" fill="#440f3c"/>
    <path id="Trazado_1006403" data-name="Trazado 1006403" d="M860.081-231.821l.266-.211c4.863,1.159,11.659,2.45,14.464,7.119a8.078,8.078,0,0,1,.972,2.782l.039.208a10.135,10.135,0,0,1-2.054,7.588,6.466,6.466,0,0,1-2.726,2.4c2.042-2.122,3.683-4.806,3.623-7.862a8.687,8.687,0,0,0-3.06-6.283c-2.974-2.706-7.419-4.162-11.173-5.364l-.275-.106Z" transform="translate(-1357.053 -432.95)" fill="#440f3c"/>
    <path id="Trazado_1006404" data-name="Trazado 1006404" d="M666.531-326.269a4.356,4.356,0,0,1-.176-3.037l.078-.275,1.135-3.106c1.2-2.646,3.092-5.567,5.942-6.627l.25.121-.122.418.073.174c.35.895.045,2.158.341,3.165,1.11,3.784,4.563,4.732,7.328,6.94l.176.1c.689.37,1.814.5,2.091,1.264a5.482,5.482,0,0,1,1.592.727c1.367.681,2.79,1.279,4.109,2.052a7.654,7.654,0,0,1-3.632.206,16.345,16.345,0,0,0-5.082-.766c-1.513.031-2.78.935-4.054,1.665a8.96,8.96,0,0,1-1.025.589c-.089-.006-.151-.094-.227-.14-1.529-.935-4.442-2.195-6.253-1.824a5.3,5.3,0,0,0-1.007.381l-.6.253-.181-.284C666.728-324.7,666.68-325.6,666.531-326.269Z" transform="translate(-1192.998 -342.19)" fill="#faa78d"/>
    <path id="Trazado_1006405" data-name="Trazado 1006405" d="M668.559-255.949l.908-.244a11.357,11.357,0,0,1-.15,2.239C668.756-254.383,668.708-255.281,668.559-255.949Z" transform="translate(-1195.026 -412.51)" fill="#682c68"/>
    <path id="Trazado_1006406" data-name="Trazado 1006406" d="M748.823-269.383l-.588.326a18.116,18.116,0,0,0-2.706-.667,7.142,7.142,0,0,1-2.149-.4c-.187-.117-.147-.378-.176-.58l.219-.281a8.156,8.156,0,0,1,3.133.24l.176.1C747.422-270.277,748.547-270.15,748.823-269.383Z" transform="translate(-1258.175 -399.941)" fill="#440f3c"/>
    <path id="Trazado_1006407" data-name="Trazado 1006407" d="M666.531-326.269a4.356,4.356,0,0,1-.176-3.037l.078-.275,1.135-3.106c1.2-2.646,3.092-5.567,5.942-6.627l.25.121-.122.418a20.893,20.893,0,0,0-3.135,3.62,24.685,24.685,0,0,0-2.717,6.868l1.61-.309a5.086,5.086,0,0,1,2.966.162,1.143,1.143,0,0,1,.02.788c-.666.525-2.989.408-3.909.474a5.125,5.125,0,0,0-.806.072c-.08.035-.217.544-.228.587Z" transform="translate(-1192.998 -342.19)" fill="#440f3c"/>
    <path id="Trazado_1006408" data-name="Trazado 1006408" d="M823.728-193.986a12.727,12.727,0,0,0,1.811-.134l.281.118c4.269,1.749,10.972,1.358,13.129,6.185a6.878,6.878,0,0,1,.137,5.237c-1.224,2.853-4.231,4.134-6.719,5.609l-6.7.4-2.389-9.309C822.977-188.656,823.562-191.22,823.728-193.986Z" transform="translate(-1325.846 -465.023)" fill="#440f3c"/>
    <path id="Trazado_1006409" data-name="Trazado 1006409" d="M665.658-245.844a16.343,16.343,0,0,1,5.082.766,7.658,7.658,0,0,0,3.632-.206c.407.216.58.24.79.662l-.115.5.177.132a6.344,6.344,0,0,0,1.076-.564,3.857,3.857,0,0,1,2.857-.747,2.6,2.6,0,0,1,1.647,1.255,3.287,3.287,0,0,1,.246.535l.075.267a4.786,4.786,0,0,1-.609,3.686,5.142,5.142,0,0,1-2.8,1.674,12.727,12.727,0,0,1-1.811.134c-.166,2.766-.751,5.33-.451,8.105a10.188,10.188,0,0,0-1.486,1.95,9.779,9.779,0,0,1-7.217,3.679,20.067,20.067,0,0,1-.06,3.762l-.037.065-10.8-.7c-1.043-.721-2.4-.957-3.51-1.67a8.862,8.862,0,0,1-3.568-5.728,18.388,18.388,0,0,1,.446-8.544,8.62,8.62,0,0,1,1.061-2.567c.19-.265.215-.349.545-.41l.149.893a15.3,15.3,0,0,1,1.091-4.923,2.826,2.826,0,0,1,.432-1.085l.6-.253a5.3,5.3,0,0,1,1.007-.381c1.811-.371,4.723.889,6.253,1.824.076.046.138.134.227.14a8.972,8.972,0,0,0,1.025-.589C662.878-244.909,664.145-245.813,665.658-245.844Z" transform="translate(-1178.023 -421.26)" fill="#faa78d"/>
    <path id="Trazado_1006410" data-name="Trazado 1006410" d="M830.764-231.071l.606-.065a1.376,1.376,0,0,1,.911.742,2.514,2.514,0,0,1,.027,1.881,2.325,2.325,0,0,1-1.314,1.12l-.432.018a1.492,1.492,0,0,1-1.165-.614,2.379,2.379,0,0,1,.151-1.7A2.123,2.123,0,0,1,830.764-231.071Z" transform="translate(-1331.01 -433.708)" fill="#e33d1c"/>
    <path id="Trazado_1006411" data-name="Trazado 1006411" d="M711.037-178.721l2.442-.146A7.906,7.906,0,0,1,712-176.449a3.247,3.247,0,0,1-2.633.666c-1.514-.649-1.922-1.52-2.6-2.946Z" transform="translate(-1227.349 -477.927)" fill="#fefefe"/>
    <path id="Trazado_1006412" data-name="Trazado 1006412" d="M735.06-183.019l1.812-.332A16.232,16.232,0,0,0,747-190.421c.521-.815.757-1.934,1.3-2.674.127-.173.65-.137.871-.154-.166,2.766-.751,5.33-.45,8.105a10.185,10.185,0,0,0-1.486,1.95,9.779,9.779,0,0,1-7.217,3.679,20.063,20.063,0,0,1-.06,3.762l-.192-7.551A20.544,20.544,0,0,1,735.06-183.019Z" transform="translate(-1251.285 -465.76)" fill="#f37873"/>
    <path id="Trazado_1006413" data-name="Trazado 1006413" d="M679.455-245.844a16.344,16.344,0,0,1,5.083.766,7.658,7.658,0,0,0,3.632-.206c.407.216.58.24.79.662a31.522,31.522,0,0,0-3.877.679c-.854,2.082-1.4,4.946-3.68,5.959a3.86,3.86,0,0,1-2.87.078,3.047,3.047,0,0,1-.876-.515l-.127-.1c-1.322-1.092-1.934-2.742-3.172-3.878l-1.221.965-.021.625c-.245.089-.1.071-.433-.025l-.438.842a1.932,1.932,0,0,0,.763.217,3.59,3.59,0,0,1-.084.7,1.931,1.931,0,0,0,.686.768c.318-.246.242-.333.3-.714l-1.112-1.332.285-.241a3.216,3.216,0,0,1,1.227,1.519,4.322,4.322,0,0,1-.4,1.329,2.818,2.818,0,0,1-1.89.155,6.85,6.85,0,0,1-1.124-.253.829.829,0,0,0-.595-.01.836.836,0,0,1,.117-.621l-.117-.207a5.285,5.285,0,0,1-3.909,1.1,4.065,4.065,0,0,1-1.415-.594l.123-.275-.33-.45a15.3,15.3,0,0,1,1.091-4.923,2.825,2.825,0,0,1,.432-1.085l.6-.253a5.3,5.3,0,0,1,1.007-.381c1.811-.371,4.723.889,6.253,1.824.076.046.138.134.227.14a8.97,8.97,0,0,0,1.025-.589C676.675-244.909,677.942-245.813,679.455-245.844Z" transform="translate(-1191.82 -421.26)" fill="#e33d1c"/>
    <path id="Trazado_1006414" data-name="Trazado 1006414" d="M666.707-241.036a2.065,2.065,0,0,1,1.62-.677,17.224,17.224,0,0,1,4.094,1.226,1.491,1.491,0,0,1-.1.918c.1,1.063.18,1.356-.5,2.207-.984,1.233-2.918,2.718-4.53,2.835a4.187,4.187,0,0,1-2.195-.441l-.33-.45a15.3,15.3,0,0,1,1.091-4.923l.436-.2Z" transform="translate(-1191.818 -424.755)" fill="#faa78d"/>
    <path id="Trazado_1006415" data-name="Trazado 1006415" d="M672.825-237.289l.363.48a2.474,2.474,0,0,0,.28,1.838l-.4.089a1.719,1.719,0,0,0-1.006,0c-.219-.436.24-1.388.356-1.916Z" transform="translate(-1197.935 -428.502)" fill="#fefefe"/>
    <path id="Trazado_1006416" data-name="Trazado 1006416" d="M679.371-236.411a1.528,1.528,0,0,1,1.315-.394c.3.244.578.432.63.852a1.338,1.338,0,0,1-.456,1.181c-.418.363-.714.263-1.209.2A2.475,2.475,0,0,1,679.371-236.411Z" transform="translate(-1204.119 -428.901)"/>
    <path id="Trazado_1006417" data-name="Trazado 1006417" d="M736.687-242.939l3.966,1.009c-.712,2.129-1.295,4.746-3.458,5.877a2.648,2.648,0,0,1-2.189.1,11.041,11.041,0,0,1-3.789-4.888,17.919,17.919,0,0,1,3.42-1.985A6.926,6.926,0,0,1,736.687-242.939Z" transform="translate(-1248.034 -423.704)" fill="#faa78d"/>
    <path id="Trazado_1006418" data-name="Trazado 1006418" d="M751.386-238.647a.984.984,0,0,1,.974.259,1.5,1.5,0,0,1,.349,1.245,1.447,1.447,0,0,1-.676,1.053l-.052.016c-.463.1-.463.113-.865-.123a2.081,2.081,0,0,1-.38-1.621C750.829-238.278,751.041-238.371,751.386-238.647Z" transform="translate(-1264.516 -427.335)"/>
    <path id="Trazado_1006419" data-name="Trazado 1006419" d="M655.851-187.679c-1.043-.721-2.4-.957-3.51-1.67a8.862,8.862,0,0,1-3.568-5.728,18.388,18.388,0,0,1,.446-8.544,8.62,8.62,0,0,1,1.061-2.567c.19-.265.215-.349.545-.41l.149.893.33.45-.123.275a11.2,11.2,0,0,0,3.138,7.8,10.409,10.409,0,0,0,7.325,2.872l.154-.006a20.554,20.554,0,0,0,4.7-.286l.192,7.551-.037.065Z" transform="translate(-1178.023 -454.466)" fill="#440f3c"/>
    <path id="Trazado_1006420" data-name="Trazado 1006420" d="M-558.312-304.813c.977-.836,2.4-2.3,3.653-2.6l.784.856,2.829.066a50.354,50.354,0,0,0-1.353,5.71l1.152,1.63a13.135,13.135,0,0,0,5.233,2.605l.263.068a13.065,13.065,0,0,0,9.284-1.3,5.623,5.623,0,0,0,2.634-3.913c.414.983,2.113,1.434,2.892,2.157l-.811,30.82-9.909-.114L-541.85-266a11.463,11.463,0,0,1-.174,1.6l-1.61,15.824-4.385,2.6a5.657,5.657,0,0,1-1.56.872l-.149-.057-.687,11.469-.244,2.489a3.81,3.81,0,0,1-.266,1.9,2.966,2.966,0,0,1-2.193-.208l.145-.722c-1.75-.835-4.171-1.17-6.054-1.717l-20.04-5.57c-1.906-.464-3.771-1.091-5.62-1.738-2.142-.749-4.323-1.419-5.988-3.039a12.2,12.2,0,0,1-3.571-9.033c-.009-6.4,2.092-12.876,4.333-18.795a84.056,84.056,0,0,1,9.228-18.419,47.99,47.99,0,0,1,5.661-6.621,38.749,38.749,0,0,1,13.369-8.686A10.075,10.075,0,0,1-558.312-304.813Z" transform="translate(-126.69 -369.178)" fill="#fefefe"/>
    <path id="Trazado_1006421" data-name="Trazado 1006421" d="M-500.744,25.6l-5.663-1.635a7.355,7.355,0,0,1-2.359-.819l.028-.225c.787-.338,6.819,1.614,7.894,1.975Z" transform="translate(-199.008 -648.61)" fill="#7f77b0"/>
    <path id="Trazado_1006422" data-name="Trazado 1006422" d="M-363.683-84.713c-.014,1.816-.1,3.935-1.553,5.251a4.191,4.191,0,0,1-2.947,1.035,3.751,3.751,0,0,1-2.309-1.188l-.076-.1a2.152,2.152,0,0,1-.31-1.447,7.7,7.7,0,0,0,2.758.148c.441-.214.935-.281,1.382-.5A7.459,7.459,0,0,0-363.683-84.713Z" transform="translate(-315.662 -557.582)" fill="#a1addf"/>
    <path id="Trazado_1006423" data-name="Trazado 1006423" d="M-370.877-61.673a7.7,7.7,0,0,0,2.758.148,1.022,1.022,0,0,1-.124.935,10.485,10.485,0,0,1-2.324.364A2.155,2.155,0,0,1-370.877-61.673Z" transform="translate(-315.662 -577.074)" fill="#e1e3eb"/>
    <path id="Trazado_1006424" data-name="Trazado 1006424" d="M-327.031,107.5l.867-12.137c.079-.9-.01-2.889.456-3.54a2.912,2.912,0,0,1,.827-.007,1.577,1.577,0,0,1,1.1.752l-.687,11.469-.244,2.489a3.81,3.81,0,0,1-.266,1.9,2.966,2.966,0,0,1-2.193-.208Z" transform="translate(-352.633 -706.904)" fill="#364290"/>
    <path id="Trazado_1006425" data-name="Trazado 1006425" d="M-457.33-110.565l7.291-26.673-1.046,28.731,8.087,2.238a42.994,42.994,0,0,1,4.547,1.345l.075.244-.226.147-18.628-5.326Z" transform="translate(-242.523 -513.146)" fill="#6f8fcb"/>
    <path id="Trazado_1006426" data-name="Trazado 1006426" d="M-392.713-304.813c.977-.836,2.4-2.3,3.653-2.6l.784.856a9.4,9.4,0,0,0-5.072,4.629c-1.985,3.977-1.1,9.333-.6,13.589a38.084,38.084,0,0,0,1.213,7.014,6.56,6.56,0,0,1,4.805,2.14,5.924,5.924,0,0,1,1.3,4.333,8.7,8.7,0,0,1-.43,1.734,7.456,7.456,0,0,1-3.055,3.2c-.447.217-.941.283-1.382.5a7.7,7.7,0,0,1-2.758-.148l-.374-.109a6.185,6.185,0,0,1-3.449-3.385,6.315,6.315,0,0,1,.133-4.9c.81-1.806,2.26-2.553,4.008-3.2l-1.119-7.973C-395.7-294.725-396.468-300.092-392.713-304.813Z" transform="translate(-292.289 -369.178)" fill="#091450"/>
    <path id="Trazado_1006427" data-name="Trazado 1006427" d="M-387.96-131.563a5.071,5.071,0,0,1,2.854.483,4.842,4.842,0,0,1,2.4,2.8,4.965,4.965,0,0,1-.5,4.141,5.312,5.312,0,0,1-3.535,2.541,5.433,5.433,0,0,1-3.43-.684,4.943,4.943,0,0,1-2.175-3.008l-.044-.2a4.789,4.789,0,0,1,.517-3.618A5.664,5.664,0,0,1-387.96-131.563Z" transform="translate(-297.345 -517.932)" fill="#fefefe"/>
    <path id="Trazado_1006428" data-name="Trazado 1006428" d="M-366.376-126.358l.25-.021a.936.936,0,0,1,.387.7c.032.446-.156.594-.439.878a1.592,1.592,0,0,1-.011-.637c.05-.344.1-.162-.116-.475l-.223.234a5.683,5.683,0,0,0-.058,2.235,3.946,3.946,0,0,0,.475.542,7.041,7.041,0,0,1,1.193,1.583,4.928,4.928,0,0,1-.356,1.2l-.221-.07.122-.827c-.233-.317-.265-.29-.653-.383l.032.308.086.808c.266.3.734.717.716,1.147a1.314,1.314,0,0,1-.457,1.038l-.376-.134a1.4,1.4,0,0,1-.416-.979l.088-.2.105-.254a3.074,3.074,0,0,0,0-1.654,3.493,3.493,0,0,1-1.06-2.631A4.408,4.408,0,0,0-367.4-125c-.151-.368-.163-.206-.134-.6A3.646,3.646,0,0,1-366.376-126.358Z" transform="translate(-318.479 -522.332)" fill="#a1addf"/>
    <path id="Trazado_1006429" data-name="Trazado 1006429" d="M-315.018-267.732a13.135,13.135,0,0,0,5.233,2.605l.263.068a13.065,13.065,0,0,0,9.284-1.3,5.623,5.623,0,0,0,2.634-3.913c.414.983,2.113,1.434,2.892,2.157l-.811,30.82-9.909-.114-.191,2.831a11.454,11.454,0,0,1-.174,1.6l-1.61,15.824-4.385,2.6a32.615,32.615,0,0,0,.076-4.111l-.512-15.585Z" transform="translate(-362.919 -400.596)" fill="#15a8de"/>
    <path id="Trazado_1006430" data-name="Trazado 1006430" d="M524.349-131.225a20.093,20.093,0,0,0,.06-3.762,9.78,9.78,0,0,0,7.217-3.679,10.19,10.19,0,0,1,1.486-1.95l2.389,9.309c.171.537.28,1.212.764,1.547a12.528,12.528,0,0,0,1.329.166l1.1-.088-.526.871c1.645.72,3.4,1.165,4.982,2.015l.18.094a13.218,13.218,0,0,1,5.88,7.649,35.345,35.345,0,0,1,1.116,7.987,91.413,91.413,0,0,1-.559,14.139c-.15,1.417-.193,2.892-.432,4.293l-.153.02a70.1,70.1,0,0,0-1.594,7.338L545.72-75.3c-.173,1.092-.255,2.18-.329,3.284a6.5,6.5,0,0,1-.112,1.435c-.693,1.484-4.763,4.4-6.16,5.153-.636.342-1.064.462-1.457,1.1l-6.787,2.5-14,3.672c.623.4,1.323.54,1.974.9-2.245,1.018-4.686,1.621-6.979,2.555a12.669,12.669,0,0,0-2.339,1.108,39.257,39.257,0,0,0-4.737,3.881c-1.188,1.127-2.2,2.541-3.667,3.342a2.212,2.212,0,0,1-1.248.22,2.026,2.026,0,0,1-.752-.751,1.044,1.044,0,0,0-.692.332,3.05,3.05,0,0,1-2.354.485c-.415-.313-.34-.513-.412-1.014l-.267.149-.594.33a1.726,1.726,0,0,1-.972.1,1.874,1.874,0,0,1-.591-.691c-.129-.6-1.224-1.3-1.7-1.7.525-.628.717-.755.754-1.6-.533.023-.666.114-1.089-.234l-.029-.834a8.25,8.25,0,0,0,1.507-1.255l3.348-3.019a22.579,22.579,0,0,1-4.946,2.275l.015-.184a12.552,12.552,0,0,1,1.043-2.231,20.528,20.528,0,0,0-2.8,1.825,3.4,3.4,0,0,1-1.627.835c-.626.257-1.164.675-1.771.973a9.9,9.9,0,0,1-3.924.66l.623-2.27a4.145,4.145,0,0,1-2.234.89l-.211-.614c.965-2.477,3.62-4.212,4.817-6.55l2.793-3.727a38.118,38.118,0,0,0,3.92-5.665,55.788,55.788,0,0,0,4.033-6.7,48.06,48.06,0,0,0,1.95-5.746l2.76-9.067c.513-1.7.958-3.417,1.6-5.073a5.112,5.112,0,0,1-1.26-1.818c-.568-1.568.068-3.64.465-5.2a62.54,62.54,0,0,1,3.374-10.043c1.734-3.9,3.892-8.8,7.074-11.732a14.275,14.275,0,0,1,4.671-2.775,30.419,30.419,0,0,1,5.168-1.431,2.77,2.77,0,0,1,1.658-.064,5.632,5.632,0,0,0,1.159-.818,1.52,1.52,0,0,0-.075-1.057Z" transform="translate(-1035.68 -510.289)" fill="#13b1ae"/>
    <path id="Trazado_1006431" data-name="Trazado 1006431" d="M633.246,38.075l.108-.119a8.571,8.571,0,0,0,.38-2.667,40.369,40.369,0,0,1,.784-4.593,52.879,52.879,0,0,1,5.957-14.031l.2.02a3.717,3.717,0,0,1-.552,1.256l-1.266,2.823a40.117,40.117,0,0,0-2.887,13.278,22.122,22.122,0,0,0,.434,6.142A15.881,15.881,0,0,1,633.246,38.075Z" transform="translate(-1165.151 -643.348)" fill="#097180"/>
    <path id="Trazado_1006432" data-name="Trazado 1006432" d="M752.567-69.527l1.1-.088-.526.871L735.259-45.867l-.564-9.376c-.131-2.266-.607-4.962-.255-7.192a14.983,14.983,0,0,1,1.977-4.948l.675,15.232a52.539,52.539,0,0,0,7.2-7.586Z" transform="translate(-1250.653 -570.355)" fill="#fefefe"/>
    <path id="Trazado_1006433" data-name="Trazado 1006433" d="M783.927,38.151c-1.536-.91-3.055-1.784-4.667-2.555-2.681-1.281-6.533-2.429-8.714-4.427a14.864,14.864,0,0,0,7.254-.318c1.066-.344,6.033-2.535,6.535-3.49a4.078,4.078,0,0,0,.051-.878l.229-2.691.624-3.944a103.415,103.415,0,0,1,3.742-14.19,38.414,38.414,0,0,1,2.029-5.4h.127c.114.681-.612,2.073-.865,2.772-.744,2.055-1.5,4.142-2.067,6.255a82.044,82.044,0,0,0-1.923,9.232,41.257,41.257,0,0,0-.557,4.45l-.005.174L784.392,35.7a10.817,10.817,0,0,1-.193,2.2C784.139,38.013,784.018,38.069,783.927,38.151Z" transform="translate(-1281.306 -629.465)" fill="#097180"/>
    <path id="Trazado_1006434" data-name="Trazado 1006434" d="M750.884-131.225a20.083,20.083,0,0,0,.06-3.762,9.78,9.78,0,0,0,7.217-3.679,10.188,10.188,0,0,1,1.486-1.95l2.389,9.309c.17.537.28,1.212.764,1.547a12.534,12.534,0,0,0,1.329.166l-8.273,9.789a52.539,52.539,0,0,1-7.2,7.586l-.674-15.232a12.145,12.145,0,0,1,1.783-1.834,5.63,5.63,0,0,0,1.159-.818,1.52,1.52,0,0,0-.075-1.057Z" transform="translate(-1262.215 -510.289)" fill="#faa78d"/>
    <path id="Trazado_1006435" data-name="Trazado 1006435" d="M502.077,147.669a12.959,12.959,0,0,1,1.482,1.176l.216.06a15.881,15.881,0,0,0,3.16,2.109,20.262,20.262,0,0,1,1.018,3.354L509.145,159a46.042,46.042,0,0,1,1.1,4.739c.446,1.3.711,2.658,1.051,3.988a4.5,4.5,0,0,1,.294,2.118l-3.224,10.4a47.262,47.262,0,0,0,5.092-2.25,116.056,116.056,0,0,0,21.728-12.511,19.176,19.176,0,0,0,3.116-2.613c.091-.082.213-.138.272-.245a10.832,10.832,0,0,0,.193-2.2l1.328-12.566a44.978,44.978,0,0,0,9.087,3.426,70.133,70.133,0,0,0-1.594,7.338l-1.866,9.971c-.173,1.092-.255,2.18-.329,3.284a6.489,6.489,0,0,1-.112,1.435c-.693,1.484-4.763,4.4-6.16,5.153-.636.342-1.064.462-1.457,1.1l-6.787,2.5-14,3.672c.623.4,1.323.54,1.974.9-2.245,1.018-4.686,1.621-6.979,2.555a12.667,12.667,0,0,0-2.339,1.108,39.257,39.257,0,0,0-4.737,3.881c-1.188,1.127-2.2,2.541-3.667,3.342a2.212,2.212,0,0,1-1.248.22,2.026,2.026,0,0,1-.752-.751,1.044,1.044,0,0,0-.692.332,3.05,3.05,0,0,1-2.354.485c-.415-.313-.34-.513-.412-1.014l-.267.149-.594.33a1.726,1.726,0,0,1-.972.1,1.874,1.874,0,0,1-.591-.691c-.129-.6-1.224-1.3-1.7-1.7.525-.628.717-.755.754-1.6-.533.023-.666.114-1.089-.234l-.029-.834a8.25,8.25,0,0,0,1.507-1.255l3.348-3.019a22.577,22.577,0,0,1-4.946,2.275l.015-.184a12.553,12.553,0,0,1,1.043-2.231,20.529,20.529,0,0,0-2.8,1.825,3.4,3.4,0,0,1-1.627.835c-.626.257-1.164.675-1.771.973a9.9,9.9,0,0,1-3.924.66l.623-2.27a4.145,4.145,0,0,1-2.234.89l-.211-.614c.965-2.477,3.62-4.212,4.817-6.55l2.793-3.727a38.118,38.118,0,0,0,3.92-5.665,55.786,55.786,0,0,0,4.033-6.7,48.059,48.059,0,0,0,1.95-5.746l2.76-9.067C500.992,151.044,501.437,149.325,502.077,147.669Z" transform="translate(-1035.68 -754.177)" fill="#faa78d"/>
    <path id="Trazado_1006436" data-name="Trazado 1006436" d="M585.149,381.462l.318.026.029.245a3,3,0,0,1-1.8,1.05,1.225,1.225,0,0,1-.5-.645l.166-.226A15.756,15.756,0,0,0,585.149,381.462Z" transform="translate(-1122.802 -951.966)" fill="#f15f65"/>
    <path id="Trazado_1006437" data-name="Trazado 1006437" d="M546.438,396.107c.259.01.313.088.524.226l.075.225.678.15.226-.143a8.614,8.614,0,0,1,3.382-.082l.075.225-.45.287-.827.313a3.754,3.754,0,0,1-.616.265l-.136.035-.226.142a2.321,2.321,0,0,1-1.659-.292l-.22-.159A1.927,1.927,0,0,1,546.438,396.107Z" transform="translate(-1091.711 -964.356)" fill="#faa78d"/>
    <path id="Trazado_1006438" data-name="Trazado 1006438" d="M492.66,416.071a13.483,13.483,0,0,1,1.692-1.085c-.406.671-.99.908-1.218,1.679l.143.526c.438.237.489.2.969.051,1.282-.391,2.229-1.465,3.461-1.981a3.1,3.1,0,0,1,.025,1.448c-.626.257-1.164.675-1.771.973a9.9,9.9,0,0,1-3.924.66Z" transform="translate(-1045.688 -980.327)" fill="#2d3182"/>
    <path id="Trazado_1006439" data-name="Trazado 1006439" d="M683.37,374.5l.51-1.9c3.007-.793,16.543-4.149,18.871-2.976l-14,3.672Z" transform="translate(-1207.556 -941.749)" fill="#fa8574"/>
    <path id="Trazado_1006440" data-name="Trazado 1006440" d="M573.771,396.031l5.379-1.2c.623.4,1.323.54,1.974.9-2.245,1.018-4.686,1.621-6.979,2.555a12.673,12.673,0,0,0-2.339,1.108,39.26,39.26,0,0,0-4.737,3.881c-1.188,1.127-2.2,2.541-3.667,3.342a2.212,2.212,0,0,1-1.248.22,2.026,2.026,0,0,1-.752-.751,1.044,1.044,0,0,0-.692.332,3.05,3.05,0,0,1-2.354.485c-.415-.313-.34-.513-.412-1.014l-.267.149-.594.33a1.726,1.726,0,0,1-.972.1,1.875,1.875,0,0,1-.592-.691c-.129-.6-1.224-1.3-1.7-1.7.525-.628.717-.755.753-1.6,1.945-1,3.223-2.59,4.874-3.968-.139.662-1.636,1.934-2.123,2.531a9.925,9.925,0,0,0-1.876,3.383,1.779,1.779,0,0,0,.878.668l.133-.061.216-.11c1.925-.963,3.05-3.29,4.682-4.664l.11.107a28.992,28.992,0,0,0-2.078,2.92c-.277.505-.779,1.308-.615,1.869a1.757,1.757,0,0,0,.77.308,3.215,3.215,0,0,0,.423-.024c.4-.143.889-.814,1.162-1.137,1.083-1.283,2.051-2.7,3.252-3.874-.5,1.143-1.372,2.152-1.913,3.309a1.458,1.458,0,0,0-.164,1.263l.6.144c1.778-.543,2.628-2.445,3.974-3.6a44.384,44.384,0,0,1,4.065-2.646A10.976,10.976,0,0,0,573.771,396.031Z" transform="translate(-1097.957 -963.276)" fill="#364290"/>
    <path id="Trazado_1006441" data-name="Trazado 1006441" d="M574.141,155.3l.216.06a15.879,15.879,0,0,0,3.16,2.109,20.262,20.262,0,0,1,1.018,3.354l1.193,4.629a46.027,46.027,0,0,1,1.1,4.739c.446,1.3.711,2.658,1.051,3.988a4.5,4.5,0,0,1,.294,2.118l-3.224,10.4a21.825,21.825,0,0,0-3.237-.295,31.661,31.661,0,0,0-4.881,1.187c-2.078,1.254-4.889,1.777-7.191,2.615a15.394,15.394,0,0,1,2.023-1.941,44.336,44.336,0,0,0,5.852-7.213,27.629,27.629,0,0,0,3.121-5.672c1.5-4.106.921-8.42.47-12.648l-.614-4.433a15.553,15.553,0,0,1-.353-2.834Z" transform="translate(-1106.261 -760.636)" fill="#d04756"/>
    <path id="Trazado_1006442" data-name="Trazado 1006442" d="M620.332,251.993c.446,1.3.711,2.658,1.051,3.988a4.5,4.5,0,0,1,.294,2.118l-3.224,10.4a21.825,21.825,0,0,0-3.237-.295,31.659,31.659,0,0,0-4.881,1.188C614.8,264.372,617.679,258.086,620.332,251.993Z" transform="translate(-1145.768 -842.435)" fill="#98cfd4"/>
    <path id="Trazado_1006443" data-name="Trazado 1006443" d="M46.465-518.073a1.755,1.755,0,0,1-1.141-.482,27.9,27.9,0,0,1-.147-5.7l.026-10.13.012-33.882a2.2,2.2,0,0,1,.231-1.186,1.919,1.919,0,0,1,1.366-.4l18.226-.076h53.1l5.638,0a23.724,23.724,0,0,1,3.276.085l.174.321-.031,32.5.055,11.208.057,4.456a6.531,6.531,0,0,1-.191,2.524,3.831,3.831,0,0,1-.6.574,8.338,8.338,0,0,1-2.411.108l-6.957.007-45.424.045-16.253-.095C52.493-518.2,49.436-518.311,46.465-518.073Z" transform="translate(-667.582 -147.082)" fill="#596bb9"/>
    <path id="Trazado_1006444" data-name="Trazado 1006444" d="M66.552-547.671l75.16.006-.078,44.651-74.962.029Z" transform="translate(-685.727 -165.919)" fill="#b8d2f8"/>
    <path id="Trazado_1006445" data-name="Trazado 1006445" d="M345.332-489.617l.471-.092a45.866,45.866,0,0,1,5.566-.054l12.568.068c.771.007,3.244-.19,3.794.225l-.114.455-.215.049a40.182,40.182,0,0,1-5.047.067l-10.976.008-3.893-.012a11.806,11.806,0,0,1-1.857-.019.578.578,0,0,1-.272-.147Z" transform="translate(-921.575 -214.856)" fill="#fefefe"/>
    <path id="Trazado_1006446" data-name="Trazado 1006446" d="M126.6-289.355a25.4,25.4,0,0,1,3.766-.064l7.9-.025,12.027-.026a30.907,30.907,0,0,1,5.516.106v.464l-.3.054c-2.2.237-4.662.037-6.894.045l-17.587.018c-.9-.007-3.9.243-4.558-.219Z" transform="translate(-736.415 -384.295)" fill="#fefefe"/>
    <path id="Trazado_1006447" data-name="Trazado 1006447" d="M129.865-316.892l24.648.128.168.323-.193.211-4.36.016-19.675,0-3.682,0a7.064,7.064,0,0,1-1.452,0c-.1-.031-.155-.147-.232-.22l.082-.343A27.534,27.534,0,0,1,129.865-316.892Z" transform="translate(-735.247 -361.118)" fill="#fefefe"/>
    <path id="Trazado_1006448" data-name="Trazado 1006448" d="M345.942-460.769c2.06-.207,4.28-.061,6.358-.064l12.518-.008,4.259.008a3.119,3.119,0,0,1,1.574.164l-.037.5-.221.047c-2.357.349-24.043.187-24.487-.122Z" transform="translate(-922.062 -239.344)" fill="#fefefe"/>
    <path id="Trazado_1006449" data-name="Trazado 1006449" d="M131.791-344.982l16.872,0,4.483.032a12.179,12.179,0,0,1,2.377.1l.047.549a2.478,2.478,0,0,1-1.367.15h-4.111l-17.184.008-4.35,0a10.416,10.416,0,0,1-2.365-.089l-.082-.444c.075-.076.125-.191.225-.228a5.792,5.792,0,0,1,1.193-.016Z" transform="translate(-736.114 -337.391)" fill="#fefefe"/>
    <path id="Trazado_1006450" data-name="Trazado 1006450" d="M390.345-446.343l.544.006c.387.474.2,1.592.2,2.211l-.026,5.635a7.9,7.9,0,0,0-.006,1.366,13.246,13.246,0,0,0,1.566,1.056,8.117,8.117,0,0,1,1.606,1.68,8.143,8.143,0,0,1,1.344,6,8.179,8.179,0,0,1-3.595,5.318,8.587,8.587,0,0,1-6.338,1.172,7.547,7.547,0,0,1-4.956-3.4,8.417,8.417,0,0,1-1.2-6.385,8.835,8.835,0,0,1,4.1-5.493c.354-.208.2-1.047.194-1.457,0-1.174-.237-7.152.128-7.682l1.121-.054-.038,9.812a7.778,7.778,0,0,0-4.1,4.91,7.177,7.177,0,0,0,.824,5.4,6.622,6.622,0,0,0,4.047,2.989,6.988,6.988,0,0,0,5.443-.867,7.032,7.032,0,0,0,3.023-4.374,6.5,6.5,0,0,0-1.117-5.11,7.439,7.439,0,0,0-1.882-1.721,11.11,11.11,0,0,1-1.305-.821c-.031-.054-.085-9.194-.07-10.1Z" transform="translate(-950.297 -251.621)" fill="#596bb9"/>
    <path id="Trazado_1006451" data-name="Trazado 1006451" d="M392.629-446.957a33.132,33.132,0,0,1,5.327.026l-.5.1c-.015.9.039,10.042.07,10.1a11.119,11.119,0,0,0,1.305.821,7.436,7.436,0,0,1,1.883,1.721,6.5,6.5,0,0,1,1.117,5.11,7.032,7.032,0,0,1-3.023,4.374,6.989,6.989,0,0,1-5.443.867,6.621,6.621,0,0,1-4.047-2.989,7.177,7.177,0,0,1-.825-5.4,7.778,7.778,0,0,1,4.1-4.91Z" transform="translate(-957.908 -251.033)" fill="#6f8fcb"/>
    <path id="Trazado_1006452" data-name="Trazado 1006452" d="M126.649-507.58a2.82,2.82,0,0,1,.583-.067l3.411-.01a6.424,6.424,0,0,1,1.612.054,1.443,1.443,0,0,1,.663.43,5.738,5.738,0,0,1,.188,2.152l0,3.8c.84-.01,4.727-.265,5.267.038a2.272,2.272,0,0,1,.388.361,11.724,11.724,0,0,1,.112,2.362l-.046,4.116c-1.2.949-4.3.534-5.851.526l.134,5.564c-.069.487-.211.526-.577.827a5.355,5.355,0,0,1-1.669.213c-1.1.013-3.862.3-4.636-.519-.69-.728-.34-4.926-.336-6.106-1.36-.005-4.3.3-5.374-.459a10.28,10.28,0,0,1-.17-2.639,17.8,17.8,0,0,1,.293-4.3l5.19.011a3.835,3.835,0,0,0,.064-1.329,29.6,29.6,0,0,1,0-4.193C125.961-507.212,126.293-507.356,126.649-507.58Z" transform="translate(-731.232 -199.751)" fill="#80c1c9"/>
  </g>
</svg>
