<svg xmlns="http://www.w3.org/2000/svg" xmlns:xlink="http://www.w3.org/1999/xlink" width="308" height="308" viewBox="0 0 308 308">
  <defs>
    <linearGradient id="linear-gradient" x1="6.94" y1="-8.277" x2="7.017" y2="-9.16" gradientUnits="objectBoundingBox">
      <stop offset="0" stop-color="#0b2762"/>
      <stop offset="1" stop-color="#3b528c"/>
    </linearGradient>
    <linearGradient id="linear-gradient-2" x1="19.963" y1="-1.821" x2="18.888" y2="-1.731" gradientUnits="objectBoundingBox">
      <stop offset="0" stop-color="#0877c8"/>
      <stop offset="1" stop-color="#028ed7"/>
    </linearGradient>
    <linearGradient id="linear-gradient-3" x1="15.271" y1="1.025" x2="13.358" y2="1.013" gradientUnits="objectBoundingBox">
      <stop offset="0" stop-color="#013195"/>
      <stop offset="1" stop-color="#0050aa"/>
    </linearGradient>
  </defs>
  <g id="_197371264_25a7cdce-a34c-4b3b-8de0-e6bdd70a9320" data-name="197371264_25a7cdce-a34c-4b3b-8de0-e6bdd70a9320" transform="translate(744 744.5)">
    <path id="Trazado_1006453" data-name="Trazado 1006453" d="M-744-522.168V-744.5h308v308H-744Z" transform="translate(0)" fill="#91d4ed"/>
    <path id="Trazado_1006454" data-name="Trazado 1006454" d="M248.261-103.558a34.619,34.619,0,0,0,2.313-3.757,7.814,7.814,0,0,0,.81-1.3l.061-.2.149-.15.078-.216.2.08a18.175,18.175,0,0,1-2.343,4.96l-.016,0c-2.162,3.56-7.711,5.407-11.547,6.395a2.273,2.273,0,0,1-.416.072l.042-.177c.58-.667,2.436-.987,3.307-1.335a34.519,34.519,0,0,0,4.3-1.961A13.746,13.746,0,0,0,248.261-103.558Z" transform="translate(-830.39 -537.477)" fill="#ee813b"/>
    <path id="Trazado_1006455" data-name="Trazado 1006455" d="M17.337,116.242l3.213,11.185-2.865.368a11.694,11.694,0,0,1-1.175-4.63,3.007,3.007,0,0,0,.8-1.036c.07-.249-.251-.714-.366-.949A18.328,18.328,0,0,1,17.337,116.242Z" transform="translate(-643.391 -728.188)" fill="#c6e7f3"/>
    <path id="Trazado_1006456" data-name="Trazado 1006456" d="M413.155-30.723a5.442,5.442,0,0,1,2.478.18,3.509,3.509,0,0,1,1.989,1.966,4.325,4.325,0,0,1,.026,3.21,3.71,3.71,0,0,1-2.331,1.976,4.926,4.926,0,0,1-2.274-.067,3.023,3.023,0,0,1-2.025-1.715,4.145,4.145,0,0,1-.381-3.284A4.232,4.232,0,0,1,413.155-30.723Z" transform="translate(-976.663 -603.807)" fill="#c6e7f3"/>
    <path id="Trazado_1006457" data-name="Trazado 1006457" d="M483.23-100.61a3.752,3.752,0,0,0-1.083-.664,10.377,10.377,0,0,1-2.12-1.367,108.091,108.091,0,0,1,4.1-11.732,59.178,59.178,0,0,1,2.364-5.619c.416,1.149-.015,3-.043,4.262a34.449,34.449,0,0,0,.135,3.929,56.046,56.046,0,0,0,1.99,9.906l1.26,3.821A12.16,12.16,0,0,1,483.23-100.61Z" transform="translate(-1035.527 -528.333)" fill="#f39330"/>
    <path id="Trazado_1006458" data-name="Trazado 1006458" d="M485.487,5.871a12.162,12.162,0,0,0,6.6,2.534l.781,2.94a15.035,15.035,0,0,1,.394,1.642l.922,3.11a7.563,7.563,0,0,1-2.235.632c-2.61.986-7.138,2.437-8.306,5.172a4.879,4.879,0,0,0-.246.757l-.041.16a5.407,5.407,0,0,0,.572,3.7,2.4,2.4,0,0,1,.224.643l-.406-.3c-.793-.693-.879-2.022-.967-2.993-.451-4.957.972-10.188,1.938-15.018Z" transform="translate(-1037.784 -634.814)" fill="#b63c3a"/>
    <path id="Trazado_1006459" data-name="Trazado 1006459" d="M542.585,55.82l-.019-.2a4.36,4.36,0,0,1,1.332-3.541l.922,3.11A7.562,7.562,0,0,1,542.585,55.82Z" transform="translate(-1088.419 -673.905)" fill="#3bbcc1"/>
    <path id="Trazado_1006460" data-name="Trazado 1006460" d="M496.609,5.871a12.161,12.161,0,0,0,6.6,2.534l.781,2.94-8.149-2.5Z" transform="translate(-1048.905 -634.814)" fill="#7f202c"/>
    <path id="Trazado_1006461" data-name="Trazado 1006461" d="M197.967-115.913a5,5,0,0,0,1.533-.127,39.069,39.069,0,0,0,6.754-2l4.1-1.357a9.237,9.237,0,0,1,2.673-.9l.223.348a2.411,2.411,0,0,1-.4,1.443l-.2-.08-.078.216-.149.15-.061.2a7.807,7.807,0,0,1-.81,1.3,34.634,34.634,0,0,1-2.313,3.757,13.757,13.757,0,0,1-3.059,2.41,34.517,34.517,0,0,1-4.3,1.961c-.871.348-2.728.668-3.307,1.335l-.042.177c-.856,1.177-1.458,2.605-2.221,3.859l-4.882-3.169a18.044,18.044,0,0,0,3.026-3.909,5.824,5.824,0,0,1-.262-.959,3.768,3.768,0,0,1,.918-2.743l1.938-3.332a19.021,19.021,0,0,1,1.657-2.656l.335.035c.141.174.32.311.348.537A4.725,4.725,0,0,1,197.967-115.913Z" transform="translate(-791.373 -528.076)" fill="#f4b282"/>
    <path id="Trazado_1006462" data-name="Trazado 1006462" d="M497.689-391.215l.241.047c.7,1.475.817,3.263,1.912,4.523a16.823,16.823,0,0,0,3,12.993,13.867,13.867,0,0,0,3.056,3.059,12.428,12.428,0,0,1,1.212.778,17.6,17.6,0,0,1-4.845.419,3.805,3.805,0,0,1-2.645-1.541c-.036-.047-.05-.128-.108-.143a5.711,5.711,0,0,0-.713.166,6.292,6.292,0,0,1-2.4.234l-.2-.04a5.351,5.351,0,0,1-1.6-.526,4.52,4.52,0,0,1-2.058-2.763c-.36-1.438.282-2.606.956-3.815-1.491-.928-2.626-1.727-3.159-3.5-.415-1.38-1.956-1.737-2.123-3.465a4.118,4.118,0,0,1,1.138-3.222c1.3-1.442,2.62-1.192,4.216-1.808a5.812,5.812,0,0,0,1.033-.7A6.3,6.3,0,0,1,497.689-391.215Z" transform="translate(-1042.437 -298.879)" fill="#0a1330"/>
    <path id="Trazado_1006463" data-name="Trazado 1006463" d="M921.8,120.07a1.268,1.268,0,0,1,.1-.7l4.783-.037a18.538,18.538,0,0,1-2.218-3.062,12.406,12.406,0,0,1-1.048-2.51c-.179-.685-.464-2.165-.091-2.79.265.137.252,1.587.325,1.977a17.025,17.025,0,0,0,3.223,6.295,1.927,1.927,0,0,0,.986,0,39.459,39.459,0,0,1-.274-6.472,11.761,11.761,0,0,1,.179-2.383l.2.058a46.112,46.112,0,0,1,.021,5.489c.015,1.129.184,2.272.31,3.392l2.227,0a15.36,15.36,0,0,0,.727-3.618l.386-4.235a2.755,2.755,0,0,1,.418-1.476l.153.075-.352,3.45a20.531,20.531,0,0,1-.925,5.724,1.029,1.029,0,0,0,.53.074,3.342,3.342,0,0,0,.7-.046,3.948,3.948,0,0,0,.691-.848,26.99,26.99,0,0,0,1.9-3.186,10.88,10.88,0,0,1,1.288-2.536l.217.226a21.415,21.415,0,0,1-3.626,6.393l4.695.108.09.342c-.529,1.735-.865,3.514-1.251,5.284a8.991,8.991,0,0,1-.426,1.881c0,.006-.279.17-.3.18l-.149.048a1.4,1.4,0,0,0-.243.356,7.726,7.726,0,0,0,0,1.578l.005,4.679-10.69.127-.182-6.441a4.373,4.373,0,0,0-.667-.342,9.6,9.6,0,0,1-.586-2.152Z" transform="translate(-1409.26 -722.902)" fill="#1898b0"/>
    <path id="Trazado_1006464" data-name="Trazado 1006464" d="M932.978,221.178l11.774.045a1.4,1.4,0,0,0-.243.356,7.731,7.731,0,0,0,0,1.578l.005,4.679-10.69.127-.182-6.442A4.359,4.359,0,0,0,932.978,221.178Z" transform="translate(-1418.723 -816.964)" fill="#48c6ba"/>
    <path id="Trazado_1006465" data-name="Trazado 1006465" d="M842.16,185.615c2.006-2.789,3.669-6.017,6.607-8a11.652,11.652,0,0,1,5.666-2.192l1.128,4.895a9.594,9.594,0,0,0,.586,2.152,4.374,4.374,0,0,1,.667.342l.182,6.442a3.3,3.3,0,0,0-1.958.284c-.714,1.1-.5,4-.25,5.274a1.137,1.137,0,0,0,.422.805l.871.635.019.18c-1.022.054-2.768-.2-3.557.375-.631,1.135-.413,3.33-.381,4.647a5.848,5.848,0,0,0,.118,1.57,2.569,2.569,0,0,0,1.2,1.2l-8.8.083A115.432,115.432,0,0,0,842.16,185.615Z" transform="translate(-1341.891 -778.252)" fill="#c6e7f3"/>
    <path id="Trazado_1006466" data-name="Trazado 1006466" d="M867.264,362.408l29.447.111,5.992.07.005,7.737-11.964-.009-3.7-.02-3.605,0-24.477-.029-.5-7.781Z" transform="translate(-1355.683 -936.444)" fill="#229ada"/>
    <path id="Trazado_1006467" data-name="Trazado 1006467" d="M922.271,263.951l13.349-.082,2.57.033a3.411,3.411,0,0,1,.633.018c.105.048.167.16.25.24a1,1,0,0,1-.645.516l-.226.168a1.121,1.121,0,0,1-.733.233c.392.075.628.021.867.36a3.276,3.276,0,0,1-.19,1.6,7.073,7.073,0,0,1,.081,3.011,3.631,3.631,0,0,1,.89.2c.12.347.182.369.081.74a14.85,14.85,0,0,1-3.725.152l-1.713,1.515-13.869-.039c-2.354.021-4.978.274-7.312.065a1.223,1.223,0,0,1-.677-.214l-.319.269c.652.528,3.614.245,4.558.241l13.714-.1,2.548-.044a5.46,5.46,0,0,1,1.081-.025c.1.03.145.154.217.232l-.067.313a21.078,21.078,0,0,1-3.51.088l-6.563,0-6.519.283c-.621.009-4.847-.1-5.064.029-.081.05-.119.149-.178.224l21.978-.246.249,1.915L919,275.65a71.879,71.879,0,0,1-7.249-.094.922.922,0,0,0-.226.783l.363-.421c1.508-.091,3.018-.02,4.524.023l7.659.035,6.42,0a29.5,29.5,0,0,1,3.637.057l.375.973a3.061,3.061,0,0,0,.452.744l-.045.176-1.988.038,3.273.208a2.07,2.07,0,0,1,1.223.218l.087.762-29.447-.111a2.569,2.569,0,0,1-1.2-1.2,5.862,5.862,0,0,1-.118-1.57c-.032-1.317-.251-3.512.381-4.647.79-.571,2.535-.321,3.557-.375l-.019-.18-.871-.635a1.137,1.137,0,0,1-.422-.805c-.248-1.276-.464-4.177.25-5.275a3.3,3.3,0,0,1,1.958-.284Z" transform="translate(-1396.479 -853.08)" fill="#fdfefe"/>
    <path id="Trazado_1006468" data-name="Trazado 1006468" d="M909.794,305.459a12.715,12.715,0,0,1,2.405-.093l4.112-.033,22.8-.073c.12.347.182.369.081.74a14.851,14.851,0,0,1-3.725.152l-14.208.039a70.03,70.03,0,0,0-7.341.043,3.868,3.868,0,0,0-2.179.77,3.769,3.769,0,0,0-.62.97l-.315.592.1.172c.446.882-.206,1.822.085,2.665a3.158,3.158,0,0,0,1.061,1.379,15.159,15.159,0,0,0,3.793.173l6.831,0c3.372,0,6.887.217,10.247.026l3.273.208a2.07,2.07,0,0,1,1.223.218l.087.762-29.447-.111a2.569,2.569,0,0,1-1.2-1.2,5.86,5.86,0,0,1-.118-1.57c-.033-1.317-.251-3.512.381-4.647.79-.571,2.535-.321,3.557-.375l-.019-.18Z" transform="translate(-1396.478 -888.097)" fill="#db3533"/>
    <path id="Trazado_1006469" data-name="Trazado 1006469" d="M958.408,331.572a.912.912,0,0,0-.512-.03,34.417,34.417,0,0,1-5.3.29l-13.6.1a26.25,26.25,0,0,1-5.405-.18,3.028,3.028,0,0,1-1.945-1.48,7,7,0,0,1,.158-3.542l.1.172c.446.882-.206,1.822.085,2.665a3.157,3.157,0,0,0,1.061,1.379,15.16,15.16,0,0,0,3.793.173l6.831,0c3.372,0,6.887.217,10.247.026l3.273.208A2.068,2.068,0,0,1,958.408,331.572Z" transform="translate(-1417.466 -906.259)" fill="#f39330"/>
    <path id="Trazado_1006470" data-name="Trazado 1006470" d="M935.752,263.951l13.349-.082,2.57.033a3.412,3.412,0,0,1,.633.018c.105.048.167.16.25.24a1,1,0,0,1-.645.516l-.226.168a1.121,1.121,0,0,1-.733.233c.392.075.628.021.867.36a3.276,3.276,0,0,1-.19,1.6,7.072,7.072,0,0,1,.081,3.011,3.63,3.63,0,0,1,.89.2l-22.8.073-4.113.033a12.728,12.728,0,0,0-2.405.093,1.138,1.138,0,0,1-.422-.805c-.248-1.276-.464-4.177.25-5.275a3.3,3.3,0,0,1,1.958-.284Z" transform="translate(-1409.959 -853.08)" fill="#fdfefe"/>
    <path id="Trazado_1006471" data-name="Trazado 1006471" d="M935.753,263.951l13.349-.082,2.57.033a3.411,3.411,0,0,1,.633.018c.105.048.167.16.25.24a1,1,0,0,1-.645.516l-11.4-.048a34.82,34.82,0,0,0-5.086.074,2.41,2.41,0,0,0-1.194.534,1.434,1.434,0,0,0-.511.879l.085.079.089-.112a2.449,2.449,0,0,1,2.021-1.016l.146-.013.018.089-.15.033a2.886,2.886,0,0,0-1.737,1.053,2.545,2.545,0,0,0-.16,1.7c.133,1.012-.156,1.417.75,2.162l11.874.011a30.7,30.7,0,0,0,5.051-.056,3.629,3.629,0,0,1,.89.2l-22.8.073-4.113.033a12.728,12.728,0,0,0-2.405.093,1.137,1.137,0,0,1-.422-.805c-.248-1.276-.464-4.177.25-5.274a3.3,3.3,0,0,1,1.958-.284Z" transform="translate(-1409.96 -853.08)" fill="#ed7a5c"/>
    <path id="Trazado_1006472" data-name="Trazado 1006472" d="M150.09,196.14l6.566-22.5,42.779-.013-8.726,27.409c-1.167-.118-2.4-.045-3.571-.048l-6.644-.014-22.554-.041-5.717-.062a18.4,18.4,0,0,1-3.428-.164Z" transform="translate(-755.305 -776.734)" fill="#334e8d"/>
    <path id="Trazado_1006473" data-name="Trazado 1006473" d="M311.889,259.223a5.1,5.1,0,0,1,1.358-.029,1.944,1.944,0,0,1,1.286.965,2.386,2.386,0,0,1,.172,1.941,2.413,2.413,0,0,1-1.284,1.381,3.137,3.137,0,0,1-1.325.089,1.947,1.947,0,0,1-1.411-.719,2.224,2.224,0,0,1-.331-1.716A2.884,2.884,0,0,1,311.889,259.223Z" transform="translate(-891.946 -849.093)" fill="#fdfefe"/>
    <path id="Trazado_1006474" data-name="Trazado 1006474" d="M-228.021-529.843a9.011,9.011,0,0,1-1.337-2.172,2.465,2.465,0,0,1,1.834.1,8.218,8.218,0,0,1,4.995,3.942l.671,1.573a3.8,3.8,0,0,1,.688-.87l.4-.143a6.764,6.764,0,0,1,3.082,3.837,7.618,7.618,0,0,1-.411,5.913,8.663,8.663,0,0,1-3.672,3.439,5.735,5.735,0,0,0-1.07.62c-.108.117-.025.582,0,.724l.6,4.645a36.085,36.085,0,0,1,.3,4.1c.22,4.626.089,10.524-2.756,14.409a8.179,8.179,0,0,1-5.45,3.635,5.847,5.847,0,0,1-1.8.065c-4.33-.711-8.686-2.018-11.816-5.3-.784-.822-1.342-1.773-2.05-2.649l-.193-.235-.1,1.4-1.144-.734c-4.809-3.369-8.506-9.912-9.493-15.662-.466-2.717-.42-6.137,1.278-8.444a7.625,7.625,0,0,1,5.323-2.848l.259-.036a28.807,28.807,0,0,1,4.127-.134,5.205,5.205,0,0,1,.287-3.512,5.146,5.146,0,0,1,2.117-1.893c3.314-1.774,6.76-.8,10.288-.953a12.7,12.7,0,0,0,3.229-.623,4.851,4.851,0,0,0,1.043-.62A1.951,1.951,0,0,0-228.021-529.843Z" transform="translate(-412.013 -179.64)" fill="#1d2a5e"/>
    <path id="Trazado_1006475" data-name="Trazado 1006475" d="M-48.978-499.524a3.8,3.8,0,0,1,.688-.87l.075.243a2.817,2.817,0,0,0,.319.642,7.779,7.779,0,0,1,.726,2.729l.036.221a7.035,7.035,0,0,1-1.364,5.245,4.1,4.1,0,0,1-2.628,1.606,1.642,1.642,0,0,1-1.429-.347c-.071-.4-.171-.58.073-.935a17.329,17.329,0,0,1,1.637-1.735,7.833,7.833,0,0,0,1.965-6.311A2.455,2.455,0,0,0-48.978-499.524Z" transform="translate(-584.893 -206.514)" fill="#4c4667"/>
    <path id="Trazado_1006476" data-name="Trazado 1006476" d="M-129.54-517.121A1.8,1.8,0,0,1-128.421-516a4.155,4.155,0,0,1-.13,3.467,5.68,5.68,0,0,1-3.037,3.014,14.089,14.089,0,0,1-7.776.289l-.2-.051a1.911,1.911,0,0,1-1.015-.673c.038-.343-.029-.316.263-.568a7.993,7.993,0,0,1,2.574-1.136c2.058-.707,5-1.459,6.582-2.958-.1-.244-.037-.144-.184-.311a4.853,4.853,0,0,0,1.043-.62A1.951,1.951,0,0,0-129.54-517.121Z" transform="translate(-510.494 -192.363)" fill="#4c4667"/>
    <path id="Trazado_1006477" data-name="Trazado 1006477" d="M-217.554-413.275l.1-3.2a5.582,5.582,0,0,1-4.122-.671,4.222,4.222,0,0,1-1.731-2.9,4.722,4.722,0,0,1,.643-3.292,2.6,2.6,0,0,1,1.675-1.052c1.81-.217,2.8,1.352,3.248,2.877.159.538.3,1.466.752,1.8a1.346,1.346,0,0,0,.432-.431,10.723,10.723,0,0,0,.992-2.877c1.233-4.481,1.834-8.9.726-13.474a26.438,26.438,0,0,0,15.592,5.04,35.546,35.546,0,0,0,4.853-.491l.6,4.645a36.086,36.086,0,0,1,.3,4.1c.22,4.626.089,10.524-2.756,14.409a8.179,8.179,0,0,1-5.45,3.635,5.849,5.849,0,0,1-1.8.065c-4.33-.711-8.686-2.018-11.816-5.3-.784-.822-1.342-1.773-2.05-2.649Z" transform="translate(-440.461 -260.575)" fill="#f4b282"/>
    <path id="Trazado_1006478" data-name="Trazado 1006478" d="M-214.041-340.245l-.278.239-.162-.254a3.4,3.4,0,0,1,1.094-1.949,1.817,1.817,0,0,1,1.2-.173,2.142,2.142,0,0,1,.965,1.707,1.68,1.68,0,0,1-.051.652c-.541-.026-.482-.553-1.064-.377a4.107,4.107,0,0,0-.451,1.349l-.3.018-.222-.314a26.507,26.507,0,0,1,1.265-2.341l-.122-.3a1.258,1.258,0,0,0-1-.035A2.888,2.888,0,0,0-214.041-340.245Z" transform="translate(-447.973 -340.173)" fill="#ed7a5c"/>
    <path id="Trazado_1006479" data-name="Trazado 1006479" d="M-63.042-390.335a4.165,4.165,0,0,1,2.134.1.926.926,0,0,1,.521.7,1.65,1.65,0,0,1-.286,1.221,2.714,2.714,0,0,1-1.522-.381c-.755.051-1.526.57-2.286.418a.618.618,0,0,1-.531-.432,1.021,1.021,0,0,1-.031-.729C-64.684-389.959-63.634-390.168-63.042-390.335Z" transform="translate(-574.351 -299.548)" fill="#081456"/>
    <path id="Trazado_1006480" data-name="Trazado 1006480" d="M-139.456-388.412a4.971,4.971,0,0,1,3.037.261c.222.149.177.216.224.454a1.816,1.816,0,0,1-.628,1.064l-2.148-.315c-.869.182-1.461.735-2.289.959l-.306-.28-.013-.451A3.6,3.6,0,0,1-139.456-388.412Z" transform="translate(-509.648 -301.159)" fill="#081456"/>
    <path id="Trazado_1006481" data-name="Trazado 1006481" d="M-54.559-357.441a.768.768,0,0,1,.322-.016,1.361,1.361,0,0,1,.942.713,2.692,2.692,0,0,1,.263,1.933,2.244,2.244,0,0,1-1.049,1.548,1.456,1.456,0,0,1-.752-.082,2.042,2.042,0,0,1-.571-.675,3.609,3.609,0,0,1-.054-2.653C-55.24-357.193-55.052-357.253-54.559-357.441Z" transform="translate(-582.315 -327.429)" fill="#081456"/>
    <path id="Trazado_1006482" data-name="Trazado 1006482" d="M-128.176-356.6a1,1,0,0,1,.353-.05,1.423,1.423,0,0,1,.9.5,2.487,2.487,0,0,1,.541,1.877,2.534,2.534,0,0,1-1,1.88,5.605,5.605,0,0,1-.6.205,1.219,1.219,0,0,1-.745-.554,3.8,3.8,0,0,1-.366-2.578A1.762,1.762,0,0,1-128.176-356.6Z" transform="translate(-520.146 -328.117)" fill="#081456"/>
    <path id="Trazado_1006483" data-name="Trazado 1006483" d="M-104.1-284.678l4.354.018a2.839,2.839,0,0,1,1.441.171,2.344,2.344,0,0,1-.654,2.035,4.2,4.2,0,0,1-.833.556,2.839,2.839,0,0,1-2.25.016C-103.249-282.407-103.676-283.529-104.1-284.678Z" transform="translate(-541.357 -389.009)" fill="#fdfefe"/>
    <path id="Trazado_1006484" data-name="Trazado 1006484" d="M-599.458-528.986l7.443-.033,13.585-.006h7.181a15.32,15.32,0,0,1,3.58.115,4.4,4.4,0,0,1,2.728,2.209,3.23,3.23,0,0,1,.435,1.3c.246,3.012.019,6.2.016,9.23l-.017,9.639c0,1.584.313,3.879-.2,5.357l-.081.21a5.5,5.5,0,0,1-2.9,2.93,17.6,17.6,0,0,0,1.248,3.309c.721,2,1.231,4.043,2.069,6.01l-.236.082L-571-495.008l-2.03-2.071a4.092,4.092,0,0,0-.574-.55,3.749,3.749,0,0,0-1.03-.064l-2.821.01-12.982.058-5.516.025a9.514,9.514,0,0,1-4.181-.457,5.249,5.249,0,0,1-2.734-3.074,12.806,12.806,0,0,1-.168-3.407l-.017-6.136-.012-9.3c0-1.714-.1-3.483.041-5.187a4.3,4.3,0,0,1,.536-1.714A4.578,4.578,0,0,1-599.458-528.986Z" transform="translate(-119.203 -182.251)" fill="#ed7a5c"/>
    <path id="Trazado_1006485" data-name="Trazado 1006485" d="M-524.323-485.622a5.827,5.827,0,0,1,1.315.093,2.642,2.642,0,0,1,1.753,1.384l.1.177c.485.826.232,3,.238,4,1.442-.091,3.368-.471,4.525.6a3.227,3.227,0,0,1,1.068,2.382,2.8,2.8,0,0,1-.84,2.115c-1.279,1.217-3.224.861-4.849.849a9.6,9.6,0,0,1-.135,3.5,3.491,3.491,0,0,1-2.006,1.76l-.378.064a3.1,3.1,0,0,1-2.257-.621c-1.347-1.189-1.054-3.109-1.1-4.743-1.151.01-2.846.205-3.889-.28A3.11,3.11,0,0,1-532.2-475.9a2.923,2.923,0,0,1,.136-2.447c.834-1.574,2.038-1.529,3.6-1.541a3.783,3.783,0,0,0,1.28-.085c.636-.268.3-3.154.692-3.929A3.259,3.259,0,0,1-524.323-485.622Z" transform="translate(-179.011 -219.011)" fill="#fdfefe"/>
    <path id="Trazado_1006486" data-name="Trazado 1006486" d="M509.444-284.935c1.106-.348,2.222-.581,3.306-1.008a18.725,18.725,0,0,0,7.636-5.695l.535,4.627a24.122,24.122,0,0,0,.68,4.677l.05.157.921,2.911c.65.4,1.916.155,2.687.217l4.232.531a22.6,22.6,0,0,1,5.233,1.653,20.278,20.278,0,0,1,3.752,2.516c3.922,3.55,5.985,9.15,8.133,13.882l2,4.539,2.13,5.672-1.533.744,1.057,3.375-7.643,2.965-3.778,1.653a9.473,9.473,0,0,1-1.679.729l-.207-.408a11.759,11.759,0,0,0-1.332,1.262c-.507.6-.775,1.332-1.518,1.632a19.993,19.993,0,0,0-.122,3.98l.063.392a13.178,13.178,0,0,1-2.694.869,18.575,18.575,0,0,1-3.706,1.681c-1.634.722-3.256,1.624-4.927,2.238a6.422,6.422,0,0,0-2.619.759l-4.636,1.625c-1.461.477-3.074.809-4.479,1.393l-.07.026a27.883,27.883,0,0,0-8.3.586,3.68,3.68,0,0,1-.369-.857l-1.079-2.965a15.559,15.559,0,0,0-1.956.844,11.735,11.735,0,0,0-1.83,1.009c-2.648,1.116-7.36,3.312-10.211,2.188a2.394,2.394,0,0,0-.224-.643,5.407,5.407,0,0,1-.572-3.7l.041-.16a4.878,4.878,0,0,1,.246-.757c1.169-2.734,5.7-4.186,8.306-5.172a7.564,7.564,0,0,0,2.235-.632l-.922-3.11a15.1,15.1,0,0,0-.394-1.642l-.781-2.94-1.26-3.821a56.055,56.055,0,0,1-1.99-9.906,34.464,34.464,0,0,1-.135-3.929c.027-1.259.458-3.112.043-4.262l.043-.2a33.472,33.472,0,0,1,2.176-5.821,13.118,13.118,0,0,1,1.243-2.465,9.511,9.511,0,0,1,2.633-2.1l.011-.018a27.237,27.237,0,0,1,8.537-3.388l2.724-.125Z" transform="translate(-1040.791 -383.121)" fill="#f6ae48"/>
    <path id="Trazado_1006487" data-name="Trazado 1006487" d="M568-103.968c.689-.059,2.726-.254,3.244.106l.035.8-.364.178-3.233.009-.15-.263C567.646-103.617,567.606-103.687,568-103.968Z" transform="translate(-1109.553 -541.801)" fill="#fdfefe"/>
    <path id="Trazado_1006488" data-name="Trazado 1006488" d="M556.853-75.644l.116.135a.978.978,0,0,1,.191.608,7.047,7.047,0,0,0,1.985.1l3.915-.013a7.791,7.791,0,0,1,1.514-.007c.123.032.193.164.257.255a1.119,1.119,0,0,1-.253.587l-7.52.143-.216-.215Z" transform="translate(-1100.512 -565.852)" fill="#fdfefe"/>
    <path id="Trazado_1006489" data-name="Trazado 1006489" d="M799.1,21.766a14.253,14.253,0,0,1,.72,2.176,11.754,11.754,0,0,0-1.332,1.262c-.506.6-.775,1.332-1.518,1.632l.214-4.3Z" transform="translate(-1303.659 -648.261)" fill="#c6e7f3"/>
    <path id="Trazado_1006490" data-name="Trazado 1006490" d="M556.517-90.979a8.258,8.258,0,0,1,.033-2.344,46.522,46.522,0,0,1,8.137-.4,13.614,13.614,0,0,1-.192,3.821c-.064-.091-.134-.224-.258-.255a7.791,7.791,0,0,0-1.514.007l-3.915.013a7.047,7.047,0,0,1-1.985-.1.978.978,0,0,0-.191-.608Z" transform="translate(-1100.176 -550.517)" fill="#fbe8b5"/>
    <path id="Trazado_1006491" data-name="Trazado 1006491" d="M812.337-12.642c2.3-.982,4.624-1.776,6.867-2.9,1.556-.779,2.986-1.852,4.566-2.557l1.057,3.375-7.643,2.965-3.778,1.653a9.469,9.469,0,0,1-1.679.729l-.207-.408a14.247,14.247,0,0,0-.72-2.176A12.757,12.757,0,0,1,812.337-12.642Z" transform="translate(-1315.361 -614.535)" fill="#b63c3a"/>
    <path id="Trazado_1006492" data-name="Trazado 1006492" d="M770.492-77.761c-2.914-5.914-4.075-12.545-5.072-19.022.886,1.638,1.358,3.508,2.112,5.215a102.314,102.314,0,0,0,6.413,12.359,12.745,12.745,0,0,0-1.537.682Z" transform="translate(-1276.969 -547.969)" fill="#ee813b"/>
    <path id="Trazado_1006493" data-name="Trazado 1006493" d="M527.794-188.7l-.007.205a5.952,5.952,0,0,1-.43,1.428l-.723,2.406a89.661,89.661,0,0,0-2.4,10.074c-.524,3.206-.867,6.72.83,9.66l.1.169a10.382,10.382,0,0,0,2.894,3.358l-2.275.731-2,.645a56.057,56.057,0,0,1-1.99-9.906,34.463,34.463,0,0,1-.135-3.929c.027-1.259.458-3.113.043-4.262l.043-.2a33.467,33.467,0,0,1,2.176-5.821,13.114,13.114,0,0,1,1.243-2.465A9.513,9.513,0,0,1,527.794-188.7Z" transform="translate(-1070.738 -470.206)" fill="#ee813b"/>
    <path id="Trazado_1006494" data-name="Trazado 1006494" d="M620.111-284.935c1.106-.348,2.222-.581,3.306-1.008a18.725,18.725,0,0,0,7.636-5.695l.535,4.627a24.122,24.122,0,0,0,.68,4.677l.05.157.921,2.911L623.07-263.074a79.633,79.633,0,0,0-4.727,7.766l-1.283-23.884,2.724-.125Z" transform="translate(-1151.458 -383.121)" fill="#ed7a5c"/>
    <path id="Trazado_1006495" data-name="Trazado 1006495" d="M635.074-284.935c1.106-.348,2.222-.581,3.306-1.008a18.725,18.725,0,0,0,7.636-5.695l.535,4.627a47.726,47.726,0,0,1-10.824,5.831,3.791,3.791,0,0,1-.174,1.644,3.062,3.062,0,0,1-.8.219Z" transform="translate(-1166.421 -383.121)" fill="#b63c3a"/>
    <path id="Trazado_1006496" data-name="Trazado 1006496" d="M498.106-58.068l25.73-8.491,7.51,23.914a18.575,18.575,0,0,1-3.706,1.681c-1.633.722-3.256,1.624-4.927,2.238a6.422,6.422,0,0,0-2.619.759l-4.636,1.625c-1.461.477-3.074.808-4.479,1.393l-.07.026a27.883,27.883,0,0,0-8.3.586,3.679,3.679,0,0,1-.369-.857l-1.079-2.965a15.556,15.556,0,0,0-1.956.844,11.735,11.735,0,0,0-1.83,1.009c-2.648,1.116-7.36,3.312-10.211,2.188a2.394,2.394,0,0,0-.224-.643,5.407,5.407,0,0,1-.572-3.7l.041-.16a4.875,4.875,0,0,1,.246-.757c1.169-2.734,5.7-4.186,8.306-5.172a7.564,7.564,0,0,0,2.235-.632l-.922-3.11a15.091,15.091,0,0,0-.394-1.642l-.781-2.94-1.26-3.821,2-.645Z" transform="translate(-1040.79 -573.538)" fill="#334e8d"/>
    <path id="Trazado_1006497" data-name="Trazado 1006497" d="M649.639,16.463c.366-.042.395-.12.713.1l.073.427-.177.247-1.1.051-.284-.021c-.354-.062-.407-.15-.59-.428C648.6,16.509,649.194,16.523,649.639,16.463Z" transform="translate(-1177.864 -643.734)" fill="#081456"/>
    <path id="Trazado_1006498" data-name="Trazado 1006498" d="M659.478,24.3c.365-.058.189-.081.53.075l-.043.376a9.077,9.077,0,0,1-3.615,1.161,1,1,0,0,1-.63-.213c.06-.093.087-.218.178-.281a4.849,4.849,0,0,1,1.053-.286Z" transform="translate(-1184.163 -650.369)" fill="#081456"/>
    <path id="Trazado_1006499" data-name="Trazado 1006499" d="M608.619,67.937l.956-.046c.283.367.25.448.268.919-.533.715-2.714,1.228-3.652,1.354a1.873,1.873,0,0,1-.462.01,4.239,4.239,0,0,1-1.209-1.224,2.044,2.044,0,0,1,.352-.392,3.822,3.822,0,0,1,.863-.161Z" transform="translate(-1140.847 -687.283)" fill="#ed7a5c"/>
    <path id="Trazado_1006500" data-name="Trazado 1006500" d="M678.429-10.036l.01-.528,2.768-.936a1.13,1.13,0,0,1,.469-.09l.146.3c-.186.415-.439.495-.871.65l-2.093.571,1.224,3.543a15.352,15.352,0,0,1,2.6-.5l.164.249c-.65.668-2,.323-2.51,1.053l.2.9c1.035.237,1.919-.831,2.821-.66l.168.359c-.4.6-1.975.8-2.669,1.176a5.221,5.221,0,0,0,.292,1.23,8.411,8.411,0,0,0,2.436-.687l.212.161-.062.32A9.651,9.651,0,0,1,679.3-1.887l-.282-.3.206-.3,1.2,0,.206-.233-.455-1.118a14.2,14.2,0,0,1-2.007.462l-.213-.172.105-.226,1.924-.718Z" transform="translate(-1202.975 -620.042)" fill="#081456"/>
    <path id="Trazado_1006501" data-name="Trazado 1006501" d="M535.5-6.03l2-.645,1.561,5.244a56.224,56.224,0,0,1,8.629-2.4c2.034-.458,4.136-.994,6.2-1.243l.2.276c-.423.636-1.956.945-2.7,1.183L539.447-.364A18.058,18.058,0,0,0,541,3.7a7.664,7.664,0,0,0-2.145,1.779l-.922-3.11a15.091,15.091,0,0,0-.394-1.642l-.781-2.94Z" transform="translate(-1082.459 -624.2)" fill="#1d2a5e"/>
    <path id="Trazado_1006502" data-name="Trazado 1006502" d="M499.335,50.322l4.145-1.894a14.355,14.355,0,0,1-1.984,2.809c2.4-.472,4.159-1.735,6.725-1.254l.275.244-.144.065a7.652,7.652,0,0,0,.211,1.18l-2.884.46a3.817,3.817,0,0,0-.863.161,2.043,2.043,0,0,0-.352.392,4.237,4.237,0,0,0,1.209,1.224l.242.281a16.794,16.794,0,0,0,2.4-.319c.549-.118,1.151-.423,1.677-.225a1.347,1.347,0,0,1-.356.9c-.609.36-2.541.38-2.825.79l.2-.036a6.026,6.026,0,0,1,1.758-.082c-.087.347-.172.375-.47.557-.354.216-2.468.744-2.537.921.937.12,1.825-.089,2.762-.057-2.263,1.378-4.881,1.851-7.362,2.683a15.556,15.556,0,0,0-1.956.844,11.736,11.736,0,0,0-1.83,1.009c-2.648,1.116-7.36,3.312-10.211,2.188a2.4,2.4,0,0,0-.224-.643,5.407,5.407,0,0,1-.572-3.7l.041-.16a4.882,4.882,0,0,1,.246-.757c1.169-2.734,5.7-4.186,8.306-5.172a7.563,7.563,0,0,0,2.235-.632A7.666,7.666,0,0,1,499.335,50.322Z" transform="translate(-1040.789 -670.817)" fill="#ed7a5c"/>
    <path id="Trazado_1006503" data-name="Trazado 1006503" d="M603.114,62.718l-.256-.215A11.963,11.963,0,0,1,607,60.525a7.656,7.656,0,0,0,.211,1.18l-2.884.46a3.816,3.816,0,0,0-.863.161A2.046,2.046,0,0,0,603.114,62.718Z" transform="translate(-1139.442 -681.051)" fill="#334e8d"/>
    <path id="Trazado_1006504" data-name="Trazado 1006504" d="M606.663-563.969l-.1-14.252,78.355-.081-.01,79.954-34.519-.1-2-4.539c-2.148-4.732-4.211-10.332-8.133-13.882a20.285,20.285,0,0,0-3.752-2.516,22.584,22.584,0,0,0-5.233-1.653l-4.232-.531c-.77-.062-2.037.186-2.687-.217l-.921-2.911a8.06,8.06,0,0,0,4.213-2.234c.963.615,1.444,1.368,2.675,1.612a4.819,4.819,0,0,0,3.648-.845,7.321,7.321,0,0,0,3.018-5.087,2.715,2.715,0,0,1,.142-1.312l.876.025a6.475,6.475,0,0,0,1.384-.017,7.107,7.107,0,0,0,4.505-3.089,7.082,7.082,0,0,0,2.447.155l4.943-.037.482-.11a11.142,11.142,0,0,1,1.018-1.176l2.146-2.671c1.919-2.428,4.008-4.621,6.071-6.918l6.163-7.036,8.973-9.954c.933-.984,1.8-2.1,2.82-2.985a1.572,1.572,0,0,1,1.073-.445c.322-2.18-.024-4.507.116-6.722-.746-.359-2.593-.13-3.457-.128l-8.555.033a16.852,16.852,0,0,0-3.117-.023l-10.813-.01-42.915.006.029,7.115C609.723-565.79,608.27-564.618,606.663-563.969Z" transform="translate(-1142.576 -140.604)" fill="#59b7e8"/>
    <path id="Trazado_1006505" data-name="Trazado 1006505" d="M928.488-547.387a21.024,21.024,0,0,1,.1,3.844l.008,6.956.04,27.176-28.53-.069a11.139,11.139,0,0,1,1.018-1.176l2.146-2.671c1.919-2.428,4.008-4.621,6.071-6.918l6.163-7.036,8.973-9.954c.933-.984,1.8-2.1,2.82-2.985a1.572,1.572,0,0,1,1.073-.445C928.693-542.845,928.348-545.172,928.488-547.387Z" transform="translate(-1390.916 -166.758)" fill="#c6e7f3"/>
    <path id="Trazado_1006506" data-name="Trazado 1006506" d="M729.682-296.9a2.715,2.715,0,0,1,.142-1.312l.876.025a6.474,6.474,0,0,0,1.384-.017,7.107,7.107,0,0,0,4.505-3.089,7.082,7.082,0,0,0,2.447.155l4.943-.037-3.629,3.971,32.651.084-.01,28.482-22.3.053-6.447-.018a25.515,25.515,0,0,1-3.158-.033c-2.148-4.732-4.211-10.332-8.133-13.882a20.291,20.291,0,0,0-3.752-2.516,22.587,22.587,0,0,0-5.233-1.653l-4.232-.531c-.77-.062-2.037.186-2.687-.217l-.921-2.911a8.06,8.06,0,0,0,4.213-2.234c.964.615,1.444,1.368,2.675,1.612a4.819,4.819,0,0,0,3.648-.845A7.323,7.323,0,0,0,729.682-296.9Z" transform="translate(-1235.268 -374.952)" fill="#c6e7f3"/>
    <path id="Trazado_1006507" data-name="Trazado 1006507" d="M804.073-296.9a2.714,2.714,0,0,1,.142-1.312l.876.025a6.474,6.474,0,0,0,1.384-.017,7.107,7.107,0,0,0,4.505-3.089,7.083,7.083,0,0,0,2.447.155l4.943-.037-3.629,3.971-10.383.087-.061.068Z" transform="translate(-1309.659 -374.952)" fill="#91d4ed"/>
    <path id="Trazado_1006508" data-name="Trazado 1006508" d="M729.906-273.9l10.43-.029-7.812,8.863a32.126,32.126,0,0,1-3.325,3.182,22.587,22.587,0,0,0-5.233-1.653l-4.232-.531c-.77-.062-2.037.186-2.687-.217l-.921-2.911a8.061,8.061,0,0,0,4.213-2.234c.963.615,1.444,1.368,2.675,1.612a4.819,4.819,0,0,0,3.648-.845,7.322,7.322,0,0,0,3.018-5.087Z" transform="translate(-1235.267 -398.106)" fill="#fdfefe"/>
    <path id="Trazado_1006509" data-name="Trazado 1006509" d="M603.861-548.623l10.813.01a16.852,16.852,0,0,1,3.117.023l8.555-.033c.864,0,2.711-.232,3.457.127-.14,2.215.205,4.542-.116,6.722a1.572,1.572,0,0,0-1.073.445c-1.024.89-1.887,2-2.82,2.985l-8.973,9.954-6.163,7.036c-2.062,2.3-4.152,4.49-6.071,6.918l-2.145,2.671a11.119,11.119,0,0,0-1.018,1.176l-.482.11-4.943.037a7.082,7.082,0,0,1-2.447-.155,7.107,7.107,0,0,1-4.505,3.089,6.464,6.464,0,0,1-1.384.017l-.876-.025a2.716,2.716,0,0,0-.142,1.312,7.321,7.321,0,0,1-3.018,5.087,4.818,4.818,0,0,1-3.648.845c-1.231-.244-1.712-1-2.675-1.612a8.06,8.06,0,0,1-4.213,2.234l-.05-.157a24.124,24.124,0,0,1-.68-4.677l-.535-4.627a18.722,18.722,0,0,1-7.636,5.695c-1.084.426-2.2.66-3.306,1.008a13.521,13.521,0,0,1-3.977-.637,12.427,12.427,0,0,0-1.212-.779,13.873,13.873,0,0,1-3.056-3.059,16.822,16.822,0,0,1-3-12.993c-1.1-1.259-1.214-3.048-1.912-4.522l-.241-.047a10.248,10.248,0,0,1,.24-6.536c1.518-4.125,4.756-6.182,8.595-7.942,1.607-.649,3.06-1.821,4.658-2.578l-.029-7.115Z" transform="translate(-1092.23 -165.649)" fill="#fdfefe"/>
    <path id="Trazado_1006510" data-name="Trazado 1006510" d="M717.855-419.73c1.591.14,3.018-.665,4.635-.582a5.685,5.685,0,0,1,3.66,2.883,6.232,6.232,0,0,1,.384,4.851,12.136,12.136,0,0,1-1.117,2.312,6.443,6.443,0,0,1,4.4,2.644,6.085,6.085,0,0,1,.194,4.711l-.373.923a7.107,7.107,0,0,1-4.505,3.089,6.465,6.465,0,0,1-1.384.017l-.876-.025a2.714,2.714,0,0,0-.142,1.312,7.322,7.322,0,0,1-3.018,5.087,4.818,4.818,0,0,1-3.648.845c-1.231-.244-1.712-1-2.675-1.612a8.061,8.061,0,0,1-4.213,2.234l-.05-.157a24.129,24.129,0,0,1-.68-4.677l-.535-4.627a19.912,19.912,0,0,0,1.139-2.187,13.435,13.435,0,0,1,.731-1.747l.22.116.144.086a2.925,2.925,0,0,0,2.212.22,4.293,4.293,0,0,0,2.184-2.125,4.044,4.044,0,0,0,.326-3.12,2.976,2.976,0,0,0-1.48-1.776,1.958,1.958,0,0,0-1.629.06c-.341-.532-.758-.492-1.109-.991l.291-.34a13.033,13.033,0,0,0,2.5-1.082c2.3-1.385,3.358-3.687,4.025-6.169Z" transform="translate(-1228.318 -274.258)" fill="#0a1330"/>
    <path id="Trazado_1006511" data-name="Trazado 1006511" d="M560.976-505.922a14.489,14.489,0,0,1,7.873-.344,17.069,17.069,0,0,1,10.661,6.689,10.476,10.476,0,0,1,1.61,3.5c.19.8.146,2.9.648,3.314l-.392.173c-.667,2.482-1.724,4.784-4.025,6.169a13.016,13.016,0,0,1-2.5,1.082,7.514,7.514,0,0,1-2.381-.823,2.217,2.217,0,0,0-1.347-.24,44.25,44.25,0,0,0-5.923-3.539,38.044,38.044,0,0,1-8.438-6.725c-4.139,2.495-5.518,5.838-6.644,10.364l-.485,2c-1.1-1.259-1.214-3.048-1.912-4.522l-.241-.047a10.248,10.248,0,0,1,.24-6.536c1.518-4.125,4.756-6.182,8.595-7.942C557.925-503.993,559.377-505.165,560.976-505.922Z" transform="translate(-1092.231 -201.229)" fill="#1d2a5e"/>
    <path id="Trazado_1006512" data-name="Trazado 1006512" d="M607.722-489.789a12.6,12.6,0,0,1,3.189.051,16.748,16.748,0,0,1,4.949,1.376c3.018,1.432,4.805,4.376,5.876,7.406a6.437,6.437,0,0,1-1.02-1.606,11.883,11.883,0,0,0-3.51-3.711,12.892,12.892,0,0,0-3.432-1.382c-4.848-1.148-8.672.294-12.751,2.776-.249-.244-.218-.134-.269-.447a1.049,1.049,0,0,1,.192-.94C602.454-488.349,605.31-489.323,607.722-489.789Z" transform="translate(-1137.634 -215.418)" fill="#5d71a6"/>
    <path id="Trazado_1006513" data-name="Trazado 1006513" d="M562.555-429.477l.485-2c1.126-4.526,2.505-7.869,6.644-10.364a38.039,38.039,0,0,0,8.438,6.725,44.246,44.246,0,0,1,5.923,3.539,2.215,2.215,0,0,1,1.347.24,7.511,7.511,0,0,0,2.381.823l-.291.341c.351.5.768.459,1.109.991a1.958,1.958,0,0,1,1.629-.06,2.976,2.976,0,0,1,1.48,1.776,4.046,4.046,0,0,1-.326,3.12,4.293,4.293,0,0,1-2.184,2.125,2.925,2.925,0,0,1-2.213-.22l-.144-.086-.22-.116a13.429,13.429,0,0,0-.732,1.747,19.881,19.881,0,0,1-1.139,2.187,18.722,18.722,0,0,1-7.636,5.695c-1.084.426-2.2.66-3.306,1.008a13.52,13.52,0,0,1-3.977-.637,12.418,12.418,0,0,0-1.212-.778,13.873,13.873,0,0,1-3.056-3.059A16.824,16.824,0,0,1,562.555-429.477Z" transform="translate(-1105.149 -256.047)" fill="#ed7a5c"/>
    <path id="Trazado_1006514" data-name="Trazado 1006514" d="M575.535-387.32l.5-.046a3.653,3.653,0,0,1,2.643.536.732.732,0,0,1-.357.624l-1.187-.457a8.171,8.171,0,0,0-1.765.072,5.586,5.586,0,0,1-1.5.316,1.188,1.188,0,0,1,.685-.725Z" transform="translate(-1114.918 -302.114)" fill="#081456"/>
    <path id="Trazado_1006515" data-name="Trazado 1006515" d="M649.522-386.92l.562-.008a5.2,5.2,0,0,1,3.818,1.255l-.057.3a2.245,2.245,0,0,1-1.283-.293,10.4,10.4,0,0,0-3.646-.241,1.176,1.176,0,0,1-.827-.347l.075-.249a1.861,1.861,0,0,1,.42-.2Z" transform="translate(-1177.707 -302.506)" fill="#0a1330"/>
    <path id="Trazado_1006516" data-name="Trazado 1006516" d="M614.274-350.457l.28.1c.2,1.79-.613,3.191-.993,4.867l.2.3a11.1,11.1,0,0,0,2.329.417l-.022.226-.6.262a4.2,4.2,0,0,1-.81.1,2.308,2.308,0,0,1-1.931-.7c-.331-.966.828-2.666,1.126-3.651C614.039-349.164,614.131-349.824,614.274-350.457Z" transform="translate(-1147.74 -333.36)" fill="#7f202c"/>
    <path id="Trazado_1006517" data-name="Trazado 1006517" d="M721.7-349.768l.229.265a9.842,9.842,0,0,1,1.354-.437,6.319,6.319,0,0,1,1.127-.189l.149.25a4.044,4.044,0,0,1-1.089.83l-.106.143a17.963,17.963,0,0,0-1.588,2.019l-.89,1.479,0-.405a14.834,14.834,0,0,1,.229-2.621l-.075-.389Z" transform="translate(-1239.294 -333.638)" fill="#eb4f45"/>
    <path id="Trazado_1006518" data-name="Trazado 1006518" d="M660.64-363.952l.475-.146c.461.1.557.085.883.446l-.369.526.258.526c-.11.868.026,1.467-.648,2.105l-.209.061a.958.958,0,0,1-.934-.244,1.937,1.937,0,0,1-.515-1.517A2.307,2.307,0,0,1,660.64-363.952Z" transform="translate(-1187.424 -321.821)" fill="#0a1330"/>
    <path id="Trazado_1006519" data-name="Trazado 1006519" d="M585.273-364.479a1.6,1.6,0,0,1,.895,0c.1.15.287.273.29.451,0,.083-.268.283-.276.376,0,.041.2.228.218.3a5.136,5.136,0,0,1,.036,1.5,1.392,1.392,0,0,1-.638,1.171,1.021,1.021,0,0,1-.371,0,1.273,1.273,0,0,1-.953-.69,3.412,3.412,0,0,1-.1-2.207A1.6,1.6,0,0,1,585.273-364.479Z" transform="translate(-1123.686 -321.444)" fill="#0a1330"/>
    <path id="Trazado_1006520" data-name="Trazado 1006520" d="M703.375-375.338a2.216,2.216,0,0,1,1.347.24,7.512,7.512,0,0,0,2.381.823l-.291.341c.351.5.768.459,1.109.991a4.934,4.934,0,0,0-1.032,1.827l-.661.945A13.307,13.307,0,0,0,703.375-375.338Z" transform="translate(-1224.479 -312.289)" fill="#081456"/>
    <path id="Trazado_1006521" data-name="Trazado 1006521" d="M611.011-301.154l.645-.049.156.235a5.322,5.322,0,0,1-.647,1.8,4.325,4.325,0,0,1-2.651,2.217,2.843,2.843,0,0,1-2.1-.689,5.819,5.819,0,0,1-1.66-3.491A13.212,13.212,0,0,0,611.011-301.154Z" transform="translate(-1141.049 -375.029)" fill="#fdfefe"/>
    <path id="Trazado_1006522" data-name="Trazado 1006522" d="M583.961,3.816a104.972,104.972,0,0,1,2.816,12.953c.022,1.629.005,2.82-1.194,4.08-2.158,2.266-6.575,2.771-9.5,3.543-2.031.536-4.111,1.216-6.18,1.581l1.62,3.83a55.214,55.214,0,0,1,3.24,10.635,115.446,115.446,0,0,1,2.511,18.684l.5,7.781,1.19,15.044a17.031,17.031,0,0,1-3.48.741L563.6,83.932l-6.887.41a13.39,13.39,0,0,0-3.592.253,5.379,5.379,0,0,1-1.6.063c-1.264-.416-3.215-.2-4.554-.226l-7.783-.287A83.541,83.541,0,0,1,529.011,82.8l-.187.183a10.388,10.388,0,0,0-2.736-.782l.066-10.414.09-3.072a4.345,4.345,0,0,0-.078-1.686,6.505,6.505,0,0,0,.235-2.271l.2-5.435,2.474-25.633,2-10.462a11.75,11.75,0,0,1,1.83-1.009,15.557,15.557,0,0,1,1.956-.844l1.079,2.965a3.684,3.684,0,0,0,.369.857,27.883,27.883,0,0,1,8.3-.586l.07-.026c1.405-.584,3.018-.916,4.479-1.393l4.636-1.625a6.424,6.424,0,0,1,2.619-.759c1.67-.614,3.293-1.516,4.927-2.238a18.575,18.575,0,0,0,3.706-1.681,13.176,13.176,0,0,0,2.694-.869l-.063-.392a20,20,0,0,1,.122-3.98c.743-.3,1.011-1.028,1.518-1.632a11.768,11.768,0,0,1,1.332-1.262l.207.408a9.493,9.493,0,0,0,1.679-.729l3.778-1.653Z" transform="translate(-1074.494 -633.075)" fill="#48c6ba"/>
    <path id="Trazado_1006523" data-name="Trazado 1006523" d="M570.357,118.694a15.559,15.559,0,0,1,1.956-.844l1.079,2.965a3.684,3.684,0,0,0,.369.857l-2.067.952Z" transform="translate(-1111.946 -729.548)" fill="#1d2a5e"/>
    <path id="Trazado_1006524" data-name="Trazado 1006524" d="M627,148.23a7.368,7.368,0,0,0,2.763-.539l1.62,3.83c-.484.078-1.387.082-1.7.44l.248,1.227-30.6,7.729-.655.162a4.228,4.228,0,0,1-.661-1.538l-1.106-3.382-.063-.261a17.75,17.75,0,0,0,9.1-2.465,8.4,8.4,0,0,1,2.436-1.317Z" transform="translate(-1134.352 -754.794)" fill="url(#linear-gradient)"/>
    <path id="Trazado_1006525" data-name="Trazado 1006525" d="M597.252,202.063a5.176,5.176,0,0,1,1.43-.1,5.466,5.466,0,0,1,.275,1.692c.183,1.059.443,2.127.718,3.165l-.655.162a4.228,4.228,0,0,1-.661-1.538Z" transform="translate(-1134.699 -800.698)" fill="#081456"/>
    <path id="Trazado_1006526" data-name="Trazado 1006526" d="M618.952,3.816a105.006,105.006,0,0,1,2.816,12.953c.022,1.629.005,2.82-1.194,4.08-2.158,2.266-6.575,2.771-9.5,3.543-2.031.536-4.111,1.216-6.18,1.581a7.369,7.369,0,0,1-2.763.539L583.507,30.4a8.4,8.4,0,0,0-2.436,1.317,17.752,17.752,0,0,1-9.1,2.465l-.473-.51-.668-.619-.306-.815.421-.49-.026-.226c-.711-.215-1.15-.915-1.712-1.375a8.609,8.609,0,0,0-.925-.564c-.453-.284-.72-.4-.839-.919.381-.4.784-.393,1.29-.526l1.521-.48a6.176,6.176,0,0,0,2.087-.648l-.149-.089a4.237,4.237,0,0,1-2.9.089l-.06-.859L571.3,25.2a27.883,27.883,0,0,1,8.3-.586l.07-.026c1.405-.584,3.018-.916,4.479-1.393l4.636-1.625a6.424,6.424,0,0,1,2.619-.759c1.67-.614,3.293-1.516,4.926-2.238a18.572,18.572,0,0,0,3.706-1.681,13.176,13.176,0,0,0,2.694-.869l-.063-.392a19.994,19.994,0,0,1,.122-3.98c.743-.3,1.011-1.028,1.518-1.632a11.759,11.759,0,0,1,1.332-1.262l.207.408a9.495,9.495,0,0,0,1.679-.729l3.778-1.653Z" transform="translate(-1109.486 -633.075)" fill="#ed7a5c"/>
    <path id="Trazado_1006527" data-name="Trazado 1006527" d="M589.437,187.167l6.549-1.181c-1.867.927-3.913,1.173-5.881,1.8Z" transform="translate(-1128.088 -787.191)" fill="#b63c3a"/>
    <path id="Trazado_1006528" data-name="Trazado 1006528" d="M646.381,117.933l.07-.026c1.405-.584,3.018-.916,4.479-1.393l4.636-1.625a6.425,6.425,0,0,1,2.619-.759l-7.823,3.694a8.079,8.079,0,0,1-1.613.7A12.086,12.086,0,0,1,646.381,117.933Z" transform="translate(-1176.262 -726.394)" fill="#1d2a5e"/>
    <path id="Trazado_1006529" data-name="Trazado 1006529" d="M800.109,54.268l1.028,3.8-4.9.638-.063-.392c.1.029.2.113.3.086.272-.073.8-1.012.979-1.259A9.3,9.3,0,0,1,800.109,54.268Z" transform="translate(-1302.988 -675.758)" fill="#c6e7f3"/>
    <path id="Trazado_1006530" data-name="Trazado 1006530" d="M798.838,35.893l.207.408.755,2.422a9.312,9.312,0,0,0-2.651,2.872c-.178.247-.706,1.186-.979,1.259-.1.027-.2-.057-.3-.086a19.994,19.994,0,0,1,.122-3.98c.743-.3,1.011-1.028,1.518-1.632A11.766,11.766,0,0,1,798.838,35.893Z" transform="translate(-1302.678 -660.213)" fill="#fdfefe"/>
    <path id="Trazado_1006531" data-name="Trazado 1006531" d="M792.66,97.668a54.69,54.69,0,0,1,5.352-1.912c2.575-.691,5.292-1.115,7.8-2.009a12.023,12.023,0,0,0,6.483-5.822c.022,1.629.005,2.82-1.194,4.08-2.158,2.266-6.575,2.771-9.5,3.543-2.031.536-4.111,1.216-6.18,1.581A7.369,7.369,0,0,1,792.66,97.668Z" transform="translate(-1300.014 -704.232)" fill="#b63c3a"/>
    <path id="Trazado_1006532" data-name="Trazado 1006532" d="M58.04-585.216l45.457-.071-.075,59.814-14.753-.018L43.5-525.5l-.094-59.649Z" transform="translate(-666.148 -134.694)" fill="#59b7e8"/>
    <path id="Trazado_1006533" data-name="Trazado 1006533" d="M65.492-563.96l52.569,0,.068,52.979L65.471-511Z" transform="translate(-684.812 -152.737)" fill="#fdfefe"/>
    <path id="Trazado_1006534" data-name="Trazado 1006534" d="M88.822-539.521l45.442.01-.108,44.725-34.082-.029-8.037,0a11.819,11.819,0,0,1-3.182-.085Z" transform="translate(-704.567 -173.412)" fill="#91d4ed"/>
    <path id="Trazado_1006535" data-name="Trazado 1006535" d="M113.378-489.224l.407-.077c1.124-.122,2.378-.018,3.514-.023l7.288-.012a12.349,12.349,0,0,1,2.807.017c.082.029.13.114.2.171l-.045,1.017c-.653.437-12.426.224-14.086.111A1.815,1.815,0,0,1,113.378-489.224Z" transform="translate(-725.289 -215.798)" fill="#fdfefe"/>
    <path id="Trazado_1006536" data-name="Trazado 1006536" d="M254.415-405.683c1.993-.036,15.259-.3,16,.226a2.28,2.28,0,0,1-.119,1.359c-3.851.237-7.85.014-11.714.01l-2.959,0a2.848,2.848,0,0,1-1.471-.164l-.008-1.2Z" transform="translate(-844.43 -286.556)" fill="#fdfefe"/>
    <path id="Trazado_1006537" data-name="Trazado 1006537" d="M118.44-379.334c1.652-.019,10.542-.319,11.415.228a4.833,4.833,0,0,1-.055,1.355,8.658,8.658,0,0,1-1.937.1l-3.59.024L116-377.634a10.993,10.993,0,0,1-3.023-.093l-.017-1.531Z" transform="translate(-724.989 -308.847)" fill="#fdfefe"/>
    <path id="Trazado_1006538" data-name="Trazado 1006538" d="M112.289-405.347l.194-.058c1-.21,18.41-.192,19-.045a1.216,1.216,0,0,1,.279.158,2.449,2.449,0,0,1-.111,1.3l-15.9.033-2.411.006a4.431,4.431,0,0,1-.806,0,1.364,1.364,0,0,1-.225-.191Z" transform="translate(-724.42 -286.742)" fill="#fdfefe"/>
    <path id="Trazado_1006539" data-name="Trazado 1006539" d="M112.619-430.087a22.71,22.71,0,0,1,3.376-.065l6.986,0,11.78.047a28.392,28.392,0,0,1,5.234.134,3.1,3.1,0,0,1-.029,1.255,17.294,17.294,0,0,1-2.95.093l-5.7.016-13.463-.007-3.587-.012a5.578,5.578,0,0,1-1.7-.11A3.852,3.852,0,0,1,112.619-430.087Z" transform="translate(-724.628 -265.912)" fill="#fdfefe"/>
    <path id="Trazado_1006540" data-name="Trazado 1006540" d="M112.238-452.866l9.646-.063,18.792-.026h7.365a13.625,13.625,0,0,1,2.565.01.8.8,0,0,1,.336.155c.02.545.125.846-.186,1.307l-28.92,0-7.106-.01a8.1,8.1,0,0,1-2.775-.161A2,2,0,0,1,112.238-452.866Z" transform="translate(-724.139 -246.592)" fill="#fdfefe"/>
    <path id="Trazado_1006541" data-name="Trazado 1006541" d="M115.342-280.923a15.579,15.579,0,0,1,3.211-.063l7.977,0,18.31,0c2.982,0,6.125-.2,9.09.069a2.9,2.9,0,0,1,.111,1.5,8.763,8.763,0,0,1-2.336.088l-5.11,0-20.568,0-7.409.008a14.368,14.368,0,0,1-3.3-.1A4.962,4.962,0,0,1,115.342-280.923Z" transform="translate(-726.94 -392.066)" fill="#fdfefe"/>
    <path id="Trazado_1006542" data-name="Trazado 1006542" d="M-349.857-285.732l.192.235c.708.876,1.267,1.827,2.05,2.649,3.13,3.283,7.486,4.59,11.816,5.3a18.566,18.566,0,0,1-.346,2.694,7.05,7.05,0,0,0,1.526,3.467c2.052.315,3.692,1.925,5.115,3.331a16.293,16.293,0,0,1,11.667,5.807,26.555,26.555,0,0,1,4.424,7.3c.9,2.094,1.587,4.309,2.31,6.471l2.939,8.872a43.023,43.023,0,0,0,2.29,6.614,1.328,1.328,0,0,0,.569.682,4.979,4.979,0,0,0,2.761-2.033c1.469-1.693,2.765-3.54,4.062-5.366a76.557,76.557,0,0,1,5.405-7.37l1.289.735,4.882,3.169,2.593,1.7c-3.085,7.643-9.295,24.083-17.21,27.4a5.7,5.7,0,0,1-4.417-.089c-4.217-1.714-7.447-6.458-9.678-10.252a28.8,28.8,0,0,1-1.942-3.645l-.34-.966-.026,3.962a5.593,5.593,0,0,0,.028,1.239,18.329,18.329,0,0,0-.392,4.938c.115.234.436.7.366.949a3.009,3.009,0,0,1-.8,1.036,11.7,11.7,0,0,0,1.175,4.63l2.865-.368,4.266-.464c.69-.087,1.121.389,1.73.6.55.192,1.158.176,1.729.366l.3.358c-.08.606-.286.725-.788,1.085a17.118,17.118,0,0,1-5.538,2.254,58.447,58.447,0,0,1,4.575,5.564,51.025,51.025,0,0,0,3.87,4.272,49.4,49.4,0,0,0,4.732,4.123,18.451,18.451,0,0,1,2.75,2.008l-1.3,4.565-16.54-.042-3.775.047,4.454,2.743,8.144,7.342.152.231a25.147,25.147,0,0,0,3.613,3.513,9.823,9.823,0,0,1,1.276,1.163,5.872,5.872,0,0,0-1.569-.446c-.772-.023-1.608.272-2.4.31a42.835,42.835,0,0,0-5.21,1.3c-4.493,1.563-8.849,4.249-12.907,6.7a87.71,87.71,0,0,1-6.6-17.745l-6.74.106a7.412,7.412,0,0,0-2.507.177l-.111.243-.013-.01-1.721-14.56a65.5,65.5,0,0,1-14.491-.691,47.224,47.224,0,0,1-11.814-4.255,12.87,12.87,0,0,1-4-3.995c-.156-.229-.233-.224-.478-.336l.355-4.476,1.3,1.1.292.054c-.035-.18-.914-.857-1.1-1.041a21.121,21.121,0,0,1-1.747-2.089,30.053,30.053,0,0,1-3.831-6.986,68.977,68.977,0,0,1-3.249-17.712,63.517,63.517,0,0,1-.046-8.638c.275-5.183,1.57-10.1,5.159-13.98,4.58-4.957,12.01-8.013,18.694-8.266a8.551,8.551,0,0,1,4.3-4.042l1.21-7.239c.143-1.016.041-2.092.243-3.077l.062-1.825Z" transform="translate(-308.157 -388.118)" fill="#fdfefe"/>
    <path id="Trazado_1006543" data-name="Trazado 1006543" d="M-52.245,44.067l.908-.009-.109,1.461a3.358,3.358,0,0,1-.875.139Z" transform="translate(-585.16 -667.12)" fill="#229ada"/>
    <path id="Trazado_1006544" data-name="Trazado 1006544" d="M10.883,54.037l.913.17a2.369,2.369,0,0,1,1.045,1.64,1.989,1.989,0,0,1-.677,1.493,2.07,2.07,0,0,1-1.35.619,2.839,2.839,0,0,1-1.879-1.618l.058-.875.4-.928A4.724,4.724,0,0,1,10.883,54.037Z" transform="translate(-636.983 -675.562)" fill="#1d2a5e"/>
    <path id="Trazado_1006545" data-name="Trazado 1006545" d="M-59.189,53.682a3.359,3.359,0,0,0,.875-.139c.935.3,1.485.437,1.949,1.359a1.241,1.241,0,0,1,.105.244l.053.919a2.567,2.567,0,0,1-.681.912,2.4,2.4,0,0,1-1.828.453,2.015,2.015,0,0,1-1.342-.881,1.915,1.915,0,0,1-.361-1.385C-60.3,54.416-59.774,54.071-59.189,53.682Z" transform="translate(-578.292 -675.144)" fill="#1d2a5e"/>
    <path id="Trazado_1006546" data-name="Trazado 1006546" d="M-46.27-51.924a2.379,2.379,0,0,1,.072,1.3,4.9,4.9,0,0,0-3.023,2.085,5.171,5.171,0,0,0-.472,1.177l-.075.241a20.85,20.85,0,0,0-.548,3.853l-.6,6.13-.908.009L-51.3-44a15.158,15.158,0,0,1,.858-4.542C-49.563-50.59-48.193-51.128-46.27-51.924Z" transform="translate(-585.578 -585.919)" fill="url(#linear-gradient-2)"/>
    <path id="Trazado_1006547" data-name="Trazado 1006547" d="M-6.809-52.256c1.685.321,2.943.677,3.963,2.207,1.646,2.468,1.305,6.165,1.317,8.992l.005,5.34-.913-.17-.134-4.506c-.035-2.779.332-6.686-1.255-9.087a3.734,3.734,0,0,0-2.841-1.558A4.011,4.011,0,0,1-6.809-52.256Z" transform="translate(-623.664 -585.638)" fill="#229ada"/>
    <path id="Trazado_1006548" data-name="Trazado 1006548" d="M-86.695-192.58c2.052.315,3.692,1.925,5.115,3.331A29.536,29.536,0,0,1-78-184.228a33.624,33.624,0,0,1,2.87,8.865c.284,1.392.335,3.069.741,4.393a4.009,4.009,0,0,0,.142,1.218l-.2.846a1.152,1.152,0,0,1-.815.138,2.725,2.725,0,0,1-.43-.856,2.379,2.379,0,0,0-.072-1.3l-1.669-8.1c-1.38-4.545-4.171-9.7-8.5-12.025A16.7,16.7,0,0,1-86.695-192.58Z" transform="translate(-556.08 -466.924)" fill="#0c5ba1"/>
    <path id="Trazado_1006549" data-name="Trazado 1006549" d="M-228.49-197.8a8.64,8.64,0,0,1-.1,1.061,12.068,12.068,0,0,0-4.393,8.217c-.484,4.662.724,9.452,2.1,13.872a23.151,23.151,0,0,0,1.33,3.765,2.055,2.055,0,0,1-1.121.6c-2.666-7.5-5.6-15.738-2.11-23.471A8.549,8.549,0,0,1-228.49-197.8Z" transform="translate(-431.134 -462.504)" fill="url(#linear-gradient-3)"/>
    <path id="Trazado_1006550" data-name="Trazado 1006550" d="M-276.119,233.371l.223.059c1.7.468,3.317,1.307,5.043,1.748a62.006,62.006,0,0,0,8.189,1.528l5.575.5a21.71,21.71,0,0,0,3.169.042c2.34-.041,5.407.057,7.337-1.4a12.244,12.244,0,0,0,1.654-1.521l.06.189-.136.249c-.291.6.071,1.658.119,2.308.055.742.035,1.5.031,2.244l-.236.154c-.583.385-1.071.888-1.671,1.252-1.788,1.084-4.309,1.2-6.356,1.491a27.478,27.478,0,0,1-.312-4.72,71.234,71.234,0,0,1-15.478-1.644C-270.115,235.594-275.589,234.2-276.119,233.371Z" transform="translate(-395.827 -827.279)" fill="#0b7acc"/>
    <path id="Trazado_1006551" data-name="Trazado 1006551" d="M-220.289-24.26a3.72,3.72,0,0,1,2.945.182,4.107,4.107,0,0,1,2.256,2.416,4.446,4.446,0,0,1-.148,3.771,5.01,5.01,0,0,1-3.152,2.177,4.231,4.231,0,0,1-3.192-.772,4.1,4.1,0,0,1-1.81-2.889,4.451,4.451,0,0,1,.959-3.331,4.373,4.373,0,0,1,1.021-.956A2.054,2.054,0,0,0-220.289-24.26Z" transform="translate(-440.404 -609.135)" fill="#db3533"/>
    <path id="Trazado_1006552" data-name="Trazado 1006552" d="M-210.258-12.342a3.235,3.235,0,0,1,1.485.036,3.056,3.056,0,0,1,1.651,1.541,3.052,3.052,0,0,1,.05,2.052,2.627,2.627,0,0,1-1.614,1.335,6.6,6.6,0,0,1-1.81-.032,2.229,2.229,0,0,1-1.243-.873,2.745,2.745,0,0,1-.32-2.046A3.582,3.582,0,0,1-210.258-12.342Z" transform="translate(-449.963 -619.347)" fill="#fdfefe"/>
    <path id="Trazado_1006553" data-name="Trazado 1006553" d="M-118.612,272.023l.752,7.161a87.314,87.314,0,0,0,2.058,9.884l-6.74.106a7.411,7.411,0,0,0-2.507.177l-.111.243-.013-.01-1.721-14.56.019-.1c2.048-.293,4.568-.407,6.356-1.491.6-.364,1.088-.867,1.671-1.252Z" transform="translate(-522.071 -859.979)" fill="#229ada"/>
    <path id="Trazado_1006554" data-name="Trazado 1006554" d="M-40.364-44.344a3.733,3.733,0,0,1,2.841,1.558c1.588,2.4,1.22,6.308,1.255,9.087l.134,4.506a4.721,4.721,0,0,0-1.491.5l-.4.928-.058.875-6.452.142-.053-.919a1.25,1.25,0,0,0-.105-.244c-.464-.922-1.014-1.061-1.949-1.359l.109-1.461.6-6.13a20.855,20.855,0,0,1,.548-3.853l.075-.241a5.157,5.157,0,0,1,.472-1.177,4.9,4.9,0,0,1,3.023-2.085,2.725,2.725,0,0,0,.43.856,1.151,1.151,0,0,0,.815-.138Z" transform="translate(-589.967 -592.332)" fill="#fdfefe"/>
    <path id="Trazado_1006555" data-name="Trazado 1006555" d="M-33.3,63.414l6.562-.1-.058.875-6.452.142Z" transform="translate(-601.251 -683.412)" fill="#229ada"/>
    <path id="Trazado_1006556" data-name="Trazado 1006556" d="M-54.054,148.311c.115.234.436.7.366.949a3.008,3.008,0,0,1-.8,1.036,11.694,11.694,0,0,0,1.175,4.63l2.865-.368,4.266-.464c.69-.087,1.121.389,1.73.6.55.193,1.158.176,1.729.366l.3.358c-.08.606-.286.726-.788,1.085a17.118,17.118,0,0,1-5.538,2.254,32.024,32.024,0,0,1-5.133.762,13.57,13.57,0,0,0-2.176.122,53.107,53.107,0,0,1-10.515-.564,8.962,8.962,0,0,0-.841-5.313c1.365-.664,2.607-1.55,3.982-2.188a18.979,18.979,0,0,1,3.141-1.173c.659-.173,1.361-.252,2-.484C-56.845,149.4-55.551,148.731-54.054,148.311Z" transform="translate(-572.392 -755.318)" fill="#ee813b"/>
    <path id="Trazado_1006557" data-name="Trazado 1006557" d="M-10.226,165.825a12.275,12.275,0,0,1-6.256-1.749A19.384,19.384,0,0,0-11.4,161.2,11.694,11.694,0,0,0-10.226,165.825Z" transform="translate(-615.48 -766.218)" fill="#fdfefe"/>
    <path id="Trazado_1006558" data-name="Trazado 1006558" d="M-326.764,206.674l.355-4.476,1.3,1.1.292.054a5.744,5.744,0,0,1,1.028.672l2.707,1.8A15.06,15.06,0,0,1-318.965,207c.53.827,6,2.223,7.209,2.486a71.23,71.23,0,0,0,15.478,1.644,27.478,27.478,0,0,0,.312,4.72l-.019.1a65.5,65.5,0,0,1-14.491-.691,47.222,47.222,0,0,1-11.814-4.255,12.87,12.87,0,0,1-4-3.995C-326.442,206.782-326.519,206.786-326.764,206.674Z" transform="translate(-352.982 -800.906)" fill="#cbd6eb"/>
    <path id="Trazado_1006559" data-name="Trazado 1006559" d="M6.324,217.027a13.553,13.553,0,0,1,2.176-.122,32.039,32.039,0,0,0,5.133-.762,58.453,58.453,0,0,1,4.575,5.564,51.025,51.025,0,0,0,3.87,4.272A49.4,49.4,0,0,0,26.81,230.1a18.449,18.449,0,0,1,2.75,2.008l-1.3,4.565-16.54-.042a.893.893,0,0,0,.106-.292,5.716,5.716,0,0,0-.446-1.024l-1.127-2.96a78.526,78.526,0,0,1-3.5-15.191Z" transform="translate(-634.774 -812.704)" fill="#c6e7f3"/>
    <path id="Trazado_1006560" data-name="Trazado 1006560" d="M-208.155-285.732l.193.235c.708.876,1.267,1.827,2.05,2.649,3.13,3.283,7.486,4.59,11.816,5.3a18.555,18.555,0,0,1-.346,2.694,7.05,7.05,0,0,0,1.526,3.467,16.684,16.684,0,0,0,.754,1.534,8.507,8.507,0,0,0,.456,1.3c.671,1.088.693,2.656.892,3.9.357,2.241.71,4.454.857,6.723.546,8.388-.3,16.894-.528,25.287l-.2,18.53a6.855,6.855,0,0,0-2.559-1.809c-1.729-.6-3.692-.271-5.474-.578a69.527,69.527,0,0,1-13.53-3.712.689.689,0,0,1,.224-.092,5.566,5.566,0,0,1,1.051.367l2.868.933,9.087,2.307a76.871,76.871,0,0,0,.2-8.707,62.05,62.05,0,0,0-1.895-9.708l-5.045-17.639-2.6-7.63c-.555-1.576-1.2-3.113-1.648-4.725l-.912-2a3.449,3.449,0,0,1-.318-.655,2.23,2.23,0,0,1,.333-.871,8.925,8.925,0,0,0,1.013-2.355l.025-.146a8.61,8.61,0,0,0,.1-1.061l1.21-7.239c.144-1.016.041-2.092.243-3.077l.062-1.825Z" transform="translate(-449.86 -388.118)" fill="#229ada"/>
    <path id="Trazado_1006561" data-name="Trazado 1006561" d="M-202.587-285.732l.192.235c.708.876,1.267,1.827,2.05,2.649,3.13,3.283,7.486,4.59,11.816,5.3a18.559,18.559,0,0,1-.346,2.694,7.05,7.05,0,0,0,1.526,3.467,16.684,16.684,0,0,0,.754,1.534,8.506,8.506,0,0,0,.456,1.3c-.509,2.7-1.149,5.874-3.519,7.583-1.976,1.424-4.76,1.545-7.072,1.091-3.344-.657-5.58-2.765-7.711-5.224l-.912-2a3.45,3.45,0,0,1-.318-.655,2.231,2.231,0,0,1,.333-.871,8.925,8.925,0,0,0,1.013-2.355l.025-.146a8.607,8.607,0,0,0,.1-1.061l1.21-7.239c.144-1.016.041-2.092.243-3.077l.062-1.825Z" transform="translate(-455.428 -388.118)" fill="#f4b282"/>
    <path id="Trazado_1006562" data-name="Trazado 1006562" d="M-186.571-285.732l.192.235c.708.876,1.267,1.827,2.05,2.649,3.13,3.283,7.486,4.59,11.816,5.3a18.559,18.559,0,0,1-.346,2.694,2.879,2.879,0,0,1-.815.974,5.322,5.322,0,0,1-3.519.142,13.553,13.553,0,0,1-8.6-5.684,4.242,4.242,0,0,1-.936-3.085l.062-1.825Z" transform="translate(-471.444 -388.118)" fill="#eb4f45"/>
    <path id="Trazado_1006563" data-name="Trazado 1006563" d="M-606.021,143.952l25.96-.016a30.045,30.045,0,0,0,3.831,6.986,21.108,21.108,0,0,0,1.747,2.089c.186.184,1.065.861,1.1,1.041l-.292-.054-1.3-1.1-.355,4.476c.245.112.322.107.478.336a12.869,12.869,0,0,0,4,3.995,47.221,47.221,0,0,0,11.814,4.255,65.5,65.5,0,0,0,14.491.691l1.721,14.56.013.01a87.918,87.918,0,0,0,2.148,10.715,33.682,33.682,0,0,0,2.225,6.423l1.05,2.835a43.893,43.893,0,0,1,3.133,8.033,16.065,16.065,0,0,1,.75,4.219l7.235,0,.608,1.8,6.7.18-1.3,19.594a32.805,32.805,0,0,1-.295,4.25l-.136-.429c-.806.585-1.554,2.873-1.957,3.8a50.2,50.2,0,0,1-2.476,5.138,55.109,55.109,0,0,1-8.727,11.182,39.732,39.732,0,0,1-6.015,5.164,8.809,8.809,0,0,1-2.622,1.469l-.31,3.983c-.04.44.013,1.041-.306,1.342-.489.7-.437,2.238-.583,3.086a14.348,14.348,0,0,0-3.849.067l-10.68.415-.09-.293-1.42-.072a21.185,21.185,0,0,0-3.837,0l-9.75.057,1.392-11.2.361-2.928-10.594-.106-.274-.267c-2.467-2.424-2.918-4.5-2.954-7.873l-3.368.011-.71.016-.65-.08-.66.069a3.78,3.78,0,0,1-1.431-.042l-.522.036-3.637-11.078a2.5,2.5,0,0,0,.373-.652,32.852,32.852,0,0,0-3.07-5.639,3.62,3.62,0,0,0,1.468-1.863c.459-2.018-1.038-4.952-2.119-6.577l-.012-.088c-2.815-3.766-6.485-6.224-10.39-8.726l1.349-.153a1.672,1.672,0,0,0,1.24-.738,1.9,1.9,0,0,0,.685-.966,16.79,16.79,0,0,0-2.374-1.392c-4.761-3.113-7.2-9.933-8.68-15.149-.339-1.2-.751-2.368-1-3.592l-.1-.15a41.344,41.344,0,0,1-1.569-7.57,2.4,2.4,0,0,1,1.136-1.716,2.628,2.628,0,0,1,2.262-.043A17.554,17.554,0,0,1-613.7,187.5a40.634,40.634,0,0,1,8.287,6.834,32.268,32.268,0,0,1,1.023-3.73,3.958,3.958,0,0,0,.369-2.021l-6.581-31.538-1.029-4.936a14.955,14.955,0,0,1-.544-3.2A5.591,5.591,0,0,1-610.4,145.1C-609.123,143.875-607.664,143.876-606.021,143.952Z" transform="translate(-104.42 -751.607)" fill="#0c5ba1"/>
    <path id="Trazado_1006564" data-name="Trazado 1006564" d="M-310.219,596.768a9.348,9.348,0,0,1,1.207,1.659l-.631,3.084-15.349-.043c-.177-.057-.394-.045-.533-.169-.027-.024-.19-1.007-.22-1.141a10.552,10.552,0,0,0-1.021-3.309Z" transform="translate(-352.98 -1134.713)" fill="#3bbcc1"/>
    <path id="Trazado_1006565" data-name="Trazado 1006565" d="M-444.56,564.021a36.3,36.3,0,0,1,4.839-5,3.818,3.818,0,0,1,1.729-.869,1.726,1.726,0,0,1,1.5.394,3.824,3.824,0,0,1,.618,2.684c-.025.7-.449,2.4-.054,2.933a10.556,10.556,0,0,1,1.021,3.309c.029.134.193,1.117.22,1.141.138.125.355.113.533.169l15.349.043a22.1,22.1,0,0,0-.365,2.751l-.076.063-.281,2.931h-4.954l-.006.12-5.9-.048a5.528,5.528,0,0,0-2.119.123l.093.124a2.149,2.149,0,0,1,.388,2.027,5.162,5.162,0,0,1-.281.931l5.392.029-3.611.081c-1.488.011-3.362-.251-4.439,1.013a1.125,1.125,0,0,0-.188.673c.5,2.037-.418,4.4-1.467,6.129a9.788,9.788,0,0,1-6.09,4.466,5.127,5.127,0,0,1-2.508.042l-.279-.055a1.444,1.444,0,0,1-.333-.091,16.278,16.278,0,0,1-.9,3.681,49.9,49.9,0,0,1-2.632,8.408l-.71.016-.65-.08-.2-6.551-.7-6.543a10.04,10.04,0,0,0-.272-2.155,76.8,76.8,0,0,0-1.887-8.57,53.061,53.061,0,0,0-2.024-6.433l.111-.221,1.565-4.95a9.308,9.308,0,0,1,.549-2.706Z" transform="translate(-243.822 -1102.025)" fill="#48c6ba"/>
    <path id="Trazado_1006566" data-name="Trazado 1006566" d="M-426.1,597.314l.112.083c1.912,1.476,3.258,4.223,4.553,6.239.262.408.8,1.505,1.178,1.7l.776-5.259a5.012,5.012,0,0,0,.119-2.234l.1-.1a7.226,7.226,0,0,0,.464-2.372c.22-1.366.462-2.728.816-4.066a29.116,29.116,0,0,1,4.331-9.62l.175-.005c-.922,2.384-2.364,4.552-3.237,6.993-1.684,4.7-2.028,9.654-2.9,14.533,1.415-.616,8.278-3.584,9.345-3.453-.578.653-6.4,2.627-7.619,3.072a9.149,9.149,0,0,0-1.732.613c-.014.011-.1.366-.1.379l-.645,3.7a10.679,10.679,0,0,0-.389,2.391l.024.152a16.278,16.278,0,0,1-.9,3.681l-.111-.093-.107.144-.113.188a1.432,1.432,0,0,0-.106-.976l.782-3.148a20.206,20.206,0,0,0,.9-3.958,75.668,75.668,0,0,0-5.748-8.16Z" transform="translate(-268.921 -1121.942)" fill="#0a1330"/>
    <path id="Trazado_1006567" data-name="Trazado 1006567" d="M-452.959,596.393l9.009-.008a28.109,28.109,0,0,0-3.208,4.956,9.456,9.456,0,0,0-.774,2.383,8.051,8.051,0,0,0,.474,1.151l.3.75-.149.149a5.557,5.557,0,0,1-.45-.675l-.148-.22a2.882,2.882,0,0,1-.3-.557l-.164-.254-6.707-.018,1.565-4.951A9.312,9.312,0,0,1-452.959,596.393Z" transform="translate(-244.431 -1134.389)" fill="#3bbcc1"/>
    <path id="Trazado_1006568" data-name="Trazado 1006568" d="M-453.508,614.006l.891,2.307,5.459-.065a9.457,9.457,0,0,0-.774,2.383,8.05,8.05,0,0,0,.474,1.15l.3.75-.149.149a5.557,5.557,0,0,1-.45-.675l-.148-.22a2.885,2.885,0,0,1-.3-.557l-.164-.254-6.707-.018Z" transform="translate(-244.431 -1149.296)" fill="#1898b0"/>
    <path id="Trazado_1006569" data-name="Trazado 1006569" d="M-455.684,646.152l6.707.018.164.254a9.9,9.9,0,0,0-2.5,5.375,12.366,12.366,0,0,0,1.443,8.442,25.663,25.663,0,0,0,3.5,4.154l-.782,3.148a1.433,1.433,0,0,1,.106.976l.113-.188.107-.144.111.094a49.9,49.9,0,0,1-2.632,8.408l-.71.016-.65-.08-.2-6.551-.7-6.543a10.038,10.038,0,0,0-.272-2.155,76.781,76.781,0,0,0-1.887-8.57,53.051,53.051,0,0,0-2.024-6.433Z" transform="translate(-243.821 -1176.492)" fill="#c6e7f3"/>
    <path id="Trazado_1006570" data-name="Trazado 1006570" d="M-415.68,785.051a1.433,1.433,0,0,1,.106.976l.113-.188.107-.144.111.093a49.9,49.9,0,0,1-2.632,8.408l-.71.016Z" transform="translate(-275.3 -1294)" fill="#00040f"/>
    <path id="Trazado_1006571" data-name="Trazado 1006571" d="M-342.543,627.291l15.349.043a22.1,22.1,0,0,0-.365,2.751l-.076.063-.281,2.931h-4.954l-8.509-.045c-1.317-.029-4.839.126-5.668-.738a4.12,4.12,0,0,1,1.249-2.079,3.974,3.974,0,0,0-1.169.125.755.755,0,0,1-.546,0v-.147l1.607-.6.2-.081a4.62,4.62,0,0,0,2.487-1.968l.111-.175Z" transform="translate(-335.429 -1160.535)" fill="#91d4ed"/>
    <path id="Trazado_1006572" data-name="Trazado 1006572" d="M-342.543,627.291l15.349.043a22.1,22.1,0,0,0-.365,2.751l-.076.063-18.163.07a3.974,3.974,0,0,0-1.169.125.755.755,0,0,1-.546,0v-.147l1.607-.6.2-.081a4.62,4.62,0,0,0,2.487-1.968l.111-.175Z" transform="translate(-335.43 -1160.535)" fill="#1898b0"/>
    <path id="Trazado_1006573" data-name="Trazado 1006573" d="M-604.024,386.221l.236-.106a62.33,62.33,0,0,1,2.556-5.819,5.272,5.272,0,0,1,2.258-2.754,1.93,1.93,0,0,1,1.75.582,8.352,8.352,0,0,1,1.7,3.629l1.313,4.679a14.723,14.723,0,0,1,.684,3.267c0,.81-4.617,6.457-5.371,7.318l.224.128a15.043,15.043,0,0,0,2.312-2.76l1.8-2.256,1.192-1.638c1.215,4.042,1.842,7.828,1,12a6.435,6.435,0,0,1-.449,1.818l-.343.451-2.409,3.008.127.224,2.762-2.962a29.848,29.848,0,0,1-.292,6.215,9.3,9.3,0,0,0-.549,2.705l-1.565,4.951-.111.221a53.084,53.084,0,0,1,2.024,6.433,76.805,76.805,0,0,1,1.887,8.57,10.055,10.055,0,0,1,.272,2.155l.7,6.543.2,6.551-.66.069a3.779,3.779,0,0,1-1.431-.042l-.522.036-3.637-11.078a2.5,2.5,0,0,0,.373-.652,32.853,32.853,0,0,0-3.07-5.639,3.619,3.619,0,0,0,1.468-1.863c.459-2.018-1.038-4.952-2.119-6.577l-.012-.088c-2.815-3.766-6.485-6.224-10.39-8.726l1.349-.153a1.672,1.672,0,0,0,1.24-.738,1.9,1.9,0,0,0,.685-.966,16.79,16.79,0,0,0-2.374-1.392c-4.761-3.113-7.2-9.933-8.68-15.149-.339-1.2-.751-2.368-1-3.593l-.1-.15a41.345,41.345,0,0,1-1.569-7.57,2.4,2.4,0,0,1,1.136-1.716,2.628,2.628,0,0,1,2.262-.043,17.554,17.554,0,0,1,3.472,1.791,40.634,40.634,0,0,1,8.287,6.834,32.268,32.268,0,0,1,1.023-3.73A3.955,3.955,0,0,0-604.024,386.221Z" transform="translate(-104.42 -949.244)" fill="#48c6ba"/>
    <path id="Trazado_1006574" data-name="Trazado 1006574" d="M-610.385,421.777c.6-.255,1.816.176,2.471.3l6.766,1.358-3.875-4.088c-.525-.524-1.9-1.587-2.09-2.225l.232-.03c5.3,4.329,9.64,10.245,13.22,16.026.963-3.409,1.54-7,2.168-10.492.311-1.729,1.25-9.775,2.04-10.693l.169.122-2.759,15.405-1.032,4.874a6.669,6.669,0,0,0-.311,1.227,8.561,8.561,0,0,0,.927,1.654l2.331,4.566c1.337,2.773,2.361,5.614,3.551,8.442a53.082,53.082,0,0,1,2.024,6.433,76.833,76.833,0,0,1,1.887,8.57,10.059,10.059,0,0,1,.272,2.155c-.251.1-.378.062-.473.351l-.051.266a99.6,99.6,0,0,0-4.186-17.239,77,77,0,0,0-7.217-15.806,61.938,61.938,0,0,0-5.664-8.1,6.058,6.058,0,0,0-.894-1.073,11.041,11.041,0,0,0-2.192-.344c-2.4-.444-4.851-.881-7.212-1.514Z" transform="translate(-113.038 -978.345)" fill="#0a1330"/>
    <path id="Trazado_1006575" data-name="Trazado 1006575" d="M-485.213,653.6l.005-.263c.123-.57.6-1.16.777-1.744.2-.673.024-1.673.548-2.12l2.674.245a99.617,99.617,0,0,1,4.186,17.239l.051-.266c.095-.289.222-.256.473-.351l.7,6.543.2,6.551-.66.069a3.778,3.778,0,0,1-1.431-.042l-.523.036-3.637-11.078a2.5,2.5,0,0,0,.373-.652,32.857,32.857,0,0,0-3.07-5.639,3.619,3.619,0,0,0,1.468-1.863c.459-2.018-1.038-4.952-2.119-6.577Z" transform="translate(-218.934 -1179.301)" fill="#c6e7f3"/>
    <path id="Trazado_1006576" data-name="Trazado 1006576" d="M-432.027,759.619l.051-.266c.095-.289.222-.256.473-.351l.7,6.543-.381.138a8.662,8.662,0,0,0-.2,1.117Z" transform="translate(-263.929 -1271.963)" fill="#0a1330"/>
    <path id="Trazado_1006577" data-name="Trazado 1006577" d="M-427.881,802.742a8.688,8.688,0,0,1,.2-1.117l.381-.138.2,6.551-.66.069Z" transform="translate(-267.437 -1307.906)" fill="#00040f"/>
    <path id="Trazado_1006578" data-name="Trazado 1006578" d="M-463.019,768.266a47.672,47.672,0,0,1,3.173,9.03,14.85,14.85,0,0,1,.613,2.665l-.523.036-3.637-11.078A2.5,2.5,0,0,0-463.019,768.266Z" transform="translate(-237.394 -1279.8)" fill="#0a1330"/>
    <path id="Trazado_1006579" data-name="Trazado 1006579" d="M-609.724,476.813c2.361.633,4.807,1.07,7.212,1.514a11.03,11.03,0,0,1,2.192.344,6.058,6.058,0,0,1,.894,1.073,61.912,61.912,0,0,1,5.664,8.1,77,77,0,0,1,7.217,15.806l-2.674-.245c-.524.447-.349,1.447-.548,2.12-.173.584-.654,1.174-.777,1.744l-.005.263c-2.815-3.766-6.485-6.224-10.39-8.726l1.349-.153a1.672,1.672,0,0,0,1.24-.738,1.9,1.9,0,0,0,.685-.966,16.8,16.8,0,0,0-2.374-1.392c-4.761-3.113-7.2-9.933-8.68-15.149C-609.06,479.206-609.471,478.037-609.724,476.813Z" transform="translate(-113.598 -1033.231)" fill="#48c6ba"/>
    <path id="Trazado_1006580" data-name="Trazado 1006580" d="M-526.084,144.018l25.959-.016a30.05,30.05,0,0,0,3.831,6.986,21.126,21.126,0,0,0,1.747,2.089c.186.184,1.065.861,1.1,1.041l-.292-.054-1.3-1.1-.355,4.476-1.325,18.17a135.505,135.505,0,0,0,.351,22l-15.069.072-12.03-50.626A4.562,4.562,0,0,0-526.084,144.018Z" transform="translate(-184.357 -751.673)" fill="#229ada"/>
    <path id="Trazado_1006581" data-name="Trazado 1006581" d="M-335.548,231.266c.245.112.322.107.478.336a12.869,12.869,0,0,0,4,3.995,47.221,47.221,0,0,0,11.814,4.255,65.5,65.5,0,0,0,14.491.691l1.721,14.56.013.01a87.9,87.9,0,0,0,2.148,10.715,33.679,33.679,0,0,0,2.225,6.423l1.05,2.835-17.555,2.9a62.937,62.937,0,0,1-15.325-.893l-5.344-1.282-.688-4.382a135.491,135.491,0,0,1-.351-22Z" transform="translate(-344.198 -825.498)" fill="#fdfefe"/>
    <path id="Trazado_1006582" data-name="Trazado 1006582" d="M-362.608,515.816a43.892,43.892,0,0,1,3.133,8.033,16.066,16.066,0,0,1,.75,4.219l7.235,0,.608,1.8,6.7.18-1.3,19.594a32.811,32.811,0,0,1-.295,4.25l-.136-.429c-.806.585-1.554,2.873-1.957,3.8a50.2,50.2,0,0,1-2.476,5.138,55.108,55.108,0,0,1-8.727,11.182,39.729,39.729,0,0,1-6.015,5.164,8.812,8.812,0,0,1-2.622,1.469l-.31,3.983c-.04.44.014,1.041-.306,1.342-.488.7-.437,2.238-.584,3.086a14.347,14.347,0,0,0-3.849.067l-10.68.415-.09-.293-1.42-.072a21.187,21.187,0,0,0-3.837,0l-9.75.057,1.392-11.2.361-2.928-10.594-.106-.274-.267c-2.467-2.424-2.918-4.5-2.954-7.873l-3.368.011a49.9,49.9,0,0,0,2.632-8.408,16.283,16.283,0,0,0,.9-3.681,1.443,1.443,0,0,0,.333.091l.279.055a5.123,5.123,0,0,0,2.508-.042,9.788,9.788,0,0,0,6.09-4.466c1.049-1.725,1.971-4.092,1.467-6.129a1.124,1.124,0,0,1,.188-.673c1.078-1.263,2.951-1,4.439-1.013l3.611-.081-5.392-.029a5.148,5.148,0,0,0,.281-.931,2.149,2.149,0,0,0-.388-2.027l-.093-.124a5.53,5.53,0,0,1,2.119-.123l5.9.048.006-.12h4.954l.281-2.931.076-.063a22.1,22.1,0,0,1,.365-2.751l.631-3.084A9.333,9.333,0,0,0-384,528.282a46.329,46.329,0,0,0-7.747-7.345,24.094,24.094,0,0,1-3.742-3.111,62.942,62.942,0,0,0,15.325.893Z" transform="translate(-279.201 -1066.227)" fill="#334e8d"/>
    <path id="Trazado_1006583" data-name="Trazado 1006583" d="M-293.926,528.871a62.938,62.938,0,0,0,15.325.893l1.087.027.138.218c-.97,2.818-2.038,5.542-2.774,8.439a7.98,7.98,0,0,0-.434,1.951l6.316,5.3a3.531,3.531,0,0,0-1.719.081,23.536,23.536,0,0,1-4.216.759,7.622,7.622,0,0,1-2.02.281,22.092,22.092,0,0,1,.365-2.751l.631-3.084a9.337,9.337,0,0,0-1.207-1.659,46.33,46.33,0,0,0-7.747-7.345A24.115,24.115,0,0,1-293.926,528.871Z" transform="translate(-380.763 -1077.272)" fill="#081456"/>
    <path id="Trazado_1006584" data-name="Trazado 1006584" d="M-284.96,638.685a94,94,0,0,0-1.843,14.3l-.862,16.908-.22,6.911a20.34,20.34,0,0,0,.285,4.559l.055.265a9.237,9.237,0,0,0,.555,1.693l.086.208a7.158,7.158,0,0,0,3.786,3.738c2.266.92,5.271.858,7.684.867-.04.44.014,1.041-.306,1.342-.488.7-.437,2.238-.583,3.086a14.347,14.347,0,0,0-3.849.067l-10.68.415-.09-.293-1.42-.072a21.187,21.187,0,0,0-3.837,0l-.537-43.067.039-.13a31.241,31.241,0,0,1-.034-3.462l-2.208,0-5.392-.029a5.147,5.147,0,0,0,.281-.931,2.149,2.149,0,0,0-.388-2.027l-.093-.124a5.53,5.53,0,0,1,2.119-.123l5.9.048.006-.12h4.954l.281-2.931.076-.063a7.623,7.623,0,0,0,2.02-.281A23.535,23.535,0,0,0-284.96,638.685Z" transform="translate(-371.791 -1170.174)" fill="#1d2a5e"/>
    <path id="Trazado_1006585" data-name="Trazado 1006585" d="M-146.013,967.375l4.1.177c-.488.7-.437,2.238-.584,3.086a14.347,14.347,0,0,0-3.849.067Z" transform="translate(-505.616 -1448.246)" fill="#5d71a6"/>
    <path id="Trazado_1006586" data-name="Trazado 1006586" d="M-216.21,966.146l11.028.189-.332,3.33-10.68.415-.09-.293A31.683,31.683,0,0,0-216.21,966.146Z" transform="translate(-446.448 -1447.206)" fill="#ed7a5c"/>
    <path id="Trazado_1006587" data-name="Trazado 1006587" d="M-298.938,668.365l-5.392-.029a5.146,5.146,0,0,0,.281-.931,2.149,2.149,0,0,0-.388-2.027l-.093-.124a5.533,5.533,0,0,1,2.119-.123l5.9.048,4.975.044a12.951,12.951,0,0,1-.3,3.191,27,27,0,0,0-4.7.182l.048,3.049.336.083-.545.1a31.248,31.248,0,0,1-.034-3.462Z" transform="translate(-371.792 -1192.514)" fill="#081456"/>
    <path id="Trazado_1006588" data-name="Trazado 1006588" d="M-253.91,709.65h4.717l-2.181,39.155,1.851.225a6.752,6.752,0,0,1,1.481.119,31.719,31.719,0,0,1-.074,3.642l-1.42-.072a21.188,21.188,0,0,0-3.837,0Z" transform="translate(-414.616 -1230.211)" fill="#5d71a6"/>
    <path id="Trazado_1006589" data-name="Trazado 1006589" d="M-225.493,965.371a6.752,6.752,0,0,1,1.481.119,31.716,31.716,0,0,1-.074,3.642l-1.42-.072Z" transform="translate(-438.646 -1446.551)" fill="#334e8d"/>
    <path id="Trazado_1006590" data-name="Trazado 1006590" d="M-391.528,686.331l2.208,0a31.248,31.248,0,0,0,.034,3.462l-.039.13.537,43.067-9.75.057,1.392-11.2.361-2.928-10.594-.106-.274-.267c-2.467-2.424-2.918-4.5-2.954-7.873l-3.368.011a49.9,49.9,0,0,0,2.632-8.408,16.283,16.283,0,0,0,.9-3.681,1.443,1.443,0,0,0,.333.091l.279.055a5.125,5.125,0,0,0,2.508-.042,9.788,9.788,0,0,0,6.09-4.466c1.049-1.725,1.971-4.092,1.467-6.129a1.124,1.124,0,0,1,.188-.672c1.078-1.263,2.951-1,4.439-1.013Z" transform="translate(-279.201 -1210.48)" fill="#c6e7f3"/>
    <path id="Trazado_1006591" data-name="Trazado 1006591" d="M-392.1,843.993l12.9.018a15.14,15.14,0,0,1,2.765-.014,1.933,1.933,0,0,1,.372.3,27.753,27.753,0,0,1,.218,7.113.83.83,0,0,1-.544.567,5.5,5.5,0,0,1-1.888.265l-10.594-.106-.274-.267C-391.615,849.442-392.065,847.366-392.1,843.993Z" transform="translate(-297.706 -1343.807)" fill="#f4b282"/>
    <path id="Trazado_1006592" data-name="Trazado 1006592" d="M-104.58,595.371l7.235,0,.608,1.8,6.7.18-1.3,19.594a32.809,32.809,0,0,1-.295,4.25l-.136-.429c-.806.585-1.554,2.873-1.957,3.8A50.187,50.187,0,0,1-96.2,629.7a55.109,55.109,0,0,1-8.727,11.182,39.727,39.727,0,0,1-6.015,5.164,8.809,8.809,0,0,1-2.622,1.469l2.652-20.813c1.193-7.931,2.333-15.664,4.684-23.361l.892-2.776A19.469,19.469,0,0,0-104.58,595.371Z" transform="translate(-533.347 -1133.531)" fill="#91d4ed"/>
    <path id="Trazado_1006593" data-name="Trazado 1006593" d="M-65.93,631.516l.892-2.776,9.119-.061a9.989,9.989,0,0,1-.105,2.742Z" transform="translate(-573.647 -1161.709)" fill="#1898b0"/>
    <path id="Trazado_1006594" data-name="Trazado 1006594" d="M-59.378,595.371l7.235,0,.608,1.8.517,3.332-9.119.061A19.456,19.456,0,0,0-59.378,595.371Z" transform="translate(-578.549 -1133.531)" fill="#3bbcc1"/>
    <path id="Trazado_1006595" data-name="Trazado 1006595" d="M-91.452,349.193l16.54.042a18.41,18.41,0,0,0,3.428.164l5.717.062,22.554.041,6.644.014c1.174,0,2.4-.069,3.571.048a4.952,4.952,0,0,1-1.137,1.98,58.725,58.725,0,0,0,6.576.05l11.266-.079-.2,5.435a6.5,6.5,0,0,1-.235,2.271,4.345,4.345,0,0,1,.078,1.686l-.09,3.072-.066,10.414a10.391,10.391,0,0,1,2.736.782l.187-.183a83.53,83.53,0,0,0,10.178,1.342l7.783.287c1.339.028,3.29-.19,4.554.226a5.384,5.384,0,0,0,1.6-.062l.58,3.537,9.6,59.541,2.385,0,.561,6.624.589,5.189a5.627,5.627,0,0,1,.072,2.3L1.166,452.339l-.423-.5L.371,439.449l-8.492.061.29,12.287-55.008-1.587c-1.982-.035-15.213-.682-16.381.076a14.373,14.373,0,0,1-2.53.348,4.478,4.478,0,0,0-1.39.328c-.378.292-.68.774-1.054,1.094a4.093,4.093,0,0,1-3.183.6l-2.381-.435a2.611,2.611,0,0,1-1.969-1.458l-.117-.189-2.8-.036a15.022,15.022,0,0,1,2.758-.119,20.329,20.329,0,0,1-.346-2.974l-.187-3.981-2.867-.021,1.909-30.513a32.783,32.783,0,0,0,.295-4.25l1.3-19.594-6.7-.18-.608-1.8-7.235,0a16.066,16.066,0,0,0-.75-4.219,43.88,43.88,0,0,0-3.133-8.033l-1.05-2.835a33.682,33.682,0,0,1-2.225-6.423,87.868,87.868,0,0,1-2.148-10.715l.111-.243a7.408,7.408,0,0,1,2.507-.177l6.74-.106a87.71,87.71,0,0,0,6.6,17.745c4.058-2.452,8.414-5.137,12.907-6.7a42.832,42.832,0,0,1,5.21-1.3c.793-.038,1.63-.333,2.4-.31a5.876,5.876,0,0,1,1.569.446,9.825,9.825,0,0,0-1.277-1.163,25.149,25.149,0,0,1-3.613-3.513l-.152-.231-8.144-7.341-4.454-2.744Z" transform="translate(-531.598 -925.264)" fill="#c6e7f3"/>
    <path id="Trazado_1006596" data-name="Trazado 1006596" d="M20.651,349.193l16.54.042a18.41,18.41,0,0,0,3.428.164l5.717.062,22.554.041,6.644.014c1.174,0,2.4-.069,3.571.048a4.952,4.952,0,0,1-1.137,1.98,58.725,58.725,0,0,0,6.576.05l11.266-.079-.2,5.435a6.5,6.5,0,0,1-.235,2.271l-65.9.1-8.144-7.341-4.454-2.744Z" transform="translate(-643.701 -925.264)" fill="#229ada"/>
    <path id="Trazado_1006597" data-name="Trazado 1006597" d="M20.653,349.193l16.54.042a18.41,18.41,0,0,0,3.428.164l5.717.062,22.554.041,6.644.014c1.174,0,2.4-.069,3.571.048a4.952,4.952,0,0,1-1.137,1.98,45.236,45.236,0,0,1-5.774.161l-8.987.016-29.887.056-7.546.023a22.516,22.516,0,0,0-4.443.184l-4.454-2.744Z" transform="translate(-643.703 -925.264)" fill="#081456"/>
    <path id="Trazado_1006598" data-name="Trazado 1006598" d="M543.852,516.9l.187-.183a83.545,83.545,0,0,0,10.178,1.342l7.783.287c1.339.028,3.29-.19,4.554.226a5.385,5.385,0,0,0,1.6-.062l.58,3.537,9.6,59.541,2.385,0,.561,6.624.589,5.189a5.63,5.63,0,0,1,.072,2.3l-22.845-1.635-.422-.5-.372-12.393-8.492.061H546.92l-3-64.193Z" transform="translate(-1089.523 -1066.992)" fill="#229ada"/>
    <path id="Trazado_1006599" data-name="Trazado 1006599" d="M543.852,516.9l.187-.183a83.545,83.545,0,0,0,10.178,1.342l7.783.287c1.339.028,3.29-.19,4.554.226-.229.066-.345.026-.45.266a4.492,4.492,0,0,0-.206,1.46l-.144,3.8a88.236,88.236,0,0,1-21.834-7.061Z" transform="translate(-1089.523 -1066.992)" fill="#081456"/>
    <path id="Trazado_1006600" data-name="Trazado 1006600" d="M645.1,533.948l.144-3.8a4.487,4.487,0,0,1,.206-1.46c.1-.241.221-.2.45-.266a5.383,5.383,0,0,0,1.6-.062l.58,3.537,9.6,59.542,2.385,0,.561,6.624.589,5.189a5.628,5.628,0,0,1,.072,2.3l-22.845-1.635-.423-.5-.372-12.393,4.534-.007Z" transform="translate(-1168.871 -1076.837)" fill="#c6e7f3"/>
    <path id="Trazado_1006601" data-name="Trazado 1006601" d="M-106.274,382.7a87.71,87.71,0,0,0,6.6,17.745c4.058-2.452,8.414-5.137,12.907-6.7a42.844,42.844,0,0,1,5.21-1.3,3.253,3.253,0,0,1,.744.3,70.416,70.416,0,0,1,6.462,6.658c2.863,3.326,5.787,6.83,6.041,11.415.169,3.039-.577,6.156-1.075,9.143l-3,16.693-4.174,23.4-1.632,8.958-.55,3.019-3.089-.048-.158,4.26,0,2.517.241.219a4.477,4.477,0,0,0-1.39.328c-.378.292-.68.774-1.054,1.094a4.093,4.093,0,0,1-3.183.6l-2.381-.435a2.611,2.611,0,0,1-1.969-1.459l-.117-.189-2.8-.036a15.022,15.022,0,0,1,2.758-.119,20.327,20.327,0,0,1-.346-2.974l-.187-3.981-2.867-.021,1.909-30.512a32.784,32.784,0,0,0,.295-4.25l1.3-19.594-6.7-.18-.608-1.8-7.235,0a16.066,16.066,0,0,0-.75-4.219,43.879,43.879,0,0,0-3.133-8.033l-1.05-2.835a33.681,33.681,0,0,1-2.225-6.423,87.869,87.869,0,0,1-2.148-10.715l.111-.243a7.408,7.408,0,0,1,2.507-.177Z" transform="translate(-531.598 -953.614)" fill="#334e8d"/>
    <path id="Trazado_1006602" data-name="Trazado 1006602" d="M-106.274,382.7a87.71,87.71,0,0,0,6.6,17.745c4.058-2.452,8.414-5.137,12.907-6.7a42.843,42.843,0,0,1,5.21-1.3,3.253,3.253,0,0,1,.744.3l-.091.149a4.133,4.133,0,0,1-1.626.777l-4.337,1.666L-92.3,397.8a29.628,29.628,0,0,0-8.167,5.647,48.361,48.361,0,0,0,5.327,4.006,61.675,61.675,0,0,0,13.187,7.393c-2,.488-4.009.447-6.032.737l-.344,7.972-.173,22.476c.034,4.306.1,8.651.533,12.938a39.679,39.679,0,0,0,.729,5.281,7.932,7.932,0,0,0,1.568,3.379c1.206,1.327,4.374,1.35,6.066,1.375l1.416.011-.55,3.019-3.089-.048-.158,4.26,0,2.517.241.219a4.478,4.478,0,0,0-1.39.328c-.378.292-.68.774-1.054,1.094a4.093,4.093,0,0,1-3.183.6l-2.381-.435a2.611,2.611,0,0,1-1.969-1.458l-.117-.189-2.8-.036a15.022,15.022,0,0,1,2.758-.119,20.33,20.33,0,0,1-.346-2.974l-.187-3.981-2.867-.021,1.909-30.513a32.781,32.781,0,0,0,.295-4.25l1.3-19.594-6.7-.18-.608-1.8-7.235,0a16.066,16.066,0,0,0-.75-4.219,43.881,43.881,0,0,0-3.133-8.033l-1.05-2.835a33.681,33.681,0,0,1-2.225-6.423,87.868,87.868,0,0,1-2.148-10.715l.111-.243a7.408,7.408,0,0,1,2.507-.177Z" transform="translate(-531.599 -953.614)" fill="#081456"/>
    <path id="Trazado_1006603" data-name="Trazado 1006603" d="M22.856,961.309l10.589.179-.158,4.26,0,2.517.241.219a4.477,4.477,0,0,0-1.39.328c-.378.292-.68.774-1.054,1.094a4.093,4.093,0,0,1-3.183.6l-2.381-.435a2.611,2.611,0,0,1-1.969-1.459l-.117-.189-2.8-.036a15.024,15.024,0,0,1,2.758-.119,20.328,20.328,0,0,1-.346-2.974Z" transform="translate(-646.878 -1443.114)" fill="#ed7a5c"/>
    <path id="Trazado_1006604" data-name="Trazado 1006604" d="M23.042,987.158l.223.577,10.022-.118,0,2.517.241.219a4.477,4.477,0,0,0-1.39.328c-.378.292-.68.774-1.054,1.094a4.093,4.093,0,0,1-3.183.6l-2.381-.435a2.611,2.611,0,0,1-1.969-1.459l-.117-.189-2.8-.036a15.024,15.024,0,0,1,2.758-.119A20.348,20.348,0,0,1,23.042,987.158Z" transform="translate(-646.877 -1464.983)" fill="#f4b282"/>
    <path id="Trazado_1006605" data-name="Trazado 1006605" d="M-87.238,497.406l18.707,13.313.889.595a22.085,22.085,0,0,1-.118,3.157l-6.7-.18-.608-1.795-7.235,0a16.066,16.066,0,0,0-.75-4.219,43.879,43.879,0,0,0-3.133-8.033Z" transform="translate(-555.621 -1050.652)" fill="#0c5ba1"/>
    <path id="Trazado_1006606" data-name="Trazado 1006606" d="M-1.691,583.852l.889.595A22.084,22.084,0,0,1-.92,587.6l-6.7-.18-.608-1.8,4.513-.024A3.455,3.455,0,0,0-1.9,585.31Z" transform="translate(-622.461 -1123.786)" fill="#c6e7f3"/>
    <path id="Trazado_1006607" data-name="Trazado 1006607" d="M-496.725,413.471l24.478.029,3.605,0,3.7.02c.433,1.4.7,2.866,1.036,4.3a55.865,55.865,0,0,1,1.573,17.142l-.543,4.645a12.191,12.191,0,0,0-.373,2.346c8.944,1.894,17.153,5.222,23.954,11.475a21.765,21.765,0,0,1,3.29,3.733v85.99H-744V457.476a19.848,19.848,0,0,1,3.218-1.538c4.742-2.125,9.781-4.317,15.027-4.679a65.912,65.912,0,0,1-1.411-9.058l-.05-.4-.065-.472a1.337,1.337,0,0,1,1.053-.658,7.784,7.784,0,0,1,2.834.343,34.758,34.758,0,0,1,8.858,4.2c3.905,2.5,7.575,4.96,10.39,8.726l.012.088c1.081,1.625,2.579,4.558,2.119,6.577a3.62,3.62,0,0,1-1.468,1.863,32.872,32.872,0,0,1,3.07,5.639,2.5,2.5,0,0,1-.373.652l3.637,11.078.523-.036a3.779,3.779,0,0,0,1.431.042l.66-.069.65.08.71-.016,3.368-.011c.036,3.373.487,5.449,2.954,7.873l.274.267,10.594.106-.361,2.928-1.392,11.2,9.75-.057a21.216,21.216,0,0,1,3.837,0l1.42.072.09.293,10.68-.415a14.361,14.361,0,0,1,3.849-.067c.146-.847.095-2.389.583-3.086.319-.3.265-.9.306-1.342l.31-3.983a8.81,8.81,0,0,0,2.622-1.469,39.747,39.747,0,0,0,6.015-5.164,55.108,55.108,0,0,0,8.727-11.182,50.2,50.2,0,0,0,2.476-5.138c.4-.922,1.151-3.211,1.957-3.8l.136.429-1.909,30.512,2.867.021.187,3.981a20.321,20.321,0,0,0,.346,2.974,15.021,15.021,0,0,0-2.758.119l2.8.036.117.189a2.611,2.611,0,0,0,1.969,1.459l2.381.435a4.093,4.093,0,0,0,3.183-.6c.375-.32.676-.8,1.054-1.094a4.483,4.483,0,0,1,1.391-.328,14.367,14.367,0,0,0,2.53-.348c1.167-.758,14.4-.111,16.38-.076l55.008,1.587-.29-12.287,8.492-.061.372,12.393.423.5,22.845,1.635a5.624,5.624,0,0,0-.072-2.3l-.589-5.189-.561-6.624-2.385,0-9.6-59.541-.58-3.537a13.4,13.4,0,0,1,3.592-.253l6.887-.41,11.88-1.243a17.034,17.034,0,0,0,3.48-.741Z" transform="translate(0 -979.643)" fill="#c6e7f3"/>
    <path id="Trazado_1006608" data-name="Trazado 1006608" d="M-532.763,844.1l.66-.069.65.08.71-.016,3.368-.011c.036,3.373.487,5.449,2.954,7.873l.274.267-14.178.027a77.822,77.822,0,0,1-7.9.1,9.689,9.689,0,0,0-2.756.106,4.374,4.374,0,0,1-1.415.067,1.412,1.412,0,0,1-1.339-.524c-.255-1.225-.461-6.734.045-7.668.758-.411,2.216-.214,3.093-.2a34.725,34.725,0,0,1,4.158-.009l9.72-.029.522-.036A3.789,3.789,0,0,0-532.763,844.1Z" transform="translate(-162.433 -1343.895)" fill="#f6ae48"/>
    <path id="Trazado_1006609" data-name="Trazado 1006609" d="M-548.979,852.7a4.372,4.372,0,0,1-1.415.067,1.412,1.412,0,0,1-1.339-.524c-.255-1.225-.461-6.734.045-7.668.758-.411,2.216-.214,3.093-.2l.264.133a9.351,9.351,0,0,0,2.193.012l8.459-.021a12.648,12.648,0,0,0-1.921,2.083l-.125.18a4.61,4.61,0,0,0-.928,2.934,4.228,4.228,0,0,0,1.939,2.494l.389.3a77.823,77.823,0,0,1-7.9.1A9.689,9.689,0,0,0-548.979,852.7Z" transform="translate(-162.433 -1344.137)" fill="#f39330"/>
    <path id="Trazado_1006610" data-name="Trazado 1006610" d="M-635.373,591.041l-.065-.472a1.337,1.337,0,0,1,1.053-.658,7.785,7.785,0,0,1,2.834.343,34.761,34.761,0,0,1,8.858,4.2c3.905,2.5,7.575,4.96,10.39,8.726l.012.088c1.081,1.625,2.579,4.558,2.119,6.577a3.62,3.62,0,0,1-1.468,1.863,32.87,32.87,0,0,1,3.07,5.639,2.5,2.5,0,0,1-.373.652,64.154,64.154,0,0,0-3.437-6.008,7.592,7.592,0,0,1-1.588.645c-2.345.92-4.963,1.99-7.51,2.056a4.042,4.042,0,0,1-3.2-1.019,1.615,1.615,0,0,1-.556-1.376,7.85,7.85,0,0,1,1.529-1.72,3.322,3.322,0,0,0-1,.133l-1.93.236a1.651,1.651,0,0,1-1.11-.251c-2.176-1.164-3.721-4.328-4.359-6.608a11.575,11.575,0,0,1,1.7-1.672l-1.073-.277a3.823,3.823,0,0,1-2.434-1.642,65.922,65.922,0,0,1-1.411-9.058Z" transform="translate(-91.843 -1128.883)" fill="#0c5ba1"/>
    <path id="Trazado_1006611" data-name="Trazado 1006611" d="M-635.373,591.041l-.065-.472a1.337,1.337,0,0,1,1.053-.658,7.785,7.785,0,0,1,2.834.343,34.761,34.761,0,0,1,8.858,4.2c3.905,2.5,7.575,4.96,10.39,8.726l.012.088c1.081,1.625,2.579,4.558,2.119,6.577a3.62,3.62,0,0,1-1.468,1.863,32.87,32.87,0,0,1,3.07,5.639,2.5,2.5,0,0,1-.373.652,64.154,64.154,0,0,0-3.437-6.008,13.575,13.575,0,0,0-2.079-2.749c-4.876-5.778-10.781-10.2-16.776-14.721-1.341-1.012-2.669-2.2-4.088-3.084Z" transform="translate(-91.843 -1128.883)" fill="#0c5ba1"/>
    <path id="Trazado_1006612" data-name="Trazado 1006612" d="M-635.019,595l.172-.442.131.167a21.042,21.042,0,0,0,3.876,3.2l6.257,4.753a90.693,90.693,0,0,1,10.158,9.3l3.14,3.692a32.874,32.874,0,0,1,3.07,5.639,2.494,2.494,0,0,1-.373.652,64.138,64.138,0,0,0-3.437-6.008,13.573,13.573,0,0,0-2.079-2.749c-4.876-5.778-10.781-10.2-16.776-14.721-1.341-1.012-2.669-2.2-4.088-3.083Z" transform="translate(-92.198 -1132.846)" fill="#0a1330"/>
    <path id="Trazado_1006613" data-name="Trazado 1006613" d="M-507.554,897.221l10.594.106-.361,2.929-1.392,11.2a29.194,29.194,0,0,1-.736,4.234l1.172.033a15.984,15.984,0,0,1,.187,1.938l.018.668a12.943,12.943,0,0,0-1.859.615,18.518,18.518,0,0,0-.547,4.324,8.368,8.368,0,0,1-1.647,2.685,7.937,7.937,0,0,1-4.94,3.294,14.589,14.589,0,0,1-3.039.116l-5.015-.029-5.186,0a17.871,17.871,0,0,1-3.27-.134,7.032,7.032,0,0,1-2.455-1.093,6.916,6.916,0,0,1-3.28-4.834l-3.075-25.815a9.7,9.7,0,0,1,2.756-.106,77.807,77.807,0,0,0,7.9-.1Z" transform="translate(-179.025 -1388.896)" fill="#ee813b"/>
    <path id="Trazado_1006614" data-name="Trazado 1006614" d="M-445.028,942.162a15.268,15.268,0,0,0-2.954.51,22.957,22.957,0,0,1-4.4.2c-3.378-.134-7.778-1.175-10.14-3.747a8.338,8.338,0,0,1-2.357-6.241c.249-4.084,3.064-8.015,6-10.665a24.674,24.674,0,0,1,13.41-5.726,34.475,34.475,0,0,1,5.247-.032l-1.392,11.2a29.189,29.189,0,0,1-.736,4.234l1.172.033a15.981,15.981,0,0,1,.187,1.938l.018.668a12.951,12.951,0,0,0-1.859.615,18.516,18.516,0,0,0-.547,4.324A8.372,8.372,0,0,1-445.028,942.162Z" transform="translate(-236.123 -1405.101)" fill="#f6ae48"/>
    <path id="Trazado_1006615" data-name="Trazado 1006615" d="M-321.157,1017.17l1.172.033a15.97,15.97,0,0,1,.187,1.938l.018.668a12.933,12.933,0,0,0-1.859.615C-321.367,1019.411-321.342,1018.223-321.157,1017.17Z" transform="translate(-357.317 -1490.373)" fill="#fdfefe"/>
    <path id="Trazado_1006616" data-name="Trazado 1006616" d="M-389.255,413.471l24.478.029,3.605,0,.009,99.606a58.451,58.451,0,0,1,13.278,2.916,7.62,7.62,0,0,1,3.339,1.968c.294.408.216.585.175,1.049-4.883,5.536-42.567,8.36-51.458,8.921l-43.9,2.343-27.284.417-116.453-4.762-18.472-2.175a69.84,69.84,0,0,1-12-2.664,7.606,7.606,0,0,1-2.532-1.124,1.482,1.482,0,0,1-.5-1.06,2.347,2.347,0,0,1,1.329-1.394,19.566,19.566,0,0,1,4.825-1.648c3.284-.794,6.636-1.207,9.947-1.868a6.916,6.916,0,0,0,3.28,4.834,7.034,7.034,0,0,0,2.455,1.093,17.877,17.877,0,0,0,3.27.134l5.186,0,5.016.029a14.581,14.581,0,0,0,3.039-.116,7.938,7.938,0,0,0,4.94-3.294,8.36,8.36,0,0,0,1.647-2.685,18.516,18.516,0,0,1,.547-4.324,12.942,12.942,0,0,1,1.859-.615l-.018-.668a15.989,15.989,0,0,0-.187-1.938l-1.172-.033a29.2,29.2,0,0,0,.736-4.234l9.75-.057a21.218,21.218,0,0,1,3.837,0l1.42.072.09.293,10.68-.415a14.362,14.362,0,0,1,3.849-.067c.146-.847.1-2.389.584-3.086.319-.3.265-.9.305-1.342l.31-3.983a8.809,8.809,0,0,0,2.622-1.469,39.746,39.746,0,0,0,6.015-5.164,55.11,55.11,0,0,0,8.727-11.182,50.2,50.2,0,0,0,2.476-5.138c.4-.922,1.151-3.211,1.957-3.8l.136.429-1.909,30.512,2.867.021.187,3.981a20.321,20.321,0,0,0,.346,2.974,15.021,15.021,0,0,0-2.758.119l2.8.036.117.189a2.611,2.611,0,0,0,1.969,1.459l2.381.435a4.093,4.093,0,0,0,3.183-.6c.375-.32.676-.8,1.054-1.094a4.483,4.483,0,0,1,1.39-.328,14.367,14.367,0,0,0,2.53-.348c1.167-.758,14.4-.111,16.38-.076l55.008,1.587-.29-12.287,8.492-.061.372,12.393.423.5,22.845,1.635a5.624,5.624,0,0,0-.072-2.3l-.589-5.189-.561-6.624-2.385,0-9.6-59.541-.58-3.537a13.4,13.4,0,0,1,3.592-.253l6.887-.41,11.88-1.243a17.034,17.034,0,0,0,3.48-.741Z" transform="translate(-107.47 -979.643)" fill="#91d4ed"/>
    <path id="Trazado_1006617" data-name="Trazado 1006617" d="M11.873,1086.87l8.461.1L20,1089.147l-6.473,0a6.968,6.968,0,0,0-1.638.052Z" transform="translate(-639.469 -1549.339)" fill="#0a1330"/>
    <path id="Trazado_1006618" data-name="Trazado 1006618" d="M93.361,1087.167a66.092,66.092,0,0,1,7.676.19,6.084,6.084,0,0,1,.065,2.047l-22.958.028a12.592,12.592,0,0,1-.653-2.23Z" transform="translate(-694.981 -1549.576)" fill="#0a1330"/>
    <path id="Trazado_1006619" data-name="Trazado 1006619" d="M-322.8,1019.076l-.035-1.958,4.434-.025-.021,3.106-.036.269a9.531,9.531,0,0,0,.221,2.514,3.844,3.844,0,0,1-1.535,3.562,3.47,3.47,0,0,1-2.736.637,3.526,3.526,0,0,1-2.139-1.436,5.425,5.425,0,0,1-.541-1.062,18.516,18.516,0,0,1,.547-4.324,12.934,12.934,0,0,1,1.859-.615Z" transform="translate(-354.311 -1490.308)" fill="#081456"/>
    <path id="Trazado_1006620" data-name="Trazado 1006620" d="M-237.888,1084.882a8.843,8.843,0,0,1,4.153-.188,17.341,17.341,0,0,0,3.918.919,30.744,30.744,0,0,0,5.71-.071c1.415-.283,2.548-1.023,4.036-1.035a4.257,4.257,0,0,1,1.692.247,7.641,7.641,0,0,0,2.055.793c1.556.1,3.221-.051,4.785-.08l7.963-.031.2,2.08c-1.151.4-3.273.134-4.51.133l-11.522-.072-18.547.017Z" transform="translate(-428.114 -1547.338)" fill="#0a1330"/>
    <path id="Trazado_1006621" data-name="Trazado 1006621" d="M-304.184,988.8l1.42.072.09.293-.268,4.325a4.434,4.434,0,0,0-2.027-.4,13.36,13.36,0,0,0-.39,2.711l-7.411.38.021-3.106-4.434.025.035,1.958a15.984,15.984,0,0,0-.187-1.938l-1.172-.033a29.191,29.191,0,0,0,.736-4.234l9.75-.057A21.206,21.206,0,0,1-304.184,988.8Z" transform="translate(-359.968 -1466.295)" fill="#229ada"/>
    <path id="Trazado_1006622" data-name="Trazado 1006622" d="M-281.233,1017.09l7.781.016a13.364,13.364,0,0,0-.39,2.711l-7.411.38Z" transform="translate(-391.483 -1490.305)" fill="#fdfefe"/>
    <path id="Trazado_1006623" data-name="Trazado 1006623" d="M504.579,1015.74l.423.5c.95,1.936,2.129,4.881,1.625,7.078-.17.741-1.169,1.607-1.478,2.427a31.145,31.145,0,0,0-.988,4.988l-.226.091a2.107,2.107,0,0,1-.228-1.237c-.055-1.178.176-3.972-.9-4.6a10.669,10.669,0,0,0-4.439,2.114,28.617,28.617,0,0,1-4.6,2.868c-2.615,1.116-5.709,1.068-8.506,1.064a41.048,41.048,0,0,1-5.24-.2l-.107-.24a24.623,24.623,0,0,1,4.158-2.675,8.477,8.477,0,0,1,1.887-1.043,2.919,2.919,0,0,0,.112,1.051,1.7,1.7,0,0,0,1.106.722c2.346.53,5.626-1.062,7.559-2.308a36.014,36.014,0,0,0,6.822-6.014C502.852,1018.923,504.154,1017.66,504.579,1015.74Z" transform="translate(-1035.433 -1489.163)" fill="#081456"/>
    <path id="Trazado_1006624" data-name="Trazado 1006624" d="M705.766,1017.38a13.191,13.191,0,0,1,1.722,2.948c.3,1.114.986,3.376.489,4.482a15.5,15.5,0,0,1-1.078,1.653,11.03,11.03,0,0,0-1.292,4.228c-.084.517-.054,1.687-.42,1.965-.964-1.064.614-6.091-1.354-6.13-1.545-.031-5.746,3.725-7.144,4.645a8.509,8.509,0,0,1-2.078.963c-2.619.838-6.012.622-8.75.6l-3.452-.053a4.508,4.508,0,0,1-1.687-.19l-.073-.327c.742-.828,2.966-1.394,4.026-1.909a29.442,29.442,0,0,1,4.341-2.213,1.871,1.871,0,0,0-.124,1.223,1.677,1.677,0,0,0,.894.642c1.921.506,4.314-.453,5.913-1.484,3.252-2.1,6.094-4.131,8.291-7.371A10.787,10.787,0,0,0,705.766,1017.38Z" transform="translate(-1205.254 -1490.55)" fill="#081456"/>
    <path id="Trazado_1006625" data-name="Trazado 1006625" d="M13.222,1007.24l2.8.036.117.189a2.611,2.611,0,0,0,1.969,1.459l2.381.435a17.113,17.113,0,0,0,.982,2.489l3.5,7.563,9.906,0c.6,0,2.561-.173,2.964.155l-15.87.035-1.644.005-8.461-.1,1-12Z" transform="translate(-639.469 -1481.972)" fill="#db3533"/>
    <path id="Trazado_1006626" data-name="Trazado 1006626" d="M76.007,1005.64a10.973,10.973,0,0,0,1.289,2.267,10.555,10.555,0,0,0,4.55,2.669,42.233,42.233,0,0,0,4.676.963,7.971,7.971,0,0,1,5.519,4.065,8.726,8.726,0,0,1,.788,2.551l.05.245a66.05,66.05,0,0,0-7.676-.19c-.4-.328-2.36-.155-2.964-.155l-9.906,0-3.5-7.563a17.123,17.123,0,0,1-.982-2.489,4.093,4.093,0,0,0,3.183-.6c.375-.32.676-.8,1.054-1.094a4.484,4.484,0,0,1,1.39-.328A14.485,14.485,0,0,0,76.007,1005.64Z" transform="translate(-686.824 -1480.618)" fill="#eb4f45"/>
    <path id="Trazado_1006627" data-name="Trazado 1006627" d="M741.417,936.537l8.951-.256-.145,7.216c-.028,1.614-.353,3.872.514,5.274a10.81,10.81,0,0,1-1.775,3.675c-2.2,3.24-5.039,5.273-8.291,7.371-1.6,1.031-3.993,1.991-5.913,1.484a1.678,1.678,0,0,1-.894-.642,1.87,1.87,0,0,1,.124-1.223,30.659,30.659,0,0,0,8.649-8.786,5.625,5.625,0,0,0-.072-2.3l-.589-5.189Z" transform="translate(-1250.225 -1421.941)" fill="#ed7a5c"/>
    <path id="Trazado_1006628" data-name="Trazado 1006628" d="M528.843,935.328l8.492-.061.372,12.393c-.424,1.92-1.726,3.184-3.018,4.584a36.023,36.023,0,0,1-6.822,6.014c-1.932,1.246-5.213,2.839-7.559,2.308a1.7,1.7,0,0,1-1.107-.722,2.92,2.92,0,0,1-.112-1.051,50.807,50.807,0,0,0,7.688-7.068,10.73,10.73,0,0,0,2.356-4.109Z" transform="translate(-1068.561 -1421.083)" fill="#ed7a5c"/>
    <path id="Trazado_1006629" data-name="Trazado 1006629" d="M1020.118,413.633l3.605,0,.009,99.606v5.026l-3.706.029.054-101.272Z" transform="translate(-1492.365 -979.777)" fill="#334e8d"/>
    <path id="Trazado_1006630" data-name="Trazado 1006630" d="M-219.628,987.744l8.475-.092a16.269,16.269,0,0,1,4.471.194,1.227,1.227,0,0,1,.488.927l-.158,3.211-2.006.125a8.676,8.676,0,0,1,1.344,6.246l-.033.155a6.314,6.314,0,0,1,3.4,3.583l.443,1.357-7.963.031c-1.565.028-3.229.183-4.785.08a7.649,7.649,0,0,1-2.055-.793,4.257,4.257,0,0,0-1.692-.247c-1.489.012-2.622.752-4.036,1.035a30.755,30.755,0,0,1-5.71.071,17.336,17.336,0,0,1-3.918-.919,8.844,8.844,0,0,0-4.153.188l.676-8.032a13.364,13.364,0,0,1,.39-2.711,4.434,4.434,0,0,1,2.027.4l.268-4.325,10.68-.415A14.353,14.353,0,0,1-219.628,987.744Z" transform="translate(-428.485 -1465.353)" fill="#eb4f45"/>
    <path id="Trazado_1006631" data-name="Trazado 1006631" d="M-116.244,1016.9l5.9.009a8.654,8.654,0,0,0-.968,4.04c-.866-.3-3.268-.943-3.78-1.66-.419-.586-.631-1.538-1.041-2.206Z" transform="translate(-531.082 -1490.144)" fill="#c6e7f3"/>
    <path id="Trazado_1006632" data-name="Trazado 1006632" d="M-83.218,1016.519a39.786,39.786,0,0,1,4.578-.008,8.676,8.676,0,0,1,1.344,6.246l-.033.155a38.273,38.273,0,0,0-6.857-2.353A8.651,8.651,0,0,1-83.218,1016.519Z" transform="translate(-558.203 -1489.754)" fill="#081456"/>
    <path id="Trazado_1006633" data-name="Trazado 1006633" d="M-206.488,989a33.627,33.627,0,0,0-.383,3.838c-3.441.675-6.861,1.764-10.421,1.078l-.144-.175.268-4.325Z" transform="translate(-445.473 -1466.541)" fill="#f4b282"/>
    <path id="Trazado_1006634" data-name="Trazado 1006634" d="M-144.606,987.744l8.475-.092a16.269,16.269,0,0,1,4.471.194,1.227,1.227,0,0,1,.488.927l-.158,3.211-2.006.125a39.758,39.758,0,0,0-4.578.008l-5.9-.009-5.019-.459a33.626,33.626,0,0,1,.383-3.838A14.369,14.369,0,0,1-144.606,987.744Z" transform="translate(-503.507 -1465.353)" fill="#229ada"/>
    <path id="Trazado_1006635" data-name="Trazado 1006635" d="M-120.155,787a8.808,8.808,0,0,0,2.622-1.469,39.744,39.744,0,0,0,6.015-5.164,55.109,55.109,0,0,0,8.727-11.182,50.2,50.2,0,0,0,2.476-5.138c.4-.922,1.151-3.211,1.957-3.8l.136.429L-100.13,791.2l2.867.021.187,3.981a20.332,20.332,0,0,0,.346,2.974,15.024,15.024,0,0,0-2.758.119l-.351.258-1,12,.014,2.332c-1.177.151-2.859-.058-3.907.314l-.2-2.08-.443-1.357a6.314,6.314,0,0,0-3.4-3.583l.033-.155a8.675,8.675,0,0,0-1.344-6.246l2.006-.125.158-3.211a1.227,1.227,0,0,0-.488-.927,16.276,16.276,0,0,0-4.471-.194l-8.475.092c.146-.847.1-2.389.584-3.086.319-.3.265-.9.306-1.342Z" transform="translate(-526.759 -1273.024)" fill="#c6e7f3"/>
    <path id="Trazado_1006636" data-name="Trazado 1006636" d="M726.276,413.471l24.478.029-.039,3.385-.024.134a20.027,20.027,0,0,0-.1,3.162l0,5.323-.005,18.126.021,68.745-25.369-2.954a13.19,13.19,0,0,0-1.722-2.948c-.867-1.4-.542-3.659-.514-5.274l.145-7.216-8.951.256-2.385,0-9.6-59.541-.58-3.537a13.4,13.4,0,0,1,3.592-.253l6.887-.41,11.88-1.243a17.034,17.034,0,0,0,3.48-.741Z" transform="translate(-1223.001 -979.643)" fill="#c6e7f3"/>
    <path id="Trazado_1006637" data-name="Trazado 1006637" d="M701.627,517.883a13.4,13.4,0,0,1,3.592-.253l6.887-.41,11.88-1.243.156,1.917,3.5,62.769-4.5.041-8.951.256-2.385,0-9.6-59.542Z" transform="translate(-1223 -1066.364)" fill="#229ada"/>
    <path id="Trazado_1006638" data-name="Trazado 1006638" d="M701.627,517.883a13.4,13.4,0,0,1,3.592-.253l6.887-.41,11.88-1.243.156,1.917-6.535,2.24a38.592,38.592,0,0,1-8.953,1.587,26.9,26.9,0,0,1-3.612-.011,15.644,15.644,0,0,0-2.835-.29Z" transform="translate(-1223 -1066.364)" fill="#081456"/>
  </g>
</svg>
