<svg xmlns="http://www.w3.org/2000/svg" width="48" height="48" viewBox="0 0 48 48">
  <g id="Grupo_1183475" data-name="Grupo 1183475" transform="translate(9652.112 10097)">
    <rect id="Rectángulo_454570" data-name="Rectángulo 454570" width="48" height="48" rx="6" transform="translate(-9652.112 -10097)" fill="#3e5d56"/>
    <path id="life-ring-solid-full" d="M88.233,91.223a12.665,12.665,0,0,1-14.677,0l3.828-3.828a7.389,7.389,0,0,0,7.035,0l3.828,3.828Zm5.986.053a16.914,16.914,0,0,0,.007-20.762,2.114,2.114,0,0,0-2.95-2.95,16.9,16.9,0,0,0-20.762,0,2.114,2.114,0,0,0-2.95,2.95,16.9,16.9,0,0,0,0,20.762,2.114,2.114,0,0,0,2.95,2.95,16.9,16.9,0,0,0,20.762,0,2.114,2.114,0,0,0,2.95-2.95Zm-3-3.042-3.828-3.828a7.389,7.389,0,0,0,0-7.035l3.828-3.828a12.671,12.671,0,0,1,.007,14.69ZM88.233,70.566l-3.828,3.828a7.389,7.389,0,0,0-7.035,0l-3.828-3.828a12.686,12.686,0,0,1,14.69,0ZM74.394,84.412,70.566,88.24a12.676,12.676,0,0,1,0-14.684l3.828,3.828a7.389,7.389,0,0,0,0,7.035Zm3.333-3.518a3.168,3.168,0,1,1,3.168,3.168A3.169,3.169,0,0,1,77.727,80.895Z" transform="translate(-9709.003 -10154.394)" fill="#fff"/>
  </g>
</svg>
