<svg xmlns="http://www.w3.org/2000/svg" width="40" height="40" viewBox="0 0 40 40">
  <g id="Grupo_1180448" data-name="Grupo 1180448" transform="translate(0.001)">
    <path id="Trazado_1004504" data-name="Trazado 1004504" d="M265.427,242.534a1.807,1.807,0,0,0,1.3-.55l3.071-3.149a1.821,1.821,0,0,0-2.607-2.542l-1.8,1.847-.316-.307a1.821,1.821,0,1,0-2.539,2.611l1.619,1.574A1.812,1.812,0,0,0,265.427,242.534Zm-2.083-3.846a.648.648,0,0,1,.915-.013l.736.716a.587.587,0,0,0,.83-.011l2.211-2.267a.647.647,0,0,1,.926.9l-3.071,3.149a.65.65,0,0,1-.914.012l-1.619-1.574A.647.647,0,0,1,263.344,238.688Z" transform="translate(-241.521 -217.327)" fill="#3e5d56"/>
    <path id="Trazado_1004505" data-name="Trazado 1004505" d="M218.688,191.733a.587.587,0,0,0-.937.707,7.739,7.739,0,0,0,.7.808,7.637,7.637,0,1,0-1.876-3.074.587.587,0,0,0,1.119-.357,6.474,6.474,0,1,1,1.588,2.6A6.573,6.573,0,0,1,218.688,191.733Z" transform="translate(-199.321 -166.126)" fill="#3e5d56"/>
    <path id="Trazado_1004506" data-name="Trazado 1004506" d="M39.191,32.443l-3.7-3.7a.587.587,0,0,0-.83,0l-.023.023-1.426-1.425a10.315,10.315,0,0,0,1.642-4.966.587.587,0,0,0-1.172-.074,9.15,9.15,0,0,1-9.131,8.573h-.056a9.153,9.153,0,1,1,9.061-10.776.587.587,0,0,0,1.156-.207,10.339,10.339,0,0,0-5.321-7.292V7.862a.594.594,0,0,0-.172-.415L21.939.172A.6.6,0,0,0,21.524,0H1.76A1.763,1.763,0,0,0,0,1.761V6.7a.587.587,0,0,0,1.174,0V1.761a.588.588,0,0,1,.587-.587H20.937V6.688A1.763,1.763,0,0,0,22.7,8.449h5.514v3.613a10.375,10.375,0,0,0-3.563-.67l-.017,0H11.523a.587.587,0,1,0,0,1.174h8.221A10.291,10.291,0,0,0,17.4,14.246H11.523a.587.587,0,1,0,0,1.174h4.822a10.22,10.22,0,0,0-1.927,4.2H11.523a.587.587,0,1,0,0,1.174h2.723q-.041.459-.041.925,0,.383.028.76H11.523a.587.587,0,1,0,0,1.174h2.862a10.219,10.219,0,0,0,1.961,4.365H11.523a.587.587,0,1,0,0,1.174H17.4a10.29,10.29,0,0,0,2.338,1.679h-8.22a.587.587,0,1,0,0,1.174H24.537a10.381,10.381,0,0,0,3.675-.672v6.866a.588.588,0,0,1-.587.587H1.76a.588.588,0,0,1-.587-.587V9.045A.587.587,0,0,0,0,9.045V38.239A1.763,1.763,0,0,0,1.76,40H27.626a1.763,1.763,0,0,0,1.761-1.761v-7.4q.393-.209.771-.453l1.425,1.425a.592.592,0,0,0-.023.853l3.7,3.7a2.776,2.776,0,0,0,3.926-3.926ZM22.7,7.275a.588.588,0,0,1-.587-.587V2l5.271,5.27Zm8.417,22.409q.376-.311.728-.662t.662-.728l1.3,1.3-1.39,1.39Zm7.245,5.854a1.61,1.61,0,0,1-2.266,0L32.806,32.25l2.266-2.265,3.289,3.289A1.609,1.609,0,0,1,38.361,35.539Z" fill="#3e5d56"/>
    <path id="Trazado_1004507" data-name="Trazado 1004507" d="M52.706,143.5h2.569a1.315,1.315,0,0,0,1.313-1.313v-2.568a1.315,1.315,0,0,0-1.313-1.313H52.706a1.315,1.315,0,0,0-1.313,1.313v2.568A1.315,1.315,0,0,0,52.706,143.5Zm-.139-3.882a.139.139,0,0,1,.139-.139h2.569a.139.139,0,0,1,.139.139v2.568a.139.139,0,0,1-.139.139H52.706a.139.139,0,0,1-.139-.139Z" transform="translate(-47.379 -127.505)" fill="#3e5d56"/>
    <path id="Trazado_1004508" data-name="Trazado 1004508" d="M51.393,247.56a1.315,1.315,0,0,0,1.313,1.313h2.569a1.315,1.315,0,0,0,1.313-1.313v-2.568a1.315,1.315,0,0,0-1.313-1.313H52.706a1.315,1.315,0,0,0-1.313,1.313Zm1.174-2.568a.139.139,0,0,1,.139-.139h2.569a.139.139,0,0,1,.139.139v2.568a.139.139,0,0,1-.139.139H52.706a.139.139,0,0,1-.139-.139Z" transform="translate(-47.379 -224.641)" fill="#3e5d56"/>
    <path id="Trazado_1004509" data-name="Trazado 1004509" d="M51.393,355.067a1.315,1.315,0,0,0,1.313,1.313h2.569a1.315,1.315,0,0,0,1.313-1.313V352.5a1.315,1.315,0,0,0-1.313-1.313H52.706a1.315,1.315,0,0,0-1.313,1.313Zm1.174-2.568a.139.139,0,0,1,.139-.139h2.569a.139.139,0,0,1,.139.139v2.568a.139.139,0,0,1-.139.139H52.706a.139.139,0,0,1-.139-.139Z" transform="translate(-47.379 -323.749)" fill="#3e5d56"/>
  </g>
</svg>
