<svg xmlns="http://www.w3.org/2000/svg" width="80" height="80" viewBox="0 0 80 80">
  <g id="Grupo_1177963" data-name="Grupo 1177963" transform="translate(-216.711 -356)">
    <rect id="Rectángulo_455012" data-name="Rectángulo 455012" width="80" height="80" rx="10" transform="translate(216.711 356)" fill="#99bfb7"/>
    <g id="Grupo_1183285" data-name="Grupo 1183285" transform="translate(225.18 364)">
      <path id="Trazado_1009589" data-name="Trazado 1009589" d="M20,32h6v9H20Z" fill="#6888b5"/>
      <path id="Trazado_1009590" data-name="Trazado 1009590" d="M38,32h6v9H38Z" fill="#6888b5"/>
      <path id="Trazado_1009591" data-name="Trazado 1009591" d="M26,21H38V42H26Z" fill="#759acc"/>
      <path id="Trazado_1009592" data-name="Trazado 1009592" d="M32,36a2,2,0,0,0-2,2v4h4V38A2,2,0,0,0,32,36Z" fill="#495867"/>
      <g id="Grupo_1183284" data-name="Grupo 1183284">
        <path id="Trazado_1009593" data-name="Trazado 1009593" d="M44,28H38v4h8Z" fill="#526273"/>
        <path id="Trazado_1009594" data-name="Trazado 1009594" d="M18,32h8V28H20Z" fill="#526273"/>
        <path id="Trazado_1009595" data-name="Trazado 1009595" d="M29,17h6v4H29Z" fill="#526273"/>
      </g>
      <circle id="Elipse_13934" data-name="Elipse 13934" cx="8" cy="8" r="8" transform="translate(3 3)" fill="#cfcfcf"/>
      <circle id="Elipse_13935" data-name="Elipse 13935" cx="3" cy="3" r="3" transform="translate(8.06 6.71)" fill="#759acc"/>
      <path id="Trazado_1009596" data-name="Trazado 1009596" d="M11.06,12.71A4.96,4.96,0,0,0,6.12,17l-.01.322A7.973,7.973,0,0,0,16,17.24V17a4.992,4.992,0,0,0-4.94-4.29Z" fill="#759acc"/>
      <circle id="Elipse_13936" data-name="Elipse 13936" cx="8" cy="8" r="8" transform="translate(45 3)" fill="#cfcfcf"/>
      <circle id="Elipse_13937" data-name="Elipse 13937" cx="3" cy="3" r="3" transform="translate(50.06 6.71)" fill="#759acc"/>
      <path id="Trazado_1009597" data-name="Trazado 1009597" d="M53.06,12.71A4.96,4.96,0,0,0,48.12,17l-.01.322A7.973,7.973,0,0,0,58,17.24V17A4.992,4.992,0,0,0,53.06,12.71Z" fill="#759acc"/>
      <circle id="Elipse_13938" data-name="Elipse 13938" cx="8" cy="8" r="8" transform="translate(3 45)" fill="#cfcfcf"/>
      <circle id="Elipse_13939" data-name="Elipse 13939" cx="3" cy="3" r="3" transform="translate(8.06 48.71)" fill="#759acc"/>
      <path id="Trazado_1009598" data-name="Trazado 1009598" d="M11.06,54.71A4.96,4.96,0,0,0,6.12,59l-.01.322A7.973,7.973,0,0,0,16,59.24V59a4.992,4.992,0,0,0-4.94-4.29Z" fill="#759acc"/>
      <circle id="Elipse_13940" data-name="Elipse 13940" cx="8" cy="8" r="8" transform="translate(45 45)" fill="#cfcfcf"/>
      <circle id="Elipse_13941" data-name="Elipse 13941" cx="3" cy="3" r="3" transform="translate(50.06 48.71)" fill="#759acc"/>
      <path id="Trazado_1009599" data-name="Trazado 1009599" d="M53.06,54.71A4.96,4.96,0,0,0,48.12,59l-.01.322A7.973,7.973,0,0,0,58,59.24V59A4.992,4.992,0,0,0,53.06,54.71Z" fill="#759acc"/>
      <path id="Trazado_1009600" data-name="Trazado 1009600" d="M53,2a9,9,0,1,0,9,9A9.011,9.011,0,0,0,53,2ZM49.173,16.854a3.949,3.949,0,0,1,1.051-1.973,3.986,3.986,0,0,1,6.7,1.91,6.974,6.974,0,0,1-7.755.063ZM51.06,9.71a2,2,0,1,1,2,2A2,2,0,0,1,51.06,9.71Zm7.457,5.583a6.01,6.01,0,0,0-2.576-2.821,4,4,0,1,0-5.776-.017,6.142,6.142,0,0,0-1.357,1.012,6,6,0,0,0-1.258,1.915,7,7,0,1,1,10.967-.089Z"/>
      <path id="Trazado_1009601" data-name="Trazado 1009601" d="M53,44a9,9,0,1,0,9,9A9.011,9.011,0,0,0,53,44ZM49.173,58.854a3.949,3.949,0,0,1,1.051-1.973,3.986,3.986,0,0,1,6.7,1.91,6.974,6.974,0,0,1-7.755.063ZM51.06,51.71a2,2,0,1,1,2,2A2,2,0,0,1,51.06,51.71Zm7.457,5.583a6.01,6.01,0,0,0-2.576-2.821,4,4,0,1,0-5.776-.017,6.142,6.142,0,0,0-1.357,1.012,6,6,0,0,0-1.258,1.915,7,7,0,1,1,10.967-.089Z"/>
      <path id="Trazado_1009602" data-name="Trazado 1009602" d="M20,11a9,9,0,1,0-9,9A9.011,9.011,0,0,0,20,11ZM7.173,16.854a3.949,3.949,0,0,1,1.051-1.973,3.986,3.986,0,0,1,6.7,1.91,6.974,6.974,0,0,1-7.755.063ZM9.06,9.71a2,2,0,1,1,2,2A2,2,0,0,1,9.06,9.71ZM4,11a7,7,0,1,1,12.517,4.293,6.01,6.01,0,0,0-2.576-2.821,4,4,0,1,0-5.776-.017,6.142,6.142,0,0,0-1.357,1.012A6,6,0,0,0,5.55,15.382,6.961,6.961,0,0,1,4,11Z"/>
      <path id="Trazado_1009603" data-name="Trazado 1009603" d="M11,62a9,9,0,1,0-9-9A9.011,9.011,0,0,0,11,62ZM7.173,58.854a3.949,3.949,0,0,1,1.051-1.973,3.986,3.986,0,0,1,6.7,1.91,6.974,6.974,0,0,1-7.755.063ZM9.06,51.71a2,2,0,1,1,2,2A2,2,0,0,1,9.06,51.71ZM11,46a6.989,6.989,0,0,1,5.517,11.293,6.01,6.01,0,0,0-2.576-2.821,4,4,0,1,0-5.776-.017,6.142,6.142,0,0,0-1.357,1.012A6,6,0,0,0,5.55,57.382,6.992,6.992,0,0,1,11,46Z"/>
      <path id="Trazado_1009604" data-name="Trazado 1009604" d="M41.6,10l.8-1.833a26.073,26.073,0,0,0-20.8,0L22.4,10a24.073,24.073,0,0,1,19.2,0Z"/>
      <path id="Trazado_1009605" data-name="Trazado 1009605" d="M8.164,21.6a26.073,26.073,0,0,0-.083,20.607l1.839-.786A24.073,24.073,0,0,1,10,22.4Z"/>
      <path id="Trazado_1009606" data-name="Trazado 1009606" d="M41.42,54.081a24.08,24.08,0,0,1-18.84,0l-.786,1.839a26.082,26.082,0,0,0,20.413,0Z"/>
      <path id="Trazado_1009607" data-name="Trazado 1009607" d="M55.92,42.207A26.078,26.078,0,0,0,55.836,21.6L54,22.4a24.077,24.077,0,0,1,.078,19.02Z"/>
      <path id="Trazado_1009608" data-name="Trazado 1009608" d="M45,41V33h1a1,1,0,0,0,.9-1.447l-2-4A1,1,0,0,0,44,27H39V21a1,1,0,0,0-1-1H36V17a1,1,0,0,0-1-1H33V14H31v2H29a1,1,0,0,0-1,1v3H26a1,1,0,0,0-1,1v6H20a1,1,0,0,0-.9.553l-2,4A1,1,0,0,0,18,33h1v8a1,1,0,0,0,1,1h5a1,1,0,0,0,1,1H38a1,1,0,0,0,1-1h5A1,1,0,0,0,45,41ZM20.618,29H25v2H19.618ZM21,40V33h4v7Zm9-22h4v2H30Zm3,23H31V38a1,1,0,0,1,2,0Zm4,0H35V38a3,3,0,0,0-6,0v3H27V22H37Zm6.382-12,1,2H39V29ZM39,40V33h4v7Z"/>
      <path id="Trazado_1009609" data-name="Trazado 1009609" d="M29,24h2v2H29Z"/>
      <path id="Trazado_1009610" data-name="Trazado 1009610" d="M29,28h2v2H29Z"/>
      <path id="Trazado_1009611" data-name="Trazado 1009611" d="M29,32h2v2H29Z"/>
      <path id="Trazado_1009612" data-name="Trazado 1009612" d="M33,24h2v2H33Z"/>
      <path id="Trazado_1009613" data-name="Trazado 1009613" d="M33,28h2v2H33Z"/>
      <path id="Trazado_1009614" data-name="Trazado 1009614" d="M33,32h2v2H33Z"/>
      <path id="Trazado_1009615" data-name="Trazado 1009615" d="M40,35h2v2H40Z"/>
      <path id="Trazado_1009616" data-name="Trazado 1009616" d="M22,35h2v2H22Z"/>
    </g>
  </g>
</svg>
