<svg xmlns="http://www.w3.org/2000/svg" width="129" height="127" viewBox="0 0 129 127">
  <g id="Grupo_1181075" data-name="Grupo 1181075" transform="translate(-403.711 -4444)">
    <rect id="Rectángulo_454806" data-name="Rectángulo 454806" width="129" height="127" transform="translate(403.711 4444)" fill="#bbded6"/>
    <path id="Rectángulo_454808" data-name="Rectángulo 454808" d="M0,0H79A12,12,0,0,1,91,12V91a0,0,0,0,1,0,0H12A12,12,0,0,1,0,79V0A0,0,0,0,1,0,0Z" transform="translate(422.711 4462)" fill="#fff"/>
    <g id="Grupo_1183289" data-name="Grupo 1183289" transform="translate(441.35 4480.467)">
      <g id="Grupo_1183287" data-name="Grupo 1183287" transform="translate(0 0.192)">
        <path id="Trazado_1009653" data-name="Trazado 1009653" d="M52.7,39.632a3.239,3.239,0,0,0-2.43-.887l-9.933.564V29.717H38.767V39.4l-3.528.2V35.719a2.891,2.891,0,0,0-1.048-5.578h-9.98a2.887,2.887,0,0,0-1.048,5.578V48.3a2.9,2.9,0,0,0-1.522,4H1.575V4.13A2.365,2.365,0,0,1,3.938,1.767H7.359V.192H3.938A3.942,3.942,0,0,0,0,4.13V53.873H40.342V44.706l9.933.564q.1.006.191.005a3.234,3.234,0,0,0,2.238-.893A3.282,3.282,0,0,0,52.7,39.632ZM24.739,35.917h8.926V48.1H24.739Zm-.527-4.2h9.98a1.313,1.313,0,1,1,0,2.625h-9.98A1.313,1.313,0,0,1,24.212,31.716Zm0,17.956h9.98a1.313,1.313,0,0,1,0,2.625h-9.98A1.313,1.313,0,0,1,24.212,49.673ZM38.767,52.3H36.762a2.9,2.9,0,0,0-1.522-4V44.416l3.528.2V52.3Zm12.856-9.061a1.675,1.675,0,0,1-1.258.46l-15.125-.859V41.176l15.125-.859A1.7,1.7,0,0,1,51.623,43.238Z" transform="translate(0 -0.192)" fill="#3e5d56"/>
        <path id="Trazado_1009654" data-name="Trazado 1009654" d="M114.913,4.13V15.119h0V28.142h1.575V15.119h6.3V4.13A3.942,3.942,0,0,0,118.851.192H85.08V1.767H115.7A3.917,3.917,0,0,0,114.913,4.13Zm6.3,0v9.414h-4.725V4.13a2.363,2.363,0,0,1,4.725,0Z" transform="translate(-76.146 -0.192)" fill="#3e5d56"/>
        <path id="Trazado_1009655" data-name="Trazado 1009655" d="M56.352,177.622H68.909v-1.575H55.641l-1.8,2.04-3.757-9.344L45.5,181.467l-3.3-8.937-2.836,3.517H37.327v1.575h2.788l1.567-1.943,3.834,10.384,4.648-12.9,3.167,7.877Z" transform="translate(-33.407 -151.044)" fill="#3e5d56"/>
        <path id="Trazado_1009656" data-name="Trazado 1009656" d="M219.28,48.566h-4.2v-4.2H209.3v4.2h-4.2v5.775h4.2v4.2h5.775v-4.2h4.2Zm-1.575,4.2h-4.2v4.2h-2.625v-4.2h-4.2V50.141h4.2v-4.2H213.5v4.2h4.2Z" transform="translate(-183.567 -39.727)" fill="#3e5d56"/>
        <path id="Trazado_1009657" data-name="Trazado 1009657" d="M48.094,63.366h6.193v1.575H48.094Z" transform="translate(-43.044 -56.732)" fill="#3e5d56"/>
        <path id="Trazado_1009658" data-name="Trazado 1009658" d="M48.094,94.366h8.293v1.575H48.094Z" transform="translate(-43.044 -84.477)" fill="#3e5d56"/>
        <path id="Trazado_1009659" data-name="Trazado 1009659" d="M48.094,125.366H59.537v1.575H48.094Z" transform="translate(-43.044 -112.222)" fill="#3e5d56"/>
        <path id="Trazado_1009660" data-name="Trazado 1009660" d="M48.094,374.366H61.526v1.575H48.094Z" transform="translate(-43.044 -335.075)" fill="#3e5d56"/>
        <path id="Trazado_1009661" data-name="Trazado 1009661" d="M48.094,405.366H61.526v1.575H48.094Z" transform="translate(-43.044 -362.82)" fill="#3e5d56"/>
        <path id="Trazado_1009662" data-name="Trazado 1009662" d="M48.094,436.366H61.526v1.575H48.094Z" transform="translate(-43.044 -390.565)" fill="#3e5d56"/>
      </g>
      <g id="Grupo_1183288" data-name="Grupo 1183288" transform="translate(28.414 39.644)">
        <path id="Trazado_1009663" data-name="Trazado 1009663" d="M270.592,375.907h1.575v1.575h-1.575Z" transform="translate(-270.592 -375.907)" fill="#3e5d56"/>
        <path id="Trazado_1009664" data-name="Trazado 1009664" d="M270.592,405.907h1.575v1.575h-1.575Z" transform="translate(-270.592 -402.757)" fill="#3e5d56"/>
      </g>
    </g>
  </g>
</svg>
