<svg xmlns="http://www.w3.org/2000/svg" width="39.937" height="39.907" viewBox="0 0 39.937 39.907">
  <g id="Grupo_1183292" data-name="Grupo 1183292" transform="translate(0 -0.192)">
    <g id="Grupo_1183290" data-name="Grupo 1183290" transform="translate(0 0.192)">
      <path id="Trazado_1009665" data-name="Trazado 1009665" d="M39.182,29.512a2.408,2.408,0,0,0-1.806-.66l-7.384.419V22.141H28.82v7.2l-2.623.149V26.6a2.149,2.149,0,0,0-.779-4.146H18A2.146,2.146,0,0,0,17.22,26.6v9.349a2.157,2.157,0,0,0-1.132,2.976H1.171V3.119A1.758,1.758,0,0,1,2.927,1.363H5.471V.192H2.927A2.931,2.931,0,0,0,0,3.119V40.1H29.991V33.284l7.384.419q.071,0,.142,0a2.4,2.4,0,0,0,1.664-.664A2.44,2.44,0,0,0,39.182,29.512ZM18.391,26.75h6.635v9.055H18.391ZM18,23.628h7.419a.976.976,0,0,1,0,1.952H18A.976.976,0,0,1,18,23.628Zm0,13.349h7.419a.976.976,0,1,1,0,1.952H18A.976.976,0,0,1,18,36.977ZM28.82,38.929H27.329A2.157,2.157,0,0,0,26.2,35.953V33.069l2.623.149v5.711Zm9.557-6.736a1.246,1.246,0,0,1-.936.342L26.2,31.9V30.66l11.244-.639A1.26,1.26,0,0,1,38.377,32.193Z" transform="translate(0 -0.192)" fill="#773b3d"/>
      <path id="Trazado_1009666" data-name="Trazado 1009666" d="M107.258,3.12v8.169h0V20.97h1.171V11.289h4.684V3.12A2.931,2.931,0,0,0,110.186.192H85.08V1.363h22.766A2.912,2.912,0,0,0,107.258,3.12Zm4.684,0v7h-3.513v-7a1.756,1.756,0,1,1,3.513,0Z" transform="translate(-78.438 -0.192)" fill="#773b3d"/>
      <path id="Trazado_1009667" data-name="Trazado 1009667" d="M51.47,175.344h9.336v-1.171H50.942L49.6,175.69l-2.793-6.947L43.4,178.2l-2.453-6.644-2.108,2.615H37.327v1.171H39.4l1.165-1.444,2.85,7.72,3.455-9.588,2.354,5.856Z" transform="translate(-34.413 -155.585)" fill="#773b3d"/>
      <path id="Trazado_1009668" data-name="Trazado 1009668" d="M215.643,47.489H212.52V44.366h-4.293v3.123H205.1v4.293h3.123V54.9h4.293V51.782h3.123Zm-1.171,3.123h-3.123v3.123H209.4V50.611h-3.123V48.659H209.4V45.537h1.952v3.123h3.123Z" transform="translate(-189.093 -40.918)" fill="#773b3d"/>
      <path id="Trazado_1009669" data-name="Trazado 1009669" d="M48.094,63.366h4.6v1.171h-4.6Z" transform="translate(-44.34 -58.434)" fill="#773b3d"/>
      <path id="Trazado_1009670" data-name="Trazado 1009670" d="M48.094,94.366h6.165v1.171H48.094Z" transform="translate(-44.34 -87.014)" fill="#773b3d"/>
      <path id="Trazado_1009671" data-name="Trazado 1009671" d="M48.094,125.366H56.6v1.171H48.094Z" transform="translate(-44.34 -115.595)" fill="#773b3d"/>
      <path id="Trazado_1009672" data-name="Trazado 1009672" d="M48.094,374.366h9.985v1.171H48.094Z" transform="translate(-44.34 -345.157)" fill="#773b3d"/>
      <path id="Trazado_1009673" data-name="Trazado 1009673" d="M48.094,405.366h9.985v1.171H48.094Z" transform="translate(-44.34 -373.737)" fill="#773b3d"/>
      <path id="Trazado_1009674" data-name="Trazado 1009674" d="M48.094,436.366h9.985v1.171H48.094Z" transform="translate(-44.34 -402.317)" fill="#773b3d"/>
    </g>
    <g id="Grupo_1183291" data-name="Grupo 1183291" transform="translate(21.123 29.522)">
      <path id="Trazado_1009675" data-name="Trazado 1009675" d="M270.592,375.907h1.171v1.171h-1.171Z" transform="translate(-270.592 -375.907)" fill="#773b3d"/>
      <path id="Trazado_1009676" data-name="Trazado 1009676" d="M270.592,405.907h1.171v1.171h-1.171Z" transform="translate(-270.592 -403.565)" fill="#773b3d"/>
    </g>
  </g>
</svg>
