<svg xmlns="http://www.w3.org/2000/svg" width="116" height="116" viewBox="0 0 116 116">
  <g id="Grupo_1183476" data-name="Grupo 1183476" transform="translate(-15801.82 7005)">
    <circle id="Elipse_13955" data-name="Elipse 13955" cx="58" cy="58" r="58" transform="translate(15801.82 -7005)" fill="#3e5d56"/>
    <g id="Grupo_1183475" data-name="Grupo 1183475" transform="translate(15476.109 -10647)">
      <circle id="Elipse_13822" data-name="Elipse 13822" cx="45" cy="45" r="45" transform="translate(338.711 3655)" fill="#fff"/>
      <g id="Grupo_1180036" data-name="Grupo 1180036" transform="translate(357.586 3672.707)">
        <path id="Trazado_1003090" data-name="Trazado 1003090" d="M40.7,46.334V41.3H8V88.251H40.7V46.334Z" transform="translate(-7.162 -35.808)" fill="#92e0c0"/>
        <g id="Grupo_1180027" data-name="Grupo 1180027" transform="translate(7.704 2.081)">
          <rect id="Rectángulo_455820" data-name="Rectángulo 455820" width="18.909" height="7.003" transform="translate(0 0)" fill="#d3a06c"/>
          <path id="Trazado_1003091" data-name="Trazado 1003091" d="M288,85.879V82.018a8.714,8.714,0,0,1,8.714-8.714h0a5.649,5.649,0,0,1,4.7,2.515h0a4.427,4.427,0,0,1,3.353,4.295v5.765Z" transform="translate(-265.523 -66.536)" fill="#d3a06c"/>
        </g>
        <path id="Trazado_1003092" data-name="Trazado 1003092" d="M367.874,75.819a5.649,5.649,0,0,0-4.7-2.515,8.815,8.815,0,0,0-.934.051,5.649,5.649,0,0,1,3.957,2.464,4.427,4.427,0,0,1,3.353,4.295v5.765h1.677V80.114A4.427,4.427,0,0,0,367.874,75.819Z" transform="translate(-324.28 -64.455)" fill="#b27946"/>
        <path id="Trazado_1003093" data-name="Trazado 1003093" d="M416,169.3h.838a2.515,2.515,0,0,1,2.515,2.515h0a2.515,2.515,0,0,1-2.515,2.515H416Z" transform="translate(-372.406 -150.395)" fill="#f9e0a6"/>
        <path id="Trazado_1003094" data-name="Trazado 1003094" d="M62.635,73.3h3.353v40.24H40V73.3H62.635Z" transform="translate(-35.808 -64.455)" fill="#ececec"/>
        <rect id="Rectángulo_455821" data-name="Rectángulo 455821" width="25.912" height="1.401" transform="translate(4.202 47.602)" fill="#b6c1ce"/>
        <path id="Trazado_1003095" data-name="Trazado 1003095" d="M291.353,169.3h-.838A2.515,2.515,0,0,0,288,171.819h0a2.515,2.515,0,0,0,2.515,2.515h.838Z" transform="translate(-257.82 -150.395)" fill="#f9e0a6"/>
        <path id="Trazado_1003096" data-name="Trazado 1003096" d="M258.06,273.3l-5.376,1.076a5.03,5.03,0,0,0-3.85,3.55L248,280.849h25.15l-.834-2.919a5.028,5.028,0,0,0-3.85-3.55L263.09,273.3Z" transform="translate(-222.011 -243.496)" fill="#b6c1ce"/>
        <g id="Grupo_1180028" data-name="Grupo 1180028" transform="translate(32.695 16.394)">
          <path id="Trazado_1003097" data-name="Trazado 1003097" d="M344,257.3v2.515l2.515,1.677,2.515-1.677V257.3Z" transform="translate(-340.647 -245.567)" fill="#f9e0a6"/>
          <path id="Trazado_1003098" data-name="Trazado 1003098" d="M312,147.819v4.192a5.868,5.868,0,0,0,5.868,5.868h0a5.868,5.868,0,0,0,5.868-5.868v-4.192h0a10.06,10.06,0,0,1-6.036-2.012l-.671-.5-.737.737A6.071,6.071,0,0,1,312,147.819Z" transform="translate(-312 -145.304)" fill="#f9e0a6"/>
        </g>
        <path id="Trazado_1003099" data-name="Trazado 1003099" d="M365.03,168.079v4.192a5.864,5.864,0,0,1-5.03,5.8,5.824,5.824,0,0,0,6.707-5.8v-4.192a9.985,9.985,0,0,1-1.677-.143Z" transform="translate(-322.275 -149.17)" fill="#eabd8c"/>
        <path id="Trazado_1003100" data-name="Trazado 1003100" d="M310.707,325.041l-5.665-5.665A3.557,3.557,0,0,1,304,316.861h0a3.556,3.556,0,0,1,3.557-3.557h0a3.557,3.557,0,0,1,2.515,1.042l.635.635.635-.635a3.556,3.556,0,0,1,2.515-1.042h0a3.556,3.556,0,0,1,3.557,3.557h0a3.557,3.557,0,0,1-1.042,2.515Z" transform="translate(-272.143 -279.305)" fill="#fb5968"/>
        <path id="Trazado_1003101" data-name="Trazado 1003101" d="M88.383,107.819H85.868V105.3H82.515v2.515H80v3.353h2.515v2.515h3.353v-2.515h2.515Z" transform="translate(-71.617 -93.102)" fill="#ffc729"/>
        <path id="Trazado_1003102" data-name="Trazado 1003102" d="M52.25,38.191,51.111,34.2a5.844,5.844,0,0,0-4.491-4.142l-4.7-.941V28.9a6.722,6.722,0,0,0,3.149-4.187,3.357,3.357,0,0,0,2.72-3.29V15.659a5.257,5.257,0,0,0-3.677-5.02,6.472,6.472,0,0,0-5.214-2.628,9.489,9.489,0,0,0-4.523,1.142v-4.5H27.665V1.3H6.707V4.657H0V53.281H34.372V42.73l4.192,4.192,6.258-6.258a4.35,4.35,0,0,0,1.225-2.472ZM38.564,28.131a5.035,5.035,0,0,1-5.03-5.03v-3.41a6.855,6.855,0,0,0,4.048-1.968L37.8,17.5l.089.067a10.974,10.974,0,0,0,5.7,2.145V23.1A5.035,5.035,0,0,1,38.564,28.131Zm-6.707-5.263a1.662,1.662,0,0,1,0-2.887Zm13.413,0V19.981a1.661,1.661,0,0,1,0,2.886ZM42.9,11.829l.179.27.315.079a3.582,3.582,0,0,1,2.718,3.481v2.878a3.319,3.319,0,0,0-1.677-.466A9.279,9.279,0,0,1,38.9,16.226l-1.252-.94L36.4,16.537a5.2,5.2,0,0,1-3.7,1.533,3.319,3.319,0,0,0-1.677.466v-.974a7.885,7.885,0,0,1,7.876-7.875A4.8,4.8,0,0,1,42.9,11.829ZM8.383,2.981H25.989v5.03H24.312V9.687h5.03v1.677h1.677V8.011H27.665V6.334H32.7v3.975a9.526,9.526,0,0,0-3.353,7.253v3.861a3.357,3.357,0,0,0,2.72,3.29A6.722,6.722,0,0,0,35.21,28.9v.22l-4.192.838v-3.5H29.342v3.982A5.833,5.833,0,0,0,26.016,34.2l-1.139,3.988h4.465v10.06H5.03V9.687H22.635V8.011H8.383ZM32.7,51.6H1.677V6.334h5.03V8.011H3.353V49.928H31.019V38.191h.062a4.35,4.35,0,0,0,1.225,2.472l.39.39ZM43.636,39.478l-5.073,5.073-5.073-5.073a2.719,2.719,0,0,1,3.845-3.845l1.228,1.228,1.228-1.228a2.719,2.719,0,0,1,3.845,3.845Zm-1.922-6.317a4.367,4.367,0,0,0-3.108,1.287l-.043.043-.043-.043a4.384,4.384,0,0,0-7.364,2.067H27.1l.529-1.851A4.175,4.175,0,0,1,30.837,31.7l6.05-1.21v-.909a6.474,6.474,0,0,0,3.353,0V30.5l6.05,1.209A4.175,4.175,0,0,1,49.5,34.663l.529,1.851H45.97A4.393,4.393,0,0,0,41.714,33.161Z"/>
        <path id="Trazado_1003103" data-name="Trazado 1003103" d="M74.515,107.364h5.03v-2.515H82.06v-5.03H79.545V97.3h-5.03v2.515H72v5.03h2.515Zm-.838-4.192V101.5h2.515V98.981h1.677V101.5h2.515v1.677H77.868v2.515H76.192v-2.515Z" transform="translate(-64.455 -85.94)"/>
        <rect id="Rectángulo_455822" data-name="Rectángulo 455822" width="6.303" height="1.401" transform="translate(20.31 13.986)"/>
        <rect id="Rectángulo_455823" data-name="Rectángulo 455823" width="6.303" height="1.401" transform="translate(20.31 17.488)"/>
        <path id="Trazado_1003104" data-name="Trazado 1003104" d="M86.707,233.3H80v1.677h6.707Z" transform="translate(-71.617 -207.688)"/>
        <path id="Trazado_1003105" data-name="Trazado 1003105" d="M80.838,265.3H80v1.677h6.707V265.3H80.838Z" transform="translate(-71.617 -236.335)"/>
        <rect id="Rectángulo_455824" data-name="Rectángulo 455824" width="5.603" height="1.401" transform="translate(18.209 25.892)"/>
        <rect id="Rectángulo_455825" data-name="Rectángulo 455825" width="5.603" height="2.101" transform="translate(18.209 28.693)"/>
        <path id="Trazado_1003106" data-name="Trazado 1003106" d="M85.868,362.981h.838V361.3H80v1.677h5.868Z" transform="translate(-71.617 -322.275)"/>
        <rect id="Rectángulo_455826" data-name="Rectángulo 455826" width="5.603" height="1.401" transform="translate(18.209 39.198)"/>
        <rect id="Rectángulo_455827" data-name="Rectángulo 455827" width="15.407" height="2.101" transform="translate(8.404 32.195)"/>
        <rect id="Rectángulo_455828" data-name="Rectángulo 455828" width="15.407" height="1.401" transform="translate(8.404 35.697)"/>
        <rect id="Rectángulo_455829" data-name="Rectángulo 455829" width="15.407" height="1.401" transform="translate(8.404 42.7)"/>
        <rect id="Rectángulo_455830" data-name="Rectángulo 455830" width="1.401" height="1.401" transform="translate(21.01 4.882)"/>
        <rect id="Rectángulo_455831" data-name="Rectángulo 455831" width="1.401" height="1.401" transform="translate(11.906 4.882)"/>
      </g>
    </g>
  </g>
</svg>
