<svg xmlns="http://www.w3.org/2000/svg" width="348" height="433" viewBox="0 0 348 433">
  <g id="Grupo_1183476" data-name="Grupo 1183476" transform="translate(1783 9710)">
    <g id="Trazado_1010291" data-name="Trazado 1010291" transform="translate(-1781 -9358)" fill="#ffebe7">
      <path d="M 140 80 L 10 80 C 7.061800003051758 80 4.299459934234619 78.85579681396484 2.221820116043091 76.77818298339844 C 0.1441999971866608 74.7005615234375 -1 71.93821716308594 -1 69 L -1 10 C -1 7.061800003051758 0.1441999971866608 4.299459934234619 2.221820116043091 2.221820116043091 C 4.299459934234619 0.1441999971866608 7.061800003051758 -1 10 -1 L 140 -1 C 142.9382019042969 -1 145.7005462646484 0.1441999971866608 147.7781829833984 2.221820116043091 C 149.8558044433594 4.299459934234619 151 7.061800003051758 151 10 L 151 69 C 151 71.93821716308594 149.8558044433594 74.7005615234375 147.7781829833984 76.77818298339844 C 145.7005462646484 78.85579681396484 142.9382019042969 80 140 80 Z" stroke="none"/>
      <path d="M 10 0 C 4.477157592773438 0 0 4.477142333984375 0 10 L 0 69 C 0 74.52284240722656 4.477157592773438 79 10 79 L 140 79 C 145.5228424072266 79 150 74.52284240722656 150 69 L 150 10 C 150 4.477142333984375 145.5228424072266 0 140 0 L 10 0 M 10 -2 L 140 -2 C 143.205322265625 -2 146.2187805175781 -0.7517776489257812 148.4852752685547 1.514717102050781 C 150.7517852783203 3.781219482421875 152 6.794677734375 152 10 L 152 69 C 152 72.205322265625 150.7517852783203 75.21878051757812 148.4852752685547 77.48528289794922 C 146.2187805175781 79.75177764892578 143.205322265625 81 140 81 L 10 81 C 6.794677734375 81 3.781219482421875 79.75177764892578 1.514724731445312 77.48528289794922 C -0.7517852783203125 75.21878051757812 -2 72.205322265625 -2 69 L -2 10 C -2 6.794677734375 -0.7517852783203125 3.781219482421875 1.514724731445312 1.514717102050781 C 3.781219482421875 -0.7517776489257812 6.794677734375 -2 10 -2 Z" stroke="none" fill="#ffbdb6"/>
    </g>
    <g id="Trazado_1010292" data-name="Trazado 1010292" transform="translate(-1587 -9358)" fill="#ffebe7">
      <path d="M 140 80 L 10 80 C 7.061800003051758 80 4.299459934234619 78.85579681396484 2.221820116043091 76.77818298339844 C 0.1441999971866608 74.7005615234375 -1 71.93821716308594 -1 69 L -1 10 C -1 7.061800003051758 0.1441999971866608 4.299459934234619 2.221820116043091 2.221820116043091 C 4.299459934234619 0.1441999971866608 7.061800003051758 -1 10 -1 L 140 -1 C 142.9382019042969 -1 145.7005462646484 0.1441999971866608 147.7781829833984 2.221820116043091 C 149.8558044433594 4.299459934234619 151 7.061800003051758 151 10 L 151 69 C 151 71.93821716308594 149.8558044433594 74.7005615234375 147.7781829833984 76.77818298339844 C 145.7005462646484 78.85579681396484 142.9382019042969 80 140 80 Z" stroke="none"/>
      <path d="M 10 0 C 4.477157592773438 0 0 4.477142333984375 0 10 L 0 69 C 0 74.52284240722656 4.477157592773438 79 10 79 L 140 79 C 145.5228424072266 79 150 74.52284240722656 150 69 L 150 10 C 150 4.477142333984375 145.5228424072266 0 140 0 L 10 0 M 10 -2 L 140 -2 C 143.205322265625 -2 146.2187805175781 -0.7517776489257812 148.4852752685547 1.514717102050781 C 150.7517852783203 3.781219482421875 152 6.794677734375 152 10 L 152 69 C 152 72.205322265625 150.7517852783203 75.21878051757812 148.4852752685547 77.48528289794922 C 146.2187805175781 79.75177764892578 143.205322265625 81 140 81 L 10 81 C 6.794677734375 81 3.781219482421875 79.75177764892578 1.514724731445312 77.48528289794922 C -0.7517852783203125 75.21878051757812 -2 72.205322265625 -2 69 L -2 10 C -2 6.794677734375 -0.7517852783203125 3.781219482421875 1.514724731445312 1.514717102050781 C 3.781219482421875 -0.7517776489257812 6.794677734375 -2 10 -2 Z" stroke="none" fill="#ffbdb6"/>
    </g>
    <path id="Trazado_1010294" data-name="Trazado 1010294" d="M12.263,16.531a6.571,6.571,0,0,1-3.094.656,4.989,4.989,0,0,1-3.828-1.539A5.679,5.679,0,0,1,3.9,11.609,5.952,5.952,0,0,1,5.521,7.266a5.489,5.489,0,0,1,4.1-1.656,6.576,6.576,0,0,1,2.641.461v1.4A5.355,5.355,0,0,0,9.607,6.8,4.076,4.076,0,0,0,6.478,8.086a4.856,4.856,0,0,0-1.2,3.445A4.621,4.621,0,0,0,6.4,14.793a3.815,3.815,0,0,0,2.941,1.215,5.518,5.518,0,0,0,2.922-.75Zm5.493.656a3.711,3.711,0,0,1-2.832-1.121,4.153,4.153,0,0,1-1.059-2.973,4.326,4.326,0,0,1,1.1-3.148,3.96,3.96,0,0,1,2.977-1.133,3.588,3.588,0,0,1,2.793,1.1,4.368,4.368,0,0,1,1,3.055,4.3,4.3,0,0,1-1.082,3.066A3.791,3.791,0,0,1,17.756,17.188Zm.094-7.3a2.437,2.437,0,0,0-1.953.84,3.449,3.449,0,0,0-.719,2.316,3.262,3.262,0,0,0,.727,2.242,2.469,2.469,0,0,0,1.945.82,2.342,2.342,0,0,0,1.91-.8,3.492,3.492,0,0,0,.668-2.289A3.552,3.552,0,0,0,19.76,10.7,2.332,2.332,0,0,0,17.85,9.891ZM30.468,17H29.187V12.438q0-2.547-1.859-2.547a2.017,2.017,0,0,0-1.59.723,2.679,2.679,0,0,0-.629,1.824V17H23.827V9h1.281v1.328h.031a2.887,2.887,0,0,1,2.625-1.516,2.448,2.448,0,0,1,2.008.848,3.776,3.776,0,0,1,.7,2.449Zm6.165-.078a2.47,2.47,0,0,1-1.2.25q-2.1,0-2.1-2.344V10.094H31.961V9h1.375V7.047l1.281-.414V9h2.016v1.094H34.617V14.6a1.869,1.869,0,0,0,.273,1.148,1.091,1.091,0,0,0,.906.344,1.347,1.347,0,0,0,.836-.266ZM39.04,6.969a.812.812,0,0,1-.586-.234.791.791,0,0,1-.242-.594A.821.821,0,0,1,39.04,5.3a.827.827,0,0,1,.6.238.835.835,0,0,1,0,1.184A.82.82,0,0,1,39.04,6.969ZM39.665,17H38.384V9h1.281Zm9.274,0H47.658V12.438q0-2.547-1.859-2.547a2.017,2.017,0,0,0-1.59.723,2.679,2.679,0,0,0-.629,1.824V17H42.3V9H43.58v1.328h.031a2.887,2.887,0,0,1,2.625-1.516,2.448,2.448,0,0,1,2.008.848,3.776,3.776,0,0,1,.7,2.449Zm8.923,0H56.581V15.734H56.55a2.631,2.631,0,0,1-2.469,1.453q-2.859,0-2.859-3.406V9H52.5v4.578q0,2.531,1.938,2.531a1.96,1.96,0,0,0,1.543-.691,2.645,2.645,0,0,0,.605-1.809V9h1.281Zm8.353,0H64.934V15.75H64.9a2.682,2.682,0,0,1-2.461,1.438,2.63,2.63,0,0,1-1.871-.633,2.192,2.192,0,0,1-.676-1.68q0-2.242,2.641-2.609l2.4-.336q0-2.039-1.648-2.039a3.938,3.938,0,0,0-2.609.984V9.563a4.958,4.958,0,0,1,2.719-.75q2.82,0,2.82,2.984Zm-1.281-4.047L63,13.219a3.133,3.133,0,0,0-1.344.441,1.273,1.273,0,0,0-.453,1.121,1.221,1.221,0,0,0,.418.957,1.615,1.615,0,0,0,1.113.371,2.056,2.056,0,0,0,1.574-.668,2.387,2.387,0,0,0,.621-1.691ZM72.841,10.3a1.567,1.567,0,0,0-.969-.258,1.635,1.635,0,0,0-1.371.773,3.576,3.576,0,0,0-.551,2.109V17H68.669V9H69.95v1.648h.031a2.793,2.793,0,0,1,.836-1.316,1.906,1.906,0,0,1,1.258-.473,2.092,2.092,0,0,1,.766.109Zm7.338,2.469V17H78.866V5.8h3.078a4.063,4.063,0,0,1,2.785.875,3.124,3.124,0,0,1,.988,2.469,3.4,3.4,0,0,1-1.1,2.609,4.194,4.194,0,0,1-2.965,1.016Zm0-5.781v4.594h1.375a3.074,3.074,0,0,0,2.074-.621A2.2,2.2,0,0,0,84.343,9.2q0-2.219-2.625-2.219ZM95.445,17H93.992L92.8,13.859h-4.75L86.937,17H85.476l4.3-11.2h1.359Zm-3.07-4.32L90.617,7.906a4.571,4.571,0,0,1-.172-.75h-.031a4.185,4.185,0,0,1-.18.75L88.492,12.68Zm6.071.086V17H97.134V5.8h3.078A4.063,4.063,0,0,1,103,6.672a3.124,3.124,0,0,1,.988,2.469,3.4,3.4,0,0,1-1.1,2.609,4.194,4.194,0,0,1-2.965,1.016Zm0-5.781v4.594h1.375a3.074,3.074,0,0,0,2.074-.621A2.2,2.2,0,0,0,102.61,9.2q0-2.219-2.625-2.219ZM116.753,9l-3.68,9.281q-.984,2.484-2.766,2.484a2.931,2.931,0,0,1-.836-.1V19.516a2.375,2.375,0,0,0,.758.141,1.57,1.57,0,0,0,1.453-1.156l.641-1.516L109.2,9h1.422l2.164,6.156q.039.117.164.609h.047q.039-.187.156-.594L115.425,9ZM16.921,36.711V35.336a3.792,3.792,0,0,0,2.3.773q1.688,0,1.688-1.125a.976.976,0,0,0-.145-.543,1.44,1.44,0,0,0-.391-.395,3.007,3.007,0,0,0-.578-.309q-.332-.137-.715-.285a9.206,9.206,0,0,1-.934-.426,2.82,2.82,0,0,1-.672-.484,1.8,1.8,0,0,1-.406-.613,2.17,2.17,0,0,1-.137-.8,1.912,1.912,0,0,1,.258-1,2.286,2.286,0,0,1,.688-.727,3.206,3.206,0,0,1,.98-.441A4.349,4.349,0,0,1,20,28.813a4.59,4.59,0,0,1,1.859.359v1.3a3.624,3.624,0,0,0-2.031-.578,2.374,2.374,0,0,0-.648.082,1.587,1.587,0,0,0-.5.23,1.065,1.065,0,0,0-.32.355.936.936,0,0,0-.113.457,1.1,1.1,0,0,0,.113.523,1.152,1.152,0,0,0,.332.375,2.538,2.538,0,0,0,.531.3q.313.133.711.289a9.9,9.9,0,0,1,.953.418,3.269,3.269,0,0,1,.719.484,1.893,1.893,0,0,1,.457.621,2,2,0,0,1,.16.836,1.971,1.971,0,0,1-.262,1.031,2.243,2.243,0,0,1-.7.727,3.2,3.2,0,0,1-1.008.43,4.976,4.976,0,0,1-1.2.141A4.539,4.539,0,0,1,16.921,36.711ZM30.664,33.32H25.016a2.992,2.992,0,0,0,.719,2.063,2.478,2.478,0,0,0,1.891.727,3.931,3.931,0,0,0,2.484-.891v1.2a4.643,4.643,0,0,1-2.789.766,3.381,3.381,0,0,1-2.664-1.09,4.461,4.461,0,0,1-.969-3.066,4.375,4.375,0,0,1,1.059-3.043,3.394,3.394,0,0,1,2.629-1.176,3.008,3.008,0,0,1,2.43,1.016,4.234,4.234,0,0,1,.859,2.82Zm-1.312-1.086a2.607,2.607,0,0,0-.535-1.727,1.823,1.823,0,0,0-1.465-.617,2.07,2.07,0,0,0-1.539.648,2.943,2.943,0,0,0-.781,1.7ZM39.47,36.359q0,4.406-4.219,4.406a5.664,5.664,0,0,1-2.594-.562V38.922a5.327,5.327,0,0,0,2.578.75q2.953,0,2.953-3.141v-.875h-.031A3.237,3.237,0,0,1,33,36.121a4.263,4.263,0,0,1-.91-2.863,4.981,4.981,0,0,1,.98-3.242,3.275,3.275,0,0,1,2.684-1.2,2.608,2.608,0,0,1,2.4,1.3h.031V29H39.47Zm-1.281-2.977V32.2a2.289,2.289,0,0,0-.645-1.633,2.122,2.122,0,0,0-1.605-.68,2.225,2.225,0,0,0-1.859.863,3.853,3.853,0,0,0-.672,2.418,3.308,3.308,0,0,0,.645,2.137,2.082,2.082,0,0,0,1.707.8,2.23,2.23,0,0,0,1.754-.766A2.854,2.854,0,0,0,38.189,33.383ZM48.572,37H47.291V35.734H47.26a2.631,2.631,0,0,1-2.469,1.453q-2.859,0-2.859-3.406V29h1.273v4.578q0,2.531,1.938,2.531a1.96,1.96,0,0,0,1.543-.691,2.645,2.645,0,0,0,.605-1.809V29h1.281Zm3.282-10.031a.812.812,0,0,1-.586-.234.791.791,0,0,1-.242-.594.821.821,0,0,1,.828-.836.827.827,0,0,1,.6.238.835.835,0,0,1,0,1.184A.82.82,0,0,1,51.855,26.969ZM52.48,37H51.2V29H52.48Zm13.993,0H65.191V32.406a3.466,3.466,0,0,0-.41-1.922,1.555,1.555,0,0,0-1.379-.594,1.708,1.708,0,0,0-1.395.75,2.869,2.869,0,0,0-.574,1.8V37H60.152V32.25q0-2.359-1.82-2.359a1.686,1.686,0,0,0-1.391.707,2.923,2.923,0,0,0-.547,1.84V37H55.113V29h1.281v1.266h.031a2.718,2.718,0,0,1,2.484-1.453,2.311,2.311,0,0,1,2.266,1.656,2.855,2.855,0,0,1,2.656-1.656q2.641,0,2.641,3.258Zm3.118-10.031A.812.812,0,0,1,69,26.734a.791.791,0,0,1-.242-.594.821.821,0,0,1,.828-.836.827.827,0,0,1,.6.238.835.835,0,0,1,0,1.184A.82.82,0,0,1,69.591,26.969ZM70.216,37H68.935V29h1.281Zm9.063-3.68H73.631a2.992,2.992,0,0,0,.719,2.063,2.478,2.478,0,0,0,1.891.727,3.931,3.931,0,0,0,2.484-.891v1.2a4.643,4.643,0,0,1-2.789.766,3.381,3.381,0,0,1-2.664-1.09,4.461,4.461,0,0,1-.969-3.066,4.375,4.375,0,0,1,1.059-3.043,3.394,3.394,0,0,1,2.629-1.176,3.008,3.008,0,0,1,2.43,1.016,4.234,4.234,0,0,1,.859,2.82Zm-1.312-1.086a2.607,2.607,0,0,0-.535-1.727,1.823,1.823,0,0,0-1.465-.617,2.07,2.07,0,0,0-1.539.648,2.943,2.943,0,0,0-.781,1.7ZM87.9,37H86.616V32.438q0-2.547-1.859-2.547a2.017,2.017,0,0,0-1.59.723,2.679,2.679,0,0,0-.629,1.824V37H81.257V29h1.281v1.328h.031a2.887,2.887,0,0,1,2.625-1.516,2.448,2.448,0,0,1,2.008.848,3.776,3.776,0,0,1,.7,2.449Zm6.165-.078a2.47,2.47,0,0,1-1.2.25q-2.1,0-2.1-2.344V30.094H89.39V29h1.375V27.047l1.281-.414V29h2.016v1.094H92.047V34.6a1.869,1.869,0,0,0,.273,1.148,1.091,1.091,0,0,0,.906.344,1.347,1.347,0,0,0,.836-.266Zm5.095.266a3.711,3.711,0,0,1-2.832-1.121,4.153,4.153,0,0,1-1.059-2.973,4.326,4.326,0,0,1,1.1-3.148,3.96,3.96,0,0,1,2.977-1.133,3.588,3.588,0,0,1,2.793,1.1,4.368,4.368,0,0,1,1,3.055,4.3,4.3,0,0,1-1.082,3.066A3.791,3.791,0,0,1,99.157,37.188Zm.094-7.3a2.437,2.437,0,0,0-1.953.84,3.449,3.449,0,0,0-.719,2.316,3.262,3.262,0,0,0,.727,2.242,2.469,2.469,0,0,0,1.945.82,2.342,2.342,0,0,0,1.91-.8,3.492,3.492,0,0,0,.668-2.289,3.552,3.552,0,0,0-.668-2.312A2.332,2.332,0,0,0,99.251,29.891Z" transform="translate(-1766 -9338)" fill="#12263f"/>
    <path id="Trazado_1010293" data-name="Trazado 1010293" d="M13.122,17H11.669l-1.187-3.141H5.731L4.614,17H3.153L7.45,5.8H8.809Zm-3.07-4.32L8.294,7.906a4.571,4.571,0,0,1-.172-.75H8.091a4.185,4.185,0,0,1-.18.75L6.169,12.68Zm10.04,3.953a4.163,4.163,0,0,1-2.187.555,3.622,3.622,0,0,1-2.762-1.113,4.035,4.035,0,0,1-1.051-2.887,4.435,4.435,0,0,1,1.133-3.176,3.963,3.963,0,0,1,3.023-1.2,4.209,4.209,0,0,1,1.859.391v1.313A3.258,3.258,0,0,0,18.2,9.891a2.576,2.576,0,0,0-2.012.879,3.335,3.335,0,0,0-.785,2.309,3.176,3.176,0,0,0,.738,2.219,2.545,2.545,0,0,0,1.98.813,3.211,3.211,0,0,0,1.969-.7Zm5.688.289a2.47,2.47,0,0,1-1.2.25q-2.1,0-2.1-2.344V10.094H21.108V9h1.375V7.047l1.281-.414V9H25.78v1.094H23.764V14.6a1.869,1.869,0,0,0,.273,1.148,1.091,1.091,0,0,0,.906.344,1.347,1.347,0,0,0,.836-.266Zm2.407-9.953a.812.812,0,0,1-.586-.234.791.791,0,0,1-.242-.594.821.821,0,0,1,.828-.836.827.827,0,0,1,.6.238.835.835,0,0,1,0,1.184A.82.82,0,0,1,28.187,6.969ZM28.812,17H27.531V9h1.281Zm8.923-8-3.187,8H33.29L30.258,9h1.406L33.7,14.813a5.217,5.217,0,0,1,.281,1.117h.031a5.283,5.283,0,0,1,.25-1.086L36.383,9Zm7.142,8H43.6V15.75h-.031A2.682,2.682,0,0,1,41.1,17.188a2.63,2.63,0,0,1-1.871-.633,2.192,2.192,0,0,1-.676-1.68q0-2.242,2.641-2.609l2.4-.336q0-2.039-1.648-2.039a3.938,3.938,0,0,0-2.609.984V9.563a4.958,4.958,0,0,1,2.719-.75q2.82,0,2.82,2.984ZM43.6,12.953l-1.93.266a3.133,3.133,0,0,0-1.344.441,1.273,1.273,0,0,0-.453,1.121,1.221,1.221,0,0,0,.418.957,1.615,1.615,0,0,0,1.113.371,2.056,2.056,0,0,0,1.574-.668A2.387,2.387,0,0,0,43.6,13.75ZM51.5,10.3a1.567,1.567,0,0,0-.969-.258,1.635,1.635,0,0,0-1.371.773,3.576,3.576,0,0,0-.551,2.109V17H47.331V9h1.281v1.648h.031a2.794,2.794,0,0,1,.836-1.316,1.906,1.906,0,0,1,1.258-.473,2.092,2.092,0,0,1,.766.109ZM63.083,17H61.8V15.75H61.77a2.682,2.682,0,0,1-2.461,1.438,2.63,2.63,0,0,1-1.871-.633,2.192,2.192,0,0,1-.676-1.68q0-2.242,2.641-2.609l2.4-.336q0-2.039-1.648-2.039a3.938,3.938,0,0,0-2.609.984V9.563a4.958,4.958,0,0,1,2.719-.75q2.82,0,2.82,2.984ZM61.8,12.953l-1.93.266a3.133,3.133,0,0,0-1.344.441,1.273,1.273,0,0,0-.453,1.121,1.221,1.221,0,0,0,.418.957,1.615,1.615,0,0,0,1.113.371,2.056,2.056,0,0,0,1.574-.668A2.387,2.387,0,0,0,61.8,13.75Zm7.446,3.969a2.47,2.47,0,0,1-1.2.25q-2.1,0-2.1-2.344V10.094H64.576V9h1.375V7.047l1.281-.414V9h2.016v1.094H67.232V14.6a1.869,1.869,0,0,0,.273,1.148,1.091,1.091,0,0,0,.906.344,1.347,1.347,0,0,0,.836-.266Zm8.181-3.6H71.78a2.992,2.992,0,0,0,.719,2.063,2.478,2.478,0,0,0,1.891.727,3.931,3.931,0,0,0,2.484-.891v1.2a4.643,4.643,0,0,1-2.789.766A3.381,3.381,0,0,1,71.42,16.1a4.461,4.461,0,0,1-.969-3.066A4.375,4.375,0,0,1,71.51,9.988a3.394,3.394,0,0,1,2.629-1.176,3.008,3.008,0,0,1,2.43,1.016,4.234,4.234,0,0,1,.859,2.82Zm-1.312-1.086a2.607,2.607,0,0,0-.535-1.727,1.823,1.823,0,0,0-1.465-.617,2.07,2.07,0,0,0-1.539.648,2.943,2.943,0,0,0-.781,1.7ZM86.046,17H84.765V12.438q0-2.547-1.859-2.547a2.017,2.017,0,0,0-1.59.723,2.679,2.679,0,0,0-.629,1.824V17H79.406V9h1.281v1.328h.031a2.887,2.887,0,0,1,2.625-1.516,2.448,2.448,0,0,1,2.008.848,3.776,3.776,0,0,1,.7,2.449Zm7.907-.367a4.163,4.163,0,0,1-2.187.555A3.622,3.622,0,0,1,89,16.074a4.035,4.035,0,0,1-1.051-2.887,4.435,4.435,0,0,1,1.133-3.176,3.963,3.963,0,0,1,3.023-1.2,4.209,4.209,0,0,1,1.859.391v1.313a3.258,3.258,0,0,0-1.906-.625,2.576,2.576,0,0,0-2.012.879,3.335,3.335,0,0,0-.785,2.309A3.176,3.176,0,0,0,90,15.3a2.545,2.545,0,0,0,1.98.813,3.211,3.211,0,0,0,1.969-.7Zm2.634-9.664A.812.812,0,0,1,96,6.734a.791.791,0,0,1-.242-.594.821.821,0,0,1,.828-.836.827.827,0,0,1,.6.238.835.835,0,0,1,0,1.184A.82.82,0,0,1,96.587,6.969ZM97.212,17H95.931V9h1.281Zm5.978.188a3.711,3.711,0,0,1-2.832-1.121A4.153,4.153,0,0,1,99.3,13.094a4.326,4.326,0,0,1,1.1-3.148,3.96,3.96,0,0,1,2.977-1.133,3.588,3.588,0,0,1,2.793,1.1,4.368,4.368,0,0,1,1,3.055,4.3,4.3,0,0,1-1.082,3.066A3.791,3.791,0,0,1,103.19,17.188Zm.094-7.3a2.437,2.437,0,0,0-1.953.84,3.449,3.449,0,0,0-.719,2.316,3.262,3.262,0,0,0,.727,2.242,2.469,2.469,0,0,0,1.945.82,2.342,2.342,0,0,0,1.91-.8,3.492,3.492,0,0,0,.668-2.289,3.552,3.552,0,0,0-.668-2.312A2.332,2.332,0,0,0,103.283,9.891Zm1.875-4.969-2.047,2.563h-.992l1.742-2.562ZM115.9,17H114.62V12.438q0-2.547-1.859-2.547a2.017,2.017,0,0,0-1.59.723,2.679,2.679,0,0,0-.629,1.824V17h-1.281V9h1.281v1.328h.031A2.887,2.887,0,0,1,113.2,8.813a2.448,2.448,0,0,1,2.008.848,3.776,3.776,0,0,1,.7,2.449ZM20.975,33.32H15.326a2.992,2.992,0,0,0,.719,2.063,2.478,2.478,0,0,0,1.891.727,3.931,3.931,0,0,0,2.484-.891v1.2a4.643,4.643,0,0,1-2.789.766,3.381,3.381,0,0,1-2.664-1.09A4.461,4.461,0,0,1,14,33.031a4.375,4.375,0,0,1,1.059-3.043,3.394,3.394,0,0,1,2.629-1.176,3.008,3.008,0,0,1,2.43,1.016,4.234,4.234,0,0,1,.859,2.82Zm-1.312-1.086a2.607,2.607,0,0,0-.535-1.727,1.823,1.823,0,0,0-1.465-.617,2.07,2.07,0,0,0-1.539.648,2.943,2.943,0,0,0-.781,1.7Zm2.806,4.477V35.336a3.792,3.792,0,0,0,2.3.773q1.688,0,1.688-1.125a.976.976,0,0,0-.145-.543,1.44,1.44,0,0,0-.391-.395,3.007,3.007,0,0,0-.578-.309q-.332-.137-.715-.285a9.206,9.206,0,0,1-.934-.426,2.82,2.82,0,0,1-.672-.484,1.8,1.8,0,0,1-.406-.613,2.17,2.17,0,0,1-.137-.8,1.912,1.912,0,0,1,.258-1,2.286,2.286,0,0,1,.688-.727,3.206,3.206,0,0,1,.98-.441,4.349,4.349,0,0,1,1.137-.148,4.59,4.59,0,0,1,1.859.359v1.3a3.624,3.624,0,0,0-2.031-.578,2.374,2.374,0,0,0-.648.082,1.587,1.587,0,0,0-.5.23,1.065,1.065,0,0,0-.32.355.936.936,0,0,0-.113.457,1.1,1.1,0,0,0,.113.523,1.152,1.152,0,0,0,.332.375,2.538,2.538,0,0,0,.531.3q.313.133.711.289a9.9,9.9,0,0,1,.953.418,3.269,3.269,0,0,1,.719.484,1.893,1.893,0,0,1,.457.621,2,2,0,0,1,.16.836,1.971,1.971,0,0,1-.262,1.031,2.243,2.243,0,0,1-.7.727,3.2,3.2,0,0,1-1.008.43,4.976,4.976,0,0,1-1.2.141A4.539,4.539,0,0,1,22.468,36.711Zm8.626-.867h-.031V40.68H29.781V29h1.281v1.406h.031a3.03,3.03,0,0,1,2.766-1.594,2.93,2.93,0,0,1,2.414,1.074,4.449,4.449,0,0,1,.867,2.879,4.959,4.959,0,0,1-.977,3.215,3.251,3.251,0,0,1-2.672,1.207A2.676,2.676,0,0,1,31.094,35.844Zm-.031-3.227v1.117a2.379,2.379,0,0,0,.645,1.684,2.3,2.3,0,0,0,3.461-.2,4.086,4.086,0,0,0,.66-2.477,3.225,3.225,0,0,0-.617-2.094,2.043,2.043,0,0,0-1.672-.758,2.27,2.27,0,0,0-1.8.777A2.854,2.854,0,0,0,31.063,32.617Zm14.595.7H40.009a2.992,2.992,0,0,0,.719,2.063,2.478,2.478,0,0,0,1.891.727,3.931,3.931,0,0,0,2.484-.891v1.2a4.643,4.643,0,0,1-2.789.766A3.381,3.381,0,0,1,39.65,36.1a4.461,4.461,0,0,1-.969-3.066,4.375,4.375,0,0,1,1.059-3.043,3.394,3.394,0,0,1,2.629-1.176,3.008,3.008,0,0,1,2.43,1.016,4.234,4.234,0,0,1,.859,2.82Zm-1.312-1.086a2.607,2.607,0,0,0-.535-1.727,1.823,1.823,0,0,0-1.465-.617,2.07,2.07,0,0,0-1.539.648,2.943,2.943,0,0,0-.781,1.7Zm8.743,4.4a4.163,4.163,0,0,1-2.187.555,3.622,3.622,0,0,1-2.762-1.113,4.035,4.035,0,0,1-1.051-2.887,4.435,4.435,0,0,1,1.133-3.176,3.963,3.963,0,0,1,3.023-1.2A4.209,4.209,0,0,1,53.1,29.2v1.313a3.258,3.258,0,0,0-1.906-.625,2.576,2.576,0,0,0-2.012.879,3.335,3.335,0,0,0-.785,2.309,3.176,3.176,0,0,0,.738,2.219,2.545,2.545,0,0,0,1.98.813,3.211,3.211,0,0,0,1.969-.7Zm2.634-9.664a.812.812,0,0,1-.586-.234.791.791,0,0,1-.242-.594.821.821,0,0,1,.828-.836.827.827,0,0,1,.6.238.835.835,0,0,1,0,1.184A.82.82,0,0,1,55.722,26.969ZM56.347,37H55.065V29h1.281Zm8.36,0H63.426V35.75h-.031a2.682,2.682,0,0,1-2.461,1.438,2.63,2.63,0,0,1-1.871-.633,2.192,2.192,0,0,1-.676-1.68q0-2.242,2.641-2.609l2.4-.336q0-2.039-1.648-2.039a3.938,3.938,0,0,0-2.609.984V29.563a4.958,4.958,0,0,1,2.719-.75q2.82,0,2.82,2.984Zm-1.281-4.047-1.93.266a3.133,3.133,0,0,0-1.344.441,1.273,1.273,0,0,0-.453,1.121,1.221,1.221,0,0,0,.418.957,1.615,1.615,0,0,0,1.113.371,2.056,2.056,0,0,0,1.574-.668,2.387,2.387,0,0,0,.621-1.691ZM68.442,37H67.161V25.156h1.281Zm3.29-10.031a.812.812,0,0,1-.586-.234.791.791,0,0,1-.242-.594.821.821,0,0,1,.828-.836.827.827,0,0,1,.6.238.835.835,0,0,1,0,1.184A.82.82,0,0,1,71.732,26.969ZM72.357,37H71.076V29h1.281Zm8.212-7.633-4.734,6.539h4.688V37h-6.57v-.4l4.734-6.508H74.4V29h6.172ZM87.992,37H86.711V35.75H86.68a2.682,2.682,0,0,1-2.461,1.438,2.63,2.63,0,0,1-1.871-.633,2.192,2.192,0,0,1-.676-1.68q0-2.242,2.641-2.609l2.4-.336q0-2.039-1.648-2.039a3.938,3.938,0,0,0-2.609.984V29.563a4.958,4.958,0,0,1,2.719-.75q2.82,0,2.82,2.984Zm-1.281-4.047-1.93.266a3.133,3.133,0,0,0-1.344.441,1.273,1.273,0,0,0-.453,1.121,1.221,1.221,0,0,0,.418.957,1.615,1.615,0,0,0,1.113.371,2.056,2.056,0,0,0,1.574-.668,2.387,2.387,0,0,0,.621-1.691ZM97.274,37H95.993V35.641h-.031a2.958,2.958,0,0,1-2.75,1.547,2.988,2.988,0,0,1-2.41-1.074,4.407,4.407,0,0,1-.9-2.926,4.794,4.794,0,0,1,1-3.18,3.3,3.3,0,0,1,2.664-1.2,2.564,2.564,0,0,1,2.4,1.3h.031V25.156h1.281Zm-1.281-3.617V32.2a2.289,2.289,0,0,0-.641-1.641,2.149,2.149,0,0,0-1.625-.672,2.212,2.212,0,0,0-1.844.859,3.766,3.766,0,0,0-.672,2.375,3.387,3.387,0,0,0,.645,2.184,2.107,2.107,0,0,0,1.73.8,2.188,2.188,0,0,0,1.738-.773A2.882,2.882,0,0,0,95.993,33.383ZM105.635,37h-1.281V35.75h-.031a2.682,2.682,0,0,1-2.461,1.438,2.63,2.63,0,0,1-1.871-.633,2.192,2.192,0,0,1-.676-1.68q0-2.242,2.641-2.609l2.4-.336q0-2.039-1.648-2.039a3.938,3.938,0,0,0-2.609.984V29.563a4.958,4.958,0,0,1,2.719-.75q2.82,0,2.82,2.984Zm-1.281-4.047-1.93.266a3.133,3.133,0,0,0-1.344.441,1.273,1.273,0,0,0-.453,1.121,1.221,1.221,0,0,0,.418.957,1.615,1.615,0,0,0,1.113.371,2.056,2.056,0,0,0,1.574-.668,2.387,2.387,0,0,0,.621-1.691Zm-77.6,14.016a.812.812,0,0,1-.586-.234.791.791,0,0,1-.242-.594.821.821,0,0,1,.828-.836.827.827,0,0,1,.6.238.835.835,0,0,1,0,1.184A.82.82,0,0,1,26.754,46.969ZM27.379,57H26.1V49h1.281Zm9.274,0H35.372V52.438q0-2.547-1.859-2.547a2.017,2.017,0,0,0-1.59.723,2.679,2.679,0,0,0-.629,1.824V57H30.013V49h1.281v1.328h.031a2.887,2.887,0,0,1,2.625-1.516,2.448,2.448,0,0,1,2.008.848,3.776,3.776,0,0,1,.7,2.449Zm13.813,0H49.186V52.406a3.466,3.466,0,0,0-.41-1.922,1.555,1.555,0,0,0-1.379-.594,1.708,1.708,0,0,0-1.395.75,2.869,2.869,0,0,0-.574,1.8V57H44.147V52.25q0-2.359-1.82-2.359a1.686,1.686,0,0,0-1.391.707,2.923,2.923,0,0,0-.547,1.84V57H39.107V49h1.281v1.266h.031A2.718,2.718,0,0,1,42.9,48.813a2.311,2.311,0,0,1,2.266,1.656,2.855,2.855,0,0,1,2.656-1.656q2.641,0,2.641,3.258Zm8.892-3.68H53.71a2.992,2.992,0,0,0,.719,2.063,2.478,2.478,0,0,0,1.891.727,3.931,3.931,0,0,0,2.484-.891v1.2a4.643,4.643,0,0,1-2.789.766,3.381,3.381,0,0,1-2.664-1.09,4.461,4.461,0,0,1-.969-3.066,4.375,4.375,0,0,1,1.059-3.043,3.394,3.394,0,0,1,2.629-1.176,3.008,3.008,0,0,1,2.43,1.016,4.234,4.234,0,0,1,.859,2.82Zm-1.312-1.086a2.607,2.607,0,0,0-.535-1.727,1.823,1.823,0,0,0-1.465-.617,2.07,2.07,0,0,0-1.539.648,2.943,2.943,0,0,0-.781,1.7ZM68.164,57H66.883V55.641h-.031a2.958,2.958,0,0,1-2.75,1.547,2.988,2.988,0,0,1-2.41-1.074,4.407,4.407,0,0,1-.9-2.926,4.794,4.794,0,0,1,1-3.18,3.3,3.3,0,0,1,2.664-1.2,2.564,2.564,0,0,1,2.4,1.3h.031V45.156h1.281Zm-1.281-3.617V52.2a2.289,2.289,0,0,0-.641-1.641,2.149,2.149,0,0,0-1.625-.672,2.212,2.212,0,0,0-1.844.859,3.766,3.766,0,0,0-.672,2.375,3.387,3.387,0,0,0,.645,2.184,2.107,2.107,0,0,0,1.73.8,2.188,2.188,0,0,0,1.738-.773A2.882,2.882,0,0,0,66.883,53.383Zm4.571-6.414a.812.812,0,0,1-.586-.234.791.791,0,0,1-.242-.594.821.821,0,0,1,.828-.836.827.827,0,0,1,.6.238.835.835,0,0,1,0,1.184A.82.82,0,0,1,71.454,46.969ZM72.079,57H70.8V49h1.281Zm8.36,0H79.158V55.75h-.031a2.682,2.682,0,0,1-2.461,1.438,2.63,2.63,0,0,1-1.871-.633,2.192,2.192,0,0,1-.676-1.68q0-2.242,2.641-2.609l2.4-.336q0-2.039-1.648-2.039a3.938,3.938,0,0,0-2.609.984V49.563a4.958,4.958,0,0,1,2.719-.75q2.82,0,2.82,2.984Zm-1.281-4.047-1.93.266a3.133,3.133,0,0,0-1.344.441,1.273,1.273,0,0,0-.453,1.121,1.221,1.221,0,0,0,.418.957,1.615,1.615,0,0,0,1.113.371,2.056,2.056,0,0,0,1.574-.668,2.387,2.387,0,0,0,.621-1.691ZM86.6,56.922a2.47,2.47,0,0,1-1.2.25q-2.1,0-2.1-2.344V50.094H81.933V49h1.375V47.047l1.281-.414V49H86.6v1.094H84.589V54.6a1.869,1.869,0,0,0,.273,1.148,1.091,1.091,0,0,0,.906.344,1.347,1.347,0,0,0,.836-.266ZM94.082,57H92.8V55.75h-.031a2.682,2.682,0,0,1-2.461,1.438,2.63,2.63,0,0,1-1.871-.633,2.192,2.192,0,0,1-.676-1.68q0-2.242,2.641-2.609l2.4-.336q0-2.039-1.648-2.039a3.938,3.938,0,0,0-2.609.984V49.563a4.958,4.958,0,0,1,2.719-.75q2.82,0,2.82,2.984ZM92.8,52.953l-1.93.266a3.133,3.133,0,0,0-1.344.441,1.273,1.273,0,0,0-.453,1.121,1.221,1.221,0,0,0,.418.957,1.615,1.615,0,0,0,1.113.371,2.056,2.056,0,0,0,1.574-.668A2.387,2.387,0,0,0,92.8,53.75Z" transform="translate(-1572 -9348)" fill="#12263f"/>
    <path id="Trazado_1008282" data-name="Trazado 1008282" d="M0,0V82.5" transform="translate(-1706.5 -9358) rotate(180)" fill="none" stroke="#445866" stroke-width="3"/>
    <path id="Trazado_1008283" data-name="Trazado 1008283" d="M0,0V82.5" transform="translate(-1511.5 -9358) rotate(180)" fill="none" stroke="#445866" stroke-width="3"/>
    <path id="Trazado_1010288" data-name="Trazado 1010288" d="M10,0H138a10,10,0,0,1,10,10V40a10,10,0,0,1-10,10H10A10,10,0,0,1,0,40V10A10,10,0,0,1,10,0Z" transform="translate(-1781 -9426)" fill="#ffbdb6"/>
    <path id="Trazado_1010289" data-name="Trazado 1010289" d="M10,0H140a10,10,0,0,1,10,10V40a10,10,0,0,1-10,10H10A10,10,0,0,1,0,40V10A10,10,0,0,1,10,0Z" transform="translate(-1587 -9426)" fill="#ffbdb6"/>
    <path id="Trazado_1010295" data-name="Trazado 1010295" d="M32.648,17H30.1L25.484,9.961a10.179,10.179,0,0,1-.562-.93h-.031q.062.594.063,1.813V17H22.57V5.8h2.719l4.445,6.82q.3.461.563.914h.031a11.978,11.978,0,0,1-.062-1.539V5.8h2.383Zm6.133.2a4.3,4.3,0,0,1-3.145-1.121,4.064,4.064,0,0,1-1.145-3.043A4.065,4.065,0,0,1,35.68,9.926,4.487,4.487,0,0,1,38.891,8.8a4.249,4.249,0,0,1,3.125,1.121,3.985,3.985,0,0,1,1.133,2.965,4.23,4.23,0,0,1-1.168,3.148A4.348,4.348,0,0,1,38.781,17.2Zm.063-6.5a1.647,1.647,0,0,0-1.359.6A2.653,2.653,0,0,0,37,13q0,2.3,1.859,2.3,1.773,0,1.773-2.367Q40.633,10.7,38.844,10.7Z" transform="translate(-1739 -9411)" fill="#12263f"/>
    <path id="Trazado_1010290" data-name="Trazado 1010290" d="M26.508,16.57v-2.5a4.8,4.8,0,0,0,1.477.855,4.746,4.746,0,0,0,1.609.285,3.569,3.569,0,0,0,.832-.086,1.949,1.949,0,0,0,.594-.238,1.039,1.039,0,0,0,.355-.359.9.9,0,0,0,.117-.449.971.971,0,0,0-.187-.586,2.018,2.018,0,0,0-.512-.477,5.347,5.347,0,0,0-.77-.422q-.445-.2-.961-.414a4.9,4.9,0,0,1-1.957-1.336,2.917,2.917,0,0,1-.645-1.906,3.036,3.036,0,0,1,.352-1.5A2.986,2.986,0,0,1,27.77,6.4a4.291,4.291,0,0,1,1.4-.6,7.206,7.206,0,0,1,1.688-.191,10.15,10.15,0,0,1,1.551.105,6.1,6.1,0,0,1,1.246.324V8.375a3.768,3.768,0,0,0-.613-.344,4.859,4.859,0,0,0-.684-.246,5.214,5.214,0,0,0-.7-.145A4.949,4.949,0,0,0,31,7.594a3.443,3.443,0,0,0-.781.082,2,2,0,0,0-.594.23,1.147,1.147,0,0,0-.375.355.843.843,0,0,0-.133.465.888.888,0,0,0,.148.5,1.7,1.7,0,0,0,.422.422,4.477,4.477,0,0,0,.664.391q.391.191.883.395a9.837,9.837,0,0,1,1.207.6,4.291,4.291,0,0,1,.918.715,2.785,2.785,0,0,1,.586.91,3.216,3.216,0,0,1,.2,1.191,3.191,3.191,0,0,1-.355,1.574,2.886,2.886,0,0,1-.965,1.031,4.184,4.184,0,0,1-1.418.566A8.2,8.2,0,0,1,29.7,17.2a9.492,9.492,0,0,1-1.754-.156A5.3,5.3,0,0,1,26.508,16.57ZM37,7.734a1.442,1.442,0,0,1-1.023-.371,1.2,1.2,0,0,1-.4-.91,1.153,1.153,0,0,1,.4-.906,1.671,1.671,0,0,1,2.051,0,1.158,1.158,0,0,1,.395.906,1.191,1.191,0,0,1-.395.922A1.466,1.466,0,0,1,37,7.734ZM38.219,17H35.75V9h2.469Z" transform="translate(-1544 -9411)" fill="#12263f"/>
    <path id="Trazado_1008258" data-name="Trazado 1008258" d="M0,0V56.105" transform="translate(-1608.5 -9559.895) rotate(180)" fill="none" stroke="#445866" stroke-width="3"/>
    <path id="Trazado_1008280" data-name="Trazado 1008280" d="M0,0V49.895" transform="translate(-1608.5 -9441) rotate(180)" fill="none" stroke="#445866" stroke-width="3"/>
    <path id="Trazado_1008281" data-name="Trazado 1008281" d="M0,0V197.964" transform="translate(-1707.482 -9440.5) rotate(-90)" fill="none" stroke="#445866" stroke-width="3"/>
    <path id="Trazado_1008259" data-name="Trazado 1008259" d="M6.808,0H336.976c3.76,0,6.808,3.63,6.808,8.108V51.892c0,4.478-3.048,8.108-6.808,8.108H6.808C3.048,60,0,56.37,0,51.892V8.108C0,3.63,3.048,0,6.808,0Z" transform="translate(-1780.392 -9646)" fill="#773b3d"/>
    <path id="Trazado_1010285" data-name="Trazado 1010285" d="M39.986,22h-8.4V8h8.076v2.568H34.742V13.68h4.58v2.559h-4.58v3.2h5.244ZM51.451,12,47.73,22H44.215L40.67,12h3.3l1.738,6.162a9,9,0,0,1,.342,1.777h.039a10.086,10.086,0,0,1,.361-1.719L48.229,12Zm9.336,10h-2.92V20.564h-.039a3.259,3.259,0,0,1-2.979,1.68,3.116,3.116,0,0,1-2.29-.825,2.957,2.957,0,0,1-.835-2.2q0-2.91,3.447-3.359l2.715-.361q0-1.641-1.777-1.641a6.067,6.067,0,0,0-3.4,1.064V12.6a7.646,7.646,0,0,1,1.763-.586,9.266,9.266,0,0,1,2.036-.254q4.277,0,4.277,4.268Zm-2.9-4.062v-.674L56.07,17.5q-1.5.2-1.5,1.357a1.122,1.122,0,0,0,.366.864,1.407,1.407,0,0,0,.991.337,1.827,1.827,0,0,0,1.416-.6A2.169,2.169,0,0,0,57.887,17.938ZM66.314,22H63.229V7.2h3.086Zm12.1,0H75.338V20.477h-.049a3.49,3.49,0,0,1-3.057,1.768q-3.477,0-3.477-4.209V12h3.076v5.762q0,2.119,1.68,2.119A1.661,1.661,0,0,0,74.84,19.3a2.343,2.343,0,0,0,.5-1.577V12h3.076Zm10.918,0h-2.92V20.564h-.039a3.259,3.259,0,0,1-2.979,1.68,3.116,3.116,0,0,1-2.29-.825,2.957,2.957,0,0,1-.835-2.2q0-2.91,3.447-3.359l2.715-.361q0-1.641-1.777-1.641a6.067,6.067,0,0,0-3.4,1.064V12.6a7.646,7.646,0,0,1,1.763-.586,9.266,9.266,0,0,1,2.036-.254q4.277,0,4.277,4.268Zm-2.9-4.062v-.674l-1.816.234q-1.5.2-1.5,1.357a1.122,1.122,0,0,0,.366.864,1.407,1.407,0,0,0,.991.337,1.827,1.827,0,0,0,1.416-.6A2.169,2.169,0,0,0,86.432,17.938Zm12.92,3.7a6.1,6.1,0,0,1-3.018.605,5.1,5.1,0,0,1-3.73-1.4,4.823,4.823,0,0,1-1.426-3.6,5.313,5.313,0,0,1,1.528-4.019,5.648,5.648,0,0,1,4.087-1.47,5.244,5.244,0,0,1,2.559.469v2.617a3.518,3.518,0,0,0-2.158-.723,2.844,2.844,0,0,0-2.1.776,2.9,2.9,0,0,0-.776,2.144,2.85,2.85,0,0,0,.742,2.085,2.728,2.728,0,0,0,2.041.757,4.073,4.073,0,0,0,2.256-.723Zm3.584-11.221a1.8,1.8,0,0,1-1.279-.464,1.5,1.5,0,0,1-.5-1.138,1.441,1.441,0,0,1,.5-1.133,2.089,2.089,0,0,1,2.563,0,1.448,1.448,0,0,1,.493,1.133,1.489,1.489,0,0,1-.493,1.152A1.833,1.833,0,0,1,102.936,10.418ZM104.459,22h-3.086V12h3.086Zm7.363.244a5.376,5.376,0,0,1-3.931-1.4,5.081,5.081,0,0,1-1.431-3.8,5.081,5.081,0,0,1,1.484-3.882,5.609,5.609,0,0,1,4.014-1.4,5.311,5.311,0,0,1,3.906,1.4,4.981,4.981,0,0,1,1.416,3.706,5.288,5.288,0,0,1-1.46,3.936A5.435,5.435,0,0,1,111.822,22.244Zm.078-8.125a2.058,2.058,0,0,0-1.7.752A3.316,3.316,0,0,0,109.6,17q0,2.881,2.324,2.881,2.217,0,2.217-2.959Q114.137,14.119,111.9,14.119Zm3.311-6.855-3.057,3.154h-2.227l2.539-3.154ZM128.932,22h-3.076V16.443q0-2.324-1.66-2.324a1.647,1.647,0,0,0-1.318.615,2.344,2.344,0,0,0-.518,1.563V22h-3.086V12h3.086v1.582h.039a3.536,3.536,0,0,1,3.213-1.826q3.32,0,3.32,4.121Zm16.943-4.121h-6.523q.156,2.178,2.744,2.178a5.357,5.357,0,0,0,2.9-.781V21.5a7.62,7.62,0,0,1-3.6.742,5.073,5.073,0,0,1-3.76-1.343,5.073,5.073,0,0,1-1.338-3.745,5.351,5.351,0,0,1,1.445-3.945,4.815,4.815,0,0,1,3.555-1.455,4.37,4.37,0,0,1,3.384,1.3,5,5,0,0,1,1.2,3.525Zm-2.861-1.895q0-2.148-1.738-2.148a1.66,1.66,0,0,0-1.284.615,2.792,2.792,0,0,0-.659,1.533ZM163.59,22h-3.076V16.3q0-2.178-1.6-2.178a1.471,1.471,0,0,0-1.24.654,2.689,2.689,0,0,0-.479,1.631V22h-3.086V16.238q0-2.119-1.572-2.119a1.507,1.507,0,0,0-1.265.625,2.75,2.75,0,0,0-.474,1.7V22h-3.086V12H150.8v1.563h.039a3.789,3.789,0,0,1,3.232-1.807,2.88,2.88,0,0,1,2.9,1.865,3.7,3.7,0,0,1,3.359-1.865q3.262,0,3.262,4.023Zm7.207.244a5.376,5.376,0,0,1-3.931-1.4,5.081,5.081,0,0,1-1.431-3.8,5.081,5.081,0,0,1,1.484-3.882,5.609,5.609,0,0,1,4.014-1.4,5.311,5.311,0,0,1,3.906,1.4,4.981,4.981,0,0,1,1.416,3.706A5.288,5.288,0,0,1,174.8,20.8,5.435,5.435,0,0,1,170.8,22.244Zm.078-8.125a2.058,2.058,0,0,0-1.7.752A3.316,3.316,0,0,0,168.57,17q0,2.881,2.324,2.881,2.217,0,2.217-2.959Q173.111,14.119,170.875,14.119Zm14.961,7.52a6.1,6.1,0,0,1-3.018.605,5.1,5.1,0,0,1-3.73-1.4,4.823,4.823,0,0,1-1.426-3.6,5.313,5.313,0,0,1,1.528-4.019,5.648,5.648,0,0,1,4.087-1.47,5.244,5.244,0,0,1,2.559.469v2.617a3.518,3.518,0,0,0-2.158-.723,2.844,2.844,0,0,0-2.1.776,2.9,2.9,0,0,0-.776,2.144,2.85,2.85,0,0,0,.742,2.085,2.728,2.728,0,0,0,2.041.757,4.073,4.073,0,0,0,2.256-.723Zm3.584-11.221a1.8,1.8,0,0,1-1.279-.464,1.5,1.5,0,0,1-.5-1.138,1.441,1.441,0,0,1,.5-1.133,2.089,2.089,0,0,1,2.563,0,1.448,1.448,0,0,1,.493,1.133,1.489,1.489,0,0,1-.493,1.152A1.833,1.833,0,0,1,189.42,10.418ZM190.943,22h-3.086V12h3.086Zm7.363.244a5.376,5.376,0,0,1-3.931-1.4,5.081,5.081,0,0,1-1.431-3.8,5.081,5.081,0,0,1,1.484-3.882,5.609,5.609,0,0,1,4.014-1.4,5.311,5.311,0,0,1,3.906,1.4,4.981,4.981,0,0,1,1.416,3.706,5.288,5.288,0,0,1-1.46,3.936A5.435,5.435,0,0,1,198.307,22.244Zm.078-8.125a2.058,2.058,0,0,0-1.7.752A3.316,3.316,0,0,0,196.08,17q0,2.881,2.324,2.881,2.217,0,2.217-2.959Q200.621,14.119,198.385,14.119ZM215.426,22H212.35V16.443q0-2.324-1.66-2.324a1.647,1.647,0,0,0-1.318.615,2.344,2.344,0,0,0-.518,1.563V22h-3.086V12h3.086v1.582h.039a3.536,3.536,0,0,1,3.213-1.826q3.32,0,3.32,4.121Zm10.762,0h-2.92V20.564h-.039a3.259,3.259,0,0,1-2.979,1.68,3.116,3.116,0,0,1-2.29-.825,2.957,2.957,0,0,1-.835-2.2q0-2.91,3.447-3.359l2.715-.361q0-1.641-1.777-1.641a6.067,6.067,0,0,0-3.4,1.064V12.6a7.646,7.646,0,0,1,1.763-.586,9.266,9.266,0,0,1,2.036-.254q4.277,0,4.277,4.268Zm-2.9-4.062v-.674l-1.816.234q-1.5.2-1.5,1.357a1.122,1.122,0,0,0,.366.864,1.407,1.407,0,0,0,.991.337,1.827,1.827,0,0,0,1.416-.6A2.169,2.169,0,0,0,223.287,17.938ZM231.715,22h-3.086V7.2h3.086ZM106.764,34.418a1.8,1.8,0,0,1-1.279-.464,1.5,1.5,0,0,1-.5-1.138,1.441,1.441,0,0,1,.5-1.133,2.089,2.089,0,0,1,2.563,0,1.448,1.448,0,0,1,.493,1.133,1.489,1.489,0,0,1-.493,1.152A1.833,1.833,0,0,1,106.764,34.418ZM108.287,46H105.2V36h3.086Zm12.256,0h-3.076V40.443q0-2.324-1.66-2.324a1.647,1.647,0,0,0-1.318.615,2.344,2.344,0,0,0-.518,1.563V46h-3.086V36h3.086v1.582h.039a3.536,3.536,0,0,1,3.213-1.826q3.32,0,3.32,4.121Zm4-11.582a1.8,1.8,0,0,1-1.279-.464,1.5,1.5,0,0,1-.5-1.138,1.441,1.441,0,0,1,.5-1.133,2.089,2.089,0,0,1,2.563,0,1.448,1.448,0,0,1,.493,1.133,1.489,1.489,0,0,1-.493,1.152A1.833,1.833,0,0,1,124.547,34.418ZM126.07,46h-3.086V36h3.086Zm10.176-.361a6.1,6.1,0,0,1-3.018.605,5.1,5.1,0,0,1-3.73-1.4,4.823,4.823,0,0,1-1.426-3.6,5.313,5.313,0,0,1,1.528-4.019,5.648,5.648,0,0,1,4.087-1.47,5.244,5.244,0,0,1,2.559.469v2.617a3.518,3.518,0,0,0-2.158-.723,2.844,2.844,0,0,0-2.1.776,2.9,2.9,0,0,0-.776,2.144,2.85,2.85,0,0,0,.742,2.085,2.728,2.728,0,0,0,2.041.757,4.073,4.073,0,0,0,2.256-.723Zm3.584-11.221a1.8,1.8,0,0,1-1.279-.464,1.5,1.5,0,0,1-.5-1.138,1.441,1.441,0,0,1,.5-1.133,2.089,2.089,0,0,1,2.563,0,1.448,1.448,0,0,1,.493,1.133,1.489,1.489,0,0,1-.493,1.152A1.833,1.833,0,0,1,139.83,34.418ZM141.354,46h-3.086V36h3.086Zm10.918,0h-2.92V44.564h-.039a3.259,3.259,0,0,1-2.979,1.68,3.116,3.116,0,0,1-2.29-.825,2.957,2.957,0,0,1-.835-2.2q0-2.91,3.447-3.359l2.715-.361q0-1.641-1.777-1.641a6.067,6.067,0,0,0-3.4,1.064V36.6a7.645,7.645,0,0,1,1.763-.586,9.266,9.266,0,0,1,2.036-.254q4.277,0,4.277,4.268Zm-2.9-4.062v-.674l-1.816.234q-1.5.2-1.5,1.357a1.122,1.122,0,0,0,.366.864,1.407,1.407,0,0,0,.991.337,1.827,1.827,0,0,0,1.416-.6A2.169,2.169,0,0,0,149.371,41.938ZM157.8,46h-3.086V31.2H157.8Z" transform="translate(-1739 -9635)" fill="#fff"/>
    <g id="Grupo_1182087" data-name="Grupo 1182087" transform="translate(-592 241)">
      <circle id="Elipse_13924" data-name="Elipse 13924" cx="40" cy="40" r="40" transform="translate(-1064 -9951)" fill="#fff"/>
      <g id="Grupo_1182078" data-name="Grupo 1182078" transform="translate(-1044.344 -9933.556)">
        <g id="Grupo_1182085" data-name="Grupo 1182085" transform="translate(0.749 0.659)">
          <g id="Grupo_1182080" data-name="Grupo 1182080">
            <g id="Grupo_1182078-2" data-name="Grupo 1182078">
              <path id="Trazado_1008260" data-name="Trazado 1008260" d="M67.409,50.095a29.277,29.277,0,0,1-1.755-8.4,6.631,6.631,0,0,1,1.556-4.777c6.5-7.6,6.511-17.106.821-23.146-2.647-2.81-4.873-4.73-8.117-5.535-.236-.059-.6-.24-.835-.29A25.2,25.2,0,0,0,48.4,8.175a15.438,15.438,0,0,0-9.65,6.411,10.562,10.562,0,0,0-1.792,5.982c-.1,1.547-.734,1.89-.979,3.115a2.6,2.6,0,0,0,.38,1.842,2.011,2.011,0,0,1,.218,1.539c-.064.248-.143.518-.242.8a12.028,12.028,0,0,1-2.352,4.168,1.544,1.544,0,0,0,.292,2.3,2.646,2.646,0,0,0,1.1.429l1.479.216a.087.087,0,0,1,.072.062,1.924,1.924,0,0,1-.328,1.9.817.817,0,0,0-.089,1.246,2.318,2.318,0,0,0,.548.5.088.088,0,0,1,0,.147.99.99,0,0,0,.165,1.771,4.914,4.914,0,0,1,.608.3,1.132,1.132,0,0,1,.015,1.367,2.373,2.373,0,0,0-.445,2.047c.518,1.9,2.647,2.377,4.627,2.047,1.6-.267,2.848-1.157,4-.267.821.631,1.785,1.705,1.944,4.826a.353.353,0,0,0,.352.336H65.9l1.179-.7a.352.352,0,0,0,.331-.472Z" transform="translate(-33.595 -7.477)" fill="#f4aa73"/>
            </g>
            <g id="Grupo_1182079" data-name="Grupo 1182079" transform="translate(25.485 0.469)">
              <path id="Trazado_1008261" data-name="Trazado 1008261" d="M332.209,55.651a.352.352,0,0,1-.331.472h-2.228a45.417,45.417,0,0,1-2.493-10.384,6.745,6.745,0,0,1,1.605-4.835c6.45-7.591,6.481-17.547.805-23.572A18.076,18.076,0,0,0,322.83,12.8a18.309,18.309,0,0,1,9.733,5.413c5.675,6.025,5.644,15.981-.805,23.572a6.745,6.745,0,0,0-1.605,4.835A33.884,33.884,0,0,0,332.209,55.651Z" transform="translate(-322.83 -12.801)" fill="#ea9f6c"/>
            </g>
          </g>
          <g id="Grupo_1182084" data-name="Grupo 1182084" transform="translate(9.242 6.454)">
            <g id="Grupo_1182081" data-name="Grupo 1182081" transform="translate(5.375 10.97)">
              <path id="Trazado_1008262" data-name="Trazado 1008262" d="M212.217,211.834a5.95,5.95,0,0,1-6.119,6.3,6.528,6.528,0,0,1-6.2-4,6.248,6.248,0,0,1-.413-2.3,6.608,6.608,0,0,1,11.747-4.155s.141.274.226.4A6.206,6.206,0,0,1,212.217,211.834Z" transform="translate(-199.489 -205.226)" fill="#ffe077"/>
              <path id="Trazado_1008263" data-name="Trazado 1008263" d="M216.983,237.226a6.609,6.609,0,0,1-12.8,2.3,6.61,6.61,0,0,0,11.334-6.459A6.576,6.576,0,0,1,216.983,237.226Z" transform="translate(-203.766 -230.618)" fill="#ffd05b"/>
            </g>
            <g id="Grupo_1182082" data-name="Grupo 1182082" transform="translate(11.366 3.128)">
              <path id="Trazado_1008264" data-name="Trazado 1008264" d="M280.217,122.834a5.95,5.95,0,0,1-6.119,6.3,6.528,6.528,0,0,1-6.2-4,6.248,6.248,0,0,1-.413-2.3,6.608,6.608,0,0,1,11.747-4.155s.141.274.226.4a6.206,6.206,0,0,1,.755,3.759Z" transform="translate(-267.489 -116.226)" fill="#bbf39b"/>
              <path id="Trazado_1008265" data-name="Trazado 1008265" d="M284.983,148.226a6.609,6.609,0,0,1-12.8,2.3,6.61,6.61,0,0,0,11.334-6.459A6.576,6.576,0,0,1,284.983,148.226Z" transform="translate(-271.766 -141.618)" fill="#9ae59c"/>
            </g>
            <g id="Grupo_1182083" data-name="Grupo 1182083">
              <path id="Trazado_1008266" data-name="Trazado 1008266" d="M151.217,87.334a5.95,5.95,0,0,1-6.119,6.3,6.528,6.528,0,0,1-6.2-4,6.248,6.248,0,0,1-.413-2.3,6.608,6.608,0,0,1,11.747-4.155s.141.274.226.4A6.206,6.206,0,0,1,151.217,87.334Z" transform="translate(-138.489 -80.726)" fill="#fe8991"/>
              <path id="Trazado_1008267" data-name="Trazado 1008267" d="M155.983,112.726a6.609,6.609,0,0,1-12.8,2.3,6.61,6.61,0,0,0,11.334-6.459,6.576,6.576,0,0,1,1.47,4.155Z" transform="translate(-142.766 -106.118)" fill="#fe646f"/>
            </g>
          </g>
        </g>
        <g id="Grupo_1182086" data-name="Grupo 1182086" transform="translate(0)">
          <path id="Trazado_1008268" data-name="Trazado 1008268" d="M38.6,89.637c-1.085-.835-2.2-.5-3.27-.178a10.12,10.12,0,0,1-1.246.317c-1.6.266-3.455-.006-3.881-1.569a1.836,1.836,0,0,1,.381-1.545,1.721,1.721,0,0,0-.211-2.237,4.346,4.346,0,0,0-.68-.348c-.106-.055-.284-.174-.284-.345a.4.4,0,0,1,.244-.329.661.661,0,0,0,.012-1.162,1.746,1.746,0,0,1-.46-.4c-.161-.215-.131-.241-.005-.351a2.54,2.54,0,0,0,.5-2.671.661.661,0,0,0-.529-.438l-1.534-.224a2,2,0,0,1-.829-.322.883.883,0,0,1-.168-1.313,12.787,12.787,0,0,0,2.481-4.39c.1-.279.183-.566.257-.852a2.689,2.689,0,0,0-.291-2.045,1.965,1.965,0,0,1-.3-1.371,4.214,4.214,0,0,1,.4-1.08,5.136,5.136,0,0,0,.594-2.122,9.981,9.981,0,0,1,1.681-5.655,14.032,14.032,0,0,1,1.725-2.093.661.661,0,0,0-.934-.935,15.363,15.363,0,0,0-1.887,2.29,11.259,11.259,0,0,0-1.9,6.308,3.852,3.852,0,0,1-.466,1.635,5.5,5.5,0,0,0-.5,1.393,3.26,3.26,0,0,0,.461,2.311,1.359,1.359,0,0,1,.145,1.034c-.065.253-.141.505-.226.751a11.5,11.5,0,0,1-2.222,3.947,2.2,2.2,0,0,0,.416,3.283,3.327,3.327,0,0,0,1.38.536l1.084.158a1.014,1.014,0,0,1-.2.871,1.466,1.466,0,0,0-.183,2.14,2.465,2.465,0,0,0,.2.229,1.611,1.611,0,0,0-.256.87,1.728,1.728,0,0,0,.995,1.512c.11.058.263.136.468.219a.766.766,0,0,1-.113.539,3.038,3.038,0,0,0-.509,2.548c.542,1.987,2.651,2.978,5.374,2.525a11.3,11.3,0,0,0,1.409-.355c1.009-.3,1.56-.443,2.084-.04.788.606,1.606,1.634,1.7,4.658a.661.661,0,0,0,.66.64h.021a.661.661,0,0,0,.64-.681c-.111-3.576-1.182-4.87-2.215-5.665Z" transform="translate(-25.095 -50.872)"/>
          <path id="Trazado_1008269" data-name="Trazado 1008269" d="M132.4,4.176A16,16,0,0,1,137.625,2C142.263.943,151,.187,157.413,6.994c5.347,5.676,5.254,14.9-.221,21.943a.661.661,0,1,0,1.043.811A20.5,20.5,0,0,0,162.7,17.32a16.248,16.248,0,0,0-4.329-11.232A18.945,18.945,0,0,0,148.1.439a25.964,25.964,0,0,0-10.766.272A17.317,17.317,0,0,0,131.68,3.07a.661.661,0,0,0,.723,1.107Z" transform="translate(-122.016 0.001)"/>
          <path id="Trazado_1008270" data-name="Trazado 1008270" d="M398.58,357.908a6.041,6.041,0,0,1,.468-2.771.661.661,0,0,0-1.216-.517,7.369,7.369,0,0,0-.569,3.38,35.316,35.316,0,0,0,2.274,9.692.661.661,0,0,0,1.236-.469A33.986,33.986,0,0,1,398.58,357.908Z" transform="translate(-364.453 -323.007)"/>
          <path id="Trazado_1008271" data-name="Trazado 1008271" d="M242.65,245.226a.661.661,0,0,0-.661.661v1.762a.661.661,0,1,0,1.322,0v-1.762a.661.661,0,0,0-.661-.661Z" transform="translate(-222.878 -223.618)"/>
          <path id="Trazado_1008272" data-name="Trazado 1008272" d="M247.192,297.96a.661.661,0,0,0,.935,0,1.832,1.832,0,0,1,2.588,0,.661.661,0,0,0,.935-.935,3.156,3.156,0,0,0-4.457,0A.661.661,0,0,0,247.192,297.96Z" transform="translate(-227.446 -270.013)"/>
          <path id="Trazado_1008273" data-name="Trazado 1008273" d="M156.893,83.625a7.3,7.3,0,0,0-4.749-6.82.661.661,0,0,0-.458,1.24,5.949,5.949,0,1,1-7.82,7.073,7.266,7.266,0,0,0,1.578-5.722,5.933,5.933,0,0,1,3.531-1.683.661.661,0,1,0-.143-1.314,7.247,7.247,0,0,0-3.763,1.563,7.269,7.269,0,1,0-7.663,9.754,7.28,7.28,0,0,0-.514,6.48.661.661,0,1,0,1.225-.5,5.955,5.955,0,0,1,.89-5.971,7.235,7.235,0,0,0,3.8-1.57,7.274,7.274,0,0,0,2.364,3.206v1.442a.661.661,0,1,0,1.322,0v-.625a7.227,7.227,0,0,0,3.056.712c.018.191.028.383.028.574a5.948,5.948,0,0,1-9.862,4.478.661.661,0,0,0-.87.995A7.269,7.269,0,0,0,150.9,91.467c0-.228-.011-.455-.032-.682A7.28,7.28,0,0,0,156.893,83.625Zm-18.636,2.82A5.948,5.948,0,1,1,144.2,80.5,5.954,5.954,0,0,1,138.257,86.445Z" transform="translate(-121.658 -66.776)"/>
          <path id="Trazado_1008274" data-name="Trazado 1008274" d="M311.311,158.649v-1.762a.661.661,0,1,0-1.322,0v1.762a.661.661,0,1,0,1.322,0Z" transform="translate(-284.886 -142.46)"/>
          <path id="Trazado_1008275" data-name="Trazado 1008275" d="M361.311,158.649v-1.762a.661.661,0,1,0-1.322,0v1.762a.661.661,0,1,0,1.322,0Z" transform="translate(-330.481 -142.46)"/>
          <path id="Trazado_1008276" data-name="Trazado 1008276" d="M317.422,211.136a3.142,3.142,0,0,0,2.229-.922.661.661,0,0,0-.934-.935,1.832,1.832,0,0,1-2.588,0,.661.661,0,1,0-.935.935A3.142,3.142,0,0,0,317.422,211.136Z" transform="translate(-289.455 -190.663)"/>
          <path id="Trazado_1008277" data-name="Trazado 1008277" d="M178.175,124.412a.661.661,0,0,0,0-.935l-1.057-1.057a.661.661,0,1,0-.935.935l.59.59-.59.59a.661.661,0,1,0,.935.935Z" transform="translate(-162.694 -111.457)"/>
          <path id="Trazado_1008278" data-name="Trazado 1008278" d="M226.175,122.42a.661.661,0,0,0-.935,0l-1.057,1.057a.661.661,0,0,0,0,.935l1.057,1.057a.661.661,0,0,0,.935-.935l-.59-.59.59-.59A.661.661,0,0,0,226.175,122.42Z" transform="translate(-206.464 -111.457)"/>
          <path id="Trazado_1008279" data-name="Trazado 1008279" d="M186.192,174.525a.661.661,0,0,0,.935.934,1.832,1.832,0,0,1,2.588,0,.661.661,0,0,0,.934-.934A3.155,3.155,0,0,0,186.192,174.525Z" transform="translate(-171.821 -158.307)"/>
        </g>
      </g>
    </g>
    <path id="Trazado_1010286" data-name="Trazado 1010286" d="M10,0H333.92a10,10,0,0,1,10,10V80a10,10,0,0,1-10,10H10A10,10,0,0,1,0,80V10A10,10,0,0,1,10,0Z" transform="translate(-1780.529 -9559.895)" fill="#fff5c1"/>
    <path id="Trazado_1010287" data-name="Trazado 1010287" d="M47.791,11.564a1.561,1.561,0,0,1-.567,1.252,2.639,2.639,0,0,1-3.032,0,1.551,1.551,0,0,1-.576-1.252,1.635,1.635,0,0,1,.567-1.283,2.512,2.512,0,0,1,3.028.013A1.63,1.63,0,0,1,47.791,11.564Zm1.2,10.617a6.092,6.092,0,0,1-1.551.563,7.51,7.51,0,0,1-1.745.237,5.424,5.424,0,0,1-3.287-.848,2.889,2.889,0,0,1-1.134-2.465,4.31,4.31,0,0,1,1.89-3.437,4.482,4.482,0,0,0,.905-.9,1.661,1.661,0,0,0,.264-.958v-.308H47.29v.773a3.8,3.8,0,0,1-.246,1.411,2.86,2.86,0,0,1-.817,1.112,11.946,11.946,0,0,0-.962.866,1.138,1.138,0,0,0-.3.822.7.7,0,0,0,.294.58,1.219,1.219,0,0,0,.769.229,5.246,5.246,0,0,0,2.971-1.134ZM50.3,19V6.4h7.849V9.367H54.1V11.2h3.806v2.971H54.1v1.854h4.342V19Zm16.989-4.79,2.9,4.79H65.887l-.967-2.048a9.325,9.325,0,0,1-.378-.94h-.035q-.185.6-.237.734T63.242,19h-4.28l2.988-4.535L59.137,10h4.324l.967,2.092a5.735,5.735,0,0,1,.387.984h.035q.255-.765.36-1L66.125,10h4.087Zm7.743-6.636a1.608,1.608,0,0,1-.576,1.283,2.252,2.252,0,0,1-1.516.492,2.2,2.2,0,0,1-1.5-.51,1.612,1.612,0,0,1-.584-1.266,1.561,1.561,0,0,1,.567-1.252,2.639,2.639,0,0,1,3.032,0A1.551,1.551,0,0,1,75.037,7.574ZM71.073,19V10h3.744v9Zm12.858-2.988a2.749,2.749,0,0,1-1.165,2.369,5.474,5.474,0,0,1-3.248.839,11.291,11.291,0,0,1-1.5-.123,9.257,9.257,0,0,1-1.455-.3V16.17a7.162,7.162,0,0,0,2.777.738q1.1,0,1.1-.571a.451.451,0,0,0-.255-.391,9.009,9.009,0,0,0-1.336-.514,3.773,3.773,0,0,1-1.74-1,2.382,2.382,0,0,1-.545-1.626,2.594,2.594,0,0,1,1.112-2.21A5.216,5.216,0,0,1,80.8,9.78a9.931,9.931,0,0,1,2.5.343v2.522a7.549,7.549,0,0,0-1.213-.4,4.9,4.9,0,0,0-1.107-.158,1.205,1.205,0,0,0-.589.123.379.379,0,0,0-.22.343.478.478,0,0,0,.237.413,4.2,4.2,0,0,0,.949.378,4.4,4.4,0,0,1,1.978,1.037A2.272,2.272,0,0,1,83.931,16.012Zm7.717,2.865a3.648,3.648,0,0,1-.835.233,7.634,7.634,0,0,1-1.4.11,3.357,3.357,0,0,1-2.448-.861,3.269,3.269,0,0,1-.883-2.452V12.593H84.67V10h1.415V8.233l3.691-1.02V10h1.872v2.593H89.776v2.7q0,1.187.94,1.187a2.551,2.551,0,0,0,.932-.193Zm4.395-3.313a1.265,1.265,0,0,0,.668.91,3.012,3.012,0,0,0,1.512.33,6.226,6.226,0,0,0,2.479-.5v2.373a8.908,8.908,0,0,1-3.3.545,5.214,5.214,0,0,1-3.665-1.2,4.277,4.277,0,0,1-1.31-3.313A5.467,5.467,0,0,1,93,12.145,4.142,4.142,0,0,1,94.7,10.409a5.038,5.038,0,0,1,2.492-.628,4.9,4.9,0,0,1,2.391.545,3.63,3.63,0,0,1,1.507,1.529,4.906,4.906,0,0,1,.514,2.3v1.406Zm2.25-1.96q0-1.556-1.116-1.556a.944.944,0,0,0-.782.426,2.127,2.127,0,0,0-.369,1.129Zm16.374-.4a3.6,3.6,0,0,0-1.169-.255q-1.854,0-1.854,2.145V19H107.9V10h3.744v1.582h.035a2.81,2.81,0,0,1,.976-1.3,2.506,2.506,0,0,1,1.477-.444,1.269,1.269,0,0,1,.536.105Zm5.045-5.634a1.608,1.608,0,0,1-.576,1.283,2.252,2.252,0,0,1-1.516.492,2.2,2.2,0,0,1-1.5-.51,1.612,1.612,0,0,1-.584-1.266,1.561,1.561,0,0,1,.567-1.252,2.639,2.639,0,0,1,3.032,0A1.551,1.551,0,0,1,119.712,7.574ZM115.748,19V10h3.744v9Zm8.771-3.437a1.265,1.265,0,0,0,.668.91,3.012,3.012,0,0,0,1.512.33,6.226,6.226,0,0,0,2.479-.5v2.373a8.908,8.908,0,0,1-3.3.545,5.214,5.214,0,0,1-3.665-1.2A4.277,4.277,0,0,1,120.9,14.7a5.467,5.467,0,0,1,.576-2.558,4.142,4.142,0,0,1,1.705-1.736,5.038,5.038,0,0,1,2.492-.628,4.9,4.9,0,0,1,2.391.545,3.63,3.63,0,0,1,1.507,1.529,4.906,4.906,0,0,1,.514,2.3v1.406Zm2.25-1.96q0-1.556-1.116-1.556a.944.944,0,0,0-.782.426A2.127,2.127,0,0,0,124.5,13.6Zm11.918,2.408a2.749,2.749,0,0,1-1.165,2.369,5.474,5.474,0,0,1-3.248.839,11.291,11.291,0,0,1-1.5-.123,9.257,9.257,0,0,1-1.455-.3V16.17a7.162,7.162,0,0,0,2.777.738q1.1,0,1.1-.571a.451.451,0,0,0-.255-.391,9.009,9.009,0,0,0-1.336-.514,3.773,3.773,0,0,1-1.74-1,2.382,2.382,0,0,1-.545-1.626,2.594,2.594,0,0,1,1.112-2.21,5.216,5.216,0,0,1,3.125-.813,9.931,9.931,0,0,1,2.5.343v2.522a7.549,7.549,0,0,0-1.213-.4,4.9,4.9,0,0,0-1.107-.158,1.205,1.205,0,0,0-.589.123.379.379,0,0,0-.22.343.478.478,0,0,0,.237.413,4.2,4.2,0,0,0,.949.378,4.4,4.4,0,0,1,1.978,1.037A2.272,2.272,0,0,1,138.687,16.012Zm11.136,1.731a5.116,5.116,0,0,1-1.63,4.039,6.962,6.962,0,0,1-4.759,1.446A9.93,9.93,0,0,1,141.8,23.1a4.5,4.5,0,0,1-1.134-.3V19.861a5.656,5.656,0,0,0,2.663.773,3.122,3.122,0,0,0,2.013-.606,1.959,1.959,0,0,0,.756-1.608v-.554h-.035a2.909,2.909,0,0,1-1.112.984,3.23,3.23,0,0,1-1.516.369,3.4,3.4,0,0,1-2.751-1.208,5.045,5.045,0,0,1-1.011-3.335A5.964,5.964,0,0,1,140.2,12.1a4.018,4.018,0,0,1,1.468-1.718,3.769,3.769,0,0,1,2.074-.6,2.6,2.6,0,0,1,2.32,1.151h.035V10h3.727Zm-3.665-3.5a2.02,2.02,0,0,0-.356-1.257,1.13,1.13,0,0,0-.945-.466,1.163,1.163,0,0,0-1.011.563,2.656,2.656,0,0,0-.378,1.5,2.6,2.6,0,0,0,.316,1.38,1.092,1.092,0,0,0,1,.51,1.161,1.161,0,0,0,1.006-.523,2.408,2.408,0,0,0,.365-1.4Zm15.478.1a4.687,4.687,0,0,1-1.375,3.577,6.355,6.355,0,0,1-7.664.031,4.546,4.546,0,0,1-1.367-3.5,4.692,4.692,0,0,1,.642-2.487,4.172,4.172,0,0,1,1.828-1.617,6.311,6.311,0,0,1,2.733-.562,6.113,6.113,0,0,1,2.773.589,4.286,4.286,0,0,1,1.8,1.635A4.452,4.452,0,0,1,161.635,14.342Zm-3.8.018q0-1.837-1.406-1.837t-1.406,1.925q0,2.03,1.424,2.03Q157.839,16.478,157.839,14.359ZM174.046,19V17.954h-.035a3.089,3.089,0,0,1-1.169.927,3.331,3.331,0,0,1-1.424.338,3.663,3.663,0,0,1-2.03-.567,3.443,3.443,0,0,1-1.314-1.586,6.106,6.106,0,0,1-.435-2.408,5.925,5.925,0,0,1,.519-2.54,4.059,4.059,0,0,1,1.459-1.723,3.769,3.769,0,0,1,2.109-.615,3.193,3.193,0,0,1,1.024.158,2.77,2.77,0,0,1,.817.426,1.273,1.273,0,0,1,.444.532h.035V5.676h3.744V19Zm.079-4.772a1.974,1.974,0,0,0-.356-1.257,1.2,1.2,0,0,0-1.951.11,2.593,2.593,0,0,0-.382,1.49q0,1.907,1.318,1.907a1.173,1.173,0,0,0,1-.514,2.531,2.531,0,0,0,.374-1.5Zm8.692,1.336a1.265,1.265,0,0,0,.668.91A3.012,3.012,0,0,0,185,16.8a6.226,6.226,0,0,0,2.479-.5v2.373a8.908,8.908,0,0,1-3.3.545,5.214,5.214,0,0,1-3.665-1.2A4.277,4.277,0,0,1,179.2,14.7a5.467,5.467,0,0,1,.576-2.558,4.142,4.142,0,0,1,1.705-1.736,5.038,5.038,0,0,1,2.492-.628,4.9,4.9,0,0,1,2.391.545,3.63,3.63,0,0,1,1.507,1.529,4.906,4.906,0,0,1,.514,2.3v1.406Zm2.25-1.96q0-1.556-1.116-1.556a.944.944,0,0,0-.782.426A2.127,2.127,0,0,0,182.8,13.6Zm14.6,5.4V17.629h-.035a2.944,2.944,0,0,1-2.742,1.591,2.625,2.625,0,0,1-2-.756,2.808,2.808,0,0,1-.721-2.021q0-2.654,3.261-3.076l2.232-.29a.851.851,0,0,0-.4-.721,1.8,1.8,0,0,0-1.063-.281,7,7,0,0,0-3.19.861V10.5a8.535,8.535,0,0,1,1.828-.519,10.639,10.639,0,0,1,1.881-.2,4.722,4.722,0,0,1,3.327.98,4.368,4.368,0,0,1,1.033,3.274V19Zm-2.215-3.059a.83.83,0,0,0,.233.606.888.888,0,0,0,.664.237,1.18,1.18,0,0,0,.954-.439,1.7,1.7,0,0,0,.365-1.125v-.343l-1.266.176Q197.451,15.212,197.451,15.941ZM210.5,19V17.611h-.035a4.926,4.926,0,0,1-.839.94,3.23,3.23,0,0,1-.844.483,2.983,2.983,0,0,1-1.094.185,2.722,2.722,0,0,1-2.25-.958,4.429,4.429,0,0,1-.773-2.83V10h3.744v5.15q0,1.327.993,1.327a.972.972,0,0,0,.822-.36,1.642,1.642,0,0,0,.277-1.02V10h3.744v9Zm11.874-.123a3.648,3.648,0,0,1-.835.233,7.634,7.634,0,0,1-1.4.11,3.357,3.357,0,0,1-2.448-.861,3.269,3.269,0,0,1-.883-2.452V12.593H215.4V10h1.415V8.233l3.691-1.02V10h1.872v2.593H220.5v2.7q0,1.187.94,1.187a2.551,2.551,0,0,0,.932-.193Zm11.18-4.535a4.687,4.687,0,0,1-1.375,3.577,6.355,6.355,0,0,1-7.664.031,4.546,4.546,0,0,1-1.367-3.5,4.692,4.692,0,0,1,.642-2.487,4.172,4.172,0,0,1,1.828-1.617,6.311,6.311,0,0,1,2.733-.562,6.113,6.113,0,0,1,2.773.589,4.286,4.286,0,0,1,1.8,1.635A4.452,4.452,0,0,1,233.556,14.342Zm-3.8.018q0-1.837-1.406-1.837t-1.406,1.925q0,2.03,1.424,2.03Q229.759,16.478,229.759,14.359Zm20.206-.018a4.687,4.687,0,0,1-1.375,3.577,6.355,6.355,0,0,1-7.664.031,4.546,4.546,0,0,1-1.367-3.5,4.692,4.692,0,0,1,.642-2.487,4.172,4.172,0,0,1,1.828-1.617,6.311,6.311,0,0,1,2.733-.562,6.113,6.113,0,0,1,2.773.589,4.286,4.286,0,0,1,1.8,1.635A4.452,4.452,0,0,1,249.965,14.342Zm-3.8.018q0-1.837-1.406-1.837t-1.406,1.925q0,2.03,1.424,2.03Q246.169,16.478,246.169,14.359ZM81.585,44V38.867q0-1.345-1.028-1.345a.871.871,0,0,0-.765.382,1.689,1.689,0,0,0-.264.98V44H75.784V30.676h3.744v5.546h.035a3.39,3.39,0,0,1,1.173-1.068,3.063,3.063,0,0,1,1.481-.374,2.7,2.7,0,0,1,2.224.936,4.273,4.273,0,0,1,.765,2.755V44Zm8.534-3.437a1.265,1.265,0,0,0,.668.91,3.012,3.012,0,0,0,1.512.33,6.226,6.226,0,0,0,2.479-.5v2.373a8.908,8.908,0,0,1-3.3.545,5.214,5.214,0,0,1-3.665-1.2A4.277,4.277,0,0,1,86.5,39.7a5.467,5.467,0,0,1,.576-2.558,4.142,4.142,0,0,1,1.705-1.736,5.038,5.038,0,0,1,2.492-.628,4.9,4.9,0,0,1,2.391.545,3.63,3.63,0,0,1,1.507,1.529,4.906,4.906,0,0,1,.514,2.3v1.406Zm2.25-1.96q0-1.556-1.116-1.556a.944.944,0,0,0-.782.426A2.127,2.127,0,0,0,90.1,38.6Zm10.942,5.273a3.648,3.648,0,0,1-.835.233,7.634,7.634,0,0,1-1.4.11,3.357,3.357,0,0,1-2.448-.861,3.269,3.269,0,0,1-.883-2.452V37.593H96.333V35h1.415V33.233l3.691-1.02V35h1.872v2.593h-1.872v2.7q0,1.187.94,1.187a2.551,2.551,0,0,0,.932-.193Zm4.395-3.313a1.265,1.265,0,0,0,.668.91,3.012,3.012,0,0,0,1.512.33,6.226,6.226,0,0,0,2.479-.5v2.373a8.908,8.908,0,0,1-3.3.545,5.214,5.214,0,0,1-3.665-1.2,4.277,4.277,0,0,1-1.31-3.313,5.467,5.467,0,0,1,.576-2.558,4.142,4.142,0,0,1,1.705-1.736,5.038,5.038,0,0,1,2.492-.628,4.9,4.9,0,0,1,2.391.545,3.63,3.63,0,0,1,1.507,1.529,4.906,4.906,0,0,1,.514,2.3v1.406Zm2.25-1.96q0-1.556-1.116-1.556a.944.944,0,0,0-.782.426,2.127,2.127,0,0,0-.369,1.129Zm11.373-.4a3.6,3.6,0,0,0-1.169-.255q-1.854,0-1.854,2.145V44h-3.744V35h3.744v1.582h.035a2.81,2.81,0,0,1,.976-1.3,2.506,2.506,0,0,1,1.477-.444,1.269,1.269,0,0,1,.536.105Zm11.092,1.134a4.687,4.687,0,0,1-1.375,3.577,6.355,6.355,0,0,1-7.664.031,4.546,4.546,0,0,1-1.367-3.5,4.692,4.692,0,0,1,.642-2.487,4.172,4.172,0,0,1,1.828-1.617,6.311,6.311,0,0,1,2.733-.562,6.113,6.113,0,0,1,2.773.589,4.286,4.286,0,0,1,1.8,1.635A4.452,4.452,0,0,1,132.421,39.342Zm-3.8.018q0-1.837-1.406-1.837t-1.406,1.925q0,2.03,1.424,2.03Q128.624,41.478,128.624,39.359ZM138.81,44V42.629h-.035a2.944,2.944,0,0,1-2.742,1.591,2.625,2.625,0,0,1-2-.756,2.808,2.808,0,0,1-.721-2.021q0-2.654,3.261-3.076l2.232-.29a.851.851,0,0,0-.4-.721,1.8,1.8,0,0,0-1.063-.281,7,7,0,0,0-3.19.861V35.5a8.535,8.535,0,0,1,1.828-.519,10.639,10.639,0,0,1,1.881-.2,4.722,4.722,0,0,1,3.327.98,4.368,4.368,0,0,1,1.033,3.274V44ZM136.6,40.941a.83.83,0,0,0,.233.606.888.888,0,0,0,.664.237,1.18,1.18,0,0,0,.954-.439,1.7,1.7,0,0,0,.365-1.125v-.343l-1.266.176Q136.6,40.212,136.6,40.941Zm17.077,1.8a5.116,5.116,0,0,1-1.63,4.039,6.962,6.962,0,0,1-4.759,1.446,9.93,9.93,0,0,1-1.635-.132,4.5,4.5,0,0,1-1.134-.3V44.861a5.656,5.656,0,0,0,2.663.773,3.122,3.122,0,0,0,2.013-.606,1.959,1.959,0,0,0,.756-1.608v-.554h-.035a2.909,2.909,0,0,1-1.112.984,3.23,3.23,0,0,1-1.516.369,3.4,3.4,0,0,1-2.751-1.208,5.045,5.045,0,0,1-1.011-3.335,5.964,5.964,0,0,1,.527-2.575,4.018,4.018,0,0,1,1.468-1.718,3.769,3.769,0,0,1,2.074-.6,2.6,2.6,0,0,1,2.32,1.151h.035V35h3.727Zm-3.665-3.5a2.02,2.02,0,0,0-.356-1.257,1.13,1.13,0,0,0-.945-.466,1.163,1.163,0,0,0-1.011.563,2.656,2.656,0,0,0-.378,1.5,2.6,2.6,0,0,0,.316,1.38,1.092,1.092,0,0,0,1,.51,1.161,1.161,0,0,0,1.006-.523,2.408,2.408,0,0,0,.365-1.4Zm12.234-1.037a3.6,3.6,0,0,0-1.169-.255q-1.854,0-1.854,2.145V44h-3.744V35h3.744v1.582h.035a2.81,2.81,0,0,1,.976-1.3,2.506,2.506,0,0,1,1.477-.444,1.269,1.269,0,0,1,.536.105Zm4.307,2.355a1.265,1.265,0,0,0,.668.91,3.012,3.012,0,0,0,1.512.33,6.226,6.226,0,0,0,2.479-.5v2.373a8.908,8.908,0,0,1-3.3.545,5.214,5.214,0,0,1-3.665-1.2,4.277,4.277,0,0,1-1.31-3.313,5.467,5.467,0,0,1,.576-2.558,4.142,4.142,0,0,1,1.705-1.736,5.038,5.038,0,0,1,2.492-.628,4.9,4.9,0,0,1,2.391.545,3.63,3.63,0,0,1,1.507,1.529,4.906,4.906,0,0,1,.514,2.3v1.406Zm2.25-1.96q0-1.556-1.116-1.556a.944.944,0,0,0-.782.426,2.127,2.127,0,0,0-.369,1.129Zm11.918,2.408a2.749,2.749,0,0,1-1.165,2.369,5.474,5.474,0,0,1-3.248.839,11.291,11.291,0,0,1-1.5-.123,9.257,9.257,0,0,1-1.455-.3V41.17a7.162,7.162,0,0,0,2.777.738q1.1,0,1.1-.571a.451.451,0,0,0-.255-.391,9.009,9.009,0,0,0-1.336-.514,3.773,3.773,0,0,1-1.74-1,2.382,2.382,0,0,1-.545-1.626,2.594,2.594,0,0,1,1.112-2.21,5.216,5.216,0,0,1,3.125-.813,9.931,9.931,0,0,1,2.5.343v2.522a7.549,7.549,0,0,0-1.213-.4,4.9,4.9,0,0,0-1.107-.158,1.205,1.205,0,0,0-.589.123.379.379,0,0,0-.22.343.478.478,0,0,0,.237.413,4.2,4.2,0,0,0,.949.378,4.4,4.4,0,0,1,1.978,1.037A2.272,2.272,0,0,1,180.716,41.012Zm5.344-8.437a1.608,1.608,0,0,1-.576,1.283,2.252,2.252,0,0,1-1.516.492,2.2,2.2,0,0,1-1.5-.51,1.612,1.612,0,0,1-.584-1.266,1.561,1.561,0,0,1,.567-1.252,2.639,2.639,0,0,1,3.032,0A1.551,1.551,0,0,1,186.06,32.574ZM182.1,44V35h3.744v9Zm15.557-4.658a4.687,4.687,0,0,1-1.375,3.577,6.355,6.355,0,0,1-7.664.031,4.546,4.546,0,0,1-1.367-3.5,4.692,4.692,0,0,1,.642-2.487,4.172,4.172,0,0,1,1.828-1.617,6.311,6.311,0,0,1,2.733-.562,6.113,6.113,0,0,1,2.773.589,4.286,4.286,0,0,1,1.8,1.635A4.452,4.452,0,0,1,197.653,39.342Zm-3.8.018q0-1.837-1.406-1.837t-1.406,1.925q0,2.03,1.424,2.03Q193.856,41.478,193.856,39.359Zm-.94-5.783H190.27l2.628-2.821h3.146ZM204.886,44V39.087a2.184,2.184,0,0,0-.25-1.2.915.915,0,0,0-.813-.365.88.88,0,0,0-.756.378,1.613,1.613,0,0,0-.272.967V44H199.05V35h3.744v1.406h.035a3.177,3.177,0,0,1,1.2-1.2,3.29,3.29,0,0,1,1.644-.426q2.953,0,2.953,3.727V44Zm12.507-9.668a4.31,4.31,0,0,1-1.89,3.437,4.482,4.482,0,0,0-.905.9,1.661,1.661,0,0,0-.264.958v.308h-2.953v-.773a3.15,3.15,0,0,1,1.063-2.522,11.3,11.3,0,0,0,.892-.809,1.508,1.508,0,0,0,.281-.422,1.238,1.238,0,0,0,.083-.475.689.689,0,0,0-.294-.562,1.2,1.2,0,0,0-.76-.229,5.1,5.1,0,0,0-2.971,1.134V31.818a6.1,6.1,0,0,1,1.542-.562,7.43,7.43,0,0,1,1.745-.237,5.444,5.444,0,0,1,3.292.848A2.885,2.885,0,0,1,217.393,34.332Zm-2.338,8.1a1.635,1.635,0,0,1-.567,1.283,2.22,2.22,0,0,1-1.525.5,2.181,2.181,0,0,1-1.5-.514,1.63,1.63,0,0,1-.58-1.27,1.561,1.561,0,0,1,.567-1.252,2.639,2.639,0,0,1,3.032,0A1.551,1.551,0,0,1,215.055,42.436Z" transform="translate(-1753.878 -9535.895)" fill="#12263f"/>
  </g>
</svg>
