<svg xmlns="http://www.w3.org/2000/svg" width="348" height="433" viewBox="0 0 348 433">
  <g id="Grupo_1182090" data-name="Grupo 1182090" transform="translate(1044 9922)">
    <g id="Rectángulo_456196" data-name="Rectángulo 456196" transform="translate(-1042 -9570)" fill="#ffebe7" stroke="#ffbdb6" stroke-width="2">
      <rect width="150" height="79" rx="10" stroke="none"/>
      <rect x="-1" y="-1" width="152" height="81" rx="11" fill="none"/>
    </g>
    <g id="Rectángulo_456197" data-name="Rectángulo 456197" transform="translate(-848 -9570)" fill="#ffebe7" stroke="#ffbdb6" stroke-width="2">
      <rect width="150" height="79" rx="10" stroke="none"/>
      <rect x="-1" y="-1" width="152" height="81" rx="11" fill="none"/>
    </g>
    <text id="Continuar_PAP_y_seguimiento" data-name="Continuar PAP y seguimiento" transform="translate(-1027 -9550)" fill="#12263f" font-size="16" font-family="SegoeUI, Segoe UI" letter-spacing="0.003em"><tspan x="-56.831" y="17">Continuar PAP y </tspan><tspan x="-43.891" y="37">seguimiento</tspan></text>
    <text id="Activar_atención_especializada_inmediata" data-name="Activar atención especializada inmediata" transform="translate(-833 -9560)" fill="#12263f" font-size="16" font-family="SegoeUI, Segoe UI" letter-spacing="0.003em"><tspan x="-57.019" y="17">Activar atención </tspan><tspan x="-46.752" y="37">especializada </tspan><tspan x="-35.199" y="57">inmediata</tspan></text>
    <path id="Trazado_1008282" data-name="Trazado 1008282" d="M0,0V82.5" transform="translate(-967.5 -9570) rotate(180)" fill="none" stroke="#445866" stroke-width="3"/>
    <path id="Trazado_1008283" data-name="Trazado 1008283" d="M0,0V82.5" transform="translate(-772.5 -9570) rotate(180)" fill="none" stroke="#445866" stroke-width="3"/>
    <rect id="Rectángulo_456194" data-name="Rectángulo 456194" width="148" height="50" rx="10" transform="translate(-1042 -9638)" fill="#ffbdb6"/>
    <rect id="Rectángulo_456195" data-name="Rectángulo 456195" width="150" height="50" rx="10" transform="translate(-848 -9638)" fill="#ffbdb6"/>
    <text id="No" transform="translate(-1000 -9623)" fill="#12263f" font-size="16" font-family="SegoeUI-Bold, Segoe UI" font-weight="700"><tspan x="-11.211" y="17">No</tspan></text>
    <text id="Si" transform="translate(-805 -9623)" fill="#12263f" font-size="16" font-family="SegoeUI-Bold, Segoe UI" font-weight="700"><tspan x="-6.758" y="17">Si</tspan></text>
    <path id="Trazado_1008258" data-name="Trazado 1008258" d="M0,0V56.105" transform="translate(-869.5 -9771.895) rotate(180)" fill="none" stroke="#445866" stroke-width="3"/>
    <path id="Trazado_1008280" data-name="Trazado 1008280" d="M0,0V49.895" transform="translate(-869.5 -9653) rotate(180)" fill="none" stroke="#445866" stroke-width="3"/>
    <path id="Trazado_1008281" data-name="Trazado 1008281" d="M0,0V197.964" transform="translate(-968.482 -9652.5) rotate(-90)" fill="none" stroke="#445866" stroke-width="3"/>
    <path id="Trazado_1008259" data-name="Trazado 1008259" d="M6.808,0H336.976c3.76,0,6.808,3.63,6.808,8.108V51.892c0,4.478-3.048,8.108-6.808,8.108H6.808C3.048,60,0,56.37,0,51.892V8.108C0,3.63,3.048,0,6.808,0Z" transform="translate(-1041.392 -9858)" fill="#773b3d"/>
    <text id="Evaluación_emocional_inicial" data-name="Evaluación emocional inicial" transform="translate(-1000 -9840)" fill="#fff" font-size="20" font-family="SegoeUI-Bold, Segoe UI" font-weight="700"><tspan x="-101.514" y="22">Evaluación emocional </tspan><tspan x="-27.598" y="46">inicial</tspan></text>
    <g id="Grupo_1182087" data-name="Grupo 1182087" transform="translate(147 29)">
      <circle id="Elipse_13924" data-name="Elipse 13924" cx="40" cy="40" r="40" transform="translate(-1064 -9951)" fill="#fff"/>
      <g id="Grupo_1182078" data-name="Grupo 1182078" transform="translate(-1044.344 -9933.556)">
        <g id="Grupo_1182085" data-name="Grupo 1182085" transform="translate(0.749 0.659)">
          <g id="Grupo_1182080" data-name="Grupo 1182080">
            <g id="Grupo_1182078-2" data-name="Grupo 1182078">
              <path id="Trazado_1008260" data-name="Trazado 1008260" d="M67.409,50.095a29.277,29.277,0,0,1-1.755-8.4,6.631,6.631,0,0,1,1.556-4.777c6.5-7.6,6.511-17.106.821-23.146-2.647-2.81-4.873-4.73-8.117-5.535-.236-.059-.6-.24-.835-.29A25.2,25.2,0,0,0,48.4,8.175a15.438,15.438,0,0,0-9.65,6.411,10.562,10.562,0,0,0-1.792,5.982c-.1,1.547-.734,1.89-.979,3.115a2.6,2.6,0,0,0,.38,1.842,2.011,2.011,0,0,1,.218,1.539c-.064.248-.143.518-.242.8a12.028,12.028,0,0,1-2.352,4.168,1.544,1.544,0,0,0,.292,2.3,2.646,2.646,0,0,0,1.1.429l1.479.216a.087.087,0,0,1,.072.062,1.924,1.924,0,0,1-.328,1.9.817.817,0,0,0-.089,1.246,2.318,2.318,0,0,0,.548.5.088.088,0,0,1,0,.147.99.99,0,0,0,.165,1.771,4.914,4.914,0,0,1,.608.3,1.132,1.132,0,0,1,.015,1.367,2.373,2.373,0,0,0-.445,2.047c.518,1.9,2.647,2.377,4.627,2.047,1.6-.267,2.848-1.157,4-.267.821.631,1.785,1.705,1.944,4.826a.353.353,0,0,0,.352.336H65.9l1.179-.7a.352.352,0,0,0,.331-.472Z" transform="translate(-33.595 -7.477)" fill="#f4aa73"/>
            </g>
            <g id="Grupo_1182079" data-name="Grupo 1182079" transform="translate(25.485 0.469)">
              <path id="Trazado_1008261" data-name="Trazado 1008261" d="M332.209,55.651a.352.352,0,0,1-.331.472h-2.228a45.417,45.417,0,0,1-2.493-10.384,6.745,6.745,0,0,1,1.605-4.835c6.45-7.591,6.481-17.547.805-23.572A18.076,18.076,0,0,0,322.83,12.8a18.309,18.309,0,0,1,9.733,5.413c5.675,6.025,5.644,15.981-.805,23.572a6.745,6.745,0,0,0-1.605,4.835A33.884,33.884,0,0,0,332.209,55.651Z" transform="translate(-322.83 -12.801)" fill="#ea9f6c"/>
            </g>
          </g>
          <g id="Grupo_1182084" data-name="Grupo 1182084" transform="translate(9.242 6.454)">
            <g id="Grupo_1182081" data-name="Grupo 1182081" transform="translate(5.375 10.97)">
              <path id="Trazado_1008262" data-name="Trazado 1008262" d="M212.217,211.834a5.95,5.95,0,0,1-6.119,6.3,6.528,6.528,0,0,1-6.2-4,6.248,6.248,0,0,1-.413-2.3,6.608,6.608,0,0,1,11.747-4.155s.141.274.226.4A6.206,6.206,0,0,1,212.217,211.834Z" transform="translate(-199.489 -205.226)" fill="#ffe077"/>
              <path id="Trazado_1008263" data-name="Trazado 1008263" d="M216.983,237.226a6.609,6.609,0,0,1-12.8,2.3,6.61,6.61,0,0,0,11.334-6.459A6.576,6.576,0,0,1,216.983,237.226Z" transform="translate(-203.766 -230.618)" fill="#ffd05b"/>
            </g>
            <g id="Grupo_1182082" data-name="Grupo 1182082" transform="translate(11.366 3.128)">
              <path id="Trazado_1008264" data-name="Trazado 1008264" d="M280.217,122.834a5.95,5.95,0,0,1-6.119,6.3,6.528,6.528,0,0,1-6.2-4,6.248,6.248,0,0,1-.413-2.3,6.608,6.608,0,0,1,11.747-4.155s.141.274.226.4a6.206,6.206,0,0,1,.755,3.759Z" transform="translate(-267.489 -116.226)" fill="#bbf39b"/>
              <path id="Trazado_1008265" data-name="Trazado 1008265" d="M284.983,148.226a6.609,6.609,0,0,1-12.8,2.3,6.61,6.61,0,0,0,11.334-6.459A6.576,6.576,0,0,1,284.983,148.226Z" transform="translate(-271.766 -141.618)" fill="#9ae59c"/>
            </g>
            <g id="Grupo_1182083" data-name="Grupo 1182083">
              <path id="Trazado_1008266" data-name="Trazado 1008266" d="M151.217,87.334a5.95,5.95,0,0,1-6.119,6.3,6.528,6.528,0,0,1-6.2-4,6.248,6.248,0,0,1-.413-2.3,6.608,6.608,0,0,1,11.747-4.155s.141.274.226.4A6.206,6.206,0,0,1,151.217,87.334Z" transform="translate(-138.489 -80.726)" fill="#fe8991"/>
              <path id="Trazado_1008267" data-name="Trazado 1008267" d="M155.983,112.726a6.609,6.609,0,0,1-12.8,2.3,6.61,6.61,0,0,0,11.334-6.459,6.576,6.576,0,0,1,1.47,4.155Z" transform="translate(-142.766 -106.118)" fill="#fe646f"/>
            </g>
          </g>
        </g>
        <g id="Grupo_1182086" data-name="Grupo 1182086" transform="translate(0)">
          <path id="Trazado_1008268" data-name="Trazado 1008268" d="M38.6,89.637c-1.085-.835-2.2-.5-3.27-.178a10.12,10.12,0,0,1-1.246.317c-1.6.266-3.455-.006-3.881-1.569a1.836,1.836,0,0,1,.381-1.545,1.721,1.721,0,0,0-.211-2.237,4.346,4.346,0,0,0-.68-.348c-.106-.055-.284-.174-.284-.345a.4.4,0,0,1,.244-.329.661.661,0,0,0,.012-1.162,1.746,1.746,0,0,1-.46-.4c-.161-.215-.131-.241-.005-.351a2.54,2.54,0,0,0,.5-2.671.661.661,0,0,0-.529-.438l-1.534-.224a2,2,0,0,1-.829-.322.883.883,0,0,1-.168-1.313,12.787,12.787,0,0,0,2.481-4.39c.1-.279.183-.566.257-.852a2.689,2.689,0,0,0-.291-2.045,1.965,1.965,0,0,1-.3-1.371,4.214,4.214,0,0,1,.4-1.08,5.136,5.136,0,0,0,.594-2.122,9.981,9.981,0,0,1,1.681-5.655,14.032,14.032,0,0,1,1.725-2.093.661.661,0,0,0-.934-.935,15.363,15.363,0,0,0-1.887,2.29,11.259,11.259,0,0,0-1.9,6.308,3.852,3.852,0,0,1-.466,1.635,5.5,5.5,0,0,0-.5,1.393,3.26,3.26,0,0,0,.461,2.311,1.359,1.359,0,0,1,.145,1.034c-.065.253-.141.505-.226.751a11.5,11.5,0,0,1-2.222,3.947,2.2,2.2,0,0,0,.416,3.283,3.327,3.327,0,0,0,1.38.536l1.084.158a1.014,1.014,0,0,1-.2.871,1.466,1.466,0,0,0-.183,2.14,2.465,2.465,0,0,0,.2.229,1.611,1.611,0,0,0-.256.87,1.728,1.728,0,0,0,.995,1.512c.11.058.263.136.468.219a.766.766,0,0,1-.113.539,3.038,3.038,0,0,0-.509,2.548c.542,1.987,2.651,2.978,5.374,2.525a11.3,11.3,0,0,0,1.409-.355c1.009-.3,1.56-.443,2.084-.04.788.606,1.606,1.634,1.7,4.658a.661.661,0,0,0,.66.64h.021a.661.661,0,0,0,.64-.681c-.111-3.576-1.182-4.87-2.215-5.665Z" transform="translate(-25.095 -50.872)"/>
          <path id="Trazado_1008269" data-name="Trazado 1008269" d="M132.4,4.176A16,16,0,0,1,137.625,2C142.263.943,151,.187,157.413,6.994c5.347,5.676,5.254,14.9-.221,21.943a.661.661,0,1,0,1.043.811A20.5,20.5,0,0,0,162.7,17.32a16.248,16.248,0,0,0-4.329-11.232A18.945,18.945,0,0,0,148.1.439a25.964,25.964,0,0,0-10.766.272A17.317,17.317,0,0,0,131.68,3.07a.661.661,0,0,0,.723,1.107Z" transform="translate(-122.016 0.001)"/>
          <path id="Trazado_1008270" data-name="Trazado 1008270" d="M398.58,357.908a6.041,6.041,0,0,1,.468-2.771.661.661,0,0,0-1.216-.517,7.369,7.369,0,0,0-.569,3.38,35.316,35.316,0,0,0,2.274,9.692.661.661,0,0,0,1.236-.469A33.986,33.986,0,0,1,398.58,357.908Z" transform="translate(-364.453 -323.007)"/>
          <path id="Trazado_1008271" data-name="Trazado 1008271" d="M242.65,245.226a.661.661,0,0,0-.661.661v1.762a.661.661,0,1,0,1.322,0v-1.762a.661.661,0,0,0-.661-.661Z" transform="translate(-222.878 -223.618)"/>
          <path id="Trazado_1008272" data-name="Trazado 1008272" d="M247.192,297.96a.661.661,0,0,0,.935,0,1.832,1.832,0,0,1,2.588,0,.661.661,0,0,0,.935-.935,3.156,3.156,0,0,0-4.457,0A.661.661,0,0,0,247.192,297.96Z" transform="translate(-227.446 -270.013)"/>
          <path id="Trazado_1008273" data-name="Trazado 1008273" d="M156.893,83.625a7.3,7.3,0,0,0-4.749-6.82.661.661,0,0,0-.458,1.24,5.949,5.949,0,1,1-7.82,7.073,7.266,7.266,0,0,0,1.578-5.722,5.933,5.933,0,0,1,3.531-1.683.661.661,0,1,0-.143-1.314,7.247,7.247,0,0,0-3.763,1.563,7.269,7.269,0,1,0-7.663,9.754,7.28,7.28,0,0,0-.514,6.48.661.661,0,1,0,1.225-.5,5.955,5.955,0,0,1,.89-5.971,7.235,7.235,0,0,0,3.8-1.57,7.274,7.274,0,0,0,2.364,3.206v1.442a.661.661,0,1,0,1.322,0v-.625a7.227,7.227,0,0,0,3.056.712c.018.191.028.383.028.574a5.948,5.948,0,0,1-9.862,4.478.661.661,0,0,0-.87.995A7.269,7.269,0,0,0,150.9,91.467c0-.228-.011-.455-.032-.682A7.28,7.28,0,0,0,156.893,83.625Zm-18.636,2.82A5.948,5.948,0,1,1,144.2,80.5,5.954,5.954,0,0,1,138.257,86.445Z" transform="translate(-121.658 -66.776)"/>
          <path id="Trazado_1008274" data-name="Trazado 1008274" d="M311.311,158.649v-1.762a.661.661,0,1,0-1.322,0v1.762a.661.661,0,1,0,1.322,0Z" transform="translate(-284.886 -142.46)"/>
          <path id="Trazado_1008275" data-name="Trazado 1008275" d="M361.311,158.649v-1.762a.661.661,0,1,0-1.322,0v1.762a.661.661,0,1,0,1.322,0Z" transform="translate(-330.481 -142.46)"/>
          <path id="Trazado_1008276" data-name="Trazado 1008276" d="M317.422,211.136a3.142,3.142,0,0,0,2.229-.922.661.661,0,0,0-.934-.935,1.832,1.832,0,0,1-2.588,0,.661.661,0,1,0-.935.935A3.142,3.142,0,0,0,317.422,211.136Z" transform="translate(-289.455 -190.663)"/>
          <path id="Trazado_1008277" data-name="Trazado 1008277" d="M178.175,124.412a.661.661,0,0,0,0-.935l-1.057-1.057a.661.661,0,1,0-.935.935l.59.59-.59.59a.661.661,0,1,0,.935.935Z" transform="translate(-162.694 -111.457)"/>
          <path id="Trazado_1008278" data-name="Trazado 1008278" d="M226.175,122.42a.661.661,0,0,0-.935,0l-1.057,1.057a.661.661,0,0,0,0,.935l1.057,1.057a.661.661,0,0,0,.935-.935l-.59-.59.59-.59A.661.661,0,0,0,226.175,122.42Z" transform="translate(-206.464 -111.457)"/>
          <path id="Trazado_1008279" data-name="Trazado 1008279" d="M186.192,174.525a.661.661,0,0,0,.935.934,1.832,1.832,0,0,1,2.588,0,.661.661,0,0,0,.934-.934A3.155,3.155,0,0,0,186.192,174.525Z" transform="translate(-171.821 -158.307)"/>
        </g>
      </g>
    </g>
    <rect id="Rectángulo_456193" data-name="Rectángulo 456193" width="343.92" height="90" rx="10" transform="translate(-1041.528 -9771.895)" fill="#fff5c1"/>
    <text id="_Existe_riesgo_de_auto_o_heteroagresión_" data-name="¿Existe riesgo de auto o heteroagresión?" transform="translate(-1014.878 -9747.895)" fill="#12263f" font-size="18" font-family="SegoeUIBlack, Segoe UI"><tspan x="-104.506" y="19">¿Existe riesgo de auto o </tspan><tspan x="-71.073" y="44">heteroagresión?</tspan></text>
  </g>
</svg>
