<svg xmlns="http://www.w3.org/2000/svg" width="84" height="84" viewBox="0 0 84 84">
  <g id="Grupo_1181062" data-name="Grupo 1181062" transform="translate(-186.496 -4152)">
    <rect id="Rectángulo_455253" data-name="Rectángulo 455253" width="84" height="84" rx="10" transform="translate(186.496 4152)" fill="#99bfb7"/>
    <g id="layer1" transform="translate(195.967 4161.471)">
      <path id="rect7450" d="M36.22.794a5.276,5.276,0,0,0-5.287,5.287V7.139H1.323V39.921H41.508V6.081A5.276,5.276,0,0,0,36.22.794Z" transform="translate(2.379 0.793)" fill="#e4eff8"/>
      <path id="path7455" d="M37.975.874c0,18.715-26.078,30.347-36.653,30.347v8.46H41.507V5.841A5.258,5.258,0,0,0,37.976.874Z" transform="translate(2.379 1.033)" fill="#c4dcf0"/>
      <path id="rect7195" d="M2.856,9.26h7.508a2.058,2.058,0,0,1,2.062,2.062v19.14a2.058,2.058,0,0,1-2.062,2.062H2.856A2.058,2.058,0,0,1,.794,30.463V11.323A2.058,2.058,0,0,1,2.856,9.26Z" transform="translate(0.793 26.166)" fill="#549ad4"/>
      <path id="path7197" d="M34.244,21.418H18.189c-2.116,0-2.464,1.057-3.174,2.115-1.218,1.815-3.394,5.53-3.394,5.53a3.321,3.321,0,0,1-4.166,1.629,3.165,3.165,0,0,1-1.633-4.172l3.12-7.147C14.02,8.232,21.422,8.118,25.652,4.5L39.4,18.245,36.409,22.4c-.691-.332.222-.929-2.165-.98Z" transform="translate(15.062 11.894)" fill="#ffbd8d"/>
      <path id="path7386" d="M25.652,4.5C21.422,8.118,14.02,8.231,8.943,19.371L5.822,26.519a3.165,3.165,0,0,0,1.634,4.172,2.886,2.886,0,0,0,2.247.043c-.044-.017-.088-.024-.132-.043a3.165,3.165,0,0,1-1.634-4.172l3.121-7.148C15.679,9.232,22.218,8.22,26.546,5.392Zm8.592,16.92c2.387.051,1.474.649,2.165.981l.675-.94c-.2-.021-.436-.035-.725-.041Z" transform="translate(15.062 11.894)" fill="#f5f9fb"/>
      <path id="path7199" d="M13.6,8.731s-6.719,4.23-9.891,4.23v19.06l5.287,2.09h25.38a3.172,3.172,0,0,0,0-6.345h2.115a3.172,3.172,0,0,0,0-6.345h1.057a3.172,3.172,0,1,0,0-6.345h2.115a3.172,3.172,0,0,0,0-6.345Z" transform="translate(9.515 24.58)" fill="#ffd1b5"/>
      <path id="path7201" d="M38.694,8.731c0,10.575-5.945,22.207-21.243,22.207H3.7s.432,1.063.527,1.291l4.761,1.882h25.38a3.172,3.172,0,0,0,0-6.345h2.115a3.172,3.172,0,0,0,0-6.345h1.057a3.172,3.172,0,0,0,0-6.345h2.115a3.172,3.172,0,0,0,0-6.345Z" transform="translate(9.515 24.58)" fill="#ffb98d"/>
      <path id="rect7203" d="M3.172,6.345H8.46A3.172,3.172,0,0,0,8.46,0H3.172a3.172,3.172,0,0,0,0,6.345Z" transform="translate(17.449 60.806) rotate(-90)" fill="#ffbd8d"/>
      <path id="path7205" d="M4.762,15.872V21.16a3.147,3.147,0,0,0,4.23,2.98,3.156,3.156,0,0,1-2.115-2.98V15.872a3.156,3.156,0,0,1,2.115-2.98,3.147,3.147,0,0,0-4.23,2.98Z" transform="translate(12.686 36.473)" fill="#f5f9fb"/>
      <path id="path7207" d="M5.292,12.892a3.156,3.156,0,0,1,2.115,2.98V21.16a3.156,3.156,0,0,1-2.115,2.98,3.147,3.147,0,0,0,4.23-2.98V15.872a3.147,3.147,0,0,0-4.23-2.98Z" transform="translate(14.272 36.474)" fill="#ffa465"/>
      <path id="path7209" d="M3.7,10.186v19.06l1.97.779a2.054,2.054,0,0,0,.145-.75V10.132a2.047,2.047,0,0,0-.06-.475,4.8,4.8,0,0,1-2.055.529Z" transform="translate(9.515 27.355)" fill="#ffb98d"/>
      <path id="rect7213" d="M3.172,6.345H8.46A3.172,3.172,0,1,0,8.46,0H3.172a3.172,3.172,0,0,0,0,6.345Z" transform="translate(23.794 62.921) rotate(-90)" fill="#ffbd8d"/>
      <path id="path7215" d="M9.254,9.26v4.23c0,8.46,0,16.92-6.375,16.92H.794v.054a2.056,2.056,0,0,0,2.061,2.061h7.51a2.056,2.056,0,0,0,2.061-2.061V11.322A2.056,2.056,0,0,0,10.365,9.26Z" transform="translate(0.793 26.166)" fill="#3588cb"/>
      <path id="path7217" d="M2.855,9.26A2.056,2.056,0,0,0,.794,11.322V30.464a2.056,2.056,0,0,0,2.061,2.061H4.97a2.056,2.056,0,0,1-2.061-2.061V11.322A2.056,2.056,0,0,1,4.97,9.26Z" transform="translate(0.793 26.166)" fill="#f5f9fb"/>
      <path id="rect7219" d="M3.172,6.345H7.4A3.172,3.172,0,0,0,7.4,0H3.172a3.172,3.172,0,0,0,0,6.345Z" transform="translate(30.139 62.921) rotate(-90)" fill="#ffbd8d"/>
      <path id="rect7221" d="M3.172,6.345H5.287A3.172,3.172,0,0,0,5.287,0H3.172a3.172,3.172,0,0,0,0,6.345Z" transform="translate(36.484 60.806) rotate(-90)" fill="#ffbd8d"/>
      <path id="path7223" d="M10.054,13.686a3.156,3.156,0,0,1,2.115,2.98v2.115a3.156,3.156,0,0,1-2.115,2.98,3.147,3.147,0,0,0,4.23-2.98V16.666a3.147,3.147,0,0,0-4.23-2.98Z" transform="translate(28.544 38.852)" fill="#ffa465"/>
      <path id="path7225" d="M9.522,13.229A3.166,3.166,0,0,0,6.35,16.4v5.287a3.147,3.147,0,0,0,4.23,2.98,3.156,3.156,0,0,1-2.115-2.98V16.4a3.156,3.156,0,0,1,2.115-2.98,3.158,3.158,0,0,0-1.057-.192Z" transform="translate(17.444 38.059)" fill="#f5f9fb"/>
      <path id="path7227" d="M6.879,13.421A3.156,3.156,0,0,1,8.994,16.4v5.287a3.156,3.156,0,0,1-2.115,2.98,3.147,3.147,0,0,0,4.23-2.98V16.4a3.147,3.147,0,0,0-4.23-2.98Z" transform="translate(19.03 38.059)" fill="#ffa465"/>
      <path id="path7229" d="M7.938,16.666V20.9a3.147,3.147,0,0,0,4.23,2.98,3.156,3.156,0,0,1-2.115-2.98v-4.23a3.156,3.156,0,0,1,2.115-2.98,3.147,3.147,0,0,0-4.23,2.98Z" transform="translate(22.201 38.852)" fill="#f5f9fb"/>
      <path id="path7231" d="M12.7,16.666V20.9a3.147,3.147,0,0,1-4.23,2.98,3.156,3.156,0,0,0,2.115-2.98v-4.23a3.156,3.156,0,0,0-2.115-2.98,3.147,3.147,0,0,1,4.23,2.98Z" transform="translate(23.787 38.852)" fill="#ffa465"/>
      <path id="path7233" d="M12.7,13.494a3.158,3.158,0,0,1,1.057.192,3.156,3.156,0,0,0-2.115,2.98v2.115a3.156,3.156,0,0,0,2.115,2.98,3.147,3.147,0,0,1-4.23-2.98V16.666A3.166,3.166,0,0,1,12.7,13.494Z" transform="translate(26.959 38.852)" fill="#f5f9fb"/>
      <path id="path7235" d="M8.048,8.731l-2.227,5.1A3.165,3.165,0,0,0,7.456,18a3.321,3.321,0,0,0,4.166-1.63s2.175-3.714,3.393-5.529c.71-1.057,1.058-2.115,3.175-2.115Z" transform="translate(15.062 24.58)" fill="#ffbd8d"/>
      <path id="path7399" d="M25.652,4.5C21.422,8.118,14.02,8.231,8.943,19.371L5.822,26.519a3.165,3.165,0,0,0,1.634,4.172,2.886,2.886,0,0,0,2.247.043c-.044-.017-.088-.024-.132-.043a3.165,3.165,0,0,1-1.634-4.172l3.121-7.148C15.679,9.232,22.218,8.22,26.546,5.392Z" transform="translate(15.062 11.894)" fill="#f5f9fb"/>
      <g id="Grupo_1180665" data-name="Grupo 1180665" transform="translate(22.263 27.477)">
        <path id="path7237" d="M14.066,8.731c-2.116,0-2.465,1.057-3.175,2.115C9.673,12.661,7.5,16.375,7.5,16.375a4.1,4.1,0,0,1-1.53,1.487c.085.047.163.1.254.143a3.321,3.321,0,0,0,4.166-1.63s2.175-3.714,3.393-5.529c.71-1.057,1.058-2.115,3.175-2.115Z" transform="translate(-5.967 -2.897)" fill="#ffa465"/>
        <path id="path7239" d="M13.153,8.482a2.6,2.6,0,0,1-.984,1.756A7.326,7.326,0,0,1,9.64,11.7a1.058,1.058,0,1,0,.671,2.006,9.2,9.2,0,0,0,3.294-1.913c.932-.864,2-1.985,1.995-3.318,0-.311-.007-1.053-.007-1.053S14.536,7.4,14.183,7.4a1.057,1.057,0,0,0-1.03,1.077Z" transform="translate(2.857 -6.873)" fill="#ffa465"/>
        <path id="path7241" d="M9.043,12.048l14.749,1.058c2.387.051,1.474.649,2.165.981l2.991-4.154L26.285,7.271c0,3.72-5.8,4.777-17.242,4.777Z" transform="translate(3.25 -7.271)" fill="#ffa465"/>
      </g>
      <path id="rect7275" d="M2.062,0H9.57a2.058,2.058,0,0,1,2.062,2.062V21.2A2.058,2.058,0,0,1,9.57,23.265H2.062A2.058,2.058,0,0,1,0,21.2V2.062A2.058,2.058,0,0,1,2.062,0Z" transform="translate(39.1 14.508) rotate(-45)" fill="#549ad4"/>
      <path id="path7278" d="M13.825,2.183a2.055,2.055,0,0,0-1.458.605l-.657.657,9.576,9.576c2.929,2.645,3.9,5.621,1.784,7.735L19.934,23.89l.657.657a2.058,2.058,0,0,0,2.916,0l5.31-5.308a2.058,2.058,0,0,0,0-2.916L15.283,2.788a2.055,2.055,0,0,0-1.458-.605Z" transform="translate(33.506 4.956)" fill="#3588cb"/>
      <path id="path7280" d="M16.308,2.788,11,8.1a2.058,2.058,0,0,0,0,2.916L24.533,24.547a2.056,2.056,0,0,0,2.516.308,2.071,2.071,0,0,1-.4-.308L13.115,11.014a2.058,2.058,0,0,1,0-2.916l5.308-5.31a2.062,2.062,0,0,1,.4-.306,2.042,2.042,0,0,0-2.516.306Z" transform="translate(29.564 4.956)" fill="#f5f9fb"/>
      <path id="path7435" d="M6.081.794A5.276,5.276,0,0,0,.794,6.081V9.254H32.518V6.081A5.276,5.276,0,0,1,37.806.794Z" transform="translate(0.793 0.793)" fill="#549ad4"/>
      <path id="path7445" d="M31.8.794C27.231,7.686,6.081,7.139,1.851,7.139H.794V9.254H32.518V6.081A5.276,5.276,0,0,1,37.806.794Z" transform="translate(0.793 0.793)" fill="#3588cb"/>
      <path id="path7441" d="M6.081.794A5.276,5.276,0,0,0,.794,6.081V9.254H2.909V6.081A5.276,5.276,0,0,1,8.2.794Z" transform="translate(0.793 0.793)" fill="#f5f9fb"/>
      <path id="Ic_14" d="M6.876.529A6.358,6.358,0,0,0,.529,6.876v3.168a1.059,1.059,0,0,0,1.053,1.064H2.646V34.54A3.1,3.1,0,0,0,.529,37.485v19.14a3.142,3.142,0,0,0,3.123,3.123h7.5a3.143,3.143,0,0,0,2.792-1.737l2.685,1.018a4.251,4.251,0,0,0,3.992,2.834,4.2,4.2,0,0,0,2.353-.721,4.22,4.22,0,0,0,7.163,1.394A4.22,4.22,0,0,0,37.3,61.142a4.2,4.2,0,0,0,2.353.721,4.243,4.243,0,0,0,3.66-2.115h.572a4.246,4.246,0,0,0,4.23-4.232,4.2,4.2,0,0,0-.721-2.352,4.253,4.253,0,0,0,2.838-3.994,4.2,4.2,0,0,0-1-2.72,4.2,4.2,0,0,0,1.334-5.971A4.249,4.249,0,0,0,53.4,36.486a4.2,4.2,0,0,0-.675-2.28L54.5,30.969a3.134,3.134,0,0,0,3.259-.717l5.31-5.31a3.132,3.132,0,0,0-.008-4.41L49.532,7a3.1,3.1,0,0,0-4.4,0l-.182.182v-.3A6.358,6.358,0,0,0,38.6.529Zm0,2.117H33.869a6.149,6.149,0,0,0-1.615,4.23V8.991H2.646V6.876a4.2,4.2,0,0,1,4.23-4.23Zm35.957,4.23V9.295L39.82,12.308a3.142,3.142,0,0,0-.475,3.807c-3.99,2.8-11.364,3.876-16.306,14.715l-.754,1.724c-.449.327-1.55,1.113-2.811,1.91a26.377,26.377,0,0,1-2.466,1.4,5.993,5.993,0,0,1-1.623.562h-1.3a3.074,3.074,0,0,0-2.977-2.059H4.761V11.108H33.308a1.061,1.061,0,0,0,1.064-1.064V6.876a4.231,4.231,0,0,1,8.462,0Zm5.211,1.611L61.579,22.022a.985.985,0,0,1,0,1.425l-5.31,5.31a.985.985,0,0,1-1.425,0L41.309,15.222a.976.976,0,0,1,.008-1.419l5.31-5.31a1.015,1.015,0,0,1,.708-.3,1.056,1.056,0,0,1,.71.291ZM7.985,13.223a1.053,1.053,0,1,0,0,2.107H30.139a1.053,1.053,0,1,0,0-2.107Zm0,4.222a1.059,1.059,0,1,0,0,2.117H30.139a1.059,1.059,0,0,0,0-2.117ZM52.795,29.7l-1.681,3.049a4.167,4.167,0,0,0-1.758-.49q-4.411-.007-8.832,0A4.52,4.52,0,0,0,42.122,29a1.059,1.059,0,1,0-2.117.017,2.6,2.6,0,0,1-.983,1.756,7.464,7.464,0,0,1-2.535,1.483c-1.075.012-2.173,0-3.234,0a4.148,4.148,0,0,0-2.826.929A7.243,7.243,0,0,0,29.2,34.838c-1.264,1.883-3.419,5.562-3.431,5.579-.707,1.159-1.752,1.671-2.829,1.2a2.085,2.085,0,0,1-1.084-2.78l3.11-7.142c4.709-10.314,11.168-10.494,15.819-14Zm-44.8-8.022a1.057,1.057,0,1,0,0,2.115H24.853a1.057,1.057,0,0,0,0-2.115Zm1.2,5a5.04,5.04,0,0,0-2.319,3.848,1.056,1.056,0,0,0,2.107.14,2.829,2.829,0,0,1,1.382-2.224,2.063,2.063,0,0,1,2.2-.2,1.824,1.824,0,0,1,.927,1.828,1.058,1.058,0,0,0,1.851.756,2.081,2.081,0,0,1,1.093-.671c.177-.024.539-.044.952.57a1.058,1.058,0,0,0,.882.469h1.3a1.057,1.057,0,1,0,0-2.115h-.787a2.918,2.918,0,0,0-2.625-1.022,2.226,2.226,0,0,0-.847.246,3.934,3.934,0,0,0-3.617-2.4A4.507,4.507,0,0,0,9.2,26.681Zm11.5,9.511-.785,1.8a4.236,4.236,0,0,0,2.177,5.558,4.435,4.435,0,0,0,5.5-2.053s2.2-3.736,3.369-5.48a8.4,8.4,0,0,1,.89-1.258c.249-.225.523-.388,1.4-.388H49.17a2.115,2.115,0,1,1,0,4.23H42.833a1.058,1.058,0,1,0,0,2.115h4.222a2.116,2.116,0,0,1,0,4.232H41.769a1.053,1.053,0,1,0,0,2.107H46a2.116,2.116,0,0,1,0,4.232H39.654a4.223,4.223,0,0,0-3.172,1.442,4.206,4.206,0,0,0-5.895-.44,4.208,4.208,0,0,0-5.971-1.334,4.23,4.23,0,0,0-8.225,1.394v4.327l-2.115-.806V38.547h1.109a5.851,5.851,0,0,0,2.545-.775,28.064,28.064,0,0,0,2.677-1.522m-9.453.235a.979.979,0,0,1,1.008,1v19.14a.984.984,0,0,1-1.008,1.006h-7.5a.982.982,0,0,1-1.006-1.006V37.485a.977.977,0,0,1,1.006-1Zm9.47,13.747a2.088,2.088,0,0,1,2.115,2.115v5.283a2.115,2.115,0,1,1-4.23,0V52.348A2.088,2.088,0,0,1,20.623,50.233Zm6.347,2.115a2.088,2.088,0,0,1,2.115,2.115c0,1.762,0,3.519,0,5.285a2.116,2.116,0,0,1-4.232,0c0-1.766,0-3.518,0-5.285a2.089,2.089,0,0,1,2.117-2.115ZM33.307,53.4a2.089,2.089,0,0,1,2.117,2.115c0,1.416,0,2.818,0,4.232a2.116,2.116,0,0,1-4.232,0V55.516A2.088,2.088,0,0,1,33.307,53.4Zm6.347,0a2.088,2.088,0,0,1,2.115,2.115v2.115a2.115,2.115,0,1,1-4.23,0V55.516A2.088,2.088,0,0,1,39.654,53.4Zm3.66,0h.572a2.115,2.115,0,1,1,0,4.23V55.516A4.191,4.191,0,0,0,43.314,53.4Z" transform="translate(0 0)"/>
    </g>
  </g>
</svg>
