<svg xmlns="http://www.w3.org/2000/svg" xmlns:xlink="http://www.w3.org/1999/xlink" width="130" height="119.974" viewBox="0 0 130 119.974">
  <defs>
    <clipPath id="clip-path">
      <path id="Trazado_991612" data-name="Trazado 991612" d="M0-12.8H130V107.171H0Z" transform="translate(0 12.803)" fill="none"/>
    </clipPath>
    <clipPath id="clip-path-2">
      <rect id="Rectángulo_454521" data-name="Rectángulo 454521" width="130" height="119.303" fill="none"/>
    </clipPath>
    <clipPath id="clip-path-3">
      <rect id="Rectángulo_454519" data-name="Rectángulo 454519" width="116.699" height="98.739" fill="#bbded6"/>
    </clipPath>
    <clipPath id="clip-path-4">
      <rect id="Rectángulo_454520" data-name="Rectángulo 454520" width="109.614" height="92.744" fill="#bbded6"/>
    </clipPath>
  </defs>
  <g id="Grupo_1180787" data-name="Grupo 1180787" transform="translate(-1120.136 -272.925)">
    <g id="Grupo_1177858" data-name="Grupo 1177858" transform="translate(1120.136 272.925)">
      <g id="Enmascarar_grupo_1119118" data-name="Enmascarar grupo 1119118" transform="translate(0 0)" clip-path="url(#clip-path)">
        <g id="Grupo_1176801" data-name="Grupo 1176801" transform="translate(0 0.67)">
          <g id="Grupo_1176800" data-name="Grupo 1176800" clip-path="url(#clip-path-2)">
            <g id="Grupo_1176796" data-name="Grupo 1176796" transform="translate(13.301 2.505)" style="isolation: isolate">
              <g id="Grupo_1176795" data-name="Grupo 1176795" transform="translate(0)">
                <g id="Grupo_1176794" data-name="Grupo 1176794" clip-path="url(#clip-path-3)">
                  <path id="Trazado_991607" data-name="Trazado 991607" d="M152.821,49.369c0,27.266-26.124,49.369-58.349,49.369s-58.349-22.1-58.349-49.369S62.246,0,94.471,0s58.349,22.1,58.349,49.369" transform="translate(-36.122)" fill="#bbded6"/>
                </g>
              </g>
            </g>
            <g id="Grupo_1176799" data-name="Grupo 1176799" transform="translate(0 14.481)" opacity="0.59" style="isolation: isolate">
              <g id="Grupo_1176798" data-name="Grupo 1176798">
                <g id="Grupo_1176797" data-name="Grupo 1176797" clip-path="url(#clip-path-4)">
                  <path id="Trazado_991608" data-name="Trazado 991608" d="M109.614,54.274c0,25.611-24.538,46.372-54.807,46.372S0,79.885,0,54.274,24.538,7.9,54.807,7.9s54.807,20.762,54.807,46.372" transform="translate(0 -7.902)" fill="#bbded6"/>
                </g>
              </g>
            </g>
            <path id="Trazado_991609" data-name="Trazado 991609" d="M100.133,2.859C81.389-3.059,59.651.247,44.081,12.451,29.209,24.109,24.48,43.145,32.422,60.374c8.793,19.075,30.95,28.366,51.122,25.6a185.7,185.7,0,0,0-3.739,22.478c-.1.792.975,1.058,1.466.607,7.251-6.665,13.178-15.551,18.946-23.492a.675.675,0,0,0,.109-.235c18.3-1.955,31.473-22.993,32.327-40.033C133.7,24.486,119.18,8.873,100.133,2.859m24.743,61.984c-5.337,9.033-14.408,18.049-25.394,18.86a.91.91,0,0,0-.795,1.165c-5.621,6.989-10.52,14.878-16.858,21.263.922-6.761,2.141-13.483,2.965-20.251a.517.517,0,0,0-.023-.234c.284-.384.066-1.142-.518-1.09C66.845,86.12,48,80.856,37.565,65.91,27.46,51.431,27.64,31.728,39.888,18.6,52.4,5.2,72.218-.223,90.069,2.327c18.344,2.62,36.2,13.825,40.112,32.965a41.841,41.841,0,0,1-5.3,29.551" transform="translate(-12.462 10.021)" fill="#3e5d56"/>
          </g>
        </g>
      </g>
    </g>
    <g id="Grupo_1181104" data-name="Grupo 1181104" transform="translate(1164.136 291.557)">
      <g id="Grupo_1181102" data-name="Grupo 1181102" transform="translate(1.055 8.498)">
        <path id="Trazado_1005687" data-name="Trazado 1005687" d="M273.418,194.709l3.641-9.763a2.559,2.559,0,0,1,2.8-1.756,2.435,2.435,0,0,1,2.065,2.785l-3.34,13.425a17.332,17.332,0,0,1-6.066,8.986l-5.77,4.128v2.434A1.055,1.055,0,0,1,265.694,216h-9.677v-6.12a12.261,12.261,0,0,1,5.991-10.994l7.916-5.081a2.42,2.42,0,0,1,3.061,3.7l-5.331,4.2" transform="translate(-230.056 -165.683)" fill="#fff"/>
        <path id="Trazado_1005688" data-name="Trazado 1005688" d="M24.292,201.717l-5.331-4.2a2.42,2.42,0,0,1,3.061-3.7l7.916,5.081a12.261,12.261,0,0,1,5.991,10.994V216H26.253a1.055,1.055,0,0,1-1.055-1.055v-2.434l-5.77-4.128a17.332,17.332,0,0,1-6.066-8.986l-3.34-13.425a2.435,2.435,0,0,1,2.065-2.785,2.559,2.559,0,0,1,2.8,1.756l3.641,9.763" transform="translate(-10.001 -165.683)" fill="#fff"/>
        <path id="Trazado_1005689" data-name="Trazado 1005689" d="M280.034,121.032H266.716v-6.709a4.143,4.143,0,0,1,4.143-4.143h6.086a4.143,4.143,0,0,1,4.143,4.143v5.655A1.055,1.055,0,0,1,280.034,121.032Z" transform="translate(-239.641 -100.398)" fill="#fff"/>
        <path id="Trazado_1005690" data-name="Trazado 1005690" d="M123.383,121.032H110.065a1.055,1.055,0,0,1-1.055-1.055v-5.655a4.143,4.143,0,0,1,4.143-4.143h6.086a4.143,4.143,0,0,1,4.143,4.143Z" transform="translate(-98.568 -100.398)" fill="#fff"/>
        <path id="Trazado_1005691" data-name="Trazado 1005691" d="M201.181,184.225H188.918a1.055,1.055,0,0,1-1.055-1.055v-5.655a4.143,4.143,0,0,1,4.143-4.143h6.086a4.143,4.143,0,0,1,4.143,4.143v5.655A1.055,1.055,0,0,1,201.181,184.225Z" transform="translate(-169.104 -156.926)" fill="#fff"/>
        <g id="Grupo_1181101" data-name="Grupo 1181101" transform="translate(12.738 0)">
          <circle id="Elipse_13843" data-name="Elipse 13843" cx="4.89" cy="4.89" r="4.89" transform="translate(8.317 6.665)" fill="#fff"/>
          <circle id="Elipse_13844" data-name="Elipse 13844" cx="4.89" cy="4.89" r="4.89" transform="translate(16.633)" fill="#fff"/>
          <circle id="Elipse_13845" data-name="Elipse 13845" cx="4.89" cy="4.89" r="4.89" fill="#fff"/>
        </g>
      </g>
      <g id="Grupo_1181103" data-name="Grupo 1181103" transform="translate(0 7.443)">
        <path id="Trazado_1005692" data-name="Trazado 1005692" d="M51.062,173.178a3.624,3.624,0,0,0-3.973,2.375l-.019.048-3.083,8.267a3.476,3.476,0,0,0-3.632.076l-7.906,5.074A13.256,13.256,0,0,0,27,195.271a13.256,13.256,0,0,0-5.449-6.253l-7.9-5.074a3.476,3.476,0,0,0-3.634-.077s-3.1-8.3-3.1-8.314a3.624,3.624,0,0,0-3.973-2.375,3.5,3.5,0,0,0-2.908,3.95c.005.042,3.363,13.551,3.363,13.551a18.256,18.256,0,0,0,6.443,9.563l.033.025L15.2,204.08v1.892a2.112,2.112,0,0,0,2.109,2.109H36.693a2.112,2.112,0,0,0,2.109-2.109V204.08l5.329-3.813.033-.025a18.258,18.258,0,0,0,6.443-9.564s3.357-13.507,3.363-13.549a3.5,3.5,0,0,0-2.908-3.95ZM25.933,200.812c0,.032,0,5.16,0,5.16H17.307v-2.434a1.055,1.055,0,0,0-.441-.858l-5.753-4.116a16.312,16.312,0,0,1-5.674-8.395L2.117,176.812a1.387,1.387,0,0,1,1.215-1.561l.023,0c.2-.031,1.08-.09,1.609,1.117l3.5,9.4a3.454,3.454,0,0,0,.782,3.5c.034.036,5.442,4.306,5.442,4.306A1.055,1.055,0,0,0,16,191.911l-5.263-4.151A1.374,1.374,0,0,1,10.8,185.9a1.363,1.363,0,0,1,1.7-.184l7.938,5.095a11.02,11.02,0,0,1,4.992,6.327A10.877,10.877,0,0,1,25.933,200.812Zm25.949-24L48.56,190.167a16.311,16.311,0,0,1-5.674,8.4l-5.753,4.116a1.054,1.054,0,0,0-.441.858v2.434H28.071s0-5.128,0-5.16a11.236,11.236,0,0,1,5.489-10l7.939-5.1a1.363,1.363,0,0,1,1.7.184,1.375,1.375,0,0,1,.067,1.857L38,191.911a1.055,1.055,0,0,0,1.306,1.656s5.408-4.269,5.442-4.306a3.454,3.454,0,0,0,.782-3.5l3.5-9.4c.529-1.207,1.408-1.148,1.609-1.117l.023,0a1.387,1.387,0,0,1,1.215,1.562Z" transform="translate(0 -155.651)" fill="#3e5d56"/>
        <path id="Trazado_1005693" data-name="Trazado 1005693" d="M101.191,30.186h6.137v4.556a2.112,2.112,0,0,0,2.109,2.109h1.335a1.055,1.055,0,0,0,0-2.109h-1.335s0-5.674,0-5.705A3.092,3.092,0,0,1,112.526,26h6.086a3.092,3.092,0,0,1,3.087,3.038c0,.031,0,5.705,0,5.705h-1.318a1.055,1.055,0,1,0,0,2.109H121.7a2.112,2.112,0,0,0,2.109-2.109V30.186h6.137a2.181,2.181,0,0,0,2.179-2.179V22.422a5.207,5.207,0,0,0-3.858-5.022,5.945,5.945,0,1,0-10.188-2.734,5.928,5.928,0,0,0-5.022,0A5.945,5.945,0,1,0,102.87,17.4a5.207,5.207,0,0,0-3.858,5.022v5.585A2.181,2.181,0,0,0,101.191,30.186Zm28.826-7.764v5.585a.069.069,0,0,1-.069.069h-6.237a5.214,5.214,0,0,0-3.759-4.012,5.909,5.909,0,0,0,1.517-4.731h5.459A3.092,3.092,0,0,1,130.017,22.422Zm-6.131-12.87a3.836,3.836,0,1,1-3.836,3.836A3.84,3.84,0,0,1,123.886,9.552Zm-4.481,10.5a3.836,3.836,0,1,1-3.836-3.836A3.84,3.84,0,0,1,119.405,20.053Zm-12.152-10.5a3.836,3.836,0,1,1-3.836,3.836A3.84,3.84,0,0,1,107.253,9.552Zm-6.131,12.87a3.092,3.092,0,0,1,3.089-3.089h5.459a5.909,5.909,0,0,0,1.517,4.731,5.214,5.214,0,0,0-3.759,4.012h-6.237a.069.069,0,0,1-.069-.069Z" transform="translate(-88.569 -7.443)" fill="#3e5d56"/>
        <circle id="Elipse_13846" data-name="Elipse 13846" cx="1.055" cy="1.055" r="1.055" transform="translate(25.945 27.298)" fill="#3e5d56"/>
      </g>
    </g>
  </g>
</svg>
