<svg xmlns="http://www.w3.org/2000/svg" width="292" height="170.305" viewBox="0 0 292 170.305">
  <g id="Grupo_1181058" data-name="Grupo 1181058" transform="translate(-290 -3639)">
    <rect id="Rectángulo_455251" data-name="Rectángulo 455251" width="292" height="170" transform="translate(290 3639)" fill="#e3f1ee"/>
    <g id="_10354155_4440572" data-name="10354155_4440572" transform="translate(297.815 3646.889)">
      <g id="BACKGROUND" transform="translate(16.254 13.111)">
        <g id="Grupo_1180490" data-name="Grupo 1180490">
          <g id="Grupo_1180486" data-name="Grupo 1180486" transform="translate(0.65 7.874)">
            <g id="Grupo_1180456" data-name="Grupo 1180456" transform="translate(0 10.39)">
              <g id="Grupo_1180455" data-name="Grupo 1180455">
                <g id="Grupo_1180454" data-name="Grupo 1180454">
                  <path id="Trazado_1004533" data-name="Trazado 1004533" d="M83.422,92.722l-3.257,2.512a2.316,2.316,0,0,1-2.65.124q-.571-.36-1.167-.67A2.328,2.328,0,0,1,75.1,92.327l.527-4.08a2.316,2.316,0,0,0-2-2.593L70,85.186a2.316,2.316,0,0,0-2.593,2l-.527,4.08a2.329,2.329,0,0,1-1.806,1.966q-.654.148-1.3.351a2.316,2.316,0,0,1-2.532-.793l-2.512-3.257a2.316,2.316,0,0,0-3.248-.42l-2.9,2.233a2.315,2.315,0,0,0-.419,3.248l2.512,3.257a2.316,2.316,0,0,1,.123,2.65q-.36.571-.67,1.167a2.329,2.329,0,0,1-2.361,1.248l-4.08-.527a2.316,2.316,0,0,0-2.593,2l-.469,3.626a2.316,2.316,0,0,0,2,2.593l4.08.527a2.329,2.329,0,0,1,1.966,1.806q.148.654.351,1.3a2.316,2.316,0,0,1-.793,2.532l-3.257,2.512a2.316,2.316,0,0,0-.42,3.248l2.233,2.9a2.315,2.315,0,0,0,3.248.419l3.257-2.512a2.316,2.316,0,0,1,2.65-.123q.571.36,1.167.67a2.328,2.328,0,0,1,1.247,2.361l-.527,4.08a2.316,2.316,0,0,0,2,2.593l3.626.468a2.316,2.316,0,0,0,2.593-2l.527-4.08a2.329,2.329,0,0,1,1.806-1.966q.654-.148,1.3-.351a2.316,2.316,0,0,1,2.532.793l2.512,3.257a2.315,2.315,0,0,0,3.248.419l2.9-2.233a2.315,2.315,0,0,0,.419-3.248l-2.512-3.257a2.316,2.316,0,0,1-.123-2.65q.36-.571.67-1.167a2.329,2.329,0,0,1,2.361-1.248l4.08.527a2.316,2.316,0,0,0,2.593-2l.469-3.626a2.316,2.316,0,0,0-2-2.593l-4.08-.527a2.329,2.329,0,0,1-1.966-1.806q-.148-.654-.351-1.3a2.316,2.316,0,0,1,.793-2.532l3.257-2.512a2.316,2.316,0,0,0,.42-3.248l-2.233-2.9A2.315,2.315,0,0,0,83.422,92.722ZM76.3,119.095a12.39,12.39,0,1,1,2.245-17.377A12.389,12.389,0,0,1,76.3,119.095Z" transform="translate(-44.254 -84.805)" fill="#d2ddff"/>
                  <path id="Trazado_1004534" data-name="Trazado 1004534" d="M67.124,133.126a2.713,2.713,0,0,1-.345-.022l-3.626-.469a2.681,2.681,0,0,1-2.313-3l.527-4.08a1.976,1.976,0,0,0-1.056-1.993c-.4-.21-.8-.441-1.192-.685a1.962,1.962,0,0,0-2.236.1L53.626,125.5a2.678,2.678,0,0,1-3.755-.485l-2.233-2.9a2.681,2.681,0,0,1,.485-3.756l3.257-2.512a1.962,1.962,0,0,0,.669-2.136c-.137-.434-.258-.881-.359-1.327a1.977,1.977,0,0,0-1.659-1.527l-4.08-.527a2.681,2.681,0,0,1-2.313-3l.469-3.626a2.678,2.678,0,0,1,3-2.313l4.08.527a1.977,1.977,0,0,0,1.993-1.055c.211-.406.442-.808.685-1.192a1.961,1.961,0,0,0-.1-2.236L51.247,94.18a2.677,2.677,0,0,1,.485-3.756l2.9-2.233a2.681,2.681,0,0,1,3.756.485l2.512,3.257a1.962,1.962,0,0,0,2.136.669c.434-.137.881-.258,1.327-.359a1.977,1.977,0,0,0,1.527-1.66l.527-4.08a2.681,2.681,0,0,1,3-2.313l3.626.469a2.681,2.681,0,0,1,2.313,3l-.527,4.08a1.976,1.976,0,0,0,1.055,1.993c.4.21.805.441,1.192.685a1.96,1.96,0,0,0,2.236-.1L82.563,91.8a2.681,2.681,0,0,1,3.755.485l2.233,2.9a2.681,2.681,0,0,1-.485,3.756l-3.257,2.512a1.962,1.962,0,0,0-.669,2.136c.137.436.258.882.359,1.327a1.977,1.977,0,0,0,1.66,1.527l4.08.527a2.678,2.678,0,0,1,2.313,3l-.469,3.626a2.678,2.678,0,0,1-3,2.313L85,115.376a1.974,1.974,0,0,0-1.993,1.055c-.212.407-.443.808-.685,1.192a1.962,1.962,0,0,0,.1,2.236l2.512,3.257a2.677,2.677,0,0,1-.485,3.756l-2.9,2.233a2.681,2.681,0,0,1-3.756-.485l-2.512-3.257a1.963,1.963,0,0,0-2.136-.669c-.433.137-.879.257-1.327.359a1.977,1.977,0,0,0-1.527,1.66l-.527,4.08A2.682,2.682,0,0,1,67.124,133.126Zm-9.047-11.271a2.675,2.675,0,0,1,1.429.412c.371.234.755.454,1.141.655a2.7,2.7,0,0,1,1.44,2.728l-.527,4.08a1.955,1.955,0,0,0,1.687,2.187l3.626.469a1.955,1.955,0,0,0,2.188-1.687l.527-4.079a2.7,2.7,0,0,1,2.085-2.273c.428-.1.855-.213,1.27-.344a2.689,2.689,0,0,1,2.928.917l2.512,3.257a1.956,1.956,0,0,0,2.74.354l2.9-2.233a1.953,1.953,0,0,0,.354-2.74L81.858,120.3a2.689,2.689,0,0,1-.143-3.064c.232-.368.452-.751.655-1.141a2.706,2.706,0,0,1,2.728-1.439l4.08.527a1.953,1.953,0,0,0,2.187-1.687l.469-3.626a1.954,1.954,0,0,0-1.687-2.188l-4.08-.527a2.7,2.7,0,0,1-2.273-2.085c-.1-.425-.212-.853-.343-1.27a2.689,2.689,0,0,1,.918-2.927l3.257-2.512a1.956,1.956,0,0,0,.354-2.739l-2.233-2.9a1.955,1.955,0,0,0-2.739-.354l-3.257,2.512a2.687,2.687,0,0,1-3.064.143c-.37-.234-.754-.454-1.141-.655A2.7,2.7,0,0,1,74.1,91.645l.527-4.08a1.956,1.956,0,0,0-1.687-2.187l-3.626-.469A1.956,1.956,0,0,0,67.131,86.6L66.6,90.676a2.7,2.7,0,0,1-2.085,2.273c-.427.1-.854.213-1.27.344a2.688,2.688,0,0,1-2.927-.917L57.81,89.118a1.956,1.956,0,0,0-2.74-.354L52.175,91a1.953,1.953,0,0,0-.354,2.74l2.512,3.257a2.687,2.687,0,0,1,.143,3.064c-.232.368-.452.752-.655,1.141a2.7,2.7,0,0,1-2.728,1.439l-4.08-.527a1.953,1.953,0,0,0-2.187,1.687l-.469,3.626a1.956,1.956,0,0,0,1.687,2.188l4.08.527a2.7,2.7,0,0,1,2.273,2.085c.1.427.213.854.344,1.27a2.689,2.689,0,0,1-.918,2.927l-3.257,2.512a1.956,1.956,0,0,0-.354,2.74l2.233,2.9a1.953,1.953,0,0,0,2.739.354l3.257-2.512A2.678,2.678,0,0,1,58.077,121.855Zm24.708-29.77h0ZM68.11,121.394a12.741,12.741,0,1,1,7.773-2.649h0A12.687,12.687,0,0,1,68.11,121.394ZM68.07,96.618a12.028,12.028,0,1,0,7.37,21.554h0a12.028,12.028,0,0,0-5.8-21.453A12.333,12.333,0,0,0,68.07,96.618Zm7.591,21.841h0Z" transform="translate(-43.616 -84.169)" fill="#fff"/>
                </g>
              </g>
            </g>
            <g id="Grupo_1180467" data-name="Grupo 1180467" transform="translate(5.004 60.653)">
              <g id="Grupo_1180466" data-name="Grupo 1180466" transform="translate(0 0)">
                <g id="Grupo_1180457" data-name="Grupo 1180457" transform="translate(0)">
                  <circle id="Elipse_13799" data-name="Elipse 13799" cx="20.898" cy="20.898" r="20.898" transform="translate(0 9.847) rotate(-13.626)" fill="#d2ddff"/>
                  <path id="Trazado_1004535" data-name="Trazado 1004535" d="M89.653,276.458a21.26,21.26,0,1,1,21.26-21.26A21.284,21.284,0,0,1,89.653,276.458Zm0-41.8A20.536,20.536,0,1,0,110.189,255.2,20.559,20.559,0,0,0,89.653,234.662Z" transform="translate(-64.425 -229.966)" fill="#fff"/>
                </g>
                <g id="Grupo_1180461" data-name="Grupo 1180461" transform="translate(0)">
                  <g id="Grupo_1180458" data-name="Grupo 1180458">
                    <circle id="Elipse_13800" data-name="Elipse 13800" cx="20.898" cy="20.898" r="20.898" transform="translate(0 9.847) rotate(-13.626)" fill="#d2ddff"/>
                    <path id="Trazado_1004536" data-name="Trazado 1004536" d="M89.653,276.458a21.26,21.26,0,1,1,21.26-21.26A21.284,21.284,0,0,1,89.653,276.458Zm0-41.8A20.536,20.536,0,1,0,110.189,255.2,20.559,20.559,0,0,0,89.653,234.662Z" transform="translate(-64.425 -229.966)" fill="#fff"/>
                  </g>
                  <g id="Grupo_1180459" data-name="Grupo 1180459" transform="translate(0.479 0.483)">
                    <path id="Trazado_1004537" data-name="Trazado 1004537" d="M103.823,265.865a2.882,2.882,0,0,0-.912-.6,24.446,24.446,0,1,0-3.812,3.684,2.874,2.874,0,0,0,.68,1.047l2.449,2.4,4.087-4.087Zm-19.677,4.723a20.9,20.9,0,1,1,20.9-20.9A20.9,20.9,0,0,1,84.146,270.588Z" transform="translate(-59.397 -224.941)" fill="#d2ddff"/>
                    <path id="Trazado_1004538" data-name="Trazado 1004538" d="M83.507,273.8a24.752,24.752,0,1,1,19.33-9.3,3.209,3.209,0,0,1,.6.463h0l2.753,2.7-4.6,4.6-2.705-2.65a3.2,3.2,0,0,1-.565-.744A24.487,24.487,0,0,1,83.507,273.8Zm0-48.774a24.025,24.025,0,1,0,0,48.05,23.785,23.785,0,0,0,14.731-5.053l.388-.3.173.46a2.5,2.5,0,0,0,.595.915l2.194,2.148,3.574-3.575-2.23-2.185h0a2.528,2.528,0,0,0-.8-.527l-.453-.189.313-.377a24.024,24.024,0,0,0-18.487-39.367Zm0,45.285a21.26,21.26,0,1,1,21.26-21.26A21.284,21.284,0,0,1,83.507,270.312Zm0-41.8a20.536,20.536,0,1,0,20.536,20.536A20.559,20.559,0,0,0,83.507,228.516Z" transform="translate(-58.758 -224.303)" fill="#fff"/>
                  </g>
                  <g id="Grupo_1180460" data-name="Grupo 1180460" transform="translate(42.596 42.781)">
                    <path id="Trazado_1004539" data-name="Trazado 1004539" d="M185.251,345.561,182,342.314a.71.71,0,0,0-1,0l-.5.5-4.087,4.087-.146.146a.71.71,0,0,0,0,1l3.247,3.247a.71.71,0,0,0,1,0l4.731-4.731A.71.71,0,0,0,185.251,345.561Z" transform="translate(-175.7 -341.745)" fill="#d2ddff"/>
                    <path id="Trazado_1004540" data-name="Trazado 1004540" d="M179.381,351.229a1.068,1.068,0,0,1-.758-.314l-3.247-3.247a1.073,1.073,0,0,1,0-1.516l4.731-4.731a1.073,1.073,0,0,1,1.515,0l3.247,3.247a1.072,1.072,0,0,1,0,1.516l-4.73,4.731A1.066,1.066,0,0,1,179.381,351.229Zm1.484-9.4a.349.349,0,0,0-.246.1l-4.731,4.731a.348.348,0,0,0,0,.491l3.247,3.247a.355.355,0,0,0,.491,0l4.73-4.731a.348.348,0,0,0,0-.492l-3.247-3.247A.347.347,0,0,0,180.865,341.832Z" transform="translate(-175.063 -341.108)" fill="#fff"/>
                  </g>
                </g>
                <g id="Grupo_1180462" data-name="Grupo 1180462" transform="translate(43.966 44.012)">
                  <path id="Trazado_1004541" data-name="Trazado 1004541" d="M203.374,362.911,186.2,345.551c-.127-.128-.775.344-1.61,1.08a41.324,41.324,0,0,0-4.034,4.138c-.5.614-.785,1.065-.678,1.173l17.173,17.36a4.437,4.437,0,0,0,6.323,0A4.554,4.554,0,0,0,203.374,362.911Z" transform="translate(-179.491 -345.16)" fill="#d2ddff"/>
                  <path id="Trazado_1004542" data-name="Trazado 1004542" d="M199.569,370.336a4.776,4.776,0,0,1-3.419-1.431l-17.173-17.36c-.321-.324-.031-.812.655-1.656a41.411,41.411,0,0,1,4.076-4.181c1.435-1.266,1.823-1.351,2.106-1.063L202.988,362a4.923,4.923,0,0,1,0,6.9A4.777,4.777,0,0,1,199.569,370.336Zm-19.956-19.179L196.665,368.4a4.076,4.076,0,0,0,5.808,0,4.2,4.2,0,0,0,0-5.882l-17.045-17.231a8.1,8.1,0,0,0-1.241.967,41.155,41.155,0,0,0-3.993,4.1A5.391,5.391,0,0,0,179.613,351.158Zm5.686-6h0Z" transform="translate(-178.846 -344.508)" fill="#fff"/>
                </g>
                <g id="Grupo_1180463" data-name="Grupo 1180463" transform="translate(63.952 63.641)">
                  <circle id="Elipse_13801" data-name="Elipse 13801" cx="1.267" cy="1.267" r="1.267" transform="translate(0.362 0.362)" fill="#d2ddff"/>
                  <path id="Trazado_1004543" data-name="Trazado 1004543" d="M235.669,401.972a1.63,1.63,0,1,1,1.63-1.63A1.632,1.632,0,0,1,235.669,401.972Zm0-2.535a.905.905,0,1,0,.905.905A.906.906,0,0,0,235.669,399.437Z" transform="translate(-234.039 -398.713)" fill="#fff"/>
                </g>
                <g id="Grupo_1180464" data-name="Grupo 1180464" transform="translate(49.744 47.175)">
                  <line id="Línea_3322" data-name="Línea 3322" x2="11.375" y2="11.375" transform="translate(0.362 0.362)" fill="#d2ddff"/>
                  <path id="Trazado_1004544" data-name="Trazado 1004544" d="M206.541,365.341a.361.361,0,0,1-.256-.106L194.91,353.86a.362.362,0,0,1,.512-.512L206.8,364.723a.362.362,0,0,1-.256.618Z" transform="translate(-194.804 -353.242)" fill="#fff"/>
                </g>
                <g id="Grupo_1180465" data-name="Grupo 1180465" transform="translate(16.9 8.685)">
                  <path id="Trazado_1004545" data-name="Trazado 1004545" d="M105.1,249.659s11.922-6.093,21.122,4.242" transform="translate(-104.742 -247.541)" fill="#d2ddff"/>
                  <path id="Trazado_1004546" data-name="Trazado 1004546" d="M125.589,253.676a.361.361,0,0,1-.271-.121c-8.91-10.01-20.57-4.22-20.687-4.16a.362.362,0,0,1-.33-.645c.122-.062,12.278-6.1,21.558,4.324a.363.363,0,0,1-.271.6Z" transform="translate(-104.104 -246.954)" fill="#fff"/>
                </g>
              </g>
            </g>
            <g id="Grupo_1180469" data-name="Grupo 1180469" transform="translate(45.061 38.093)">
              <g id="Grupo_1180468" data-name="Grupo 1180468">
                <path id="Trazado_1004547" data-name="Trazado 1004547" d="M189.849,163.316l-1.575,2.159a1.505,1.505,0,0,1-1.631.559q-.422-.121-.85-.205a1.513,1.513,0,0,1-1.208-1.246l-.414-2.641a1.5,1.5,0,0,0-1.719-1.253l-2.347.368a1.5,1.5,0,0,0-1.253,1.719l.414,2.641a1.513,1.513,0,0,1-.769,1.555q-.381.211-.746.456a1.5,1.5,0,0,1-1.723-.034l-2.159-1.575a1.5,1.5,0,0,0-2.1.33l-1.4,1.92a1.5,1.5,0,0,0,.33,2.1l2.16,1.575a1.505,1.505,0,0,1,.559,1.631q-.121.422-.205.85a1.513,1.513,0,0,1-1.246,1.208l-2.641.414a1.5,1.5,0,0,0-1.254,1.719l.368,2.347a1.5,1.5,0,0,0,1.719,1.253l2.641-.414a1.514,1.514,0,0,1,1.555.769q.211.381.456.746a1.5,1.5,0,0,1-.034,1.723l-1.575,2.16a1.5,1.5,0,0,0,.33,2.1l1.92,1.4a1.5,1.5,0,0,0,2.1-.33l1.575-2.159a1.505,1.505,0,0,1,1.631-.559q.422.121.85.205a1.513,1.513,0,0,1,1.208,1.246l.414,2.641a1.5,1.5,0,0,0,1.719,1.253l2.347-.368a1.5,1.5,0,0,0,1.253-1.719l-.414-2.641a1.514,1.514,0,0,1,.769-1.555q.381-.211.746-.456a1.5,1.5,0,0,1,1.723.034l2.16,1.575a1.5,1.5,0,0,0,2.1-.33l1.4-1.92a1.5,1.5,0,0,0-.33-2.1l-2.159-1.575a1.505,1.505,0,0,1-.56-1.631q.121-.422.205-.85a1.513,1.513,0,0,1,1.246-1.208l2.641-.414a1.5,1.5,0,0,0,1.253-1.719l-.368-2.347a1.5,1.5,0,0,0-1.719-1.254l-2.641.414a1.514,1.514,0,0,1-1.555-.769q-.211-.381-.456-.746a1.5,1.5,0,0,1,.034-1.723l1.575-2.16a1.5,1.5,0,0,0-.33-2.1l-1.92-1.4A1.505,1.505,0,0,0,189.849,163.316Zm.356,17.746a8.051,8.051,0,1,1-1.762-11.248A8.051,8.051,0,0,1,190.205,181.062Z" transform="translate(-168.052 -160.671)" fill="#fff"/>
              </g>
            </g>
            <g id="Grupo_1180470" data-name="Grupo 1180470" transform="translate(213.708 45.355)">
              <path id="Trazado_1004548" data-name="Trazado 1004548" d="M650.789,212.746a1.869,1.869,0,0,1-1.84-1.578l-.414-2.641a1.156,1.156,0,0,0-.92-.947c-.3-.059-.593-.13-.879-.213a1.15,1.15,0,0,0-1.238.425l-1.574,2.16a1.866,1.866,0,0,1-2.608.408l-1.92-1.4a1.869,1.869,0,0,1-.409-2.608l1.575-2.16a1.147,1.147,0,0,0,.025-1.309c-.167-.249-.325-.508-.471-.771a1.156,1.156,0,0,0-1.183-.587l-2.64.414a1.867,1.867,0,0,1-2.133-1.555l-.368-2.347a1.867,1.867,0,0,1,1.555-2.133l2.64-.414a1.157,1.157,0,0,0,.947-.921c.058-.3.13-.591.212-.879a1.147,1.147,0,0,0-.424-1.238l-2.16-1.575a1.865,1.865,0,0,1-.408-2.608l1.4-1.92a1.87,1.87,0,0,1,2.608-.409l2.159,1.575a1.147,1.147,0,0,0,1.309.025c.248-.166.508-.325.771-.471a1.156,1.156,0,0,0,.587-1.183l-.414-2.641a1.867,1.867,0,0,1,1.555-2.133l2.347-.368a1.866,1.866,0,0,1,2.134,1.555l.414,2.641a1.156,1.156,0,0,0,.92.946c.294.058.589.13.879.213a1.146,1.146,0,0,0,1.238-.424l1.575-2.16a1.866,1.866,0,0,1,2.608-.408l1.92,1.4a1.869,1.869,0,0,1,.408,2.608L659,189.276a1.148,1.148,0,0,0-.025,1.309c.166.248.324.507.471.771a1.159,1.159,0,0,0,1.183.587l2.64-.414a1.866,1.866,0,0,1,2.133,1.555l.368,2.347a1.867,1.867,0,0,1-1.555,2.133l-2.64.414a1.158,1.158,0,0,0-.947.921c-.058.3-.13.591-.212.879a1.147,1.147,0,0,0,.424,1.238l2.16,1.575a1.865,1.865,0,0,1,.408,2.608l-1.4,1.919a1.867,1.867,0,0,1-2.608.409l-2.16-1.575a1.148,1.148,0,0,0-1.309-.025c-.247.165-.507.324-.771.471a1.155,1.155,0,0,0-.587,1.182l.414,2.641a1.869,1.869,0,0,1-1.555,2.133l-2.347.368A1.963,1.963,0,0,1,650.789,212.746Zm-4.364-6.146a1.857,1.857,0,0,1,.51.071c.267.077.543.143.821.2a1.883,1.883,0,0,1,1.495,1.545l.414,2.64a1.142,1.142,0,0,0,1.305.952l2.347-.368a1.144,1.144,0,0,0,.952-1.305l-.414-2.641a1.884,1.884,0,0,1,.951-1.928c.247-.137.49-.285.72-.44a1.874,1.874,0,0,1,2.138.042l2.16,1.575a1.145,1.145,0,0,0,1.6-.25l1.4-1.92a1.143,1.143,0,0,0-.25-1.6l-2.16-1.575a1.874,1.874,0,0,1-.694-2.022c.077-.268.143-.545.2-.821a1.884,1.884,0,0,1,1.545-1.495l2.64-.414a1.142,1.142,0,0,0,.952-1.305l-.368-2.347a1.143,1.143,0,0,0-1.305-.952l-2.64.414a1.882,1.882,0,0,1-1.928-.951c-.137-.247-.285-.489-.44-.72a1.874,1.874,0,0,1,.042-2.138l1.574-2.16a1.145,1.145,0,0,0-.25-1.6l-1.92-1.4a1.142,1.142,0,0,0-1.6.25h0l-1.575,2.159a1.873,1.873,0,0,1-2.023.694c-.27-.077-.547-.144-.821-.2a1.884,1.884,0,0,1-1.495-1.545l-.414-2.641a1.143,1.143,0,0,0-1.305-.952l-2.347.368a1.142,1.142,0,0,0-.951,1.305l.414,2.641a1.884,1.884,0,0,1-.951,1.928c-.246.136-.488.284-.72.44a1.874,1.874,0,0,1-2.138-.042l-2.159-1.575a1.145,1.145,0,0,0-1.6.25l-1.4,1.92a1.143,1.143,0,0,0,.25,1.6l2.16,1.575a1.875,1.875,0,0,1,.694,2.023c-.077.268-.143.545-.2.821a1.884,1.884,0,0,1-1.545,1.495l-2.64.414a1.142,1.142,0,0,0-.952,1.305l.368,2.347a1.142,1.142,0,0,0,1.305.952l2.641-.414a1.883,1.883,0,0,1,1.928.951c.137.245.285.488.44.721a1.874,1.874,0,0,1-.042,2.138l-1.575,2.159a1.144,1.144,0,0,0,.25,1.6l1.92,1.4a1.143,1.143,0,0,0,1.6-.25l1.575-2.16A1.871,1.871,0,0,1,646.425,206.6Zm9.5-22.869h0Zm-6.16,21.413a8.408,8.408,0,1,1,6.809-3.453A8.365,8.365,0,0,1,649.768,205.145Zm.027-16.1a7.807,7.807,0,0,0-1.206.094,7.653,7.653,0,1,0,1.206-.094Z" transform="translate(-633.768 -180.724)" fill="#fff"/>
            </g>
            <g id="Grupo_1180471" data-name="Grupo 1180471" transform="translate(106.489 37.73)">
              <path id="Trazado_1004549" data-name="Trazado 1004549" d="M354.7,191.69a1.868,1.868,0,0,1-1.84-1.578l-.414-2.641a1.157,1.157,0,0,0-.92-.946c-.294-.058-.59-.13-.879-.213a1.147,1.147,0,0,0-1.239.425l-1.575,2.159a1.868,1.868,0,0,1-2.608.408l-1.92-1.4a1.868,1.868,0,0,1-.409-2.608l1.575-2.16a1.148,1.148,0,0,0,.025-1.309c-.168-.252-.327-.512-.471-.772a1.156,1.156,0,0,0-1.183-.587l-2.64.414a1.867,1.867,0,0,1-2.134-1.555l-.368-2.347a1.867,1.867,0,0,1,1.555-2.133l2.641-.414a1.157,1.157,0,0,0,.947-.921c.058-.293.129-.588.212-.878a1.146,1.146,0,0,0-.424-1.238l-2.16-1.575a1.869,1.869,0,0,1-.409-2.608l1.4-1.92a1.866,1.866,0,0,1,2.608-.408l2.16,1.575a1.147,1.147,0,0,0,1.309.025c.25-.167.509-.325.772-.471a1.157,1.157,0,0,0,.587-1.183l-.414-2.64a1.869,1.869,0,0,1,1.555-2.133l2.348-.368a1.867,1.867,0,0,1,2.133,1.555l.414,2.641a1.157,1.157,0,0,0,.921.946c.294.058.59.13.878.213a1.147,1.147,0,0,0,1.238-.424l1.575-2.16a1.869,1.869,0,0,1,2.608-.408l1.92,1.4a1.865,1.865,0,0,1,.408,2.608l-1.575,2.159a1.147,1.147,0,0,0-.025,1.309c.166.248.324.508.471.771a1.157,1.157,0,0,0,1.183.587l2.64-.414a1.867,1.867,0,0,1,2.134,1.555l.368,2.347a1.869,1.869,0,0,1-1.556,2.133l-2.64.414a1.157,1.157,0,0,0-.947.921c-.058.292-.129.588-.212.879a1.147,1.147,0,0,0,.424,1.238l2.159,1.575a1.869,1.869,0,0,1,.409,2.608l-1.4,1.92a1.866,1.866,0,0,1-2.608.409l-2.16-1.575a1.147,1.147,0,0,0-1.309-.025c-.25.167-.51.326-.772.471a1.157,1.157,0,0,0-.587,1.183l.414,2.641a1.866,1.866,0,0,1-1.556,2.133l-2.347.368A1.782,1.782,0,0,1,354.7,191.69Zm-4.364-6.146a1.846,1.846,0,0,1,.511.072c.27.077.546.144.821.2a1.884,1.884,0,0,1,1.5,1.545L353.58,190a1.142,1.142,0,0,0,1.305.952l2.347-.368a1.142,1.142,0,0,0,.952-1.305l-.414-2.641a1.884,1.884,0,0,1,.951-1.928c.244-.136.487-.284.721-.44a1.874,1.874,0,0,1,2.138.042l2.16,1.575a1.143,1.143,0,0,0,1.6-.25l1.4-1.92a1.144,1.144,0,0,0-.25-1.6l-2.159-1.575a1.875,1.875,0,0,1-.695-2.023c.078-.272.144-.548.2-.821a1.884,1.884,0,0,1,1.545-1.495l2.64-.414a1.144,1.144,0,0,0,.952-1.305l-.368-2.347a1.144,1.144,0,0,0-1.306-.952l-2.64.414a1.881,1.881,0,0,1-1.928-.951c-.137-.246-.285-.489-.44-.721a1.876,1.876,0,0,1,.042-2.138l1.575-2.16a1.143,1.143,0,0,0-.25-1.6l-1.92-1.4a1.145,1.145,0,0,0-1.6.25h0l-1.575,2.159a1.875,1.875,0,0,1-2.022.694c-.27-.077-.546-.144-.821-.2a1.885,1.885,0,0,1-1.5-1.545l-.414-2.641a1.144,1.144,0,0,0-1.305-.952l-2.347.368a1.143,1.143,0,0,0-.952,1.305l.414,2.641a1.885,1.885,0,0,1-.951,1.928c-.245.136-.487.284-.721.44a1.873,1.873,0,0,1-2.138-.042l-2.16-1.575a1.143,1.143,0,0,0-1.6.25l-1.4,1.92a1.144,1.144,0,0,0,.25,1.6l2.16,1.575a1.875,1.875,0,0,1,.695,2.023c-.078.271-.144.547-.2.821a1.884,1.884,0,0,1-1.545,1.495l-2.64.414a1.142,1.142,0,0,0-.952,1.305l.368,2.347a1.145,1.145,0,0,0,1.305.952l2.64-.414a1.882,1.882,0,0,1,1.928.951c.135.243.282.485.44.721a1.875,1.875,0,0,1-.042,2.138l-1.575,2.16a1.144,1.144,0,0,0,.25,1.6l1.92,1.4a1.144,1.144,0,0,0,1.6-.25l1.575-2.16A1.878,1.878,0,0,1,350.34,185.544Zm9.5-22.868h0Zm-6.16,21.413a8.41,8.41,0,1,1,6.809-3.453h0A8.407,8.407,0,0,1,353.683,184.089Zm.021-16.095a7.687,7.687,0,1,0,6.2,12.215h0a7.684,7.684,0,0,0-6.2-12.215Zm6.495,12.428h0Z" transform="translate(-337.683 -159.668)" fill="#fff"/>
            </g>
            <g id="Grupo_1180485" data-name="Grupo 1180485" transform="translate(138.618)">
              <g id="Grupo_1180484" data-name="Grupo 1180484">
                <g id="Grupo_1180482" data-name="Grupo 1180482">
                  <path id="Trazado_1004550" data-name="Trazado 1004550" d="M448.978,204.253a2.723,2.723,0,0,1-.521-.05l-3.68-.714a2.735,2.735,0,0,1-2.164-3.206l.8-4.139a2.021,2.021,0,0,0-.938-2.105c-.4-.242-.8-.5-1.175-.777a2.035,2.035,0,0,0-2.322-.05l-3.495,2.359a2.736,2.736,0,0,1-3.8-.737l-2.1-3.106a2.736,2.736,0,0,1,.737-3.8l3.494-2.359a2.036,2.036,0,0,0,.822-2.172c-.112-.453-.207-.917-.281-1.38a2.02,2.02,0,0,0-1.6-1.657l-4.139-.8a2.735,2.735,0,0,1-2.164-3.206l.714-3.68a2.738,2.738,0,0,1,3.206-2.165l4.139.8a2.018,2.018,0,0,0,2.105-.937c.242-.4.5-.8.777-1.175a2.036,2.036,0,0,0,.05-2.322l-2.36-3.495a2.739,2.739,0,0,1,.737-3.8l3.106-2.1a2.735,2.735,0,0,1,3.8.737l2.36,3.494a2.036,2.036,0,0,0,2.172.822c.453-.112.917-.207,1.381-.281a2.019,2.019,0,0,0,1.656-1.6l.8-4.139a2.735,2.735,0,0,1,3.206-2.165l3.679.714a2.739,2.739,0,0,1,2.164,3.207l-.8,4.139a2.02,2.02,0,0,0,.938,2.105c.4.243.8.5,1.175.777a2.036,2.036,0,0,0,2.322.05l3.495-2.359a2.736,2.736,0,0,1,3.8.737l2.1,3.106a2.735,2.735,0,0,1-.737,3.8l-3.495,2.359a2.036,2.036,0,0,0-.822,2.172c.112.453.207.918.281,1.38a2.019,2.019,0,0,0,1.6,1.656l4.139.8a2.735,2.735,0,0,1,2.164,3.207l-.714,3.68a2.737,2.737,0,0,1-3.206,2.164l-4.139-.8a2.019,2.019,0,0,0-2.106.937c-.24.4-.5.794-.777,1.175a2.035,2.035,0,0,0-.05,2.322l2.359,3.494a2.735,2.735,0,0,1-.737,3.8l-3.106,2.1a2.736,2.736,0,0,1-3.8-.737l-2.359-3.494a2.036,2.036,0,0,0-2.172-.822c-.453.112-.917.206-1.381.281a2.02,2.02,0,0,0-1.657,1.6l-.8,4.139A2.74,2.74,0,0,1,448.978,204.253ZM440.1,192.148a2.778,2.778,0,0,1,1.627.526c.363.262.742.512,1.125.744a2.747,2.747,0,0,1,1.274,2.864l-.8,4.139a2.012,2.012,0,0,0,1.592,2.357l3.68.714a2.014,2.014,0,0,0,2.357-1.592l.8-4.139a2.746,2.746,0,0,1,2.252-2.179c.444-.071.888-.162,1.322-.269a2.764,2.764,0,0,1,2.946,1.119l2.359,3.495a2.011,2.011,0,0,0,2.792.541l3.106-2.1a2.013,2.013,0,0,0,.541-2.792l-2.359-3.494a2.762,2.762,0,0,1,.064-3.151c.264-.365.513-.743.744-1.125a2.75,2.75,0,0,1,2.864-1.274l4.139.8a2.013,2.013,0,0,0,2.358-1.592l.714-3.68a2.012,2.012,0,0,0-1.592-2.357l-4.139-.8a2.747,2.747,0,0,1-2.18-2.252c-.071-.443-.162-.888-.269-1.322a2.762,2.762,0,0,1,1.119-2.946l3.495-2.359a2.013,2.013,0,0,0,.542-2.792l-2.1-3.106a2.011,2.011,0,0,0-2.792-.542l-3.495,2.359a2.761,2.761,0,0,1-3.151-.063c-.362-.261-.74-.512-1.125-.744a2.746,2.746,0,0,1-1.274-2.863l.8-4.139a2.014,2.014,0,0,0-1.592-2.357l-3.68-.714a2.011,2.011,0,0,0-2.357,1.592l-.8,4.139a2.747,2.747,0,0,1-2.252,2.18c-.444.072-.888.162-1.322.269a2.762,2.762,0,0,1-2.946-1.12l-2.36-3.494a2.011,2.011,0,0,0-2.792-.542l-3.106,2.1a2.014,2.014,0,0,0-.542,2.793l2.36,3.494a2.762,2.762,0,0,1-.064,3.151c-.262.363-.512.742-.745,1.125a2.745,2.745,0,0,1-2.863,1.274l-4.139-.8a2.014,2.014,0,0,0-2.358,1.592l-.714,3.68a2.012,2.012,0,0,0,1.592,2.357l4.139.8a2.747,2.747,0,0,1,2.18,2.252c.071.443.162.888.269,1.322a2.761,2.761,0,0,1-1.119,2.946l-3.494,2.359a2.01,2.01,0,0,0-.542,2.792l2.1,3.106a2.013,2.013,0,0,0,2.792.541l3.495-2.359A2.721,2.721,0,0,1,440.1,192.148Zm11.31.2a13.2,13.2,0,0,1-2.515-.243,13,13,0,1,1,2.515.243Zm-.053-25.407a12.34,12.34,0,0,0-2.323,24.454h0a12.338,12.338,0,1,0,4.7-24.224A12.444,12.444,0,0,0,451.356,166.936Z" transform="translate(-426.407 -118.514)" fill="#fff"/>
                  <g id="Grupo_1180481" data-name="Grupo 1180481" transform="translate(41.218)">
                    <g id="Grupo_1180472" data-name="Grupo 1180472">
                      <path id="Trazado_1004551" data-name="Trazado 1004551" d="M584.771,78.248a21.77,21.77,0,1,0-35.225,17.109,4.7,4.7,0,0,1,1.826,3.681V105A4.634,4.634,0,0,0,556,109.638H570A4.633,4.633,0,0,0,574.629,105V99.04a4.69,4.69,0,0,1,1.82-3.68A21.722,21.722,0,0,0,584.771,78.248Z" transform="translate(-540.868 -56.115)" fill="#d2ddff"/>
                      <path id="Trazado_1004552" data-name="Trazado 1004552" d="M569.358,109.363H555.367a5,5,0,0,1-5-5V98.4a4.318,4.318,0,0,0-1.687-3.4,22.23,22.23,0,0,1-8.438-18.247A22.213,22.213,0,0,1,562.02,55.48l.346,0a22.128,22.128,0,0,1,13.67,39.53,4.312,4.312,0,0,0-1.682,3.4v5.965A5,5,0,0,1,569.358,109.363ZM562.366,56.2l-.335,0a21.4,21.4,0,0,0-12.9,38.23A5.038,5.038,0,0,1,551.1,98.4v5.968a4.276,4.276,0,0,0,4.272,4.271h13.991a4.276,4.276,0,0,0,4.272-4.271V98.4a5.032,5.032,0,0,1,1.958-3.965A21.4,21.4,0,0,0,562.366,56.2Z" transform="translate(-540.231 -55.477)" fill="#fff"/>
                    </g>
                    <g id="Grupo_1180475" data-name="Grupo 1180475" transform="translate(11.411 23.493)">
                      <g id="Grupo_1180473" data-name="Grupo 1180473">
                        <path id="Trazado_1004553" data-name="Trazado 1004553" d="M578.49,150.6V123.8a2.386,2.386,0,0,0-2.317-2.45h-1.115a2.387,2.387,0,0,0-2.317,2.45h0a2.386,2.386,0,0,0,2.317,2.45H583.1" transform="translate(-572.38 -120.991)" fill="#d2ddff"/>
                        <path id="Trazado_1004554" data-name="Trazado 1004554" d="M577.853,150.321a.362.362,0,0,1-.362-.362v-23.98h-3.069a2.816,2.816,0,0,1,0-5.625h1.114a2.751,2.751,0,0,1,2.679,2.813v2.088h4.248a.362.362,0,0,1,0,.724h-4.248v23.98A.362.362,0,0,1,577.853,150.321Zm-3.431-29.243a2.093,2.093,0,0,0,0,4.177h3.069v-2.088a2.027,2.027,0,0,0-1.955-2.088h-1.115Z" transform="translate(-571.743 -120.353)" fill="#fff"/>
                      </g>
                      <g id="Grupo_1180474" data-name="Grupo 1180474" transform="translate(10.359)">
                        <path id="Trazado_1004555" data-name="Trazado 1004555" d="M605.959,150.6V123.8a2.386,2.386,0,0,1,2.317-2.45h1.115a2.387,2.387,0,0,1,2.317,2.45h0a2.386,2.386,0,0,1-2.317,2.45h-8.042" transform="translate(-600.987 -120.991)" fill="#d2ddff"/>
                        <path id="Trazado_1004556" data-name="Trazado 1004556" d="M605.321,150.321a.362.362,0,0,1-.362-.362v-23.98H600.71a.362.362,0,0,1,0-.724h4.249v-2.088a2.751,2.751,0,0,1,2.679-2.813h1.114a2.816,2.816,0,0,1,0,5.625h-3.069v23.98A.362.362,0,0,1,605.321,150.321Zm.362-25.067h3.069a2.093,2.093,0,0,0,0-4.177h-1.114a2.027,2.027,0,0,0-1.954,2.088v2.088Z" transform="translate(-600.348 -120.353)" fill="#fff"/>
                      </g>
                    </g>
                    <g id="Grupo_1180476" data-name="Grupo 1180476" transform="translate(16.592 56.623)">
                      <circle id="Elipse_13802" data-name="Elipse 13802" cx="4.611" cy="4.611" r="4.611" transform="translate(0 8.974) rotate(-76.714)" fill="#d2ddff"/>
                      <path id="Trazado_1004557" data-name="Trazado 1004557" d="M592.59,223.329a4.973,4.973,0,1,1,4.973-4.973A4.978,4.978,0,0,1,592.59,223.329Zm0-9.222a4.248,4.248,0,1,0,4.249,4.248A4.253,4.253,0,0,0,592.59,214.108Z" transform="translate(-587.049 -212.825)" fill="#fff"/>
                    </g>
                    <g id="Grupo_1180477" data-name="Grupo 1180477" transform="translate(12.936 52.737)">
                      <path id="Trazado_1004558" data-name="Trazado 1004558" d="M594.259,205.462H577.315a.362.362,0,0,1-.362-.362v-2.631a.362.362,0,0,1,.362-.362h16.944a.362.362,0,0,1,.362.362V205.1A.362.362,0,0,1,594.259,205.462Z" transform="translate(-576.591 -201.745)" fill="#d2ddff"/>
                      <path id="Trazado_1004559" data-name="Trazado 1004559" d="M593.621,205.187H576.677a.725.725,0,0,1-.724-.724v-2.631a.725.725,0,0,1,.724-.724h16.944a.725.725,0,0,1,.724.724v2.631A.725.725,0,0,1,593.621,205.187Zm-16.944-3.355v2.631h16.944v-2.631Z" transform="translate(-575.953 -201.108)" fill="#fff"/>
                    </g>
                    <g id="Grupo_1180478" data-name="Grupo 1180478" transform="translate(13.229 56.091)">
                      <path id="Trazado_1004560" data-name="Trazado 1004560" d="M594.483,214.727H578.125a.362.362,0,0,1-.362-.362v-2.631a.362.362,0,0,1,.362-.362h16.358a.362.362,0,0,1,.362.362v2.631A.362.362,0,0,1,594.483,214.727Z" transform="translate(-577.401 -211.01)" fill="#d2ddff"/>
                      <path id="Trazado_1004561" data-name="Trazado 1004561" d="M593.844,214.451H577.486a.725.725,0,0,1-.724-.724V211.1a.725.725,0,0,1,.724-.724h16.358a.725.725,0,0,1,.724.724v2.631A.725.725,0,0,1,593.844,214.451ZM577.486,211.1v2.631h16.359V211.1Z" transform="translate(-576.762 -210.372)" fill="#fff"/>
                    </g>
                    <g id="Grupo_1180479" data-name="Grupo 1180479" transform="translate(14.275 59.446)">
                      <path id="Trazado_1004562" data-name="Trazado 1004562" d="M595.35,223.569H580.941a.291.291,0,0,1-.291-.291v-2.351a.291.291,0,0,1,.291-.291H595.35a.291.291,0,0,1,.291.291v2.351A.291.291,0,0,1,595.35,223.569Z" transform="translate(-580.288 -220.274)" fill="#d2ddff"/>
                      <path id="Trazado_1004563" data-name="Trazado 1004563" d="M594.712,223.294H580.3a.654.654,0,0,1-.653-.653V220.29a.654.654,0,0,1,.653-.653h14.409a.654.654,0,0,1,.653.653v2.351A.654.654,0,0,1,594.712,223.294Zm-14.338-.724h14.266v-2.208H580.374Z" transform="translate(-579.65 -219.637)" fill="#fff"/>
                    </g>
                    <g id="Grupo_1180480" data-name="Grupo 1180480" transform="translate(4.343 8.629)">
                      <path id="Trazado_1004564" data-name="Trazado 1004564" d="M558.61,80.306s-7.433,6.371-4.86,17.952" transform="translate(-552.852 -79.944)" fill="#d2ddff"/>
                      <path id="Trazado_1004565" data-name="Trazado 1004565" d="M553.121,97.983a.363.363,0,0,1-.353-.284c-2.591-11.658,4.9-18.24,4.978-18.305a.362.362,0,0,1,.471.55c-.072.062-7.236,6.378-4.742,17.6a.361.361,0,0,1-.354.44Z" transform="translate(-552.224 -79.307)" fill="#fff"/>
                    </g>
                  </g>
                </g>
                <g id="Grupo_1180483" data-name="Grupo 1180483" transform="translate(39.417 69.819)" opacity="0.84">
                  <path id="Trazado_1004566" data-name="Trazado 1004566" d="M550.869,297.873l3.758,1.211a2.5,2.5,0,0,0,3.147-1.613l1.363-4.228a2.5,2.5,0,0,1,2.283-1.731q.729-.029,1.448-.117a2.515,2.515,0,0,1,2.554,1.338l2.026,3.954a2.5,2.5,0,0,0,3.366,1.085l3.514-1.8a2.5,2.5,0,0,0,1.085-3.366l-2.026-3.954a2.515,2.515,0,0,1,.4-2.855q.491-.532.941-1.107a2.5,2.5,0,0,1,2.739-.843l4.228,1.363a2.5,2.5,0,0,0,3.147-1.613l1.211-3.758a2.5,2.5,0,0,0-1.613-3.147l-4.228-1.363a2.5,2.5,0,0,1-1.731-2.283q-.029-.729-.117-1.448a2.515,2.515,0,0,1,1.338-2.554l3.954-2.026a2.5,2.5,0,0,0,1.085-3.366l-1.8-3.514a2.5,2.5,0,0,0-3.366-1.085l-3.954,2.026a2.515,2.515,0,0,1-2.855-.4q-.532-.492-1.107-.941a2.5,2.5,0,0,1-.843-2.739l1.363-4.228a2.5,2.5,0,0,0-1.613-3.147l-3.759-1.211a2.5,2.5,0,0,0-3.147,1.613l-1.363,4.228a2.5,2.5,0,0,1-2.283,1.731q-.729.029-1.448.117a2.515,2.515,0,0,1-2.554-1.338l-2.027-3.954a2.5,2.5,0,0,0-3.366-1.085l-3.514,1.8a2.5,2.5,0,0,0-1.085,3.366l2.026,3.954a2.515,2.515,0,0,1-.4,2.855q-.492.532-.941,1.107a2.5,2.5,0,0,1-2.739.843l-4.228-1.363a2.5,2.5,0,0,0-3.147,1.613l-1.211,3.759a2.5,2.5,0,0,0,1.613,3.147l4.228,1.363a2.5,2.5,0,0,1,1.731,2.283q.029.729.118,1.448a2.515,2.515,0,0,1-1.338,2.554l-3.954,2.026a2.5,2.5,0,0,0-1.085,3.366l1.8,3.514a2.5,2.5,0,0,0,3.366,1.085l3.954-2.026a2.515,2.515,0,0,1,2.855.4q.532.491,1.107.941a2.5,2.5,0,0,1,.843,2.739l-1.363,4.228A2.5,2.5,0,0,0,550.869,297.873Zm5.746-11.393a13.381,13.381,0,1,1,16.841-8.632A13.382,13.382,0,0,1,556.615,286.48Z" transform="translate(-535.257 -248.282)" fill="#fff"/>
                </g>
              </g>
            </g>
          </g>
          <g id="Grupo_1180489" data-name="Grupo 1180489">
            <g id="Grupo_1180487" data-name="Grupo 1180487" transform="translate(0 4.254)">
              <path id="Trazado_1004567" data-name="Trazado 1004567" d="M42.861,212.956a1.041,1.041,0,1,1,1.041-1.041A1.043,1.043,0,0,1,42.861,212.956Zm0-1.72a.679.679,0,1,0,.679.679A.68.68,0,0,0,42.861,211.235Z" transform="translate(-41.82 -150.98)" fill="#fff"/>
              <path id="Trazado_1004568" data-name="Trazado 1004568" d="M188.014,46.982a.751.751,0,1,1,.751-.751A.752.752,0,0,1,188.014,46.982Zm0-1.23a.479.479,0,1,0,.479.479A.48.48,0,0,0,188.014,45.752Z" transform="translate(-134.595 -45.48)" fill="#fff"/>
              <path id="Trazado_1004569" data-name="Trazado 1004569" d="M76.793,221.21a1.085,1.085,0,1,1-1.085-1.085A1.085,1.085,0,0,1,76.793,221.21Z" transform="translate(-62.745 -156.882)" fill="#121936"/>
              <path id="Trazado_1004570" data-name="Trazado 1004570" d="M163.02,74.743a.542.542,0,1,1-.542-.542A.543.543,0,0,1,163.02,74.743Z" transform="translate(-118.438 -63.8)" fill="#121936"/>
              <path id="Trazado_1004571" data-name="Trazado 1004571" d="M90.734,386.74a.542.542,0,1,1-.542-.542A.542.542,0,0,1,90.734,386.74Z" transform="translate(-72.329 -262.815)" fill="#121936"/>
              <path id="Trazado_1004572" data-name="Trazado 1004572" d="M201.6,256.02a.542.542,0,1,1-.542-.542A.543.543,0,0,1,201.6,256.02Z" transform="translate(-143.047 -179.432)" fill="#121936"/>
              <path id="Trazado_1004573" data-name="Trazado 1004573" d="M48.667,248.673a.8.8,0,1,1-.8-.8A.8.8,0,0,1,48.667,248.673Z" transform="translate(-45.169 -174.583)" fill="#fff"/>
              <path id="Trazado_1004574" data-name="Trazado 1004574" d="M135.1,403.582a1.124,1.124,0,0,1-.139-.009,1.037,1.037,0,1,1,.139.009Zm0-1.721a.68.68,0,1,0,.541.267h0a.676.676,0,0,0-.45-.26A.689.689,0,0,0,135.093,401.861Z" transform="translate(-100.653 -272.576)" fill="#fff"/>
              <path id="Trazado_1004575" data-name="Trazado 1004575" d="M163.508,372.528a1.085,1.085,0,1,1-1.521-.2A1.085,1.085,0,0,1,163.508,372.528Z" transform="translate(-118.201 -253.825)" fill="#121936"/>
              <path id="Trazado_1004576" data-name="Trazado 1004576" d="M211.989,66.206a.4.4,0,1,1-.4-.4A.4.4,0,0,1,211.989,66.206Z" transform="translate(-149.858 -58.446)" fill="#fff"/>
              <path id="Trazado_1004577" data-name="Trazado 1004577" d="M158.558,217.661a.4.4,0,1,1-.4-.4A.4.4,0,0,1,158.558,217.661Z" transform="translate(-115.776 -155.056)" fill="#fff"/>
              <path id="Trazado_1004578" data-name="Trazado 1004578" d="M115.131,432.894a.4.4,0,1,1-.4-.4A.4.4,0,0,1,115.131,432.894Z" transform="translate(-88.075 -292.348)" fill="#fff"/>
              <circle id="Elipse_13803" data-name="Elipse 13803" cx="1.098" cy="1.098" r="1.098" transform="translate(32.434 3.185)" fill="#fff"/>
              <circle id="Elipse_13804" data-name="Elipse 13804" cx="1.098" cy="1.098" r="1.098" transform="translate(48.888 139.049)" fill="#fff"/>
            </g>
            <g id="Grupo_1180488" data-name="Grupo 1180488" transform="translate(112.163)">
              <path id="Trazado_1004579" data-name="Trazado 1004579" d="M689.7,132.594a1.052,1.052,0,0,1-.207-.021,1.041,1.041,0,0,1-.373-1.888,1.041,1.041,0,1,1,.579,1.908Zm0-1.72a.679.679,0,0,0-.564,1.056h0a.679.679,0,0,0,.942.189.679.679,0,0,0-.378-1.245Z" transform="translate(-566.584 -95.466)" fill="#fff"/>
              <path id="Trazado_1004580" data-name="Trazado 1004580" d="M519,46.982a.751.751,0,1,1,.751-.751A.751.751,0,0,1,519,46.982Zm0-1.23a.479.479,0,1,0,.479.479A.48.48,0,0,0,519,45.752Z" transform="translate(-457.888 -41.226)" fill="#fff"/>
              <path id="Trazado_1004581" data-name="Trazado 1004581" d="M666.51,158.129a1.085,1.085,0,1,0,.3-1.5A1.085,1.085,0,0,0,666.51,158.129Z" transform="translate(-552.342 -112.006)" fill="#121936"/>
              <path id="Trazado_1004582" data-name="Trazado 1004582" d="M522.967,83.191a.542.542,0,1,0,.542-.542A.542.542,0,0,0,522.967,83.191Z" transform="translate(-460.895 -64.935)" fill="#121936"/>
              <path id="Trazado_1004583" data-name="Trazado 1004583" d="M390.018,146.544a.542.542,0,1,0,.542-.542A.543.543,0,0,0,390.018,146.544Z" transform="translate(-376.09 -105.346)" fill="#121936"/>
              <circle id="Elipse_13805" data-name="Elipse 13805" cx="1.166" cy="1.166" r="1.166" transform="translate(106.28 131.145)" fill="#121936"/>
              <path id="Trazado_1004584" data-name="Trazado 1004584" d="M687.169,292.291a.542.542,0,1,0,.542-.543A.543.543,0,0,0,687.169,292.291Z" transform="translate(-565.636 -198.314)" fill="#121936"/>
              <path id="Trazado_1004585" data-name="Trazado 1004585" d="M705.79,165.2a.8.8,0,1,0,.221-1.106A.8.8,0,0,0,705.79,165.2Z" transform="translate(-577.428 -116.801)" fill="#fff"/>
              <path id="Trazado_1004586" data-name="Trazado 1004586" d="M689.693,379.388a1.041,1.041,0,0,1-.825-1.674h0a1.041,1.041,0,1,1,.825,1.674Zm0-1.72a.688.688,0,0,0-.09.006.676.676,0,0,0-.45.26h0a.679.679,0,1,0,.54-.266Zm-.684.155h0Z" transform="translate(-566.582 -252.889)" fill="#fff"/>
              <path id="Trazado_1004587" data-name="Trazado 1004587" d="M474.9,44.331a.4.4,0,1,0,.4-.4A.4.4,0,0,0,474.9,44.331Z" transform="translate(-430.234 -40.238)" fill="#fff"/>
              <path id="Trazado_1004588" data-name="Trazado 1004588" d="M351.568,64.74a.542.542,0,1,0,.642-.419A.543.543,0,0,0,351.568,64.74Z" transform="translate(-351.557 -53.236)" fill="#121936"/>
              <path id="Trazado_1004589" data-name="Trazado 1004589" d="M368.723,34.049a.4.4,0,1,0,.472-.309A.4.4,0,0,0,368.723,34.049Z" transform="translate(-362.501 -33.732)" fill="#fff"/>
              <path id="Trazado_1004590" data-name="Trazado 1004590" d="M709.653,334.506a.4.4,0,1,0,.4-.4A.4.4,0,0,0,709.653,334.506Z" transform="translate(-579.978 -225.334)" fill="#fff"/>
              <path id="Trazado_1004591" data-name="Trazado 1004591" d="M675.6,93.025a.4.4,0,1,0,.4-.4A.4.4,0,0,0,675.6,93.025Z" transform="translate(-558.256 -71.299)" fill="#fff"/>
              <path id="Trazado_1004592" data-name="Trazado 1004592" d="M388.917,102.111a.4.4,0,1,0,.4-.4A.4.4,0,0,0,388.917,102.111Z" transform="translate(-375.388 -77.095)" fill="#fff"/>
              <path id="Trazado_1004593" data-name="Trazado 1004593" d="M627.01,242.523a.4.4,0,1,0,.4-.4A.4.4,0,0,0,627.01,242.523Z" transform="translate(-527.262 -166.66)" fill="#fff"/>
              <path id="Trazado_1004594" data-name="Trazado 1004594" d="M676.882,424.681a.4.4,0,1,0,.4-.4A.4.4,0,0,0,676.882,424.681Z" transform="translate(-559.074 -282.854)" fill="#fff"/>
              <path id="Trazado_1004595" data-name="Trazado 1004595" d="M549.485,40.066a1.1,1.1,0,1,0,1.1-1.1A1.1,1.1,0,0,0,549.485,40.066Z" transform="translate(-477.81 -37.072)" fill="#fff"/>
              <path id="Trazado_1004596" data-name="Trazado 1004596" d="M413.824,50.994a1.1,1.1,0,1,0,1.3-.849A1.1,1.1,0,0,0,413.824,50.994Z" transform="translate(-391.261 -44.186)" fill="#fff"/>
              <circle id="Elipse_13806" data-name="Elipse 13806" cx="1.098" cy="1.098" r="1.098" transform="translate(97.951 143.303)" fill="#fff"/>
            </g>
          </g>
        </g>
      </g>
      <g id="OBJECTS" transform="translate(47.346 27.164)">
        <g id="Grupo_1180516" data-name="Grupo 1180516" transform="translate(75.95)">
          <g id="Grupo_1180491" data-name="Grupo 1180491" transform="translate(0 57.896)">
            <path id="Trazado_1004597" data-name="Trazado 1004597" d="M418.263,235.317v0l-16.987-2.9L379.7,238.8l-9.214-3.4c-1.283.318-2.432.637-3.471.959h0s-33.274,5.317-29.267,34.763l18.595.445a14.507,14.507,0,0,0,.927,2.165l6.66,22.015h54.5l.506-17.961,16.539,10.644a3.238,3.238,0,0,0,4.978-2.424c.7-7.644,1.545-21.1,1.558-21.445C442.883,240.093,418.263,235.317,418.263,235.317Z" transform="translate(-337.414 -232.417)" fill="#5e80e6"/>
            <path id="Trazado_1004598" data-name="Trazado 1004598" d="M388.116,331.227a.363.363,0,0,1-.351-.272l-3.313-12.909a.362.362,0,1,1,.7-.18l3.313,12.909a.363.363,0,0,1-.261.441A.372.372,0,0,1,388.116,331.227Z" transform="translate(-367.411 -286.749)" fill="#121936"/>
            <path id="Trazado_1004599" data-name="Trazado 1004599" d="M546.189,322.538a.358.358,0,0,1-.22-.075l-10.16-7.816a5.016,5.016,0,0,1-2.215-3.684l-1.047-10.26a.362.362,0,0,1,.721-.074l1.047,10.26a4.31,4.31,0,0,0,1.915,3.168l10.18,7.831a.362.362,0,0,1-.221.65Z" transform="translate(-461.883 -275.721)" fill="#121936"/>
          </g>
          <g id="Grupo_1180514" data-name="Grupo 1180514" transform="translate(20.981)">
            <g id="Grupo_1180513" data-name="Grupo 1180513">
              <g id="Grupo_1180498" data-name="Grupo 1180498" transform="translate(2.778 14.079)">
                <g id="Grupo_1180497" data-name="Grupo 1180497">
                  <g id="Grupo_1180496" data-name="Grupo 1180496">
                    <g id="Grupo_1180495" data-name="Grupo 1180495">
                      <g id="Grupo_1180494" data-name="Grupo 1180494">
                        <g id="Grupo_1180493" data-name="Grupo 1180493">
                          <g id="Grupo_1180492" data-name="Grupo 1180492">
                            <path id="Trazado_1004600" data-name="Trazado 1004600" d="M435.787,123.845h0l-5.021-.175a6.016,6.016,0,0,0-5.627,3.437l.972-14.254s-5.023,2.909-11.616-.9c0,0-7.582-2.515-9.957,3.349-.006.058-.014.117-.018.175l-1.459,21.189A14.755,14.755,0,0,0,415.1,152.394l1.7,8.414a11.644,11.644,0,0,0,13.745,8.978l.262-.053c6.309-1.271,11.7-6.039,10.448-12.248l-4.96-20.6,1.163.04a6.562,6.562,0,0,0,6.766-6.311l.017-.48a6.027,6.027,0,0,0-5.783-6.2Z" transform="translate(-403.024 -111.417)" fill="#ffaa89"/>
                          </g>
                        </g>
                      </g>
                      <path id="Trazado_1004601" data-name="Trazado 1004601" d="M436.667,210.261s12.726-1.514,14.092-6.361h0s1.719,6.762-12.91,12.877Z" transform="translate(-424.484 -169.036)" fill="#ff6a48"/>
                    </g>
                    <path id="Trazado_1004602" data-name="Trazado 1004602" d="M503.085,163.08" transform="translate(-466.85 -144.372)" fill="none" stroke="#121936" stroke-linecap="round" stroke-linejoin="round" stroke-miterlimit="10" stroke-width="5"/>
                  </g>
                </g>
              </g>
              <g id="Grupo_1180499" data-name="Grupo 1180499">
                <path id="Trazado_1004603" data-name="Trazado 1004603" d="M489.578,185.695a10.576,10.576,0,0,1,.962-4.015l-5.526-.192Z" transform="translate(-452.545 -142.035)" fill="#121936"/>
                <path id="Trazado_1004604" data-name="Trazado 1004604" d="M431.264,84.155s3.443-6.007-5.766-10.343-12.6,3.8-12.6,3.8-1.1-7.454-12.244-3.843S399.4,91.194,399.4,91.194c.073-.243.157-.471.246-.691,2.375-5.864,9.957-3.349,9.957-3.349,6.593,3.809,11.616.9,11.616.9l-.863,12.656c-.374,2.53-.872,5.878-1.229,8.273a2.414,2.414,0,0,1-3.292,1.882l-7.976-3.213a2.42,2.42,0,0,0-1.2-.157l-6.3.783a2.416,2.416,0,0,0-2.111,2.209l-.474,6.042a11.345,11.345,0,0,0,11.563,12.229l3.518-.079a2.427,2.427,0,0,0,.7-.121l.884-.051a12.924,12.924,0,0,0,11.055-18.181h0a2.417,2.417,0,0,1-.449-1.5l.366-9.233a2.358,2.358,0,0,0-.082-.717c.18-.01.361-.015.544-.008l5.021.175,2.663.092a5.963,5.963,0,0,1,3.889,1.633,60.624,60.624,0,0,0,3.394-10.4C441.939,83.732,431.264,84.155,431.264,84.155Z" transform="translate(-395.352 -72.539)" fill="#121936"/>
              </g>
              <path id="Trazado_1004605" data-name="Trazado 1004605" d="M506.73,164.339" transform="translate(-466.397 -131.096)" fill="none" stroke="#ff6969" stroke-linecap="round" stroke-linejoin="round" stroke-miterlimit="10" stroke-width="5"/>
              <g id="Grupo_1180512" data-name="Grupo 1180512" transform="translate(0.839 19.078)">
                <path id="Trazado_1004606" data-name="Trazado 1004606" d="M498.078,161.772a.359.359,0,0,1-.2-.059l-2.1-1.37a.363.363,0,0,1-.072-.545l2.245-2.5a.362.362,0,1,1,.539.484l-1.962,2.183,1.746,1.139a.362.362,0,0,1-.2.665Z" transform="translate(-460.147 -145.608)" fill="#ff6a48"/>
                <g id="Grupo_1180501" data-name="Grupo 1180501" transform="translate(4.008 8.525)">
                  <path id="Trazado_1004607" data-name="Trazado 1004607" d="M409.5,149.844a1.364,1.364,0,1,0,1.618-1.05A1.364,1.364,0,0,0,409.5,149.844Z" transform="translate(-409.208 -148.764)" fill="#121936"/>
                  <path id="Trazado_1004608" data-name="Trazado 1004608" d="M436.6,150.143a1.364,1.364,0,1,0,1.351-1.377A1.364,1.364,0,0,0,436.6,150.143Z" transform="translate(-426.511 -148.765)" fill="#121936"/>
                  <g id="Grupo_1180500" data-name="Grupo 1180500" transform="translate(9.997 2.103)">
                    <path id="Trazado_1004609" data-name="Trazado 1004609" d="M439.75,155.988a1.943,1.943,0,0,0-2.406.01" transform="translate(-436.982 -155.206)" fill="#ffa386"/>
                    <path id="Trazado_1004610" data-name="Trazado 1004610" d="M436.707,155.725a.362.362,0,0,1-.222-.649,2.29,2.29,0,0,1,2.858,0,.362.362,0,0,1-.459.561,1.579,1.579,0,0,0-1.955.016A.363.363,0,0,1,436.707,155.725Z" transform="translate(-436.345 -154.572)" fill="#ff6a48"/>
                  </g>
                  <path id="Trazado_1004611" data-name="Trazado 1004611" d="M409.1,156.464a.362.362,0,0,1-.246-.628,2.085,2.085,0,0,1,2.724-.178.362.362,0,0,1-.443.573,1.358,1.358,0,0,0-1.789.137A.361.361,0,0,1,409.1,156.464Z" transform="translate(-408.737 -152.891)" fill="#ff6a48"/>
                </g>
                <path id="Trazado_1004612" data-name="Trazado 1004612" d="M402.245,146.127c-2.523,0-4.576-2.351-4.576-5.24s2.053-5.24,4.576-5.24,4.576,2.351,4.576,5.24S404.768,146.127,402.245,146.127Zm0-9.755c-2.124,0-3.852,2.026-3.852,4.516s1.728,4.516,3.852,4.516,3.852-2.026,3.852-4.516S404.368,136.372,402.245,136.372Z" transform="translate(-397.669 -131.873)" fill="#fff"/>
                <g id="Grupo_1180502" data-name="Grupo 1180502" transform="translate(6.012 6.398)">
                  <path id="Trazado_1004613" data-name="Trazado 1004613" d="M418.88,143.891v4.738h-2.462a1.145,1.145,0,0,0-1.145,1.145v.518a2.244,2.244,0,0,0,2.243,2.243h2.243" transform="translate(-414.91 -143.529)" fill="#ffaa89"/>
                  <path id="Trazado_1004614" data-name="Trazado 1004614" d="M419.121,152.261h-2.243a2.608,2.608,0,0,1-2.605-2.605v-.518a1.509,1.509,0,0,1,1.508-1.508h2.1v-4.376a.362.362,0,1,1,.724,0v5.1H415.78a.785.785,0,0,0-.783.784v.518a1.883,1.883,0,0,0,1.881,1.881h2.243a.362.362,0,0,1,0,.724Z" transform="translate(-414.272 -142.891)" fill="#ff6a48"/>
                </g>
                <path id="Trazado_1004615" data-name="Trazado 1004615" d="M432.732,145.216c-2.523,0-4.576-2.351-4.576-5.24s2.052-5.24,4.576-5.24,4.576,2.351,4.576,5.24S435.255,145.216,432.732,145.216Zm0-9.756c-2.123,0-3.852,2.026-3.852,4.516s1.728,4.516,3.852,4.516,3.852-2.026,3.852-4.516S434.856,135.46,432.732,135.46Z" transform="translate(-417.116 -131.291)" fill="#fff"/>
                <g id="Grupo_1180511" data-name="Grupo 1180511" transform="translate(2.289)">
                  <g id="Grupo_1180510" data-name="Grupo 1180510">
                    <g id="Grupo_1180509" data-name="Grupo 1180509">
                      <g id="Grupo_1180505" data-name="Grupo 1180505" transform="translate(11.083 0.579)">
                        <g id="Grupo_1180504" data-name="Grupo 1180504">
                          <g id="Grupo_1180503" data-name="Grupo 1180503">
                            <path id="Trazado_1004616" data-name="Trazado 1004616" d="M440.514,130.036a3.493,3.493,0,0,1-1.429-.263c-.492-.16-.99-.308-1.427-.421s-.946-.228-1.453-.328a3.482,3.482,0,0,1-1.373-.467c-.334-.257-.369-.752.222-1.2a4.008,4.008,0,0,1,3.257-.37,3.887,3.887,0,0,1,2.627,1.9C441.221,129.565,440.936,129.977,440.514,130.036Z" transform="translate(-434.594 -126.823)" fill="#121936"/>
                          </g>
                        </g>
                      </g>
                      <g id="Grupo_1180508" data-name="Grupo 1180508">
                        <g id="Grupo_1180507" data-name="Grupo 1180507">
                          <g id="Grupo_1180506" data-name="Grupo 1180506">
                            <path id="Trazado_1004617" data-name="Trazado 1004617" d="M404.328,127.544a2.412,2.412,0,0,0,1.137,0c.4-.059.8-.108,1.157-.135s.76-.044,1.165-.049a2.408,2.408,0,0,0,1.121-.184c.292-.17.384-.6-.013-1.086a2.941,2.941,0,0,0-2.465-.861,2.887,2.887,0,0,0-2.279,1.237C403.845,127.014,404.01,127.422,404.328,127.544Z" transform="translate(-403.989 -125.224)" fill="#121936"/>
                          </g>
                        </g>
                      </g>
                    </g>
                  </g>
                </g>
                <path id="Trazado_1004618" data-name="Trazado 1004618" d="M425.231,147.719h-1.866a.362.362,0,1,1,0-.724h1.866a.362.362,0,1,1,0,.724Z" transform="translate(-413.829 -139.111)" fill="#fff"/>
                <path id="Trazado_1004619" data-name="Trazado 1004619" d="M451.791,145.38a.362.362,0,0,1-.034-.722l11.087-1.047a.362.362,0,0,1,.068.721l-11.087,1.047Z" transform="translate(-431.961 -136.952)" fill="#fff"/>
                <path id="Trazado_1004620" data-name="Trazado 1004620" d="M427.4,181.608h-.042l-4.347-.055a.362.362,0,0,1,0-.724h0l4.347.055a2.635,2.635,0,0,0,2.58-2.019l.705.165A3.361,3.361,0,0,1,427.4,181.608Z" transform="translate(-413.607 -159.44)" fill="#ff6a48"/>
              </g>
            </g>
          </g>
          <g id="Grupo_1180515" data-name="Grupo 1180515" transform="translate(30.438 53.75)">
            <path id="Trazado_1004621" data-name="Trazado 1004621" d="M427.038,229.3l-5.571,4.819.831,11.388a.7.7,0,0,0,1.168.474l10.246-9.129Z" transform="translate(-421.467 -226.283)" fill="#fff"/>
            <path id="Trazado_1004622" data-name="Trazado 1004622" d="M472.234,220.969l-18.22,10.513,7.315,12.285a1.071,1.071,0,0,0,1.613.269l17.724-15.008Z" transform="translate(-442.228 -220.969)" fill="#fff"/>
            <path id="Trazado_1004623" data-name="Trazado 1004623" d="M430.826,258.48l4.82,9.8,10.442-6.219L439.4,250.838Z" transform="translate(-427.437 -240.022)" fill="#121936"/>
          </g>
        </g>
        <g id="Grupo_1180531" data-name="Grupo 1180531" transform="translate(0 6.22)">
          <g id="Grupo_1180529" data-name="Grupo 1180529">
            <path id="Trazado_1004624" data-name="Trazado 1004624" d="M181.5,105.591l-11.275.079H155.5l.034-5.459a11.613,11.613,0,0,0-.186-2.146c-1.965-10.791-17.763-10.854-19.842-.085a11.567,11.567,0,0,0-.209,2.2v6.564h.007l.027,4.893c.028,5.172-3.31,9.594-7.642,10.556a6.911,6.911,0,0,0,1.043.05c.8.021,1.428,0,1.428,0l42.051.055c5.179-.036,9.351-4.81,9.319-10.662Z" transform="translate(-127.68 -89.857)" fill="#121936"/>
            <g id="Grupo_1180528" data-name="Grupo 1180528" transform="translate(17.728)">
              <g id="Grupo_1180518" data-name="Grupo 1180518">
                <path id="Trazado_1004625" data-name="Trazado 1004625" d="M246.92,105.373a15.6,15.6,0,0,0-10.163-14.619,11.467,11.467,0,0,0-4.7-1.037l-34.957.04,0,0H178.043c-.255,0-.507.011-.757.028h-.649V89.8c.049.006.1.014.144.021a11.513,11.513,0,0,1,9.962,10.724h-.006V209.2a9.6,9.6,0,0,0,9.654,9.551H246.9V174.911h.02V105.373Z" transform="translate(-176.637 -89.717)" fill="#fff"/>
                <g id="Grupo_1180517" data-name="Grupo 1180517" transform="translate(20.16 52.105)">
                  <path id="Trazado_1004626" data-name="Trazado 1004626" d="M273.685,250.328H232.67a.362.362,0,0,1,0-.724h41.015a.362.362,0,1,1,0,.724Z" transform="translate(-232.308 -243.81)" fill="#121936"/>
                  <path id="Trazado_1004627" data-name="Trazado 1004627" d="M281.361,234.328H264.083a.362.362,0,0,1,0-.724h17.278a.362.362,0,0,1,0,.724Z" transform="translate(-252.346 -233.604)" fill="#121936"/>
                  <path id="Trazado_1004628" data-name="Trazado 1004628" d="M273.685,273.813H232.67a.362.362,0,0,1,0-.724h41.015a.362.362,0,1,1,0,.724Z" transform="translate(-232.308 -258.791)" fill="#121936"/>
                  <path id="Trazado_1004629" data-name="Trazado 1004629" d="M273.685,297.3H232.67a.362.362,0,1,1,0-.724h41.015a.362.362,0,1,1,0,.724Z" transform="translate(-232.308 -273.771)" fill="#121936"/>
                  <path id="Trazado_1004630" data-name="Trazado 1004630" d="M273.685,319.279H232.67a.362.362,0,0,1,0-.724h41.015a.362.362,0,1,1,0,.724Z" transform="translate(-232.308 -287.792)" fill="#121936"/>
                </g>
              </g>
              <g id="Grupo_1180527" data-name="Grupo 1180527" transform="translate(15.37 12.046)">
                <g id="Grupo_1180526" data-name="Grupo 1180526">
                  <path id="Trazado_1004631" data-name="Trazado 1004631" d="M254.891,123.959h0a1.4,1.4,0,0,0-2.741.434h0a1.4,1.4,0,0,1-2.543.826h0a1.4,1.4,0,0,0-2.473,1.26h0a1.4,1.4,0,0,1-2.163,1.572h0a1.4,1.4,0,0,0-1.962,1.962h0a1.4,1.4,0,0,1-1.572,2.163h0a1.4,1.4,0,0,0-1.26,2.473h0a1.4,1.4,0,0,1-.826,2.543h0a1.4,1.4,0,0,0-.434,2.741h0a1.4,1.4,0,0,1,0,2.674h0a1.4,1.4,0,0,0,.434,2.741h0a1.4,1.4,0,0,1,.826,2.543h0a1.4,1.4,0,0,0,1.26,2.472h0a1.4,1.4,0,0,1,1.572,2.163h0a1.4,1.4,0,0,0,1.962,1.962h0a1.4,1.4,0,0,1,2.163,1.572h0a1.4,1.4,0,0,0,2.473,1.26h0a1.4,1.4,0,0,1,2.543.826h0a1.4,1.4,0,0,0,2.741.434h0a1.4,1.4,0,0,1,2.674,0h0a1.4,1.4,0,0,0,2.741-.434h0a1.4,1.4,0,0,1,2.543-.826h0a1.4,1.4,0,0,0,2.473-1.26h0a1.4,1.4,0,0,1,2.163-1.572h0a1.4,1.4,0,0,0,1.962-1.962h0a1.4,1.4,0,0,1,1.572-2.163h0a1.4,1.4,0,0,0,1.26-2.472h0a1.4,1.4,0,0,1,.826-2.543h0a1.4,1.4,0,0,0,.434-2.741h0a1.4,1.4,0,0,1,0-2.674h0a1.4,1.4,0,0,0-.434-2.741h0a1.4,1.4,0,0,1-.826-2.543h0a1.4,1.4,0,0,0-1.26-2.473h0a1.4,1.4,0,0,1-1.572-2.163h0a1.4,1.4,0,0,0-1.962-1.962h0a1.4,1.4,0,0,1-2.163-1.572h0a1.4,1.4,0,0,0-2.473-1.26h0a1.4,1.4,0,0,1-2.543-.826h0a1.4,1.4,0,0,0-2.741-.434h0A1.4,1.4,0,0,1,254.891,123.959Z" transform="translate(-231.112 -122.983)" fill="#ffd066"/>
                  <g id="Grupo_1180524" data-name="Grupo 1180524" transform="translate(15.921 6.53)">
                    <path id="Trazado_1004632" data-name="Trazado 1004632" d="M278.7,176.311h-12.91a2.744,2.744,0,0,1-2.741-2.741V163.364a2.744,2.744,0,0,1,2.741-2.741H278.7a2.744,2.744,0,0,1,2.741,2.741V173.57A2.744,2.744,0,0,1,278.7,176.311Zm-12.91-14.6a1.656,1.656,0,0,0-1.654,1.654V173.57a1.656,1.656,0,0,0,1.654,1.654H278.7a1.656,1.656,0,0,0,1.654-1.654V163.364a1.656,1.656,0,0,0-1.654-1.654Z" transform="translate(-263.046 -153.522)" fill="#121936"/>
                    <path id="Trazado_1004633" data-name="Trazado 1004633" d="M282.81,149.2a.543.543,0,0,1-.543-.543v-2.966A3.859,3.859,0,0,0,278.2,142.1h-3.04a3.859,3.859,0,0,0-4.072,3.592v2.966a.543.543,0,1,1-1.086,0v-2.966a4.942,4.942,0,0,1,5.158-4.678h3.04a4.942,4.942,0,0,1,5.158,4.678v2.966A.543.543,0,0,1,282.81,149.2Z" transform="translate(-267.48 -141.014)" fill="#121936"/>
                    <g id="Grupo_1180523" data-name="Grupo 1180523" transform="translate(6.118 10.32)">
                      <g id="Grupo_1180522" data-name="Grupo 1180522">
                        <path id="Trazado_1004634" data-name="Trazado 1004634" d="M286.3,172.536a3.184,3.184,0,0,0-6.352-.117,2.961,2.961,0,0,0,1.211,2.492.642.642,0,0,1,.267.511v.829a.661.661,0,0,0,.676.644h2.042a.661.661,0,0,0,.676-.644v-.828a.641.641,0,0,1,.265-.511A2.967,2.967,0,0,0,286.3,172.536Z" transform="translate(-279.942 -169.513)" fill="#121936"/>
                        <g id="Grupo_1180519" data-name="Grupo 1180519" transform="translate(2.414 7.759)">
                          <path id="Trazado_1004635" data-name="Trazado 1004635" d="M288.2,191.862a.673.673,0,1,1-.673-.673A.673.673,0,0,1,288.2,191.862Z" transform="translate(-286.767 -191.098)" fill="#121936"/>
                          <path id="Trazado_1004636" data-name="Trazado 1004636" d="M287.371,192.466a.763.763,0,1,1,.763-.763A.764.764,0,0,1,287.371,192.466Zm0-1.346a.582.582,0,1,0,.582.582A.583.583,0,0,0,287.371,191.12Z" transform="translate(-286.608 -190.939)" fill="#ffd066"/>
                        </g>
                        <g id="Grupo_1180520" data-name="Grupo 1180520" transform="translate(1.84 7.467)">
                          <path id="Trazado_1004637" data-name="Trazado 1004637" d="M287.521,190.944h-2a.245.245,0,0,1-.245-.245v-.071a.245.245,0,0,1,.245-.245h2a.245.245,0,0,1,.245.245v.071A.245.245,0,0,1,287.521,190.944Z" transform="translate(-285.182 -190.293)" fill="#121936"/>
                          <path id="Trazado_1004638" data-name="Trazado 1004638" d="M287.362,190.875h-2a.336.336,0,0,1-.335-.335v-.071a.336.336,0,0,1,.335-.335h2a.336.336,0,0,1,.335.335v.071A.336.336,0,0,1,287.362,190.875Zm-2-.56a.155.155,0,0,0-.154.154v.071a.154.154,0,0,0,.154.154h2a.155.155,0,0,0,.154-.154v-.071a.154.154,0,0,0-.154-.154Z" transform="translate(-285.023 -190.134)" fill="#ffd066"/>
                        </g>
                        <g id="Grupo_1180521" data-name="Grupo 1180521" transform="translate(1.993 8.027)">
                          <path id="Trazado_1004639" data-name="Trazado 1004639" d="M287.669,192.42h-1.76a.214.214,0,0,1-.214-.214v-.062a.214.214,0,0,1,.214-.214h1.76a.214.214,0,0,1,.214.214v.062A.214.214,0,0,1,287.669,192.42Z" transform="translate(-285.604 -191.839)" fill="#121936"/>
                          <path id="Trazado_1004640" data-name="Trazado 1004640" d="M287.509,192.351h-1.76a.3.3,0,0,1-.3-.3v-.062a.3.3,0,0,1,.3-.3h1.76a.3.3,0,0,1,.3.3v.062A.305.305,0,0,1,287.509,192.351Zm-1.76-.49a.124.124,0,0,0-.123.123v.062a.124.124,0,0,0,.123.123h1.76a.124.124,0,0,0,.123-.123v-.062a.124.124,0,0,0-.123-.123Z" transform="translate(-285.445 -191.68)" fill="#ffd066"/>
                        </g>
                        <path id="Trazado_1004641" data-name="Trazado 1004641" d="M282.257,175.652a.135.135,0,0,1-.131-.1,2.14,2.14,0,0,1,.762-2.273.136.136,0,0,1,.155.223,1.835,1.835,0,0,0-.656,1.978.136.136,0,0,1-.1.167A.134.134,0,0,1,282.257,175.652Z" transform="translate(-281.282 -171.9)" fill="#ffd066"/>
                      </g>
                    </g>
                  </g>
                  <path id="Trazado_1004642" data-name="Trazado 1004642" d="M234.086,132.086a.36.36,0,0,1-.225-.079l-3.417-2.721a.362.362,0,1,1,.451-.566l3.417,2.721a.362.362,0,0,1-.226.645Z" transform="translate(-226.242 -126.591)" fill="#121936"/>
                  <path id="Trazado_1004643" data-name="Trazado 1004643" d="M219.443,170.9a.362.362,0,0,1-.083-.714l4.253-1a.362.362,0,0,1,.165.705l-4.253,1A.362.362,0,0,1,219.443,170.9Z" transform="translate(-219.081 -152.449)" fill="#121936"/>
                  <path id="Trazado_1004644" data-name="Trazado 1004644" d="M225.425,151.6a.36.36,0,0,1-.1-.013l-4.21-1.164a.362.362,0,0,1,.193-.7l4.21,1.163a.362.362,0,0,1-.1.712Z" transform="translate(-220.211 -140.032)" fill="#121936"/>
                  <path id="Trazado_1004645" data-name="Trazado 1004645" d="M343.118,171.145a.362.362,0,0,1-.029-.723l4.354-.353a.362.362,0,1,1,.059.722l-4.354.353Z" transform="translate(-297.97 -153.017)" fill="#121936"/>
                  <path id="Trazado_1004646" data-name="Trazado 1004646" d="M341.6,151.6a.362.362,0,0,1-.1-.711l4.21-1.163a.362.362,0,0,1,.193.7l-4.21,1.164A.368.368,0,0,1,341.6,151.6Z" transform="translate(-297.004 -140.033)" fill="#121936"/>
                  <path id="Trazado_1004647" data-name="Trazado 1004647" d="M343.941,188.154a.358.358,0,0,1-.167-.041L339.9,186.1a.362.362,0,1,1,.334-.642l3.876,2.014a.362.362,0,0,1-.167.683Z" transform="translate(-296.023 -162.807)" fill="#121936"/>
                  <g id="Grupo_1180525" data-name="Grupo 1180525" transform="translate(32.682 0.585)">
                    <path id="Trazado_1004648" data-name="Trazado 1004648" d="M319.529,129.7a5.129,5.129,0,0,1-5.12,5.136,5.121,5.121,0,1,1,5.12-5.136Zm-9.135.032a4.006,4.006,0,0,0,4.012,4.046,4.063,4.063,0,1,0-4.012-4.046Zm5.725-1.054h0a.683.683,0,0,1-.9.151,1.165,1.165,0,0,0-.642-.229,1.1,1.1,0,0,0,0,2.184,1.339,1.339,0,0,0,.668-.218.653.653,0,0,1,.814.117l.016.018a.656.656,0,0,1-.105,1,2.8,2.8,0,0,1-1.484.458,2.394,2.394,0,0,1-2.515-2.44,2.425,2.425,0,0,1,2.575-2.425,2.862,2.862,0,0,1,1.431.413A.653.653,0,0,1,316.119,128.682Z" transform="translate(-309.333 -124.598)" fill="#121936"/>
                  </g>
                </g>
              </g>
            </g>
          </g>
          <g id="Grupo_1180530" data-name="Grupo 1180530" transform="translate(27.805 90.954)">
            <path id="Trazado_1004649" data-name="Trazado 1004649" d="M305.655,350.675v16a11.469,11.469,0,0,0,11.469,11.469h2.129a13.782,13.782,0,0,0,13.781-13.781h0a9.7,9.7,0,0,1,9.7-9.7h3.989a8.235,8.235,0,0,1,2.611.424v-.424h.094v-6.017a7.763,7.763,0,0,0-7.763-7.763H296.3v.011A9.791,9.791,0,0,1,305.655,350.675Z" transform="translate(-263.044 -340.884)" fill="#f4f2ed"/>
            <line id="Línea_3323" data-name="Línea 3323" transform="translate(148.134 38.077)" fill="none" stroke="#faf8f3" stroke-linecap="round" stroke-linejoin="round" stroke-width="0"/>
            <path id="Trazado_1004650" data-name="Trazado 1004650" d="M495.961,392.881l-.084-6.179a7.763,7.763,0,0,0-7.763-7.763H442.751v.424a8.252,8.252,0,0,1,5.64,7.826v3.9a12.149,12.149,0,0,0,12.149,12.149H504.6A10.7,10.7,0,0,1,495.961,392.881Z" transform="translate(-356.461 -365.158)" fill="#faf8f3"/>
            <path id="Trazado_1004651" data-name="Trazado 1004651" d="M204.463,419.737a8.68,8.68,0,0,0,.194,1.825,10.047,10.047,0,0,1-.17-1.9Z" transform="translate(-204.463 -391.132)" fill="#121936"/>
            <line id="Línea_3324" data-name="Línea 3324" transform="translate(104.078 38.077)" fill="none" stroke="#121936" stroke-linecap="round" stroke-linejoin="round" stroke-width="0"/>
            <path id="Trazado_1004652" data-name="Trazado 1004652" d="M296.733,366.814v-3.9a8.251,8.251,0,0,0-8.25-8.25h-3.989a9.7,9.7,0,0,0-9.7,9.7h0a13.781,13.781,0,0,1-13.781,13.781h-2.129a11.469,11.469,0,0,1-11.469-11.469v-16a9.791,9.791,0,0,0-9.354-9.78c-.145-.007-.291-.011-.438-.011h0a11.967,11.967,0,0,0-11.967,11.967v13.1a12.194,12.194,0,0,1-12.194,12.194h0A8.659,8.659,0,0,1,205,371.315a9.372,9.372,0,0,0,9.42,7.648h94.463A12.149,12.149,0,0,1,296.733,366.814Z" transform="translate(-204.804 -340.885)" fill="#121936"/>
          </g>
        </g>
        <g id="Grupo_1180537" data-name="Grupo 1180537" transform="translate(16.713 57.206)">
          <g id="Grupo_1180533" data-name="Grupo 1180533" transform="translate(0 17.139)">
            <g id="Grupo_1180532" data-name="Grupo 1180532">
              <path id="Trazado_1004653" data-name="Trazado 1004653" d="M196.084,281.024c-1.715-3.675-5.638-.976-8.2.326-1.158.707-2.225,1.338-3.227,1.921a11.946,11.946,0,0,0,.1-4.164,1.642,1.642,0,0,0-.677-1.155,1.057,1.057,0,0,0-.972.019,2.685,2.685,0,0,0-.748.637c-2.066,2.282-6.705,10.105-6.705,10.105a21.056,21.056,0,0,0-1.745,6.066c-.8,6.045,4.7,11.571,10.5,10.371a4.471,4.471,0,0,0,1.792-.726l9.739-6.989c1.862-1.187,2.066-4.154.335-4.183,1.656-.493,3.255-1.659,2.306-3.726a1.823,1.823,0,0,0-2.31-1.218c1.5-.491,2.85-1.274,2.185-3.042-.459-2.005-2.083-2.071-3.6-1.71C195.832,283.095,196.578,282.344,196.084,281.024Z" transform="translate(-173.832 -277.842)" fill="#ffa386"/>
            </g>
            <path id="Trazado_1004654" data-name="Trazado 1004654" d="M191.557,293.908a.362.362,0,0,1-.182-.675l5.264-3.067a.362.362,0,0,1,.364.626l-5.264,3.067A.36.36,0,0,1,191.557,293.908Z" transform="translate(-184.907 -285.672)" fill="#ff6a48"/>
            <path id="Trazado_1004655" data-name="Trazado 1004655" d="M220.748,295.225a.362.362,0,0,1-.187-.672,43.632,43.632,0,0,1,4.3-2.359.362.362,0,0,1,.191.7,42.641,42.641,0,0,0-4.116,2.28A.366.366,0,0,1,220.748,295.225Z" transform="translate(-203.527 -286.989)" fill="#ff6a48"/>
            <path id="Trazado_1004656" data-name="Trazado 1004656" d="M226.151,308.559a.362.362,0,0,1-.182-.675l3.312-1.918a.362.362,0,0,1,.363.626l-3.312,1.918A.357.357,0,0,1,226.151,308.559Z" transform="translate(-206.974 -295.75)" fill="#ff6a48"/>
            <path id="Trazado_1004657" data-name="Trazado 1004657" d="M228.874,322.017a.362.362,0,0,1-.175-.679l1.807-.994a.362.362,0,1,1,.348.634l-1.807.994A.358.358,0,0,1,228.874,322.017Z" transform="translate(-208.711 -304.924)" fill="#ff6a48"/>
          </g>
          <g id="Grupo_1180536" data-name="Grupo 1180536" transform="translate(62.453)">
            <g id="Grupo_1180534" data-name="Grupo 1180534">
              <path id="Trazado_1004658" data-name="Trazado 1004658" d="M410.085,230.828l2.221,1.9a1.389,1.389,0,0,1,.1,1.961l-1.995,2.326a1.389,1.389,0,0,1-1.954.2l-2.221-1.9a1.389,1.389,0,0,1-.1-1.961l1.995-2.326A1.389,1.389,0,0,1,410.085,230.828Z" transform="translate(-384.241 -230.512)" fill="#ff6a48"/>
              <rect id="Rectángulo_455866" data-name="Rectángulo 455866" width="31.636" height="5.637" transform="matrix(0.651, -0.759, 0.759, 0.651, 2.38, 25.605)" fill="#ffd066"/>
              <path id="Trazado_1004659" data-name="Trazado 1004659" d="M348.714,301.311l4.2,3.6c.018.016.083.071-.016.062l-6.6,3.4h0l2.358-7.044C348.664,301.309,348.7,301.3,348.714,301.311Z" transform="translate(-346.296 -275.669)" fill="#ffaa89"/>
              <path id="Trazado_1004660" data-name="Trazado 1004660" d="M347.183,313.87l1.5,1.29c.007.005.03.025-.005.022l-2.363,1.219h0l.844-2.521A.014.014,0,0,1,347.183,313.87Z" transform="translate(-346.31 -283.682)" fill="#233863"/>
              <path id="Trazado_1004661" data-name="Trazado 1004661" d="M405.216,250.563a.181.181,0,0,1-.138-.3l2.963-3.454a.181.181,0,0,1,.275.236l-2.963,3.454A.181.181,0,0,1,405.216,250.563Z" transform="translate(-383.764 -240.868)" fill="#fff"/>
              <path id="Trazado_1004662" data-name="Trazado 1004662" d="M385.121,253.047a.181.181,0,0,1-.138-.3l8.541-9.959a.181.181,0,0,1,.275.236l-8.541,9.959A.182.182,0,0,1,385.121,253.047Z" transform="translate(-370.946 -238.303)" fill="#fff"/>
            </g>
            <g id="Grupo_1180535" data-name="Grupo 1180535" transform="translate(2.763 8.375)">
              <path id="Trazado_1004663" data-name="Trazado 1004663" d="M429.066,288.789l-36.542-24.169-8.47-6.637a15.95,15.95,0,0,0-8.213-3.312l-9.7-.994a7.226,7.226,0,0,0-4.042.763l-4.607,2.371a2.07,2.07,0,0,0-1.118,1.98l.037.54-.354.169a2.777,2.777,0,0,0-1.582,2.515l.006,1.906-.318.745a2.866,2.866,0,0,0,.5,3.031l7.153,8.026a1.128,1.128,0,0,0,1.656.031,3.222,3.222,0,0,0,.188-4.256l-2.213-2.747,7.41,4.387a8.934,8.934,0,0,0,4.006,1.23l4.57.28,4.725,5.393,28.341,34.193a19.823,19.823,0,0,0,33.154-6.468l2.592-5.675Z" transform="translate(-353.927 -253.639)" fill="#ffaa89"/>
            </g>
            <path id="Trazado_1004664" data-name="Trazado 1004664" d="M360.465,266.456a.362.362,0,0,1-.11-.707l5.506-1.757a.362.362,0,0,1,.22.69l-5.506,1.757A.36.36,0,0,1,360.465,266.456Z" transform="translate(-355.103 -251.857)" fill="#ff6a48"/>
            <path id="Trazado_1004665" data-name="Trazado 1004665" d="M355.4,278.545a.362.362,0,0,1-.089-.713l6.844-1.741a.362.362,0,0,1,.179.7l-6.843,1.741A.369.369,0,0,1,355.4,278.545Z" transform="translate(-351.872 -259.578)" fill="#ff6a48"/>
            <path id="Trazado_1004666" data-name="Trazado 1004666" d="M371.6,292.383a.36.36,0,0,1-.27-.121l-1.379-1.542a.362.362,0,1,1,.54-.483l1.379,1.542a.362.362,0,0,1-.27.6Z" transform="translate(-361.325 -268.532)" fill="#ff6a48"/>
            <path id="Trazado_1004667" data-name="Trazado 1004667" d="M418.173,311.008a.362.362,0,0,1-.014-.724l5.4-.212a.362.362,0,1,1,.028.723l-5.4.212Z" transform="translate(-391.914 -281.261)" fill="#ff6a48"/>
          </g>
        </g>
      </g>
    </g>
  </g>
</svg>
