<svg xmlns="http://www.w3.org/2000/svg" width="130" height="130" viewBox="0 0 130 130">
  <g id="Grupo_1177486" data-name="Grupo 1177486" transform="translate(-383.746 -8400)">
    <circle id="Elipse_13609" data-name="Elipse 13609" cx="65" cy="65" r="65" transform="translate(383.746 8400)" fill="#fff5c1"/>
    <g id="outline" transform="translate(407.865 8425.115)">
      <path id="Trazado_1009403" data-name="Trazado 1009403" d="M73.761,37.9A19.4,19.4,0,0,0,70.05,11.72a19.549,19.549,0,0,0-26.057,1.791l-3.112,3.121-3.115-3.124a19.553,19.553,0,0,0-26.057-1.787A19.4,19.4,0,0,0,8,37.9a11.736,11.736,0,0,0-1.088,2.651,8.07,8.07,0,0,0,.478,5.634,46.73,46.73,0,0,0,7.239,10.467,11.531,11.531,0,0,0,3.9,10.934c3.551,3.036,9.277,4.614,15.627,4.614a41.1,41.1,0,0,0,6.782-.578,42.153,42.153,0,0,0,6.818.578c6.933,0,12.86-1.891,16.284-5.368a11.579,11.579,0,0,0,3.092-10.176,46.492,46.492,0,0,0,7.242-10.471,8.021,8.021,0,0,0,.475-5.631,11.822,11.822,0,0,0-1.09-2.654Zm-60.39-24.12a16.9,16.9,0,0,1,22.525,1.6l4.049,4.062a1.364,1.364,0,0,0,1.875,0l4.045-4.059a16.9,16.9,0,0,1,22.528-1.6,16.765,16.765,0,0,1,3.656,21.964A7.517,7.517,0,0,0,69.8,34.355a7.763,7.763,0,0,0-9.305,3.292c-.716,1.126-1.359,2.125-1.917,2.977l-.077-.652a4.048,4.048,0,0,0-4-3.558q-.081,0-.167,0a4.048,4.048,0,0,0-3.8,3.351l-.409,2.413a17.131,17.131,0,0,0,.192,6.72l.363,1.593a25.173,25.173,0,0,1-9.837,5.64A24.962,24.962,0,0,1,31.1,50.49l.359-1.59a17.069,17.069,0,0,0,.188-6.713l-.4-2.425a4.039,4.039,0,0,0-3.869-3.339h-.132a4.007,4.007,0,0,0-3.973,3.55l-.077.654c-.651-.995-1.335-2.064-1.913-2.984a7.783,7.783,0,0,0-9.313-3.284,7.513,7.513,0,0,0-2.248,1.388,16.763,16.763,0,0,1,3.654-21.963ZM9.463,41.262c.648-2.326,1.783-3.779,3.472-4.443a5.2,5.2,0,0,1,6.107,2.239c1.291,2.051,3.112,4.857,4,6.023a1.323,1.323,0,0,0,2.367-.646l.49-4.157a1.362,1.362,0,0,1,1.346-1.211h.078a1.389,1.389,0,0,1,1.315,1.143l.4,2.419a14.415,14.415,0,0,1-.159,5.688L28.356,50.6a1.329,1.329,0,0,0,.322,1.192,24.792,24.792,0,0,0,7.815,5.464C29.64,58.583,22.222,58,16.824,55.143a44.288,44.288,0,0,1-7.047-10.1A5.426,5.426,0,0,1,9.463,41.262ZM62.157,64.977c-2.747,2.788-7.674,4.382-13.462,4.547a46.543,46.543,0,0,0,15.943-10.29A8.51,8.51,0,0,1,62.157,64.977ZM71.99,45.045c-2.878,6.017-11.36,17.479-24.9,22.269-10.006,3.541-21.545,2.793-26.842-1.736a8.693,8.693,0,0,1-3.141-7.351c11.171,4.89,28.093,2.02,35.976-6.421a1.321,1.321,0,0,0,.323-1.2l-.524-2.294a14.505,14.505,0,0,1-.16-5.689l.409-2.413a1.386,1.386,0,0,1,1.3-1.15,1.415,1.415,0,0,1,1.429,1.219l.49,4.16a1.323,1.323,0,0,0,2.368.646c.875-1.154,2.657-3.911,4-6.019a5.194,5.194,0,0,1,6.1-2.249c1.69.666,2.829,2.122,3.481,4.452a5.366,5.366,0,0,1-.314,3.775Z" transform="translate(0)" fill="#773b3d"/>
    </g>
  </g>
</svg>
