<svg xmlns="http://www.w3.org/2000/svg" width="84" height="84" viewBox="0 0 84 84">
  <g id="Grupo_1180397" data-name="Grupo 1180397" transform="translate(-220 -359)">
    <rect id="Rectángulo_455012" data-name="Rectángulo 455012" width="84" height="84" rx="10" transform="translate(220 359)" fill="#99bfb7"/>
    <g id="Grupo_1180396" data-name="Grupo 1180396" transform="translate(235.616 373.75)">
      <g id="Grupo_1180394" data-name="Grupo 1180394" transform="translate(0.798 0.798)">
        <g id="Grupo_1180393" data-name="Grupo 1180393">
          <path id="Trazado_1004161" data-name="Trazado 1004161" d="M437.142,138.276l-6.613,2.548V127.252l6.613,2.548a.616.616,0,0,1,.395.575V137.7A.616.616,0,0,1,437.142,138.276Z" transform="translate(-386.366 -114.505)" fill="#df646e"/>
          <path id="Trazado_1004162" data-name="Trazado 1004162" d="M437.142,34.284l-6.613,2.548V23.26l6.613,2.548a.616.616,0,0,1,.395.575v7.326A.616.616,0,0,1,437.142,34.284Z" transform="translate(-386.366 -21.582)" fill="#ffa95f"/>
          <path id="Trazado_1004163" data-name="Trazado 1004163" d="M85.81,8.04V52.8a.54.54,0,0,0,.54.54h36.965a.54.54,0,0,0,.54-.54V8.04a.54.54,0,0,0-.54-.54H86.35A.54.54,0,0,0,85.81,8.04Z" transform="translate(-78.34 -7.5)" fill="#6cbff8"/>
          <path id="Trazado_1004164" data-name="Trazado 1004164" d="M405.985,7.5h-3.832a.54.54,0,0,1,.54.54V52.8a.54.54,0,0,1-.54.54h3.832a.54.54,0,0,0,.54-.54V8.04A.54.54,0,0,0,405.985,7.5Z" transform="translate(-361.01 -7.5)" fill="#5fa7ee"/>
          <path id="Trazado_1004165" data-name="Trazado 1004165" d="M50.758,94.868v42.58a.54.54,0,0,1-.54.54H26.044L15.631,127.575V94.868a.54.54,0,0,1,.54-.54H50.218A.54.54,0,0,1,50.758,94.868Z" transform="translate(-15.631 -85.086)" fill="#ddebfd"/>
          <path id="Trazado_1004166" data-name="Trazado 1004166" d="M308.4,94.329h-3.832a.54.54,0,0,1,.54.54v42.58a.54.54,0,0,1-.54.54H308.4a.54.54,0,0,0,.54-.54V94.869A.54.54,0,0,0,308.4,94.329Z" transform="translate(-273.812 -85.087)" fill="#bed9fd"/>
          <path id="Trazado_1004167" data-name="Trazado 1004167" d="M75.517,141.684H72.081a.238.238,0,0,1-.237-.237v-3.436a.356.356,0,0,0-.356-.356h-3.5a.356.356,0,0,0-.356.356v3.436a.237.237,0,0,1-.237.237H63.961a.356.356,0,0,0-.356.356v3.5a.356.356,0,0,0,.356.356H67.4a.237.237,0,0,1,.237.237v3.436a.356.356,0,0,0,.356.356h3.5a.356.356,0,0,0,.356-.356v-3.436a.237.237,0,0,1,.237-.237h3.436a.356.356,0,0,0,.356-.356v-3.5A.356.356,0,0,0,75.517,141.684Z" transform="translate(-58.498 -123.801)" fill="#df646e"/>
          <path id="Trazado_1004168" data-name="Trazado 1004168" d="M254.071,142.809h-4.508a.323.323,0,0,1-.323-.323v-4.508a.323.323,0,0,1,.323-.323h4.508a.323.323,0,0,1,.323.323v4.508A.323.323,0,0,1,254.071,142.809Z" transform="translate(-224.374 -123.802)" fill="#5392f9"/>
          <path id="Trazado_1004169" data-name="Trazado 1004169" d="M26.044,417.084v-9.345a1.068,1.068,0,0,0-1.068-1.068H15.631Z" transform="translate(-15.631 -364.182)" fill="#bed9fd"/>
        </g>
      </g>
      <g id="Grupo_1180395" data-name="Grupo 1180395" transform="translate(0 0)">
        <path id="Trazado_1004170" data-name="Trazado 1004170" d="M60.9,12.925V5.6a1.423,1.423,0,0,0-.906-1.32l-4.75-1.831V1.338A1.34,1.34,0,0,0,53.9,0H16.938A1.34,1.34,0,0,0,15.6,1.338v7.9H9.468A1.34,1.34,0,0,0,8.13,10.581V20.786a.8.8,0,1,0,1.6,0V10.839H43.257V52.9H20.14V44.356a1.869,1.869,0,0,0-1.867-1.867H9.727V24.512a.8.8,0,0,0-1.6,0V43.288a.805.805,0,0,0,.234.564L18.777,54.265a.8.8,0,0,0,.564.234H43.516a1.34,1.34,0,0,0,1.338-1.338V47.434H53.9A1.34,1.34,0,0,0,55.242,46.1V36.7a.8.8,0,0,0-1.6,0v9.138H44.854V10.581a1.34,1.34,0,0,0-1.338-1.338H17.2V1.6H53.645V32.974a.8.8,0,0,0,1.6,0V27.145l4.75-1.831a1.423,1.423,0,0,0,.906-1.32V16.668a1.423,1.423,0,0,0-.906-1.32L58.561,14.8l1.431-.552a1.423,1.423,0,0,0,.906-1.32ZM18.543,44.356v7.418l-7.688-7.688h7.418A.27.27,0,0,1,18.543,44.356ZM59.3,16.793v7.076l-4.06,1.565V16.076l1.1-.424Zm0-3.993-4.06,1.565V4.16L59.3,5.724Z" transform="translate(-8.13 0)"/>
        <path id="Trazado_1004171" data-name="Trazado 1004171" d="M158.826,416.023h-15.74a.8.8,0,1,0,0,1.6h15.739a.8.8,0,0,0,0-1.6Z" transform="translate(-128.008 -371.74)"/>
        <path id="Trazado_1004172" data-name="Trazado 1004172" d="M56.9,303.877H60.32a.8.8,0,1,0,0-1.6H56.9a.8.8,0,1,0,0,1.6Z" transform="translate(-50.998 -270.104)"/>
        <path id="Trazado_1004173" data-name="Trazado 1004173" d="M142.288,303.078a.8.8,0,0,0,.8.8h15.739a.8.8,0,1,0,0-1.6H143.086A.8.8,0,0,0,142.288,303.078Z" transform="translate(-128.008 -270.104)"/>
        <path id="Trazado_1004174" data-name="Trazado 1004174" d="M56.9,360.749H60.32a.8.8,0,0,0,0-1.6H56.9a.8.8,0,0,0,0,1.6Z" transform="translate(-50.998 -320.923)"/>
        <path id="Trazado_1004175" data-name="Trazado 1004175" d="M158.826,359.152h-15.74a.8.8,0,0,0,0,1.6h15.739a.8.8,0,0,0,0-1.6Z" transform="translate(-128.008 -320.923)"/>
        <path id="Trazado_1004176" data-name="Trazado 1004176" d="M64.786,130.155h-3.5a1.156,1.156,0,0,0-1.155,1.155v2.875H57.26a1.156,1.156,0,0,0-1.155,1.155v3.5a1.156,1.156,0,0,0,1.155,1.155h2.875v2.875a1.156,1.156,0,0,0,1.155,1.155h3.5a1.156,1.156,0,0,0,1.155-1.155V139.99h2.875a1.156,1.156,0,0,0,1.155-1.155v-3.5a1.156,1.156,0,0,0-1.155-1.155H65.94V131.31A1.156,1.156,0,0,0,64.786,130.155Zm3.587,5.626v2.613H65.379a1.037,1.037,0,0,0-1.036,1.036v2.994H61.731v-2.994a1.037,1.037,0,0,0-1.036-1.036H57.7v-2.613H60.7a1.037,1.037,0,0,0,1.036-1.036v-2.994h2.613v2.994a1.037,1.037,0,0,0,1.036,1.036Z" transform="translate(-50.998 -116.301)"/>
        <path id="Trazado_1004177" data-name="Trazado 1004177" d="M247.369,136.906a1.122,1.122,0,0,0,1.121-1.121v-4.508a1.122,1.122,0,0,0-1.121-1.121h-4.508a1.122,1.122,0,0,0-1.121,1.121v4.508a1.122,1.122,0,0,0,1.121,1.121Zm-4.033-5.154h3.557v3.557h-3.557Z" transform="translate(-216.874 -116.302)"/>
      </g>
    </g>
  </g>
</svg>
