<svg xmlns="http://www.w3.org/2000/svg" width="70" height="70" viewBox="0 0 70 70">
  <g id="Grupo_1181048" data-name="Grupo 1181048" transform="translate(-220 -359)">
    <rect id="Rectángulo_455012" data-name="Rectángulo 455012" width="70" height="70" rx="10" transform="translate(220 359)" fill="#99bfb7"/>
    <g id="Grupo_1183164" data-name="Grupo 1183164" transform="translate(229.543 371.584)">
      <path id="Trazado_1009067" data-name="Trazado 1009067" d="M40.164,88.254H15.844a5.015,5.015,0,0,1-5.015-5.015V53.324a5.015,5.015,0,0,1,5.015-5.015h24.32a5.015,5.015,0,0,1,5.015,5.015V83.239A5.015,5.015,0,0,1,40.164,88.254Z" transform="translate(-6.84 -44.079)" fill="#c67d66"/>
      <path id="Trazado_1009068" data-name="Trazado 1009068" d="M17.529,88.255H15.843a5.015,5.015,0,0,1-5.014-5.015V53.324a5.014,5.014,0,0,1,5.014-5.014h1.686a5.015,5.015,0,0,0-5.015,5.014V83.24A5.016,5.016,0,0,0,17.529,88.255Z" transform="translate(-6.84 -44.08)" fill="#aa593d"/>
      <path id="Trazado_1009069" data-name="Trazado 1009069" d="M81.155,131.154H58.914a2.021,2.021,0,0,1-2.021-2.021V102.338a2.021,2.021,0,0,1,2.021-2.021h22.24a2.021,2.021,0,0,1,2.021,2.021v26.794A2.021,2.021,0,0,1,81.155,131.154Z" transform="translate(-48.87 -91.533)" fill="#dfeaef"/>
      <path id="Trazado_1009070" data-name="Trazado 1009070" d="M111.833,7.5H98.74a3.212,3.212,0,0,0-3.212,3.212v3.916a3.212,3.212,0,0,0,3.212,3.212h13.094a3.212,3.212,0,0,0,3.212-3.212V10.712A3.212,3.212,0,0,0,111.833,7.5Z" transform="translate(-84.122 -6.843)" fill="#f6e266"/>
      <path id="Trazado_1009071" data-name="Trazado 1009071" d="M101.267,17.838H98.739a3.211,3.211,0,0,1-3.211-3.211V10.71A3.211,3.211,0,0,1,98.739,7.5h2.528a3.212,3.212,0,0,0-3.211,3.211v3.916a3.211,3.211,0,0,0,3.211,3.211Z" transform="translate(-84.122 -6.842)" fill="#ecc32e"/>
      <circle id="Elipse_13925" data-name="Elipse 13925" cx="2.167" cy="2.167" r="2.167" transform="translate(14.779 3.602)" fill="#617881"/>
      <circle id="Elipse_13926" data-name="Elipse 13926" cx="2.167" cy="2.167" r="2.167" transform="translate(23.215 3.602)" fill="#617881"/>
      <circle id="Elipse_13927" data-name="Elipse 13927" cx="6.962" cy="6.962" r="6.962" transform="translate(33 0.69)" fill="#80e29d"/>
      <path id="Trazado_1009072" data-name="Trazado 1009072" d="M350.008,21.749a7.089,7.089,0,0,1-.9.058,6.962,6.962,0,0,1,0-13.924,7.073,7.073,0,0,1,.9.058,6.963,6.963,0,0,0,0,13.808Z" transform="translate(-309.143 -7.193)" fill="#6ec186"/>
      <path id="Trazado_1009073" data-name="Trazado 1009073" d="M129.38,39.284a2.824,2.824,0,1,0-2.824-2.824A2.827,2.827,0,0,0,129.38,39.284Zm0-4.334a1.51,1.51,0,1,1-1.51,1.51A1.512,1.512,0,0,1,129.38,34.949Z" transform="translate(-112.433 -30.691)"/>
      <path id="Trazado_1009074" data-name="Trazado 1009074" d="M225.718,39.284a2.824,2.824,0,1,0-2.824-2.824A2.827,2.827,0,0,0,225.718,39.284Zm0-4.334a1.51,1.51,0,1,1-1.51,1.51A1.512,1.512,0,0,1,225.718,34.949Z" transform="translate(-200.336 -30.691)"/>
      <path id="Trazado_1009075" data-name="Trazado 1009075" d="M39.962.033a7.62,7.62,0,0,0-6.436,3.546c-.067,0-.134-.006-.2-.006H31.567A3.873,3.873,0,0,0,27.711,0H14.617a3.873,3.873,0,0,0-3.856,3.573H9A5.677,5.677,0,0,0,3.333,9.244V39.16A5.678,5.678,0,0,0,9,44.832H33.325A5.678,5.678,0,0,0,39,39.16V15.211a7.652,7.652,0,0,0,.966.061,7.542,7.542,0,0,0,3.392-.8.657.657,0,0,0-.586-1.176,6.24,6.24,0,0,1-2.807.658,6.306,6.306,0,1,1,4.67-2.069.657.657,0,1,0,.973.883A7.619,7.619,0,0,0,39.962.033Zm-7.6,8.1-.074,0h-.722c.01-.113.016-.227.016-.343v-2.9h1.284a7.581,7.581,0,0,0-.52,2.765c0,.16.006.319.015.477Zm-20.3-4.261a2.558,2.558,0,0,1,2.555-2.555H27.711a2.558,2.558,0,0,1,2.555,2.555V7.784a2.558,2.558,0,0,1-2.555,2.555H14.617a2.558,2.558,0,0,1-2.555-2.555V3.868Zm25.62,11.055V39.16a4.363,4.363,0,0,1-4.358,4.358H9A4.363,4.363,0,0,1,4.646,39.16V9.244A4.363,4.363,0,0,1,9,4.887h1.745v2.9c0,.115.006.229.016.342h-.721a2.681,2.681,0,0,0-2.678,2.679V32.958a.657.657,0,0,0,1.313,0V10.805A1.366,1.366,0,0,1,10.044,9.44h1.078a3.873,3.873,0,0,0,3.5,2.213H27.711a3.873,3.873,0,0,0,3.5-2.212h1.079a1.376,1.376,0,0,1,.278.029,7.585,7.585,0,0,0,1.086,2.444V37.6a1.366,1.366,0,0,1-1.364,1.365H10.044A1.366,1.366,0,0,1,8.68,37.6V35.585a.657.657,0,1,0-1.313,0V37.6a2.681,2.681,0,0,0,2.678,2.679H32.285A2.681,2.681,0,0,0,34.963,37.6V13.4a7.615,7.615,0,0,0,2.72,1.527Z"/>
      <path id="Trazado_1009076" data-name="Trazado 1009076" d="M384.013,45.263a.657.657,0,0,0-.91.186l-3.77,5.709-2.32-2.32a.657.657,0,0,0-.929.929l2.889,2.889a.657.657,0,0,0,.464.192q.033,0,.066,0a.657.657,0,0,0,.482-.291l4.214-6.381a.657.657,0,0,0-.186-.91Z" transform="translate(-339.936 -41.2)"/>
      <path id="Trazado_1009077" data-name="Trazado 1009077" d="M97.009,168.179h18.059a.657.657,0,1,0,0-1.313H97.009a.657.657,0,1,0,0,1.313Z" transform="translate(-84.874 -152.255)"/>
      <path id="Trazado_1009078" data-name="Trazado 1009078" d="M97.009,251.732h18.059a.657.657,0,1,0,0-1.313H97.009a.657.657,0,1,0,0,1.313Z" transform="translate(-84.874 -228.492)"/>
      <path id="Trazado_1009079" data-name="Trazado 1009079" d="M97.009,292.981h18.059a.657.657,0,1,0,0-1.313H97.009a.657.657,0,1,0,0,1.313Z" transform="translate(-84.874 -266.129)"/>
      <path id="Trazado_1009080" data-name="Trazado 1009080" d="M97.009,334.23h18.059a.657.657,0,1,0,0-1.313H97.009a.657.657,0,0,0,0,1.313Z" transform="translate(-84.874 -303.766)"/>
      <path id="Trazado_1009081" data-name="Trazado 1009081" d="M97.009,375.478h9.229a.657.657,0,0,0,0-1.313H97.009a.657.657,0,0,0,0,1.313Z" transform="translate(-84.874 -341.402)"/>
    </g>
  </g>
</svg>
