<svg id="Grupo_1180882" data-name="Grupo 1180882" xmlns="http://www.w3.org/2000/svg" width="84" height="160" viewBox="0 0 84 160">
  <rect id="Rectángulo_455021" data-name="Rectángulo 455021" width="84" height="160" rx="10" transform="translate(0 0)" fill="#99bfb7"/>
  <g id="Grupo_1178112" data-name="Grupo 1178112" transform="translate(10.001 48.629)">
    <path id="Trazado_998330" data-name="Trazado 998330" d="M62.159,42.142a3,3,0,1,1,0-4.24,3,3,0,0,1,0,4.24Z" transform="translate(0 0.002)" fill="#ff6b6b"/>
    <path id="Trazado_998331" data-name="Trazado 998331" d="M55.779,49.682,52.133,46.1A10.972,10.972,0,0,0,52.3,33.852l3.73-3.73a3.455,3.455,0,0,0,3.63-.81,3.5,3.5,0,1,0-5.97-2.49A3.414,3.414,0,0,0,53.9,28l-3.572,3.582A10.987,10.987,0,0,0,34.193,46.307L27.489,53a3.414,3.414,0,0,0-1.18-.21,3.5,3.5,0,1,0,3.3,2.33h.01l6.644-6.653a10.936,10.936,0,0,0,5.026,2.221v4.852a4,4,0,0,0,2.98,7.34,3.935,3.935,0,0,0,2.9-2.87,4.42,4.42,0,0,0,.12-1.01,3.98,3.98,0,0,0-2-3.46V50.627a10.967,10.967,0,0,0,4.842-2.335l.158.15,3.37,3.36a3.5,3.5,0,1,0,5.76-1.3,3.472,3.472,0,0,0-3.64-.82Z" transform="translate(0 0.002)" fill="#ff6b6b"/>
    <circle id="Elipse_13683" data-name="Elipse 13683" cx="7.458" cy="7.458" r="7.458" transform="translate(35.542 32.544)" fill="#e55555"/>
    <path id="Trazado_998332" data-name="Trazado 998332" d="M41,5.99V26.93a15.814,15.814,0,0,1-2.32,8.27,13.06,13.06,0,0,1-1.22,1.75,15.864,15.864,0,0,1-4.23,3.7L21,47.99,8.77,40.65A16,16,0,0,1,1,26.93V5.99s11,1,20-5C30,6.99,41,5.99,41,5.99Z" transform="translate(0 0.002)" fill="#41c2e0"/>
    <circle id="Elipse_13684" data-name="Elipse 13684" cx="2" cy="2" r="2" transform="translate(39.499 43.044)" fill="#e55555"/>
    <circle id="Elipse_13685" data-name="Elipse 13685" cx="1.5" cy="1.5" r="1.5" transform="translate(46.039 39.044)" fill="#e55555"/>
    <path id="Trazado_998333" data-name="Trazado 998333" d="M21,5.66a32.5,32.5,0,0,1-5,2.21c-.33.12-.67.23-1,.33A41.33,41.33,0,0,1,5,9.99V26.93a12.056,12.056,0,0,0,5.83,10.29L21,43.32l8.8-5.28,1.37-.82A12.06,12.06,0,0,0,37,26.93V9.99A38.213,38.213,0,0,1,21,5.66Z" transform="translate(0 0.002)" fill="#dbe9ee"/>
    <path id="Trazado_998334" data-name="Trazado 998334" d="M29.8,38.04,21,43.32l-10.17-6.1A12,12,0,0,1,5,26.925V9.99A41.33,41.33,0,0,0,15,8.2V23.24A14.8,14.8,0,0,0,29.8,38.04Z" transform="translate(0 0.002)" fill="#baced3"/>
    <path id="Trazado_998335" data-name="Trazado 998335" d="M29,22v4H23v6H19V26H13V22h6V16h4v6Z" transform="translate(0 0.002)" fill="#ff6b6b"/>
    <path id="Trazado_998336" data-name="Trazado 998336" d="M29,24v1.76H22.819v5.99H19V25.76H13V21.875h6v-5.54h2V23a1,1,0,0,0,1,1Z" transform="translate(0 0.002)" fill="#e55555"/>
    <path id="Trazado_998337" data-name="Trazado 998337" d="M10.315,38.077l10.17,6.1a1,1,0,0,0,1.029,0l10.17-6.1A13.065,13.065,0,0,0,38,26.93V9.99a1,1,0,0,0-.945-1A37.178,37.178,0,0,1,21.48,4.782a1,1,0,0,0-.959,0A37.185,37.185,0,0,1,4.945,8.992,1,1,0,0,0,4,9.99V26.93A13.067,13.067,0,0,0,10.315,38.077ZM6,10.926A39.033,39.033,0,0,0,21,6.8a39.033,39.033,0,0,0,15,4.131v16a11.057,11.057,0,0,1-5.345,9.432L21,42.154l-9.655-5.792A11.057,11.057,0,0,1,6,26.93Z" transform="translate(0 0.002)"/>
    <path id="Trazado_998338" data-name="Trazado 998338" d="M8.255,41.507l12.23,7.34a1,1,0,0,0,1.029,0l12.23-7.34A17.1,17.1,0,0,0,42,26.93V5.99a1.035,1.035,0,0,0-1.09-1C40.8,5,30.14,5.882,21.555.158a1.04,1.04,0,0,0-1.109,0C11.859,5.882,1.2,5.005,1.09,4.994A1.029,1.029,0,0,0,0,5.99V26.93A17.081,17.081,0,0,0,8.255,41.507ZM2,7.044A34.689,34.689,0,0,0,21,2.169,34.689,34.689,0,0,0,40,7.044V26.93a15.1,15.1,0,0,1-7.285,12.862L21,46.824,9.284,39.792A15.072,15.072,0,0,1,2,26.93Z" transform="translate(0 0.002)"/>
    <path id="Trazado_998339" data-name="Trazado 998339" d="M13,27h5v5a1,1,0,0,0,1,1h4a1,1,0,0,0,1-1V27h5a1,1,0,0,0,1-1V22a1,1,0,0,0-1-1H24V16a1,1,0,0,0-1-1H19a1,1,0,0,0-1,1v5H13a1,1,0,0,0-1,1v4A1,1,0,0,0,13,27Zm1-4h5a1,1,0,0,0,1-1V17h2v5a1,1,0,0,0,1,1h5v2H23a1,1,0,0,0-1,1v5H20V26a1,1,0,0,0-1-1H14Z" transform="translate(0 0.002)"/>
    <path id="Trazado_998340" data-name="Trazado 998340" d="M44.723,30.139A9.894,9.894,0,0,1,48.745,31.7l-.107.107a1,1,0,0,0,1.414,1.414l.983-.983s.007,0,.01-.008l0-.005,3.522-3.522a1.057,1.057,0,0,0,.229-1.049,2.5,2.5,0,1,1,1.523,1.524,1.038,1.038,0,0,0-1.086.278L51.6,33.1a1.065,1.065,0,0,0-.116,1.274,9.982,9.982,0,0,1-.014,11.294,1.179,1.179,0,0,0-.161.648,1.142,1.142,0,0,0,.277.623l3.451,3.451a1.106,1.106,0,0,0,1.05.231,2.5,2.5,0,1,1-1.523,1.525,1.078,1.078,0,0,0-.232-1.05l-4.519-4.519A1,1,0,0,0,48.4,47.992l.33.33A9.649,9.649,0,0,1,45.08,49.8a1.07,1.07,0,0,0-.83.984v4.76a1.12,1.12,0,0,0,.5.867,3.018,3.018,0,0,1,1.4,3.367A2.969,2.969,0,0,1,44,61.91a3,3,0,0,1-2.253-5.5,1.143,1.143,0,0,0,.5-.867V50.78a1.088,1.088,0,0,0-.813-.984,10.02,10.02,0,0,1-4.544-2.13,1,1,0,0,0-1.268,1.546,12.065,12.065,0,0,0,4.625,2.344V55.01a5.008,5.008,0,1,0,6,.007V51.563a11.676,11.676,0,0,0,3.9-1.813L52.5,52.1a4.5,4.5,0,1,0,3.533-3.535l-2.471-2.471a11.911,11.911,0,0,0,1.611-5.073h.965a3.993,3.993,0,1,0,6.686-3.829,4.1,4.1,0,0,0-5.656,0,3.956,3.956,0,0,0-1.03,1.829h-.964a11.924,11.924,0,0,0-1.6-5.073l2.714-2.714a4.436,4.436,0,0,0,.864.093,4.5,4.5,0,1,0-4.411-3.622l-2.57,2.57a11.875,11.875,0,0,0-5.155-2.115,1,1,0,0,0-.293,1.979ZM60,38.022a2,2,0,1,1-2,2.006s0,0,0-.007,0,0,0-.007A2,2,0,0,1,60,38.022Z" transform="translate(0 0.002)"/>
    <path id="Trazado_998341" data-name="Trazado 998341" d="M35.054,45.629a8.465,8.465,0,0,1-.6-.983,1,1,0,0,0-1.771.928c.092.176.187.339.282.5l-5.81,5.81a4.5,4.5,0,1,0,3.532,3.537l3.866-3.866a1,1,0,0,0-1.414-1.414L28.9,54.384a1.065,1.065,0,0,0-.266,1.077,2.475,2.475,0,0,1-.586,2.593,2.5,2.5,0,1,1-.937-4.114,1.1,1.1,0,0,0,1.054-.234l6.772-6.772a1.08,1.08,0,0,0,.12-1.305Z" transform="translate(0 0.002)"/>
    <path id="Trazado_998342" data-name="Trazado 998342" d="M45.005,34.026a1.005,1.005,0,1,0,1.005,1.005A1.008,1.008,0,0,0,45.005,34.026Z" transform="translate(0 0.002)"/>
    <path id="Trazado_998343" data-name="Trazado 998343" d="M38.464,45.037a3,3,0,1,0,3-3A3,3,0,0,0,38.464,45.037Zm4,0a1,1,0,1,1-1-1A1,1,0,0,1,42.464,45.037Z" transform="translate(0 0.002)"/>
    <path id="Trazado_998344" data-name="Trazado 998344" d="M47.5,43.037a2.5,2.5,0,1,0-2.5-2.5A2.5,2.5,0,0,0,47.5,43.037Zm0-3a.5.5,0,1,1-.5.5A.5.5,0,0,1,47.5,40.037Z" transform="translate(0 0.002)"/>
    <g id="Grupo_1178109" data-name="Grupo 1178109" transform="translate(32 15.799)">
      <path id="Trazado_998345" data-name="Trazado 998345" d="M32,15.8h2V19.75H32Z" transform="translate(-32 -15.797)" fill="#fff"/>
    </g>
    <g id="Grupo_1178110" data-name="Grupo 1178110" transform="translate(32 12.877)">
      <path id="Trazado_998346" data-name="Trazado 998346" d="M32,12.875h2v1.547H32Z" transform="translate(-32 -12.875)" fill="#fff"/>
    </g>
    <g id="Grupo_1178111" data-name="Grupo 1178111" transform="translate(24.837 25.401)">
      <circle id="Elipse_13686" data-name="Elipse 13686" cx="1.703" cy="1.703" r="1.703" transform="translate(16.665 31.976)" fill="#e55555"/>
      <circle id="Elipse_13687" data-name="Elipse 13687" cx="1.41" cy="1.41" r="1.41" transform="translate(0 29.519)" fill="#e55555"/>
      <circle id="Elipse_13688" data-name="Elipse 13688" cx="1.41" cy="1.41" r="1.41" transform="translate(30.721 26.191)" fill="#e55555"/>
      <circle id="Elipse_13689" data-name="Elipse 13689" cx="1.41" cy="1.41" r="1.41" transform="translate(30.945)" fill="#e55555"/>
      <circle id="Elipse_13690" data-name="Elipse 13690" cx="1.063" cy="1.063" r="1.063" transform="translate(34.1 13.575)" fill="#e55555"/>
    </g>
  </g>
</svg>
