<svg xmlns="http://www.w3.org/2000/svg" width="84" height="84" viewBox="0 0 84 84">
  <g id="Grupo_1179450" data-name="Grupo 1179450" transform="translate(-528.34 -353)">
    <rect id="Rectángulo_455021" data-name="Rectángulo 455021" width="84" height="84" rx="10" transform="translate(528.34 353)" fill="#99bfb7"/>
    <g id="Grupo_1183163" data-name="Grupo 1183163" transform="translate(535.041 309.672)">
      <path id="Trazado_1009057" data-name="Trazado 1009057" d="M256,115.407a23.677,23.677,0,0,0,10.93,2.655h7.8a11.1,11.1,0,0,0,11.1-11.1v-3.843a1.057,1.057,0,0,1,.584-.945l3.269-1.635a1.057,1.057,0,0,0,.407-1.532l-3.728-5.592a3.171,3.171,0,0,1-.533-1.759V86.875A21.35,21.35,0,0,0,256,67.292Z" transform="translate(-220.699 -6.471)" fill="#d78878"/>
      <path id="Trazado_1009058" data-name="Trazado 1009058" d="M290.086,166.775l-3.728-5.592a3.171,3.171,0,0,1-.533-1.759v-4.785a21.241,21.241,0,0,0-2.758-10.5v15.285a5.91,5.91,0,0,0,1,3.288l2.226,3.339a.69.69,0,0,1-.265,1l-.847.424a3.814,3.814,0,0,0-2.109,3.412v3.844a8.339,8.339,0,0,1-8.339,8.339H256v.1a23.677,23.677,0,0,0,10.93,2.655h7.8a11.1,11.1,0,0,0,11.1-11.1v-3.843a1.057,1.057,0,0,1,.584-.945l3.269-1.635A1.057,1.057,0,0,0,290.086,166.775Z" transform="translate(-220.699 -74.235)" fill="#ca6e59"/>
      <path id="Trazado_1009059" data-name="Trazado 1009059" d="M41.764,115.405a23.677,23.677,0,0,1-10.93,2.655h-7.8a11.1,11.1,0,0,1-11.1-11.1V103.12a1.057,1.057,0,0,0-.584-.945L8.083,100.54a1.057,1.057,0,0,1-.407-1.532L11.4,93.417a3.171,3.171,0,0,0,.533-1.759V86.873A21.35,21.35,0,0,1,41.764,67.29Z" transform="translate(-6.465 -6.469)" fill="#ffe5c2"/>
      <path id="Trazado_1009060" data-name="Trazado 1009060" d="M82.186,407.263H67.063a11.055,11.055,0,0,0,7.322,2.758h7.8a23.678,23.678,0,0,0,10.93-2.655v-3.173A20.9,20.9,0,0,1,82.186,407.263Z" transform="translate(-57.817 -298.429)" fill="#fed2a4"/>
      <path id="Trazado_1009061" data-name="Trazado 1009061" d="M188.509,105.257V97.849a21.344,21.344,0,0,0-12.85-19.583,21.344,21.344,0,0,0-12.85,19.583v7.408a23.778,23.778,0,0,0,12.85,21.124A23.778,23.778,0,0,0,188.509,105.257Z" transform="translate(-140.361 -17.446)" fill="#ffbd86"/>
      <path id="Trazado_1009062" data-name="Trazado 1009062" d="M248.408,144.14v17.908a21.055,21.055,0,0,1-12.92,19.4,23.768,23.768,0,0,0,2.828,1.727,23.777,23.777,0,0,0,12.85-21.124V154.64A21.241,21.241,0,0,0,248.408,144.14Z" transform="translate(-203.018 -74.236)" fill="#f6a96c"/>
      <path id="Trazado_1009063" data-name="Trazado 1009063" d="M210.991,216.648a4.818,4.818,0,0,0-8.284-2.958.37.37,0,0,1-.537,0,4.818,4.818,0,1,0-6.637,6.973h0l6.427,5.582a.73.73,0,0,0,.957,0l6.427-5.582h0a4.81,4.81,0,0,0,1.646-4.015Z" transform="translate(-167.141 -132.915)" fill="#e94444"/>
      <path id="Trazado_1009064" data-name="Trazado 1009064" d="M250.966,216.921a4.839,4.839,0,0,0-4.151-4.4,4.809,4.809,0,0,1-.253,7.035h0l-6.321,5.49,1.694,1.471a.73.73,0,0,0,.957,0l6.427-5.582h0A4.811,4.811,0,0,0,250.966,216.921Z" transform="translate(-207.115 -133.189)" fill="#d83131"/>
      <path id="Trazado_1009065" data-name="Trazado 1009065" d="M70.247,91.965,66.52,86.374a2.13,2.13,0,0,1-.359-1.185V80.4a22.276,22.276,0,0,0-3.7-12.33,1.034,1.034,0,1,0-1.725,1.141A20.215,20.215,0,0,1,64.092,80.4v4.785a4.193,4.193,0,0,0,.706,2.332l3.728,5.592a.019.019,0,0,1,0,.018.019.019,0,0,1-.012.014L65.248,94.78a2.08,2.08,0,0,0-1.156,1.87v2.635H61.885a8.292,8.292,0,0,0-5.9,2.445,1.034,1.034,0,0,0,1.463,1.462,6.236,6.236,0,0,1,4.439-1.839h2.171a10.077,10.077,0,0,1-10.026,9.2h-7.8a22.506,22.506,0,0,1-8.683-1.714A24.735,24.735,0,0,0,49.182,87.811V80.4A22.374,22.374,0,0,0,37.9,60.965a20.346,20.346,0,0,1,19.852,4.7,1.034,1.034,0,0,0,1.422-1.5A22.4,22.4,0,0,0,35.3,59.7a22.453,22.453,0,0,0-16.568-.164,1.034,1.034,0,0,0,.747,1.929,20.419,20.419,0,0,1,13.223-.5A22.373,22.373,0,0,0,21.415,80.4v7.408a24.668,24.668,0,0,0,1.9,9.527,1.034,1.034,0,0,0,1.91-.795,22.613,22.613,0,0,1-1.736-8.733V80.4A20.306,20.306,0,0,1,35.3,61.952,20.307,20.307,0,0,1,47.114,80.4v7.408A22.682,22.682,0,0,1,35.3,107.763a22.922,22.922,0,0,1-7.82-7.072,1.034,1.034,0,1,0-1.7,1.173,25.012,25.012,0,0,0,7.279,6.978,22.506,22.506,0,0,1-8.685,1.715h-7.8a10.077,10.077,0,0,1-10.027-9.2H8.712a6.237,6.237,0,0,1,4.439,1.839,1.034,1.034,0,1,0,1.463-1.462,8.292,8.292,0,0,0-5.9-2.445H6.5V96.651a2.079,2.079,0,0,0-1.156-1.87L2.079,93.146a.019.019,0,0,1-.012-.014.019.019,0,0,1,0-.018L5.8,87.521A4.192,4.192,0,0,0,6.5,85.189V80.4a20.3,20.3,0,0,1,8.912-16.81,1.034,1.034,0,0,0-1.162-1.711A22.371,22.371,0,0,0,4.436,80.4v4.785a2.129,2.129,0,0,1-.359,1.185L.35,91.966a2.091,2.091,0,0,0,.8,3.03L4.424,96.63a.022.022,0,0,1,.013.02v3.844a12.145,12.145,0,0,0,12.131,12.131h7.8a24.9,24.9,0,0,0,10.93-2.531,24.9,24.9,0,0,0,10.93,2.531h7.8a12.145,12.145,0,0,0,12.131-12.131V96.651a.022.022,0,0,1,.013-.02L69.443,95a2.091,2.091,0,0,0,.8-3.03Z" transform="translate(0)"/>
      <path id="Trazado_1009066" data-name="Trazado 1009066" d="M200.093,204.717a5.852,5.852,0,0,0-4.122,1.346,5.853,5.853,0,0,0-7.584,8.916l6.427,5.582a1.773,1.773,0,0,0,2.314,0l6.427-5.582a5.853,5.853,0,0,0-3.462-10.261Zm2.106,8.7-6.228,5.409-6.228-5.409a3.784,3.784,0,0,1,2.235-6.635q.12-.007.24-.007a3.785,3.785,0,0,1,2.738,1.166,1.4,1.4,0,0,0,2.03,0,3.784,3.784,0,1,1,5.213,5.476Z" transform="translate(-160.673 -126.45)"/>
    </g>
  </g>
</svg>
