<svg xmlns="http://www.w3.org/2000/svg" width="291" height="165" viewBox="0 0 291 165">
  <g id="_12427667_4962287" data-name="12427667_4962287" transform="translate(22)">
    <g id="BACKGROUND" transform="translate(-22.15)">
      <rect id="Rectángulo_456281" data-name="Rectángulo 456281" width="291" height="165" transform="translate(0.15)" fill="#ffbdb6"/>
    </g>
    <g id="OBJECTS" transform="translate(11.697 15.371)">
      <g id="Grupo_1183474" data-name="Grupo 1183474">
        <g id="Grupo_1183434" data-name="Grupo 1183434" transform="translate(2.238 1.149)">
          <g id="Grupo_1183430" data-name="Grupo 1183430" transform="translate(26.223 32.01)">
            <path id="Trazado_1010009" data-name="Trazado 1010009" d="M141.193,185.826a19.2,19.2,0,1,1,19.2-19.2A19.222,19.222,0,0,1,141.193,185.826Zm0-38.154a18.954,18.954,0,1,0,18.954,18.954A18.975,18.975,0,0,0,141.193,147.672Z" transform="translate(-121.992 -147.425)" fill="#7baefa"/>
            <path id="Trazado_1010010" data-name="Trazado 1010010" d="M156.239,191.32H147.72v-9.648h-9.647v-8.519h9.647v-9.648h8.519v9.648h9.647v8.519h-9.647Zm-8.272-.247h8.025v-9.648h9.647V173.4h-9.647v-9.648h-8.025V173.4H138.32v8.025h9.648Z" transform="translate(-132.779 -158.212)" fill="#7baefa"/>
          </g>
          <g id="Grupo_1183431" data-name="Grupo 1183431" transform="translate(134.999 31.51)">
            <path id="Trazado_1010011" data-name="Trazado 1010011" d="M469.876,192.18H452.43v-23.6h17.446Zm-17.2-.247h16.952V168.825H452.677Z" transform="translate(-452.43 -161.115)" fill="#7baefa"/>
            <rect id="Rectángulo_456282" data-name="Rectángulo 456282" width="24.108" height="0.247" transform="translate(24.219 7.463)" fill="#7baefa"/>
            <rect id="Rectángulo_456283" data-name="Rectángulo 456283" width="24.108" height="0.247" transform="translate(11.325)" fill="#7baefa"/>
            <rect id="Rectángulo_456284" data-name="Rectángulo 456284" width="24.108" height="0.247" transform="translate(24.219 22.102)" fill="#7baefa"/>
            <rect id="Rectángulo_456285" data-name="Rectángulo 456285" width="24.108" height="0.247" transform="translate(24.219 26.46)" fill="#7baefa"/>
            <rect id="Rectángulo_456286" data-name="Rectángulo 456286" width="24.108" height="0.247" transform="translate(24.219 30.818)" fill="#7baefa"/>
            <rect id="Rectángulo_456287" data-name="Rectángulo 456287" width="15.807" height="0.247" transform="translate(32.521 13.054)" fill="#7baefa"/>
          </g>
          <g id="Grupo_1183432" data-name="Grupo 1183432" transform="translate(194.796 45.11)">
            <circle id="Elipse_13950" data-name="Elipse 13950" cx="10.877" cy="10.877" r="10.877" fill="#7baefa"/>
            <path id="Trazado_1010012" data-name="Trazado 1010012" d="M658.967,201.888h-5.5v-5.5H648.75v5.5h-5.5V206.6h5.5v5.5h4.716v-5.5h5.5Z" transform="translate(-640.232 -193.37)" fill="#fff"/>
          </g>
          <path id="Trazado_1010013" data-name="Trazado 1010013" d="M636.693,205.227a14.464,14.464,0,0,1-1.954-.264l.049-.242a14.293,14.293,0,0,0,1.921.26Zm1.971,0-.017-.246a14.18,14.18,0,0,0,1.92-.263l.05.242A14.351,14.351,0,0,1,638.665,205.225Zm-5.827-.791a14.457,14.457,0,0,1-1.81-.785l.113-.219a14.341,14.341,0,0,0,1.78.771Zm9.679-.009-.083-.233a14.2,14.2,0,0,0,1.777-.775l.114.219A14.544,14.544,0,0,1,642.517,204.425Zm-13.175-1.8a14.589,14.589,0,0,1-1.531-1.244l.169-.181a14.4,14.4,0,0,0,1.5,1.223Zm16.665-.014-.143-.2a14.388,14.388,0,0,0,1.5-1.225l.169.18A14.556,14.556,0,0,1,646.008,202.61Zm-19.544-2.669a14.493,14.493,0,0,1-1.141-1.608l.211-.129a14.248,14.248,0,0,0,1.121,1.58Zm22.418-.018-.192-.156a14.263,14.263,0,0,0,1.119-1.583l.211.128A14.535,14.535,0,0,1,648.881,199.923Zm-24.47-3.338a14.35,14.35,0,0,1-.664-1.857l.238-.067a14.037,14.037,0,0,0,.652,1.825Zm26.517-.025-.227-.1a14.136,14.136,0,0,0,.649-1.828l.238.066A14.358,14.358,0,0,1,650.928,196.561ZM623.346,192.8a14.6,14.6,0,0,1-.137-1.967h.247a14.441,14.441,0,0,0,.134,1.934Zm28.642-.027-.244-.034a14.374,14.374,0,0,0,.13-1.934v-.055h.247v.053A14.706,14.706,0,0,1,651.988,192.771ZM623.583,188.9l-.245-.033a14.543,14.543,0,0,1,.4-1.932l.238.066A14.215,14.215,0,0,0,623.583,188.9Zm28.153-.082a14.238,14.238,0,0,0-.4-1.9l.237-.067a14.36,14.36,0,0,1,.406,1.93Zm-27.119-3.646-.227-.1a14.374,14.374,0,0,1,.905-1.753l.211.128A14.274,14.274,0,0,0,624.617,185.169Zm26.064-.074a14.152,14.152,0,0,0-.9-1.716l.21-.129a14.438,14.438,0,0,1,.914,1.746Zm-24.058-3.234-.192-.156a14.592,14.592,0,0,1,1.343-1.444l.169.18A14.391,14.391,0,0,0,626.622,181.861Zm22.036-.06a14.363,14.363,0,0,0-1.328-1.412l.168-.181a14.553,14.553,0,0,1,1.351,1.437Zm-19.216-2.586-.143-.2a14.5,14.5,0,0,1,1.68-1.03l.115.219A14.259,14.259,0,0,0,629.442,179.214Zm16.381-.045a14.212,14.212,0,0,0-1.659-1l.113-.22a14.54,14.54,0,0,1,1.688,1.021Zm-12.953-1.745-.084-.232a14.429,14.429,0,0,1,1.9-.536l.051.242A14.135,14.135,0,0,0,632.87,177.424Zm9.514-.027a14.144,14.144,0,0,0-1.87-.516l.049-.242a14.388,14.388,0,0,1,1.9.526Zm-5.729-.767-.017-.246a14.707,14.707,0,0,1,1.971-.006l-.016.246A14.533,14.533,0,0,0,636.655,176.63Z" transform="translate(-431.992 -134.817)" fill="#7baefa"/>
          <path id="Trazado_1010014" data-name="Trazado 1010014" d="M173.225,86.547,163.186,66.571l-2.237,3.581H141.4l-4.684,5.58-6.939-18.958-7.833,29.773L111.9,66.571l-2.237,3.581H86.515l-4.684,5.58L74.893,56.775,67.06,86.547,57.021,66.571l-2.237,3.581H42.333V68.177H53.688l3.519-5.633,9.272,18.448,8.105-30.808,7.929,21.664,3.082-3.671H108.57l3.519-5.633,9.272,18.448,8.105-30.808L137.4,71.849l3.082-3.671h19.377l3.519-5.633,9.271,18.448,8.1-30.808,7.929,21.664,3.082-3.671h22.976l3.519-5.633,9.272,18.448,8.105-30.808,7.929,21.664,3.082-3.671h14.711v1.975h-13.79l-4.684,5.58L235.94,56.775l-7.833,29.773-10.04-19.976-2.237,3.581h-23.15L188,75.733l-6.939-18.958Z" transform="translate(-42.333 -50.185)" fill="#7baefa"/>
          <g id="Grupo_1183433" data-name="Grupo 1183433" transform="translate(2.86 48.327)">
            <path id="Trazado_1010015" data-name="Trazado 1010015" d="M66.168,330.758h0a9.173,9.173,0,0,1-9.146-9.146V275.945H75.314v45.667A9.173,9.173,0,0,1,66.168,330.758Z" transform="translate(-55.047 -249.954)" fill="#7baefa"/>
            <path id="Trazado_1010016" data-name="Trazado 1010016" d="M69.823,346.1h0a7.374,7.374,0,0,1-7.352-7.352v-36.71h14.7v36.71A7.374,7.374,0,0,1,69.823,346.1Z" transform="translate(-58.702 -267.456)" fill="#5672c3"/>
            <path id="Trazado_1010017" data-name="Trazado 1010017" d="M71.513,274.128H52.773a1.756,1.756,0,0,1-1.751-1.751h0a1.756,1.756,0,0,1,1.751-1.751h18.74a1.756,1.756,0,0,1,1.751,1.751h0A1.756,1.756,0,0,1,71.513,274.128Z" transform="translate(-51.022 -246.386)" fill="#7baefa"/>
            <rect id="Rectángulo_456288" data-name="Rectángulo 456288" width="18.292" height="0.165" transform="translate(1.975 27.66)" fill="#3a70bf"/>
            <rect id="Rectángulo_456289" data-name="Rectángulo 456289" width="0.658" height="28.908" transform="translate(16.859 36.546)" fill="#fff"/>
            <rect id="Rectángulo_456290" data-name="Rectángulo 456290" width="0.658" height="3.195" transform="translate(16.859 30.064)" fill="#fff"/>
            <circle id="Elipse_13951" data-name="Elipse 13951" cx="2.132" cy="2.132" r="2.132" transform="translate(6.034 17.318)" fill="#7baefa"/>
            <path id="Trazado_1010018" data-name="Trazado 1010018" d="M98.27,242.669A1.471,1.471,0,1,1,96.8,241.2,1.471,1.471,0,0,1,98.27,242.669Z" transform="translate(-80.742 -226.646)" fill="#7baefa"/>
            <circle id="Elipse_13952" data-name="Elipse 13952" cx="1.132" cy="1.132" r="1.132" transform="translate(7.662 10.411)" fill="#7baefa"/>
            <circle id="Elipse_13953" data-name="Elipse 13953" cx="0.8" cy="0.8" r="0.8" transform="translate(12.556 7.517)" fill="#7baefa"/>
            <path id="Trazado_1010019" data-name="Trazado 1010019" d="M84.492,197.791a.8.8,0,1,1-.8-.8A.8.8,0,0,1,84.492,197.791Z" transform="translate(-72.4 -196.991)" fill="#7baefa"/>
            <path id="Trazado_1010020" data-name="Trazado 1010020" d="M86.453,237.614a.566.566,0,1,1-.566-.566A.566.566,0,0,1,86.453,237.614Z" transform="translate(-74.03 -223.862)" fill="#7baefa"/>
          </g>
          <path id="Trazado_1010021" data-name="Trazado 1010021" d="M681.286,288.589a3.208,3.208,0,0,1-3.2-3.2c0-1.707,2.965-8.687,3.091-8.983l.114-.267.114.267c.126.3,3.091,7.276,3.091,8.983A3.209,3.209,0,0,1,681.286,288.589Zm0-11.821c-.556,1.326-2.958,7.144-2.958,8.617a2.958,2.958,0,0,0,5.915,0C684.243,283.912,681.842,278.094,681.286,276.768Z" transform="translate(-468.801 -201.755)" fill="#7baefa"/>
        </g>
        <g id="Grupo_1183436" data-name="Grupo 1183436" transform="translate(13.463 68.044)">
          <path id="Trazado_1010022" data-name="Trazado 1010022" d="M83.358,289.512c2.6-1.444,4.358,0,4.217,1.83-.23,2.2-5.664,10.847-6.121,11.4-2.549,3.816-5.537,1.867-4.946-1.438C76.311,299.452,79.967,291.4,83.358,289.512Z" transform="translate(-76.432 -277.229)" fill="#fff"/>
          <path id="Trazado_1010023" data-name="Trazado 1010023" d="M125.487,433.932a5.05,5.05,0,0,0,1.777,1.337c.786.2,1.92.42,1.908,1.633h-7.212a4.708,4.708,0,0,1,.667-2.6,4.445,4.445,0,0,0,1.111.059C124.065,434.232,125.06,433.6,125.487,433.932Z" transform="translate(-106.972 -374.438)" fill="#fff"/>
          <path id="Trazado_1010024" data-name="Trazado 1010024" d="M102.356,434.861s.282.943.94,1.1c.785.2,1.613.42,1.6,1.633H98.914a4.924,4.924,0,0,1,.621-2.647,5.123,5.123,0,0,0,1.156.1C101.02,434.923,101.928,434.527,102.356,434.861Z" transform="translate(-91.513 -375.038)" fill="#fff"/>
          <path id="Trazado_1010025" data-name="Trazado 1010025" d="M126.142,292.338c-.47-2.867.963-4.209,2.694-3.717,2.37.474,8.985,7.266,9.641,8.134,3.117,3.206.579,5.712-2.477,4.5C133.735,301.238,126.765,296.14,126.142,292.338Z" transform="translate(-109.717 -276.959)" fill="#fff"/>
          <path id="Trazado_1010026" data-name="Trazado 1010026" d="M111.208,278.592c1.526.835,2.949,1.052,4.16,0v-5.759h-4.159Z" transform="translate(-99.76 -266.435)" fill="#fca886"/>
          <path id="Trazado_1010027" data-name="Trazado 1010027" d="M109.265,287.025l-.954.065c4.474,16.434,6.132,11.538,6.493.11l-1.38-.175C112.347,287.741,110.914,287.633,109.265,287.025Z" transform="translate(-97.817 -275.955)" fill="#7baefa"/>
          <path id="Trazado_1010028" data-name="Trazado 1010028" d="M99.355,342.855l9.722-.23c.448.578,2.659,10.02,2.391,16.194a113.729,113.729,0,0,1-1.945,14.6,10.022,10.022,0,0,1-4,.287,70.517,70.517,0,0,1,.594-14.634c-.872-2.988-1.845-9.852-1.845-9.852l-2.739,24.392a8.4,8.4,0,0,1-3.777-.194C95.51,345.264,99.355,342.855,99.355,342.855Z" transform="translate(-90.263 -313.253)" fill="#181818"/>
          <path id="Trazado_1010029" data-name="Trazado 1010029" d="M116.663,355.556l-.327-.042.215-1.658.107-.028a5.707,5.707,0,0,0,2.684-1.554l.241.224a6.019,6.019,0,0,1-2.734,1.62Z" transform="translate(-103.2 -319.725)" fill="#377dd1"/>
          <path id="Trazado_1010030" data-name="Trazado 1010030" d="M101.148,350.387l-.047-.326a2.257,2.257,0,0,0,1.885-1.637l.324.059A2.631,2.631,0,0,1,101.148,350.387Z" transform="translate(-92.98 -317.143)" fill="#377dd1"/>
          <path id="Trazado_1010031" data-name="Trazado 1010031" d="M106.952,287.921c-1.1-.981-3.955-1.044-3.955-1.044a33.233,33.233,0,0,1-.709,9.043,41.228,41.228,0,0,0-3.844-9.031s-2.7-.073-4.131,1.114c-2.837,2.539-.724,8.391-.791,16.163,0,0-1.389,5.924-.941,18.347.634.34,5.065.485,9.044.47.542-2.554.922-10.766.922-10.766s.319,7.959.2,10.754c3.238-.045,6.071-.2,6.406-.438C109.29,322.456,108.032,288.91,106.952,287.921Z" transform="translate(-87.205 -275.856)" fill="#fff"/>
          <path id="Trazado_1010032" data-name="Trazado 1010032" d="M108.762,283.3a2.7,2.7,0,0,0-1.2,1.225l1.861,1.553-.661-1.6Z" transform="translate(-97.314 -273.46)" fill="#fff"/>
          <path id="Trazado_1010033" data-name="Trazado 1010033" d="M123.842,283.3a2.7,2.7,0,0,1,1.2,1.225l-.936,1.848a10.324,10.324,0,0,0-.265-1.9Z" transform="translate(-108.235 -273.46)" fill="#fff"/>
          <path id="Trazado_1010034" data-name="Trazado 1010034" d="M111.294,296.044a.082.082,0,0,1-.071-.04,26.2,26.2,0,0,0-4.985-6.618.082.082,0,0,1-.028-.074.081.081,0,0,1,.047-.064l.933-.432-1.223-.539a.082.082,0,0,1-.044-.1l.459-1.236.154.057-.432,1.163,1.318.581a.082.082,0,0,1,0,.15l-.982.454a26.579,26.579,0,0,1,4.841,6.439,26.788,26.788,0,0,0,2.184-7.065l-.809-.45a.082.082,0,0,1-.042-.066.083.083,0,0,1,.032-.071l.536-.412-.243-.725.156-.052.262.78a.082.082,0,0,1-.028.091l-.483.372.75.417a.083.083,0,0,1,.041.084A27.1,27.1,0,0,1,111.37,296a.082.082,0,0,1-.07.049Z" transform="translate(-96.212 -275.897)" fill="#92bbf4"/>
          <path id="Trazado_1010035" data-name="Trazado 1010035" d="M122.381,331.034l-.164-.011A87.329,87.329,0,0,0,122,314.34l.164-.018A87.469,87.469,0,0,1,122.381,331.034Z" transform="translate(-106.999 -294.267)" fill="#92bbf4"/>
          <path id="Trazado_1010036" data-name="Trazado 1010036" d="M94.561,313.32a31.259,31.259,0,0,1-.027-5.363c.021-.382.042-.762.059-1.142l.164.008c-.017.38-.038.761-.059,1.144a31.1,31.1,0,0,0,.026,5.335Z" transform="translate(-88.506 -289.231)" fill="#92bbf4"/>
          <path id="Trazado_1010037" data-name="Trazado 1010037" d="M139.368,310.17l-.164-.008c.051-1.016.08-2.684.063-3.642l.165,0C139.448,307.478,139.419,309.151,139.368,310.17Z" transform="translate(-118.54 -289.031)" fill="#92bbf4"/>
          <path id="Trazado_1010038" data-name="Trazado 1010038" d="M108.115,265.206c-1.956-1.523-1.76-6.358.194-6.714l6.221,1.417s.664.813-.516,3.543Z" transform="translate(-96.764 -256.815)" fill="#181818"/>
          <path id="Trazado_1010039" data-name="Trazado 1010039" d="M109.614,264.226a3.335,3.335,0,0,0,4.007,1.738,3.825,3.825,0,0,0,1.556-1.666,52.637,52.637,0,0,0,.825-5.709l-4.271-1.558-1.128.461-.755,1.06-.341,1.2a8.093,8.093,0,0,0-.521,2.781A6.5,6.5,0,0,0,109.614,264.226Z" transform="translate(-98.263 -255.835)" fill="#fca886"/>
          <path id="Trazado_1010040" data-name="Trazado 1010040" d="M109.838,259.23c.692-.057,1.032-1.735,1.282-3a11.4,11.4,0,0,0,5.116.647c.692.1,2.346-2.967-1.122-3.4-2.826-.4-5.433.774-5.154,1.983l-.541,3.041Z" transform="translate(-98.56 -253.398)" fill="#181818"/>
          <g id="Grupo_1183435" data-name="Grupo 1183435" transform="translate(9.788 4.008)">
            <path id="Trazado_1010041" data-name="Trazado 1010041" d="M107.836,266.065l-.019-.034a.973.973,0,0,0-.277-.325.829.829,0,0,0-.828-.044c-1.1.565-.382,2.71.747,2.628C107.924,268.176,108.033,266.434,107.836,266.065Z" transform="translate(-106.166 -265.573)" fill="#fca886"/>
          </g>
          <path id="Trazado_1010042" data-name="Trazado 1010042" d="M115.489,282.416a3.163,3.163,0,0,1-.929-.144,2.3,2.3,0,0,1-1.4-1.032l.146-.075a2.163,2.163,0,0,0,1.3.95,2.517,2.517,0,0,0,1.891-.1l.078.145A2.286,2.286,0,0,1,115.489,282.416Z" transform="translate(-101.071 -272.024)" fill="#d66947"/>
        </g>
        <g id="Grupo_1183439" data-name="Grupo 1183439" transform="translate(63.983 45.688)">
          <g id="Grupo_1183437" data-name="Grupo 1183437" transform="translate(13.373 11.859)">
            <path id="Trazado_1010043" data-name="Trazado 1010043" d="M270.525,223.739c-.059,1.311,1.559,1.639,1.748,1.712a10.865,10.865,0,0,0,3.458.09c.642-.029.638-.552.45-.578-.093,0,.352-.01.442-.014.8-.064.616-.674.3-.733.626.056.732-.626.332-.693.452-.01.523-.638-.137-.743-.361-.09-3.425-.333-3.425-.333.034-.275,1.224-.156,1.385-.822a.116.116,0,0,0-.113-.115,7.038,7.038,0,0,0-3.161.737A1.865,1.865,0,0,0,270.525,223.739Z" transform="translate(-270.523 -221.51)" fill="#f6a97e"/>
            <rect id="Rectángulo_456291" data-name="Rectángulo 456291" width="0.165" height="1.832" transform="translate(3.788 3.426) rotate(-85.739)" fill="#d1655f"/>
            <rect id="Rectángulo_456292" data-name="Rectángulo 456292" width="0.165" height="2.432" transform="translate(3.955 2.715) rotate(-87.885)" fill="#d1655f"/>
            <rect id="Rectángulo_456293" data-name="Rectángulo 456293" width="0.165" height="2.691" transform="translate(4.035 1.93) rotate(-86.549)" fill="#d1655f"/>
            <path id="Trazado_1010044" data-name="Trazado 1010044" d="M277.248,225.908l-.038-.16a1.2,1.2,0,0,0,.885-1.4l.162-.028A1.379,1.379,0,0,1,277.248,225.908Z" transform="translate(-275.009 -223.393)" fill="#d1655f"/>
          </g>
          <g id="Grupo_1183438" data-name="Grupo 1183438">
            <path id="Trazado_1010045" data-name="Trazado 1010045" d="M236.8,195.468a33.431,33.431,0,0,1,8.279,2.163,5.1,5.1,0,0,1-.88,3.642s-9.918.6-11.5-1.729c-1.518-1.995-2.805-12.046-2.805-12.046s3.58-1.938,3.647-1.958,2.619-.056,2.619-.056l.081,2.583A38.9,38.9,0,0,1,236.8,195.468Z" transform="translate(-229.899 -185.486)" fill="#fff"/>
            <path id="Trazado_1010046" data-name="Trazado 1010046" d="M246.664,217.079l-.044-.158a2.024,2.024,0,0,0,1.356-1.26l.158.046A2.15,2.15,0,0,1,246.664,217.079Z" transform="translate(-241.116 -205.728)" fill="#181818"/>
          </g>
        </g>
        <g id="Grupo_1183449" data-name="Grupo 1183449" transform="translate(30.028)">
          <path id="Trazado_1010047" data-name="Trazado 1010047" d="M348.622,86.925c-3.915-6.841-7.092-16.006-7.235-20.024a22.912,22.912,0,0,0-2.812-12.01c-3.115-5.176-9.518-8.177-15.4-8.2-5.288-.017-12.352.874-14.582,8.245-.094.309-2.285,1.382-2.67,1.746-3.474,3.283-3.2,8.911-4.036,13.273a38.086,38.086,0,0,1-6.038,15.064c-6.093,8.6-14.012,17.014-1.137,36.742,10.408,15.948,22.958,16.917,27.386,16.7,4.428.214,16.978-.755,27.386-16.7C362.356,102.036,354.715,95.527,348.622,86.925Z" transform="translate(-234.781 -46.694)" fill="#181818"/>
          <path id="Trazado_1010048" data-name="Trazado 1010048" d="M260,248.65c-14.4,15.282,9.542,27.524,15.562,10.458,7.774-8.2,11.033-20.1,14.59-34.041,4.75-13.385-14.6-20.387-20.064-6.946C266.17,227.438,264.67,232.106,260,248.65Z" transform="translate(-213.095 -156.834)" fill="#fa754a"/>
          <g id="Grupo_1183441" data-name="Grupo 1183441" transform="translate(0 93.308)">
            <path id="Trazado_1010049" data-name="Trazado 1010049" d="M215.133,330.485l-29.358,11.391,2.919,11.628,31.972-6.876C231.207,343.5,225.277,327.631,215.133,330.485Z" transform="translate(-166.346 -330.143)" fill="#f6a97e"/>
            <g id="Grupo_1183440" data-name="Grupo 1183440" transform="translate(0 6.328)">
              <path id="Trazado_1010050" data-name="Trazado 1010050" d="M149.519,365.992s-.185,1.178-3.054,2.138c-5.057,1.64-12.393,1.215-12.393,1.215-3.034-.349-3.177-2.226-2.04-2.662-4.135,1.167-5.1-2.085-2.987-2.7-2.877.471-2.983-2.872-.665-2.794l.043-.1c-2.085-.086-2.16-3.356.888-3.528l11.659-2.138c-.607-.207-5.923-3.112-3.89-6.056,0,0,6.3,3,8.509,4.254a11.342,11.342,0,0,1,2.885,1.943C151.37,359.185,150.517,364.56,149.519,365.992Z" transform="translate(-126.753 -349.365)" fill="#f6a97e"/>
              <path id="Trazado_1010051" data-name="Trazado 1010051" d="M163.022,382.646c-4.452-7.79-3.034-10.2-2.972-10.3l.209.132-.1-.066.1.065c-.014.023-1.379,2.427,2.977,10.048Z" transform="translate(-148.912 -364.78)" fill="#d66947"/>
              <rect id="Rectángulo_456294" data-name="Rectángulo 456294" width="9.74" height="0.247" transform="translate(2.271 14.495) rotate(-10.958)" fill="#d66947"/>
              <rect id="Rectángulo_456295" data-name="Rectángulo 456295" width="8.806" height="0.247" transform="matrix(0.98, -0.198, 0.198, 0.98, 4.393, 17.373)" fill="#d66947"/>
              <rect id="Rectángulo_456296" data-name="Rectángulo 456296" width="9.946" height="0.247" transform="translate(1.459 11.552) rotate(-10.737)" fill="#d66947"/>
              <path id="Trazado_1010052" data-name="Trazado 1010052" d="M173.7,372.045c-4.874-1-4.838-4.254-4.837-4.287l.247.007c0,.125-.022,3.083,4.64,4.039Z" transform="translate(-155.003 -361.703)" fill="#d66947"/>
              <path id="Trazado_1010053" data-name="Trazado 1010053" d="M195.239,389.4l-.21-.13a7.426,7.426,0,0,0,1.214-5.385l.239-.063A7.547,7.547,0,0,1,195.239,389.4Z" transform="translate(-172.553 -372.477)" fill="#d66947"/>
              <path id="Trazado_1010054" data-name="Trazado 1010054" d="M187.872,364.5a3.609,3.609,0,0,0-1.363-.93l.082-.233a3.8,3.8,0,0,1,1.47,1Z" transform="translate(-166.838 -358.74)" fill="#d66947"/>
            </g>
          </g>
          <path id="Trazado_1010055" data-name="Trazado 1010055" d="M524.674,374.034H508.559c-4.279,0-10.242-.877-14.346-5.057-3.336-3.4-4.623-7.576-3.531-11.466a14.672,14.672,0,0,1,1.647-3.468c.3-.5.6-1.024.869-1.547a6.473,6.473,0,0,0,.8-4.646c-.651-2.542-2.839-4.657-5.106-6.565l.848-1.008c2.435,2.049,4.79,4.344,5.534,7.246a7.7,7.7,0,0,1-.9,5.569c-.283.559-.6,1.1-.908,1.619a13.485,13.485,0,0,0-1.514,3.155c-.961,3.423.207,7.136,3.2,10.187,3.784,3.854,9.379,4.663,13.406,4.663h16.115v1.316Z" transform="translate(-369.679 -243.633)" fill="#181818"/>
          <path id="Trazado_1010056" data-name="Trazado 1010056" d="M321.576,180.72a20.412,20.412,0,0,1-.243-3.658,15.374,15.374,0,0,1,1.65-5.85,28.238,28.238,0,0,0,1.192-3.067,22.72,22.72,0,0,0,.846-5.044l.246.017a22.943,22.943,0,0,1-.856,5.1,28.368,28.368,0,0,1-1.2,3.094,14.964,14.964,0,0,0-1.629,5.757,20.2,20.2,0,0,0,.24,3.613Z" transform="translate(-257.277 -124.781)" fill="#666"/>
          <path id="Trazado_1010057" data-name="Trazado 1010057" d="M461.206,244.016c17.655,11.368-2.638,29.011-12.588,13.9-9.518-6.085-15.546-16.856-22.352-29.53-7.831-11.849,9.261-23.3,17.8-11.57C450.116,224.911,452.7,229.082,461.206,244.016Z" transform="translate(-326.327 -157.515)" fill="#fa754a"/>
          <path id="Trazado_1010058" data-name="Trazado 1010058" d="M520.64,317.442l31.044,5.282-.532,11.977-32.7-.335C507.5,333.413,510.129,316.677,520.64,317.442Z" transform="translate(-384.776 -228.298)" fill="#f6a97e"/>
          <rect id="Rectángulo_456297" data-name="Rectángulo 456297" width="15.52" height="22.035" transform="translate(79.655 39.622)" fill="#f6a97e"/>
          <path id="Trazado_1010059" data-name="Trazado 1010059" d="M350.516,201.4l-13.149-2.694a12.621,12.621,0,0,1-7.517,3.073h-.074a12.622,12.622,0,0,1-7.517-3.073L309.109,201.4c-8.538,2.485-11.676,8.946-9.628,16.2l9.341,33.915c6.857,9.622,14.3,12.212,20.991,11.629,6.689.584,14.133-2.007,20.991-11.629l9.341-33.915C362.192,210.346,359.054,203.886,350.516,201.4Z" transform="translate(-242.215 -148.666)" fill="#fa754a"/>
          <path id="Trazado_1010060" data-name="Trazado 1010060" d="M346.4,385.759a66.911,66.911,0,0,0-10.66-27.9,128.934,128.934,0,0,1-42.253-.165,69.648,69.648,0,0,0-17.2,28.069Z" transform="translate(-227.057 -255.313)" fill="#181818"/>
          <path id="Trazado_1010061" data-name="Trazado 1010061" d="M375.768,77.083A14.038,14.038,0,0,0,369.8,66.577c-7.3-4.892-18.5-3.765-23.366,4.035a12.058,12.058,0,0,0-1.4,3.2,15.77,15.77,0,0,0-.515,3.273s-.871,8.1.437,13.118a24.076,24.076,0,0,0,3.687,8.032,15.283,15.283,0,0,0,4.587,4.186,13.47,13.47,0,0,0,4.214,1.58,15.766,15.766,0,0,0,2.64.268c.021,0,.042,0,.064,0a.207.207,0,0,0,.064,0,15.1,15.1,0,0,0,2.64-.262,13.478,13.478,0,0,0,4.214-1.58,15.283,15.283,0,0,0,4.587-4.186,24.079,24.079,0,0,0,3.687-8.032C376.639,85.18,375.769,77.088,375.768,77.083Z" transform="translate(-272.638 -58.06)" fill="#f6a97e"/>
          <path id="Trazado_1010062" data-name="Trazado 1010062" d="M336.165,121.565s-4.963-2.167-7.093.7,1.956,12.7,8.257,7.057S336.165,121.565,336.165,121.565Z" transform="translate(-262.089 -96.391)" fill="#f6a97e"/>
          <g id="Grupo_1183442" data-name="Grupo 1183442" transform="translate(162.911 90.463)">
            <path id="Trazado_1010063" data-name="Trazado 1010063" d="M623.616,326.206s6.644-4.45,8.726-4.291c2.966-1.27,6.5.646,7.146,2.3,2.136-.237,3.086,2.9,1.821,4.548a3.037,3.037,0,0,1-.491,3.654,3.109,3.109,0,0,1-1.651,3.745,3.326,3.326,0,0,1-3.211,3.272c-3.254.357-8.352-.24-11.421-2.461S621.348,328.326,623.616,326.206Z" transform="translate(-621.919 -321.502)" fill="#f6a97e"/>
            <path id="Trazado_1010064" data-name="Trazado 1010064" d="M662.581,336.425a2.115,2.115,0,0,1-1.285-.39,2.878,2.878,0,0,1-.875-2.541l.165-3.8.247.011-.165,3.8a2.659,2.659,0,0,0,.775,2.333,2.323,2.323,0,0,0,1.887.24c2.317-4.876,1.792-6.343,1.787-6.357l.228-.094c.025.061.6,1.55-1.816,6.607l-.023.048-.05.016A3.049,3.049,0,0,1,662.581,336.425Z" transform="translate(-647.653 -326.952)" fill="#d66947"/>
            <path id="Trazado_1010065" data-name="Trazado 1010065" d="M638.711,341.836l-.021-.246c2.263-.191,3.875-.92,4.794-2.167a4.861,4.861,0,0,0,.77-3.589l-.014-.061.041-.047a3.615,3.615,0,0,1,1.684-1.215l.057.24a3.424,3.424,0,0,0-1.515,1.092,5.019,5.019,0,0,1-.823,3.724C642.723,340.875,641.049,341.639,638.711,341.836Z" transform="translate(-633.078 -330.228)" fill="#d66947"/>
            <path id="Trazado_1010066" data-name="Trazado 1010066" d="M653.028,336.165a2.49,2.49,0,0,0-1.282-.98l.068-.237a2.7,2.7,0,0,1,1.424,1.087Z" transform="translate(-641.836 -330.522)" fill="#d66947"/>
            <rect id="Rectángulo_456298" data-name="Rectángulo 456298" width="0.247" height="2.513" transform="matrix(0.209, -0.978, 0.978, 0.209, 16.879, 6.667)" fill="#d66947"/>
            <path id="Trazado_1010067" data-name="Trazado 1010067" d="M662.983,345.8a27.08,27.08,0,0,1-6.386-1.451c-.018-.007-1.528-.656-1.112-1.922a1.414,1.414,0,0,1,1.693-.958l-.061.239a1.155,1.155,0,0,0-1.4.8c-.346,1.051.957,1.611.97,1.616a26.841,26.841,0,0,0,6.324,1.435Z" transform="translate(-644.296 -334.876)" fill="#d66947"/>
            <path id="Trazado_1010068" data-name="Trazado 1010068" d="M660.686,354.373l-4.851-1.907a1.952,1.952,0,0,1-.731-2.638c.28-.494.714-.729,1.056-.57l-.1.224c-.217-.1-.527.1-.737.468a1.69,1.69,0,0,0,.631,2.3l4.826,1.895Z" transform="translate(-643.923 -340.088)" fill="#d66947"/>
            <path id="Trazado_1010069" data-name="Trazado 1010069" d="M659.132,363.039c-.03,0-3.1-.769-3.616-2.519a1.831,1.831,0,0,1,1.007-1.86l.051.242a1.582,1.582,0,0,0-.816,1.576c.46,1.55,3.363,2.311,3.392,2.316l-.018.245Z" transform="translate(-644.362 -346.428)" fill="#d66947"/>
            <path id="Trazado_1010070" data-name="Trazado 1010070" d="M663.377,371.618a1.727,1.727,0,0,1-.494-1.147l.247-.008a1.5,1.5,0,0,0,.406.966Z" transform="translate(-649.307 -354.346)" fill="#d66947"/>
            <path id="Trazado_1010071" data-name="Trazado 1010071" d="M626.646,364.64a4.009,4.009,0,0,1-2.485-2.617l.238-.066a3.83,3.83,0,0,0,2.321,2.448Z" transform="translate(-623.332 -348.64)" fill="#d66947"/>
            <path id="Trazado_1010072" data-name="Trazado 1010072" d="M667.7,343.884l-.247-.012a5.643,5.643,0,0,1,.379-2.067c.315-.322.9-.092.925-.081l-.092.229c-.126-.05-.49-.144-.656.025A5.77,5.77,0,0,0,667.7,343.884Z" transform="translate(-652.37 -335.007)" fill="#d66947"/>
            <path id="Trazado_1010073" data-name="Trazado 1010073" d="M621.656,344.141a7.016,7.016,0,0,1,.455-2.878l.227.1a6.894,6.894,0,0,0-.436,2.767Z" transform="translate(-621.643 -334.758)" fill="#d66947"/>
          </g>
          <path id="Trazado_1010074" data-name="Trazado 1010074" d="M376.409,182.53a12.781,12.781,0,0,1-7.913-2.806l.153-.194a12.2,12.2,0,0,0,15.367.054l.154.193A12.421,12.421,0,0,1,376.409,182.53Z" transform="translate(-288.917 -135.802)" fill="#d66947"/>
          <g id="Grupo_1183443" data-name="Grupo 1183443" transform="translate(69.122 27.021)">
            <path id="Trazado_1010075" data-name="Trazado 1010075" d="M338.991,134.059a4.164,4.164,0,0,1-2.2-4.193,1.324,1.324,0,0,1,1.377-1.089v.247a1.086,1.086,0,0,0-1.137.9,3.958,3.958,0,0,0,2.07,3.915Z" transform="translate(-336.731 -128.777)" fill="#d66947"/>
            <path id="Trazado_1010076" data-name="Trazado 1010076" d="M340.668,138.546a1.9,1.9,0,0,0-2.237-.23l-.122-.215a2.179,2.179,0,0,1,2.537.273Z" transform="translate(-337.789 -134.832)" fill="#d66947"/>
          </g>
          <path id="Trazado_1010077" data-name="Trazado 1010077" d="M426.028,121.565s4.963-2.167,7.093.7-1.956,12.7-8.257,7.057S426.028,121.565,426.028,121.565Z" transform="translate(-325.034 -96.391)" fill="#f6a97e"/>
          <g id="Grupo_1183444" data-name="Grupo 1183444" transform="translate(102.892 27.021)">
            <path id="Trazado_1010078" data-name="Trazado 1010078" d="M441.5,134.059l-.115-.219a3.958,3.958,0,0,0,2.07-3.915,1.086,1.086,0,0,0-1.137-.9v-.247a1.325,1.325,0,0,1,1.377,1.089A4.164,4.164,0,0,1,441.5,134.059Z" transform="translate(-440.704 -128.777)" fill="#d66947"/>
            <path id="Trazado_1010079" data-name="Trazado 1010079" d="M439.494,138.547l-.177-.172a2.181,2.181,0,0,1,2.536-.273l-.122.215A1.9,1.9,0,0,0,439.494,138.547Z" transform="translate(-439.317 -134.833)" fill="#d66947"/>
          </g>
          <path id="Trazado_1010080" data-name="Trazado 1010080" d="M388.453,162.7a4.141,4.141,0,0,1-2.185-.643l.129-.211a4.122,4.122,0,0,0,4.307,0l.113.22A5.153,5.153,0,0,1,388.453,162.7Z" transform="translate(-300.839 -123.94)" fill="#d66947"/>
          <path id="Trazado_1010081" data-name="Trazado 1010081" d="M384.332,155.566a7.744,7.744,0,0,1-4.085-1.2l.128-.211c2.552,1.55,5.258,1.549,8.272,0l.113.22A9.669,9.669,0,0,1,384.332,155.566Z" transform="translate(-296.8 -118.778)" fill="#d66947"/>
          <path id="Trazado_1010082" data-name="Trazado 1010082" d="M346.221,139.746a14.263,14.263,0,0,1-.88-5.446l.247.01a14.028,14.028,0,0,0,.865,5.352Z" transform="translate(-273.378 -105.461)" fill="#d66947"/>
          <path id="Trazado_1010083" data-name="Trazado 1010083" d="M436.867,139.746l-.232-.084a14.016,14.016,0,0,0,.865-5.352l.247-.01A14.269,14.269,0,0,1,436.867,139.746Z" transform="translate(-334.626 -105.461)" fill="#d66947"/>
          <path id="Trazado_1010084" data-name="Trazado 1010084" d="M392.134,132.144l-.021-.246a3.976,3.976,0,0,0,2.443-1.131c.616-.791-1.332-4.714-2.135-6.159l.216-.12c.3.546,2.941,5.369,2.114,6.431A4.151,4.151,0,0,1,392.134,132.144Z" transform="translate(-304.76 -98.879)" fill="#d66947"/>
          <path id="Trazado_1010085" data-name="Trazado 1010085" d="M356.12,116.885a5.959,5.959,0,0,1,1.743-1.387,4.454,4.454,0,0,1,.532-.228,2.013,2.013,0,0,1,.292-.083,2.1,2.1,0,0,1,.33-.037,5.084,5.084,0,0,1,1.146.145,15.5,15.5,0,0,1,2.086.675,21.082,21.082,0,0,1,1.985.884.161.161,0,0,1-.125.3h0c-.676-.232-1.358-.457-2.036-.674s-1.365-.409-2.046-.553a4.725,4.725,0,0,0-.99-.117,2.54,2.54,0,0,0-.9.268,13.5,13.5,0,0,0-1.8,1.047l-.007,0a.161.161,0,0,1-.211-.239Z" transform="translate(-280.589 -92.615)" fill="#181818"/>
          <path id="Trazado_1010086" data-name="Trazado 1010086" d="M414.369,117.122a13.663,13.663,0,0,0-1.846-1.051,2.622,2.622,0,0,0-.919-.265,4.947,4.947,0,0,0-1.012.118c-.695.145-1.393.344-2.088.553s-1.388.442-2.078.674h0a.161.161,0,0,1-.123-.3,21.937,21.937,0,0,1,2.029-.884,16.072,16.072,0,0,1,2.128-.675,5.318,5.318,0,0,1,1.164-.146,2.823,2.823,0,0,1,1.174.343,6.115,6.115,0,0,1,1.79,1.39.161.161,0,0,1-.209.243Z" transform="translate(-314.217 -92.616)" fill="#181818"/>
          <g id="Grupo_1183445" data-name="Grupo 1183445" transform="translate(75.39 25.894)">
            <path id="Trazado_1010087" data-name="Trazado 1010087" d="M362.069,126.573a2.222,2.222,0,1,1-3.206-1.207,5.679,5.679,0,0,0-3.091,1.254c1.557,3.273,4.3,4.159,8.443,2.256A12.8,12.8,0,0,0,362.069,126.573Z" transform="translate(-355.772 -125.362)" fill="#fff"/>
            <path id="Trazado_1010088" data-name="Trazado 1010088" d="M361.766,127.278a2.226,2.226,0,0,0,4.451,0,2.2,2.2,0,0,0-.127-.713,4.723,4.723,0,0,0-3.207-1.207A2.216,2.216,0,0,0,361.766,127.278Z" transform="translate(-359.793 -125.354)" fill="#181818"/>
          </g>
          <g id="Grupo_1183446" data-name="Grupo 1183446" transform="translate(91.982 25.892)">
            <path id="Trazado_1010089" data-name="Trazado 1010089" d="M411.525,125.36a2.238,2.238,0,1,1-3.207,1.207,12.8,12.8,0,0,0-2.146,2.3c4.138,1.9,6.886,1.018,8.443-2.256A5.68,5.68,0,0,0,411.525,125.36Z" transform="translate(-406.173 -125.356)" fill="#fff"/>
            <path id="Trazado_1010090" data-name="Trazado 1010090" d="M414.531,129.5a2.219,2.219,0,0,0,1.108-4.145,4.722,4.722,0,0,0-3.207,1.207,2.2,2.2,0,0,0,2.1,2.938Z" transform="translate(-410.286 -125.348)" fill="#181818"/>
          </g>
          <path id="Trazado_1010091" data-name="Trazado 1010091" d="M363.975,128.878c-2.492-3.546-5.2-4.291-8.274-2.275l-.135-.206c3.166-2.075,6.063-1.287,8.612,2.339Z" transform="translate(-280.243 -99.402)" fill="#181818"/>
          <path id="Trazado_1010092" data-name="Trazado 1010092" d="M406.136,128.813l-.2-.141c2.549-3.66,5.446-4.455,8.613-2.361l-.136.206C411.335,124.483,408.628,125.234,406.136,128.813Z" transform="translate(-314.031 -99.338)" fill="#181818"/>
          <path id="Trazado_1010093" data-name="Trazado 1010093" d="M342.293,76.911c4.46-1.2,3.245-5.992,6.3-9.721,3.435-2.526,7.279-2.385,11.156-1.558,0,0,4.318,16.311,17.31,6.352-3.439,0-1.983-3.868-4.232-5.906l-5.036-7.137-13.172-2.176-6.854,4.6A14.561,14.561,0,0,0,341.47,73.3Z" transform="translate(-270.788 -53.45)" fill="#181818"/>
          <path id="Trazado_1010094" data-name="Trazado 1010094" d="M363.1,76.788a13.687,13.687,0,0,1,11.156-1.558C371.978,65.043,363.1,76.788,363.1,76.788Z" transform="translate(-285.3 -63.048)" fill="#444"/>
          <path id="Trazado_1010095" data-name="Trazado 1010095" d="M354.159,77.846a7.323,7.323,0,0,1-3.553-5.346l.247-.012a7.072,7.072,0,0,0,3.438,5.149Z" transform="translate(-276.916 -63.997)" fill="#666"/>
          <path id="Trazado_1010096" data-name="Trazado 1010096" d="M362.214,69.178l-.223-.107a23.006,23.006,0,0,1,2.113-3.425c1.732-2.3,3.427-3.482,5.036-3.521l.006.247C365.478,62.461,362.246,69.111,362.214,69.178Z" transform="translate(-284.554 -57.046)" fill="#666"/>
          <path id="Trazado_1010097" data-name="Trazado 1010097" d="M411.332,93.005a9.669,9.669,0,0,1-8.519-4.967l.223-.107c.037.076,3.779,7.555,13.511,3.741l.09.23A14.536,14.536,0,0,1,411.332,93.005Z" transform="translate(-311.938 -74.356)" fill="#666"/>
          <path id="Trazado_1010098" data-name="Trazado 1010098" d="M440.371,105.523l-.115-.219a24.783,24.783,0,0,0,2.6-1.7l.148.2A25.1,25.1,0,0,1,440.371,105.523Z" transform="translate(-337.055 -84.867)" fill="#666"/>
          <path id="Trazado_1010099" data-name="Trazado 1010099" d="M336.474,116.356a2.462,2.462,0,0,1-2.155-1.064l.216-.12c.032.056.8,1.364,2.929.8l.063.239A4.12,4.12,0,0,1,336.474,116.356Z" transform="translate(-265.991 -92.629)" fill="#666"/>
          <path id="Trazado_1010100" data-name="Trazado 1010100" d="M466.73,279.488l-.239-.062a171.252,171.252,0,0,0,4.009-20.837l.245.032A171.486,171.486,0,0,1,466.73,279.488Z" transform="translate(-354.654 -188.836)" fill="#db4d28"/>
          <path id="Trazado_1010101" data-name="Trazado 1010101" d="M315.307,288.176c-1.846-7.185-4.1-22.444-4.9-28.708l.245-.032c.8,6.259,3.048,21.505,4.891,28.678Z" transform="translate(-249.952 -189.404)" fill="#db4d28"/>
          <path id="Trazado_1010102" data-name="Trazado 1010102" d="M480.66,303.526a2.852,2.852,0,0,1-2.23-.354c-2.852-1.826-5.167-5.211-7.228-7.84-4.122-6.153,5.2-20.159,15.65-17.562,1.3.373,6.81,6.66,5.406,7.911.319.7.608,1.426.858,2.154a.634.634,0,0,1-.209.752s-.621-.425-.831-.562C484.366,287.5,477.03,296.217,480.66,303.526Z" transform="translate(-357.144 -201.49)" fill="#181818"/>
          <path id="Trazado_1010103" data-name="Trazado 1010103" d="M495.8,321.717c-1.27-2.091-2.746-6.317,1.641-11.139,3.337-3.667,8.737-5.862,11.331-4.6l-.108.222c-2.505-1.215-7.769.951-11.041,4.546-4.279,4.7-2.847,8.813-1.613,10.844Z" transform="translate(-373.444 -220.384)" fill="#666"/>
          <path id="Trazado_1010104" data-name="Trazado 1010104" d="M488.735,286.023s-5.137-4.383-4.3-5.219c2.711-2.755,8.318-5.13,11.9-3.487l2.527,3.015Z" transform="translate(-366.629 -201.036)" fill="#181818"/>
          <path id="Trazado_1010105" data-name="Trazado 1010105" d="M490.313,298.671c-1.585,0-5.167-6.277-5.575-7l.215-.121c1.087,1.93,4.14,6.876,5.35,6.876l.043,0a8.331,8.331,0,0,0,2.4-1.169c2.359-1.4,5.922-3.519,9.307-2.232l-.088.231c-3.271-1.246-6.636.754-9.093,2.213a8.158,8.158,0,0,1-2.5,1.2A.482.482,0,0,1,490.313,298.671Z" transform="translate(-366.894 -210.945)" fill="#666"/>
          <path id="Trazado_1010106" data-name="Trazado 1010106" d="M506.185,332.661c-1.088-.823-2.53-3.99-2.291-7.563a9.879,9.879,0,0,1,5.3-8.232l.122.215a9.642,9.642,0,0,0-5.175,8.033c-.225,3.355,1.126,6.543,2.193,7.35Z" transform="translate(-379.726 -227.929)" fill="#db4d28"/>
          <path id="Trazado_1010107" data-name="Trazado 1010107" d="M293.454,333.738l-.233-.081c.441-1.264-.2-4.665-2.248-7.333a9.646,9.646,0,0,0-8.76-3.819l-.018-.246a9.873,9.873,0,0,1,8.974,3.915C293.348,329.014,293.9,332.449,293.454,333.738Z" transform="translate(-231.025 -231.522)" fill="#db4d28"/>
          <path id="Trazado_1010108" data-name="Trazado 1010108" d="M365.038,186.432s-1.7-.422-1.811,4.641c.151,3.207,5.465,3.53,9.923,3.534s7.975-1.921,8.512-2.728.359-5.447-1.1-5.757C378.743,189.786,367.483,189.786,365.038,186.432Z" transform="translate(-285.383 -140.224)" fill="#fa754a"/>
          <g id="Grupo_1183447" data-name="Grupo 1183447" transform="translate(67.099 79.144)">
            <path id="Trazado_1010109" data-name="Trazado 1010109" d="M340.526,291.918a13.829,13.829,0,0,1-9.941-4.646l.192-.155c.075.092,7.548,9.122,18.441,1.484l.142.2A15.294,15.294,0,0,1,340.526,291.918Z" transform="translate(-330.585 -287.116)" fill="#db4d28"/>
            <path id="Trazado_1010110" data-name="Trazado 1010110" d="M414.368,291.918a15.292,15.292,0,0,1-8.834-3.116l.142-.2c10.9,7.642,18.367-1.391,18.441-1.484l.192.155A13.832,13.832,0,0,1,414.368,291.918Z" transform="translate(-380.862 -287.116)" fill="#db4d28"/>
          </g>
          <path id="Trazado_1010111" data-name="Trazado 1010111" d="M372.7,205.723c-4.179,0-8.688-1.159-9.681-3.5l.227-.1c1.005,2.365,5.859,3.467,10.135,3.335,5.225-.162,7.655-1.825,8.186-3.328l.233.082c-.853,2.409-4.9,3.384-8.411,3.492Q373.045,205.724,372.7,205.723Z" transform="translate(-285.242 -150.963)" fill="#db4d28"/>
          <g id="Grupo_1183448" data-name="Grupo 1183448" transform="translate(131.768 116.475)">
            <path id="Trazado_1010112" data-name="Trazado 1010112" d="M527.6,406.727l30.009-6.109a4.939,4.939,0,0,1,1-.1l11.4.023-10.781,2.531a.7.7,0,0,1-.549.828l-.444.09v9.153a1.179,1.179,0,0,1-1.179,1.179H529.646a1.1,1.1,0,0,1-1.1-1.1V411.42h0s0,0,0,0v-1.4l-.273.055a.7.7,0,0,1-.828-.549l-.4-1.969A.7.7,0,0,1,527.6,406.727Z" transform="translate(-527.036 -400.519)" fill="#fff"/>
            <path id="Trazado_1010113" data-name="Trazado 1010113" d="M567.485,415.688l29.681-6.106v9.643a1.179,1.179,0,0,1-1.179,1.179H568.58a1.1,1.1,0,0,1-1.1-1.1V417.5h0s0,0,0,0Z" transform="translate(-554.17 -406.599)" fill="#7baefa"/>
            <path id="Trazado_1010114" data-name="Trazado 1010114" d="M564.124,410.12l30.4-6.171a.7.7,0,0,0,.549-.828l-.4-1.969a.7.7,0,0,0-.828-.549l-30.4,6.171a.7.7,0,0,0-.549.828l.4,1.969A.7.7,0,0,0,564.124,410.12Z" transform="translate(-551.082 -400.566)" fill="#7baefa"/>
            <rect id="Rectángulo_456299" data-name="Rectángulo 456299" width="11.8" height="0.165" transform="translate(1.516 9.416)" fill="#92bbf4"/>
            <rect id="Rectángulo_456300" data-name="Rectángulo 456300" width="30.286" height="0.165" transform="translate(13.296 9.41) rotate(-11.496)" fill="#3a70bf"/>
            <rect id="Rectángulo_456301" data-name="Rectángulo 456301" width="11.801" height="0.165" transform="translate(0.135 6.403)" fill="#92bbf4"/>
            <path id="Trazado_1010115" data-name="Trazado 1010115" d="M639.581,434.473h-4.6a.829.829,0,0,1,0-1.658h4.6a.829.829,0,0,1,0,1.658Zm-4.6-1.494a.664.664,0,0,0,0,1.329h4.6a.664.664,0,0,0,0-1.329Z" transform="translate(-598.891 -422.184)" fill="#3a70bf"/>
            <rect id="Rectángulo_456302" data-name="Rectángulo 456302" width="2.016" height="0.165" transform="translate(2.981 10.631)" fill="#92bbf4"/>
          </g>
          <path id="Trazado_1010116" data-name="Trazado 1010116" d="M468.943,177.757l-.237-.069c1.149-3.918-.679-7.028-2.8-10.63a32.99,32.99,0,0,1-4-8.8l.239-.06a32.784,32.784,0,0,0,3.972,8.738C468.269,170.583,470.122,173.737,468.943,177.757Z" transform="translate(-351.583 -121.49)" fill="#666"/>
        </g>
        <g id="Grupo_1183453" data-name="Grupo 1183453" transform="translate(119.263 67.312)">
          <g id="Grupo_1183450" data-name="Grupo 1183450" transform="translate(28.844 12.588)">
            <path id="Trazado_1010117" data-name="Trazado 1010117" d="M485.939,295.3c.984.828,2.2-.234,2.374-.337a10.648,10.648,0,0,0,2.134-2.634c.36-.516-.048-.826-.18-.694-.059.069.2-.279.253-.352.43-.662-.156-.881-.391-.669.417-.453-.049-.943-.34-.672.262-.357-.183-.787-.659-.336-.285.227-2.3,2.463-2.3,2.463-.193-.19.609-1.044.187-1.567a.113.113,0,0,0-.157.019,6.9,6.9,0,0,0-1.314,2.9A1.824,1.824,0,0,0,485.939,295.3Z" transform="translate(-485.45 -289.414)" fill="#f6a97e"/>
            <path id="Trazado_1010118" data-name="Trazado 1010118" d="M496.379,297.566l-.123-.11,1.2-1.339.123.11Z" transform="translate(-492.699 -293.91)" fill="#d66947"/>
            <rect id="Rectángulo_456303" data-name="Rectángulo 456303" width="2.383" height="0.164" transform="translate(3.097 3.01) rotate(-50.401)" fill="#d66947"/>
            <path id="Trazado_1010119" data-name="Trazado 1010119" d="M493.273,292.968l-.124-.108,1.729-1.991.124.108Z" transform="translate(-490.615 -290.39)" fill="#d66947"/>
          </g>
          <path id="Trazado_1010120" data-name="Trazado 1010120" d="M414.682,282.733a2.732,2.732,0,0,1-1.326,2.533v0a25.384,25.384,0,0,1-7.531,3.148c1.5,1.4,3.14,3,3.042,3.576-.6,1.282-.752,5.543-1.725,5.794-.507.256-8.227-4.188-7.288-7.377,2.24-7.437,9.557-10.146,9.557-10.146l.5.016c.4-.294,1.318-.051,1.851-.088A2.735,2.735,0,0,1,414.682,282.733Z" transform="translate(-399.135 -270.6)" fill="#fff"/>
          <g id="Grupo_1183451" data-name="Grupo 1183451" transform="translate(13.651 59.178)">
            <path id="Trazado_1010121" data-name="Trazado 1010121" d="M442.919,431.11s-.365,1.478.651,1.7c1.214.284,2.792,1.119,2.561,2.1H439.3c.075-1.578.331-3.014.96-3.683C440.959,431.3,442.259,430.645,442.919,431.11Z" transform="translate(-439.298 -430.942)" fill="#fff"/>
          </g>
          <g id="Grupo_1183452" data-name="Grupo 1183452" transform="translate(3.694 59.178)">
            <path id="Trazado_1010122" data-name="Trazado 1010122" d="M412.671,431.11a1.319,1.319,0,0,0,.738,1.816c.915.276,2.128.977,1.6,1.985H409.05c.075-1.578.331-3.014.96-3.683C410.71,431.3,412.011,430.645,412.671,431.11Z" transform="translate(-409.05 -430.942)" fill="#fff"/>
          </g>
          <rect id="Rectángulo_456304" data-name="Rectángulo 456304" width="4.228" height="10.125" transform="translate(15.111 4.664) rotate(20.292)" fill="#f6a97e"/>
          <path id="Trazado_1010123" data-name="Trazado 1010123" d="M417.376,333.479H406.913c-2.9,8.167-.43,33.949-.43,33.949a8.391,8.391,0,0,0,4.769,0s.655-16.493,1.275-25.746a96.664,96.664,0,0,0,2.7,10.99,87.694,87.694,0,0,0,1.327,14.756,7.577,7.577,0,0,0,4.5,0c.012-4.947.828-10.414.54-15.5C421.077,342.784,418.668,335.1,417.376,333.479Z" transform="translate(-402.977 -306.385)" fill="#77aaf4"/>
          <path id="Trazado_1010124" data-name="Trazado 1010124" d="M447.265,265.806h0a2.779,2.779,0,0,1-1.638-3.56l.759-2.053a2.779,2.779,0,0,1,3.56-1.638h0c1.43.529,3.3-.941,2.774.488l-.919,2.485c.015.735.138,1.235-.1,1.446s-.625.5-.625.5C450.185,265.861,448.695,266.335,447.265,265.806Z" transform="translate(-429.777 -256.01)" fill="#f6a97e"/>
          <path id="Trazado_1010125" data-name="Trazado 1010125" d="M443.355,252.071c1.381-1.335,3.852-.99,5.188-.208,1.412-.24,2.2.491,2.185,1.441-.217,1.639-1.588,1.733-3,1.512-.5,1.619-.835,2.553-1.5,2.586a1.8,1.8,0,0,0,.384-.952.65.65,0,0,0-1.022-.616,1.942,1.942,0,0,0-.408,2.164,4.022,4.022,0,0,1-4.1.164C441.064,255.4,440.757,252.045,443.355,252.071Z" transform="translate(-426.831 -251.173)" fill="#181818"/>
          <path id="Trazado_1010126" data-name="Trazado 1010126" d="M397.83,319.854a80.276,80.276,0,0,1,3.862-23.1,47.908,47.908,0,0,1,3.875-13.952c1.524-3.035,3.431-3.069,5.52-2.3l4.03,1.49c3.4,1.364,5.18,3.523,4.169,6.257a34.821,34.821,0,0,1-4.572,12.2c1.793,9.386,2.789,21.293,2.508,21.7-2.57.61-7.647.648-11.14.4-.11,0-.582-8.871-.582-8.871a61.993,61.993,0,0,0-.515,8.826C400.709,322.451,397.83,320.813,397.83,319.854Z" transform="translate(-397.828 -270.569)" fill="#fff"/>
          <path id="Trazado_1010127" data-name="Trazado 1010127" d="M484.844,304.868l.583-.742a3.579,3.579,0,0,0-2.71-1.862l-.961,1.138Z" transform="translate(-454.128 -285.445)" fill="#fff"/>
          <path id="Trazado_1010128" data-name="Trazado 1010128" d="M448.533,289.887a2.733,2.733,0,0,1,2.665,1.036h0a25.383,25.383,0,0,1,3.967,7.134c1.228-1.644,2.629-3.454,3.215-3.422,1.341.456,2.312.962,2.669,1.9.311.476-3.969,8.477-7.242,7.9-3.206-.613-7.3-9.312-7.3-9.312l.115-.225c-.336-.367-.2-1.3-.293-1.83A2.735,2.735,0,0,1,448.533,289.887Z" transform="translate(-430.336 -277.113)" fill="#fff"/>
          <path id="Trazado_1010129" data-name="Trazado 1010129" d="M472.908,316.488l-.165-.009.088-1.7.165.009Z" transform="translate(-448.082 -293.841)" fill="#92bbf4"/>
          <path id="Trazado_1010130" data-name="Trazado 1010130" d="M437.337,277.663a2.417,2.417,0,0,0-.876,1.045c.933,1.384,2.669,1.907,5.217,1.964a3.858,3.858,0,0,0-.349-1.546A9.364,9.364,0,0,1,437.337,277.663Z" transform="translate(-423.744 -268.943)" fill="#fff"/>
          <path id="Trazado_1010131" data-name="Trazado 1010131" d="M452.775,316.646a44.2,44.2,0,0,1-2.428-3.855l.145-.077a44,44,0,0,0,2.418,3.837Z" transform="translate(-433.059 -292.455)" fill="#92bbf4"/>
          <path id="Trazado_1010132" data-name="Trazado 1010132" d="M445.861,292.993l-.163-.026a3.4,3.4,0,0,1,1.457-2.514,3.61,3.61,0,0,1,2.744-.255l-.051.156a3.511,3.511,0,0,0-2.608.241A3.242,3.242,0,0,0,445.861,292.993Z" transform="translate(-429.94 -277.241)" fill="#92bbf4"/>
          <path id="Trazado_1010133" data-name="Trazado 1010133" d="M434.582,284.717c-1.111-.007-6.12-2.051-7.881-3.216l.091-.138c1.832,1.212,6.811,3.182,7.792,3.189Z" transform="translate(-417.197 -271.425)" fill="#92bbf4"/>
          <path id="Trazado_1010134" data-name="Trazado 1010134" d="M441.237,282.831a9.038,9.038,0,0,1-2.544-.516c-.621-.21-2.1-.776-2.458-1.514l.148-.071a4.311,4.311,0,0,0,2.362,1.429,7.439,7.439,0,0,0,2.767.489l.027.163A1.859,1.859,0,0,1,441.237,282.831Z" transform="translate(-423.592 -270.999)" fill="#92bbf4"/>
          <path id="Trazado_1010135" data-name="Trazado 1010135" d="M455.279,265.7s-.86,2.417.8,2.689c0,0,.164,3.179-2.583,2.732-1.552-.239.429-1.758.679-3.971Z" transform="translate(-434.775 -260.915)" fill="#181818"/>
          <path id="Trazado_1010136" data-name="Trazado 1010136" d="M485.511,306.14a3.954,3.954,0,0,0-2.648-1.868l.03-.162a4.05,4.05,0,0,1,2.768,1.964Z" transform="translate(-454.871 -286.684)" fill="#92bbf4"/>
          <path id="Trazado_1010137" data-name="Trazado 1010137" d="M410.03,297.7l-.161-.037c.174-.764.338-1.54.512-2.362.848-4.018,1.81-8.573,4.231-11.853l.132.1c-2.4,3.251-3.357,7.787-4.2,11.79C410.368,296.161,410.2,296.937,410.03,297.7Z" transform="translate(-405.905 -272.825)" fill="#92bbf4"/>
          <path id="Trazado_1010138" data-name="Trazado 1010138" d="M445.061,342.494l-.033-.161a2.749,2.749,0,0,0,1.291-.536l.116.117A2.831,2.831,0,0,1,445.061,342.494Z" transform="translate(-429.491 -311.965)" fill="#92bbf4"/>
          <path id="Trazado_1010139" data-name="Trazado 1010139" d="M421.484,337.2h0a13.681,13.681,0,0,1-6.49-1.691.082.082,0,0,1-.039-.087l.269-1.344a.082.082,0,0,1,.044-.058.084.084,0,0,1,.073,0,16.176,16.176,0,0,0,6.508,1.672.083.083,0,0,1,.076.1l-.358,1.344A.081.081,0,0,1,421.484,337.2Zm-6.359-1.8a13.519,13.519,0,0,0,6.3,1.637l.315-1.181a16.321,16.321,0,0,1-6.375-1.637Z" transform="translate(-409.315 -306.741)" fill="#92bbf4"/>
          <path id="Trazado_1010140" data-name="Trazado 1010140" d="M417.413,336.716a.306.306,0,1,1-.306-.306A.306.306,0,0,1,417.413,336.716Z" transform="translate(-410.556 -308.351)" fill="#aed3ff"/>
          <circle id="Elipse_13954" data-name="Elipse 13954" cx="0.306" cy="0.306" r="0.306" transform="translate(11.308 29.325)" fill="#aed3ff"/>
        </g>
        <g id="Grupo_1183460" data-name="Grupo 1183460" transform="translate(50.369 28.598)">
          <g id="Grupo_1183454" data-name="Grupo 1183454" transform="translate(9.102 55.949)">
            <rect id="Rectángulo_456305" data-name="Rectángulo 456305" width="0.247" height="45.908" transform="translate(15.544)" fill="#181818"/>
            <rect id="Rectángulo_456306" data-name="Rectángulo 456306" width="0.247" height="45.908" fill="#181818"/>
          </g>
          <g id="Grupo_1183455" data-name="Grupo 1183455" transform="translate(0.499 55.94)">
            <rect id="Rectángulo_456307" data-name="Rectángulo 456307" width="18.339" height="0.913" transform="translate(5.59 7.313)" fill="#181818"/>
            <rect id="Rectángulo_456308" data-name="Rectángulo 456308" width="18.339" height="0.913" transform="translate(6.987)" fill="#181818"/>
            <rect id="Rectángulo_456309" data-name="Rectángulo 456309" width="18.339" height="0.913" transform="translate(2.795 21.939)" fill="#181818"/>
            <rect id="Rectángulo_456310" data-name="Rectángulo 456310" width="18.339" height="0.913" transform="translate(4.193 14.626)" fill="#181818"/>
            <rect id="Rectángulo_456311" data-name="Rectángulo 456311" width="18.339" height="0.913" transform="translate(0 36.565)" fill="#181818"/>
            <rect id="Rectángulo_456312" data-name="Rectángulo 456312" width="18.339" height="0.913" transform="translate(1.397 29.252)" fill="#181818"/>
          </g>
          <g id="Grupo_1183456" data-name="Grupo 1183456" transform="translate(0 55.912)">
            <rect id="Rectángulo_456313" data-name="Rectángulo 456313" width="46.796" height="0.329" transform="matrix(0.193, -0.981, 0.981, 0.193, 0, 45.911)" fill="#181818"/>
            <rect id="Rectángulo_456314" data-name="Rectángulo 456314" width="46.796" height="0.329" transform="matrix(0.193, -0.981, 0.981, 0.193, 15.544, 45.914)" fill="#181818"/>
          </g>
          <g id="Grupo_1183459" data-name="Grupo 1183459" transform="translate(2.893)">
            <g id="Grupo_1183457" data-name="Grupo 1183457" transform="translate(30.79)">
              <path id="Trazado_1010141" data-name="Trazado 1010141" d="M295.864,145.545H294.6a.228.228,0,0,1-.228-.228v-1.69a.228.228,0,0,1,.228-.228h1.262a.228.228,0,0,1,.228.228v1.69A.228.228,0,0,1,295.864,145.545Z" transform="translate(-293.219 -140.163)" fill="#181818"/>
              <path id="Trazado_1010142" data-name="Trazado 1010142" d="M294.841,137.518h-3.349a.232.232,0,0,1-.232-.232V134.44a.214.214,0,0,1,.214-.214h3.368Z" transform="translate(-291.13 -134.01)" fill="#181818"/>
              <path id="Trazado_1010143" data-name="Trazado 1010143" d="M302.139,137.518s.63-.461.63-.465v-2.363l-.63-.465Z" transform="translate(-298.428 -134.01)" fill="#77aaf4"/>
              <path id="Trazado_1010144" data-name="Trazado 1010144" d="M304.053,138a10.3,10.3,0,0,1,3.759-1.1v-.171a10.081,10.081,0,0,1-3.759-1.1Z" transform="translate(-299.712 -134.957)" fill="#181818"/>
              <path id="Trazado_1010145" data-name="Trazado 1010145" d="M295.411,158.181H294.37a.5.5,0,0,1-.5-.5V147.664a.165.165,0,0,1,.165-.165h1.719a.168.168,0,0,1,.168.168v10.006A.508.508,0,0,1,295.411,158.181Z" transform="translate(-292.88 -142.914)" fill="#181818"/>
              <path id="Trazado_1010146" data-name="Trazado 1010146" d="M291.023,137.294h0a.158.158,0,0,1-.157-.157v-3.41a.158.158,0,0,1,.157-.157h0a.158.158,0,0,1,.157.157v3.41A.157.157,0,0,1,291.023,137.294Z" transform="translate(-290.866 -133.57)" fill="#fff"/>
              <rect id="Rectángulo_456315" data-name="Rectángulo 456315" width="2.051" height="2" transform="translate(0.988 6.136)" fill="#77aaf4"/>
              <rect id="Rectángulo_456316" data-name="Rectángulo 456316" width="1.719" height="0.165" transform="translate(1.155 3.426)" fill="#666"/>
              <rect id="Rectángulo_456317" data-name="Rectángulo 456317" width="1.719" height="0.165" transform="translate(1.155 4.503)" fill="#666"/>
            </g>
            <g id="Grupo_1183458" data-name="Grupo 1183458" transform="translate(30.01 8.029)">
              <path id="Trazado_1010147" data-name="Trazado 1010147" d="M292.662,158.678c.063-.121-.086-.916-.309-.669,0,0-1.353,1.707-1.869,1.87-.281.095-.219-.811-.219-.811a.977.977,0,0,0-.487.168,3.483,3.483,0,0,0-1.253,2.171c-.168.719.414,2.017,1.26,1.819a13.419,13.419,0,0,0,2.266-.8c.568-.346.982-1.653.982-1.653.108-.253.034-.864-.079-.674.177-.286-.005-.68-.2-.666A.631.631,0,0,0,292.662,158.678Z" transform="translate(-288.497 -157.962)" fill="#fca886"/>
              <path id="Trazado_1010148" data-name="Trazado 1010148" d="M296.982,161.67l-.109-.123A7.86,7.86,0,0,0,298.212,160l.137.091A8.029,8.029,0,0,1,296.982,161.67Z" transform="translate(-294.116 -159.329)" fill="#d66947"/>
              <path id="Trazado_1010149" data-name="Trazado 1010149" d="M299.17,165.723l-.12-.113a6.3,6.3,0,0,0,.942-1.367l.145.077A6.475,6.475,0,0,1,299.17,165.723Z" transform="translate(-295.576 -162.175)" fill="#d66947"/>
              <path id="Trazado_1010150" data-name="Trazado 1010150" d="M298.095,163.728l-.113-.12a5.849,5.849,0,0,0,1.083-1.355l.143.082A6.016,6.016,0,0,1,298.095,163.728Z" transform="translate(-294.86 -160.841)" fill="#d66947"/>
              <path id="Trazado_1010151" data-name="Trazado 1010151" d="M292.315,163.872a.53.53,0,0,1-.318-.087l.1-.13c.009.007.224.158.665-.078l.078.145A1.117,1.117,0,0,1,292.315,163.872Z" transform="translate(-290.845 -161.728)" fill="#d66947"/>
            </g>
            <path id="Trazado_1010152" data-name="Trazado 1010152" d="M201.287,339.4s4.829,1.725,3.493,2.768h-7.165c-.535.047-.208-1.331.153-2.768Z" transform="translate(-197.334 -271.646)" fill="#fff"/>
            <path id="Trazado_1010153" data-name="Trazado 1010153" d="M240.766,317.429s5.235,1.364,4.018,2.728h-7.69c-.535.046-.208-1.312.153-2.728Z" transform="translate(-223.817 -256.905)" fill="#fff"/>
            <path id="Trazado_1010154" data-name="Trazado 1010154" d="M231.36,151.726s-1.337-1.761-1.337-2.725c0-1.3,3.887-3.593,5.062-3.294s1.953,2.955,1.953,2.955Z" transform="translate(-219.262 -141.694)" fill="#fff"/>
            <path id="Trazado_1010155" data-name="Trazado 1010155" d="M223.722,235.933a124.811,124.811,0,0,1,11.12,11.407,3.737,3.737,0,0,1,0,4.758l-7.9,10.662c-2.263.459-3.743.5-4.219,0a38.2,38.2,0,0,1,5.4-13.019c-4.008-1.744-11.152-7.805-12.445-12.3Z" transform="translate(-209.637 -202.236)" fill="#77aaf4"/>
            <path id="Trazado_1010156" data-name="Trazado 1010156" d="M200.866,232.262a7.951,7.951,0,0,0,.265,5.139,213.414,213.414,0,0,0-3.484,27.472,5.73,5.73,0,0,0,3.843-.357c6.01-15.719,7.943-25.085,9.05-34.379l-1.11-2.369-3.569,1.289Z" transform="translate(-197.544 -196.759)" fill="#77aaf4"/>
            <path id="Trazado_1010157" data-name="Trazado 1010157" d="M251.074,152.941a8.5,8.5,0,0,1,.944.333,4.054,4.054,0,0,1,.269,3.065c-.472,1.764-1.625-2.473-1.625-2.473Z" transform="translate(-233.107 -146.564)" fill="#181818"/>
            <path id="Trazado_1010158" data-name="Trazado 1010158" d="M242.2,154.937s3.072,6.406.942,7.721a2.376,2.376,0,0,1-1.35.354l-1.021,3.051-3.868-1.717a10.42,10.42,0,0,0,.593-2.519,8.671,8.671,0,0,1-.8-4.019l1.334-2.445,2.389-.426,1.389.148Z" transform="translate(-223.729 -147.903)" fill="#fca886"/>
            <path id="Trazado_1010159" data-name="Trazado 1010159" d="M231.684,152.45a3.189,3.189,0,0,1,.453-2.054,3.684,3.684,0,0,1,1.462-1.186,7.473,7.473,0,0,1,2.016-.579c.434-.07.871-.115,1.309-.15a5.338,5.338,0,0,0,1.448-.213,1.935,1.935,0,0,0,.744-.468c.26.809.539,2.464-.479,3.089a13.374,13.374,0,0,1-4.285,1.428c.486,1.12.987,2.256.648,2.482a.733.733,0,0,0-.792-.541c-1.133.189-.982,1.682.518,2.051a1.192,1.192,0,0,1-.874.793C231.337,155.35,230.726,153.572,231.684,152.45Z" transform="translate(-220.088 -143.116)" fill="#181818"/>
            <path id="Trazado_1010160" data-name="Trazado 1010160" d="M232.081,258.276l-.16-.039.555-2.289.16.039Z" transform="translate(-220.535 -215.663)" fill="#3a70bf"/>
            <path id="Trazado_1010161" data-name="Trazado 1010161" d="M248.359,177.17a2.646,2.646,0,0,1-1.873-1.161l.138-.089a2.525,2.525,0,0,0,1.748,1.087Z" transform="translate(-230.306 -161.978)" fill="#d66947"/>
            <path id="Trazado_1010162" data-name="Trazado 1010162" d="M213.888,179.707c-3.213,1.1-9.064,4.85-12.021,22.922a63.968,63.968,0,0,0,11.424,1.344,42.413,42.413,0,0,0,1.411-5.511l1.84,1.7c2.074-7.277,2.416-12.092,1.454-18.175A6.573,6.573,0,0,1,213.888,179.707Z" transform="translate(-200.375 -164.519)" fill="#fff"/>
            <path id="Trazado_1010163" data-name="Trazado 1010163" d="M254.023,177.151l-8.857-1.542-.678,5.234,9.76.947a3.019,3.019,0,0,0,3.2-1.682l4.21-10.6-2.657-.556Z" transform="translate(-228.965 -157.305)" fill="#fca886"/>
            <path id="Trazado_1010164" data-name="Trazado 1010164" d="M251.66,177.579a33.432,33.432,0,0,1,4.44-7.316,5.1,5.1,0,0,1,3.239,1.885s-2.262,9.675-4.942,10.522c-2.345.884-12.345-.755-12.345-.755s-.834-3.985-.834-4.055.7-2.526.7-2.526l2.5.661A38.861,38.861,0,0,1,251.66,177.579Z" transform="translate(-226.772 -158.184)" fill="#fff"/>
            <path id="Trazado_1010165" data-name="Trazado 1010165" d="M244.632,205.229a17.324,17.324,0,0,1-3.8-.864l.055-.155a17.155,17.155,0,0,0,3.76.856Z" transform="translate(-226.516 -180.956)" fill="#92bbf4"/>
            <path id="Trazado_1010166" data-name="Trazado 1010166" d="M273.745,193.944l-.165,0a2.023,2.023,0,0,0-.82-1.659l.09-.138A2.151,2.151,0,0,1,273.745,193.944Z" transform="translate(-247.931 -172.862)" fill="#92bbf4"/>
            <path id="Trazado_1010167" data-name="Trazado 1010167" d="M252.8,275.736l1.154-1.232.12.113-.823.879,1.833-.3.027.163Z" transform="translate(-234.539 -228.11)" fill="#3a70bf"/>
            <path id="Trazado_1010168" data-name="Trazado 1010168" d="M237.757,176.669a8.485,8.485,0,0,0,3.919,2.768l.179,1.38-2.14-.09-1.5-1.717-1.129-1.175Z" transform="translate(-224.003 -162.481)" fill="#fff"/>
            <path id="Trazado_1010169" data-name="Trazado 1010169" d="M238.74,189.615l-.164-.016a3.048,3.048,0,0,1,1.044-2.166,3.314,3.314,0,0,1,2.253-.649l-.018.164a3.2,3.2,0,0,0-2.132.614A2.891,2.891,0,0,0,238.74,189.615Z" transform="translate(-225 -169.259)" fill="#92bbf4"/>
            <path id="Trazado_1010170" data-name="Trazado 1010170" d="M239.036,182.327a5.913,5.913,0,0,1-2.161-2.157l.142-.084a5.75,5.75,0,0,0,2.1,2.1Z" transform="translate(-223.859 -164.774)" fill="#92bbf4"/>
            <path id="Trazado_1010171" data-name="Trazado 1010171" d="M240.776,216.265l-.16-.04c.016-.066,1.644-6.572,2.194-10.009l.163.026C242.421,209.686,240.792,216.2,240.776,216.265Z" transform="translate(-226.368 -182.302)" fill="#92bbf4"/>
            <path id="Trazado_1010172" data-name="Trazado 1010172" d="M248.785,221.421l-.16-.037a48.048,48.048,0,0,0,.926-5.5l.164.017A48.4,48.4,0,0,1,248.785,221.421Z" transform="translate(-231.741 -188.789)" fill="#92bbf4"/>
            <path id="Trazado_1010173" data-name="Trazado 1010173" d="M207.923,226.843a10.7,10.7,0,0,1-2.344-.289l.041-.159a10,10,0,0,0,2.781.267l.2-1.07a8.261,8.261,0,0,1-2.662-.393l.057-.155a8.224,8.224,0,0,0,2.694.383h.011a.082.082,0,0,1,.081.1l-.232,1.229a.083.083,0,0,1-.074.067C208.293,226.836,208.107,226.843,207.923,226.843Z" transform="translate(-202.865 -194.933)" fill="#92bbf4"/>
            <path id="Trazado_1010174" data-name="Trazado 1010174" d="M212.432,227.772a.224.224,0,1,1-.224-.224A.224.224,0,0,1,212.432,227.772Z" transform="translate(-207.161 -196.612)" fill="#aed3ff"/>
          </g>
        </g>
        <g id="Grupo_1183465" data-name="Grupo 1183465" transform="translate(168.174 67.988)">
          <g id="Grupo_1183461" data-name="Grupo 1183461" transform="translate(0 1.014)">
            <path id="Trazado_1010175" data-name="Trazado 1010175" d="M549.414,263.158a1.449,1.449,0,0,1-1.225.018,2.68,2.68,0,0,1-1.026-.99,5.543,5.543,0,0,1-.7-1.369.6.6,0,0,1,.437-.854c-.03-.374.49-.594.662-.419-.106-.246.52-.634.65-.311-.284-.57-1.045-2.285-1.045-2.285-.222-.482.368-.95.712-.366.218.308,1.581,3.11,1.581,3.11.247-.133-.239-1.211.331-1.61a.118.118,0,0,1,.161.07,6.616,6.616,0,0,1,.4,3.249A1.887,1.887,0,0,1,549.414,263.158Z" transform="translate(-546.411 -256.31)" fill="#f3a786"/>
            <path id="Trazado_1010176" data-name="Trazado 1010176" d="M547.754,267.347a.517.517,0,0,1-.434-.257l.208-.133a.273.273,0,0,0,.226.143h0a.341.341,0,0,0,.273-.182l.07-.11.106.076a.312.312,0,0,0,.344.035.257.257,0,0,0,.114-.267l-.062-.433.279.336a.261.261,0,0,0,.329.085c.085-.05.1-.149.055-.272l-.585-1.426.228-.094.585,1.426a.442.442,0,0,1-.156.577.47.47,0,0,0-.66.277.536.536,0,0,1-.511.016.547.547,0,0,1-.409.2Z" transform="translate(-547.021 -262.039)" fill="#d66947"/>
            <rect id="Rectángulo_456318" data-name="Rectángulo 456318" width="0.247" height="1.494" transform="translate(1.05 3.286) rotate(-23.666)" fill="#d66947"/>
            <rect id="Rectángulo_456319" data-name="Rectángulo 456319" width="0.247" height="1.434" transform="matrix(0.902, -0.432, 0.432, 0.902, 0.375, 3.714)" fill="#d66947"/>
            <path id="Trazado_1010177" data-name="Trazado 1010177" d="M552.621,271.5a2.081,2.081,0,0,1-.225-.668l.245-.034a1.81,1.81,0,0,0,.2.588Z" transform="translate(-550.426 -266.031)" fill="#d66947"/>
            <path id="Trazado_1010178" data-name="Trazado 1010178" d="M553.166,267.027l-.208-.133a1.809,1.809,0,0,1,.857-.664l.08.233A1.578,1.578,0,0,0,553.166,267.027Z" transform="translate(-550.803 -262.964)" fill="#d66947"/>
          </g>
          <path id="Trazado_1010179" data-name="Trazado 1010179" d="M597.913,253.449a5.809,5.809,0,0,1,3.876.245,6.336,6.336,0,0,1,2.845,3.07c.633,1.193,1.292,2.375,1.979,3.536,1.122,1.895,1.742,4.54.691,6.7.383,3.386-9.259-.431-9.259-.431s-1.511,2.79-2.728.982c-2.417-2.586.411-8.413.411-8.413C595.44,256.054,595.964,254.011,597.913,253.449Z" transform="translate(-578.562 -253.228)" fill="#181818"/>
          <path id="Trazado_1010180" data-name="Trazado 1010180" d="M567.951,281.417l-8.707,1.515-3.717-6.116a15.721,15.721,0,0,1-2.806,1.089l3.152,7.935a2.969,2.969,0,0,0,3.15,1.653l9.6-.931Z" transform="translate(-550.644 -269.052)" fill="#fca886"/>
          <path id="Trazado_1010181" data-name="Trazado 1010181" d="M557.657,279.392a32.876,32.876,0,0,0-4.364-7.192,5.014,5.014,0,0,0-3.184,1.853s2.223,9.512,4.859,10.344c2.306.869,12.136-.742,12.136-.742s.82-3.918.82-3.986-.683-2.483-.683-2.483l-.826.126A58.176,58.176,0,0,0,557.657,279.392Z" transform="translate(-548.891 -265.955)" fill="#fff"/>
          <path id="Trazado_1010182" data-name="Trazado 1010182" d="M570.27,295.478a2.117,2.117,0,0,1,.88-1.771l.09.138a1.987,1.987,0,0,0-.805,1.63Z" transform="translate(-562.416 -280.382)" fill="#92bbf4"/>
          <path id="Trazado_1010183" data-name="Trazado 1010183" d="M618.082,430.845a4.528,4.528,0,0,1-.64,1.6c-.356.32-1.884.773-1.768,2.2h4.78s.56-.019.56-.532-.195-1.7-.335-2.894A2.255,2.255,0,0,0,618.082,430.845Z" transform="translate(-592.869 -372.205)" fill="#fff"/>
          <path id="Trazado_1010184" data-name="Trazado 1010184" d="M591.4,432.2c-.623.088-.558,1.253-1.949,1.585-1.693.346-2.723.944-2.739,1.6.016.135-.048.25.024.336h7a.516.516,0,0,0,.517-.521,20.006,20.006,0,0,0-.361-2.475l-.229-.353C593.412,432.778,591.718,433.112,591.4,432.2Z" transform="translate(-573.436 -373.283)" fill="#fff"/>
          <path id="Trazado_1010185" data-name="Trazado 1010185" d="M606.963,276.82c-2.212,1.179-4.576,1.914-7.772.229l2.108-.816V271.41h3.862v4.834Z" transform="translate(-581.816 -265.425)" fill="#f3a786"/>
          <path id="Trazado_1010186" data-name="Trazado 1010186" d="M606.962,286.9c-2.929,4.931-5.65,7.531-7.772.229l1.783-.7c.695.621,2.754.722,4.71.028Z" transform="translate(-581.816 -275.5)" fill="#77aaf4"/>
          <path id="Trazado_1010187" data-name="Trazado 1010187" d="M601.514,365.762c-.333-.279-2.5-26.422-2.5-26.422l-.346-.187s-.518,26.437-.686,26.6c-.307.305-3.513-.011-3.754-.289-.149-.173-2.707-24.539-1.608-29.038a13.644,13.644,0,0,1,2.293-5.314h8.112s2.508,2.284,2.627,9.162c0,0,.918,16.361-.451,25.287A8.08,8.08,0,0,1,601.514,365.762Z" transform="translate(-577.227 -305.476)" fill="#181818"/>
          <path id="Trazado_1010188" data-name="Trazado 1010188" d="M604.362,309.732c-6.2,1.219-13.118.735-14.967-.077l.973-11.29s-1.2-7-.708-8.218a4.226,4.226,0,0,1,2.674-2.419l1.267-.447a14.207,14.207,0,0,0,1.894,4.193,37.719,37.719,0,0,1,4.342-4.228l1.843.475c1.469.458,2.228.9,2.7,2.153.636,1.653-1.675,9.08-1.675,9.08A34.8,34.8,0,0,1,604.362,309.732Z" transform="translate(-575.245 -276.047)" fill="#fff"/>
          <path id="Trazado_1010189" data-name="Trazado 1010189" d="M602.859,265.853h0a2.859,2.859,0,0,0,2.85-2.85V260.87a2.859,2.859,0,0,0-2.85-2.85h0a2.859,2.859,0,0,0-2.85,2.85S599.946,265.853,602.859,265.853Z" transform="translate(-582.365 -256.443)" fill="#f3a786"/>
          <path id="Trazado_1010190" data-name="Trazado 1010190" d="M606.516,279.8a2.94,2.94,0,0,1-1.056-.195l.088-.231a2.7,2.7,0,0,0,.968.178,2.73,2.73,0,0,0,2.045-.927l.185.163A2.978,2.978,0,0,1,606.516,279.8Z" transform="translate(-586.022 -270.263)" fill="#d66947"/>
          <path id="Trazado_1010191" data-name="Trazado 1010191" d="M605.188,259.353a9.052,9.052,0,0,1-3.982-2.566,2.327,2.327,0,0,0-1.655,1.642l-.327-1.3.428-1.111,1.949-.709,2.011.118,1.377,1.016.72,1.484Z" transform="translate(-581.838 -254.625)" fill="#181818"/>
          <g id="Grupo_1183462" data-name="Grupo 1183462" transform="translate(7.782 15.663)">
            <path id="Trazado_1010192" data-name="Trazado 1010192" d="M579.325,311.49h-6.858a.72.72,0,0,1-.718-.718l-1.7-9.244a.72.72,0,0,1,.718-.718h6.858a.72.72,0,0,1,.718.718l1.7,9.244A.72.72,0,0,1,579.325,311.49Z" transform="translate(-570.052 -300.809)" fill="#77aaf4"/>
            <path id="Trazado_1010193" data-name="Trazado 1010193" d="M593.363,311.5v-.165a.625.625,0,0,0,.624-.624l-1.667-9.076a.63.63,0,0,0-.625-.639v-.165a.79.79,0,0,1,.789.789l1.667,9.076A.791.791,0,0,1,593.363,311.5Z" transform="translate(-584.57 -300.822)" fill="#3a70bf"/>
          </g>
          <g id="Grupo_1183463" data-name="Grupo 1183463" transform="translate(22.926 4.512)">
            <path id="Trazado_1010194" data-name="Trazado 1010194" d="M616.364,267.247c.03,0,.39-.543.867-.2.752.548.029,2.147-.791,1.973C615.621,268.686,616.364,267.247,616.364,267.247Z" transform="translate(-616.055 -266.933)" fill="#f3a786"/>
          </g>
          <g id="Grupo_1183464" data-name="Grupo 1183464" transform="translate(12.722 18.785)">
            <path id="Trazado_1010195" data-name="Trazado 1010195" d="M591.171,314.358c-.586,1.145-2.122.639-2.318.61a10.643,10.643,0,0,1-2.988-1.6c-.533-.336-.276-.78-.1-.71.081.041-.295-.179-.37-.226-.653-.444-.2-.873.1-.769-.56-.256-.32-.888.053-.751-.38-.227-.136-.8.477-.566.351.1,3.078,1.377,3.078,1.377l-.194-1.141a6.763,6.763,0,0,1,1.9,1.886A1.828,1.828,0,0,1,591.171,314.358Z" transform="translate(-585.057 -310.291)" fill="#f6a97e"/>
            <path id="Trazado_1010196" data-name="Trazado 1010196" d="M588.759,318.281l-1.622-.77.071-.149,1.622.77Z" transform="translate(-586.452 -315.034)" fill="#d66947"/>
            <path id="Trazado_1010197" data-name="Trazado 1010197" d="M588.382,315.531l-2.113-1.1.076-.146,2.113,1.1Z" transform="translate(-585.87 -312.969)" fill="#d66947"/>
            <rect id="Rectángulo_456320" data-name="Rectángulo 456320" width="0.165" height="2.637" transform="translate(0.455 0.686) rotate(-63.794)" fill="#d66947"/>
          </g>
          <path id="Trazado_1010198" data-name="Trazado 1010198" d="M600.971,319.808l-.9-.275a3.579,3.579,0,0,1,1.156-3.078l1.44.383Z" transform="translate(-582.365 -295.641)" fill="#fff"/>
          <path id="Trazado_1010199" data-name="Trazado 1010199" d="M608.836,291.979a17.206,17.206,0,0,0,.471,8.129c-1.947-.645-4.938-1.553-5.4-1.191-.839,1.142-1.344,2.112-1.1,3.087.017.568,8.107,4.679,10.46,2.33,2.277-2.338.285-11.852.285-11.852C612.93,288.97,609.485,289.317,608.836,291.979Z" transform="translate(-584.2 -277.838)" fill="#fff"/>
          <path id="Trazado_1010200" data-name="Trazado 1010200" d="M623.542,321.687a1.687,1.687,0,0,0-1-1.281l.077-.145a1.841,1.841,0,0,1,1.088,1.406Z" transform="translate(-597.479 -298.195)" fill="#92bbf4"/>
          <path id="Trazado_1010201" data-name="Trazado 1010201" d="M602.588,320.18a4.049,4.049,0,0,1,1.146-3.195l.118.115a3.959,3.959,0,0,0-1.1,3.048Z" transform="translate(-584.063 -295.997)" fill="#92bbf4"/>
          <path id="Trazado_1010202" data-name="Trazado 1010202" d="M609.9,302.41a.078.078,0,0,1-.026,0c-3.542-1.189-4.978-1.136-5.333-1.09a.1.1,0,0,1-.032,0l-.871-.232.042-.159.856.227c.385-.046,1.823-.083,5.239,1.049-1.475-4.962-1.079-8.169.086-8.78l.076.146c-1.282.672-1.265,4.429.04,8.738a.083.083,0,0,1-.021.083A.08.08,0,0,1,609.9,302.41Z" transform="translate(-584.798 -280.189)" fill="#92bbf4"/>
          <path id="Trazado_1010203" data-name="Trazado 1010203" d="M609.646,328.934c-2.6,0-7.234-1.465-8.648-2.94l-.883-.268.048-.157.9.275a.083.083,0,0,1,.036.022c1.612,1.709,8.01,3.488,9.78,2.718l.065.151A3.406,3.406,0,0,1,609.646,328.934Z" transform="translate(-582.436 -301.755)" fill="#92bbf4"/>
          <path id="Trazado_1010204" data-name="Trazado 1010204" d="M602.578,292.776a.073.073,0,0,1-.064-.031,14.32,14.32,0,0,1-2.633-5.046l.159-.044a14.132,14.132,0,0,0,2.54,4.909,43.555,43.555,0,0,1,4.792-4.909l.107.125a43.7,43.7,0,0,0-4.839,4.967A.081.081,0,0,1,602.578,292.776Z" transform="translate(-582.279 -276.322)" fill="#92bbf4"/>
        </g>
        <g id="Grupo_1183473" data-name="Grupo 1183473" transform="translate(13.532 85.4)">
          <g id="Grupo_1183466" data-name="Grupo 1183466" transform="translate(8.96)">
            <rect id="Rectángulo_456321" data-name="Rectángulo 456321" width="0.165" height="7.667" transform="translate(8.225 19.978) rotate(-12.463)" fill="#181818"/>
            <path id="Trazado_1010205" data-name="Trazado 1010205" d="M117.625,330.446l-4.693,1.037a.855.855,0,0,1-1.019-.65l-3.49-15.794a.854.854,0,0,1,.65-1.018l4.693-1.037a.855.855,0,0,1,1.019.65l3.49,15.794A.854.854,0,0,1,117.625,330.446Z" transform="translate(-106.908 -310.711)" fill="#181818"/>
            <path id="Trazado_1010206" data-name="Trazado 1010206" d="M115.579,322.586l-5.909,1.306a.708.708,0,0,1-.845-.539L105.5,308.288a.708.708,0,0,1,.539-.845l5.909-1.306a.708.708,0,0,1,.845.539l3.329,15.065A.709.709,0,0,1,115.579,322.586Z" transform="translate(-104.947 -306.121)" fill="#181818"/>
            <path id="Trazado_1010207" data-name="Trazado 1010207" d="M115,323.029l-7.309,1.615a.744.744,0,0,1-.887-.566l-2.922-13.221a.744.744,0,0,1,.566-.888l7.309-1.615a.744.744,0,0,1,.887.566l2.922,13.221A.744.744,0,0,1,115,323.029Z" transform="translate(-103.862 -307.607)" fill="#7baefa"/>
            <rect id="Rectángulo_456322" data-name="Rectángulo 456322" width="6.514" height="0.165" transform="matrix(0.977, -0.215, 0.215, 0.977, 4.474, 17.69)" fill="#666"/>
          </g>
          <g id="Grupo_1183469" data-name="Grupo 1183469" transform="translate(0 5.492)">
            <g id="Grupo_1183467" data-name="Grupo 1183467" transform="translate(10.903 4.182)">
              <path id="Trazado_1010208" data-name="Trazado 1010208" d="M109.789,337.152c-.245,1.289,1.31,1.844,1.486,1.943a10.859,10.859,0,0,0,3.41.581c.64.063.71-.456.527-.508-.091-.017.349.04.44.049.8.051.706-.58.4-.683.612.145.814-.515.427-.639.449.055.609-.557-.03-.755-.345-.14-3.343-.817-3.343-.817.072-.267,1.233.02,1.488-.617a.115.115,0,0,0-.1-.13,7.033,7.033,0,0,0-3.234.28A1.861,1.861,0,0,0,109.789,337.152Z" transform="translate(-109.763 -335.509)" fill="#f6a97e"/>
              <rect id="Rectángulo_456323" data-name="Rectángulo 456323" width="0.165" height="1.832" transform="matrix(0.215, -0.976, 0.976, 0.215, 3.604, 3.36)" fill="#d1655f"/>
              <rect id="Rectángulo_456324" data-name="Rectángulo 456324" width="0.165" height="2.432" transform="translate(3.868 2.685) rotate(-79.712)" fill="#d1655f"/>
              <rect id="Rectángulo_456325" data-name="Rectángulo 456325" width="0.165" height="2.691" transform="translate(4.058 1.91) rotate(-78.37)" fill="#d1655f"/>
            </g>
            <g id="Grupo_1183468" data-name="Grupo 1183468">
              <path id="Trazado_1010209" data-name="Trazado 1010209" d="M88.55,330.465a4.707,4.707,0,0,1,1.129-3.526l-9.806-4.057a2.5,2.5,0,1,0-1.417,4.783,46.072,46.072,0,0,0,8.744,2.579C87.63,330.311,88.55,330.465,88.55,330.465Z" transform="translate(-76.643 -322.805)" fill="#fff"/>
            </g>
            <rect id="Rectángulo_456326" data-name="Rectángulo 456326" width="0.164" height="5.832" transform="translate(4.715 0.747) rotate(-67.312)" fill="#92bbf4"/>
            <path id="Trazado_1010210" data-name="Trazado 1010210" d="M100.1,343.212a34.83,34.83,0,0,1-5.074-1.191l.051-.156a34.7,34.7,0,0,0,5.046,1.184Z" transform="translate(-88.972 -335.59)" fill="#92bbf4"/>
          </g>
          <g id="Grupo_1183472" data-name="Grupo 1183472" transform="translate(11.482 2.855)">
            <g id="Grupo_1183470" data-name="Grupo 1183470" transform="translate(0 1.068)">
              <path id="Trazado_1010211" data-name="Trazado 1010211" d="M118.565,320.672c-.072,1.3-1.727,1.463-1.923,1.517a11.119,11.119,0,0,1-3.476-.251c-.641-.092-.585-.607-.393-.614.093,0-.351-.044-.442-.057-.8-.142-.55-.725-.226-.752-.633-.006-.672-.689-.264-.716-.452-.054-.461-.68.212-.719.371-.053,3.467.008,3.467.008-.006-.274-1.211-.274-1.306-.947a.116.116,0,0,1,.125-.1,7.166,7.166,0,0,1,3.1,1.038A1.849,1.849,0,0,1,118.565,320.672Z" transform="translate(-111.522 -318.037)" fill="#f6a97e"/>
              <rect id="Rectángulo_456327" data-name="Rectángulo 456327" width="0.165" height="1.846" transform="translate(1.281 3.399) rotate(-88.59)" fill="#d1655f"/>
              <rect id="Rectángulo_456328" data-name="Rectángulo 456328" width="0.165" height="2.45" transform="matrix(0.062, -0.998, 0.998, 0.062, 0.584, 2.569)" fill="#d1655f"/>
              <rect id="Rectángulo_456329" data-name="Rectángulo 456329" width="0.165" height="2.711" transform="matrix(0.038, -0.999, 0.999, 0.038, 0.33, 1.831)" fill="#d1655f"/>
            </g>
            <g id="Grupo_1183471" data-name="Grupo 1183471" transform="translate(5.39)">
              <path id="Trazado_1010212" data-name="Trazado 1010212" d="M128.148,320.028a4.6,4.6,0,0,0-.252-3.662l10.573-1.573c3.538.147,3.5,4.536.23,4.939a45.362,45.362,0,0,1-9.175.4C129.086,320.1,128.148,320.028,128.148,320.028Z" transform="translate(-127.896 -314.793)" fill="#fff"/>
            </g>
            <path id="Trazado_1010213" data-name="Trazado 1010213" d="M133.063,316.815l-.029-.162c.308-.055,7.563-1.354,8.526-.793l-.083.142C140.748,315.578,135.654,316.348,133.063,316.815Z" transform="translate(-125.952 -315.414)" fill="#92bbf4"/>
            <rect id="Rectángulo_456330" data-name="Rectángulo 456330" width="0.165" height="1.454" transform="translate(8.007 5.484) rotate(-88.997)" fill="#92bbf4"/>
          </g>
        </g>
        <rect id="Rectángulo_456331" data-name="Rectángulo 456331" width="223.496" height="0.329" transform="translate(0 130.305)" fill="#181818"/>
      </g>
    </g>
  </g>
</svg>
