<svg id="Grupo_1180882" data-name="Grupo 1180882" xmlns="http://www.w3.org/2000/svg" width="84" height="147.188" viewBox="0 0 84 147.188">
  <rect id="Rectángulo_455021" data-name="Rectángulo 455021" width="84" height="147.188" rx="10" transform="translate(0 0)" fill="#99bfb7"/>
  <g id="Grupo_1181711" data-name="Grupo 1181711" transform="translate(-55.253 34.953)">
    <path id="Trazado_1006207" data-name="Trazado 1006207" d="M112.25,445.877l-3.869-1.934a.158.158,0,0,0-.141,0l-3.869,1.934a.158.158,0,0,1-.228-.141V435.475h8.335v10.261A.158.158,0,0,1,112.25,445.877Z" transform="translate(-29.812 -369.745)" fill="#9c9c9c"/>
    <path id="Trazado_1006208" data-name="Trazado 1006208" d="M120.033,76.266h37.509l4.168-4.168,4.168-6.251V17.919l-4.168-6.251L157.541,7.5H120.033l-2.084,37.509Z" transform="translate(-41.534 -6.368)" fill="#ee6161"/>
    <path id="Trazado_1006209" data-name="Trazado 1006209" d="M172.3,24.592l-1.87-1.87V74.705a11.466,11.466,0,0,1-11.466,11.466H130.421l.2,3.019h37.509l4.168-4.168,4.168-6.251V30.843Z" transform="translate(-52.124 -19.292)" fill="#e94444"/>
    <path id="Trazado_1006210" data-name="Trazado 1006210" d="M84.867,76.266H76.685a.153.153,0,0,1-.153-.153V7.653a.153.153,0,0,1,.153-.153h8.182V76.266Z" transform="translate(-6.369 -6.368)" fill="#ffd15b"/>
    <path id="Trazado_1006211" data-name="Trazado 1006211" d="M366.451,7.5v4.168H372.7v6.251h4.168V7.815a.316.316,0,0,0-.316-.316h-10.1Z" transform="translate(-252.528 -6.367)" fill="#ffd15b"/>
    <path id="Trazado_1006212" data-name="Trazado 1006212" d="M401.515,7.816A.316.316,0,0,0,401.2,7.5h-5.722v4.168h1.87v6.251h4.168V7.816Z" transform="translate(-277.172 -6.368)" fill="#ffc344"/>
    <path id="Trazado_1006213" data-name="Trazado 1006213" d="M366.451,404.478V400.31H372.7v-6.251h4.168v10.1a.316.316,0,0,1-.316.316h-10.1Z" transform="translate(-252.528 -334.58)" fill="#ffc344"/>
    <circle id="Elipse_13871" data-name="Elipse 13871" cx="2.084" cy="2.084" r="2.084" transform="translate(99.337 24.054)" fill="#ffd15b"/>
    <path id="Trazado_1006214" data-name="Trazado 1006214" d="M167.7,110.391h-8.335l2.084-3.126-2.084-3.126H167.7Z" transform="translate(-76.7 -88.421)" fill="#fff9df"/>
    <path id="Trazado_1006215" data-name="Trazado 1006215" d="M352.645,110.391h8.335l-2.084-3.126,2.084-3.126h-8.335Z" transform="translate(-240.805 -88.421)" fill="#fff9df"/>
    <path id="Trazado_1006216" data-name="Trazado 1006216" d="M395.477,104.14v2.805l1.87-2.805Z" transform="translate(-277.172 -88.421)" fill="#fff6ce"/>
    <path id="Trazado_1006217" data-name="Trazado 1006217" d="M395.477,126.97v2.806h1.87Z" transform="translate(-277.172 -107.805)" fill="#fff6ce"/>
    <path id="Trazado_1006218" data-name="Trazado 1006218" d="M200.783,76.528h25.006v6.251H200.783Z" transform="translate(-111.865 -64.977)" fill="#fff"/>
    <path id="Trazado_1006219" data-name="Trazado 1006219" d="M124.026,0H70.316a1.287,1.287,0,0,0-1.285,1.285v68.46a1.286,1.286,0,0,0,1.285,1.285H73.2v4.962a1.29,1.29,0,0,0,1.866,1.154L78.5,75.429l3.433,1.716A1.29,1.29,0,0,0,83.8,75.991V71.03h40.229a1.45,1.45,0,0,0,1.448-1.448V34.565a1.132,1.132,0,1,0-2.264,0V58.347h-3.036a1.132,1.132,0,0,0-1.132,1.132V64.6h-5.119a1.132,1.132,0,0,0-1.132,1.132v3.036H79.631V65.037a1.132,1.132,0,0,0-2.264,0v3.729H71.3V64.779h3.036a1.132,1.132,0,1,0,0-2.264H71.3V56.741h3.036a1.132,1.132,0,1,0,0-2.264H71.3V48.7h3.036a1.132,1.132,0,1,0,0-2.264H71.3V40.666h3.036a1.132,1.132,0,1,0,0-2.264H71.3V32.629h3.036a1.132,1.132,0,1,0,0-2.264H71.3V24.591h3.036a1.132,1.132,0,1,0,0-2.264H71.3V16.554h3.036a1.132,1.132,0,1,0,0-2.264H71.3V8.516h3.036a1.132,1.132,0,1,0,0-2.264H71.3V2.264h6.071v57.49a1.132,1.132,0,1,0,2.264,0V2.264h33.161V5.3a1.132,1.132,0,0,0,1.132,1.132h5.119v5.119a1.132,1.132,0,0,0,1.132,1.132h3.036v16.6a1.132,1.132,0,1,0,2.264,0V1.448A1.45,1.45,0,0,0,124.026,0ZM81.534,74.415l-2.459-1.229a1.3,1.3,0,0,0-1.154,0l-2.459,1.229V71.03h6.071Zm33.522-7.553h5.119a1.132,1.132,0,0,0,1.132-1.132V60.611h1.9v8.155h-8.155v-1.9Zm5.119-62.695h-5.119v-1.9h8.155v8.155h-1.9V5.3A1.132,1.132,0,0,0,120.175,4.168Z"/>
    <path id="Trazado_1006220" data-name="Trazado 1006220" d="M200.143,158.295a1.132,1.132,0,0,0,0-2.264h-6.862a2.409,2.409,0,0,1-1.715-.71,4.658,4.658,0,0,0-3.316-1.374h-1.768a3.216,3.216,0,0,0-6.02,0h-1.768a4.658,4.658,0,0,0-3.316,1.373,2.409,2.409,0,0,1-1.715.71H166.8a1.132,1.132,0,1,0,0,2.264h2.718L168,164.366h-1.2a1.132,1.132,0,1,0,0,2.264h8.335a1.132,1.132,0,0,0,0-2.264h-1.2l-1.518-6.071h1.244a4.659,4.659,0,0,0,3.316-1.373,2.409,2.409,0,0,1,1.715-.71h1.768a3.233,3.233,0,0,0,1.878,1.878v18.78h-3.035a1.132,1.132,0,0,0,0,2.264h8.335a1.132,1.132,0,1,0,0-2.264H184.6v-18.78a3.233,3.233,0,0,0,1.878-1.878h1.768a2.409,2.409,0,0,1,1.715.71,4.659,4.659,0,0,0,3.316,1.373h1.244l-1.518,6.071h-1.2a1.132,1.132,0,1,0,0,2.264h8.335a1.132,1.132,0,0,0,0-2.264h-1.2l-1.518-6.071h2.718Zm-29.807,6.071.634-2.536.634,2.536Zm13.137-10.239a.952.952,0,1,1-.952.952A.953.953,0,0,1,183.473,154.127Zm11.869,10.239.634-2.536.634,2.536Z" transform="translate(-82.052 -128.941)"/>
    <path id="Trazado_1006221" data-name="Trazado 1006221" d="M220.553,360.079a1.132,1.132,0,0,0-1.132-1.132H194.415a1.132,1.132,0,1,0,0,2.264h25.006A1.132,1.132,0,0,0,220.553,360.079Z" transform="translate(-105.497 -304.768)"/>
    <path id="Trazado_1006222" data-name="Trazado 1006222" d="M235.832,386.559a1.132,1.132,0,1,0,0,2.264h12.5a1.132,1.132,0,1,0,0-2.264Z" transform="translate(-140.663 -328.212)"/>
    <path id="Trazado_1006223" data-name="Trazado 1006223" d="M191.505,73.794a1.132,1.132,0,0,0-1-.6h-5.119V70.16a1.132,1.132,0,0,0-1.132-1.132H169.226a1.132,1.132,0,0,0,0,2.264h13.9v3.987H160.382V71.292h3.561a1.132,1.132,0,1,0,0-2.264H159.25a1.132,1.132,0,0,0-1.132,1.132V73.2H153a1.132,1.132,0,0,0-.942,1.76l1.665,2.5-1.665,2.5a1.132,1.132,0,0,0,.942,1.76h8.335a1.132,1.132,0,0,0,1.132-1.132V77.544H181.04v3.036a1.132,1.132,0,0,0,1.132,1.132h8.335a1.132,1.132,0,0,0,.942-1.76l-1.665-2.5,1.665-2.5A1.132,1.132,0,0,0,191.505,73.794Zm-31.3,5.654h-5.088l.91-1.366a1.132,1.132,0,0,0,0-1.256l-.91-1.365h3v.952a1.132,1.132,0,0,0,1.132,1.132h.952Zm23.1,0v-1.9h.952a1.132,1.132,0,0,0,1.132-1.132V75.46h3l-.91,1.365a1.132,1.132,0,0,0,0,1.256l.91,1.366H183.3Z" transform="translate(-70.332 -58.609)"/>
  </g>
</svg>
