<svg xmlns="http://www.w3.org/2000/svg" width="84" height="84" viewBox="0 0 84 84">
  <g id="Grupo_1179450" data-name="Grupo 1179450" transform="translate(-528.34 -353)">
    <rect id="Rectángulo_455021" data-name="Rectángulo 455021" width="84" height="84" rx="10" transform="translate(528.34 353)" fill="#99bfb7"/>
    <g id="Grupo_1183258" data-name="Grupo 1183258" transform="translate(539.084 364)">
      <g id="Grupo_1183257" data-name="Grupo 1183257">
        <g id="Grupo_1183237" data-name="Grupo 1183237">
          <path id="Trazado_1009410" data-name="Trazado 1009410" d="M41,11v4a2.006,2.006,0,0,0-2-2H37v-.76A3.239,3.239,0,0,0,33.76,9a3.277,3.277,0,0,0-1.44.34L31,10l-1.32-.66A3.277,3.277,0,0,0,28.24,9,3.244,3.244,0,0,0,25,12.24V13H23a2.015,2.015,0,0,0-2,2V11a6,6,0,0,1,6-6h8A6,6,0,0,1,41,11Z" fill="#b27946"/>
        </g>
        <g id="Grupo_1183238" data-name="Grupo 1183238">
          <path id="Trazado_1009411" data-name="Trazado 1009411" d="M35,5H27a4,4,0,0,1,8,0Z" fill="#b27946"/>
        </g>
        <g id="Grupo_1183239" data-name="Grupo 1183239">
          <path id="Trazado_1009412" data-name="Trazado 1009412" d="M13,28v2a1,1,0,0,1-1,1H2a1,1,0,0,1-1-1V28a1,1,0,0,1,1-1H12A1,1,0,0,1,13,28Z" fill="#cf9e76"/>
        </g>
        <g id="Grupo_1183240" data-name="Grupo 1183240">
          <path id="Trazado_1009413" data-name="Trazado 1009413" d="M9,2V27H5V2A1,1,0,0,1,6,1H8A1,1,0,0,1,9,2Z" fill="#dfb28b"/>
        </g>
        <g id="Grupo_1183241" data-name="Grupo 1183241">
          <path id="Trazado_1009414" data-name="Trazado 1009414" d="M9,39v3a1,1,0,0,1-1,1H6a1,1,0,0,1-1-1V31H9Z" fill="#b27946"/>
        </g>
        <g id="Grupo_1183242" data-name="Grupo 1183242">
          <path id="Trazado_1009415" data-name="Trazado 1009415" d="M35.77,41.13l2.77,7.62-8.16-4.54Z" fill="#aab2bd"/>
        </g>
        <g id="Grupo_1183243" data-name="Grupo 1183243">
          <path id="Trazado_1009416" data-name="Trazado 1009416" d="M35,39l.77,2.13-5.39,3.08-6.66,3.81L27,39Z" fill="#ccd1d9"/>
        </g>
        <g id="Grupo_1183244" data-name="Grupo 1183244">
          <path id="Trazado_1009417" data-name="Trazado 1009417" d="M37,61H19l4.72-12.98,6.66-3.81,8.16,4.54L43,61Z" fill="#e6e9ed"/>
        </g>
        <g id="Grupo_1183245" data-name="Grupo 1183245">
          <path id="Trazado_1009418" data-name="Trazado 1009418" d="M36.94,32.97a2.514,2.514,0,0,1-.12,1.48L35,39H27l-1.82-4.55a.784.784,0,0,1-.05-.14,2.338,2.338,0,0,1-.13-.79A2.522,2.522,0,0,1,27.52,31h6.96a2.493,2.493,0,0,1,1.78.74A2.464,2.464,0,0,1,36.94,32.97Z" fill="#e6e9ed"/>
        </g>
        <g id="Grupo_1183246" data-name="Grupo 1183246">
          <path id="Trazado_1009419" data-name="Trazado 1009419" d="M53,35h8a4,4,0,1,1-8,0Z" fill="#fcd770"/>
        </g>
        <g id="Grupo_1183247" data-name="Grupo 1183247">
          <path id="Trazado_1009420" data-name="Trazado 1009420" d="M41,35h8a4,4,0,1,1-8,0Z" fill="#fcd770"/>
        </g>
        <g id="Grupo_1183248" data-name="Grupo 1183248">
          <path id="Trazado_1009421" data-name="Trazado 1009421" d="M53,13v1a1,1,0,0,1-1,1H50a1,1,0,0,1-1-1V6a1,1,0,0,1,1-1h2a1,1,0,0,1,1,1v7Z" fill="#969faa"/>
        </g>
        <g id="Grupo_1183249" data-name="Grupo 1183249">
          <path id="Trazado_1009422" data-name="Trazado 1009422" d="M57,9v4a2.006,2.006,0,0,1-2,2,2.015,2.015,0,0,1-2-2V9a2.006,2.006,0,0,1,2-2,2.015,2.015,0,0,1,2,2Z" fill="#f0d0b4"/>
        </g>
        <g id="Grupo_1183250" data-name="Grupo 1183250">
          <path id="Trazado_1009423" data-name="Trazado 1009423" d="M51,23v4H45l-2.18,4.36a14.747,14.747,0,0,1-5.88,1.61,2.464,2.464,0,0,0-.68-1.23A2.493,2.493,0,0,0,34.48,31H34l1-4A10,10,0,0,0,45,17V11a2.006,2.006,0,0,1,2-2h2v5a1,1,0,0,0,1,1h1v4a2,2,0,0,0,0,4Z" fill="#f0d0b4"/>
        </g>
        <g id="Grupo_1183251" data-name="Grupo 1183251">
          <path id="Trazado_1009424" data-name="Trazado 1009424" d="M27,27l1,4h-.48A2.522,2.522,0,0,0,25,33.52a2.338,2.338,0,0,0,.13.79L13.3,38.53a7.933,7.933,0,0,1-2.69.47H9V31h3l2,2,7.62-4.57A9.973,9.973,0,0,1,26.77,27Z" fill="#f0d0b4"/>
        </g>
        <g id="Grupo_1183252" data-name="Grupo 1183252">
          <path id="Trazado_1009425" data-name="Trazado 1009425" d="M39,13a2.006,2.006,0,0,1,2,2,2.015,2.015,0,0,1-2,2H37V13Z" fill="#f0d0b4"/>
        </g>
        <g id="Grupo_1183253" data-name="Grupo 1183253">
          <path id="Trazado_1009426" data-name="Trazado 1009426" d="M37,17v1.88A5.278,5.278,0,0,1,33,24v3h2l-1,4H28l-1-4h2V24a5.283,5.283,0,0,1-4-5.12V17Z" fill="#f0d0b4"/>
        </g>
        <g id="Grupo_1183254" data-name="Grupo 1183254">
          <path id="Trazado_1009427" data-name="Trazado 1009427" d="M25,13v4H23a2.006,2.006,0,0,1-2-2,2.015,2.015,0,0,1,2-2Z" fill="#f0d0b4"/>
        </g>
        <g id="Grupo_1183255" data-name="Grupo 1183255">
          <path id="Trazado_1009428" data-name="Trazado 1009428" d="M31,10l1.32-.66A3.277,3.277,0,0,1,33.76,9,3.239,3.239,0,0,1,37,12.24V13H25v-.76A3.244,3.244,0,0,1,28.24,9a3.277,3.277,0,0,1,1.44.34Z" fill="#f0d0b4"/>
        </g>
        <g id="Grupo_1183256" data-name="Grupo 1183256">
          <path id="Trazado_1009429" data-name="Trazado 1009429" d="M25,13H37v4H25Z" fill="#75b1f2"/>
        </g>
      </g>
      <path id="Trazado_1009430" data-name="Trazado 1009430" d="M57.618,26H52V23.816A3,3,0,0,0,54,21H52a1,1,0,1,1-1-1h1V16a1.983,1.983,0,0,0,1.324-.513A3,3,0,0,0,58,13V9a3,3,0,0,0-3-3,2.966,2.966,0,0,0-1,.184V6a2,2,0,0,0-2-2H50a2,2,0,0,0-2,2V8H47a3,3,0,0,0-3,3v6a9.01,9.01,0,0,1-9,9H34V24.729a6.271,6.271,0,0,0,4-5.853V18h1a3,3,0,0,0,3-3V11a7.007,7.007,0,0,0-6.094-6.935,4.993,4.993,0,0,0-9.812,0A7.007,7.007,0,0,0,20,11v4a3,3,0,0,0,3,3h1v.877a6.273,6.273,0,0,0,4,5.853V26H26.77a11,11,0,0,0-5.659,1.568l-6.955,4.173-.554-.554A1.991,1.991,0,0,0,14,30V28a2,2,0,0,0-2-2H10V2A2,2,0,0,0,8,0H6A2,2,0,0,0,4,2V26H2a2,2,0,0,0-2,2v2a2,2,0,0,0,2,2H4V42a2,2,0,0,0,2,2H8a2,2,0,0,0,2-2V40h.614a8.985,8.985,0,0,0,3.026-.524l10.913-3.9,1.376,3.439L17.572,62H44.427L36.07,39.017l1.679-4.2a3.458,3.458,0,0,0,.218-.959,15.792,15.792,0,0,0,2.783-.6l-.75,1.5V35a5,5,0,0,0,10,0v-.236L46.618,28h8.764L52,34.764V35a5,5,0,0,0,10,0v-.236ZM55,8a1,1,0,0,1,1,1v4a1,1,0,0,1-2,0V9A1,1,0,0,1,55,8ZM50,6h2v7s0,.006,0,.008V14H50ZM35.892,34.078,34.323,38H27.677l-1.569-3.92A1.518,1.518,0,0,1,27.516,32h6.969a1.516,1.516,0,0,1,1.407,2.078ZM39,16H38V14h1a1,1,0,0,1,0,2Zm-3-2v2H26V14Zm-9.976-2a2.231,2.231,0,0,1,2.212-2,2.255,2.255,0,0,1,1,.236L31,11.118l1.764-.882A2.226,2.226,0,0,1,35.976,12ZM31,2a3,3,0,0,1,2.816,2H28.185A2.994,2.994,0,0,1,31,2ZM27,6h8a5.006,5.006,0,0,1,5,5v1.184A2.966,2.966,0,0,0,39,12H37.976a4.222,4.222,0,0,0-6.107-3.553L31,8.882l-.869-.435A4.222,4.222,0,0,0,24.024,12H23a2.966,2.966,0,0,0-1,.184V11A5.006,5.006,0,0,1,27,6ZM23,16a1,1,0,0,1,0-2h1v2Zm3,2.877V18H36v.877a4.275,4.275,0,0,1-3.242,4.153L32,23.219V28h1.72l-.5,2H28.78l-.5-2H30V23.219l-.758-.189A4.275,4.275,0,0,1,26,18.877ZM6,2H8V26H6ZM2,28H12v2H2ZM6,42V32H8V42Zm18-8.484c0,.045.011.088.013.133L12.968,37.593A6.988,6.988,0,0,1,10.614,38H10V32h1.586l2.259,2.259,8.295-4.977a8.981,8.981,0,0,1,4.089-1.246l.514,2.055A3.52,3.52,0,0,0,24,33.516ZM27.7,40h6.6l.247.679L25.594,45.8Zm7.54,2.586,1.45,3.987L32.417,44.2ZM37.8,60l-1.826-8.217-1.953.434L35.753,60H32V50H30V60H26.247l1.73-7.783-1.953-.434L24.2,60h-3.77l4.108-11.3,5.852-3.344,7.345,4.081L41.572,60ZM45,38a3,3,0,0,1-2.815-2h5.63A3,3,0,0,1,45,38Zm2.382-4H42.618L45,29.236Zm-3-8-2.3,4.6a13.843,13.843,0,0,1-4.5,1.293,3.511,3.511,0,0,0-2.327-1.8l.533-2.132A11.006,11.006,0,0,0,46,17V11a1,1,0,0,1,1-1h1v4a2,2,0,0,0,2,2v2.171a2.992,2.992,0,0,0,0,5.645V26ZM57,29.236,59.382,34H54.618ZM57,38a3,3,0,0,1-2.815-2h5.63A3,3,0,0,1,57,38Z"/>
    </g>
  </g>
</svg>
