<svg id="Grupo_1181643" data-name="Grupo 1181643" xmlns="http://www.w3.org/2000/svg" width="123.159" height="123.159" viewBox="0 0 123.159 123.159">
  <path id="Trazado_1006069" data-name="Trazado 1006069" d="M103.119,158.524a61.551,61.551,0,0,1-17.777-2.608c-1.288-.386-2.577-.821-3.829-1.291a61.952,61.952,0,0,1-31.038-25.714l-.04-.068A61.585,61.585,0,0,1,97.882,35.585l.03,0c1.71-.144,3.462-.218,5.207-.218a61.58,61.58,0,1,1,0,123.159Z" transform="translate(-41.539 -35.365)" fill="#fff"/>
  <g id="Grupo_1181642" data-name="Grupo 1181642" transform="translate(2.821 2.82)">
    <g id="Grupo_1181564" data-name="Grupo 1181564">
      <path id="Trazado_1006070" data-name="Trazado 1006070" d="M163.778,98.843a58.483,58.483,0,0,1-7.182,28.174c-4.133,7.553-21.909,4.166-28.8,9.242-8.481,6.245-6.67,20.2-17.768,21.132q-2.475.212-5.006.212a58.759,58.759,0,1,1,58.759-58.759Z" transform="translate(-46.26 -40.084)" fill="#f8bdff"/>
    </g>
    <g id="Grupo_1181625" data-name="Grupo 1181625" transform="translate(7.546 6.346)">
      <g id="Grupo_1181571" data-name="Grupo 1181571" transform="translate(34.678 90.644)">
        <g id="Grupo_1181567" data-name="Grupo 1181567">
          <g id="Grupo_1181565" data-name="Grupo 1181565" transform="translate(5.067)">
            <path id="Trazado_1006071" data-name="Trazado 1006071" d="M125.76,206.939l5.768-3.646c2.313-1.462,5.16-1.146,6.327.7l.195.308c1.167,1.847.23,4.554-2.082,6.016l-3.423,2.163c-1.132-.861-5.719.9-6.817,0C124.56,211.534,126.885,207.928,125.76,206.939Z" transform="translate(-125.39 -202.374)" fill="#fff"/>
          </g>
          <g id="Grupo_1181566" data-name="Grupo 1181566" transform="translate(0 4.565)">
            <path id="Trazado_1006072" data-name="Trazado 1006072" d="M117.609,218.139l-.195-.308c-1.167-1.847-.23-4.554,2.082-6.016l2.852-1.8q3.277,2.881,6.784,5.542l-5.2,3.284C121.623,220.3,118.776,219.986,117.609,218.139Z" transform="translate(-116.911 -210.013)" fill="#6e72ff"/>
          </g>
        </g>
        <g id="Grupo_1181570" data-name="Grupo 1181570" transform="translate(3.584 10.073)">
          <g id="Grupo_1181568" data-name="Grupo 1181568" transform="translate(0 0.737)">
            <path id="Trazado_1006073" data-name="Trazado 1006073" d="M123.446,222.883a1.727,1.727,0,0,0,1.3-.025,3.387,3.387,0,0,0,1.088-.758,1.2,1.2,0,0,0,.462-.892.8.8,0,0,0-.44-.611,1.422,1.422,0,0,0-.764-.131C124.226,220.529,121.853,222.2,123.446,222.883Z" transform="translate(-122.909 -220.461)" fill="#fff"/>
          </g>
          <g id="Grupo_1181569" data-name="Grupo 1181569" transform="translate(3.987)">
            <path id="Trazado_1006074" data-name="Trazado 1006074" d="M130.314,219.229a.652.652,0,1,1-.733.633A.687.687,0,0,1,130.314,219.229Z" transform="translate(-129.581 -219.229)" fill="#fff"/>
          </g>
        </g>
      </g>
      <g id="Grupo_1181584" data-name="Grupo 1181584" transform="translate(0 59.596)">
        <g id="Grupo_1181580" data-name="Grupo 1181580">
          <g id="Grupo_1181579" data-name="Grupo 1181579">
            <g id="Grupo_1181578" data-name="Grupo 1181578">
              <g id="Grupo_1181572" data-name="Grupo 1181572" transform="translate(5.278 2.671)">
                <path id="Trazado_1006075" data-name="Trazado 1006075" d="M67.717,173.945l11.7-19.054,21.664,12.442a1.988,1.988,0,0,1,.724,2.733L92.429,186a1.989,1.989,0,0,1-2.712.712Z" transform="translate(-67.717 -154.891)" fill="#6e72ff"/>
              </g>
              <g id="Grupo_1181576" data-name="Grupo 1181576" transform="translate(13.307 9.733)">
                <g id="Grupo_1181573" data-name="Grupo 1181573">
                  <path id="Trazado_1006076" data-name="Trazado 1006076" d="M96.255,169.612a8.641,8.641,0,1,1-12.2-.724A8.641,8.641,0,0,1,96.255,169.612Z" transform="translate(-81.152 -166.707)" fill="#f7ede5"/>
                </g>
                <g id="Grupo_1181575" data-name="Grupo 1181575" transform="translate(2.484 2.139)">
                  <g id="Grupo_1181574" data-name="Grupo 1181574">
                    <path id="Trazado_1006077" data-name="Trazado 1006077" d="M86.987,181.116l2.207-3.886-3.886-2.207,1.737-3.058,3.886,2.207,2.207-3.886,3.058,1.737-2.207,3.886,3.886,2.207-1.737,3.058-3.886-2.208-2.207,3.886Z" transform="translate(-85.308 -170.286)" fill="#cad472"/>
                  </g>
                </g>
              </g>
              <g id="Grupo_1181577" data-name="Grupo 1181577">
                <path id="Trazado_1006078" data-name="Trazado 1006078" d="M64.958,173.43l12.054-20.113-6.243-2.748a1.74,1.74,0,0,0-2.2.714l-9.442,16.128a1.741,1.741,0,0,0,.507,2.307Z" transform="translate(-58.886 -150.422)" fill="#f7ede5"/>
              </g>
            </g>
            <path id="Trazado_1006079" data-name="Trazado 1006079" d="M78.164,154.562a.373.373,0,0,0-.51.132l-1.5,2.534-5.3-2.868a.373.373,0,1,0-.355.656l5.275,2.855L74.285,160.4l-5.027-3.146a.373.373,0,0,0-.4.632l5.043,3.156-1.482,2.511-5.049-3.282a.373.373,0,0,0-.406.625l5.077,3.3-1.455,2.466-5.25-3.178a.373.373,0,0,0-.386.638l5.257,3.182-1.453,2.462-5.277-3.1a.373.373,0,1,0-.378.643l5.276,3.1-1.308,2.217-5.228-3.112a.373.373,0,1,0-.381.641l5.231,3.113-.891,1.51a.373.373,0,1,0,.642.38l8.277-14.026.011-.013c.007-.011.011-.021.016-.032l3.551-6.016A.376.376,0,0,0,78.164,154.562Z" transform="translate(-59.849 -151.988)" fill="#412945"/>
          </g>
        </g>
        <g id="Grupo_1181583" data-name="Grupo 1181583" transform="translate(18.964 5.633)">
          <g id="Grupo_1181581" data-name="Grupo 1181581">
            <path id="Trazado_1006080" data-name="Trazado 1006080" d="M94.758,164.822l-3.512-2.37a1.424,1.424,0,0,1-.421-1.92h0a1.424,1.424,0,0,1,2-.451l3.538,2.327a1.424,1.424,0,0,1,.44,1.92l-.026.044A1.423,1.423,0,0,1,94.758,164.822Z" transform="translate(-90.618 -159.847)" fill="#fff"/>
          </g>
          <g id="Grupo_1181582" data-name="Grupo 1181582" transform="translate(6.657 4.292)">
            <path id="Trazado_1006081" data-name="Trazado 1006081" d="M102.94,167.052a1.44,1.44,0,1,1-1.159,1.675A1.441,1.441,0,0,1,102.94,167.052Z" transform="translate(-101.757 -167.029)" fill="#fff"/>
          </g>
        </g>
      </g>
      <g id="Grupo_1181597" data-name="Grupo 1181597" transform="translate(33.517)">
        <g id="Grupo_1181593" data-name="Grupo 1181593">
          <g id="Grupo_1181592" data-name="Grupo 1181592">
            <g id="Grupo_1181591" data-name="Grupo 1181591">
              <g id="Grupo_1181585" data-name="Grupo 1181585" transform="translate(0 5.167)">
                <path id="Trazado_1006082" data-name="Trazado 1006082" d="M128.654,59.349l18.713,12.237-13.054,21.3a1.989,1.989,0,0,1-2.753.645L115.9,83.707a1.989,1.989,0,0,1-.634-2.731Z" transform="translate(-114.969 -59.349)" fill="#e36352"/>
              </g>
              <g id="Grupo_1181589" data-name="Grupo 1181589" transform="translate(4.341 9.707)">
                <g id="Grupo_1181586" data-name="Grupo 1181586">
                  <circle id="Elipse_13868" data-name="Elipse 13868" cx="8.641" cy="8.641" r="8.641" transform="matrix(0.717, -0.697, 0.697, 0.717, 0, 12.049)" fill="#f7ede5"/>
                </g>
                <g id="Grupo_1181588" data-name="Grupo 1181588" transform="translate(6.196 6.115)">
                  <g id="Grupo_1181587" data-name="Grupo 1181587">
                    <path id="Trazado_1006083" data-name="Trazado 1006083" d="M134.424,78.682,138.246,81l2.317-3.822L143.57,79l-2.317,3.821,3.822,2.317-1.823,3.007-3.821-2.317-2.317,3.822-3.007-1.823,2.317-3.822L132.6,81.689Z" transform="translate(-132.601 -77.177)" fill="#cad472"/>
                  </g>
                </g>
              </g>
              <g id="Grupo_1181590" data-name="Grupo 1181590" transform="translate(12.379)">
                <path id="Trazado_1006084" data-name="Trazado 1006084" d="M135.683,56.627,155.444,69.25l2.925-6.162a1.74,1.74,0,0,0-.65-2.222l-15.852-9.9a1.741,1.741,0,0,0-2.321.44Z" transform="translate(-135.683 -50.703)" fill="#f7ede5"/>
              </g>
            </g>
            <path id="Trazado_1006085" data-name="Trazado 1006085" d="M155.8,62.6a.374.374,0,0,0-.51.136l-3,5.191-2.489-1.566,3.288-4.935a.373.373,0,0,0-.62-.414l-3.3,4.951L146.7,64.415l3.425-4.954a.373.373,0,0,0-.613-.424l-3.443,4.981-2.423-1.525,3.326-5.158a.373.373,0,0,0-.627-.4l-3.331,5.165-2.42-1.523,3.251-5.186a.373.373,0,0,0-.632-.4l-3.25,5.185L137.779,58.8l3.26-5.137a.373.373,0,1,0-.63-.4l-3.261,5.139-1.483-.934a.373.373,0,1,0-.4.631l13.781,8.672c.006,0,.01.01.016.013s.013.005.02.01l5.925,3.728a.373.373,0,1,0,.4-.631l-2.49-1.567,3.018-5.215A.373.373,0,0,0,155.8,62.6Z" transform="translate(-123.066 -51.664)" fill="#412945"/>
          </g>
        </g>
        <g id="Grupo_1181596" data-name="Grupo 1181596" transform="translate(21.979 19.266)">
          <g id="Grupo_1181594" data-name="Grupo 1181594" transform="translate(2.042)">
            <path id="Trazado_1006086" data-name="Trazado 1006086" d="M155.43,86.977l2.469-3.443a1.424,1.424,0,0,1,1.931-.366h0a1.424,1.424,0,0,1,.393,2.012l-2.426,3.47a1.424,1.424,0,0,1-1.932.385l-.043-.027A1.425,1.425,0,0,1,155.43,86.977Z" transform="translate(-155.163 -82.94)" fill="#fff"/>
          </g>
          <g id="Grupo_1181595" data-name="Grupo 1181595" transform="translate(0 6.531)">
            <path id="Trazado_1006087" data-name="Trazado 1006087" d="M154.61,95.091a1.44,1.44,0,1,1-1.641-1.207A1.44,1.44,0,0,1,154.61,95.091Z" transform="translate(-151.746 -93.868)" fill="#fff"/>
          </g>
        </g>
      </g>
      <g id="Grupo_1181610" data-name="Grupo 1181610" transform="translate(64.663 36.191)">
        <g id="Grupo_1181606" data-name="Grupo 1181606">
          <g id="Grupo_1181605" data-name="Grupo 1181605">
            <g id="Grupo_1181604" data-name="Grupo 1181604">
              <g id="Grupo_1181598" data-name="Grupo 1181598" transform="translate(3.44 4.912)">
                <path id="Trazado_1006088" data-name="Trazado 1006088" d="M172.841,132.261l18.344-12.783,14.878,20.069a1.989,1.989,0,0,1-.43,2.795l-14.964,10.852a1.989,1.989,0,0,1-2.771-.433Z" transform="translate(-172.841 -119.478)" fill="#b5e1e8"/>
              </g>
              <g id="Grupo_1181602" data-name="Grupo 1181602" transform="translate(11.416 12.649)">
                <g id="Grupo_1181599" data-name="Grupo 1181599">
                  <path id="Trazado_1006089" data-name="Trazado 1006089" d="M203.046,138.394a8.641,8.641,0,1,1-10.891-5.544A8.641,8.641,0,0,1,203.046,138.394Z" transform="translate(-186.186 -132.424)" fill="#f7ede5"/>
                </g>
                <g id="Grupo_1181601" data-name="Grupo 1181601" transform="translate(2.808 2.455)">
                  <g id="Grupo_1181600" data-name="Grupo 1181600">
                    <path id="Trazado_1006090" data-name="Trazado 1006090" d="M190.884,144.9l3.577-2.679-2.679-3.577,2.815-2.108,2.679,3.577,3.577-2.679,2.108,2.815-3.577,2.679,2.679,3.577-2.815,2.108-2.679-3.577-3.577,2.679Z" transform="translate(-190.884 -136.532)" fill="#cad472"/>
                  </g>
                </g>
              </g>
              <g id="Grupo_1181603" data-name="Grupo 1181603">
                <path id="Trazado_1006091" data-name="Trazado 1006091" d="M170.739,130.448l19.093-13.612-4.622-5.016a1.741,1.741,0,0,0-2.3-.227l-15.105,11a1.74,1.74,0,0,0-.458,2.317Z" transform="translate(-167.084 -111.26)" fill="#f7ede5"/>
              </g>
            </g>
            <path id="Trazado_1006092" data-name="Trazado 1006092" d="M191.1,118.037a.373.373,0,0,0-.521-.084l-2.384,1.724-3.709-4.748a.373.373,0,0,0-.588.459l3.692,4.727-2.383,1.724-3.349-4.894a.373.373,0,1,0-.616.421l3.359,4.91-2.362,1.709-3.315-5.028a.373.373,0,0,0-.623.411l3.333,5.055-2.321,1.678-3.541-5.014a.373.373,0,1,0-.61.43l3.546,5.02-2.317,1.676-3.6-4.953a.373.373,0,1,0-.6.438l3.6,4.952-2.086,1.509-3.547-4.944a.373.373,0,0,0-.606.435L173.1,130.6l-1.421,1.027a.373.373,0,0,0,.219.675.366.366,0,0,0,.218-.071l13.2-9.544.015-.007c.011-.008.02-.017.03-.025l5.658-4.092A.373.373,0,0,0,191.1,118.037Z" transform="translate(-168.047 -112.679)" fill="#412945"/>
          </g>
        </g>
        <g id="Grupo_1181609" data-name="Grupo 1181609" transform="translate(21.733 8.872)">
          <g id="Grupo_1181607" data-name="Grupo 1181607">
            <path id="Trazado_1006093" data-name="Trazado 1006093" d="M205.941,131.871l-2.27-3.577a1.425,1.425,0,0,1,.382-1.928h0a1.425,1.425,0,0,1,2.013.387l2.312,3.548a1.424,1.424,0,0,1-.364,1.936l-.042.03A1.424,1.424,0,0,1,205.941,131.871Z" transform="translate(-203.449 -126.105)" fill="#fff"/>
          </g>
          <g id="Grupo_1181608" data-name="Grupo 1181608" transform="translate(4.376 6.602)">
            <path id="Trazado_1006094" data-name="Trazado 1006094" d="M212.542,137.191a1.44,1.44,0,1,1-1.733,1.071A1.44,1.44,0,0,1,212.542,137.191Z" transform="translate(-210.771 -137.152)" fill="#fff"/>
          </g>
        </g>
      </g>
      <g id="Grupo_1181617" data-name="Grupo 1181617" transform="translate(77.566 11.116)">
        <g id="Grupo_1181613" data-name="Grupo 1181613" transform="translate(0)">
          <g id="Grupo_1181611" data-name="Grupo 1181611" transform="translate(1.218 5.347)">
            <path id="Trazado_1006095" data-name="Trazado 1006095" d="M198.379,80.446l1.237,6.71c.5,2.691-.856,5.216-3,5.612l-.358.066c-2.148.4-4.313-1.481-4.809-4.171l-.734-3.983c1.221-.73,1.3-5.642,2.535-6.328C194.561,77.623,197.043,81.122,198.379,80.446Z" transform="translate(-190.711 -78.25)" fill="#fff"/>
          </g>
          <g id="Grupo_1181612" data-name="Grupo 1181612">
            <path id="Trazado_1006096" data-name="Trazado 1006096" d="M191.782,69.422l.358-.066c2.148-.4,4.313,1.481,4.809,4.171l.611,3.318q-3.893,1.97-7.669,4.234l-1.115-6.046C188.281,72.344,189.633,69.818,191.782,69.422Z" transform="translate(-188.674 -69.303)" fill="#6e72ff"/>
          </g>
        </g>
        <g id="Grupo_1181616" data-name="Grupo 1181616" transform="translate(0.872 2.793)">
          <g id="Grupo_1181614" data-name="Grupo 1181614">
            <path id="Trazado_1006097" data-name="Trazado 1006097" d="M190.593,74.28a1.728,1.728,0,0,0-.461,1.217,3.392,3.392,0,0,0,.3,1.293,1.2,1.2,0,0,0,.656.761.8.8,0,0,0,.731-.181,1.417,1.417,0,0,0,.405-.66C192.487,75.88,191.818,73.055,190.593,74.28Z" transform="translate(-190.132 -73.977)" fill="#fff"/>
          </g>
          <g id="Grupo_1181615" data-name="Grupo 1181615" transform="translate(0.579 4.399)">
            <path id="Trazado_1006098" data-name="Trazado 1006098" d="M192.357,82.3a.652.652,0,1,1-.316-.916A.687.687,0,0,1,192.357,82.3Z" transform="translate(-191.1 -81.337)" fill="#fff"/>
          </g>
        </g>
      </g>
      <g id="Grupo_1181624" data-name="Grupo 1181624" transform="translate(11.01 6.145)">
        <g id="Grupo_1181620" data-name="Grupo 1181620">
          <g id="Grupo_1181618" data-name="Grupo 1181618" transform="translate(0 4.629)">
            <path id="Trazado_1006099" data-name="Trazado 1006099" d="M89.377,74.053,85.064,79.34c-1.729,2.12-4.529,2.725-6.223,1.343l-.282-.23c-1.693-1.381-1.664-4.246.065-6.365l2.56-3.138c1.347.458,5.138-2.666,6.464-2.166C89.056,69.315,88,73.472,89.377,74.053Z" transform="translate(-77.309 -68.73)" fill="#fff"/>
          </g>
          <g id="Grupo_1181619" data-name="Grupo 1181619" transform="translate(3.876)">
            <path id="Trazado_1006100" data-name="Trazado 1006100" d="M93.9,61.726l.282.23c1.693,1.381,1.664,4.246-.065,6.365l-2.132,2.615q-4.022-1.692-8.192-3.1L87.68,63.07C89.409,60.95,92.209,60.346,93.9,61.726Z" transform="translate(-83.795 -60.985)" fill="#6e72ff"/>
          </g>
        </g>
        <g id="Grupo_1181623" data-name="Grupo 1181623" transform="translate(6.692 1.311)">
          <g id="Grupo_1181621" data-name="Grupo 1181621" transform="translate(1.643)">
            <path id="Trazado_1006101" data-name="Trazado 1006101" d="M93.487,63.184a1.727,1.727,0,0,0-1.226.437,3.384,3.384,0,0,0-.792,1.064,1.2,1.2,0,0,0-.155.993.8.8,0,0,0,.611.44A1.419,1.419,0,0,0,92.691,66C93.493,65.664,95.213,63.325,93.487,63.184Z" transform="translate(-91.256 -63.179)" fill="#fff"/>
          </g>
          <g id="Grupo_1181622" data-name="Grupo 1181622" transform="translate(0 3.054)">
            <path id="Trazado_1006102" data-name="Trazado 1006102" d="M89.415,69.563a.652.652,0,1,1,.494-.834A.687.687,0,0,1,89.415,69.563Z" transform="translate(-88.507 -68.289)" fill="#fff"/>
          </g>
        </g>
      </g>
    </g>
    <g id="Grupo_1181641" data-name="Grupo 1181641" transform="translate(5.844 20.644)">
      <g id="Grupo_1181634" data-name="Grupo 1181634">
        <g id="Grupo_1181626" data-name="Grupo 1181626">
          <path id="Trazado_1006103" data-name="Trazado 1006103" d="M56.039,100.321,87.5,74.626s9.561,14.7,17.927,24.739,14.939,16.492,14.939,16.492L95.12,138.415S66.915,116.455,56.039,100.321Z" transform="translate(-56.039 -74.626)" fill="#f7ede5"/>
        </g>
        <g id="Grupo_1181633" data-name="Grupo 1181633" transform="translate(9.215 13.619)">
          <g id="Grupo_1181627" data-name="Grupo 1181627" transform="translate(29.964 25.072)">
            <path id="Trazado_1006104" data-name="Trazado 1006104" d="M121.947,155.489a.351.351,0,0,1-.155-.666,5.316,5.316,0,0,0,2.5-2.645l-.058-.017a2.722,2.722,0,0,1-1.777-2.374,1.657,1.657,0,0,1,.361-1.346,1.214,1.214,0,0,1,.941-.367,1.616,1.616,0,0,1,1.159.556,2.629,2.629,0,0,1,.488,1.951,5.67,5.67,0,0,1-.151.935,3.289,3.289,0,0,0,1.979-1.783,5.1,5.1,0,0,0,.332-.851,5.862,5.862,0,0,1-2.473-3.543,2.025,2.025,0,0,1,.127-1.558.9.9,0,0,1,.654-.409,1.315,1.315,0,0,1,.922.309,4.8,4.8,0,0,1,1.586,4.789,2.42,2.42,0,0,0,.614.115,2.655,2.655,0,0,0,2.369-1.358c.041-.074.077-.148.111-.225a2.108,2.108,0,0,1-.208-.062,3.379,3.379,0,0,1-1.736-1.859,1.742,1.742,0,0,1-.09-1.659,1.28,1.28,0,0,1,1.554-.388A2.132,2.132,0,0,1,132,144.089a3.877,3.877,0,0,1,.381,2.206,3.462,3.462,0,0,0,1.77-1.39,7.761,7.761,0,0,0,1.285-3.146.351.351,0,0,1,.62-.163,2.155,2.155,0,0,0,2.7.465,4.546,4.546,0,0,0,1.57-2.466.351.351,0,1,1,.658.244,5.252,5.252,0,0,1-1.86,2.82A2.865,2.865,0,0,1,136,142.5a8.47,8.47,0,0,1-1.272,2.8,3.9,3.9,0,0,1-2.521,1.739,3.432,3.432,0,0,1-.231.518,3.332,3.332,0,0,1-3.023,1.721,3.178,3.178,0,0,1-.741-.129,5.671,5.671,0,0,1-.354.891,3.771,3.771,0,0,1-2.843,2.207,6.036,6.036,0,0,1-2.914,3.2A.343.343,0,0,1,121.947,155.489Zm1.765-6.715a.522.522,0,0,0-.388.149,1.035,1.035,0,0,0-.172.792,2.043,2.043,0,0,0,1.284,1.774l.09.025a5.027,5.027,0,0,0,.177-.988,1.977,1.977,0,0,0-.325-1.446.908.908,0,0,0-.643-.306Zm2.275-4.709-.029,0a.2.2,0,0,0-.156.1,1.372,1.372,0,0,0-.037.979,5.461,5.461,0,0,0,1.958,3,4.024,4.024,0,0,0-1.347-3.9A.725.725,0,0,0,125.987,144.065Zm4.451-.445a.485.485,0,0,0-.414.185c-.127.194-.082.51.137.969a2.627,2.627,0,0,0,1.336,1.5,1.307,1.307,0,0,0,.173.048,3.159,3.159,0,0,0-.3-1.92,1.465,1.465,0,0,0-.664-.73A.7.7,0,0,0,130.438,143.62Z" transform="translate(-121.596 -139.366)" fill="#412945"/>
          </g>
          <g id="Grupo_1181632" data-name="Grupo 1181632">
            <g id="Grupo_1181628" data-name="Grupo 1181628">
              <path id="Trazado_1006105" data-name="Trazado 1006105" d="M72.485,116.4a4.114,4.114,0,0,1-.738-.066.351.351,0,0,1,.126-.691,3.948,3.948,0,0,0,2.929-.7,4.024,4.024,0,0,0,1.6-2.187c-.088-.016-.176-.035-.262-.057a3.388,3.388,0,0,1-2.577-3.435,1.23,1.23,0,0,1,.235-.669,1.247,1.247,0,0,1,1.6-.117,3.845,3.845,0,0,1,1.822,3.633,4.085,4.085,0,0,0,2.6-1.143,5.673,5.673,0,0,0,1.309-1.987,4.377,4.377,0,0,1-2.054-3.044,1.862,1.862,0,0,1,.786-2.13,1.6,1.6,0,0,1,1.709.427,3.732,3.732,0,0,1,.685,3.383,9.134,9.134,0,0,1-.246.984,5.123,5.123,0,0,0,4.1-.854,9.536,9.536,0,0,0,4.237-6.86.351.351,0,0,1,.685-.063,1.467,1.467,0,0,0,1.782.781,3.254,3.254,0,0,0,1.753-1.591c.211-.368.385-.749.569-1.154a13.875,13.875,0,0,1,.631-1.267.351.351,0,0,1,.606.355,13.033,13.033,0,0,0-.6,1.2c-.183.4-.372.816-.6,1.213A3.84,3.84,0,0,1,93,102.277a2.379,2.379,0,0,1-2.1-.437,10.26,10.26,0,0,1-4.413,6.493,5.612,5.612,0,0,1-4.716.928,6.359,6.359,0,0,1-1.468,2.214,4.714,4.714,0,0,1-3.194,1.342,4.708,4.708,0,0,1-1.9,2.7A4.8,4.8,0,0,1,72.485,116.4Zm2.086-7.451a.281.281,0,0,0-.228.084.574.574,0,0,0-.084.294,2.708,2.708,0,0,0,2.053,2.691q.1.026.2.045a3.183,3.183,0,0,0-1.462-2.972A1.062,1.062,0,0,0,74.571,108.946Zm5.8-4.547a.553.553,0,0,0-.225.046c-.4.179-.482.812-.38,1.359a3.715,3.715,0,0,0,1.6,2.5c.087-.291.152-.569.2-.821a3.09,3.09,0,0,0-.49-2.752A1.083,1.083,0,0,0,80.369,104.4Z" transform="translate(-71.458 -97.414)" fill="#412945"/>
            </g>
            <g id="Grupo_1181629" data-name="Grupo 1181629" transform="translate(8.168 6.252)">
              <path id="Trazado_1006106" data-name="Trazado 1006106" d="M85.477,125.988a.351.351,0,0,1-.084-.692,7.13,7.13,0,0,0,2.466-1.146,4.343,4.343,0,0,0,1.251-1.323,2.94,2.94,0,0,1-.415-.152,2.589,2.589,0,0,1-1.479-1.67,1.4,1.4,0,0,1,.131-1.17,1.081,1.081,0,0,1,.794-.461,1.677,1.677,0,0,1,1.276.439,2.591,2.591,0,0,1,.673,2.4,1.633,1.633,0,0,0,.521-.157,4.251,4.251,0,0,0,1.685-2.407,13,13,0,0,1,.6-1.3,2.751,2.751,0,0,1,.843-1,3.594,3.594,0,0,1,2.392-.342l.17.014c.968.079,1.587-.082,1.9-.5a2.439,2.439,0,0,0,.3-1.313,2.611,2.611,0,0,1,.576-1.816,2.577,2.577,0,0,1,1.856-.553,2.994,2.994,0,0,0,1.227-.2,2.74,2.74,0,0,0,.893-.928,6.722,6.722,0,0,1,.487-.629A7.2,7.2,0,0,1,105,109.955c.792-.512,1.541-1,1.687-1.792a.351.351,0,0,1,.691.127c-.2,1.093-1.114,1.684-2,2.254a6.7,6.7,0,0,0-1.324,1.017,6.121,6.121,0,0,0-.435.565,3.3,3.3,0,0,1-1.15,1.148,3.542,3.542,0,0,1-1.52.274,1.984,1.984,0,0,0-1.383.348,2.054,2.054,0,0,0-.37,1.358,3.027,3.027,0,0,1-.442,1.693,2.642,2.642,0,0,1-2.517.776l-.173-.015a3.045,3.045,0,0,0-1.938.224,2.108,2.108,0,0,0-.623.754,12.533,12.533,0,0,0-.563,1.228,4.816,4.816,0,0,1-2.019,2.766,2.4,2.4,0,0,1-1.078.249h0a4.812,4.812,0,0,1-1.575,1.787,7.822,7.822,0,0,1-2.711,1.26A.318.318,0,0,1,85.477,125.988Zm2.817-5.92a.619.619,0,0,0-.075,0,.383.383,0,0,0-.29.157.789.789,0,0,0-.033.6,1.917,1.917,0,0,0,1.089,1.209,2.162,2.162,0,0,0,.4.135,1.931,1.931,0,0,0-.442-1.844A1,1,0,0,0,88.293,120.069Z" transform="translate(-85.126 -107.876)" fill="#412945"/>
            </g>
            <g id="Grupo_1181630" data-name="Grupo 1181630" transform="translate(22.481 13.4)">
              <path id="Trazado_1006107" data-name="Trazado 1006107" d="M109.426,130.8a.346.346,0,0,1-.149-.033.351.351,0,0,1-.169-.467c.579-1.231,1.542-2.935,3.225-3.525a6.975,6.975,0,0,1,.8-.213,4.97,4.97,0,0,0,.882-.252,2.339,2.339,0,0,0,1.338-1.6c.012-.052.023-.105.034-.16a1.426,1.426,0,0,1,.627-1.1,1.4,1.4,0,0,1,.57-.128l.093-.007a4.29,4.29,0,0,0,2.477-1.649,6.16,6.16,0,0,1,2.416-1.807.351.351,0,1,1,.215.668,5.563,5.563,0,0,0-2.125,1.625,4.854,4.854,0,0,1-2.92,1.862l-.108.008a.871.871,0,0,0-.3.051c-.151.078-.207.354-.262.621-.012.059-.024.117-.037.174a3.054,3.054,0,0,1-1.746,2.094,5.608,5.608,0,0,1-1.005.292,6.371,6.371,0,0,0-.721.189c-1.434.5-2.3,2.045-2.821,3.161A.353.353,0,0,1,109.426,130.8Z" transform="translate(-109.075 -119.837)" fill="#412945"/>
            </g>
            <g id="Grupo_1181631" data-name="Grupo 1181631" transform="translate(25.366 18.331)">
              <path id="Trazado_1006108" data-name="Trazado 1006108" d="M114.259,140.184a.352.352,0,0,1-.35-.332,3.969,3.969,0,0,1,2.667-3.893,7.355,7.355,0,0,1,1.482-.268c.107-.012.213-.023.32-.036a3.7,3.7,0,0,0,1.831-.6,4.873,4.873,0,0,0,1.1-1.5c.489-.878,1-1.785,2.043-2a3.4,3.4,0,0,1,.844-.036c.149.007.291.013.428.007,1.586-.07,2.674-1.684,3.53-3.254a.351.351,0,0,1,.617.336c-.95,1.742-2.181,3.535-4.116,3.62-.167.007-.331,0-.489-.007a2.866,2.866,0,0,0-.674.022c-.732.149-1.12.845-1.57,1.652a5.378,5.378,0,0,1-1.28,1.716,4.326,4.326,0,0,1-2.178.742l-.327.037a6.7,6.7,0,0,0-1.342.238,3.248,3.248,0,0,0-2.183,3.186.351.351,0,0,1-.331.37Z" transform="translate(-113.903 -128.086)" fill="#412945"/>
            </g>
          </g>
        </g>
      </g>
      <g id="Grupo_1181638" data-name="Grupo 1181638" transform="translate(18.613 36.809)">
        <g id="Grupo_1181635" data-name="Grupo 1181635" transform="translate(33.826 23.036)">
          <path id="Trazado_1006109" data-name="Trazado 1006109" d="M195.835,181.207a58.756,58.756,0,0,1-46.57,30.374l-5.481-4.193,6.166-6.417,3.481-4.02,5.461-8.7,1.56-4.561,3.314-8.926Z" transform="translate(-143.784 -174.762)" fill="#f7ede5"/>
        </g>
        <g id="Grupo_1181636" data-name="Grupo 1181636" transform="translate(33.828 23.036)">
          <path id="Trazado_1006110" data-name="Trazado 1006110" d="M163.768,174.762a45.823,45.823,0,0,1-2.928,10.567c-1.116,2.78-10.042,1.734-12.1,4.76-2.25,3.314,2.975,10.041,1.086,12.028a35.405,35.405,0,0,1-6.042,5.269l4.322-7.056,10.135-16.549Z" transform="translate(-143.786 -174.762)" fill="#412945"/>
        </g>
        <g id="Grupo_1181637" data-name="Grupo 1181637">
          <path id="Trazado_1006111" data-name="Trazado 1006111" d="M138.065,169.82a46.936,46.936,0,0,1-4.69,8.882,62.094,62.094,0,0,1-6.322,7.906c-.439-.46-1.029-1.078-1.72-1.787-2.826-2.882-7.316-7.246-9.882-8.566-3.946-2.033-21.155-7.769-21.394-9.2s-.836-5.736-.836-5.736-7.53-3.346-3.946-8.247c0,0-3.465-1.909-.478-5.02,0,0-3.465-1.91-.238-5.375s10.04-6.456,10.04-6.456,2.868,1.675.478,4.543c0,0,3.585-.12,2.272,4.062,0,0,2.749.12,2.749,2.749s-2.868,3.707-2.868,3.707a7.313,7.313,0,0,1-.478,5.378l7.05,6.095,11.473-10.16s6.934,4.424,7.53,10.518l8.665,5.164Z" transform="translate(-87.184 -136.217)" fill="#ff997d"/>
        </g>
      </g>
      <g id="Grupo_1181640" data-name="Grupo 1181640" transform="translate(18.668 36.415)">
        <g id="Grupo_1181639" data-name="Grupo 1181639" transform="translate(5.704)">
          <path id="Trazado_1006112" data-name="Trazado 1006112" d="M99.2,139.818a3.977,3.977,0,0,1-2.225-.66.351.351,0,0,1,.392-.582,3.442,3.442,0,0,0,4.052-.272,2.646,2.646,0,0,0,.919-2.334.351.351,0,1,1,.692-.12,3.316,3.316,0,0,1-1.144,2.979A4.047,4.047,0,0,1,99.2,139.818Z" transform="translate(-96.819 -135.558)" fill="#412945"/>
        </g>
        <path id="Trazado_1006113" data-name="Trazado 1006113" d="M105.143,165.966l-4.5-4.04a26.13,26.13,0,0,0,.882-7.274,4.2,4.2,0,0,0,2.652-3.161,3.412,3.412,0,0,0-2.452-4.113.352.352,0,0,0,.062-.13,3.2,3.2,0,0,0-.337-2.66,3.574,3.574,0,0,0-2.287-1.357.353.353,0,0,0-.25.062L88.63,150.582a.343.343,0,0,0-.058.052,4.118,4.118,0,0,0-1.283,3.118,3.021,3.021,0,0,0,1.1,2,.351.351,0,0,0,.42-.562,2.343,2.343,0,0,1-.82-1.517,3.447,3.447,0,0,1,1.082-2.541l5.658-4.011a1.781,1.781,0,0,0,1.44.954,4.193,4.193,0,0,0,.68.055,4.266,4.266,0,0,0,4.1-3.015,2.626,2.626,0,0,1,.159,1.967.348.348,0,0,0,.058.289L89.113,155.6a.354.354,0,0,0-.1.109,5.026,5.026,0,0,0-.67,4.041c.749,2.695,3.672,4.272,3.8,4.338a.354.354,0,0,0,.164.041.351.351,0,0,0,.165-.662c-.028-.015-2.784-1.507-3.45-3.909a4.324,4.324,0,0,1,.558-3.423l7.721-5.274a.347.347,0,0,0,.091.081,6.108,6.108,0,0,0,.565.3.3.3,0,0,0-.028.033c-.916,1.388-5.489,8.365-5.612,9.352s1.277,8.461,1.437,9.31a.351.351,0,0,0,.345.286.343.343,0,0,0,.065-.006.35.35,0,0,0,.28-.41c-.62-3.293-1.513-8.431-1.43-9.093a33.674,33.674,0,0,1,2.646-4.619,2.353,2.353,0,0,0,.971.2,2.537,2.537,0,0,0,1.169-.286,3.067,3.067,0,0,0,1.481-1.875,4.215,4.215,0,0,0,.044-2.057,2.766,2.766,0,0,1,1.478,2.356c.346,2.885-.874,7.47-.887,7.516a.35.35,0,0,0,.1.353l4.661,4.183a.352.352,0,0,0,.47-.523Zm-6.226-19.19a3.606,3.606,0,0,1-2.637.605c-.392-.064-.842-.253-.929-.591a.335.335,0,0,0-.038-.087l3.88-2.751a3.234,3.234,0,0,1,1.186.534s0,.007,0,.011A3.6,3.6,0,0,1,98.917,146.777Zm2.524,1.251a4.144,4.144,0,0,1,.886.429.353.353,0,0,0-.117.214,2.878,2.878,0,0,1-1.122,1.693,2.81,2.81,0,0,1-.736.457,3.014,3.014,0,0,1-2.438-.384Zm-2.868,3.959a3.615,3.615,0,0,1,.026,1.954,2.363,2.363,0,0,1-1.132,1.449,1.8,1.8,0,0,1-1.433.1c.748-1.182,1.564-2.446,2.365-3.662.047,0,.1.011.164.021A.337.337,0,0,0,98.574,151.987Zm1.354-.351a2.57,2.57,0,0,0,.682-.161,3.5,3.5,0,0,0,.922-.565,3.559,3.559,0,0,0,1.348-2.009,2.422,2.422,0,0,1,.612,2.425,3.555,3.555,0,0,1-2.068,2.616A3.349,3.349,0,0,0,99.928,151.635Z" transform="translate(-87.275 -138.645)" fill="#412945"/>
      </g>
    </g>
  </g>
</svg>
