<svg id="Grupo_1181563" data-name="Grupo 1181563" xmlns="http://www.w3.org/2000/svg" width="123.16" height="123.159" viewBox="0 0 123.16 123.159">
  <path id="Trazado_1006031" data-name="Trazado 1006031" d="M317.247,158.524a61.551,61.551,0,0,1-17.777-2.608c-1.288-.386-2.577-.821-3.828-1.291A61.95,61.95,0,0,1,264.6,128.911l-.04-.068a61.585,61.585,0,0,1,47.447-93.258l.03,0c1.71-.144,3.462-.218,5.207-.218a61.58,61.58,0,1,1,0,123.159Z" transform="translate(-255.668 -35.365)" fill="#fff"/>
  <g id="Grupo_1181562" data-name="Grupo 1181562" transform="translate(2.82 2.82)">
    <g id="Grupo_1181556" data-name="Grupo 1181556">
      <g id="Grupo_1181462" data-name="Grupo 1181462">
        <path id="Trazado_1006032" data-name="Trazado 1006032" d="M377.9,98.843a58.708,58.708,0,0,1-26.279,48.974c-8.269,5.493-17.377-3.618-27.87-2.918-.162.012-3.118,1.751-3.28,1.76-1.156.068-1.785.64-2.961.64-6.6,0-11.31,9.214-17.231,7.211A58.767,58.767,0,1,1,377.9,98.843Z" transform="translate(-260.386 -40.083)" fill="#b5e1e8"/>
      </g>
      <g id="Grupo_1181555" data-name="Grupo 1181555" transform="translate(6.127 3.755)">
        <g id="Grupo_1181466" data-name="Grupo 1181466" transform="translate(0.384)">
          <g id="Grupo_1181463" data-name="Grupo 1181463" transform="translate(33.027)">
            <path id="Trazado_1006033" data-name="Trazado 1006033" d="M339.934,47.266a18.444,18.444,0,0,0-7.3,3.885c-4.373,3.845-8.153,11.2-4.813,16.8,1.972,3.3,6.238,4.317,10.064,4.727s8,.654,10.879,3.208c1.719,1.525,2.725,3.683,4.169,5.471a19.667,19.667,0,0,0,7.589,5.4c4.793,2.092,9.343,1.866,13.515-1.528a17.994,17.994,0,0,0,6.25-10.05c1.839-8.567-3.739-16.351-10.336-21.179a39.765,39.765,0,0,0-14.663-6.644C350.342,46.236,344.858,45.887,339.934,47.266Z" transform="translate(-326.543 -46.367)" fill="#f8bdff"/>
          </g>
          <g id="Grupo_1181464" data-name="Grupo 1181464" transform="translate(0 39.827)">
            <path id="Trazado_1006034" data-name="Trazado 1006034" d="M276.355,115.858a17.233,17.233,0,0,0-4.491,8.379,13.2,13.2,0,0,0,.075,7.993c.722,1.836,2.061,3.385,2.737,5.238,1.127,3.085.274,6.52.663,9.781a12.826,12.826,0,0,0,19.932,9.1,16.67,16.67,0,0,0,4.8-5.294,25.282,25.282,0,0,0,1.625-21.964C298.367,120.644,285.58,107.065,276.355,115.858Z" transform="translate(-271.28 -113.007)" fill="#f8bdff"/>
          </g>
          <g id="Grupo_1181465" data-name="Grupo 1181465" transform="translate(70.173 42.309)">
            <path id="Trazado_1006035" data-name="Trazado 1006035" d="M406.027,119.126a13.058,13.058,0,0,0-5.952,8.8c-.413,2.408-.136,4.9-.565,7.3-1.2,6.7-7.488,11.339-9.866,17.719a13.965,13.965,0,0,0,.659,11.584,10.885,10.885,0,0,0,9.876,5.6c3.969-.273,7.328-2.945,10.226-5.672,5.288-4.977,10.112-10.719,12.523-17.568a30.211,30.211,0,0,0,.588-17.66c-1.054-3.971-3.257-10.929-7.924-11.843A13.89,13.89,0,0,0,406.027,119.126Z" transform="translate(-388.698 -117.16)" fill="#f8bdff"/>
          </g>
        </g>
        <g id="Grupo_1181537" data-name="Grupo 1181537" transform="translate(23.403 6.327)">
          <g id="Grupo_1181471" data-name="Grupo 1181471" transform="translate(10.368 81.667)">
            <g id="Grupo_1181468" data-name="Grupo 1181468">
              <g id="Grupo_1181467" data-name="Grupo 1181467">
                <path id="Trazado_1006036" data-name="Trazado 1006036" d="M378.487,209.589a58.426,58.426,0,0,1-28.5,9.651c-.086.006-.246-.829-.332-.824s-.077.85-.152.855q-1.735.1-3.5.1a58.76,58.76,0,0,1-18.861-3.091c.505-2.339,1.17-5.2,1.9-7.777l.162-.559c.506-1.725,1.076-3.521,1.622-5.183,1.257-3.815,2.4-6.934,2.4-6.934l.684-.038.983-.052.482-.026,22.479-1.2,1.192-.066,15.721-.841,2.44,10.5.052.221.059.249Z" transform="translate(-327.146 -193.604)" fill="#6e72ff"/>
              </g>
            </g>
            <g id="Grupo_1181470" data-name="Grupo 1181470" transform="translate(17.422 16.12)">
              <g id="Grupo_1181469" data-name="Grupo 1181469">
                <path id="Trazado_1006037" data-name="Trazado 1006037" d="M361.4,225.744l.322,4.348c-.162.012-.322.021-.484.03l-.315-4.256-4.558-4.884a.242.242,0,0,1,.355-.329l4.616,4.945A.237.237,0,0,1,361.4,225.744Z" transform="translate(-356.298 -220.577)" fill="#412945"/>
              </g>
            </g>
          </g>
          <g id="Grupo_1181473" data-name="Grupo 1181473" transform="translate(9.016 1.422)">
            <g id="Grupo_1181472" data-name="Grupo 1181472">
              <path id="Trazado_1006038" data-name="Trazado 1006038" d="M333.831,79.048c-1.569,1.5-3.59,2.456-5.213,3.9-4.328,3.852-4.908,11.035-1.661,15.835s9.7,6.971,15.34,5.636c2.422-.574,4.676-1.707,7.073-2.374,3.613-1.006,7.429-.926,11.177-.8s7.55.29,11.2-.564,7.2-2.876,9.03-6.153a13.541,13.541,0,0,0,1.432-7.457,12.335,12.335,0,0,0-2.434-7.044c-2.814-3.456-7.659-4.24-11.825-5.822a5.737,5.737,0,0,1-2.137-1.232,6.526,6.526,0,0,1-1.353-2.923c-.715-2.587-1.569-5.284-3.526-7.121a11.625,11.625,0,0,0-4.045-2.3,19.57,19.57,0,0,0-13.55-.168c-2.22.85-5.8,2.951-5.82,5.687-.026,3,.12,5.757-.965,8.647A11.393,11.393,0,0,1,333.831,79.048Z" transform="translate(-324.884 -59.333)" fill="#e36352"/>
            </g>
          </g>
          <g id="Grupo_1181534" data-name="Grupo 1181534" transform="translate(0 3.941)">
            <g id="Grupo_1181513" data-name="Grupo 1181513" transform="translate(21.65)">
              <g id="Grupo_1181476" data-name="Grupo 1181476">
                <g id="Grupo_1181475" data-name="Grupo 1181475">
                  <g id="Grupo_1181474" data-name="Grupo 1181474">
                    <path id="Trazado_1006039" data-name="Trazado 1006039" d="M369.066,82.135a4.286,4.286,0,0,1-1.493.982,2.49,2.49,0,0,1-.434.112l4.4,13.631-10.015,15.166L355.3,99.732l1.619-1.062-1.011-6.612a12.139,12.139,0,0,1-6.306-4.982,20.46,20.46,0,0,1-2.633-6.05,21.858,21.858,0,0,1-.662-3.6c-.077-.345-.142-.7-.189-1.057a11.357,11.357,0,1,1,22.524-2.929,11.483,11.483,0,0,1,.093,1.6,1.936,1.936,0,0,1,1.342.1,2.15,2.15,0,0,1,1.014,1.361C371.685,78.486,370.639,80.659,369.066,82.135Z" transform="translate(-346.024 -63.547)" fill="#ff997d"/>
                  </g>
                </g>
              </g>
              <g id="Grupo_1181479" data-name="Grupo 1181479" transform="translate(9.885 22.796)">
                <g id="Grupo_1181478" data-name="Grupo 1181478">
                  <g id="Grupo_1181477" data-name="Grupo 1181477">
                    <path id="Trazado_1006040" data-name="Trazado 1006040" d="M362.564,107.407a7.426,7.426,0,0,0,1.877.446s4.47-2.838,6.619-6.162c0,0-3.825,7.058-5.96,7.68C363.582,109.813,362.564,107.407,362.564,107.407Z" transform="translate(-362.564 -101.691)" fill="#412945"/>
                  </g>
                </g>
              </g>
              <g id="Grupo_1181512" data-name="Grupo 1181512" transform="translate(0.947 11.171)">
                <g id="Grupo_1181511" data-name="Grupo 1181511">
                  <g id="Grupo_1181503" data-name="Grupo 1181503" transform="translate(0.829)">
                    <g id="Grupo_1181499" data-name="Grupo 1181499">
                      <g id="Grupo_1181486" data-name="Grupo 1181486" transform="translate(1.233 2.483)">
                        <g id="Grupo_1181482" data-name="Grupo 1181482" transform="translate(0 1.049)">
                          <g id="Grupo_1181481" data-name="Grupo 1181481">
                            <g id="Grupo_1181480" data-name="Grupo 1181480">
                              <path id="Trazado_1006041" data-name="Trazado 1006041" d="M353.05,89.284a1.026,1.026,0,1,1-1.152-1.128A1.156,1.156,0,0,1,353.05,89.284Z" transform="translate(-351.058 -88.15)" fill="#412945"/>
                            </g>
                          </g>
                        </g>
                        <g id="Grupo_1181485" data-name="Grupo 1181485" transform="translate(8.072)">
                          <g id="Grupo_1181484" data-name="Grupo 1181484">
                            <g id="Grupo_1181483" data-name="Grupo 1181483">
                              <path id="Trazado_1006042" data-name="Trazado 1006042" d="M366.557,87.528A1.026,1.026,0,1,1,365.4,86.4,1.157,1.157,0,0,1,366.557,87.528Z" transform="translate(-364.565 -86.394)" fill="#412945"/>
                            </g>
                          </g>
                        </g>
                      </g>
                      <g id="Grupo_1181489" data-name="Grupo 1181489" transform="translate(4.893 3.17)">
                        <g id="Grupo_1181488" data-name="Grupo 1181488">
                          <g id="Grupo_1181487" data-name="Grupo 1181487">
                            <path id="Trazado_1006043" data-name="Trazado 1006043" d="M358.8,93.836a.208.208,0,0,1-.1-.01l-1.367-.476a.211.211,0,0,1-.142-.2l-.013-5.4a.211.211,0,1,1,.423,0L357.618,93l1.225.427a.211.211,0,0,1-.042.408Z" transform="translate(-357.183 -87.542)" fill="#412945"/>
                          </g>
                        </g>
                      </g>
                      <g id="Grupo_1181492" data-name="Grupo 1181492" transform="translate(6.099 9.417)">
                        <g id="Grupo_1181491" data-name="Grupo 1181491">
                          <g id="Grupo_1181490" data-name="Grupo 1181490">
                            <path id="Trazado_1006044" data-name="Trazado 1006044" d="M360.721,100.072a2.3,2.3,0,0,1-1.425-.337.211.211,0,0,1,.232-.353,1.729,1.729,0,0,0,1.52.16,2.344,2.344,0,0,0,1.028-1.388.211.211,0,0,1,.409.106,2.735,2.735,0,0,1-1.257,1.664A1.7,1.7,0,0,1,360.721,100.072Z" transform="translate(-359.201 -97.995)" fill="#412945"/>
                          </g>
                        </g>
                      </g>
                      <g id="Grupo_1181495" data-name="Grupo 1181495" transform="translate(0 1.287)">
                        <g id="Grupo_1181494" data-name="Grupo 1181494">
                          <g id="Grupo_1181493" data-name="Grupo 1181493">
                            <path id="Trazado_1006045" data-name="Trazado 1006045" d="M349.234,85.879a.211.211,0,0,1-.2-.332,2.963,2.963,0,0,1,1.649-1.148.211.211,0,1,1,.109.408,2.581,2.581,0,0,0-1.414.984A.209.209,0,0,1,349.234,85.879Z" transform="translate(-348.996 -84.392)" fill="#412945"/>
                          </g>
                        </g>
                      </g>
                      <g id="Grupo_1181498" data-name="Grupo 1181498" transform="translate(8.811)">
                        <g id="Grupo_1181497" data-name="Grupo 1181497">
                          <g id="Grupo_1181496" data-name="Grupo 1181496">
                            <path id="Trazado_1006046" data-name="Trazado 1006046" d="M366.1,82.943a.206.206,0,0,1-.118-.019,2.733,2.733,0,0,0-1.967-.145.211.211,0,0,1-.125-.4,3.157,3.157,0,0,1,2.274.168.211.211,0,0,1,.1.281A.209.209,0,0,1,366.1,82.943Z" transform="translate(-363.739 -82.238)" fill="#412945"/>
                          </g>
                        </g>
                      </g>
                    </g>
                    <g id="Grupo_1181502" data-name="Grupo 1181502" transform="translate(19.047 1.661)">
                      <g id="Grupo_1181501" data-name="Grupo 1181501">
                        <g id="Grupo_1181500" data-name="Grupo 1181500">
                          <path id="Trazado_1006047" data-name="Trazado 1006047" d="M381.109,90.137l-.025,0a.211.211,0,0,1-.213-.209,8.835,8.835,0,0,1,.166-2.232,4.6,4.6,0,0,1,1.823-2.643.211.211,0,0,1,.24.347,4.169,4.169,0,0,0-1.653,2.4,8.491,8.491,0,0,0-.153,2.126A.211.211,0,0,1,381.109,90.137Z" transform="translate(-380.867 -85.018)" fill="#412945"/>
                        </g>
                      </g>
                    </g>
                  </g>
                  <g id="Grupo_1181510" data-name="Grupo 1181510" transform="translate(0 4.059)">
                    <g id="Grupo_1181506" data-name="Grupo 1181506" transform="translate(11.141)">
                      <g id="Grupo_1181505" data-name="Grupo 1181505">
                        <g id="Grupo_1181504" data-name="Grupo 1181504">
                          <path id="Trazado_1006048" data-name="Trazado 1006048" d="M372.853,91.918a3.316,3.316,0,1,1-3.716-2.86A3.316,3.316,0,0,1,372.853,91.918Z" transform="translate(-366.249 -89.03)" fill="#f8bdff"/>
                        </g>
                      </g>
                    </g>
                    <g id="Grupo_1181509" data-name="Grupo 1181509" transform="translate(0 2.093)">
                      <g id="Grupo_1181508" data-name="Grupo 1181508">
                        <g id="Grupo_1181507" data-name="Grupo 1181507">
                          <path id="Trazado_1006049" data-name="Trazado 1006049" d="M351.9,95.42a3.317,3.317,0,0,1-1.664,3.319,20.459,20.459,0,0,1-2.633-6.05,3.446,3.446,0,0,1,.58-.128A3.315,3.315,0,0,1,351.9,95.42Z" transform="translate(-347.608 -92.532)" fill="#f8bdff"/>
                        </g>
                      </g>
                    </g>
                  </g>
                </g>
              </g>
            </g>
            <g id="Grupo_1181515" data-name="Grupo 1181515" transform="translate(0 26.357)">
              <g id="Grupo_1181514" data-name="Grupo 1181514">
                <path id="Trazado_1006050" data-name="Trazado 1006050" d="M341.024,112.965l14.65-5.316,1.793,4.389s17.618,3.524,22.439,12.549,2.411,32.887.371,37.214-5.563,7.233-9.829,7.913-18.277.6-18.772-7.129l-23.49-.577s-.742,9.479-4.616,11.374-14.754,1.813-13.7-10.159c1.22-13.9,7.294-36.534,13.847-40.242s17.061-6.985,17.061-6.985Z" transform="translate(-309.798 -107.649)" fill="#412945"/>
              </g>
            </g>
            <g id="Grupo_1181517" data-name="Grupo 1181517" transform="translate(17.035 46.761)">
              <g id="Grupo_1181516" data-name="Grupo 1181516">
                <path id="Trazado_1006051" data-name="Trazado 1006051" d="M339.655,175.986a.243.243,0,0,1-.242-.234l-.329-9.792a60.886,60.886,0,0,1-.742-11.327c.247-5.59,3.616-12.635,3.65-12.705a.242.242,0,0,1,.436.21c-.033.07-3.36,7.027-3.6,12.516a60.43,60.43,0,0,0,.738,11.24.3.3,0,0,1,0,.033l.33,9.808a.242.242,0,0,1-.234.25Z" transform="translate(-338.302 -141.791)" fill="#f8bdff"/>
              </g>
            </g>
            <g id="Grupo_1181533" data-name="Grupo 1181533" transform="translate(4.272 50.677)">
              <g id="Grupo_1181528" data-name="Grupo 1181528">
                <g id="Grupo_1181524" data-name="Grupo 1181524" transform="translate(0.126)">
                  <g id="Grupo_1181519" data-name="Grupo 1181519" transform="translate(0 0.124)">
                    <g id="Grupo_1181518" data-name="Grupo 1181518">
                      <path id="Trazado_1006052" data-name="Trazado 1006052" d="M318.065,149.006l10.887-.456a.946.946,0,0,1,.934.636l5.311,15.341a.947.947,0,0,1-.9,1.256l-9.586-.05a.946.946,0,0,1-.859-.561l-6.612-14.835A.946.946,0,0,1,318.065,149.006Z" transform="translate(-317.157 -148.55)" fill="#6e72ff"/>
                    </g>
                  </g>
                  <g id="Grupo_1181521" data-name="Grupo 1181521" transform="translate(11.134)">
                    <g id="Grupo_1181520" data-name="Grupo 1181520">
                      <path id="Trazado_1006053" data-name="Trazado 1006053" d="M341.793,165.936a.237.237,0,0,1-.224-.161L335.8,148.654a.236.236,0,0,1,.448-.151l5.769,17.121a.237.237,0,0,1-.149.3A.251.251,0,0,1,341.793,165.936Z" transform="translate(-335.787 -148.343)" fill="#f8bdff"/>
                    </g>
                  </g>
                  <g id="Grupo_1181523" data-name="Grupo 1181523" transform="translate(8.456 1.308)">
                    <g id="Grupo_1181522" data-name="Grupo 1181522">
                      <path id="Trazado_1006054" data-name="Trazado 1006054" d="M332.51,150.531a1.2,1.2,0,1,0,1.2,1.2A1.2,1.2,0,0,0,332.51,150.531Zm0,1.933a.73.73,0,1,1,.73-.73A.732.732,0,0,1,332.51,152.464Z" transform="translate(-331.307 -150.531)" fill="#f8bdff"/>
                    </g>
                  </g>
                </g>
                <g id="Grupo_1181527" data-name="Grupo 1181527" transform="translate(0 5.312)">
                  <g id="Grupo_1181526" data-name="Grupo 1181526" transform="translate(0 0.257)">
                    <g id="Grupo_1181525" data-name="Grupo 1181525">
                      <path id="Trazado_1006055" data-name="Trazado 1006055" d="M321.77,172.9l-1.731-5.069L320,160.395l3.311,5.7s4.327-9.025,5.687-8.407-1.607,10.261-1.607,10.261,4.76-8.716,5.687-8.036.618,2.349.618,2.349a3.169,3.169,0,0,1,.865,2.844,9.41,9.41,0,0,1,.618,4.76c-.371,2.6-4.945,8.593-4.945,8.593s-.865,12.054-7.727,11.559-5.749-7.665-5.007-9.767S321.77,172.9,321.77,172.9Z" transform="translate(-316.947 -157.661)" fill="#ff997d"/>
                    </g>
                  </g>
                  <path id="Trazado_1006056" data-name="Trazado 1006056" d="M337.615,161.974a2.937,2.937,0,0,0-.129-1.952,1.073,1.073,0,0,0-.762-.516c-1.107-.2-3.484,3.685-4.962,6.34.359-1.351.792-3.017.951-3.742.023-.1.048-.219.077-.342.381-1.685.708-3.395.157-4.154a.889.889,0,0,0-.654-.371c-.293-.029-.98-.092-3.8,4.9-1.358,2.4-2.57,4.855-2.582,4.88a.242.242,0,1,0,.434.215c2.268-4.595,5.15-9.51,5.886-9.51h.014a.4.4,0,0,1,.307.173c.468.645.009,2.673-.238,3.762l-.078.346c-.284,1.3-1.469,5.673-1.481,5.716a.242.242,0,0,0,.448.175c2.042-3.908,4.693-8.047,5.43-7.91a.594.594,0,0,1,.434.289c.286.475.188,1.479-.292,2.984-.281.883-2.849,6.551-2.875,6.609a.242.242,0,0,0,.121.32.237.237,0,0,0,.1.022.242.242,0,0,0,.221-.142c.106-.234,2.606-5.752,2.895-6.661.084-.262.17-.552.246-.851a3.363,3.363,0,0,1,.436,2.36,39.35,39.35,0,0,1-1.718,6.279.242.242,0,1,0,.455.163,38.922,38.922,0,0,0,1.744-6.393C338.619,162.885,337.757,162.091,337.615,161.974Z" transform="translate(-320.545 -157.232)" fill="#412945"/>
                </g>
              </g>
              <g id="Grupo_1181532" data-name="Grupo 1181532" transform="translate(13.088 0.946)">
                <g id="Grupo_1181531" data-name="Grupo 1181531" transform="translate(0 0.392)">
                  <g id="Grupo_1181530" data-name="Grupo 1181530" transform="translate(0.344 0.242)">
                    <g id="Grupo_1181529" data-name="Grupo 1181529">
                      <path id="Trazado_1006057" data-name="Trazado 1006057" d="M362.626,165.777l-2.048,10.539a24.252,24.252,0,0,1-4.6-1.964c-3.77-2.349-5.44-4.7-8.1-7.6s-5.479-11.623-5.479-11.623c-3.833-2.162-2.864-4.142-2.864-4.142l7.726,2.041a7.423,7.423,0,0,1,2.165-1.237c1.421-.557,2.719,1.67,2.719,1.67,1.3-.5,2.349,3.46,2.349,3.46.7.244.925,2.109,1.67,3.9A20.408,20.408,0,0,0,358.2,164.4Z" transform="translate(-339.422 -150.986)" fill="#ff997d"/>
                    </g>
                  </g>
                  <path id="Trazado_1006058" data-name="Trazado 1006058" d="M354.221,156.519c-.488.074-2.947.47-3.442.965l-.033.037-1.229-.258a.239.239,0,0,0-.251.1,20.7,20.7,0,0,1-1.493,1.951c-.481.539-1.334.063-1.68-.167l1.794-3.935,4.271-1.787a.24.24,0,0,0-.163-.452c-.233-.32-1.646-2.174-2.777-1.695a51.423,51.423,0,0,0-4.618,2.93.242.242,0,0,0-.1.161l-.2,1.268c-.8-.387-3.793-1.863-4.529-2.83a1.639,1.639,0,0,1-.267-1.856.242.242,0,0,0-.408-.261,2.1,2.1,0,0,0,.289,2.411c.862,1.13,4.267,2.766,4.836,3.035l-.37,2.344a.241.241,0,0,0,.033.164,1.669,1.669,0,0,0,1.281.845,1.089,1.089,0,0,0,.449-.1.187.187,0,0,0,.025.028,2.955,2.955,0,0,0,1.57.633,1.193,1.193,0,0,0,.926-.414,20.215,20.215,0,0,0,1.443-1.869l.879.184c-.631,1.072-1.687,3.428-1.827,3.744a.242.242,0,0,0,.033.252,1.56,1.56,0,0,0,1.138.572,1.288,1.288,0,0,0,.693-.21,10.314,10.314,0,0,0,1.815-1.686l1.085,1.3a.242.242,0,1,0,.372-.311L352.5,160.1a.243.243,0,0,0-.372,0,11.319,11.319,0,0,1-1.89,1.8.871.871,0,0,1-1.1-.154,29.907,29.907,0,0,1,1.986-3.921,10.827,10.827,0,0,1,3.172-.828.243.243,0,0,0,.2-.276A.246.246,0,0,0,354.221,156.519Zm-9.879,1.945.618-3.915a49.8,49.8,0,0,1,4.446-2.823c.637-.27,1.691.876,2.123,1.438L347.61,154.8a.241.241,0,0,0-.127.123l-1.8,3.945a.237.237,0,0,0-.178.029C344.962,159.232,344.49,158.67,344.342,158.464Z" transform="translate(-338.846 -150.581)" fill="#412945"/>
                </g>
                <path id="Trazado_1006059" data-name="Trazado 1006059" d="M396.659,186.658a.243.243,0,0,0-.3-.17c-3.246.885-7.52.416-13.857-1.521-5.952-1.819-4.515-7.7-4.451-7.952a.242.242,0,0,0-.169-.293l-3-.845,2.143-11.025,3.658.311a.238.238,0,0,0,.234-.127,6.551,6.551,0,0,1,2.141-2.135c1.234-.779,9.308-.891,12.314-.868h0a.242.242,0,0,0,0-.484c-.176,0-1.911-.013-4.05.036h0L393.3,150.21a.242.242,0,1,0-.477-.083L390.849,161.5a.253.253,0,0,0,0,.1c-3.218.085-7.124.31-8.053.9a7.157,7.157,0,0,0-2.227,2.176l-3.722-.316a.237.237,0,0,0-.258.195l-2.2,11.3-.032.16a.242.242,0,0,0,.172.28l3,.844c-.221,1.186-.882,6.56,4.827,8.3A37.163,37.163,0,0,0,392.87,187.4a13.673,13.673,0,0,0,3.619-.446A.24.24,0,0,0,396.659,186.658Z" transform="translate(-353.135 -149.926)" fill="#f8bdff"/>
              </g>
            </g>
          </g>
          <g id="Grupo_1181536" data-name="Grupo 1181536" transform="translate(20.543)">
            <g id="Grupo_1181535" data-name="Grupo 1181535">
              <path id="Trazado_1006060" data-name="Trazado 1006060" d="M370.309,61.6c-3.4-3.214-11-4.018-11-4.018l-.006.022c-1.431-.565-5.207-1.544-10.07,1.153-6.243,3.462-4.945,13.724-4.945,13.724l13.167-2.906a14.36,14.36,0,0,1,.238-4.117,5,5,0,0,0,.194.656,4.148,4.148,0,0,0,3.276,2.535s-.742,3.091,1.174,5.007,3.215,2.04,3.215,2.04,1.24-2.895,2.444-3.3,4.48.149,4.48.149S373.708,64.811,370.309,61.6Z" transform="translate(-344.172 -56.953)" fill="#e36352"/>
            </g>
          </g>
        </g>
        <g id="Grupo_1181554" data-name="Grupo 1181554" transform="translate(0 26.816)">
          <g id="Grupo_1181542" data-name="Grupo 1181542">
            <g id="Grupo_1181539" data-name="Grupo 1181539">
              <g id="Grupo_1181538" data-name="Grupo 1181538">
                <path id="Trazado_1006061" data-name="Trazado 1006061" d="M293.89,95.718a13.258,13.258,0,1,0,2.349,3.762l2.487-4.589Z" transform="translate(-270.638 -91.236)" fill="#cad472"/>
              </g>
            </g>
            <g id="Grupo_1181541" data-name="Grupo 1181541" transform="translate(6.27 6.548)">
              <g id="Grupo_1181540" data-name="Grupo 1181540">
                <path id="Trazado_1006062" data-name="Trazado 1006062" d="M294.974,107.16h-4.968v-4.968H286.1v4.968H281.13v3.909H286.1v4.968h3.909v-4.968h4.968Z" transform="translate(-281.13 -102.192)" fill="#f7ede5"/>
              </g>
            </g>
          </g>
          <g id="Grupo_1181553" data-name="Grupo 1181553" transform="translate(28.888 3.573)">
            <g id="Grupo_1181545" data-name="Grupo 1181545">
              <g id="Grupo_1181544" data-name="Grupo 1181544">
                <g id="Grupo_1181543" data-name="Grupo 1181543">
                  <path id="Trazado_1006063" data-name="Trazado 1006063" d="M324.4,119.881a12.377,12.377,0,1,1,3.759,1.73l-3.955,2.843Z" transform="translate(-318.975 -97.215)" fill="#f7ede5"/>
                </g>
              </g>
            </g>
            <g id="Grupo_1181552" data-name="Grupo 1181552" transform="translate(4.981 4.975)">
              <g id="Grupo_1181548" data-name="Grupo 1181548">
                <g id="Grupo_1181546" data-name="Grupo 1181546" transform="translate(4.069 3.497)">
                  <path id="Trazado_1006064" data-name="Trazado 1006064" d="M339.047,111.392l4.5,4.215c1.8,1.69,2.177,4.252.827,5.694l-.225.24c-1.35,1.441-3.931,1.238-5.736-.452l-2.671-2.5c.5-1.186-2.086-4.8-1.553-5.962C334.755,111.388,338.438,112.6,339.047,111.392Z" transform="translate(-334.117 -111.392)" fill="#fff"/>
                </g>
                <g id="Grupo_1181547" data-name="Grupo 1181547">
                  <path id="Trazado_1006065" data-name="Trazado 1006065" d="M328.121,106.741l.225-.24c1.35-1.441,3.931-1.238,5.736.452l2.226,2.085q-1.774,3.522-3.3,7.194l-4.055-3.8C327.144,110.744,326.771,108.182,328.121,106.741Z" transform="translate(-327.309 -105.54)" fill="#6e72ff"/>
                </g>
              </g>
              <g id="Grupo_1181551" data-name="Grupo 1181551" transform="translate(1.105 3.688)">
                <g id="Grupo_1181549" data-name="Grupo 1181549">
                  <path id="Trazado_1006066" data-name="Trazado 1006066" d="M329.172,112.341a1.56,1.56,0,0,0,.318,1.133,3.061,3.061,0,0,0,.911.78,1.081,1.081,0,0,0,.886.2.725.725,0,0,0,.434-.524,1.285,1.285,0,0,0-.06-.7C331.408,112.488,329.405,110.794,329.172,112.341Z" transform="translate(-329.158 -111.711)" fill="#fff"/>
                </g>
                <g id="Grupo_1181550" data-name="Grupo 1181550" transform="translate(2.569 3.06)">
                  <path id="Trazado_1006067" data-name="Trazado 1006067" d="M334.616,117.342a.589.589,0,1,1-.721-.5A.621.621,0,0,1,334.616,117.342Z" transform="translate(-333.457 -116.831)" fill="#fff"/>
                </g>
              </g>
            </g>
          </g>
        </g>
      </g>
    </g>
    <g id="Grupo_1181561" data-name="Grupo 1181561" transform="translate(14.642 8.675)">
      <g id="Grupo_1181557" data-name="Grupo 1181557" transform="translate(70.962 6.832)">
        <ellipse id="Elipse_13865" data-name="Elipse 13865" cx="4.561" cy="4.561" rx="4.561" ry="4.561" transform="translate(0 8.876) rotate(-76.674)" fill="#f7ede5"/>
      </g>
      <g id="Grupo_1181558" data-name="Grupo 1181558" transform="translate(17.553)">
        <circle id="Elipse_13866" data-name="Elipse 13866" cx="4.561" cy="4.561" r="4.561" transform="translate(0 6.45) rotate(-45)" fill="#f7ede5"/>
      </g>
      <g id="Grupo_1181559" data-name="Grupo 1181559" transform="translate(82.933 57.456)">
        <ellipse id="Elipse_13867" data-name="Elipse 13867" cx="4.561" cy="4.561" rx="4.561" ry="4.561" fill="#f7ede5"/>
      </g>
      <g id="Grupo_1181560" data-name="Grupo 1181560" transform="translate(0 58.056)">
        <path id="Trazado_1006068" data-name="Trazado 1006068" d="M294.007,156.3a4.561,4.561,0,1,1-4.561-4.561A4.561,4.561,0,0,1,294.007,156.3Z" transform="translate(-284.886 -151.741)" fill="#f7ede5"/>
      </g>
    </g>
  </g>
</svg>
