<svg xmlns="http://www.w3.org/2000/svg" xmlns:xlink="http://www.w3.org/1999/xlink" width="396.326" height="212.995" viewBox="0 0 396.326 212.995">
  <defs>
    <clipPath id="clip-path">
      <rect id="Rectángulo_456272" data-name="Rectángulo 456272" width="396" height="187.497" fill="none"/>
    </clipPath>
  </defs>
  <g id="Grupo_1180770" data-name="Grupo 1180770" transform="translate(-1017.674 -5594)">
    <path id="Rectángulo_455257" data-name="Rectángulo 455257" d="M10,0H386a10,10,0,0,1,10,10V213a0,0,0,0,1,0,0H0a0,0,0,0,1,0,0V10A10,10,0,0,1,10,0Z" transform="translate(1017.674 5594)" fill="#bbded6"/>
    <g id="Grupo_1183277" data-name="Grupo 1183277" transform="translate(1018 5619.498)">
      <rect id="Rectángulo_456269" data-name="Rectángulo 456269" width="396" height="39.641" transform="translate(0 147.857)" fill="#ddd7e0"/>
      <g id="Grupo_1183276" data-name="Grupo 1183276">
        <g id="Grupo_1183275" data-name="Grupo 1183275" clip-path="url(#clip-path)">
          <path id="Trazado_1009458" data-name="Trazado 1009458" d="M39.737,277.014c0,3.305,82.236,5.985,183.679,5.985s183.679-2.68,183.679-5.985-82.236-5.985-183.679-5.985-183.679,2.68-183.679,5.985" transform="translate(-16.908 -115.321)" fill="#c8bcce"/>
          <path id="Trazado_1009459" data-name="Trazado 1009459" d="M471.732,160.09H255.3V34.717a9.659,9.659,0,0,1,9.659-9.659H462.074a9.659,9.659,0,0,1,9.659,9.659Z" transform="translate(-108.63 -10.662)" fill="#c8bcce"/>
          <path id="Trazado_1009460" data-name="Trazado 1009460" d="M463.122,158.007H276.414a6.386,6.386,0,0,1-6.386-6.386V55.567a6.386,6.386,0,0,1,6.386-6.386H463.122a6.386,6.386,0,0,1,6.386,6.386v96.055a6.386,6.386,0,0,1-6.386,6.386" transform="translate(-114.895 -20.926)" fill="#e8e1ef"/>
          <path id="Trazado_1009461" data-name="Trazado 1009461" d="M472.388,269.214H231.2a6.038,6.038,0,0,1-6.038-6.038v-.282a6.038,6.038,0,0,1,6.038-6.038h241.19a6.038,6.038,0,0,1,6.038,6.038v.282a6.038,6.038,0,0,1-6.038,6.038" transform="translate(-95.804 -109.291)" fill="#a79cad"/>
          <path id="Trazado_1009462" data-name="Trazado 1009462" d="M332.493,34.278H279.818a.39.39,0,1,1,0-.779h52.675a.39.39,0,1,1,0,.779" transform="translate(-118.895 -14.254)" fill="#fff"/>
          <path id="Trazado_1009463" data-name="Trazado 1009463" d="M451.594,267.712H388.224a.389.389,0,1,1,0-.778h63.371a.389.389,0,1,1,0,.778" transform="translate(-165.021 -113.579)" fill="#c8bcce"/>
          <path id="Trazado_1009464" data-name="Trazado 1009464" d="M103.54,61.159c0,6.97,8.19,12.62,18.292,12.62s18.292-5.65,18.292-12.62-8.19-12.62-18.292-12.62-18.292,5.65-18.292,12.62" transform="translate(-44.056 -20.653)" fill="#92b4ea"/>
          <path id="Trazado_1009465" data-name="Trazado 1009465" d="M124.3,86.613l-14.958,10.06,6.178-11.754Z" transform="translate(-46.525 -36.132)" fill="#92b4ea"/>
          <path id="Trazado_1009466" data-name="Trazado 1009466" d="M404.836,13.454c0,7.43-8.731,13.454-19.5,13.454s-19.5-6.024-19.5-13.454S374.564,0,385.335,0s19.5,6.024,19.5,13.454" transform="translate(-155.66)" fill="#a37b90"/>
          <path id="Trazado_1009467" data-name="Trazado 1009467" d="M399.778,42.59l14.062,7.139-4.7-8.945Z" transform="translate(-170.103 -17.353)" fill="#a37b90"/>
          <path id="Trazado_1009468" data-name="Trazado 1009468" d="M314.5,89.438a10.094,10.094,0,1,1-10.094-10.094A10.094,10.094,0,0,1,314.5,89.438" transform="translate(-125.229 -33.76)" fill="#92b4ea"/>
          <path id="Trazado_1009469" data-name="Trazado 1009469" d="M309.8,97.762h-7.151a1.011,1.011,0,0,1-1.011-1.011V92.232a1.011,1.011,0,0,1,1.011-1.011H309.8a1.011,1.011,0,0,1,1.011,1.011v4.519a1.011,1.011,0,0,1-1.011,1.011" transform="translate(-128.344 -38.814)" fill="#fff"/>
          <path id="Trazado_1009470" data-name="Trazado 1009470" d="M315.935,94.982l1.78-1.3,1.78-1.3v5.217l-1.78-1.3Z" transform="translate(-134.428 -39.305)" fill="#fff"/>
          <path id="Trazado_1009471" data-name="Trazado 1009471" d="M59.163,195.374h105.5a8.172,8.172,0,0,0,8.172-8.172v-56a8.172,8.172,0,0,0-8.172-8.172H59.163a8.172,8.172,0,0,0-8.172,8.172v56a8.172,8.172,0,0,0,8.172,8.172" transform="translate(-21.696 -52.348)" fill="#6876aa"/>
          <path id="Trazado_1009472" data-name="Trazado 1009472" d="M42.36,232.678v3.413a9.918,9.918,0,0,0,9.934,9.934H164.186a9.918,9.918,0,0,0,9.942-9.934v-3.413a9.938,9.938,0,0,0-9.942-9.934H52.294a9.936,9.936,0,0,0-9.934,9.934" transform="translate(-18.024 -94.776)" fill="#40507f"/>
          <path id="Trazado_1009473" data-name="Trazado 1009473" d="M57.146,228.369c0,2.2,15.181,3.974,33.908,3.974s33.909-1.779,33.909-3.974S109.782,224.4,91.054,224.4s-33.908,1.779-33.908,3.974" transform="translate(-24.315 -95.479)" fill="#364568"/>
          <path id="Trazado_1009474" data-name="Trazado 1009474" d="M253.977,272.886h.51a2.5,2.5,0,0,0,2.476-2.165l1.776-13.182h-7.825l.568,12.957a2.5,2.5,0,0,0,2.5,2.389" transform="translate(-106.762 -109.582)" fill="#40507f"/>
          <path id="Trazado_1009475" data-name="Trazado 1009475" d="M54.217,272.886h-.509a2.5,2.5,0,0,1-2.476-2.165L49.455,257.54H57.28L56.712,270.5a2.5,2.5,0,0,1-2.5,2.389" transform="translate(-21.043 -109.582)" fill="#40507f"/>
          <path id="Trazado_1009476" data-name="Trazado 1009476" d="M243.89,206.045a12.125,12.125,0,1,0,12.125-12.125,12.125,12.125,0,0,0-12.125,12.125" transform="translate(-103.774 -82.512)" fill="#6876aa"/>
          <path id="Trazado_1009477" data-name="Trazado 1009477" d="M222.651,129.273h-32a.195.195,0,0,1,0-.39h32a.195.195,0,1,1,0,.39" transform="translate(-81.04 -54.839)" fill="#92b4ea"/>
          <path id="Trazado_1009478" data-name="Trazado 1009478" d="M42.957,250.506a9.941,9.941,0,0,0,9.591,7.332H164.44a9.95,9.95,0,0,0,9.6-7.332Z" transform="translate(-18.278 -106.589)" fill="#39476b"/>
          <path id="Trazado_1009479" data-name="Trazado 1009479" d="M255.626,211.038a5.383,5.383,0,1,0,5.383-5.383,5.383,5.383,0,0,0-5.383,5.383" transform="translate(-108.767 -87.505)" fill="#40507f"/>
          <path id="Trazado_1009480" data-name="Trazado 1009480" d="M125.422,197.3l-.2-.538c-.056-.151-1.36-3.724-.6-5.317a1.3,1.3,0,0,1,.771-.707.712.712,0,0,1,.777.126c.931.911-.425,5.382-.582,5.889Zm.292-6.23a.61.61,0,0,0-.192.037.912.912,0,0,0-.543.506c-.522,1.089.082,3.363.417,4.433.519-1.84,1.022-4.4.507-4.9a.25.25,0,0,0-.188-.072" transform="translate(-52.926 -81.135)" fill="#6876aa"/>
          <path id="Trazado_1009481" data-name="Trazado 1009481" d="M124.193,175.921s21.443-15.463,37.076-14.017-.648,41.448-.648,41.448l-21.383-3.459.022-3.9L113,200.02l9.034-18.205Z" transform="translate(-48.08 -68.848)" fill="#7c576c"/>
          <path id="Trazado_1009482" data-name="Trazado 1009482" d="M168.524,184.424a.195.195,0,0,1-.179-.272,27.6,27.6,0,0,1,3.779-6.07.195.195,0,0,1,.3.253,27.194,27.194,0,0,0-3.717,5.972.2.2,0,0,1-.178.117" transform="translate(-71.623 -75.744)" fill="#3a4970"/>
          <path id="Trazado_1009483" data-name="Trazado 1009483" d="M159.2,231.573c.823,3.141,22.861,4.772,23.69,4.921s7.2-.366,9.282-1.513c1.509-.83.232-5.987-1.215-7.451s-5.829-2-5.829-2l-13.648-7.516-13.459,1.208s.665,10.4,1.178,12.354" transform="translate(-67.237 -92.763)" fill="#52aece"/>
          <path id="Trazado_1009484" data-name="Trazado 1009484" d="M88.941,207.308a.245.245,0,0,1-.236-.182l-.786-2.96a.245.245,0,0,1,.473-.125l.786,2.96a.246.246,0,0,1-.237.307" transform="translate(-37.406 -86.741)" fill="#534579"/>
          <path id="Trazado_1009485" data-name="Trazado 1009485" d="M129.865,194.23a.245.245,0,0,1-.244-.238l-.083-3.152a.245.245,0,0,1,.238-.251.233.233,0,0,1,.251.238l.083,3.152a.245.245,0,0,1-.238.251Z" transform="translate(-55.118 -81.094)" fill="#534579"/>
          <path id="Trazado_1009486" data-name="Trazado 1009486" d="M74.22,102.338s-6.92-4.2-11.962-.225-2.146,10.763-2.146,10.763-6.526,2.612-6.519,11.281,8.33,9.36,8.33,9.36l10.9-8.265Z" transform="translate(-22.803 -42.721)"/>
          <path id="Trazado_1009487" data-name="Trazado 1009487" d="M125.391,197.5a.245.245,0,0,1-.245-.244l-.007-3.342a.245.245,0,0,1,.489,0l.007,3.342a.245.245,0,0,1-.244.245Z" transform="translate(-53.246 -82.407)" fill="#534579"/>
          <path id="Trazado_1009488" data-name="Trazado 1009488" d="M75.97,174.046s20.383-3.408,24.989-6.693l-2.816-14.973s-6.005-17.842-9.929-18.536c-.26-.046-.492-.079-.7-.1-3.425-.36-11.554.13-16.267,4.241l-.407,2.48.574,2.461Z" transform="translate(-30.14 -56.866)" fill="#f7b369"/>
          <path id="Trazado_1009489" data-name="Trazado 1009489" d="M99.564,175.608s8.359-5,10.939-4.893,3.4,8.2,3.2,9.8-10.2,2.833-10.2,2.833l-4.047-2.89Z" transform="translate(-42.317 -72.638)" fill="#f48462"/>
          <path id="Trazado_1009490" data-name="Trazado 1009490" d="M208.829,226.726l6.42,2.432,5.458-9.575-3.064-4.6-7.756-.955Z" transform="translate(-88.855 -91.068)" fill="#f48462"/>
          <path id="Trazado_1009491" data-name="Trazado 1009491" d="M118.686,170.717s6.775,1.784,7.8,4.02-7.4-.223-7.4-.223Z" transform="translate(-50.5 -72.639)" fill="#f48462"/>
          <path id="Trazado_1009492" data-name="Trazado 1009492" d="M116.141,187.419s-4.251,2.68-2.336,3.422,5.769-2.934,5.8-4.265-3.854-1.616-3.854-1.616Z" transform="translate(-48.212 -78.699)" fill="#f48462"/>
          <path id="Trazado_1009493" data-name="Trazado 1009493" d="M115.105,190.339a.207.207,0,0,1-.2-.255l.324-1.38a.212.212,0,0,1,.25-.155.208.208,0,0,1,.155.25l-.238,1.009,1.085-.382a.208.208,0,1,1,.138.392l-1.443.508a.19.19,0,0,1-.069.012" transform="translate(-48.888 -80.225)"/>
          <path id="Trazado_1009494" data-name="Trazado 1009494" d="M121.146,176.933a.2.2,0,0,1-.093-.024,11.075,11.075,0,0,0-2.648-1.14.195.195,0,1,1,0-.389,11.515,11.515,0,0,1,2.835,1.187.195.195,0,0,1-.094.366" transform="translate(-50.298 -74.623)"/>
          <path id="Trazado_1009495" data-name="Trazado 1009495" d="M121.278,181.624a.207.207,0,0,1-.076-.015l-3.522-1.486a.195.195,0,0,1,.152-.359l3.522,1.486a.195.195,0,0,1-.076.374" transform="translate(-50.022 -76.482)"/>
          <path id="Trazado_1009496" data-name="Trazado 1009496" d="M77.377,190.455s30.139-12.571,44.219-9.715c11.357,2.3,41.461,12.324,41.461,12.324l-9.7,22.235s-34.162-9.278-37.062-8.955c-3.352.374-27.11,4.536-33.822,2.379s-5.1-18.268-5.1-18.268" transform="translate(-32.851 -76.724)" fill="#a37b90"/>
          <path id="Trazado_1009497" data-name="Trazado 1009497" d="M159.885,132.806s.342-6.324,2-6.729,1.184,4.844,1.184,4.844l4.247-2.5s4.922-2.305,6.024-2.029-.307,2.235-.307,2.235,3.491-1.721,3.276.159-2.558,3.332-2.558,3.332,3.38-1.877,2.921.36c-.248,1.209-7.349,7.32-12.7,8.043s-3.918-3.741-3.918-3.741Z" transform="translate(-68.025 -53.636)" fill="#f48462"/>
          <path id="Trazado_1009498" data-name="Trazado 1009498" d="M176.836,136.556a.2.2,0,0,1-.1-.028l-5.228-3.14a.195.195,0,0,1,.2-.334l5.228,3.14a.195.195,0,0,1-.1.362" transform="translate(-72.935 -56.602)"/>
          <path id="Trazado_1009499" data-name="Trazado 1009499" d="M164.628,141.279a.195.195,0,0,1-.048-.384,2.805,2.805,0,0,0,1.806-1.544c.368-1.014-.031-2.339-1.186-3.938a.195.195,0,0,1,.316-.228c1.236,1.711,1.652,3.16,1.235,4.3a3.151,3.151,0,0,1-2.076,1.784.2.2,0,0,1-.048.006" transform="translate(-69.965 -57.486)"/>
          <path id="Trazado_1009500" data-name="Trazado 1009500" d="M89.995,112.03a6.772,6.772,0,0,0,.665-5.533,4.593,4.593,0,0,0-1.73-2.749s1.109-3.206-3.323-2.451a12.624,12.624,0,0,0-6.773,3.28,2.107,2.107,0,0,0-2.773,1.754c-.608,2.492.755,5.878.755,5.878Z" transform="translate(-32.297 -43.052)"/>
          <path id="Trazado_1009501" data-name="Trazado 1009501" d="M84.225,128.644l.835,5.422s1.218,1.408,4.429,1.177c2.392-.172,2.954-1.5,2.954-1.5l-1.3-4.656-5.921-.377Z" transform="translate(-35.837 -54.737)" fill="#f48462"/>
          <path id="Trazado_1009502" data-name="Trazado 1009502" d="M84.151,128.066a1.8,1.8,0,0,0,.238.5c1.63,2.522,6.073,2.99,7.456,2.9l-.738-2.628Z" transform="translate(-35.806 -54.491)"/>
          <path id="Trazado_1009503" data-name="Trazado 1009503" d="M87.211,106.424s3.893,6.359,3.353,10.309-4.086,3.83-6.26,3.382a6.929,6.929,0,0,1-3.313-1.587,2.949,2.949,0,0,1-3.389-.7c-1.544-1.621-1.033-3.8.007-4.425a3.069,3.069,0,0,1,2.465-.01l-1.3-1.825s2.952-10.6,8.439-5.147" transform="translate(-32.605 -44.62)" fill="#f48462"/>
          <path id="Trazado_1009504" data-name="Trazado 1009504" d="M81.174,112.493s2.99.214,4.6-3.29,1.25-4.811,1.25-4.811l2.447,3.089a6.22,6.22,0,0,0-.966-3.739c-1.119-1.36-2.043-.93-2.043-.93l-6.218,2.431-1.03,5.368Z" transform="translate(-33.704 -43.718)"/>
          <path id="Trazado_1009505" data-name="Trazado 1009505" d="M96.171,120.118a.168.168,0,0,1-.033,0,.194.194,0,0,1-.159-.225,3.509,3.509,0,0,0-.906-2.554.195.195,0,1,1,.287-.264,3.855,3.855,0,0,1,1,2.883.2.2,0,0,1-.192.162" transform="translate(-40.431 -49.787)"/>
          <path id="Trazado_1009506" data-name="Trazado 1009506" d="M81.108,123.717a.194.194,0,0,1-.123-.044l-2.1-1.708a.195.195,0,0,1,.246-.3l2.1,1.707a.195.195,0,0,1-.123.346" transform="translate(-33.536 -51.749)"/>
          <path id="Trazado_1009507" data-name="Trazado 1009507" d="M79.151,124.251a.195.195,0,0,1-.054-.382l1.247-.36a.195.195,0,0,1,.108.375l-1.247.36a.178.178,0,0,1-.054.008" transform="translate(-33.595 -52.549)"/>
          <path id="Trazado_1009508" data-name="Trazado 1009508" d="M95.543,112.555a.195.195,0,0,1-.037-.386l1.074-.211a.2.2,0,0,1,.229.154.194.194,0,0,1-.154.228l-1.073.211a.171.171,0,0,1-.038,0" transform="translate(-40.57 -47.636)"/>
          <path id="Trazado_1009509" data-name="Trazado 1009509" d="M88.882,114.292a.195.195,0,0,1-.07-.376l1.9-.739a.195.195,0,1,1,.141.363l-1.9.739a.2.2,0,0,1-.071.013" transform="translate(-37.736 -48.151)"/>
          <path id="Trazado_1009510" data-name="Trazado 1009510" d="M97.64,115.939a.2.2,0,0,1-.178-.114l-.533-1.175a.194.194,0,0,1,.012-.183l.317-.508a.195.195,0,1,1,.33.206l-.261.419.49,1.08a.194.194,0,0,1-.1.257.19.19,0,0,1-.08.018" transform="translate(-41.236 -48.449)"/>
          <path id="Trazado_1009511" data-name="Trazado 1009511" d="M91.755,117.156a.2.2,0,0,1-.178-.114l-.532-1.175a.193.193,0,0,1,.014-.187l.442-.672a.195.195,0,0,1,.325.214l-.383.583.489,1.077a.2.2,0,0,1-.178.276" transform="translate(-38.731 -48.897)"/>
          <path id="Trazado_1009512" data-name="Trazado 1009512" d="M61.984,141.2s-20.556,21.493-9.791,32.613c5.009,5.174,30.239-2.22,30.239-2.22l-2.738-12.354-12.034-1.177Z" transform="translate(-20.88 -60.078)" fill="#f7b369"/>
          <path id="Trazado_1009513" data-name="Trazado 1009513" d="M140.908,144.9a23.906,23.906,0,0,1-14.026,11.164,22.376,22.376,0,0,1-17.01-1.648l-8.155-20.378s11.045,3.293,19.949,5.081c5.244,1.053,12.664-4.281,12.664-4.281Z" transform="translate(-43.28 -57.033)" fill="#f7b369"/>
          <path id="Trazado_1009514" data-name="Trazado 1009514" d="M135.916,148.63a1.032,1.032,0,0,1-.885-.444c-.93-1.319.43-5.338.488-5.508a.195.195,0,0,1,.364-.01c.178.435,1.712,4.293.854,5.552a.945.945,0,0,1-.821.411m-.2-5.3c-.4,1.352-.961,3.8-.371,4.634a.642.642,0,0,0,.554.279.589.589,0,0,0,.512-.241c.549-.805-.191-3.3-.695-4.672" transform="translate(-57.317 -60.652)" fill="#fff"/>
          <path id="Trazado_1009515" data-name="Trazado 1009515" d="M116.179,160.612a.2.2,0,0,1-.194-.211,20.524,20.524,0,0,0-3.455-12.975.195.195,0,1,1,.311-.234,20.951,20.951,0,0,1,3.531,13.243.194.194,0,0,1-.194.178" transform="translate(-47.864 -62.596)" fill="#fff"/>
          <path id="Trazado_1009516" data-name="Trazado 1009516" d="M146.162,221.445a.2.2,0,0,1-.195-.182c-.01-.16-.24-3.947,1.2-5.37a1.805,1.805,0,0,1,1.47-.533.992.992,0,0,1,.958.579c.543,1.431-2.9,5.041-3.293,5.448a.194.194,0,0,1-.14.059m2.305-5.7a1.4,1.4,0,0,0-1.027.427c-1.036,1.023-1.114,3.561-1.1,4.607,1.153-1.249,3.239-3.777,2.889-4.7-.028-.071-.11-.288-.624-.328-.047,0-.094-.006-.139-.006" transform="translate(-62.1 -91.631)" fill="#3a4970"/>
          <path id="Trazado_1009517" data-name="Trazado 1009517" d="M123.966,170.412l24.566-1.429,6.093-16.277-23.6,1.372a1.49,1.49,0,0,0-1.309.965Z" transform="translate(-52.747 -64.976)" fill="#fff"/>
          <path id="Trazado_1009518" data-name="Trazado 1009518" d="M127.681,170.275l24.566-1.428,5.438-14.528a1.217,1.217,0,0,0-1.21-1.642l-22.7,1.32Z" transform="translate(-54.328 -64.962)" fill="#92b4ea"/>
          <path id="Trazado_1009519" data-name="Trazado 1009519" d="M115.471,183.767l30.758-1.788a.848.848,0,0,0-.1-1.693l-30.758,1.788a.848.848,0,1,0,.1,1.693" transform="translate(-48.75 -76.71)"/>
          <path id="Trazado_1009520" data-name="Trazado 1009520" d="M150.164,166.506a2.09,2.09,0,1,0,1.965-2.208,2.09,2.09,0,0,0-1.965,2.208" transform="translate(-63.893 -69.906)" fill="#fff"/>
          <path id="Trazado_1009521" data-name="Trazado 1009521" d="M27.764,204.654a12.125,12.125,0,1,0,12.125-12.125,12.125,12.125,0,0,0-12.125,12.125" transform="translate(-11.813 -81.92)" fill="#6876aa"/>
          <path id="Trazado_1009522" data-name="Trazado 1009522" d="M39.5,209.647a5.383,5.383,0,1,0,5.383-5.383,5.383,5.383,0,0,0-5.383,5.383" transform="translate(-16.807 -86.913)" fill="#40507f"/>
          <path id="Trazado_1009523" data-name="Trazado 1009523" d="M95.115,125.43a2.634,2.634,0,0,1-1.387-.7.2.2,0,0,1,.107-.338l2.133-.267a.191.191,0,0,1,.176.071.2.2,0,0,1,.032.187c-.037.1-.376,1.024-1.038,1.043h-.022m-.764-.706a1.6,1.6,0,0,0,.776.317c.219-.006.412-.255.541-.481Z" transform="translate(-39.854 -52.816)"/>
          <path id="Trazado_1009524" data-name="Trazado 1009524" d="M228.916,222.33a1.866,1.866,0,0,1-2.424.852c-3.748-1.545-12.337-4.551-12.055-5.235.36-.872,6.363-8.641,6.363-8.641s-5.089-2.392-2.666-5.62c1.86-2.477,6.487-4.327,8.54-5.053a3.383,3.383,0,0,0,1.6-1.174c1.711-2.316,6.762-8.545,10.615-7.074,4.711,1.8,3.407,3.448,3.047,4.32-.309.749-10.223,21.7-13.025,27.625" transform="translate(-91.239 -80.913)" fill="#68b6d8"/>
          <path id="Trazado_1009525" data-name="Trazado 1009525" d="M65.914,174.158a.195.195,0,0,1-.052-.382c7.1-1.987,17.095-.917,17.194-.906a.195.195,0,1,1-.043.387c-.1-.011-10.015-1.073-17.047.893a.183.183,0,0,1-.052.007" transform="translate(-27.963 -73.428)" fill="#fff"/>
          <path id="Trazado_1009526" data-name="Trazado 1009526" d="M76,171.26c-.816-.083-4.8-.545-5.154-1.6a.66.66,0,0,1,.259-.719c1.531-1.4,4.889,1.85,5.032,1.989a.2.2,0,0,1-.137.334m-3.932-2.284a1,1,0,0,0-.7.248c-.2.179-.163.276-.152.309.179.542,2.4,1.035,4.21,1.269-.878-.765-2.337-1.826-3.358-1.826" transform="translate(-30.132 -71.733)" fill="#fff"/>
          <path id="Trazado_1009527" data-name="Trazado 1009527" d="M89.045,139.047a7.717,7.717,0,0,1-4.641-1.371.195.195,0,0,1,.244-.3,7.848,7.848,0,0,0,5.58,1.212c1.844-.225,2.061-1.205,2.07-1.248a.195.195,0,0,1,.383.071c-.009.053-.257,1.3-2.405,1.564a10.115,10.115,0,0,1-1.23.076" transform="translate(-35.882 -58.369)" fill="#fff"/>
          <path id="Trazado_1009528" data-name="Trazado 1009528" d="M331.893,251a1.9,1.9,0,0,0,1.9-1.9v-41.84a1.9,1.9,0,1,0-3.793,0V249.1a1.9,1.9,0,0,0,1.9,1.9" transform="translate(-140.412 -87.381)" fill="#40507f"/>
          <path id="Trazado_1009529" data-name="Trazado 1009529" d="M286.235,251a1.9,1.9,0,0,0,1.9-1.9v-41.84a1.9,1.9,0,1,0-3.793,0V249.1a1.9,1.9,0,0,0,1.9,1.9" transform="translate(-120.985 -87.381)" fill="#40507f"/>
          <rect id="Rectángulo_456270" data-name="Rectángulo 456270" width="8.816" height="11.526" transform="translate(167.421 102.516)" fill="#f7b369"/>
          <path id="Trazado_1009530" data-name="Trazado 1009530" d="M291.418,178.066c0,.28,1.973.507,4.408.507s4.408-.227,4.408-.507-1.973-.507-4.408-.507-4.408.227-4.408.507" transform="translate(-123.997 -75.55)" fill="#fff"/>
          <path id="Trazado_1009531" data-name="Trazado 1009531" d="M285.683,186.387c0-2.347,1.478-4.257,3.295-4.257s3.295,1.909,3.295,4.257-1.478,4.257-3.295,4.257-3.295-1.909-3.295-4.257m.779,0c0,1.918,1.128,3.477,2.516,3.477s2.516-1.56,2.516-3.477-1.129-3.477-2.516-3.477-2.516,1.56-2.516,3.477" transform="translate(-121.556 -77.495)" fill="#f7b369"/>
          <path id="Trazado_1009532" data-name="Trazado 1009532" d="M277.823,205.471h34.92a3.483,3.483,0,0,0,0-6.966h-34.92a3.483,3.483,0,1,0,0,6.966" transform="translate(-116.73 -84.463)" fill="#40507f"/>
          <path id="Trazado_1009533" data-name="Trazado 1009533" d="M451.533,144.089H366.367a3.2,3.2,0,0,1-3.2-3.2V64.879a3.2,3.2,0,0,1,3.2-3.2h85.166a3.2,3.2,0,0,1,3.2,3.2v76.007a3.2,3.2,0,0,1-3.2,3.2" transform="translate(-154.525 -26.243)" fill="#a79cad"/>
          <path id="Trazado_1009534" data-name="Trazado 1009534" d="M454.216,79.749v63.466a1.86,1.86,0,0,1-1.862,1.856H368.591a1.856,1.856,0,0,1-1.861-1.856V79.749a1.9,1.9,0,0,1,.213-.868,1.865,1.865,0,0,1,1.649-.988h83.762a1.86,1.86,0,0,1,1.862,1.856" transform="translate(-156.041 -33.143)" fill="#e8e1ef"/>
          <path id="Trazado_1009535" data-name="Trazado 1009535" d="M455.989,183.292h-33.7l.891-13.484,31.776-2.085Z" transform="translate(-179.682 -71.365)" fill="#f7b369"/>
          <path id="Trazado_1009536" data-name="Trazado 1009536" d="M483.086,68.68a1.97,1.97,0,1,1-1.969-1.969,1.97,1.97,0,0,1,1.969,1.969" transform="translate(-203.874 -28.385)" fill="#6876aa"/>
          <path id="Trazado_1009537" data-name="Trazado 1009537" d="M506.061,68.68a1.97,1.97,0,1,1-1.969-1.969,1.97,1.97,0,0,1,1.969,1.969" transform="translate(-213.65 -28.385)" fill="#6876aa"/>
          <path id="Trazado_1009538" data-name="Trazado 1009538" d="M494.573,68.68a1.97,1.97,0,1,1-1.969-1.969,1.97,1.97,0,0,1,1.969,1.969" transform="translate(-208.762 -28.385)" fill="#6876aa"/>
          <path id="Trazado_1009539" data-name="Trazado 1009539" d="M382.048,70.365H370.675a.874.874,0,1,1,0-1.747h11.373a.874.874,0,0,1,0,1.747" transform="translate(-157.348 -29.197)" fill="#6876aa"/>
          <path id="Trazado_1009540" data-name="Trazado 1009540" d="M455.2,144.094c-.385.615-3.183,2.815-14.7,3.068a59,59,0,0,1-7.077-.253c-1-.092-1.942-.213-2.816-.35-5.343-.822-8.313-2.2-8.485-2.465-.253-.4,1.453-35.78,2.615-36.705,3.378-2.706,9.036-2.413,9.036-2.413,6.941-.839,18.626.586,21.43,3.338s.379,35.16,0,35.78" transform="translate(-179.599 -44.565)" fill="#92b4ea"/>
          <path id="Trazado_1009541" data-name="Trazado 1009541" d="M445.935,96.535l-.137,6.171s-1.152,1.749-4.768,1.962c-2.694.159-3.625-.47-3.625-.47l.445-3.117.437-3.039,6.55-1.289Z" transform="translate(-186.113 -41.075)" fill="#f48462"/>
          <path id="Trazado_1009542" data-name="Trazado 1009542" d="M445.165,96.914a2.036,2.036,0,0,1-.192.591c-1.449,3.052-5.239,3.633-6.795,3.737l.437-3.039Z" transform="translate(-186.442 -41.236)"/>
          <path id="Trazado_1009543" data-name="Trazado 1009543" d="M435.253,72.986s-3.41,7.664-2.229,11.991,5.121,3.674,7.48,2.855a7.794,7.794,0,0,0,3.463-2.256,3.32,3.32,0,0,0,3.679-1.275c1.484-2.035.595-4.389-.657-4.936a3.453,3.453,0,0,0-2.751.35l1.185-2.226s-4.848-11.387-10.169-4.5" transform="translate(-184.143 -30.114)" fill="#f48462"/>
          <path id="Trazado_1009544" data-name="Trazado 1009544" d="M437.331,88.913a.233.233,0,0,1-.222-.164,4.347,4.347,0,0,1,.7-3.375.233.233,0,0,1,.38.268,3.95,3.95,0,0,0-.634,2.97.233.233,0,0,1-.222.3" transform="translate(-185.933 -36.284)"/>
          <path id="Trazado_1009545" data-name="Trazado 1009545" d="M453.121,90.607a.232.232,0,0,1-.169-.392L455.04,88a.232.232,0,1,1,.338.319l-2.088,2.213a.229.229,0,0,1-.169.072" transform="translate(-192.701 -37.414)"/>
          <path id="Trazado_1009546" data-name="Trazado 1009546" d="M455.9,91.052l-.036,0-1.444-.219a.232.232,0,0,1-.2-.265.236.236,0,0,1,.265-.2l1.445.219a.233.233,0,0,1-.034.462" transform="translate(-193.269 -38.451)"/>
          <path id="Trazado_1009547" data-name="Trazado 1009547" d="M443.483,85.211l-.03,0a.233.233,0,0,1-.2-.26l.182-1.432a.238.238,0,0,1,.26-.2.233.233,0,0,1,.2.26l-.183,1.432a.232.232,0,0,1-.23.2" transform="translate(-188.601 -35.45)"/>
          <path id="Trazado_1009548" data-name="Trazado 1009548" d="M436.081,84.619l-.034,0a.233.233,0,0,1-.2-.264l.21-1.429a.236.236,0,0,1,.264-.2.232.232,0,0,1,.2.264l-.21,1.429a.232.232,0,0,1-.229.2" transform="translate(-185.451 -35.199)"/>
          <path id="Trazado_1009549" data-name="Trazado 1009549" d="M444,81.257a.232.232,0,0,1-.2-.12c-.373-.676-1.308-.46-1.348-.451a.229.229,0,0,1-.28-.171.232.232,0,0,1,.17-.281,1.712,1.712,0,0,1,1.866.678.233.233,0,0,1-.092.316.231.231,0,0,1-.112.029" transform="translate(-188.137 -34.117)"/>
          <path id="Trazado_1009550" data-name="Trazado 1009550" d="M435.542,80.33a.229.229,0,0,1-.141-.048.231.231,0,0,1-.043-.325,1.573,1.573,0,0,1,.964-.582,1.09,1.09,0,0,1,.839.295.232.232,0,0,1-.305.35.63.63,0,0,0-.485-.183,1.117,1.117,0,0,0-.644.4.233.233,0,0,1-.184.09" transform="translate(-185.222 -33.772)"/>
          <path id="Trazado_1009551" data-name="Trazado 1009551" d="M444.3,78.491s-2.084-1.41-1.959-3.548.6-2.684.6-2.684a20.165,20.165,0,0,1-4.444-.781,6.074,6.074,0,0,1-1.873-.9l-.564.662c-.614-.028-2.018-3.751-1.093-4.412s5.875,1.064,5.875,1.064,5.214-1.227,8.259,2.481-.367,8.074-.367,8.074-.9-1.911-4.429.041" transform="translate(-184.942 -28.372)"/>
          <path id="Trazado_1009552" data-name="Trazado 1009552" d="M440.023,94.849a1.973,1.973,0,0,1-1.24-.491.232.232,0,0,1-.069-.215.23.23,0,0,1,.146-.172l1.994-.746a.233.233,0,0,1,.3.144,1.313,1.313,0,0,1-.052.929.98.98,0,0,1-.626.485,1.6,1.6,0,0,1-.454.066m-.569-.6a1.257,1.257,0,0,0,.892.092.529.529,0,0,0,.344-.252.647.647,0,0,0,.064-.326Z" transform="translate(-186.668 -39.66)"/>
          <path id="Trazado_1009553" data-name="Trazado 1009553" d="M357.445,127.615l-.218-1.378s-5.284-4.022-8.535-5.35c-1.367-.558-3.284-.092-1.668,1.718a7.655,7.655,0,0,1,1.308,2.139,20.87,20.87,0,0,1-4.4-2.012c-1.147-.76-2.824-3.816-3.807-3.154-1.565,1.054.233,4.036.233,4.036s-.812-3.779-2.357-2.3,2.663,8.891,4.664,10.663,12.558,3.836,12.558,3.836Z" transform="translate(-143.675 -50.84)" fill="#f48462"/>
          <path id="Trazado_1009554" data-name="Trazado 1009554" d="M349.114,129.371a9.57,9.57,0,0,1-4.807-2.413.232.232,0,1,1,.319-.338,9.267,9.267,0,0,0,4.511,2.288.232.232,0,0,1-.023.464" transform="translate(-146.469 -53.849)"/>
          <path id="Trazado_1009555" data-name="Trazado 1009555" d="M346.157,132.016a.231.231,0,0,1-.14-.046l-2.207-1.655a.233.233,0,0,1,.279-.372l2.081,1.56,4.5-2.727a.233.233,0,0,1,.241.4l-4.629,2.809a.223.223,0,0,1-.121.034" transform="translate(-146.25 -54.779)"/>
          <path id="Trazado_1009556" data-name="Trazado 1009556" d="M360.123,131.93a.232.232,0,0,1-.07-.011,10.544,10.544,0,0,1-4.379-2.79.232.232,0,0,1,.35-.306,10.268,10.268,0,0,0,4.169,2.653.233.233,0,0,1-.07.454" transform="translate(-151.313 -54.78)"/>
          <path id="Trazado_1009557" data-name="Trazado 1009557" d="M441.764,110.643l-2.04,38.779c-1-.092-1.942-.213-2.815-.35l2.89-37.952Z" transform="translate(-185.902 -47.078)" fill="#a2c5f9"/>
          <path id="Trazado_1009558" data-name="Trazado 1009558" d="M405.481,105.323l-7.412,47.609a4.1,4.1,0,0,1-4.088-4.473c.179-1.963.377-4.116.507-5.438.287-2.92.7-7.273.7-7.273s-7.446,5.736-19.972,2.509c-10.123-2.608-13.714-7.827-13.714-7.827l5.218-13.357s9.24,2.25,17.666-.91,13.788-8.857,16.373-9.91a11.979,11.979,0,0,1,4.721-.931" transform="translate(-153.817 -44.812)" fill="#6876aa"/>
          <path id="Trazado_1009559" data-name="Trazado 1009559" d="M438.892,189.581a.233.233,0,0,1-.232-.217l-.317-4.888-7.3-2.062a.233.233,0,1,1,.126-.448l7.457,2.107a.233.233,0,0,1,.169.209l.327,5.052a.233.233,0,0,1-.217.248Z" transform="translate(-183.335 -77.422)" fill="#6876aa"/>
          <path id="Trazado_1009560" data-name="Trazado 1009560" d="M436.917,105.374s-1.964,6.59-1.3,6.461,4.6-3.662,4.6-3.662,2.867,3.639,3.806,3.664,1.268-7.064,1.268-7.064-.971,2.218-4.448,2.715-3.92-2.114-3.92-2.114" transform="translate(-185.293 -44.58)" fill="#e6f4ff"/>
          <path id="Trazado_1009561" data-name="Trazado 1009561" d="M452.548,104.682l1.194,47.928s6.152.1,9.216-.862,5.49-2.383,5.9-2.963,1.206-38.829-.706-40.546c-3.61-3.243-15.325-4.021-15.61-3.556" transform="translate(-192.557 -44.489)" fill="#6876aa"/>
          <path id="Trazado_1009562" data-name="Trazado 1009562" d="M425.553,141.08s-2.9-1.112-3.532-.474,1.861,3.45,1.861,3.45l3.224.571Z" transform="translate(-179.524 -59.743)" fill="#f48462"/>
          <path id="Trazado_1009563" data-name="Trazado 1009563" d="M397.041,130.621a.645.645,0,0,1-.359-.111c-.963-.639-.865-4.243-.835-4.959a.232.232,0,0,1,.434-.107c.2.339,1.9,3.348,1.51,4.593a.8.8,0,0,1-.422.5.761.761,0,0,1-.328.079m-.745-4.167c.005,1.509.165,3.352.643,3.669a.213.213,0,0,0,.232,0,.329.329,0,0,0,.176-.222c.217-.694-.49-2.339-1.051-3.445" transform="translate(-168.423 -53.326)" fill="#8095ce"/>
          <path id="Trazado_1009564" data-name="Trazado 1009564" d="M427.482,135.683a.233.233,0,0,1-.229-.2c-.074-.485-1.821-11.9-1.821-12.561a.231.231,0,0,1,.077-.173l2.64-2.352c-.87-1.725-1.847-3.781-1.754-4.155.1-.395,5.053-8.994,6.046-10.713a.232.232,0,1,1,.4.232c-2.338,4.052-5.865,10.219-6,10.6a30.614,30.614,0,0,0,1.8,3.982.232.232,0,0,1-.052.278l-2.69,2.4c.1,1.1,1.325,9.225,1.81,12.392a.233.233,0,0,1-.195.265l-.036,0" transform="translate(-181.019 -44.853)" fill="#8095ce"/>
          <path id="Trazado_1009565" data-name="Trazado 1009565" d="M419.849,137.748s4.546-10.683,5.336-10.158-4.01,12.262-4.01,12.262-4.335,10.1-5.292,9.755,3.966-11.858,3.966-11.858" transform="translate(-176.903 -54.281)" fill="#40507f"/>
          <path id="Trazado_1009566" data-name="Trazado 1009566" d="M433.907,146.529s-4.265-4.022-9.528-4.952l-1.008,2.439s-4.4.3-4.2,1.647,1.639,2.343,1.681,3.376-.437,6.715,1.192,7.56,12.716,1.517,13.874-1.93-2.006-8.139-2.006-8.139" transform="translate(-178.35 -60.24)" fill="#f48462"/>
          <path id="Trazado_1009567" data-name="Trazado 1009567" d="M455.09,132.748a.233.233,0,0,1-.221-.306c1.424-4.265,2.865-9.074,2.73-9.59-.364-.441-2.6-3.529-2.7-3.661a.232.232,0,0,1,.024-.3,21.2,21.2,0,0,0,2.652-3.01c-.016-.583-3.324-7.168-5.408-11.173a.233.233,0,0,1,.413-.215c2.11,4.057,5.622,10.948,5.438,11.529a18.725,18.725,0,0,1-2.627,3.058c.475.655,2.261,3.112,2.59,3.522.386.48-1.241,5.7-2.674,9.989a.232.232,0,0,1-.221.159" transform="translate(-192.384 -44.407)" fill="#8095ce"/>
          <path id="Trazado_1009568" data-name="Trazado 1009568" d="M463.908,110.959s17.128,14.5,13.755,29.523c-2.77,12.342-35.1,4.034-35.1,4.034l.353-13.6,16.855-2.64Z" transform="translate(-188.309 -47.212)" fill="#6876aa"/>
          <path id="Trazado_1009569" data-name="Trazado 1009569" d="M478.329,140.763a34.117,34.117,0,0,1-5.105-.546.232.232,0,0,1-.069-.434c.205-.109,5.047-2.642,7.059-.487.325.349.417.66.272.926-.218.4-1.082.541-2.157.541m-4.294-.883c2.832.442,5.779.61,6.044.12.026-.049-.012-.18-.2-.386-1.368-1.466-4.475-.335-5.839.266" transform="translate(-201.272 -58.901)" fill="#8095ce"/>
          <path id="Trazado_1009570" data-name="Trazado 1009570" d="M463.082,142.008a.233.233,0,0,1-.035-.462c.016,0,1.736-.271,5.855-.806a.233.233,0,1,1,.059.461c-4.111.534-5.826.8-5.842.8a.2.2,0,0,1-.037,0" transform="translate(-196.94 -59.883)" fill="#8095ce"/>
          <path id="Trazado_1009571" data-name="Trazado 1009571" d="M467.7,173.272a81.756,81.756,0,0,1-13.291-1.345.233.233,0,1,1,.089-.457,76.028,76.028,0,0,0,15.065,1.293.228.228,0,0,1,.244.221.232.232,0,0,1-.221.244c-.617.03-1.249.044-1.886.044" transform="translate(-193.269 -72.958)" fill="#8095ce"/>
          <path id="Trazado_1009572" data-name="Trazado 1009572" d="M430.232,146.175c-.026,0-3.228-.358-3.228-.358a.233.233,0,0,1-.206-.257.236.236,0,0,1,.257-.206l3.2.357a.233.233,0,0,1-.025.464" transform="translate(-181.599 -61.847)"/>
          <path id="Trazado_1009573" data-name="Trazado 1009573" d="M423.362,154.432a.225.225,0,0,1-.087-.017l-1.647-.664a.232.232,0,0,1,.174-.431l1.645.664a.232.232,0,0,1-.086.448" transform="translate(-179.339 -65.23)"/>
          <rect id="Rectángulo_456271" data-name="Rectángulo 456271" width="3.64" height="71.117" transform="translate(335.544 89.483)" fill="#ea9c4e"/>
          <path id="Trazado_1009574" data-name="Trazado 1009574" d="M593.813,277.158H543.007a5.79,5.79,0,0,1,5.79-5.79h39.226a5.79,5.79,0,0,1,5.79,5.79" transform="translate(-231.046 -115.465)" fill="#f7b369"/>
          <path id="Trazado_1009575" data-name="Trazado 1009575" d="M590.046,267.08H568.277a5.79,5.79,0,0,1,5.791-5.79h10.189a5.79,5.79,0,0,1,5.79,5.79" transform="translate(-241.799 -111.177)" fill="#f7b369"/>
          <path id="Trazado_1009576" data-name="Trazado 1009576" d="M617.07,194.876a.287.287,0,0,1-.25-.428l13.218-23.494a.287.287,0,0,1,.5.282L617.32,194.73a.286.286,0,0,1-.25.146" transform="translate(-262.438 -72.678)" fill="#a79cad"/>
          <path id="Trazado_1009577" data-name="Trazado 1009577" d="M653.3,194.876a.288.288,0,0,1-.25-.146l-13.218-23.493a.287.287,0,1,1,.5-.282l13.218,23.494a.287.287,0,0,1-.25.428" transform="translate(-272.227 -72.678)" fill="#a79cad"/>
          <path id="Trazado_1009578" data-name="Trazado 1009578" d="M510.659,164.561a.283.283,0,0,1-.137-.036.286.286,0,0,1-.114-.389l13.218-24.219a.287.287,0,1,1,.5.275l-13.218,24.219a.287.287,0,0,1-.252.15" transform="translate(-217.161 -59.47)" fill="#c8bcce"/>
          <path id="Trazado_1009579" data-name="Trazado 1009579" d="M546.884,164.561a.286.286,0,0,1-.252-.15l-13.217-24.219a.287.287,0,0,1,.5-.275l13.217,24.219a.286.286,0,0,1-.114.389.283.283,0,0,1-.137.036" transform="translate(-226.95 -59.47)" fill="#c8bcce"/>
          <path id="Trazado_1009580" data-name="Trazado 1009580" d="M593.922,158.343,532.8,140.433a1.2,1.2,0,1,1,.676-2.307l61.12,17.911a1.2,1.2,0,1,1-.676,2.307" transform="translate(-226.336 -58.751)" fill="#f7b369"/>
          <path id="Trazado_1009581" data-name="Trazado 1009581" d="M534.5,138.347a2.4,2.4,0,1,1-2.4-2.4,2.4,2.4,0,0,1,2.4,2.4" transform="translate(-225.384 -57.844)" fill="#ea9c4e"/>
          <path id="Trazado_1009582" data-name="Trazado 1009582" d="M640.914,169.766a2.4,2.4,0,1,1-2.4-2.4,2.4,2.4,0,0,1,2.4,2.4" transform="translate(-270.662 -71.213)" fill="#ea9c4e"/>
          <path id="Trazado_1009583" data-name="Trazado 1009583" d="M525.386,196.276h-4.864A12.319,12.319,0,0,1,508.2,183.957a1.533,1.533,0,0,1,1.533-1.533h26.436a1.533,1.533,0,0,1,1.533,1.533,12.319,12.319,0,0,1-12.319,12.319" transform="translate(-216.237 -77.62)" fill="#f7b369"/>
          <path id="Trazado_1009584" data-name="Trazado 1009584" d="M631.8,226.053h-4.864a12.319,12.319,0,0,1-12.319-12.319,1.533,1.533,0,0,1,1.533-1.533h26.436a1.533,1.533,0,0,1,1.533,1.533A12.319,12.319,0,0,1,631.8,226.053" transform="translate(-261.515 -90.29)" fill="#f7b369"/>
          <path id="Trazado_1009585" data-name="Trazado 1009585" d="M538.956,198.193a.287.287,0,0,1-.034-.572,12.486,12.486,0,0,0,9.344-7.58.287.287,0,1,1,.53.218,13.073,13.073,0,0,1-9.806,7.932l-.034,0" transform="translate(-229.201 -80.785)" fill="#fcf8ff"/>
          <path id="Trazado_1009586" data-name="Trazado 1009586" d="M645.1,228.091a.287.287,0,0,1-.033-.572,12.486,12.486,0,0,0,9.344-7.58.287.287,0,1,1,.531.219,13.074,13.074,0,0,1-9.807,7.932l-.034,0" transform="translate(-274.363 -93.507)" fill="#fcf8ff"/>
          <path id="Trazado_1009587" data-name="Trazado 1009587" d="M597.895,271.443H587.01a.287.287,0,0,1,0-.575h10.885a.287.287,0,0,1,0,.575" transform="translate(-249.647 -115.253)" fill="#ea9c4e"/>
        </g>
      </g>
    </g>
  </g>
</svg>
