<svg xmlns="http://www.w3.org/2000/svg" width="51.5" height="28.136" viewBox="0 0 51.5 28.136">
  <g id="Grupo_1181646" data-name="Grupo 1181646" transform="translate(-305.5 -2552)">
    <g id="Grupo_1181644" data-name="Grupo 1181644" transform="translate(305.5 2476.073)">
      <path id="Trazado_1006114" data-name="Trazado 1006114" d="M38.36,90.034l-3.01-1.448-2.2-6.927A3.608,3.608,0,0,0,29.7,79.135H27.514V77.279a1.353,1.353,0,0,0-1.352-1.352H24.486a1.353,1.353,0,0,0-1.352,1.352v1.856H21.141v-.924a1.365,1.365,0,0,0-1.363-1.363H6.745a1.365,1.365,0,0,0-1.363,1.363v.924a3.654,3.654,0,0,0-3.619,2.713L.474,86.823A14.9,14.9,0,0,0,0,90.551v7.986a2.059,2.059,0,0,0,2.056,2.056H5.424a4.056,4.056,0,1,0,0-1.172H2.056a.885.885,0,0,1-.884-.884V90.551a13.726,13.726,0,0,1,.437-3.434L2.9,82.142a2.448,2.448,0,0,1,2.37-1.835H29.7a2.44,2.44,0,0,1,2.334,1.707l2.277,7.168a.586.586,0,0,0,.3.351l3.238,1.558a1.736,1.736,0,0,1,.942,1.218H36.717a1.8,1.8,0,1,0,0,3.6h2.111v2.631a.885.885,0,0,1-.884.884H35.268a4.056,4.056,0,0,0-8.027,0H24.846V88.085h2.231l.515,1.514a.586.586,0,0,0,.555.4h4.636a.586.586,0,0,0,.558-.763l-2.2-6.935a1.506,1.506,0,0,0-1.44-1.054H24.26a.586.586,0,0,0-.586.586v2.925a.586.586,0,0,0,1.172,0V82.416H29.7a.339.339,0,0,1,.324.237l1.96,6.171H28.567l-.515-1.514a.586.586,0,0,0-.555-.4H24.26a.586.586,0,0,0-.586.586V99.421H15.647a.586.586,0,0,0,0,1.172H27.24a4.056,4.056,0,0,0,8.027,0h2.676A2.059,2.059,0,0,0,40,98.537V92.644a2.912,2.912,0,0,0-1.64-2.61ZM9.438,97.122a2.885,2.885,0,1,1-2.885,2.885A2.888,2.888,0,0,1,9.438,97.122ZM24.306,77.279a.18.18,0,0,1,.18-.18h1.676a.18.18,0,0,1,.18.18v1.856H24.306Zm-17.753.932a.192.192,0,0,1,.191-.191H19.778a.192.192,0,0,1,.191.191v.924H6.553Zm24.7,24.681A2.885,2.885,0,1,1,34.139,100v0A2.888,2.888,0,0,1,31.254,102.892Zm5.463-8.158a.627.627,0,1,1,0-1.254h2.111v1.254Z" fill="#3e5d56"/>
      <path id="Trazado_1006115" data-name="Trazado 1006115" d="M51.667,150.83a.586.586,0,0,0,.586-.586v-5.669a.586.586,0,0,0-.586-.586H34.74a1.513,1.513,0,0,0-1.463,1.132L31.989,150.1a.586.586,0,0,0,.567.733Zm-.586-1.172H43.294v-4.5h7.787Zm-16.67-4.242a.34.34,0,0,1,.329-.255h7.382v4.5H33.313Z" transform="translate(-29.473 -62.745)" fill="#3e5d56"/>
      <path id="Trazado_1006116" data-name="Trazado 1006116" d="M377.072,359.224a1.947,1.947,0,1,0,1.947,1.947A1.949,1.949,0,0,0,377.072,359.224Zm0,2.723a.775.775,0,1,1,.775-.775A.776.776,0,0,1,377.072,361.947Z" transform="translate(-345.818 -261.164)" fill="#3e5d56"/>
      <path id="Trazado_1006117" data-name="Trazado 1006117" d="M97.83,363.119a1.947,1.947,0,1,0-1.947-1.947A1.949,1.949,0,0,0,97.83,363.119Zm0-2.723a.775.775,0,1,1-.775.775A.776.776,0,0,1,97.83,360.4Z" transform="translate(-88.392 -261.165)" fill="#3e5d56"/>
      <path id="Trazado_1006118" data-name="Trazado 1006118" d="M187.639,250.035v1.21a1.064,1.064,0,0,0,1.063,1.063h1.625a1.064,1.064,0,0,0,1.063-1.063v-1.21h1.21a1.064,1.064,0,0,0,1.063-1.063v-1.625a1.064,1.064,0,0,0-1.063-1.063h-1.21v-1.21a1.064,1.064,0,0,0-1.063-1.063H188.7a1.064,1.064,0,0,0-1.063,1.063v1.21h-1.21a1.064,1.064,0,0,0-1.063,1.063v1.625a1.064,1.064,0,0,0,1.063,1.063Zm-1.1-2.579h1.688a.586.586,0,0,0,.586-.586v-1.688h1.408v1.688a.586.586,0,0,0,.586.586h1.688v1.408H190.8a.586.586,0,0,0-.586.586v1.688h-1.408v-1.687a.586.586,0,0,0-.586-.586h-1.687Z" transform="translate(-170.884 -154.951)" fill="#3e5d56"/>
      <path id="Trazado_1006119" data-name="Trazado 1006119" d="M39.788,247.4a.586.586,0,0,0-.586-.586H29.4a.586.586,0,1,0,0,1.172h9.8A.586.586,0,0,0,39.788,247.4Z" transform="translate(-26.564 -157.541)" fill="#3e5d56"/>
      <path id="Trazado_1006120" data-name="Trazado 1006120" d="M29.4,273.109a.586.586,0,0,0,0,1.172h2.512a.586.586,0,1,0,0-1.172Z" transform="translate(-26.564 -181.777)" fill="#3e5d56"/>
    </g>
    <g id="Grupo_1181645" data-name="Grupo 1181645" transform="translate(-1 1)">
      <path id="Polígono_11" data-name="Polígono 11" d="M6.5,0,13,5H0Z" transform="translate(358 2558) rotate(90)" fill="#3e5d56"/>
      <rect id="Rectángulo_455983" data-name="Rectángulo 455983" width="6" height="7" transform="translate(349 2561)" fill="#3e5d56"/>
    </g>
  </g>
</svg>
