<svg id="Grupo_1180409" data-name="Grupo 1180409" xmlns="http://www.w3.org/2000/svg" width="39.938" height="39.938" viewBox="0 0 39.938 39.938">
  <path id="Trazado_1004223" data-name="Trazado 1004223" d="M39.208,39.307V35.442a.646.646,0,0,0-.644-.644H35.343V32.221H34.055V34.8h-5.8V32.221A3.222,3.222,0,0,0,25.036,29H21.171a3.222,3.222,0,0,0-3.221,3.221V34.8h-5.8V32.221H10.865V34.8H7.644A.646.646,0,0,0,7,35.442v3.865a.646.646,0,0,0,.644.644h30.92A.646.646,0,0,0,39.208,39.307ZM19.239,32.221a1.938,1.938,0,0,1,1.932-1.932H22.46v3.221h1.288V30.288h1.288a1.938,1.938,0,0,1,1.932,1.932V34.8h-7.73ZM14.73,38.662H8.288V36.086H14.73Zm15.46,0H16.018V36.086H30.19Zm7.73,0H31.478V36.086H37.92Z" transform="translate(-3.135 -10.964)" fill="#773b3d"/>
  <path id="Trazado_1004224" data-name="Trazado 1004224" d="M30.221,18a3.221,3.221,0,1,0,3.221,3.221A3.222,3.222,0,0,0,30.221,18Zm0,5.153a1.932,1.932,0,1,1,1.932-1.932A1.938,1.938,0,0,1,30.221,23.153Z" transform="translate(-10.252 -7.049)" fill="#773b3d"/>
  <path id="Trazado_1004225" data-name="Trazado 1004225" d="M42.133,14.92l4.509,5.8a.644.644,0,0,0,.509.251.726.726,0,0,0,.206-.032.653.653,0,0,0,.438-.612V15.171h2.577a.644.644,0,0,0,.522-.264.653.653,0,0,0,.1-.573L47.969,4.678a1.936,1.936,0,1,0-1.707-.039L42.05,14.27a.625.625,0,0,0,.084.651ZM47.151,2.288a.644.644,0,1,1-.644.644A.646.646,0,0,1,47.151,2.288Zm-.1,3.768L49.5,13.883H47.151a.646.646,0,0,0-.644.644V18.45l-3.124-4.013,3.665-8.374Z" transform="translate(-15.588 -1)" fill="#773b3d"/>
  <path id="Trazado_1004226" data-name="Trazado 1004226" d="M8.12,14.907a.644.644,0,0,0,.522.264h2.577v5.153a.644.644,0,0,0,.438.612.6.6,0,0,0,.206.032.644.644,0,0,0,.509-.251l4.509-5.8a.643.643,0,0,0,.084-.651l-4.213-9.63a1.929,1.929,0,1,0-1.707.039L8.023,14.334a.633.633,0,0,0,.1.573ZM11.862,2.288a.644.644,0,1,1-.644.644A.646.646,0,0,1,11.862,2.288Zm.1,3.768,3.665,8.374-3.124,4.013V14.521a.646.646,0,0,0-.644-.644H9.517L11.965,6.05Z" transform="translate(-3.488 -1)" fill="#773b3d"/>
  <path id="Trazado_1004227" data-name="Trazado 1004227" d="M4,51.577A2.577,2.577,0,1,0,6.577,49,2.576,2.576,0,0,0,4,51.577Zm3.865,0a1.288,1.288,0,1,1-1.288-1.288A1.292,1.292,0,0,1,7.865,51.577Z" transform="translate(-2.068 -18.08)" fill="#773b3d"/>
  <path id="Trazado_1004228" data-name="Trazado 1004228" d="M28,51.577A2.577,2.577,0,1,0,30.577,49,2.576,2.576,0,0,0,28,51.577Zm3.865,0a1.288,1.288,0,1,1-1.288-1.288A1.292,1.292,0,0,1,31.865,51.577Z" transform="translate(-10.608 -18.08)" fill="#773b3d"/>
  <path id="Trazado_1004229" data-name="Trazado 1004229" d="M54.577,54.153A2.577,2.577,0,1,0,52,51.577,2.576,2.576,0,0,0,54.577,54.153Zm0-3.865a1.288,1.288,0,1,1-1.288,1.288A1.292,1.292,0,0,1,54.577,50.288Z" transform="translate(-19.148 -18.08)" fill="#773b3d"/>
  <path id="Trazado_1004230" data-name="Trazado 1004230" d="M37.717,58H35.14a3.217,3.217,0,0,0-2.577,1.308A3.2,3.2,0,0,0,29.987,58H27.411a3.217,3.217,0,0,0-2.577,1.308A3.2,3.2,0,0,0,22.257,58H19.681A3.217,3.217,0,0,0,17.1,59.308,3.2,3.2,0,0,0,14.527,58H11.951a3.217,3.217,0,0,0-2.577,1.308A3.2,3.2,0,0,0,6.8,58H4.221A3.222,3.222,0,0,0,1,61.221H2.288a1.938,1.938,0,0,1,1.932-1.932H6.8A1.938,1.938,0,0,1,8.73,61.221h1.288a1.938,1.938,0,0,1,1.932-1.932h2.577a1.938,1.938,0,0,1,1.932,1.932h1.288a1.938,1.938,0,0,1,1.932-1.932h2.577a1.938,1.938,0,0,1,1.932,1.932h1.288a1.938,1.938,0,0,1,1.932-1.932h2.577a1.938,1.938,0,0,1,1.932,1.932h1.288a1.938,1.938,0,0,1,1.932-1.932h2.577a1.938,1.938,0,0,1,1.932,1.932h1.288A3.222,3.222,0,0,0,37.717,58Z" transform="translate(-1 -21.283)" fill="#773b3d"/>
  <path id="Trazado_1004231" data-name="Trazado 1004231" d="M40,51.577A2.577,2.577,0,1,0,42.577,49,2.576,2.576,0,0,0,40,51.577Zm3.865,0a1.288,1.288,0,1,1-1.288-1.288A1.292,1.292,0,0,1,43.865,51.577Z" transform="translate(-14.878 -18.08)" fill="#773b3d"/>
  <path id="Trazado_1004232" data-name="Trazado 1004232" d="M16,51.577A2.577,2.577,0,1,0,18.577,49,2.576,2.576,0,0,0,16,51.577Zm3.865,0a1.288,1.288,0,1,1-1.288-1.288A1.292,1.292,0,0,1,19.865,51.577Z" transform="translate(-6.338 -18.08)" fill="#773b3d"/>
</svg>
