<svg xmlns="http://www.w3.org/2000/svg" width="40" height="40" viewBox="0 0 40 40">
  <g id="Grupo_1182071" data-name="Grupo 1182071" transform="translate(0 0)">
    <g id="Grupo_1182070" data-name="Grupo 1182070" transform="translate(0 -0.001)">
      <path id="Trazado_1007724" data-name="Trazado 1007724" d="M144.844,14.9A7.613,7.613,0,0,0,153.8,4.045,7.613,7.613,0,0,0,143.5.893h0a7.613,7.613,0,0,0,1.342,14Zm-.792-12.968h0A6.441,6.441,0,1,1,150.095,13.3a6.441,6.441,0,1,1-6.043-11.377Z" transform="translate(-128.566 0.001)" fill="#3e5d56"/>
      <path id="Trazado_1007725" data-name="Trazado 1007725" d="M181.376,46.976h1.195v1.192a1.348,1.348,0,0,0,1.346,1.348h1.11a1.349,1.349,0,0,0,1.348-1.348V46.976h1.192a1.349,1.349,0,0,0,1.348-1.348V44.519a1.349,1.349,0,0,0-1.348-1.348h-1.192V41.979a1.349,1.349,0,0,0-1.348-1.348h-1.11a1.348,1.348,0,0,0-1.346,1.348v1.192h-1.195a1.349,1.349,0,0,0-1.348,1.348v1.109A1.349,1.349,0,0,0,181.376,46.976Zm-.176-2.457a.178.178,0,0,1,.176-.176h1.781a.586.586,0,0,0,.586-.586V41.979a.177.177,0,0,1,.174-.176h1.11a.178.178,0,0,1,.176.176v1.778a.586.586,0,0,0,.586.586h1.778a.178.178,0,0,1,.176.176v1.109a.178.178,0,0,1-.176.176h-1.778a.586.586,0,0,0-.586.586v1.778a.178.178,0,0,1-.176.176h-1.11a.177.177,0,0,1-.174-.176V46.39a.586.586,0,0,0-.586-.586h-1.781a.178.178,0,0,1-.176-.176Z" transform="translate(-165.963 -37.457)" fill="#3e5d56"/>
      <path id="Trazado_1007726" data-name="Trazado 1007726" d="M37.721,166.509v-4.825h1.571a.586.586,0,0,0,.586-.586V149.357a2.25,2.25,0,0,0-4.423-.586H30.175a.586.586,0,1,0,0,1.172h5.2v10.569H19.535v-8.188a2.384,2.384,0,0,1,2.382-2.381h5.552a.586.586,0,0,0,0-1.172H21.917a3.557,3.557,0,0,0-3.554,3.553v.158h-7A2.394,2.394,0,0,0,9.9,150.335l-.049-.018L4.5,148.647V145.63a2.25,2.25,0,1,0-4.5,0v5.483a.586.586,0,0,0,1.172,0V145.63a1.078,1.078,0,1,1,2.157,0v12.139a.586.586,0,0,0,.586.586H18.363v2.156H1.172v-6.693a.586.586,0,0,0-1.172,0V161.1a.586.586,0,0,0,.586.586H2.757v4.825a2.865,2.865,0,1,0,1.172,0v-1.858h32.62v1.858a2.865,2.865,0,1,0,1.172,0Zm-.094-18.229a1.079,1.079,0,0,1,1.079,1.077v11.155H36.55V149.357A1.078,1.078,0,0,1,37.627,148.28ZM9.47,151.427a1.214,1.214,0,0,1,.721,1.056H4.5v-2.608ZM4.5,157.183v-3.529H18.363v3.529Zm.535,12.13a1.693,1.693,0,1,1-1.693-1.693A1.695,1.695,0,0,1,5.036,169.313Zm-1.107-5.834v-1.8h32.62v1.8Zm33.206,7.527a1.693,1.693,0,1,1,1.693-1.693A1.695,1.695,0,0,1,37.135,171.006Z" transform="translate(0 -132.177)" fill="#3e5d56"/>
    </g>
  </g>
</svg>
