<svg xmlns="http://www.w3.org/2000/svg" width="206.077" height="206.077" viewBox="0 0 206.077 206.077">
  <g id="Grupo_1181461" data-name="Grupo 1181461" transform="translate(-46.114 -251.811)">
    <path id="Trazado_1005953" data-name="Trazado 1005953" d="M149.153,457.888a102.991,102.991,0,0,1-29.746-4.364c-2.155-.646-4.312-1.374-6.407-2.16a103.657,103.657,0,0,1-51.935-43.026c-.023-.038-.045-.076-.067-.114A103.048,103.048,0,0,1,140.39,252.179l.05,0c2.862-.241,5.793-.364,8.713-.364a103.039,103.039,0,1,1,0,206.077Z" fill="#fff"/>
    <g id="Grupo_1181460" data-name="Grupo 1181460">
      <g id="Grupo_1181332" data-name="Grupo 1181332">
        <path id="Trazado_1005954" data-name="Trazado 1005954" d="M247.472,354.849a113.026,113.026,0,0,1-1.569,16.915c-.488,3.016-6.8,2.895-7.551,5.809-.7,2.7,4.417,7.488,3.5,10.092a98.178,98.178,0,0,1-92.7,65.5c-.68,0-1.361-.008-2.037-.024-.055,0-.11,0-.165,0-14.835-.323-12.462-28.192-24.978-34.391-11.436-5.664-38.01,10.77-46.394,1.321-.016-.02-.031-.035-.047-.055a98.319,98.319,0,1,1,171.941-65.167Z" fill="#6e72ff"/>
      </g>
      <g id="Grupo_1181459" data-name="Grupo 1181459">
        <g id="Grupo_1181350" data-name="Grupo 1181350">
          <g id="Grupo_1181345" data-name="Grupo 1181345">
            <g id="Grupo_1181335" data-name="Grupo 1181335">
              <g id="Grupo_1181333" data-name="Grupo 1181333">
                <path id="Trazado_1005955" data-name="Trazado 1005955" d="M216.414,314.651h0a6.928,6.928,0,0,1-9.787-.474l-7.21-7.944a6.928,6.928,0,0,1,.474-9.787h0a6.929,6.929,0,0,1,9.787.473l7.21,7.944A6.931,6.931,0,0,1,216.414,314.651Z" fill="#f7ede5"/>
              </g>
              <g id="Grupo_1181334" data-name="Grupo 1181334">
                <path id="Trazado_1005956" data-name="Trazado 1005956" d="M203.3,310.173a.323.323,0,0,1-.217-.562l9.378-8.512a.323.323,0,0,1,.434.478l-9.378,8.512A.324.324,0,0,1,203.3,310.173Z" fill="#412945"/>
              </g>
            </g>
            <g id="Grupo_1181338" data-name="Grupo 1181338">
              <g id="Grupo_1181336" data-name="Grupo 1181336">
                <path id="Trazado_1005957" data-name="Trazado 1005957" d="M124.547,276.176h0a6.928,6.928,0,0,1-3.514,9.146l-9.8,4.36a6.928,6.928,0,0,1-9.146-3.514h0a6.928,6.928,0,0,1,3.514-9.146l9.8-4.36A6.927,6.927,0,0,1,124.547,276.176Z" fill="#f7ede5"/>
              </g>
              <g id="Grupo_1181337" data-name="Grupo 1181337">
                <path id="Trazado_1005958" data-name="Trazado 1005958" d="M115.882,287.447a.321.321,0,0,1-.295-.192l-5.148-11.571a.323.323,0,0,1,.59-.262l5.148,11.571a.322.322,0,0,1-.164.426A.319.319,0,0,1,115.882,287.447Z" fill="#412945"/>
              </g>
            </g>
            <g id="Grupo_1181341" data-name="Grupo 1181341">
              <g id="Grupo_1181339" data-name="Grupo 1181339">
                <path id="Trazado_1005959" data-name="Trazado 1005959" d="M195.811,415.712h0a6.928,6.928,0,0,1-3.514,9.146l-9.8,4.36a6.928,6.928,0,0,1-9.146-3.514h0a6.928,6.928,0,0,1,3.514-9.146l9.8-4.36A6.928,6.928,0,0,1,195.811,415.712Z" fill="#f7ede5"/>
              </g>
              <g id="Grupo_1181340" data-name="Grupo 1181340">
                <path id="Trazado_1005960" data-name="Trazado 1005960" d="M187.146,426.983a.321.321,0,0,1-.295-.192L181.7,415.22a.323.323,0,1,1,.59-.262l5.148,11.571a.323.323,0,0,1-.295.454Z" fill="#412945"/>
              </g>
            </g>
            <g id="Grupo_1181344" data-name="Grupo 1181344">
              <g id="Grupo_1181342" data-name="Grupo 1181342">
                <path id="Trazado_1005961" data-name="Trazado 1005961" d="M83.375,403.99h0a6.929,6.929,0,0,1-9.768.77l-8.158-6.967a6.929,6.929,0,0,1-.77-9.768h0a6.929,6.929,0,0,1,9.768-.77l8.158,6.966A6.93,6.93,0,0,1,83.375,403.99Z" fill="#f7ede5"/>
              </g>
              <g id="Grupo_1181343" data-name="Grupo 1181343">
                <path id="Trazado_1005962" data-name="Trazado 1005962" d="M69.761,401.211a.317.317,0,0,1-.21-.078.322.322,0,0,1-.036-.455l8.224-9.631a.323.323,0,1,1,.491.419L70.006,401.1A.32.32,0,0,1,69.761,401.211Z" fill="#412945"/>
              </g>
            </g>
          </g>
          <g id="Grupo_1181346" data-name="Grupo 1181346">
            <circle id="Elipse_13863" data-name="Elipse 13863" cx="6.175" cy="6.175" r="6.175" transform="translate(148.924 270.143)" fill="#ffc063"/>
          </g>
          <g id="Grupo_1181347" data-name="Grupo 1181347">
            <path id="Trazado_1005963" data-name="Trazado 1005963" d="M231.016,335.868a5.874,5.874,0,1,1-5.874-5.874A5.874,5.874,0,0,1,231.016,335.868Z" fill="#cad472"/>
          </g>
          <g id="Grupo_1181348" data-name="Grupo 1181348">
            <path id="Trazado_1005964" data-name="Trazado 1005964" d="M168.092,430.907a6.025,6.025,0,1,1-6.025-6.025A6.025,6.025,0,0,1,168.092,430.907Z" fill="#ffc063"/>
          </g>
          <g id="Grupo_1181349" data-name="Grupo 1181349">
            <circle id="Elipse_13864" data-name="Elipse 13864" cx="6.928" cy="6.928" r="6.928" transform="translate(89.38 374.543)" fill="#f8bdff"/>
          </g>
        </g>
        <g id="Grupo_1181395" data-name="Grupo 1181395">
          <g id="Grupo_1181391" data-name="Grupo 1181391">
            <g id="Grupo_1181351" data-name="Grupo 1181351">
              <path id="Trazado_1005965" data-name="Trazado 1005965" d="M83.131,362.95,54.474,343.883a4.007,4.007,0,0,1-1.117-5.556L75.931,304.4a5.748,5.748,0,0,1,7.969-1.6l25.759,17.139a5.748,5.748,0,0,1,1.6,7.969L88.687,361.833A4.007,4.007,0,0,1,83.131,362.95Z" fill="#b5e1e8"/>
            </g>
            <g id="Grupo_1181355" data-name="Grupo 1181355">
              <g id="Grupo_1181354" data-name="Grupo 1181354">
                <g id="Grupo_1181352" data-name="Grupo 1181352">
                  <path id="Trazado_1005966" data-name="Trazado 1005966" d="M89.044,315.348a5.628,5.628,0,1,1-3.31-7.238A5.627,5.627,0,0,1,89.044,315.348Z" fill="#f7ede5"/>
                </g>
                <g id="Grupo_1181353" data-name="Grupo 1181353">
                  <path id="Trazado_1005967" data-name="Trazado 1005967" d="M85.317,319.271a.4.4,0,0,1-.393-.313l-2.507-10.967a.4.4,0,1,1,.786-.18l2.507,10.967a.4.4,0,0,1-.3.483A.47.47,0,0,1,85.317,319.271Z" fill="#412945"/>
                </g>
              </g>
            </g>
            <g id="Grupo_1181359" data-name="Grupo 1181359">
              <g id="Grupo_1181358" data-name="Grupo 1181358">
                <g id="Grupo_1181356" data-name="Grupo 1181356">
                  <path id="Trazado_1005968" data-name="Trazado 1005968" d="M104.628,333.209a5.628,5.628,0,1,1-3.31-7.238A5.627,5.627,0,0,1,104.628,333.209Z" fill="#f7ede5"/>
                </g>
                <g id="Grupo_1181357" data-name="Grupo 1181357">
                  <path id="Trazado_1005969" data-name="Trazado 1005969" d="M100.9,337.131a.4.4,0,0,1-.393-.313L98,325.851a.4.4,0,1,1,.786-.18l2.507,10.967a.4.4,0,0,1-.3.483A.461.461,0,0,1,100.9,337.131Z" fill="#412945"/>
                </g>
              </g>
            </g>
            <g id="Grupo_1181363" data-name="Grupo 1181363">
              <g id="Grupo_1181362" data-name="Grupo 1181362">
                <g id="Grupo_1181360" data-name="Grupo 1181360">
                  <path id="Trazado_1005970" data-name="Trazado 1005970" d="M86.194,332.768a5.628,5.628,0,1,1-3.31-7.238A5.627,5.627,0,0,1,86.194,332.768Z" fill="#b5e1e8"/>
                </g>
                <g id="Grupo_1181361" data-name="Grupo 1181361">
                  <path id="Trazado_1005971" data-name="Trazado 1005971" d="M82.466,336.69a.4.4,0,0,1-.393-.313L79.566,325.41a.4.4,0,1,1,.786-.18L82.859,336.2a.4.4,0,0,1-.3.483A.453.453,0,0,1,82.466,336.69Z" fill="#412945"/>
                </g>
              </g>
            </g>
            <g id="Grupo_1181367" data-name="Grupo 1181367">
              <g id="Grupo_1181366" data-name="Grupo 1181366">
                <g id="Grupo_1181364" data-name="Grupo 1181364">
                  <path id="Trazado_1005972" data-name="Trazado 1005972" d="M69.782,337.565a5.628,5.628,0,1,1-3.31-7.238A5.627,5.627,0,0,1,69.782,337.565Z" fill="#f7ede5"/>
                </g>
                <g id="Grupo_1181365" data-name="Grupo 1181365">
                  <path id="Trazado_1005973" data-name="Trazado 1005973" d="M66.054,341.488a.4.4,0,0,1-.393-.313l-2.507-10.967a.4.4,0,1,1,.786-.18L66.447,341a.4.4,0,0,1-.3.483A.453.453,0,0,1,66.054,341.488Z" fill="#412945"/>
                </g>
              </g>
            </g>
            <g id="Grupo_1181371" data-name="Grupo 1181371">
              <g id="Grupo_1181370" data-name="Grupo 1181370">
                <g id="Grupo_1181368" data-name="Grupo 1181368">
                  <path id="Trazado_1005974" data-name="Trazado 1005974" d="M89.775,354.1a5.628,5.628,0,1,1-3.31-7.238A5.627,5.627,0,0,1,89.775,354.1Z" fill="#f7ede5"/>
                </g>
                <g id="Grupo_1181369" data-name="Grupo 1181369">
                  <path id="Trazado_1005975" data-name="Trazado 1005975" d="M86.047,358.021a.4.4,0,0,1-.393-.313l-2.507-10.967a.4.4,0,1,1,.786-.18l2.507,10.967a.4.4,0,0,1-.3.483A.461.461,0,0,1,86.047,358.021Z" fill="#412945"/>
                </g>
              </g>
            </g>
            <g id="Grupo_1181373" data-name="Grupo 1181373">
              <g id="Grupo_1181372" data-name="Grupo 1181372">
                <rect id="Rectángulo_455978" data-name="Rectángulo 455978" width="23.679" height="35.832" transform="matrix(0.833, 0.554, -0.554, 0.833, 82.059, 311.708)" fill="#fff"/>
              </g>
            </g>
            <g id="Grupo_1181375" data-name="Grupo 1181375">
              <g id="Grupo_1181374" data-name="Grupo 1181374">
                <path id="Trazado_1005976" data-name="Trazado 1005976" d="M91.2,334.157l-4.912-3.269,3.268-4.912L85.688,323.4l-3.269,4.913-4.912-3.269-2.572,3.866,4.913,3.268L76.579,337.1l3.866,2.572,3.268-4.913,4.913,3.268Z" fill="#f8bdff"/>
              </g>
            </g>
            <g id="Grupo_1181390" data-name="Grupo 1181390">
              <g id="Grupo_1181376" data-name="Grupo 1181376">
                <path id="Trazado_1005977" data-name="Trazado 1005977" d="M113.66,323.479,78.984,300.408l4.573-6.873a2.875,2.875,0,0,1,3.985-.8l29.891,19.887a2.874,2.874,0,0,1,.8,3.985Z" fill="#f7ede5"/>
              </g>
              <g id="Grupo_1181389" data-name="Grupo 1181389">
                <g id="Grupo_1181377" data-name="Grupo 1181377">
                  <path id="Trazado_1005978" data-name="Trazado 1005978" d="M81.423,302.434a.4.4,0,0,1-.336-.626l4.855-7.3a.4.4,0,0,1,.671.447l-4.855,7.3A.4.4,0,0,1,81.423,302.434Z" fill="#412945"/>
                </g>
                <g id="Grupo_1181378" data-name="Grupo 1181378">
                  <path id="Trazado_1005979" data-name="Trazado 1005979" d="M84.137,304.24a.4.4,0,0,1-.335-.626l4.855-7.3a.4.4,0,0,1,.671.447l-4.855,7.3A.4.4,0,0,1,84.137,304.24Z" fill="#412945"/>
                </g>
                <g id="Grupo_1181379" data-name="Grupo 1181379">
                  <path id="Trazado_1005980" data-name="Trazado 1005980" d="M86.853,306.046a.4.4,0,0,1-.335-.626l4.855-7.3a.4.4,0,0,1,.672.447l-4.855,7.3A.408.408,0,0,1,86.853,306.046Z" fill="#412945"/>
                </g>
                <g id="Grupo_1181380" data-name="Grupo 1181380">
                  <path id="Trazado_1005981" data-name="Trazado 1005981" d="M89.568,307.853a.4.4,0,0,1-.335-.626l4.855-7.3a.4.4,0,0,1,.671.447l-4.855,7.3A.4.4,0,0,1,89.568,307.853Z" fill="#412945"/>
                </g>
                <g id="Grupo_1181381" data-name="Grupo 1181381">
                  <path id="Trazado_1005982" data-name="Trazado 1005982" d="M92.283,309.659a.4.4,0,0,1-.335-.626l4.855-7.3a.4.4,0,1,1,.671.446l-4.855,7.3A.4.4,0,0,1,92.283,309.659Z" fill="#412945"/>
                </g>
                <g id="Grupo_1181382" data-name="Grupo 1181382">
                  <path id="Trazado_1005983" data-name="Trazado 1005983" d="M95,311.466a.4.4,0,0,1-.335-.626l4.855-7.3a.4.4,0,0,1,.671.447l-4.855,7.3A.4.4,0,0,1,95,311.466Z" fill="#412945"/>
                </g>
                <g id="Grupo_1181383" data-name="Grupo 1181383">
                  <path id="Trazado_1005984" data-name="Trazado 1005984" d="M97.713,313.272a.4.4,0,0,1-.335-.626l4.855-7.3a.4.4,0,0,1,.671.447l-4.855,7.3A.4.4,0,0,1,97.713,313.272Z" fill="#412945"/>
                </g>
                <g id="Grupo_1181384" data-name="Grupo 1181384">
                  <path id="Trazado_1005985" data-name="Trazado 1005985" d="M100.428,315.079a.4.4,0,0,1-.336-.626l4.855-7.3a.4.4,0,1,1,.671.446l-4.855,7.3A.4.4,0,0,1,100.428,315.079Z" fill="#412945"/>
                </g>
                <g id="Grupo_1181385" data-name="Grupo 1181385">
                  <path id="Trazado_1005986" data-name="Trazado 1005986" d="M103.143,316.885a.4.4,0,0,1-.335-.626l4.855-7.3a.4.4,0,1,1,.671.446l-4.855,7.3A.4.4,0,0,1,103.143,316.885Z" fill="#412945"/>
                </g>
                <g id="Grupo_1181386" data-name="Grupo 1181386">
                  <path id="Trazado_1005987" data-name="Trazado 1005987" d="M105.858,318.691a.4.4,0,0,1-.335-.626l4.855-7.3a.4.4,0,0,1,.672.447l-4.855,7.3A.4.4,0,0,1,105.858,318.691Z" fill="#412945"/>
                </g>
                <g id="Grupo_1181387" data-name="Grupo 1181387">
                  <path id="Trazado_1005988" data-name="Trazado 1005988" d="M108.573,320.5a.4.4,0,0,1-.335-.626l4.855-7.3a.4.4,0,0,1,.671.447l-4.855,7.3A.4.4,0,0,1,108.573,320.5Z" fill="#412945"/>
                </g>
                <g id="Grupo_1181388" data-name="Grupo 1181388">
                  <path id="Trazado_1005989" data-name="Trazado 1005989" d="M111.289,322.3a.4.4,0,0,1-.335-.626l4.855-7.3a.4.4,0,0,1,.671.447l-4.855,7.3A.4.4,0,0,1,111.289,322.3Z" fill="#412945"/>
                </g>
              </g>
            </g>
          </g>
          <g id="Grupo_1181394" data-name="Grupo 1181394">
            <g id="Grupo_1181392" data-name="Grupo 1181392">
              <path id="Trazado_1005990" data-name="Trazado 1005990" d="M107.028,325.741a8.473,8.473,0,0,0-3.881,3.577,3.839,3.839,0,0,0-.578,2.022,1.867,1.867,0,0,0,1.111,1.677,2.233,2.233,0,0,0,1.54-.111c1.9-.726,3.121-2.6,3.851-4.493C109.742,326.669,109.27,324.725,107.028,325.741Z" fill="#fff"/>
            </g>
            <g id="Grupo_1181393" data-name="Grupo 1181393">
              <path id="Trazado_1005991" data-name="Trazado 1005991" d="M102.608,338.014a2.077,2.077,0,1,1-.95-2.779A2.078,2.078,0,0,1,102.608,338.014Z" fill="#fff"/>
            </g>
          </g>
        </g>
        <g id="Grupo_1181440" data-name="Grupo 1181440">
          <g id="Grupo_1181436" data-name="Grupo 1181436">
            <g id="Grupo_1181396" data-name="Grupo 1181396">
              <path id="Trazado_1005992" data-name="Trazado 1005992" d="M245.9,371.764a92.1,92.1,0,0,1-4.05,15.9l-13.075,19.692a4.081,4.081,0,0,1-5.657,1.142L188.554,385.55a5.849,5.849,0,0,1-2.6-5.312c.011-.122.022-.249.041-.371a5.826,5.826,0,0,1,.92-2.43l.434-.656,1.84-2.767,1.836-2.767,1.836-2.767,1.836-2.763,1.836-2.767,1.836-2.767,1.836-2.763,1.836-2.767,1.836-2.763.46-.694a5.878,5.878,0,0,1,1.84-1.769c.122-.07.245-.141.367-.2a5.838,5.838,0,0,1,5.9.33Z" fill="#f8bdff"/>
            </g>
            <g id="Grupo_1181400" data-name="Grupo 1181400">
              <g id="Grupo_1181399" data-name="Grupo 1181399">
                <g id="Grupo_1181397" data-name="Grupo 1181397">
                  <path id="Trazado_1005993" data-name="Trazado 1005993" d="M199.69,372.19a5.73,5.73,0,1,1-7.365,3.378A5.73,5.73,0,0,1,199.69,372.19Z" fill="#f7ede5"/>
                </g>
                <g id="Grupo_1181398" data-name="Grupo 1181398">
                  <path id="Trazado_1005994" data-name="Trazado 1005994" d="M192.113,378.957a.411.411,0,0,1-.092-.811l11.163-2.564a.41.41,0,0,1,.184.8l-11.163,2.564A.421.421,0,0,1,192.113,378.957Z" fill="#412945"/>
                </g>
              </g>
            </g>
            <g id="Grupo_1181404" data-name="Grupo 1181404">
              <g id="Grupo_1181403" data-name="Grupo 1181403">
                <g id="Grupo_1181401" data-name="Grupo 1181401">
                  <path id="Trazado_1005995" data-name="Trazado 1005995" d="M217.858,356.3a5.73,5.73,0,1,1-7.366,3.378A5.73,5.73,0,0,1,217.858,356.3Z" fill="#f7ede5"/>
                </g>
                <g id="Grupo_1181402" data-name="Grupo 1181402">
                  <path id="Trazado_1005996" data-name="Trazado 1005996" d="M210.281,363.07a.411.411,0,0,1-.092-.811l11.163-2.564a.41.41,0,0,1,.184.8l-11.163,2.564A.369.369,0,0,1,210.281,363.07Z" fill="#412945"/>
                </g>
              </g>
            </g>
            <g id="Grupo_1181408" data-name="Grupo 1181408">
              <g id="Grupo_1181407" data-name="Grupo 1181407">
                <g id="Grupo_1181405" data-name="Grupo 1181405">
                  <path id="Trazado_1005997" data-name="Trazado 1005997" d="M217.428,375.074a5.73,5.73,0,1,1-7.366,3.378A5.73,5.73,0,0,1,217.428,375.074Z" fill="#b5e1e8"/>
                </g>
                <g id="Grupo_1181406" data-name="Grupo 1181406">
                  <path id="Trazado_1005998" data-name="Trazado 1005998" d="M209.851,381.84a.411.411,0,0,1-.092-.811l11.163-2.564a.41.41,0,0,1,.184.8l-11.163,2.564A.414.414,0,0,1,209.851,381.84Z" fill="#412945"/>
                </g>
              </g>
            </g>
            <g id="Grupo_1181412" data-name="Grupo 1181412">
              <g id="Grupo_1181411" data-name="Grupo 1181411">
                <g id="Grupo_1181409" data-name="Grupo 1181409">
                  <path id="Trazado_1005999" data-name="Trazado 1005999" d="M222.329,391.779a5.73,5.73,0,1,1-7.366,3.378A5.731,5.731,0,0,1,222.329,391.779Z" fill="#f7ede5"/>
                </g>
                <g id="Grupo_1181410" data-name="Grupo 1181410">
                  <path id="Trazado_1006000" data-name="Trazado 1006000" d="M214.753,398.544a.411.411,0,0,1-.092-.811l11.163-2.564a.41.41,0,0,1,.184.8l-11.163,2.564A.369.369,0,0,1,214.753,398.544Z" fill="#412945"/>
                </g>
              </g>
            </g>
            <g id="Grupo_1181416" data-name="Grupo 1181416">
              <g id="Grupo_1181415" data-name="Grupo 1181415">
                <g id="Grupo_1181413" data-name="Grupo 1181413">
                  <path id="Trazado_1006001" data-name="Trazado 1006001" d="M239.142,371.406a5.73,5.73,0,1,1-7.366,3.378A5.73,5.73,0,0,1,239.142,371.406Z" fill="#f7ede5"/>
                </g>
                <g id="Grupo_1181414" data-name="Grupo 1181414">
                  <path id="Trazado_1006002" data-name="Trazado 1006002" d="M231.565,378.172a.411.411,0,0,1-.092-.811l11.163-2.564a.41.41,0,0,1,.184.8l-11.163,2.564A.407.407,0,0,1,231.565,378.172Z" fill="#412945"/>
                </g>
              </g>
            </g>
            <g id="Grupo_1181418" data-name="Grupo 1181418">
              <g id="Grupo_1181417" data-name="Grupo 1181417">
                <rect id="Rectángulo_455979" data-name="Rectángulo 455979" width="24.109" height="36.482" transform="translate(195.975 379.33) rotate(-56.42)" fill="#fff"/>
              </g>
            </g>
            <g id="Grupo_1181420" data-name="Grupo 1181420">
              <g id="Grupo_1181419" data-name="Grupo 1181419">
                <path id="Trazado_1006003" data-name="Trazado 1006003" d="M219.745,370.629l-3.323,5.005-5-3.323-2.614,3.938,5.005,3.323-3.323,5.005,3.938,2.614,3.323-5,5.005,3.322,2.614-3.938-5-3.323,3.322-5Z" fill="#b5e1e8"/>
              </g>
            </g>
            <g id="Grupo_1181435" data-name="Grupo 1181435">
              <g id="Grupo_1181421" data-name="Grupo 1181421">
                <path id="Trazado_1006004" data-name="Trazado 1006004" d="M207.942,347.119l-23.454,35.329-7-4.648a2.926,2.926,0,0,1-.819-4.056l20.217-30.453a2.926,2.926,0,0,1,4.056-.819Z" fill="#f7ede5"/>
              </g>
              <g id="Grupo_1181434" data-name="Grupo 1181434">
                <g id="Grupo_1181422" data-name="Grupo 1181422">
                  <path id="Trazado_1006005" data-name="Trazado 1006005" d="M186.138,380.374a.406.406,0,0,1-.227-.069l-7.434-4.935a.41.41,0,1,1,.454-.684l7.434,4.935a.411.411,0,0,1-.227.753Z" fill="#412945"/>
                </g>
                <g id="Grupo_1181423" data-name="Grupo 1181423">
                  <path id="Trazado_1006006" data-name="Trazado 1006006" d="M187.974,377.608a.412.412,0,0,1-.227-.068l-7.434-4.935a.41.41,0,1,1,.454-.684l7.434,4.935a.41.41,0,0,1-.227.752Z" fill="#412945"/>
                </g>
                <g id="Grupo_1181424" data-name="Grupo 1181424">
                  <path id="Trazado_1006007" data-name="Trazado 1006007" d="M189.811,374.841a.412.412,0,0,1-.227-.068l-7.434-4.935a.41.41,0,1,1,.454-.684l7.434,4.935a.41.41,0,0,1-.227.752Z" fill="#412945"/>
                </g>
                <g id="Grupo_1181425" data-name="Grupo 1181425">
                  <path id="Trazado_1006008" data-name="Trazado 1006008" d="M191.647,372.075a.412.412,0,0,1-.227-.068l-7.434-4.935a.41.41,0,1,1,.454-.684l7.434,4.935a.41.41,0,0,1-.227.752Z" fill="#412945"/>
                </g>
                <g id="Grupo_1181426" data-name="Grupo 1181426">
                  <path id="Trazado_1006009" data-name="Trazado 1006009" d="M193.483,369.309a.412.412,0,0,1-.227-.068l-7.434-4.936a.41.41,0,1,1,.454-.684l7.434,4.936a.41.41,0,0,1-.227.752Z" fill="#412945"/>
                </g>
                <g id="Grupo_1181427" data-name="Grupo 1181427">
                  <path id="Trazado_1006010" data-name="Trazado 1006010" d="M195.32,366.543a.412.412,0,0,1-.227-.068l-7.434-4.935a.41.41,0,1,1,.454-.684l7.434,4.935a.41.41,0,0,1-.227.752Z" fill="#412945"/>
                </g>
                <g id="Grupo_1181428" data-name="Grupo 1181428">
                  <path id="Trazado_1006011" data-name="Trazado 1006011" d="M197.156,363.776a.406.406,0,0,1-.227-.069l-7.434-4.935a.41.41,0,1,1,.454-.684l7.434,4.935a.411.411,0,0,1,.115.569A.406.406,0,0,1,197.156,363.776Z" fill="#412945"/>
                </g>
                <g id="Grupo_1181429" data-name="Grupo 1181429">
                  <path id="Trazado_1006012" data-name="Trazado 1006012" d="M198.993,361.01a.412.412,0,0,1-.227-.068l-7.434-4.935a.41.41,0,1,1,.454-.684l7.434,4.935a.41.41,0,0,1-.227.752Z" fill="#412945"/>
                </g>
                <g id="Grupo_1181430" data-name="Grupo 1181430">
                  <path id="Trazado_1006013" data-name="Trazado 1006013" d="M200.829,358.244a.406.406,0,0,1-.227-.069l-7.434-4.935a.41.41,0,1,1,.454-.684l7.434,4.935a.411.411,0,0,1-.227.753Z" fill="#412945"/>
                </g>
                <g id="Grupo_1181431" data-name="Grupo 1181431">
                  <path id="Trazado_1006014" data-name="Trazado 1006014" d="M202.665,355.478a.406.406,0,0,1-.227-.069L195,350.474a.41.41,0,1,1,.454-.684l7.434,4.935a.411.411,0,0,1-.227.753Z" fill="#412945"/>
                </g>
                <g id="Grupo_1181432" data-name="Grupo 1181432">
                  <path id="Trazado_1006015" data-name="Trazado 1006015" d="M204.5,352.711a.412.412,0,0,1-.227-.068l-7.434-4.935a.41.41,0,1,1,.454-.684l7.434,4.935a.41.41,0,0,1-.227.752Z" fill="#412945"/>
                </g>
                <g id="Grupo_1181433" data-name="Grupo 1181433">
                  <path id="Trazado_1006016" data-name="Trazado 1006016" d="M206.338,349.945a.412.412,0,0,1-.227-.068l-7.434-4.936a.41.41,0,1,1,.454-.684l7.434,4.936a.41.41,0,0,1-.227.752Z" fill="#412945"/>
                </g>
              </g>
            </g>
          </g>
          <g id="Grupo_1181439" data-name="Grupo 1181439">
            <g id="Grupo_1181437" data-name="Grupo 1181437">
              <path id="Trazado_1006017" data-name="Trazado 1006017" d="M210.252,353.869a8.627,8.627,0,0,0,3.646,3.948,3.909,3.909,0,0,0,2.059.587,1.9,1.9,0,0,0,1.706-1.133,2.28,2.28,0,0,0-.114-1.567c-.741-1.932-2.646-3.175-4.578-3.917C211.2,351.106,209.216,351.587,210.252,353.869Z" fill="#fff"/>
            </g>
            <g id="Grupo_1181438" data-name="Grupo 1181438">
              <path id="Trazado_1006018" data-name="Trazado 1006018" d="M222.752,358.356a2.115,2.115,0,1,1-2.83.969A2.116,2.116,0,0,1,222.752,358.356Z" fill="#fff"/>
            </g>
          </g>
        </g>
        <g id="Grupo_1181448" data-name="Grupo 1181448">
          <g id="Grupo_1181446" data-name="Grupo 1181446">
            <g id="Grupo_1181443" data-name="Grupo 1181443">
              <g id="Grupo_1181441" data-name="Grupo 1181441">
                <path id="Trazado_1006019" data-name="Trazado 1006019" d="M115.982,377.744l6.049-85.839,52.721,3.743,4.819,41.937-10.868,43.9Z" fill="#fff"/>
              </g>
              <g id="Grupo_1181442" data-name="Grupo 1181442">
                <rect id="Rectángulo_455980" data-name="Rectángulo 455980" width="86.051" height="9.183" transform="translate(168.688 381.483) rotate(-85.969)" fill="#f8bdff"/>
              </g>
            </g>
            <g id="Grupo_1181445" data-name="Grupo 1181445">
              <g id="Grupo_1181444" data-name="Grupo 1181444">
                <path id="Trazado_1006020" data-name="Trazado 1006020" d="M157.429,337.525l-3.994-.343a2.547,2.547,0,0,1,.078.921l-.4-.035a1,1,0,0,0-.559-1.145l.034-.408,4.9.42Z" fill="#412945"/>
                <path id="Trazado_1006021" data-name="Trazado 1006021" d="M156.463,335.361l-2.618-.224a1.218,1.218,0,0,1,.2-2.428l2.619.224a1.218,1.218,0,0,1-.2,2.428Zm.187-1.835-2.689-.23c-.447-.038-.688.154-.723.57s.172.639.619.678l2.688.23c.454.039.7-.146.729-.562S157.1,333.565,156.65,333.526Z" fill="#412945"/>
                <path id="Trazado_1006022" data-name="Trazado 1006022" d="M156.777,331.578l-2.618-.224a1.218,1.218,0,0,1,.2-2.428l2.618.224a1.218,1.218,0,0,1-.2,2.428Zm.187-1.836-2.688-.23c-.447-.038-.688.155-.723.571s.172.639.619.678l2.688.23c.454.039.7-.146.729-.562S157.419,329.781,156.964,329.742Z" fill="#412945"/>
                <path id="Trazado_1006023" data-name="Trazado 1006023" d="M158.4,325.842l-4.888-.419.071-.855,3.969-.444-3.84-1.107.072-.862,4.888.419-.047.567-4.078-.35,4.008,1.19-.041.5-4.148.49,4.078.35Z" fill="#412945"/>
                <path id="Trazado_1006024" data-name="Trazado 1006024" d="M157.65,321.06l-2.618-.224a1.2,1.2,0,1,1,.2-2.4l.4.034-.046.56-.433-.037c-.447-.039-.688.154-.723.57s.172.64.619.678l2.7.231c.447.038.688-.147.722-.563s-.171-.647-.618-.685l-1.1-.094-.048.583-.5-.043.1-1.142,1.55.133a1.2,1.2,0,1,1-.2,2.4Z" fill="#412945"/>
              </g>
            </g>
          </g>
          <g id="Grupo_1181447" data-name="Grupo 1181447">
            <path id="Trazado_1006025" data-name="Trazado 1006025" d="M132.473,311.8c-.191,0-.381-.007-.575-.02a7.928,7.928,0,0,1-5.383-2.621,7.505,7.505,0,0,1-1.921-5.567h0a7.766,7.766,0,0,1,8.385-7.081,7.922,7.922,0,0,1,5.383,2.621,7.5,7.5,0,0,1,1.921,5.567A7.754,7.754,0,0,1,132.473,311.8Zm-6.7-8.126a6.33,6.33,0,0,0,1.625,4.7,6.751,6.751,0,0,0,4.588,2.232,6.588,6.588,0,0,0,7.127-5.989,6.334,6.334,0,0,0-1.624-4.7,6.751,6.751,0,0,0-4.588-2.232,6.6,6.6,0,0,0-7.128,5.99Z" fill="#412945"/>
          </g>
        </g>
        <g id="Grupo_1181454" data-name="Grupo 1181454">
          <g id="Grupo_1181452" data-name="Grupo 1181452">
            <g id="Grupo_1181449" data-name="Grupo 1181449">
              <path id="Trazado_1006026" data-name="Trazado 1006026" d="M103.255,418.07s9.961-25.942,11.006-28.844,6.579-15.7,8.247-21.528,5.825-23.39,5.825-23.39,6.5,1.288,8.519,9.068-1.295,16.051.151,22.944,10.153,10.028,10.153,10.028,5.432-8.127,5.831-14.046-2.823-30.556,7.437-31.563c0,0,.808-5.679,7.5-7.351l1.68,5s.265-5.5,6.763-7.4c0,0,12.158,32.247,12.191,34.9.024,1.918-2.631,12.245-4.65,16.993s-2.844,13.823-6.637,16.54-11.137,4.557-17.541,11.345-22.774,35.412-22.774,35.412S106.53,429.333,103.255,418.07Z" fill="#ff997d"/>
            </g>
            <g id="Grupo_1181451" data-name="Grupo 1181451">
              <g id="Grupo_1181450" data-name="Grupo 1181450">
                <path id="Trazado_1006027" data-name="Trazado 1006027" d="M143.206,391.979a.588.588,0,0,1-.462-.953l4.181-5.31a.588.588,0,1,1,.924.729l-4.18,5.31A.59.59,0,0,1,143.206,391.979Z" fill="#412945"/>
              </g>
              <path id="Trazado_1006028" data-name="Trazado 1006028" d="M177.634,332.578a2.612,2.612,0,0,0-.433-.755.594.594,0,0,0-.2-.314,1.709,1.709,0,0,0-.484-.283.58.58,0,0,0-.067-.039,1.936,1.936,0,0,0-.275-.142.98.98,0,0,0-.106-.047,2.632,2.632,0,0,0-2.159.118,10.735,10.735,0,0,0-4.444,5l-.291-.9a2.647,2.647,0,0,0-.755-1.164.561.561,0,0,0-.189-.252,2.238,2.238,0,0,0-.212-.142,1.689,1.689,0,0,0-.452-.173,1.789,1.789,0,0,0-.248-.043,2.658,2.658,0,0,0-1.99.228,13.182,13.182,0,0,0-5.372,6.544l-.063.012a1.094,1.094,0,0,0-.669.193c-8.058,2.686-7.59,16.624-7.268,25.98a56.59,56.59,0,0,1,.012,6.513c-.59,5.361-3.925,10.917-4.995,12.581-2.769-1.785-8.542-5.817-9.635-7.968-.039-.079-.071-.153-.1-.224a4.518,4.518,0,0,1-.2-.83,42.869,42.869,0,0,1,.236-8.357c.263-3.311.562-7.063.61-11.307a13.073,13.073,0,0,0-8.42-12.758,1.424,1.424,0,0,0-1.2.051,1.446,1.446,0,0,0-.751.952l-2.344,9.576a.607.607,0,0,0-.185.759l-3.3,13.521c-.519,1.3-8.278,20.844-8.9,22.755-.307.956-2.8,7.681-5.227,14.182-2.411,6.477-4.755,12.734-4.8,12.86a.625.625,0,0,0,.366.8.619.619,0,0,0,.22.039.618.618,0,0,0,.582-.405c.185-.5,2.391-6.379,4.688-12.549,2.462-6.611,5.034-13.549,5.356-14.547.613-1.9,8.8-22.511,8.884-22.72a.259.259,0,0,0,.024-.079l3.351-13.694a3.031,3.031,0,0,0,.33-.228,9.671,9.671,0,0,0,3.5-9.635,11.741,11.741,0,0,1,6.579,11.106c-.047,4.2-.342,7.929-.606,11.22-.366,4.59-.629,7.9.043,9.718,1,2.7,8.05,7.4,10.213,8.794.252.165.436.283.539.346a.621.621,0,0,0,.708-.031.5.5,0,0,0,.134-.138c.016-.024.059-.082.122-.181a.628.628,0,0,0,.043-.063c.024-.035.051-.079.083-.126,1-1.522,4.645-7.4,5.293-13.285a55.855,55.855,0,0,0-.008-6.694c-.275-8.023-.665-19.573,4.4-23.652a7.514,7.514,0,0,0-.393,3.524,5.166,5.166,0,0,0,.932,2.6,5.39,5.39,0,0,0,3.673,1.856.378.378,0,0,0,.094.008.554.554,0,0,0,.2-.036l5.046,21.536-1.884,11.358a.622.622,0,0,0,1.227.205l1.908-11.48a.649.649,0,0,0-.008-.248l-7.323-31.246a13.229,13.229,0,0,1,3.567-5.136c-.024.083-.047.169-.071.256a7.469,7.469,0,0,0,3.249,8.035,3.664,3.664,0,0,0,1.844.582,1.989,1.989,0,0,0,1.113-.326l7.118,21.929a2.713,2.713,0,0,1,.087,1.3l-2.769,15.66a.618.618,0,0,0,.5.72.51.51,0,0,0,.11.008.619.619,0,0,0,.61-.511l2.773-15.66a3.953,3.953,0,0,0-.13-1.9l-9.03-27.82a.55.55,0,0,0,.106-.189,11.381,11.381,0,0,1,3.209-4.766c-.043.114-.083.228-.114.33a6.7,6.7,0,0,0,.468,4.523,6.355,6.355,0,0,0,2.25,2.851,4.166,4.166,0,0,0,2.273.7,3.492,3.492,0,0,0,1.255-.232c5.258,14.229,8.487,23.644,8.452,24.686-.232,1.907-3.209,11.916-4.66,15.9-.417,1.152-.818,2.714-1.282,4.519-1.121,4.35-2.513,9.765-4.908,12.129a23.924,23.924,0,0,1-5.329,3.3c-4.452,2.316-10.548,5.49-14.992,11.987-3.111,4.546-7.846,12.022-11.963,18.622-4.523,7.26-8.31,13.466-8.381,13.584,0,.008-.008.012-.012.02a.628.628,0,0,0,.22.838.644.644,0,0,0,.323.09.618.618,0,0,0,.531-.3c.071-.118,3.834-6.289,8.337-13.509,4.122-6.607,8.861-14.1,11.971-18.641,4.267-6.241,9.962-9.207,14.539-11.586a24.781,24.781,0,0,0,5.628-3.52c2.639-2.607,4.082-8.208,5.238-12.711.456-1.774.849-3.3,1.251-4.4,1.369-3.768,4.464-14.024,4.723-16.172C189.389,364.233,182.039,344.306,177.634,332.578ZM128.7,350.024a8.528,8.528,0,0,1-1.966,3.457l1.974-8.082A8.529,8.529,0,0,1,128.7,350.024Zm33.122-.606a4.113,4.113,0,0,1-2.686-1.345,3.981,3.981,0,0,1-.684-1.99,5.3,5.3,0,0,1,1.345-4.542c.055-.016.11-.039.165-.055Zm8.561-6.453a.652.652,0,0,0-.205.122c-.37.346-1.144.13-1.707-.216a6.28,6.28,0,0,1-2.7-6.666,2.4,2.4,0,0,1,.708-1.306,1.006,1.006,0,0,1,.613-.22.263.263,0,0,0,.043.012,1.466,1.466,0,0,1,.853.909Zm6.269-3.347a5.148,5.148,0,0,1-1.793-2.309,5.5,5.5,0,0,1-.417-3.669,2.065,2.065,0,0,1,.763-1.16.993.993,0,0,1,.747-.134,1.451,1.451,0,0,1,.519.669q1.362,3.629,2.592,6.945A2.7,2.7,0,0,1,176.651,339.618Z" fill="#412945"/>
            </g>
          </g>
          <g id="Grupo_1181453" data-name="Grupo 1181453">
            <path id="Trazado_1006029" data-name="Trazado 1006029" d="M156.554,440.6l-9.6,12.542a98.058,98.058,0,0,1-71.372-33.071c-.016-.02-.031-.035-.047-.055l22.964-20.6,9.061,6.426.3.216.224.157.527.374,36.2,25.677.259.185.248.177.511.362Z" fill="#f7ede5"/>
          </g>
        </g>
        <g id="Grupo_1181458" data-name="Grupo 1181458">
          <path id="Trazado_1006030" data-name="Trazado 1006030" d="M115.982,377.744l3-42.607,21.594,6.019-.958,38.266Z" fill="#fff"/>
          <g id="Grupo_1181457" data-name="Grupo 1181457">
            <g id="Grupo_1181455" data-name="Grupo 1181455">
              <rect id="Rectángulo_455981" data-name="Rectángulo 455981" width="6.051" height="40.362" transform="matrix(-0.998, -0.071, 0.071, -0.998, 126.543, 374.282)" fill="#ffc063"/>
            </g>
            <g id="Grupo_1181456" data-name="Grupo 1181456">
              <rect id="Rectángulo_455982" data-name="Rectángulo 455982" width="13.427" height="57.777" transform="matrix(-0.998, -0.071, 0.071, -0.998, 143.972, 375.195)" fill="#ffc063"/>
            </g>
          </g>
        </g>
      </g>
    </g>
  </g>
</svg>
