<svg xmlns="http://www.w3.org/2000/svg" width="40" height="39.803" viewBox="0 0 40 39.803">
  <g id="Grupo_1182072" data-name="Grupo 1182072" transform="translate(0 -1.263)">
    <path id="Trazado_1007727" data-name="Trazado 1007727" d="M39.827,5.117l-3.7-3.684a.586.586,0,0,0-.827,0L30.335,6.375l-1.2-1.191c-.4-.4-1.011.027-1.384.237a11.9,11.9,0,0,0-3.43,3.393,112.435,112.435,0,0,1-9.373,10.633A109.179,109.179,0,0,1,4.581,28.54c-.579.45.115,1.4.72.925a110.284,110.284,0,0,0,10.478-9.187,112.828,112.828,0,0,0,9.062-10.223l6.328,6.3a106.219,106.219,0,0,0-10.264,9.021A108.822,108.822,0,0,0,10.866,36.843c-1.211,1.581-2.782,3-4.879,3.05A4.771,4.771,0,0,1,1.4,36.662a5.21,5.21,0,0,1,1.554-5.295.586.586,0,0,0-.834-.823A6.3,6.3,0,0,0,.29,37.031a5.958,5.958,0,0,0,5.354,4.03c2.546.1,4.726-1.524,6.156-3.509A107.705,107.705,0,0,1,21.732,26.2a106.381,106.381,0,0,1,10.68-9.334,10.572,10.572,0,0,0,3.781-4.147.586.586,0,0,0-.126-.643l-1.2-1.194,1.139-1.134a.586.586,0,0,0-.827-.831l-1.143,1.138L31.166,7.2l4.547-4.526,2.871,2.858L37.254,6.856a.586.586,0,0,0,.827.831l1.746-1.738a.586.586,0,0,0,0-.831ZM32.1,15.629l-6.535-6.5A9.133,9.133,0,0,1,28.6,6.3l6.35,6.321A9.216,9.216,0,0,1,32.1,15.629Z" transform="translate(0)" fill="#3e5d56"/>
    <path id="Trazado_1007728" data-name="Trazado 1007728" d="M60.048,310.914a2.662,2.662,0,0,0,1.883-.775l6.885-6.854c2.456-2.445-1.375-6.17-3.783-3.774l-6.869,6.869A2.677,2.677,0,0,0,60.048,310.914Zm1.133-5.893,2.108,2.1-.745.745-2.108-2.1Zm.829-.829.838-.838,2.117,2.111-.84.836Zm2.412-2.412,2.108,2.1-.745.745-2.108-2.1.346-.346Zm2.489-1.87a1.509,1.509,0,0,1,1.079,2.544l-.617.614-2.123-2.116.611-.611a1.481,1.481,0,0,1,1.05-.43Zm-7.919,7.3h0l.614-.614,2.11,2.1-.612.609C59.75,310.656,57.627,308.568,58.992,307.21Z" transform="translate(-52.92 -274.237)" fill="#3e5d56"/>
  </g>
</svg>
