<svg xmlns="http://www.w3.org/2000/svg" width="49.5" height="31.187" viewBox="0 0 49.5 31.187">
  <g id="Grupo_1181647" data-name="Grupo 1181647" transform="translate(-305.5 -2552)">
    <g id="Grupo_1181645" data-name="Grupo 1181645" transform="translate(-3 3)">
      <path id="Polígono_11" data-name="Polígono 11" d="M6.5,0,13,5H0Z" transform="translate(358 2558) rotate(90)" fill="#3e5d56"/>
      <rect id="Rectángulo_455983" data-name="Rectángulo 455983" width="6" height="7" transform="translate(349 2561)" fill="#3e5d56"/>
    </g>
    <g id="Grupo_1181648" data-name="Grupo 1181648" transform="translate(305.5 2511.777)">
      <path id="Trazado_1006121" data-name="Trazado 1006121" d="M59.556,67.223H55.383a.542.542,0,0,0,0,1.084h3.63v8.25H36.933v-8.25H52.849a.542.542,0,1,0,0-1.084H27.542a.542.542,0,0,0-.542.542V86.433a.542.542,0,0,0,.542.542H59.556a.542.542,0,0,0,.542-.542V67.765A.542.542,0,0,0,59.556,67.223ZM28.084,85.891V68.307h7.765V85.891Zm8.849,0v-8.25H59.014v8.25Z" transform="translate(-25.049 -25.049)" fill="#3e5d56"/>
      <path id="Trazado_1006122" data-name="Trazado 1006122" d="M35.351,40.223H1.649A1.651,1.651,0,0,0,0,41.872V62.228a1.651,1.651,0,0,0,1.649,1.649H12.327v3.811H3.057a1.107,1.107,0,0,0-1.106,1.106V70.3A1.107,1.107,0,0,0,3.057,71.41H5.382a.542.542,0,1,0,0-1.084H3.057a.022.022,0,0,1-.022-.022V68.794a.022.022,0,0,1,.022-.022H33.943a.022.022,0,0,1,.022.022V70.3a.022.022,0,0,1-.022.022H7.925a.542.542,0,1,0,0,1.084H33.943A1.107,1.107,0,0,0,35.049,70.3V68.794a1.107,1.107,0,0,0-1.106-1.106h-9.27v-3l.173.247a2.172,2.172,0,0,0,1.778.926h8.747A1.63,1.63,0,0,0,37,64.233V41.872a1.651,1.651,0,0,0-1.649-1.649ZM13.411,67.689V63.877H23.589v3.811Zm22.506-3.456a.544.544,0,0,1-.544.544H26.625a1.088,1.088,0,0,1-.89-.464l-.9-1.288a.786.786,0,0,0-.7-.231H1.649a.566.566,0,0,1-.565-.565V41.872a.566.566,0,0,1,.565-.565h33.7a.566.566,0,0,1,.565.565V64.233Z" fill="#3e5d56"/>
      <path id="Trazado_1006123" data-name="Trazado 1006123" d="M374.942,352.545h-5.16a.542.542,0,0,0,0,1.084h5.16a.542.542,0,0,0,0-1.084Z" transform="translate(-342.557 -289.752)" fill="#3e5d56"/>
      <path id="Trazado_1006124" data-name="Trazado 1006124" d="M61.671,107.9l-.261.137-.261-.137a1.663,1.663,0,0,0-2.085,2.491l1.458,1.882a1.117,1.117,0,0,0,.889.436h0a1.117,1.117,0,0,0,.889-.436l1.458-1.882a1.663,1.663,0,0,0-2.085-2.491Zm1.228,1.828-1.458,1.882a.04.04,0,0,1-.064,0l-1.458-1.882a.579.579,0,0,1,.726-.867l.513.268a.542.542,0,0,0,.5,0l.513-.268a.579.579,0,0,1,.726.867Z" transform="translate(-54.472 -62.615)" fill="#3e5d56"/>
      <path id="Trazado_1006125" data-name="Trazado 1006125" d="M65.586,196.384H61.621a.542.542,0,1,0,0,1.084h3.965a.542.542,0,1,0,0-1.084Z" transform="translate(-56.665 -144.876)" fill="#3e5d56"/>
      <path id="Trazado_1006126" data-name="Trazado 1006126" d="M65.586,225.572H61.621a.542.542,0,1,0,0,1.084h3.965a.542.542,0,1,0,0-1.084Z" transform="translate(-56.665 -171.955)" fill="#3e5d56"/>
      <path id="Trazado_1006127" data-name="Trazado 1006127" d="M65.586,254.762H61.621a.542.542,0,1,0,0,1.084h3.965a.542.542,0,1,0,0-1.084Z" transform="translate(-56.665 -199.035)" fill="#3e5d56"/>
      <path id="Trazado_1006128" data-name="Trazado 1006128" d="M63.162,283.95H61.621a.542.542,0,0,0,0,1.084h1.541a.542.542,0,1,0,0-1.084Z" transform="translate(-56.665 -226.114)" fill="#3e5d56"/>
      <path id="Trazado_1006129" data-name="Trazado 1006129" d="M187.483,242.845h-.771v-.771a.542.542,0,0,0-1.084,0v.771h-.771a.542.542,0,0,0,0,1.084h.771v.771a.542.542,0,0,0,1.084,0v-.771h.771a.542.542,0,0,0,0-1.084Z" transform="translate(-170.994 -186.761)" fill="#3e5d56"/>
      <path id="Trazado_1006130" data-name="Trazado 1006130" d="M263.607,241.059h-4.791l-.786-.694a.542.542,0,0,0-.745.026l-.683.693-.705-1.209a.542.542,0,0,0-.952.028l-1.135,2.239-1.106-2.235a.542.542,0,0,0-.944-.049l-.758,1.2h-.973a.542.542,0,0,0,0,1.084H251.3a.542.542,0,0,0,.458-.252l.4-.636,1.157,2.339a.542.542,0,0,0,.483.3h0a.542.542,0,0,0,.483-.3l1.174-2.316.561.962a.542.542,0,0,0,.854.107l.821-.833.555.49a.542.542,0,0,0,.359.136h5a.542.542,0,1,0,0-1.084Z" transform="translate(-231.459 -184.975)" fill="#3e5d56"/>
      <path id="Trazado_1006131" data-name="Trazado 1006131" d="M197.566,113.389a.542.542,0,0,0-.745.026l-.683.693-.705-1.209a.542.542,0,0,0-.952.028l-1.135,2.239-1.106-2.235a.542.542,0,0,0-.944-.049l-.758,1.2h-.973a.542.542,0,0,0-.43.212l-.873,1.137-.6-.947a.542.542,0,0,0-.458-.252h-2.349a.542.542,0,0,0,0,1.084h2.051l.857,1.351a.542.542,0,0,0,.434.251h.024a.542.542,0,0,0,.43-.212l1.182-1.54h1a.542.542,0,0,0,.458-.253l.4-.636,1.157,2.339a.542.542,0,0,0,.969,0L195,114.3l.561.962a.542.542,0,0,0,.854.107l.821-.833.555.49a.542.542,0,0,0,.359.136h5a.542.542,0,0,0,0-1.084h-4.791Z" transform="translate(-170.993 -67.174)" fill="#3e5d56"/>
      <circle id="Elipse_13869" data-name="Elipse 13869" cx="0.542" cy="0.542" r="0.542" transform="translate(33.965 62.793)" fill="#3e5d56"/>
    </g>
  </g>
</svg>
