<svg xmlns="http://www.w3.org/2000/svg" width="34.416" height="44.078" viewBox="0 0 34.416 44.078">
  <g id="Grupo_1183293" data-name="Grupo 1183293" transform="translate(-56.114)">
    <path id="Trazado_1009677" data-name="Trazado 1009677" d="M226.478,256.516a2.028,2.028,0,0,0-2.026,2.026v.69a2.716,2.716,0,1,0,5.432,0v-.69a2.028,2.028,0,0,0-2.026-2.026Zm2.115,2.026v.69a1.425,1.425,0,1,1-2.849,0v-.69a.735.735,0,0,1,.735-.735h1.38A.735.735,0,0,1,228.593,258.542Z" transform="translate(-153.846 -234.433)" fill="#773b3d"/>
    <path id="Trazado_1009678" data-name="Trazado 1009678" d="M322.671,256.516a2.028,2.028,0,0,0-2.026,2.026v.69a2.716,2.716,0,0,0,5.432,0v-.69a2.028,2.028,0,0,0-2.026-2.026Zm2.115,2.026v.69a1.425,1.425,0,0,1-2.849,0v-.69a.735.735,0,0,1,.735-.735h1.38A.735.735,0,0,1,324.786,258.542Z" transform="translate(-241.758 -234.433)" fill="#773b3d"/>
    <path id="Trazado_1009679" data-name="Trazado 1009679" d="M130.975,261.949a2.719,2.719,0,0,0,2.716-2.716v-.69a2.028,2.028,0,0,0-2.026-2.026h-1.38a2.028,2.028,0,0,0-2.026,2.026v.69A2.719,2.719,0,0,0,130.975,261.949Zm-1.425-3.406a.735.735,0,0,1,.735-.735h1.38a.735.735,0,0,1,.735.735v.69a1.425,1.425,0,1,1-2.849,0Z" transform="translate(-65.934 -234.434)" fill="#773b3d"/>
    <path id="Trazado_1009680" data-name="Trazado 1009680" d="M82.878,338.235a2.719,2.719,0,0,0,2.716-2.716v-.69a2.028,2.028,0,0,0-2.026-2.026h-.044v-1.262a.731.731,0,0,1,.406-.657l1.123-.562a3.513,3.513,0,0,1,1.563-.369h.805a3.513,3.513,0,0,1,1.563.369l1.123.562a.731.731,0,0,1,.406.657V332.8h-.044a2.028,2.028,0,0,0-2.026,2.026v.69a2.716,2.716,0,0,0,5.432,0v-.69a2.028,2.028,0,0,0-2.026-2.026H91.8v-1.262a.731.731,0,0,1,.406-.657l1.123-.562a3.513,3.513,0,0,1,1.563-.369H95.7a3.513,3.513,0,0,1,1.563.369l1.123.562a.731.731,0,0,1,.406.657V332.8H98.75a2.028,2.028,0,0,0-2.026,2.026v.69a2.716,2.716,0,0,0,5.4.417.646.646,0,0,0-1.276-.2,1.425,1.425,0,0,1-2.833-.22v-.69a.735.735,0,0,1,.735-.735h1.38a.646.646,0,1,0,0-1.291h-.044v-1.262a.731.731,0,0,1,.406-.657l1.123-.562a3.513,3.513,0,0,1,1.563-.369h.805a3.513,3.513,0,0,1,1.563.369l1.123.562a.731.731,0,0,1,.406.657V332.8h-.044a2.028,2.028,0,0,0-2.026,2.026v.69a2.716,2.716,0,0,0,5.432,0v-.69a2.028,2.028,0,0,0-2.026-2.026h-.044v-1.262a2.015,2.015,0,0,0-1.12-1.812l-1.123-.562a4.812,4.812,0,0,0-2.14-.505h-.805a4.811,4.811,0,0,0-2.14.505l-1.123.562a2.041,2.041,0,0,0-.474.328,2.043,2.043,0,0,0-.474-.328l-1.123-.562a4.812,4.812,0,0,0-2.14-.505H94.9a4.811,4.811,0,0,0-2.14.505l-1.123.562a2.041,2.041,0,0,0-.474.328,2.043,2.043,0,0,0-.474-.328l-1.123-.562a4.812,4.812,0,0,0-2.14-.505h-.805a4.811,4.811,0,0,0-2.141.505l-1.123.562a2.015,2.015,0,0,0-1.12,1.812V332.8h-.044a2.028,2.028,0,0,0-2.026,2.026v.69a2.719,2.719,0,0,0,2.716,2.716Zm25.534-4.141a.735.735,0,0,1,.735.734v.69a1.425,1.425,0,0,1-2.849,0v-.69a.735.735,0,0,1,.735-.734Zm-16.563,0a.735.735,0,0,1,.735.734v.69a1.425,1.425,0,0,1-2.849,0v-.69a.735.735,0,0,1,.735-.734Zm-10.4.735a.735.735,0,0,1,.735-.735h1.38a.735.735,0,0,1,.735.735v.69a1.425,1.425,0,0,1-2.849,0Z" transform="translate(-21.978 -300.368)" fill="#773b3d"/>
    <path id="Trazado_1009681" data-name="Trazado 1009681" d="M89.411,449.97l-1.123-.562a4.811,4.811,0,0,0-2.141-.505h-.805a4.811,4.811,0,0,0-2.141.505l-1.123.562a2.044,2.044,0,0,0-.474.328,2.044,2.044,0,0,0-.474-.328l-1.123-.562a4.811,4.811,0,0,0-2.141-.505H77.06a4.81,4.81,0,0,0-2.14.505l-1.123.562a2.042,2.042,0,0,0-.474.328,2.044,2.044,0,0,0-.474-.328l-1.123-.562a4.811,4.811,0,0,0-2.141-.505h-.805a4.811,4.811,0,0,0-2.141.505l-1.123.562a2.045,2.045,0,0,0-.474.328,2.043,2.043,0,0,0-.474-.328l-1.123-.562A4.811,4.811,0,0,0,61.3,448.9H60.5a4.811,4.811,0,0,0-2.141.505l-1.123.562a2.015,2.015,0,0,0-1.12,1.812v1.908a.646.646,0,0,0,1.291,0v-1.907a.731.731,0,0,1,.406-.657l1.123-.562a3.512,3.512,0,0,1,1.563-.369H61.3a3.512,3.512,0,0,1,1.563.369l1.123.562a.731.731,0,0,1,.406.657v1.907a.646.646,0,0,0,1.291,0v-1.907a.731.731,0,0,1,.406-.657l1.123-.562a3.512,3.512,0,0,1,1.563-.369h.805a3.512,3.512,0,0,1,1.563.369l1.123.562a.731.731,0,0,1,.406.657v1.907a.646.646,0,0,0,1.291,0v-1.907a.731.731,0,0,1,.406-.657l1.123-.562a3.512,3.512,0,0,1,1.563-.369h.805a3.512,3.512,0,0,1,1.563.369l1.123.562a.731.731,0,0,1,.406.657v1.907a.646.646,0,0,0,1.291,0v-1.907a.731.731,0,0,1,.406-.657l1.123-.562a3.512,3.512,0,0,1,1.563-.369h.805a3.512,3.512,0,0,1,1.563.369l1.123.562a.731.731,0,0,1,.406.657v1.907a.646.646,0,0,0,1.291,0v-1.907A2.015,2.015,0,0,0,89.411,449.97Z" transform="translate(0 -410.257)" fill="#773b3d"/>
    <path id="Trazado_1009682" data-name="Trazado 1009682" d="M131.665,17.854h4.52l1.67,2.088a1.793,1.793,0,0,0,2.8,0l1.67-2.088h4.52a3.41,3.41,0,0,0,3.406-3.406V3.406A3.41,3.41,0,0,0,146.847,0H131.665a3.41,3.41,0,0,0-3.406,3.406.646.646,0,0,0,1.291,0,2.117,2.117,0,0,1,2.115-2.115h15.182a2.117,2.117,0,0,1,2.115,2.115V14.448a2.117,2.117,0,0,1-2.115,2.115h-4.831a.646.646,0,0,0-.5.242l-1.864,2.33a.5.5,0,0,1-.784,0L137,16.8a.646.646,0,0,0-.5-.242h-4.831a2.117,2.117,0,0,1-2.115-2.115V6.167a.646.646,0,0,0-1.291,0v8.281A3.41,3.41,0,0,0,131.665,17.854Z" transform="translate(-65.934)" fill="#773b3d"/>
    <path id="Trazado_1009683" data-name="Trazado 1009683" d="M176.418,40.579a.646.646,0,0,0,.379.335l2.07.69a.646.646,0,0,0,.408,0l2.07-.69a.646.646,0,0,0,.4-.839L180,35.426h2.563v7.68h-2.115a.646.646,0,1,0,0,1.291h5.521a.646.646,0,1,0,0-1.291h-2.115v-7.68h2.563l-1.743,4.649a.646.646,0,0,0,.4.839l2.07.69a.646.646,0,0,0,.408,0l2.07-.69a.646.646,0,0,0,.4-.839l-1.743-4.649h.449a.646.646,0,1,0,0-1.291h-4.875V32.71a.646.646,0,1,0-1.291,0v1.425h-4.875a.646.646,0,0,0,0,1.291h.449L176.4,40.074a.645.645,0,0,0,.022.5Zm10.934-.268-1.23-.41,1.23-3.281,1.23,3.281Zm-8.281-3.692L180.3,39.9l-1.23.41-1.23-.41Z" transform="translate(-109.889 -29.304)" fill="#773b3d"/>
  </g>
</svg>
