<svg xmlns="http://www.w3.org/2000/svg" width="40" height="42.579" viewBox="0 0 40 42.579">
  <g id="Grupo_1179577" data-name="Grupo 1179577" transform="translate(-15.476)">
    <path id="Trazado_1001351" data-name="Trazado 1001351" d="M271.447,196.791V195.5H270.2v1.291H267.67V195.5h-1.25v1.291h-2.528V195.5h-1.25v1.291h-2.528V195.5h-1.25v1.291h-3.722V214.25h1.25V201.764H273.92v18.774H256.392V218h-1.25v3.788H275.17v-25Zm-15.055,3.723v-2.473h2.472v1.209h1.25v-1.209h2.528v1.209h1.25v-1.209h2.528v1.209h1.25v-1.209H270.2v1.209h1.25v-1.209h2.473v2.473Z" transform="translate(-219.694 -179.208)" fill="#3e5d56"/>
    <path id="Trazado_1001352" data-name="Trazado 1001352" d="M255.142,435.5h1.25v1.25h-1.25Z" transform="translate(-219.694 -399.209)" fill="#3e5d56"/>
    <path id="Trazado_1001353" data-name="Trazado 1001353" d="M290.921,295.2l-2.058,2.058-.808-.808-.884.884,1.692,1.692,2.942-2.942Z" transform="translate(-249.054 -270.597)" fill="#3e5d56"/>
    <path id="Trazado_1001354" data-name="Trazado 1001354" d="M359.975,315.667h8.75v1.25h-8.75Z" transform="translate(-315.791 -289.362)" fill="#3e5d56"/>
    <path id="Trazado_1001355" data-name="Trazado 1001355" d="M359.975,375.667h8.75v1.25h-8.75Z" transform="translate(-315.791 -344.362)" fill="#3e5d56"/>
    <path id="Trazado_1001356" data-name="Trazado 1001356" d="M359.975,435.667h8.75v1.25h-8.75Z" transform="translate(-315.791 -399.362)" fill="#3e5d56"/>
    <path id="Trazado_1001357" data-name="Trazado 1001357" d="M31.7,26.046l-3.507-3.463H20.7l-3.971-4.047V5.3L20.7,1.25H42.675L46.726,5.3v9.741h1.25V4.783L43.193,0H20.172l-4.7,4.786V19.047l4.7,4.786h7.506l5.27,5.2v-5.2h1.236v-1.25H31.7Z" fill="#3e5d56"/>
    <path id="Trazado_1001358" data-name="Trazado 1001358" d="M144.949,33.98l-2.814-2.814H137.18l-3.623,3.623,2.566,2.815,2.648-2.7h1.943l.453.453v1.5l-3.729,3.917v4.069h3.806V42.359l3.7-3.741ZM143.7,38.1l-3.7,3.741V43.6h-1.306v-2.32l3.729-3.917V34.838l-1.186-1.186h-2.986l-2.09,2.133-.871-.956,2.413-2.413h3.919L143.7,34.5V38.1Z" transform="translate(-108.241 -28.569)" fill="#3e5d56"/>
    <path id="Trazado_1001359" data-name="Trazado 1001359" d="M179.808,214.292h3.833V210.5h-3.833Zm1.25-2.542h1.333v1.292h-1.333Z" transform="translate(-150.638 -192.958)" fill="#3e5d56"/>
    <path id="Trazado_1001360" data-name="Trazado 1001360" d="M45.476,75.5h1.25v1.25h-1.25Z" transform="translate(-27.5 -69.208)" fill="#3e5d56"/>
    <path id="Trazado_1001361" data-name="Trazado 1001361" d="M45.476,105.5h1.25v5h-1.25Z" transform="translate(-27.5 -96.708)" fill="#3e5d56"/>
  </g>
</svg>
