<svg xmlns="http://www.w3.org/2000/svg" width="49.285" height="36.222" viewBox="0 0 49.285 36.222">
  <g id="Grupo_1181652" data-name="Grupo 1181652" transform="translate(-1138.347 -2548.889)">
    <g id="Grupo_1178440" data-name="Grupo 1178440" transform="translate(1133.701 2548.989)">
      <path id="Trazado_999038" data-name="Trazado 999038" d="M40.1,7.912a.528.528,0,0,0-.154-.36C37.588,5.191,33.932,3.2,29.083,1.644A48.689,48.689,0,0,0,22.511.007a.526.526,0,0,0-.166,0,48.689,48.689,0,0,0-6.572,1.637C10.924,3.2,7.268,5.191,4.907,7.552a.528.528,0,0,0-.154.36,35.009,35.009,0,0,0,1.983,11.26,29.639,29.639,0,0,0,5.16,9.3,26.19,26.19,0,0,0,10.331,7.508.527.527,0,0,0,.4,0,26.192,26.192,0,0,0,10.331-7.508,29.639,29.639,0,0,0,5.16-9.3A35.005,35.005,0,0,0,40.1,7.912ZM37.11,18.859a28.567,28.567,0,0,1-4.976,8.957,25.117,25.117,0,0,1-9.707,7.108,25.118,25.118,0,0,1-9.707-7.108,28.569,28.569,0,0,1-4.976-8.957A35.182,35.182,0,0,1,5.807,8.147c5.174-5.005,15.582-6.9,16.621-7.084,1.038.179,11.447,2.079,16.62,7.084A35.185,35.185,0,0,1,37.11,18.859Z" transform="translate(0 0)" fill="#3e5d56" stroke="#3e5d56" stroke-width="0.2"/>
      <path id="Trazado_999039" data-name="Trazado 999039" d="M72.757,54.159c-.892.166-8.854,1.727-13.554,5.331a.528.528,0,0,0-.205.457,33.076,33.076,0,0,0,1.793,8.56A23.213,23.213,0,0,0,72.626,82.2a.527.527,0,0,0,.462,0A23.213,23.213,0,0,0,84.923,68.507a33.078,33.078,0,0,0,1.793-8.559.528.528,0,0,0-.206-.458,19.845,19.845,0,0,0-3.154-1.929.528.528,0,1,0-.473.944,19.365,19.365,0,0,1,2.757,1.653,32,32,0,0,1-1.712,7.995A22.217,22.217,0,0,1,72.857,81.136,22.217,22.217,0,0,1,61.786,68.153a32.519,32.519,0,0,1-1.712-8A25.541,25.541,0,0,1,66.7,56.883a44.417,44.417,0,0,1,6.153-1.668A44.281,44.281,0,0,1,81,57.647a.528.528,0,1,0,.4-.975,45.351,45.351,0,0,0-8.453-2.514.53.53,0,0,0-.194,0Z" transform="translate(-50.429 -50.34)" fill="#3e5d56" stroke="#3e5d56" stroke-width="0.2"/>
      <path id="Trazado_999040" data-name="Trazado 999040" d="M166.908,147.057c-.661.029-1.359.053-2.074.073a1.316,1.316,0,0,0-1.281,1.28c-.019.7-.043,1.4-.072,2.074a.256.256,0,0,1-.2.241,10.515,10.515,0,0,1-4.093,0,.256.256,0,0,1-.2-.241c-.029-.675-.053-1.373-.072-2.074a1.316,1.316,0,0,0-1.281-1.28q-.512-.014-1.024-.032a.528.528,0,0,0-.037,1.055q.516.018,1.033.032a.261.261,0,0,1,.254.254c.019.706.044,1.41.073,2.091a1.306,1.306,0,0,0,1.05,1.231,11.564,11.564,0,0,0,4.5,0,1.306,1.306,0,0,0,1.05-1.231c.029-.681.053-1.384.073-2.091a.261.261,0,0,1,.255-.254c.721-.02,1.425-.044,2.091-.073a1.305,1.305,0,0,0,1.231-1.05,11.561,11.561,0,0,0,0-4.5,1.306,1.306,0,0,0-1.231-1.05c-.681-.03-1.385-.054-2.09-.073a.262.262,0,0,1-.255-.255c-.019-.706-.044-1.41-.073-2.091a1.306,1.306,0,0,0-1.05-1.231,11.566,11.566,0,0,0-4.5,0,1.306,1.306,0,0,0-1.05,1.231c-.029.681-.053,1.384-.073,2.091a.262.262,0,0,1-.254.254c-.707.019-1.411.043-2.091.073a1.305,1.305,0,0,0-1.231,1.05,11.549,11.549,0,0,0-.022,4.386.528.528,0,1,0,1.037-.194,10.5,10.5,0,0,1,.02-3.987.256.256,0,0,1,.241-.2c.675-.029,1.373-.054,2.075-.072a1.318,1.318,0,0,0,1.28-1.281c.019-.7.043-1.4.072-2.074a.256.256,0,0,1,.2-.241,10.515,10.515,0,0,1,4.093,0,.256.256,0,0,1,.2.241c.029.675.053,1.373.072,2.074a1.318,1.318,0,0,0,1.281,1.281c.7.018,1.4.043,2.074.072a.256.256,0,0,1,.241.2,10.509,10.509,0,0,1,0,4.092.256.256,0,0,1-.241.2Z" transform="translate(-138.807 -127.956)" fill="#3e5d56" stroke="#3e5d56" stroke-width="0.2"/>
    </g>
    <g id="Grupo_1181651" data-name="Grupo 1181651" transform="translate(829.632 3)">
      <path id="Polígono_11" data-name="Polígono 11" d="M6.5,0,13,5H0Z" transform="translate(358 2558) rotate(90)" fill="#3e5d56"/>
      <rect id="Rectángulo_455983" data-name="Rectángulo 455983" width="6" height="7" transform="translate(349 2561)" fill="#3e5d56"/>
    </g>
  </g>
</svg>
