<svg id="Grupo_1181082" data-name="Grupo 1181082" xmlns="http://www.w3.org/2000/svg" width="84" height="84" viewBox="0 0 84 84">
  <rect id="Rectángulo_455073" data-name="Rectángulo 455073" width="84" height="84" rx="10" fill="#bbded6"/>
  <g id="Grupo_1178445" data-name="Grupo 1178445" transform="translate(14.576 14.576)">
    <g id="Grupo_1178443" data-name="Grupo 1178443" transform="translate(0.803 0.803)">
      <g id="Grupo_1178441" data-name="Grupo 1178441">
        <path id="Trazado_999041" data-name="Trazado 999041" d="M45.261,95.781v2.376l-3.409,3.409,3.409,3.409v2.376a3.224,3.224,0,0,0,3.214,3.214h9.052a3.225,3.225,0,0,0,3.214-3.214V95.781a3.224,3.224,0,0,0-3.214-3.214H48.475A3.224,3.224,0,0,0,45.261,95.781ZM7.5,78.213v11.57A3.225,3.225,0,0,0,10.714,93h9.052a3.224,3.224,0,0,0,3.214-3.214V87.406L26.389,84,22.98,80.589V78.213A3.224,3.224,0,0,0,19.766,75H10.714A3.224,3.224,0,0,0,7.5,78.213Z" transform="translate(-7.5 -67.768)" fill="#9ce3bf" fill-rule="evenodd"/>
        <path id="Trazado_999042" data-name="Trazado 999042" d="M105.458,54.314H71.714V32.728H68.5V59.134a1.612,1.612,0,0,0,1.607,1.607h36.958a1.612,1.612,0,0,0,1.607-1.607V50.3h-3.214ZM71.714,14.731V10.714h33.744V32.3h3.214V9.107A1.612,1.612,0,0,0,107.065,7.5H70.107A1.612,1.612,0,0,0,68.5,9.107v5.624Z" transform="translate(-61.965 -7.5)" fill="#b0c5e0" fill-rule="evenodd"/>
        <path id="Trazado_999043" data-name="Trazado 999043" d="M98.5,81.1h33.744V77.083h-2.518a3.224,3.224,0,0,1-3.214-3.214V71.493L123.1,68.084l3.409-3.409V62.3a3.224,3.224,0,0,1,3.214-3.214h2.518V37.5H98.5v4.017h2.518a3.224,3.224,0,0,1,3.214,3.214v2.376l3.409,3.409-3.409,3.409V56.3a3.224,3.224,0,0,1-3.214,3.214H98.5Zm14.462-19.39h-3.214V56.89h3.214V53.676h4.821V56.89H121V61.71h-3.214v3.214h-4.821Z" transform="translate(-88.752 -34.286)" fill="#a4d7f5" fill-rule="evenodd"/>
        <path id="Trazado_999044" data-name="Trazado 999044" d="M206.714,199.748h4.821v-3.214h3.214v-4.821h-3.214V188.5h-4.821v3.214H203.5v4.821h3.214Z" transform="translate(-182.503 -169.11)" fill="#d15573" fill-rule="evenodd"/>
        <path id="Trazado_999045" data-name="Trazado 999045" d="M7.5,78.213v11.57A3.225,3.225,0,0,0,10.714,93h2.41A3.225,3.225,0,0,1,9.91,89.782V78.213A3.224,3.224,0,0,1,13.124,75h-2.41A3.224,3.224,0,0,0,7.5,78.213Z" transform="translate(-7.5 -67.768)" fill="#52cd8d" fill-rule="evenodd"/>
        <path id="Trazado_999046" data-name="Trazado 999046" d="M331.586,242.214v2.376L328.177,248l3.409,3.409v2.376A3.224,3.224,0,0,0,334.8,257h2.41A3.224,3.224,0,0,1,334,253.784V250.6L331.391,248,334,245.393v-3.179A3.224,3.224,0,0,1,337.21,239H334.8A3.224,3.224,0,0,0,331.586,242.214Z" transform="translate(-293.824 -214.2)" fill="#52cd8d" fill-rule="evenodd"/>
        <path id="Trazado_999047" data-name="Trazado 999047" d="M70.91,32.728H68.5V59.134a1.612,1.612,0,0,0,1.607,1.607h2.41a1.612,1.612,0,0,1-1.607-1.607ZM72.517,7.5h-2.41A1.612,1.612,0,0,0,68.5,9.107v5.624h2.41V9.107A1.612,1.612,0,0,1,72.517,7.5Z" transform="translate(-61.965 -7.5)" fill="#7094c6" fill-rule="evenodd"/>
        <path id="Trazado_999048" data-name="Trazado 999048" d="M132.244,79.492v-2.41h-2.518a3.224,3.224,0,0,1-3.214-3.214V71.492L123.1,68.083l3.409-3.409V62.3a3.224,3.224,0,0,1,3.214-3.214h2.518v-2.41h-2.518A5.635,5.635,0,0,0,124.1,62.3v1.378L119.7,68.083l4.407,4.407v1.378a5.635,5.635,0,0,0,5.624,5.624ZM98.5,81.1h2.41V61.924a5.63,5.63,0,0,0,5.732-5.624V54.922l4.407-4.407-4.407-4.407V44.73a5.63,5.63,0,0,0-5.732-5.624V37.5H98.5v4.017h2.518a3.224,3.224,0,0,1,3.214,3.214v2.376l3.409,3.409-3.409,3.409V56.3a3.224,3.224,0,0,1-3.214,3.214H98.5Z" transform="translate(-88.752 -34.285)" fill="#6e91ef" fill-rule="evenodd"/>
      </g>
      <g id="Grupo_1178442" data-name="Grupo 1178442" transform="translate(39.476 5.624)">
        <path id="Trazado_999049" data-name="Trazado 999049" d="M377.607,64.82H376V63.213h1.607Zm0-3.214H376V60h1.607Z" transform="translate(-376 -59.999)" fill="#fff"/>
      </g>
    </g>
    <g id="Grupo_1178444" data-name="Grupo 1178444">
      <path id="Trazado_999050" data-name="Trazado 999050" d="M368.5,497h1.607v1.607H368.5Z" transform="translate(-329.024 -443.759)"/>
      <path id="Trazado_999051" data-name="Trazado 999051" d="M400.442,284.058l-3.048,8,1.5.572.728-1.911h3.013l.721,1.91,1.5-.567-3.022-8.008Zm-.207,5.058.9-2.366.893,2.366Z" transform="translate(-354.823 -253.627)"/>
      <path id="Trazado_999052" data-name="Trazado 999052" d="M50.831,24.8H48.313V2.41A2.413,2.413,0,0,0,45.9,0H8.945a2.413,2.413,0,0,0-2.41,2.41V7.231H4.017A4.022,4.022,0,0,0,0,11.248v4.981H1.607V11.248a2.413,2.413,0,0,1,2.41-2.41H13.07a2.413,2.413,0,0,1,2.41,2.41v2.709l3.076,3.076L15.48,20.109v2.709a2.413,2.413,0,0,1-2.41,2.41H4.017a2.413,2.413,0,0,1-2.41-2.41V17.836H0v4.981a4.022,4.022,0,0,0,4.017,4.017H6.535v25.6a2.413,2.413,0,0,0,2.41,2.41H37.869V53.241H8.945a.8.8,0,0,1-.8-.8v-25.6H9.748V48.421H45.1V44.4h1.607v8.034a.8.8,0,0,1-.8.8H42.689v1.607H45.9a2.413,2.413,0,0,0,2.41-2.41V44.4h2.518a4.022,4.022,0,0,0,4.017-4.017V28.817A4.022,4.022,0,0,0,50.831,24.8ZM8.142,2.41a.8.8,0,0,1,.8-.8H45.9a.8.8,0,0,1,.8.8V24.8H45.1V3.214H9.748V7.231H8.142Zm35.351,44.4H11.355V26.835H13.07a4.022,4.022,0,0,0,4.017-4.017V20.774l3.742-3.741-3.742-3.742V11.248A4.022,4.022,0,0,0,13.07,7.231H11.355V4.821H43.493V24.8H41.779a4.022,4.022,0,0,0-4.017,4.017V30.86L34.02,34.6l3.742,3.741v2.043A4.022,4.022,0,0,0,41.779,44.4h1.714Zm9.748-6.428a2.413,2.413,0,0,1-2.41,2.41H41.779a2.413,2.413,0,0,1-2.41-2.41V37.677L36.292,34.6l3.076-3.076V28.817a2.413,2.413,0,0,1,2.41-2.41h9.052a2.413,2.413,0,0,1,2.41,2.41Z" transform="translate(0)"/>
      <path id="Trazado_999053" data-name="Trazado 999053" d="M44.556,120.456A4.129,4.129,0,1,0,46.884,128l1.023,1.023,1.136-1.136L48.01,126.85a4.131,4.131,0,0,0-3.454-6.394Zm2.277,5.217L45.78,124.62l-1.136,1.136,1.071,1.071a2.52,2.52,0,1,1,1.118-1.154Z" transform="translate(-36.096 -107.552)"/>
      <path id="Trazado_999054" data-name="Trazado 999054" d="M205.641,181h-6.427v3.214H196v6.428h3.214v3.214h6.427v-3.214h3.214v-6.428h-3.214Zm1.607,4.821v3.214h-3.214v3.214h-3.214v-3.214h-3.214v-3.214h3.214v-3.214h3.214v3.214Z" transform="translate(-175.003 -161.61)"/>
      <path id="Trazado_999055" data-name="Trazado 999055" d="M248.5,467h1.607v1.607H248.5Z" transform="translate(-221.879 -416.972)"/>
    </g>
  </g>
</svg>
