<svg xmlns="http://www.w3.org/2000/svg" width="80" height="80" viewBox="0 0 80 80">
  <g id="Grupo_1180874" data-name="Grupo 1180874" transform="translate(-216 -2416)">
    <rect id="Rectángulo_455073" data-name="Rectángulo 455073" width="80" height="80" rx="10" transform="translate(216 2416)" fill="#bbded6"/>
    <g id="Grupo_1181666" data-name="Grupo 1181666" transform="translate(228.196 2417.199)">
      <g id="Grupo_1181664" data-name="Grupo 1181664" transform="translate(0.815 13.15)">
        <g id="Grupo_1181663" data-name="Grupo 1181663" transform="translate(0 0)">
          <g id="Grupo_1181656" data-name="Grupo 1181656" transform="translate(0 33.837)">
            <g id="Grupo_1181655" data-name="Grupo 1181655" transform="translate(5.175)">
              <g id="Grupo_1181653" data-name="Grupo 1181653" transform="translate(7.924)">
                <path id="Trazado_1006134" data-name="Trazado 1006134" d="M139.262,341.386h-11.15V332.71a1.332,1.332,0,0,1,1.33-1.33,4.369,4.369,0,0,1,4.368,4.369v.185Z" transform="translate(-128.112 -331.38)" fill="#fdb0a0"/>
              </g>
              <g id="Grupo_1181654" data-name="Grupo 1181654">
                <path id="Trazado_1006135" data-name="Trazado 1006135" d="M66.3,341.386H58.384l-3.235-3.235V332.71a1.332,1.332,0,0,1,1.33-1.33,4.369,4.369,0,0,1,4.368,4.369v.185Z" transform="translate(-55.149 -331.38)" fill="#ffcec0"/>
              </g>
            </g>
            <path id="Trazado_1006136" data-name="Trazado 1006136" d="M45.061,341.057a2.668,2.668,0,0,1-2.355-.945,5.661,5.661,0,0,0-4.326-2.01H37.154a6.821,6.821,0,0,1-4.823-2l-3.777-3.777a3.219,3.219,0,0,0-4.552,0,2.2,2.2,0,0,0,0,3.109l4.37,4.37a4.281,4.281,0,0,1,1,1.584H18.651L13.2,335.939v-.186a4.368,4.368,0,0,0-4.368-4.368,1.33,1.33,0,0,0-1.33,1.33V337.2a2.3,2.3,0,0,0,.673,1.625l8.955,8.955a3.633,3.633,0,0,0,2.569,1.064H61.478v-9.769Z" transform="translate(-7.5 -331.384)" fill="#ffdfd0"/>
            <path id="Trazado_1006137" data-name="Trazado 1006137" d="M470.577,402.66v9.325h3.684v-9.769Z" transform="translate(-420.283 -394.523)" fill="#ffcec0"/>
          </g>
          <g id="Grupo_1181662" data-name="Grupo 1181662" transform="translate(7.888)">
            <g id="Grupo_1181657" data-name="Grupo 1181657">
              <path id="Trazado_1006138" data-name="Trazado 1006138" d="M115.112,23.041a10.975,10.975,0,0,0-15.521,0l-.366.366-.366-.366A10.975,10.975,0,0,0,83.339,38.562L98.262,53.485a1.363,1.363,0,0,0,1.927,0l14.923-14.923a10.975,10.975,0,0,0,0-15.521Z" transform="translate(-80.124 -19.826)" fill="#fb3a82"/>
              <path id="Trazado_1006139" data-name="Trazado 1006139" d="M249.593,38.644,234.67,53.567a1.362,1.362,0,0,1-1.927,0l-1.753-1.753,14.256-14.257a10.98,10.98,0,0,0-2.974-17.639,10.974,10.974,0,0,1,7.321,18.726Z" transform="translate(-214.605 -19.908)" fill="#e01058"/>
            </g>
            <g id="Grupo_1181661" data-name="Grupo 1181661" transform="translate(25.425 16.927)">
              <g id="Grupo_1181658" data-name="Grupo 1181658">
                <path id="Trazado_1006140" data-name="Trazado 1006140" d="M330.011,177.014a.539.539,0,0,0-.38-.479,32.992,32.992,0,0,0-14.906,0,.539.539,0,0,0-.38.479c-.392,5.655-.245,12.952,7.654,15.769a.533.533,0,0,0,.357,0C330.257,189.967,330.4,182.669,330.011,177.014Z" transform="translate(-314.228 -175.683)" fill="#27d1b3"/>
              </g>
              <g id="Grupo_1181659" data-name="Grupo 1181659" transform="translate(6.239 0.236)">
                <path id="Trazado_1006141" data-name="Trazado 1006141" d="M373.56,194.72a.524.524,0,0,1-.357,0,13.909,13.909,0,0,1-1.533-.649c6.406-3.256,6.507-10.61,6.143-15.878a.552.552,0,0,0-.149-.336,18.6,18.6,0,0,1,3.171.617.537.537,0,0,1,.379.478C381.607,184.606,381.46,191.9,373.56,194.72Z" transform="translate(-371.67 -177.856)" fill="#20b69f"/>
              </g>
              <path id="Trazado_1006142" data-name="Trazado 1006142" d="M330.253,181H324.7v-5.253c-.717-.043-1.507-.068-2.376-.068s-1.659.026-2.376.068V181h-5.557a17.7,17.7,0,0,0,.751,4.752h4.807v6.022a13.423,13.423,0,0,0,2.2,1,.533.533,0,0,0,.357,0,13.422,13.422,0,0,0,2.2-1v-6.022H329.5a17.693,17.693,0,0,0,.751-4.752Z" transform="translate(-314.37 -175.683)" fill="#e8edf1"/>
              <g id="Grupo_1181660" data-name="Grupo 1181660" transform="translate(6.239 5.321)">
                <path id="Trazado_1006143" data-name="Trazado 1006143" d="M373.56,297.768a13.424,13.424,0,0,0,2.2-1.005v-3.3a10.3,10.3,0,0,1-4.088,3.659,13.869,13.869,0,0,0,1.533.649A.524.524,0,0,0,373.56,297.768Z" transform="translate(-371.67 -285.989)" fill="#c5d3dd"/>
                <path id="Trazado_1006144" data-name="Trazado 1006144" d="M425.379,224.675h-3.432a18.575,18.575,0,0,1-.844,4.752h3.525A17.687,17.687,0,0,0,425.379,224.675Z" transform="translate(-415.734 -224.675)" fill="#c5d3dd"/>
              </g>
            </g>
          </g>
        </g>
      </g>
      <g id="Grupo_1181665" data-name="Grupo 1181665" transform="translate(0 12.337)">
        <path id="Trazado_1006145" data-name="Trazado 1006145" d="M16.6,341.344H13.012a2.8,2.8,0,0,1-1.993-.826l-8.955-8.955a1.473,1.473,0,0,1-.434-1.049v-4.488a.516.516,0,0,1,.516-.516A3.558,3.558,0,0,1,5.7,329.065v.185a.815.815,0,0,0,.239.576l5.453,5.453a.815.815,0,0,0,.576.239h10.1a3.5,3.5,0,0,1,.057.629.815.815,0,1,0,1.629,0,5.062,5.062,0,0,0-1.492-3.6l-4.37-4.37a1.386,1.386,0,0,1,0-1.958,2.4,2.4,0,0,1,3.4,0l3.777,3.777a7.586,7.586,0,0,0,5.4,2.236h1.225a4.837,4.837,0,0,1,3.7,1.721,3.477,3.477,0,0,0,3.075,1.228L54.89,333.2a.815.815,0,0,0-.2-1.617l-16.417,1.98a1.852,1.852,0,0,1-1.635-.661,6.463,6.463,0,0,0-4.949-2.3H30.469a5.967,5.967,0,0,1-4.247-1.759l-3.777-3.777a4.036,4.036,0,0,0-4.882-.635,5.171,5.171,0,0,0-2.318-.547,2.147,2.147,0,0,0-2.145,2.145v3.483l-.6-.6a5.189,5.189,0,0,0-5.18-5.029,2.149,2.149,0,0,0-1.907,1.164,5.158,5.158,0,0,0-3.268-1.164A2.147,2.147,0,0,0,0,326.027v4.488a3.092,3.092,0,0,0,.912,2.2l8.955,8.955a4.419,4.419,0,0,0,3.145,1.3H16.6a.814.814,0,1,0,0-1.629Zm-1.872-15.318a.518.518,0,0,1,.516-.516,3.558,3.558,0,0,1,1.03.153,3.019,3.019,0,0,0,.465,3.661l4.37,4.37c.062.062.121.127.178.193h-3.81l-2.749-2.749v-5.113Zm-7.771-.366a.507.507,0,0,1,.362-.15,3.558,3.558,0,0,1,3.553,3.555v.185a.815.815,0,0,0,.239.576l4.062,4.062H12.3l-4.978-4.978A5.146,5.146,0,0,0,6.8,326.8v-.773a.51.51,0,0,1,.153-.366Z" transform="translate(0 -290.046)"/>
        <path id="Trazado_1006146" data-name="Trazado 1006146" d="M213.622,484.666H179a.815.815,0,1,0,0,1.629h34.626a.815.815,0,1,0,0-1.629Z" transform="translate(-158.829 -433.367)"/>
        <path id="Trazado_1006147" data-name="Trazado 1006147" d="M316.113,99.708a.815.815,0,0,0-.815.815v.685h-.685a.815.815,0,0,0,0,1.629h.685v.685a.815.815,0,0,0,1.629,0v-.685h.685a.815.815,0,0,0,0-1.629h-.685v-.685a.815.815,0,0,0-.815-.815Z" transform="translate(-279.718 -90.219)"/>
        <path id="Trazado_1006148" data-name="Trazado 1006148" d="M82.376,38.716a.815.815,0,1,0,1.152-1.152l-4.035-4.035h4.464a.815.815,0,0,0,.791-.619l1.122-4.543,3.685,11.472a.814.814,0,0,0,.775.565l.062,0a.815.815,0,0,0,.743-.682l2.316-14.355,1.621,7.3a.815.815,0,0,0,.8.638h2.245a21.392,21.392,0,0,0,.766,7.026l-5.906,5.906a.549.549,0,0,1-.775,0l-6.148-6.148A.815.815,0,0,0,84.9,41.237l6.148,6.148a2.18,2.18,0,0,0,3.079,0l5.4-5.4a11.031,11.031,0,0,0,4.495,4.859.812.812,0,0,0,.1.056,14.164,14.164,0,0,0,2.291,1.046,1.351,1.351,0,0,0,.9,0A14.157,14.157,0,0,0,109.6,46.9a.811.811,0,0,0,.1-.056,11.122,11.122,0,0,0,5.048-6.225c.025-.073.048-.147.072-.22l0-.009a24.529,24.529,0,0,0,.684-9.037,1.361,1.361,0,0,0-.954-1.2,19.607,19.607,0,0,0-3.345-.649,11.792,11.792,0,0,0-12.455-17,.815.815,0,0,0,.27,1.607,10.161,10.161,0,0,1,10.411,15.236c-.772-.049-1.628-.079-2.572-.079a27.167,27.167,0,0,0-7.691.888,1.361,1.361,0,0,0-.954,1.2q-.011.159-.021.32H96.521l-2.4-10.812a.815.815,0,0,0-1.6.047l-2.452,15.2L86.543,25.135a.815.815,0,0,0-.775-.565h-.028a.814.814,0,0,0-.763.619L83.32,31.9H77.864l-.59-.59A10.161,10.161,0,0,1,91.643,16.94l.366.366a.815.815,0,0,0,1.152,0l.366-.366a10.17,10.17,0,0,1,2.383-1.772.814.814,0,1,0-.77-1.435,11.782,11.782,0,0,0-2.555,1.851A11.79,11.79,0,0,0,76.122,32.462Zm18.476,2.249h2.816v3.682A9.246,9.246,0,0,1,100.852,40.965Zm9.2,3.683V40.965h2.817A9.246,9.246,0,0,1,110.05,44.647Zm3.939-10.064H110.05V31.02a20.866,20.866,0,0,1,3.842.636C113.957,32.64,114,33.621,113.989,34.583Zm-5.568-3.663V35.4a.815.815,0,0,0,.815.815h4.692a16.777,16.777,0,0,1-.5,3.123h-4.193a.815.815,0,0,0-.815.815v5.541a12.943,12.943,0,0,1-1.561.685,12.944,12.944,0,0,1-1.561-.685V40.15a.815.815,0,0,0-.815-.815h-4.192a16.774,16.774,0,0,1-.5-3.123h4.692a.815.815,0,0,0,.815-.815V30.921c.489-.019,1.008-.029,1.561-.029s1.073.011,1.561.029Zm-8.595.735a20.877,20.877,0,0,1,3.842-.635v3.564H99.73C99.722,33.62,99.761,32.64,99.826,31.655Z" transform="translate(-64.781 -12.337)"/>
      </g>
    </g>
  </g>
</svg>
