<svg xmlns="http://www.w3.org/2000/svg" width="116" height="116" viewBox="0 0 116 116">
  <g id="Grupo_1183476" data-name="Grupo 1183476" transform="translate(-742 -4175)">
    <circle id="Elipse_13830" data-name="Elipse 13830" cx="58" cy="58" r="58" transform="translate(742 4175)" fill="#565097"/>
    <g id="Grupo_1180783" data-name="Grupo 1180783" transform="translate(416.289 533)">
      <circle id="Elipse_13822" data-name="Elipse 13822" cx="45" cy="45" r="45" transform="translate(338.711 3655)" fill="#fff"/>
      <g id="Grupo_1180031" data-name="Grupo 1180031" transform="translate(350.711 3668)">
        <path id="Trazado_1003107" data-name="Trazado 1003107" d="M38,44a4,4,0,0,0,4-4V27a5.3,5.3,0,0,0-3.846-5.1L35,21H29l-3.154.9A5.3,5.3,0,0,0,22,27V40a4,4,0,0,0,4,4Z" fill="#4ab8e4"/>
        <path id="Trazado_1003108" data-name="Trazado 1003108" d="M38.154,21.9,35,21H31.584A5.292,5.292,0,0,0,28,26V39a4,4,0,0,0,4,4h8.62A3.972,3.972,0,0,0,42,40V27A5.3,5.3,0,0,0,38.154,21.9Z" fill="#6ac4e8"/>
        <path id="Trazado_1003109" data-name="Trazado 1003109" d="M24,12.05V7a5,5,0,0,1,5-5h4a3,3,0,0,1,3,3h1a3,3,0,0,1,3,3v4.05Z" fill="#5a5b5d"/>
        <path id="Trazado_1003110" data-name="Trazado 1003110" d="M37,5H36a3,3,0,0,0-3-3H32a5,5,0,0,0-5,5v5.05H40V8A3,3,0,0,0,37,5Z" fill="#77787c"/>
        <path id="Trazado_1003111" data-name="Trazado 1003111" d="M26,12H24.5a2.5,2.5,0,0,0,0,5h1.842" fill="#c89992"/>
        <path id="Trazado_1003112" data-name="Trazado 1003112" d="M38,12h1.5a2.5,2.5,0,1,1,0,5H37.658" fill="#c89992"/>
        <path id="Trazado_1003113" data-name="Trazado 1003113" d="M29,20.2V22a3,3,0,1,0,6,0V20.2Z" fill="#e1b1a9"/>
        <path id="Trazado_1003114" data-name="Trazado 1003114" d="M29,21.31V22a3,3,0,0,0,6,0v-.69a6.867,6.867,0,0,1-6,0Z" fill="#ffe1d4"/>
        <path id="Trazado_1003115" data-name="Trazado 1003115" d="M25,28h2v3H25Z" fill="#2d76a7"/>
        <path id="Trazado_1003116" data-name="Trazado 1003116" d="M37,28h2v3H37Z" fill="#2d76a7"/>
        <path id="Trazado_1003117" data-name="Trazado 1003117" d="M26,31H22v9a4,4,0,0,0,4,4" fill="#ffe1d4"/>
        <path id="Trazado_1003118" data-name="Trazado 1003118" d="M38,58a3.618,3.618,0,0,1,2,3.236V62H24v-.764A3.618,3.618,0,0,1,26,58" fill="#8b5031"/>
        <path id="Trazado_1003119" data-name="Trazado 1003119" d="M26,58a3.614,3.614,0,0,0-1.984,3H39.983A3.61,3.61,0,0,0,38,58Z" fill="#a97e68"/>
        <path id="Trazado_1003120" data-name="Trazado 1003120" d="M38,11v4a6,6,0,0,1-12,0V11h3.394A6.737,6.737,0,0,0,35,8Z" fill="#e1b1a9"/>
        <path id="Trazado_1003121" data-name="Trazado 1003121" d="M29.394,12H26v3a6,6,0,0,0,12,0V12L35,9A6.738,6.738,0,0,1,29.394,12Z" fill="#ffe1d4"/>
        <path id="Trazado_1003122" data-name="Trazado 1003122" d="M38,31h4v9a4,4,0,0,1-4,4" fill="#ffe1d4"/>
        <path id="Trazado_1003123" data-name="Trazado 1003123" d="M26,40H38V58H26Z" fill="#77787c"/>
        <path id="Trazado_1003124" data-name="Trazado 1003124" d="M28,40H38V58H28Z" fill="#999a9e"/>
        <path id="Trazado_1003125" data-name="Trazado 1003125" d="M31,45h2V58H31Z" fill="#5a5b5d"/>
        <path id="Trazado_1003126" data-name="Trazado 1003126" d="M31,58h2v4H31Z" fill="#8b5031"/>
        <g id="Grupo_1180030" data-name="Grupo 1180030">
          <path id="Trazado_1003127" data-name="Trazado 1003127" d="M28.485,14.857,18.723,9H4V7H19a1,1,0,0,1,.515.143l10,6Z" fill="#3f986c"/>
          <path id="Trazado_1003128" data-name="Trazado 1003128" d="M4,3H16V5H4Z" fill="#3f986c"/>
          <path id="Trazado_1003129" data-name="Trazado 1003129" d="M18,43H4V41H17.645L33.37,28.224l1.26,1.552-16,13A1,1,0,0,1,18,43Z" fill="#3f986c"/>
          <path id="Trazado_1003130" data-name="Trazado 1003130" d="M4,37H15v2H4Z" fill="#3f986c"/>
          <path id="Trazado_1003131" data-name="Trazado 1003131" d="M17,59H4V57H16.764l11.789-5.9.894,1.79-12,6A1,1,0,0,1,17,59Z" fill="#3f986c"/>
          <path id="Trazado_1003132" data-name="Trazado 1003132" d="M4,53H15v2H4Z" fill="#3f986c"/>
        </g>
        <path id="Trazado_1003133" data-name="Trazado 1003133" d="M60,37l-5-5H38V62H60Z" fill="#f9d647"/>
        <path id="Trazado_1003134" data-name="Trazado 1003134" d="M40,32V61H60V37l-5-5Z" fill="#ffea78"/>
        <path id="Trazado_1003135" data-name="Trazado 1003135" d="M55,32v5h5" fill="#bf9e29"/>
        <path id="Trazado_1003136" data-name="Trazado 1003136" d="M52,37H50V35H48v2H46v2h2v2h2V39h2Z" fill="#fff"/>
        <path id="Trazado_1003137" data-name="Trazado 1003137" d="M48,45h6v2H48Z" fill="#fff"/>
        <path id="Trazado_1003138" data-name="Trazado 1003138" d="M48,49h9v2H48Z" fill="#fff"/>
        <path id="Trazado_1003139" data-name="Trazado 1003139" d="M48,53h9v2H48Z" fill="#fff"/>
        <path id="Trazado_1003140" data-name="Trazado 1003140" d="M48,57h9v2H48Z" fill="#fff"/>
        <path id="Trazado_1003141" data-name="Trazado 1003141" d="M43,59a1,1,0,0,1-.707-.293l-2-2,1.414-1.414,1.185,1.185L45.2,53.4l1.6,1.2-3,4a1,1,0,0,1-.729.4Z" fill="#3f986c"/>
        <path id="Trazado_1003142" data-name="Trazado 1003142" d="M43,51a1,1,0,0,1-.707-.293l-2-2,1.414-1.414,1.185,1.185L45.2,45.4l1.6,1.2-3,4a1,1,0,0,1-.729.4Z" fill="#3f986c"/>
        <path id="Trazado_1003143" data-name="Trazado 1003143" d="M48,41h2V39h2V37H50V35H48v2H46v2h2Z"/>
        <path id="Trazado_1003144" data-name="Trazado 1003144" d="M48,45h6v2H48Z"/>
        <path id="Trazado_1003145" data-name="Trazado 1003145" d="M48,49h9v2H48Z"/>
        <path id="Trazado_1003146" data-name="Trazado 1003146" d="M48,53h9v2H48Z"/>
        <path id="Trazado_1003147" data-name="Trazado 1003147" d="M48,57h9v2H48Z"/>
        <path id="Trazado_1003148" data-name="Trazado 1003148" d="M42.892,56.478l-1.185-1.185-1.414,1.414,2,2A1,1,0,0,0,43,59h.071a1,1,0,0,0,.729-.4l3-4-1.6-1.2Z"/>
        <path id="Trazado_1003149" data-name="Trazado 1003149" d="M4,3H16V5H4Z"/>
        <path id="Trazado_1003150" data-name="Trazado 1003150" d="M4,37H15v2H4Z"/>
        <path id="Trazado_1003151" data-name="Trazado 1003151" d="M4,59H17a1,1,0,0,0,.447-.1L25,55.118v2.313a4.59,4.59,0,0,0-2,3.805V62a1,1,0,0,0,1,1H60a1,1,0,0,0,1-1V37a1,1,0,0,0-.293-.707l-5-5A1,1,0,0,0,55,31H43V27a6.332,6.332,0,0,0-4.571-6.061l-1.958-.559A7.03,7.03,0,0,0,38.315,18H39.5A3.492,3.492,0,0,0,41,11.351V8a4,4,0,0,0-4-4h-.126A4.009,4.009,0,0,0,33,1H29a6.006,6.006,0,0,0-6,6V9.234L19.515,7.143A1,1,0,0,0,19,7H4V9H18.723l4.089,2.453A3.488,3.488,0,0,0,24.5,18h1.185a7.03,7.03,0,0,0,1.844,2.38l-1.958.559A6.332,6.332,0,0,0,21,27V38.274L17.645,41H4v2H18a1,1,0,0,0,.63-.224l2.449-1.99A5,5,0,0,0,25,44.9v7.983L16.764,57H4Zm22.29,0H31v2H25.01a2.589,2.589,0,0,1,1.28-2ZM33,59h4v2H33Zm6,2V33H54v4a1,1,0,0,0,1,1h4V61ZM56,34.414,57.586,36H56ZM30,21.705a6.927,6.927,0,0,0,4,0V22a2,2,0,1,1-4,0ZM39.5,16h-.58A7.025,7.025,0,0,0,39,15V13h.5a1.5,1.5,0,0,1,0,3ZM25,7a4,4,0,0,1,4-4h4a2,2,0,0,1,2,2,1,1,0,0,0,1,1h1a2,2,0,0,1,2,2v3a1,1,0,0,0-.293-.707l-3-3a1,1,0,0,0-1.539.152A5.724,5.724,0,0,1,29.4,10H26a.987.987,0,0,0-.859.518L25,10.434Zm-.5,9a1.5,1.5,0,0,1,0-3H25v2a7.026,7.026,0,0,0,.08,1ZM27,15V13.966l1.485.891,1.03-1.714L27.61,12H29.4a7.716,7.716,0,0,0,5.693-2.5L37,11.414V15a5,5,0,1,1-10,0Zm-.879,7.862,1.911-.546a3.979,3.979,0,0,0,7.936,0l1.911.546A4.322,4.322,0,0,1,41,27v4H39V28H37V39H27V35.976l7.63-6.2-1.26-1.552L27,33.4V28H25v2H23V27a4.322,4.322,0,0,1,3.121-4.138ZM23,32h2v3.024l-2,1.625Zm0,8v-.774L25,37.6v5.215A3,3,0,0,1,23,40Zm4,1H37V57H33V45H31V57H27V54.118L29.447,52.9l-.894-1.79L27,51.882Z"/>
        <path id="Trazado_1003152" data-name="Trazado 1003152" d="M4,53H15v2H4Z"/>
        <path id="Trazado_1003153" data-name="Trazado 1003153" d="M42.892,48.478l-1.185-1.185-1.414,1.414,2,2A1,1,0,0,0,43,51h.071a1,1,0,0,0,.729-.4l3-4-1.6-1.2Z"/>
      </g>
    </g>
  </g>
</svg>
