<svg xmlns="http://www.w3.org/2000/svg" width="40" height="40" viewBox="0 0 40 40">
  <path id="Trazado_1007739" data-name="Trazado 1007739" d="M48.433,45.308H47.381V43.316a.567.567,0,0,0-.567-.567H45.56V19.13h1.658a.567.567,0,0,0,.567-.567V16a.567.567,0,0,0-.567-.567H45.56V9.567A.567.567,0,0,0,44.993,9H13.007a.567.567,0,0,0-.567.567v5.871H10.781a.567.567,0,0,0-.567.567v2.559a.567.567,0,0,0,.567.567H12.44V42.749H11.186a.567.567,0,0,0-.567.567v1.992H9.567A.567.567,0,0,0,9,45.874v2.559A.567.567,0,0,0,9.567,49H48.433A.567.567,0,0,0,49,48.433V45.874a.567.567,0,0,0-.567-.567ZM46.652,18H34.968a5.828,5.828,0,0,0,0-1.425H46.652ZM13.573,10.134H44.427v5.3H34.72a6.01,6.01,0,0,0-11.44,0H13.573Zm20.3,7.15A4.878,4.878,0,1,1,29,12.406,4.878,4.878,0,0,1,33.878,17.284Zm-22.53-.713H23.032a5.828,5.828,0,0,0,0,1.425H11.348Zm2.225,2.559H23.28a6.01,6.01,0,0,0,11.44,0h9.706V42.749H34.813V25.843a.567.567,0,0,0-.567-.567H23.754a.567.567,0,0,0-.567.567V42.749H13.573ZM33.68,42.749H24.32V26.41H33.68ZM11.753,43.883H46.247v1.425H11.753Zm36.113,3.984H10.134V46.441H47.866ZM30.773,15.511V14.167a.567.567,0,0,0-.567-.567H27.794a.567.567,0,0,0-.567.567v1.344H25.883a.567.567,0,0,0-.567.567v2.413a.567.567,0,0,0,.567.567h1.344V20.4a.567.567,0,0,0,.567.567h2.413a.567.567,0,0,0,.567-.567V19.057h1.344a.567.567,0,0,0,.567-.567V16.078a.567.567,0,0,0-.567-.567Zm.777,2.413H30.206a.567.567,0,0,0-.567.567v1.344H28.36V18.491a.567.567,0,0,0-.567-.567H26.449V16.644h1.344a.567.567,0,0,0,.567-.567V14.733H29.64v1.344a.567.567,0,0,0,.567.567h1.344ZM36.737,36.01H42.5a.567.567,0,0,0,.567-.567v-9.6a.567.567,0,0,0-.567-.567H36.737a.567.567,0,0,0-.567.567v9.6a.567.567,0,0,0,.567.567Zm.567-9.6h4.632v8.466H37.3ZM21.263,25.276H15.5a.567.567,0,0,0-.567.567v9.6a.567.567,0,0,0,.567.567h5.765a.567.567,0,0,0,.567-.567v-9.6a.567.567,0,0,0-.567-.567Zm-.567,9.6H16.064V26.41H20.7Zm11.221-.3a.654.654,0,1,1,.654.654.654.654,0,0,1-.654-.654Z" transform="translate(-9 -9)" fill="#3e5d56" fill-rule="evenodd"/>
</svg>
