<svg xmlns="http://www.w3.org/2000/svg" xmlns:xlink="http://www.w3.org/1999/xlink" width="291.711" height="206.863" viewBox="0 0 291.711 206.863">
  <defs>
    <linearGradient id="linear-gradient" x1="0.549" y1="0.038" x2="0.458" y2="0.889" gradientUnits="objectBoundingBox">
      <stop offset="0" stop-color="#e0f0ff"/>
      <stop offset="1" stop-color="#afd7ff"/>
    </linearGradient>
  </defs>
  <g id="Grupo_1179600" data-name="Grupo 1179600" transform="translate(-1122.674 -326)">
    <rect id="Rectángulo_455013" data-name="Rectángulo 455013" width="291.711" height="206.863" transform="translate(1122.674 326)" fill="#e3f1ee"/>
    <g id="_7774231_3765984" data-name="7774231_3765984" transform="translate(1139.413 300.737)">
      <g id="OBJECTS" transform="translate(35.816 41.021)">
        <g id="Grupo_1183173" data-name="Grupo 1183173">
          <path id="Trazado_1009082" data-name="Trazado 1009082" d="M77.517,273.392s-30.677-6.228-31.407-38.207c-.565-24.738,31.259-31.652,40.97-38.836s11.5-45.74,46.833-50.1c39.224-4.842,55.238,27.775,60.732,38.921,8.039,16.307,31.134,24.164,33.313,41.363,3.339,26.361-27.4,37.81-50.357,41.3" transform="translate(-41.61 -100.009)" fill="#ffd8aa"/>
          <ellipse id="Elipse_13928" data-name="Elipse 13928" cx="90.617" cy="4.054" rx="90.617" ry="4.054" transform="translate(2.94 173.697)" fill="#80b1cf" opacity="0.3"/>
          <g id="Grupo_1183167" data-name="Grupo 1183167" transform="translate(17.218 89.155)">
            <path id="Trazado_1009083" data-name="Trazado 1009083" d="M232.286,324.3H109.834V249.352a4.226,4.226,0,0,1,4.226-4.226h114a4.226,4.226,0,0,1,4.226,4.226Z" transform="translate(-94.72 -245.126)" fill="#882d6d"/>
            <path id="Trazado_1009084" data-name="Trazado 1009084" d="M227.913,426.411H75.233v2.208a7.008,7.008,0,0,0,7.008,7.008H220.905a7.008,7.008,0,0,0,7.008-7.008Z" transform="translate(-75.233 -347.224)" fill="#ab2d6d"/>
            <path id="Trazado_1009085" data-name="Trazado 1009085" d="M231.326,320.945H120.139a2.008,2.008,0,0,1-2.008-2.008V255.724a2.008,2.008,0,0,1,2.008-2.008H231.326a2.009,2.009,0,0,1,2.008,2.008v63.212A2.009,2.009,0,0,1,231.326,320.945Z" transform="translate(-99.393 -249.964)" fill="url(#linear-gradient)"/>
            <path id="Trazado_1009086" data-name="Trazado 1009086" d="M163.805,352.312l64.214,0,1.783-24.637s10.578-3.54,11.714-9.9-92.936-8.358-92.936-8.358S150.079,324,161.5,324Z" transform="translate(-116.542 -281.331)" fill="#6298dc" opacity="0.1"/>
            <rect id="Rectángulo_456225" data-name="Rectángulo 456225" width="152.68" height="2.208" transform="translate(0 79.187)" fill="#c45589"/>
            <path id="Trazado_1009087" data-name="Trazado 1009087" d="M99.15,436.209A1.949,1.949,0,1,1,97.2,434.26,1.948,1.948,0,0,1,99.15,436.209Z" transform="translate(-86.508 -351.645)" fill="#fff"/>
          </g>
          <g id="Grupo_1183168" data-name="Grupo 1183168" transform="translate(12.526 29.096)">
            <path id="Trazado_1009088" data-name="Trazado 1009088" d="M237.675,113.106c5.544-3.777,9.954,2.724,6.835,22.881-3.095,20,2.506,32.044,2.506,32.044H198.43s4.759-28.357,4.406-38.9C202.349,114.559,214.744,99.161,237.675,113.106Z" transform="translate(-139.925 -107.631)" fill="#522e5d"/>
            <path id="Trazado_1009089" data-name="Trazado 1009089" d="M213.509,201.559c-.364-.581,2.125-30.753,2.125-30.753h.851l1.463,35.729,1.821-22.7,1.987,18.636,20.551.248,1.188-27.235,1.316,27.381,2.034-29.456.812-1.772,1.231,33.842Z" transform="translate(-148.397 -143.21)" fill="#492353"/>
            <path id="Trazado_1009090" data-name="Trazado 1009090" d="M86.447,235.387s-3.247-4.667-5.065-5.121-11.078-.338-12.669-1.02-4.435-6.255-4.207-6.937,2.435,1.627,2.435,1.627.372-2.921,1.062-3.133,1.115,2.708,1.115,2.708,1.381-2.124,1.965-1.965.053,2.6.053,2.6,1.434-1.381,1.806-1.115.266,1.327.266,1.327a18.48,18.48,0,0,1,2.407-.318c-1.221-1.859-1.327-3.877-.637-4.089s4.777,2.738,4.777,2.738,4.1-.318,5.727.621c1.794,1.035,8.557,6.163,8.557,6.163" transform="translate(-64.493 -170.883)" fill="#ffbbac"/>
            <path id="Trazado_1009091" data-name="Trazado 1009091" d="M222.043,264.156c-.686,4.8-5.486,8.693-7.775,7.6s-17.228-7.5-17.228-7.5l2.586,39.348H145.413l1.669-42.078s-10.095,12.008-16.271,10.684c-3.119-.668-9.754-10.029-15.555-19.137a128.72,128.72,0,0,1-9.216-17.352l9.563-6.375,17.192,17.184s10.256-18.023,14.222-20.578c7.089-4.573,45.17-3.569,50.093.459C202.142,230.531,222.733,259.356,222.043,264.156Z" transform="translate(-87.892 -172.571)" fill="#6bc6fa"/>
            <rect id="Rectángulo_456226" data-name="Rectángulo 456226" width="0.656" height="30.908" transform="translate(85.4 100.132)" fill="#6298dc"/>
            <path id="Trazado_1009092" data-name="Trazado 1009092" d="M250.414,198.2,251.253,209l3.29.54L243.6,242.218l-11.167-32.956,3.209-.379.848-10.686Z" transform="translate(-159.076 -158.637)" fill="#ffbbac"/>
            <path id="Trazado_1009093" data-name="Trazado 1009093" d="M229.746,236.137s12.488,3.53,22.913-.159c-1.2,8.635-9.68,25.734-9.68,25.734S232.423,241.936,229.746,236.137Z" transform="translate(-157.562 -179.915)" fill="#f2f4f3"/>
            <path id="Trazado_1009094" data-name="Trazado 1009094" d="M229.746,240.82s12.488,3.53,22.913-.159c-1.2,8.635-9.68,25.734-9.68,25.734S232.423,246.619,229.746,240.82Z" transform="translate(-157.562 -182.552)" fill="#fff"/>
            <path id="Trazado_1009095" data-name="Trazado 1009095" d="M221.8,223.527l-8.247.9,5.883,15.637,3.824-.059-.553,4.286,10.26,12.192Z" transform="translate(-148.444 -172.902)" fill="#9fdafc"/>
            <path id="Trazado_1009096" data-name="Trazado 1009096" d="M268.941,224.171,258,256.846l9.962-10.557-1.915-3.122,3.153-1.487,7.569-16.6Z" transform="translate(-173.474 -173.265)" fill="#9fdafc"/>
            <path id="Trazado_1009097" data-name="Trazado 1009097" d="M315.706,276.962,326.7,295.094,318.76,297.5l-7-9.737Z" transform="translate(-203.749 -202.996)" fill="#6298dc"/>
            <path id="Trazado_1009098" data-name="Trazado 1009098" d="M241.908,255.852l-3.007-.411s-6.776,31.018-13.748,35.567c4.577.729,20.408,2.6,20.408,2.6Z" transform="translate(-154.975 -190.876)" fill="#ffd8aa"/>
            <path id="Trazado_1009099" data-name="Trazado 1009099" d="M276.423,254.865l.491-2.262,15.015,1.672-.555,2.164Z" transform="translate(-183.85 -189.278)" fill="#ffd070"/>
            <path id="Trazado_1009100" data-name="Trazado 1009100" d="M329.3,331.81s-1.994-4.334,0-10.608C339.315,319.963,329.3,331.81,329.3,331.81Z" transform="translate(-213.129 -227.861)" fill="#6298dc"/>
            <path id="Trazado_1009101" data-name="Trazado 1009101" d="M266.854,297.833l-26.921-2.809a1.435,1.435,0,0,1-1.248-1.756l9-38.163a1.435,1.435,0,0,1,1.546-1.1l26.921,2.809a1.435,1.435,0,0,1,1.248,1.756l-9,38.163A1.435,1.435,0,0,1,266.854,297.833Z" transform="translate(-162.574 -190.064)" fill="#522e5d"/>
            <path id="Trazado_1009102" data-name="Trazado 1009102" d="M297.838,308.408c-1.823-.045-12.129-2.675-12.584-1.43-.507,1.391,6.636,3.633,6.636,3.633s-8.251-.673-8.251.673c0,1.326,8.074,1.749,8.074,1.749s-7.939.942-7.939,1.884,8.277,1.07,8.277,1.07-6.945.953-6.676,1.963,11.394,1.373,13.43,1.414c2.329.046,7.4,0,7.4,0s1.656-6.833.95-10.76a57.233,57.233,0,0,0-8.7-2.6Z" transform="translate(-187.914 -219.353)" fill="#ffbbac"/>
            <path id="Trazado_1009103" data-name="Trazado 1009103" d="M288.624,255.441l-.492,2.6,5.115.59.492-2.508" transform="translate(-190.444 -190.876)" fill="#ffd070"/>
            <path id="Trazado_1009104" data-name="Trazado 1009104" d="M294.935,257.326a.944.944,0,1,1-.944-.944A.944.944,0,0,1,294.935,257.326Z" transform="translate(-193.212 -191.406)" fill="#fff"/>
            <path id="Trazado_1009105" data-name="Trazado 1009105" d="M332.4,307.163s1.139,11.239-1.96,16.042c7.747-.038,19.313-4.156,17.984-12.362-1.24-3.351-2.759-5.44-6.557-4.936Z" transform="translate(-214.272 -219.256)" fill="#6bc6fa"/>
            <path id="Trazado_1009106" data-name="Trazado 1009106" d="M251.5,360.274a1.6,1.6,0,1,1-1.6-1.6A1.6,1.6,0,0,1,251.5,360.274Z" transform="translate(-168.016 -249.018)" fill="#fff"/>
            <path id="Trazado_1009107" data-name="Trazado 1009107" d="M251.5,380.1a1.6,1.6,0,1,1-1.6-1.6A1.6,1.6,0,0,1,251.5,380.1Z" transform="translate(-168.016 -260.182)" fill="#fff"/>
            <path id="Trazado_1009108" data-name="Trazado 1009108" d="M161.092,331.978l1.669-42.078s-10.095,12.008-16.271,10.684c-3.119-.668-6.809-5.5-12.61-14.612,5.045,4.486,10.279,10.045,15.02,9.474,9.658-1.165,15.884-22.136,15.884-22.136l2.075,58.668h-5.766Z" transform="translate(-103.571 -200.94)" fill="#6298dc"/>
            <path id="Trazado_1009109" data-name="Trazado 1009109" d="M221.245,162.522s-2.448-4.161-4.528-1.591,1.469,11.749,4.406,7.343" transform="translate(-149.873 -137.177)" fill="#ffbbac"/>
            <path id="Trazado_1009110" data-name="Trazado 1009110" d="M288.275,162.522s2.447-4.161,4.528-1.591-1.469,11.749-4.406,7.343" transform="translate(-190.525 -137.177)" fill="#ffbbac"/>
            <path id="Trazado_1009111" data-name="Trazado 1009111" d="M240.9,198.2l-.639,8.049a16.658,16.658,0,0,0,15.231.587c.01.133-.671-8.636-.671-8.636Z" transform="translate(-163.484 -158.637)" fill="#ffa89a"/>
            <path id="Trazado_1009112" data-name="Trazado 1009112" d="M252.725,139.2s3.972,16.411-.9,25.966c-4.473,8.769-17.721,10.613-23.491,1.162-3.574-5.855-3.167-20.185-3.167-20.185s3.992-4.966,14.333-2.764C251.1,145.846,252.725,139.2,252.725,139.2Z" transform="translate(-154.974 -125.41)" fill="#ffbbac"/>
            <path id="Trazado_1009113" data-name="Trazado 1009113" d="M218.623,162.844a.481.481,0,0,0-.01.239.227.227,0,0,0,.265.166c.1-.018.2-.085.3-.109a.632.632,0,0,1,.622.38,3.173,3.173,0,0,1,.3.879,4.9,4.9,0,0,1,.06,2.832l-.819-.8c-.108-.106-.257-.212-.363-.1a.416.416,0,0,0-.085.2,3.8,3.8,0,0,0,.279,1.841,2.943,2.943,0,0,0,.294.757.864.864,0,0,0,1.454-.067,3.569,3.569,0,0,0,.538-2.039,6.769,6.769,0,0,0-.984-3.756C220.079,162.663,218.959,161.486,218.623,162.844Z" transform="translate(-151.286 -138.373)" fill="#ffa89a"/>
            <path id="Trazado_1009114" data-name="Trazado 1009114" d="M294.194,162.844a.565.565,0,0,1,.008.238.2.2,0,0,1-.226.166c-.089-.018-.171-.085-.259-.109-.2-.054-.4.127-.531.38a3.556,3.556,0,0,0-.258.879,5.705,5.705,0,0,0-.051,2.832l.7-.8c.093-.106.22-.212.31-.1a.455.455,0,0,1,.072.2,4.391,4.391,0,0,1-.238,1.841,3.277,3.277,0,0,1-.251.757c-.309.551-.907.446-1.241-.067a4.041,4.041,0,0,1-.459-2.039,7.672,7.672,0,0,1,.84-3.756C292.95,162.663,293.907,161.485,294.194,162.844Z" transform="translate(-192.492 -138.372)" fill="#ffa89a"/>
            <ellipse id="Elipse_13929" data-name="Elipse 13929" cx="1.189" cy="1.708" rx="1.189" ry="1.708" transform="translate(78.597 25.57)" fill="#472153"/>
            <path id="Trazado_1009115" data-name="Trazado 1009115" d="M269.43,167.877c0,.944-.532,1.708-1.189,1.708s-1.189-.765-1.189-1.708.532-1.708,1.189-1.708S269.43,166.933,269.43,167.877Z" transform="translate(-178.572 -140.599)" fill="#472153"/>
            <path id="Trazado_1009116" data-name="Trazado 1009116" d="M256.809,164.13c-1.51.114-1.517,7.331-.884,7.991a1.689,1.689,0,0,0,2.989-1.159c0-1.464-.915-1.4-.915-1.4S258.425,164.008,256.809,164.13Z" transform="translate(-172.082 -139.45)" fill="#ff9b87"/>
            <path id="Trazado_1009117" data-name="Trazado 1009117" d="M254.2,188.089a4.659,4.659,0,0,1-3.518-1.539.218.218,0,0,1,.345-.268c.075.1,1.873,2.322,5.358.91a.218.218,0,1,1,.164.4A6.24,6.24,0,0,1,254.2,188.089Z" transform="translate(-169.324 -151.879)" fill="#472153"/>
            <path id="Trazado_1009118" data-name="Trazado 1009118" d="M239.4,161a18.02,18.02,0,0,1,5.429-.713C244.219,157.618,239.522,158.214,239.4,161Z" transform="translate(-162.999 -136.318)" fill="#522e5d"/>
            <path id="Trazado_1009119" data-name="Trazado 1009119" d="M269.966,161a18.02,18.02,0,0,0-5.429-.713C265.147,157.618,269.844,158.214,269.966,161Z" transform="translate(-177.156 -136.318)" fill="#522e5d"/>
            <path id="Trazado_1009120" data-name="Trazado 1009120" d="M239.361,177.252a2.425,2.425,0,1,1-2.425-2.425A2.425,2.425,0,0,1,239.361,177.252Z" transform="translate(-160.246 -145.475)" fill="#ff779a"/>
            <circle id="Elipse_13930" data-name="Elipse 13930" cx="2.425" cy="2.425" r="2.425" transform="translate(90.386 29.352)" fill="#ff779a"/>
            <path id="Trazado_1009121" data-name="Trazado 1009121" d="M223.363,148.462s.727,10.963.782,18.8c2.51-4.914,4.088-15.3,2.8-19.465" transform="translate(-153.967 -130.253)" fill="#522e5d"/>
            <path id="Trazado_1009122" data-name="Trazado 1009122" d="M285.306,135.792s-3.377,18.2,4.037,24.984C288.747,135.017,285.306,135.792,285.306,135.792Z" transform="translate(-188.42 -123.489)" fill="#522e5d"/>
            <path id="Trazado_1009123" data-name="Trazado 1009123" d="M260.449,117.857s-11.422-6.488-18.684-2.034A145.513,145.513,0,0,1,260.449,117.857Z" transform="translate(-164.33 -111.365)" fill="#492353"/>
          </g>
          <circle id="Elipse_13931" data-name="Elipse 13931" cx="18.557" cy="18.557" r="18.557" transform="translate(0 43.831) rotate(-45)" fill="#ab2d6d"/>
          <circle id="Elipse_13932" data-name="Elipse 13932" cx="12.637" cy="12.637" r="12.637" transform="translate(53.66)" fill="#ab2d6d"/>
          <circle id="Elipse_13933" data-name="Elipse 13933" cx="21.962" cy="21.962" r="21.962" transform="translate(138.512 19.612)" fill="#ab2d6d"/>
          <path id="Trazado_1009124" data-name="Trazado 1009124" d="M171.392,138.412a2.623,2.623,0,1,1-2.623-2.623A2.623,2.623,0,0,1,171.392,138.412Z" transform="translate(-109.217 -94.393)" fill="#ab2d6d"/>
          <path id="Trazado_1009125" data-name="Trazado 1009125" d="M315.759,59.035a3.05,3.05,0,1,1-3.05-3.05A3.05,3.05,0,0,1,315.759,59.035Z" transform="translate(-190.042 -49.449)" fill="#ab2d6d"/>
          <path id="Trazado_1009126" data-name="Trazado 1009126" d="M424.185,218.54a2.82,2.82,0,1,1-2.82-2.82A2.82,2.82,0,0,1,424.185,218.54Z" transform="translate(-251.366 -139.41)" fill="#ab2d6d"/>
          <g id="Grupo_1183169" data-name="Grupo 1183169" transform="translate(15.476 117.984)">
            <rect id="Rectángulo_456227" data-name="Rectángulo 456227" width="3.315" height="8.906" transform="translate(2.795)" fill="#882d6d"/>
            <rect id="Rectángulo_456228" data-name="Rectángulo 456228" width="3.315" height="8.906" transform="translate(8.906 2.796) rotate(90)" fill="#882d6d"/>
          </g>
          <g id="Grupo_1183170" data-name="Grupo 1183170" transform="translate(129.606 66.382)">
            <rect id="Rectángulo_456229" data-name="Rectángulo 456229" width="3.315" height="8.906" transform="translate(2.796)" fill="#882d6d"/>
            <rect id="Rectángulo_456230" data-name="Rectángulo 456230" width="3.315" height="8.906" transform="translate(8.906 2.796) rotate(90)" fill="#882d6d"/>
          </g>
          <g id="Grupo_1183171" data-name="Grupo 1183171" transform="translate(177.2 95.902)">
            <rect id="Rectángulo_456231" data-name="Rectángulo 456231" width="3.315" height="8.906" transform="translate(2.795)" fill="#882d6d"/>
            <rect id="Rectángulo_456232" data-name="Rectángulo 456232" width="3.315" height="8.906" transform="translate(8.906 2.796) rotate(90)" fill="#882d6d"/>
          </g>
          <path id="Trazado_1009127" data-name="Trazado 1009127" d="M90.636,122.809a6.7,6.7,0,0,0-9.449-.019h0a6.7,6.7,0,0,0-9.449.019h0a6.7,6.7,0,0,0-.019,9.449h0l.019.019h0L78.7,139.24a3.52,3.52,0,0,0,4.977,0l6.981-6.981h0A6.7,6.7,0,0,0,90.636,122.809Z" transform="translate(-54.942 -85.979)" fill="#fff"/>
          <path id="Trazado_1009128" data-name="Trazado 1009128" d="M168.57,66.461a.683.683,0,0,1-.093-.006c-.535-.064-.628-.31-1.272-6.5-.232-2.229-.558-5.357-.849-6.825-.288,1.171-.619,3.4-.857,5.009-.67,4.517-.794,4.99-1.33,5.054-.683.086-.878-.88-1.265-2.8-.09-.443-.2-1.014-.318-1.465-.159.728-.333,1.82-.463,2.635-.514,3.235-.677,3.935-1.235,4-.641.08-.747-.439-1.285-4.531a39.436,39.436,0,0,0-.923-5.375,17.255,17.255,0,0,0-1.376,4.462.437.437,0,0,1-.428.351h-5.431a.437.437,0,0,1,0-.874h5.074c.472-2.255,1.212-4.8,2.161-4.944a.576.576,0,0,1,.435.116c.517.389.791,1.877,1.353,6.149.124.941.265,2.017.4,2.81.139-.7.283-1.6.394-2.3.514-3.235.677-3.935,1.235-4,.682-.086.878.88,1.265,2.8.083.414.19.939.3,1.374.181-.909.4-2.35.578-3.588.792-5.339,1.042-6.3,1.671-6.4a.514.514,0,0,1,.4.1c.488.37.743,2.167,1.367,8.157.163,1.566.352,3.377.52,4.58.161-.839.333-1.939.475-2.848.642-4.108.791-4.635,1.331-4.7.671-.081.837.74,1.279,3.343.09.534.206,1.217.322,1.77.11-.608.226-1.393.328-2.084.612-4.138.978-5.951,1.919-5.951s1.261,1.58,1.723,4.933c.11.8.242,1.753.36,2.215a7.443,7.443,0,0,0,1.152-1.332.437.437,0,0,1,.359-.188h6.413a.437.437,0,1,1,0,.874h-6.187c-.493.684-1.292,1.634-1.923,1.634-.615,0-.722-.777-1.04-3.083a17.9,17.9,0,0,0-.845-4.092,25.173,25.173,0,0,0-1.067,5.119c-.449,3.042-.565,3.685-1.156,3.685-.621,0-.787-.806-1.219-3.353-.1-.563-.219-1.29-.34-1.856-.18.859-.383,2.157-.546,3.2C169.317,65.672,169.149,66.461,168.57,66.461Z" transform="translate(-100.692 -46.98)" fill="#fff"/>
          <g id="Grupo_1183172" data-name="Grupo 1183172" transform="translate(152.201 18.604)">
            <path id="Trazado_1009129" data-name="Trazado 1009129" d="M384.691,128.683a.437.437,0,0,1-.437-.437c0-3.979,3.492-6.532,7.189-9.234,4.376-3.2,8.9-6.507,8.9-12.589,0-5.831-4.261-8.914-8.382-11.9-3.964-2.868-7.708-5.577-7.708-10.479a.437.437,0,0,1,.874,0c0,4.455,3.568,7.037,7.347,9.771,4.3,3.11,8.744,6.326,8.744,12.6,0,6.525-4.919,10.122-9.259,13.294-3.665,2.679-6.83,4.993-6.83,8.529A.438.438,0,0,1,384.691,128.683Z" transform="translate(-384.254 -83.613)" fill="#fff"/>
            <path id="Trazado_1009130" data-name="Trazado 1009130" d="M400.781,128.683a.437.437,0,0,1-.437-.437c0-3.536-3.166-5.85-6.83-8.529-4.34-3.173-9.259-6.769-9.259-13.294,0-6.277,4.445-9.493,8.744-12.6,3.778-2.734,7.347-5.316,7.347-9.771a.437.437,0,1,1,.874,0c0,4.9-3.744,7.611-7.708,10.479-4.121,2.982-8.382,6.065-8.382,11.9,0,6.082,4.525,9.39,8.9,12.589,3.7,2.7,7.189,5.255,7.189,9.234A.438.438,0,0,1,400.781,128.683Z" transform="translate(-384.254 -83.612)" fill="#fff"/>
            <path id="Trazado_1009131" data-name="Trazado 1009131" d="M400.925,180.172h-15.1a.437.437,0,1,1,0-.874h15.1a.437.437,0,0,1,0,.874Z" transform="translate(-384.893 -137.501)" fill="#fff"/>
            <path id="Trazado_1009132" data-name="Trazado 1009132" d="M401.614,172.834H391.288a.437.437,0,0,1,0-.874h10.326a.437.437,0,1,1,0,.874Z" transform="translate(-387.969 -133.369)" fill="#fff"/>
            <path id="Trazado_1009133" data-name="Trazado 1009133" d="M401.771,154.338h-9.238a.437.437,0,1,1,0-.874h9.238a.437.437,0,1,1,0,.874Z" transform="translate(-388.671 -122.952)" fill="#fff"/>
            <path id="Trazado_1009134" data-name="Trazado 1009134" d="M401.089,146.679H387.132a.437.437,0,0,1,0-.874h13.957a.437.437,0,0,1,0,.874Z" transform="translate(-385.629 -118.639)" fill="#fff"/>
            <path id="Trazado_1009135" data-name="Trazado 1009135" d="M400.414,138.312h-15.6a.437.437,0,1,1,0-.874h15.6a.437.437,0,1,1,0,.874Z" transform="translate(-384.324 -113.926)" fill="#fff"/>
            <path id="Trazado_1009136" data-name="Trazado 1009136" d="M400.838,130.795h-15.7a.437.437,0,0,1,0-.874h15.7a.437.437,0,0,1,0,.874Z" transform="translate(-384.508 -109.693)" fill="#fff"/>
            <path id="Trazado_1009137" data-name="Trazado 1009137" d="M401.251,122.89H388.414a.437.437,0,1,1,0-.874h12.837a.437.437,0,1,1,0,.874Z" transform="translate(-386.351 -105.241)" fill="#fff"/>
            <path id="Trazado_1009138" data-name="Trazado 1009138" d="M402,115.56h-7.713a.437.437,0,0,1,0-.874H402a.437.437,0,1,1,0,.874Z" transform="translate(-389.657 -101.113)" fill="#fff"/>
            <path id="Trazado_1009139" data-name="Trazado 1009139" d="M401.771,99.539h-9.238a.437.437,0,1,1,0-.874h9.238a.437.437,0,1,1,0,.874Z" transform="translate(-388.671 -92.09)" fill="#fff"/>
            <path id="Trazado_1009140" data-name="Trazado 1009140" d="M401.089,92.829H387.132a.437.437,0,0,1,0-.874h13.957a.437.437,0,0,1,0,.874Z" transform="translate(-385.629 -88.311)" fill="#fff"/>
          </g>
        </g>
      </g>
    </g>
  </g>
</svg>
