<svg xmlns="http://www.w3.org/2000/svg" width="80" height="80" viewBox="0 0 80 80">
  <g id="Grupo_1180890" data-name="Grupo 1180890" transform="translate(-216 -2416)">
    <rect id="Rectángulo_455073" data-name="Rectángulo 455073" width="80" height="80" rx="10" transform="translate(216 2416)" fill="#bbded6"/>
    <g id="prueba-de-embarazo" transform="translate(218.753 2418.752)">
      <g id="Grupo_1181839" data-name="Grupo 1181839" transform="translate(7.499 7.5)">
        <g id="Grupo_1181838" data-name="Grupo 1181838" transform="translate(0 0)">
          <path id="Trazado_1007154" data-name="Trazado 1007154" d="M197.22,69.41a24.957,24.957,0,0,1-8.975,4.676,10.014,10.014,0,0,0-6.182,5.212,10.013,10.013,0,0,0-.942,3.159,9.616,9.616,0,0,1-3.168,6.008l-6.573,5.823c-5.388-.783-9.184-4.811-9.184-10.076a14.308,14.308,0,0,1,1.7-5.339l2.1-2.369A9.613,9.613,0,0,1,172,73.337a10.02,10.02,0,0,0,5.842-2.857,9.909,9.909,0,0,0,2.529-4.266,24.957,24.957,0,0,1,4.676-8.975C192.083,58.646,196.017,62.813,197.22,69.41Z" transform="translate(-143.678 -51.284)" fill="#fff8e6"/>
          <path id="Trazado_1007155" data-name="Trazado 1007155" d="M365.252,25.626,353.08,13.454a17.518,17.518,0,0,1,8.734-5.6c2.814-.714,5.594-.425,7.527,1.509C373.54,13.562,369.984,21.746,365.252,25.626Z" transform="translate(-311.711 -7.5)" fill="#a4e7ff"/>
          <path id="Trazado_1007156" data-name="Trazado 1007156" d="M135.468,255.862v0a21.427,21.427,0,0,1-10.89-10.89l6.2-7a11.664,11.664,0,0,0,7.487,15.415Z" transform="translate(-110.563 -210.379)" fill="#ffeab7"/>
          <path id="Trazado_1007157" data-name="Trazado 1007157" d="M32.406,307.336,18.452,319.7a6.585,6.585,0,0,1-9.023-.273h0a6.585,6.585,0,0,1-.273-9.023l12.36-13.954Z" transform="translate(-7.5 -261.855)" fill="#ffabcd"/>
        </g>
        <path id="Trazado_1007158" data-name="Trazado 1007158" d="M200.122,230.451h0a3.763,3.763,0,0,0-5.321,0L191.253,234a3.763,3.763,0,0,0,0,5.322h0a3.763,3.763,0,0,0,5.321,0l3.548-3.548A3.763,3.763,0,0,0,200.122,230.451Z" transform="translate(-168.286 -202.791)" fill="#a4e7ff"/>
      </g>
      <g id="Grupo_1181847" data-name="Grupo 1181847" transform="translate(7.499 7.5)">
        <path id="Trazado_1007159" data-name="Trazado 1007159" d="M16.667,47.562,29.813,32.721a9.613,9.613,0,0,1,6.008-3.168A10.02,10.02,0,0,0,41.664,26.7a9.909,9.909,0,0,0,2.529-4.266,24.947,24.947,0,0,1,4.677-8.976C51.538,10.2,56.244,7.5,60.288,7.5A6.627,6.627,0,0,1,65.13,9.365c4.2,4.2.643,12.382-4.088,16.26A24.947,24.947,0,0,1,52.066,30.3a10.014,10.014,0,0,0-6.182,5.212,10.013,10.013,0,0,0-.942,3.159,9.615,9.615,0,0,1-3.168,6.008L18.452,65.34a6.586,6.586,0,0,1-9.3-9.3L13.89,50.7" transform="translate(-7.499 -7.5)" fill="none" stroke="#000" stroke-linecap="round" stroke-linejoin="round" stroke-miterlimit="10" stroke-width="2"/>
        <line id="Línea_3379" data-name="Línea 3379" x2="10.891" y2="10.891" transform="translate(14.016 34.59)" fill="none" stroke="#000" stroke-linecap="round" stroke-linejoin="round" stroke-miterlimit="10" stroke-width="2"/>
        <g id="Grupo_1181841" data-name="Grupo 1181841" transform="translate(21.865 26.558)">
          <path id="Trazado_1007160" data-name="Trazado 1007160" d="M200.122,230.451h0a3.763,3.763,0,0,0-5.321,0L191.253,234a3.763,3.763,0,0,0,0,5.322h0a3.763,3.763,0,0,0,5.321,0l3.548-3.548A3.763,3.763,0,0,0,200.122,230.451Z" transform="translate(-190.151 -229.349)" fill="none" stroke="#000" stroke-linecap="round" stroke-linejoin="round" stroke-miterlimit="10" stroke-width="2"/>
          <g id="Grupo_1181840" data-name="Grupo 1181840" transform="translate(1.545 1.546)">
            <line id="Línea_3380" data-name="Línea 3380" x2="5.321" y2="5.321" transform="translate(0 2.661)" fill="none" stroke="#000" stroke-linecap="round" stroke-linejoin="round" stroke-miterlimit="10" stroke-width="2"/>
            <line id="Línea_3381" data-name="Línea 3381" x2="5.321" y2="5.321" transform="translate(2.661)" fill="none" stroke="#000" stroke-linecap="round" stroke-linejoin="round" stroke-miterlimit="10" stroke-width="2"/>
          </g>
        </g>
        <line id="Línea_3382" data-name="Línea 3382" x1="4.605" y1="4.605" transform="translate(41.37 5.954)" fill="none" stroke="#000" stroke-linecap="round" stroke-linejoin="round" stroke-miterlimit="10" stroke-width="2"/>
        <line id="Línea_3383" data-name="Línea 3383" x1="4.604" y1="4.604" transform="translate(48.938 13.522)" fill="none" stroke="#000" stroke-linecap="round" stroke-linejoin="round" stroke-miterlimit="10" stroke-width="2"/>
        <line id="Línea_3384" data-name="Línea 3384" x2="3.506" y2="3.506" transform="translate(50.086 5.904)" fill="none" stroke="#000" stroke-linecap="round" stroke-linejoin="round" stroke-miterlimit="10" stroke-width="2"/>
      </g>
    </g>
  </g>
</svg>
