<svg id="Grupo_1182077" data-name="Grupo 1182077" xmlns="http://www.w3.org/2000/svg" width="464.609" height="198.791" viewBox="0 0 464.609 198.791">
  <g id="_x35_" transform="translate(346.722 25.777)">
    <path id="Trazado_1007986" data-name="Trazado 1007986" d="M3363.42,1600.27s2.99,8.684,16.228,10.908C3379.647,1611.178,3378.857,1601.222,3363.42,1600.27Z" transform="translate(-3351.835 -1472.509)" fill="#305777"/>
    <path id="Trazado_1007987" data-name="Trazado 1007987" d="M3588.918,487.216s10.627-6.01,18.98,2.084,4.961,18.415,6.615,24.818,9.184,7.184,11.5,16.125-4.95,13.137-11.729,11.659c0,0,2.787,12.463-8.01,13.432s-29.316-1.416-36.245-18.083S3561.559,493.853,3588.918,487.216Z" transform="translate(-3531.247 -483.558)" fill="#5e3628"/>
    <path id="Trazado_1007988" data-name="Trazado 1007988" d="M3363.057,979.19c-4.918-.687-9.913,6.533-10.6,11.451l-6.75,32.1-21.507,40.752a5.794,5.794,0,0,0,9.823,6.095l26.964-37.366a6.6,6.6,0,0,0,1.187-2.932l.078-.564,8.465-39.388A8.99,8.99,0,0,0,3363.057,979.19Z" transform="translate(-3316.46 -921.699)" fill="#f69d85"/>
    <path id="Trazado_1007989" data-name="Trazado 1007989" d="M3325.647,1662.14s-5.483,3.515-7.122,8.637-1.123,7.507.149,9.4,8.688-4.42,9.994-7.751S3330.123,1664.747,3325.647,1662.14Z" transform="translate(-3311.109 -1527.375)" fill="#f69d85"/>
    <path id="Trazado_1007990" data-name="Trazado 1007990" d="M3294.445,1657.531a29.574,29.574,0,0,0-8.777,7.774c-.279.419-.759,1.066-1,1.5-.612.795-1.068,2.069.022,2.695.977.606,1.835-.228,2.362-.992a24.53,24.53,0,0,1,9.425-6.574C3300.2,1660.885,3297.709,1655.433,3294.445,1657.531Z" transform="translate(-3281.433 -1522.865)" fill="#f69d85"/>
    <path id="Trazado_1007991" data-name="Trazado 1007991" d="M3268.44,1725.106a31.319,31.319,0,0,1-6.962,10.048,1.29,1.29,0,0,0,1.621,1.985,31.7,31.7,0,0,0,4.036-3.181,35.269,35.269,0,0,0,5.786-6.906C3274.713,1723.883,3269.533,1721.628,3268.44,1725.106Z" transform="translate(-3261.085 -1581.658)" fill="#f69d85"/>
    <path id="Trazado_1007992" data-name="Trazado 1007992" d="M3287.494,1747.79a33.851,33.851,0,0,1-4.049,7.437c-.108.16-.345.478-.465.629-.656,1.338-3.385,2.644-1.99,4.249,1.277,1.453,4.486-2.466,5.549-3.336a36.965,36.965,0,0,0,5.494-7.184C3293.69,1746.376,3288.482,1744.311,3287.494,1747.79Z" transform="translate(-3278.389 -1601.725)" fill="#f69d85"/>
    <path id="Trazado_1007993" data-name="Trazado 1007993" d="M3313.685,1749.27a25.507,25.507,0,0,1-5.046,11.51,1.287,1.287,0,0,0,1.886,1.729c.627-.557,1.375-1.289,1.942-1.908a30.438,30.438,0,0,0,6.037-10.529C3319.472,1746.567,3313.9,1745.633,3313.685,1749.27Z" transform="translate(-3303.008 -1602.587)" fill="#f69d85"/>
    <path id="Trazado_1007994" data-name="Trazado 1007994" d="M3346.87,1725.036a22.9,22.9,0,0,1-4.585,14.089,1.285,1.285,0,0,0,1.946,1.659,26.873,26.873,0,0,0,2.2-2.424,28.248,28.248,0,0,0,5.253-12.807C3352.608,1721.627,3346.618,1721.005,3346.87,1725.036Z" transform="translate(-3332.858 -1580.72)" fill="#f69d85"/>
    <path id="Trazado_1007995" data-name="Trazado 1007995" d="M3402.626,936.948s3.788,17.544,2.48,31.214c-.882,9.223-3.258,20.162-5.7,26.222s-19.76,28.565-19.76,28.565a24.893,24.893,0,0,0-16.227-10.908s14.063-21.8,15.589-25.228,1.889-19.757,3.964-29.244C3387.021,939.04,3402.626,936.948,3402.626,936.948Z" transform="translate(-3351.83 -884.28)" fill="#3e8edd"/>
    <path id="Trazado_1007996" data-name="Trazado 1007996" d="M3357.042,1805.487a.238.238,0,0,0,.324-.034,22.323,22.323,0,0,0,3.391-5.6.238.238,0,0,0-.444-.175,21.79,21.79,0,0,1-3.308,5.461.238.238,0,0,0,.024.336Z" transform="translate(-3346.095 -1649.211)" fill="#af5945"/>
    <path id="Trazado_1007997" data-name="Trazado 1007997" d="M3321.863,1802.432a.238.238,0,0,0,.315-.023,36.043,36.043,0,0,0,4.27-5.608.238.238,0,1,0-.405-.25,35.474,35.474,0,0,1-4.206,5.525.238.238,0,0,0,0,.337A.15.15,0,0,0,3321.863,1802.432Z" transform="translate(-3314.898 -1646.468)" fill="#af5945"/>
    <path id="Trazado_1007998" data-name="Trazado 1007998" d="M3308.963,1781.674a.239.239,0,0,0,.31-.019,30,30,0,0,0,3.728-4.4.238.238,0,1,0-.4-.256,30.142,30.142,0,0,1-3.659,4.317.238.238,0,0,0,0,.337A.16.16,0,0,0,3308.963,1781.674Z" transform="translate(-3303.459 -1629.131)" fill="#af5945"/>
    <path id="Trazado_1007999" data-name="Trazado 1007999" d="M3355.9,1733.813a.2.2,0,0,1-.188-.127,7.448,7.448,0,0,1-.323-2.783,6.693,6.693,0,0,1-3.612.731.2.2,0,1,1,.041-.4,6.18,6.18,0,0,0,3.683-.88.2.2,0,0,1,.319.186,8.1,8.1,0,0,0,.268,3,.2.2,0,0,1-.113.264A.225.225,0,0,1,3355.9,1733.813Z" transform="translate(-3341.348 -1587.83)" fill="#af5945"/>
    <rect id="Rectángulo_456159" data-name="Rectángulo 456159" width="14.561" height="22.826" transform="translate(50.797 34.63)" fill="#f69d85"/>
    <path id="Trazado_1008000" data-name="Trazado 1008000" d="M3720.008,846.789a20.567,20.567,0,0,1-10.222,1.04V840.4Z" transform="translate(-3658.99 -798.662)" fill="#d1836b"/>
    <path id="Trazado_1008001" data-name="Trazado 1008001" d="M3653.357,598.286h0a15.311,15.311,0,0,1-13.6-16.847l.842-7.9a15.311,15.311,0,0,1,16.847-13.6h0a15.311,15.311,0,0,1,13.6,16.847l-.842,7.9A15.311,15.311,0,0,1,3653.357,598.286Z" transform="translate(-3596.809 -549.869)" fill="#f69d85"/>
    <circle id="Elipse_13916" data-name="Elipse 13916" cx="4.067" cy="4.067" r="4.067" transform="matrix(0.723, -0.691, 0.691, 0.723, 37.477, 28.886)" fill="#f69d85"/>
    <path id="Trazado_1008002" data-name="Trazado 1008002" d="M3590.1,1014.233c-13.449,0-30.673-3.233-25.439-21.7,2.688-9.482,2.132-22.6.547-39.723-1.075-11.623,17.1-27.46,21.867-27.46h.884c13.449,0,22.712,13.82,21.327,27.2-1.785,17.242-9.236,21.119-.725,38.4C3619.907,1013.978,3590.1,1014.233,3590.1,1014.233Z" transform="translate(-3529.445 -873.998)" fill="#f69d85"/>
    <path id="Trazado_1008003" data-name="Trazado 1008003" d="M3834.164,1574.753h-21.2l-.259-3.992-.654-10.071-.24-3.7-.983-15.114-.233-3.591a17.626,17.626,0,0,1,.159-3.624c.342-2.229.616-4.287.966-6.105.508-2.639,1.18-4.77,2.46-6.182,1.451-1.6,3.686-2.277,7.356-1.713a16.728,16.728,0,0,1,14,19.078l-.381,9.761-.393,10.046Z" transform="translate(-3748.356 -1401.739)" fill="#f69d85"/>
    <path id="Trazado_1008004" data-name="Trazado 1008004" d="M3401.551,1573.775a.208.208,0,0,1-.173-.092,26.09,26.09,0,0,0-10.926-9.687,15.258,15.258,0,0,0-5.391-1.423.207.207,0,0,1,0-.415h0a15.327,15.327,0,0,1,5.533,1.449,26.486,26.486,0,0,1,11.125,9.845.207.207,0,0,1-.057.288A.2.2,0,0,1,3401.551,1573.775Z" transform="translate(-3370.843 -1438.712)" fill="#305777"/>
    <path id="Trazado_1008005" data-name="Trazado 1008005" d="M3583.535,1560.906a16.81,16.81,0,0,1-.518,2.938l-3.6,12.914-1.033,3.7-3.924,14.061H3548.5l.769-16.725.876-19.07a17.618,17.618,0,0,1,.558-3.584,16.734,16.734,0,0,1,32.833,5.767Z" transform="translate(-3515.962 -1421.505)" fill="#f69d85"/>
    <path id="Trazado_1008006" data-name="Trazado 1008006" d="M3799.873,705.043c-.121,1.136.251,2.106.83,2.167s1.146-.809,1.267-1.945-.251-2.106-.83-2.167S3799.994,703.907,3799.873,705.043Z" transform="translate(-3738.858 -676.901)" fill="#30313c"/>
    <path id="Trazado_1008007" data-name="Trazado 1008007" d="M3762.517,1560.851h-42.48c-.6-17.055-2.251-39.913-4.111-54.223-.4.163,20.271.631,31.771-1.838.058.03,18.058,24.348,13.915,40.428Z" transform="translate(-3664.43 -1387.838)" fill="#30313c"/>
    <path id="Trazado_1008008" data-name="Trazado 1008008" d="M3514.357,1530.026c-.17,9.271-1,20.141-3.7,29.137a125.43,125.43,0,0,0-4.234,14.112H3466.31c3.055-17.607,10.091-41.917,16.135-54.476,9.136,1.531,21.573,2.642,31.8,1.852C3514.249,1520.652,3514.448,1524.452,3514.357,1530.026Z" transform="translate(-3443.077 -1400.262)" fill="#30313c"/>
    <path id="Trazado_1008009" data-name="Trazado 1008009" d="M3718.672,696.426c-.12,1.136.251,2.106.83,2.167s1.146-.809,1.266-1.945-.251-2.106-.83-2.167S3718.793,695.29,3718.672,696.426Z" transform="translate(-3666.85 -669.259)" fill="#30313c"/>
    <path id="Trazado_1008010" data-name="Trazado 1008010" d="M3828.863,751.4a1.629,1.629,0,1,1-1.7-1.392A1.556,1.556,0,0,1,3828.863,751.4Z" transform="translate(-3761.712 -718.503)" fill="#d1836b"/>
    <path id="Trazado_1008011" data-name="Trazado 1008011" d="M3676.973,741.19a1.628,1.628,0,1,1-1.7-1.392A1.555,1.555,0,0,1,3676.973,741.19Z" transform="translate(-3627.017 -709.447)" fill="#d1836b"/>
    <path id="Trazado_1008012" data-name="Trazado 1008012" d="M3501.012,936.948s-15.4,14.674-19.707,29.45c-1.983,6.8,3.437,14.029,4.622,21.229,1.1,6.671-11.566,51.313-11.566,51.313a265.606,265.606,0,0,0,26.652,3.83c21.176,1.78,48.639-2.132,48.639-2.132-1.412-32.336-10.94-64.9-11.115-76.1-.221-14.192-9.813-23.482-22.954-27.584l-13.023,10.846Z" transform="translate(-3450.216 -884.28)" fill="#3e8edd"/>
    <circle id="Elipse_13917" data-name="Elipse 13917" cx="4.067" cy="4.067" r="4.067" transform="matrix(0.995, -0.096, 0.096, 0.995, 70.044, 27.901)" fill="#f69d85"/>
    <path id="Trazado_1008013" data-name="Trazado 1008013" d="M3632.214,481.528s-3.716-11.888-16.59-9.5-13.9,14.27-7.563,17.874c4.411,2.51,16.382.442,21.2-2.178,0,0,.334,6.288,7.781,7.994S3646.363,483.272,3632.214,481.528Z" transform="translate(-3565.422 -471.714)" fill="#5e3628"/>
    <path id="Trazado_1008014" data-name="Trazado 1008014" d="M3749.995,790.186c.095.657-.942,1.351-2.317,1.549s-2.565-.174-2.66-.831.942-1.351,2.317-1.549S3749.9,789.529,3749.995,790.186Z" transform="translate(-3690.227 -753.349)" fill="#db7777"/>
    <path id="Trazado_1008015" data-name="Trazado 1008015" d="M3737.459,789.069a9.28,9.28,0,0,0,2.44-1.113.238.238,0,0,0-.257-.4,8.644,8.644,0,0,1-7.134,1.025.238.238,0,0,0-.165.447A8.78,8.78,0,0,0,3737.459,789.069Z" transform="translate(-3678.855 -751.766)" fill="#af5945"/>
    <path id="Trazado_1008016" data-name="Trazado 1008016" d="M3914.4,731.113a.238.238,0,0,0,.172-.22c.045-1.2.758-1.369,1.447-1.535a1.461,1.461,0,0,0,.995-.513.966.966,0,0,0,.063-.76,2.889,2.889,0,0,0-2.543-1.943.238.238,0,0,0-.039.475c.072.006,1.765.166,2.12,1.584a.541.541,0,0,1-.008.4c-.091.15-.386.221-.7.3a1.933,1.933,0,0,0-1.812,1.981.238.238,0,0,0,.229.247A.231.231,0,0,0,3914.4,731.113Z" transform="translate(-3840.165 -697.338)" fill="#af5945"/>
    <path id="Trazado_1008017" data-name="Trazado 1008017" d="M3619.423,710.536a.238.238,0,0,0,.172-.226,1.934,1.934,0,0,0-1.708-2.071c-.308-.091-.6-.178-.682-.332a.541.541,0,0,1,.012-.4c.429-1.4,2.181-1.472,2.2-1.473a.238.238,0,0,0-.014-.476,2.889,2.889,0,0,0-2.64,1.81.966.966,0,0,0,.023.762,1.461,1.461,0,0,0,.967.563c.68.2,1.383.409,1.366,1.608a.238.238,0,0,0,.235.242A.235.235,0,0,0,3619.423,710.536Z" transform="translate(-3576.438 -679.088)" fill="#af5945"/>
    <path id="Trazado_1008018" data-name="Trazado 1008018" d="M3914.442,776.146a2.118,2.118,0,1,0-1.447,2.623A2.1,2.1,0,0,0,3914.442,776.146Zm-1.579,2.166a1.641,1.641,0,1,1,1.122-2.034A1.645,1.645,0,0,1,3912.863,778.312Z" transform="translate(-3836.793 -740.324)" fill="#efbb6a"/>
    <path id="Trazado_1008019" data-name="Trazado 1008019" d="M3876.887,1632.147a10.016,10.016,0,0,1-9.988-9.543l-.567-12.295a.208.208,0,0,1,.2-.217l19.573-.9a.208.208,0,0,1,.217.2l.567,12.295a10,10,0,0,1-9.533,10.454h0C3877.2,1632.143,3877.042,1632.147,3876.887,1632.147Zm-10.131-21.65.558,12.087a9.588,9.588,0,0,0,10.021,9.137h0a9.589,9.589,0,0,0,9.137-10.021l-.558-12.087Z" transform="translate(-3797.813 -1480.419)" fill="#305777"/>
    <path id="Trazado_1008020" data-name="Trazado 1008020" d="M3604.526,748.666a2.145,2.145,0,0,0-.075-.4,2.121,2.121,0,0,0-2.623-1.447c-.042.012-.083.025-.122.04a2.118,2.118,0,1,0,2.82,1.8Zm-1.654,1.771a1.642,1.642,0,1,1-.911-3.155.364.364,0,0,1,.048-.011,1.642,1.642,0,0,1,1.985,1.133,1.059,1.059,0,0,1,.036.159h0A1.641,1.641,0,0,1,3602.871,750.437Z" transform="translate(-3561.896 -715.605)" fill="#efbb6a"/>
    <path id="Trazado_1008021" data-name="Trazado 1008021" d="M3796.65,686.306a.4.4,0,0,0,.167-.671,5.9,5.9,0,0,0-4.525-1.518.4.4,0,1,0,.1.793,5.14,5.14,0,0,1,3.867,1.3A.4.4,0,0,0,3796.65,686.306Z" transform="translate(-3731.846 -660.035)" fill="#af5945"/>
    <path id="Trazado_1008022" data-name="Trazado 1008022" d="M3717.08,678.787a.4.4,0,0,0,.058-.746,4.676,4.676,0,0,0-4.215.386.4.4,0,0,0,.415.684,3.874,3.874,0,0,1,3.465-.344A.4.4,0,0,0,3717.08,678.787Z" transform="translate(-3661.601 -654.392)" fill="#af5945"/>
    <path id="Trazado_1008023" data-name="Trazado 1008023" d="M3751.112,720.5a.238.238,0,0,0,0-.458c-.556-.157-1.682-.634-1.616-1.11a45.085,45.085,0,0,1,1.673-4.684.238.238,0,1,0-.442-.178,47.276,47.276,0,0,0-1.7,4.8c-.141,1.014,1.744,1.574,1.959,1.634A.236.236,0,0,0,3751.112,720.5Z" transform="translate(-3693.777 -686.497)" fill="#af5945"/>
    <path id="Trazado_1008024" data-name="Trazado 1008024" d="M3515.4,1154.77a.214.214,0,0,1-.055-.007.207.207,0,0,1-.145-.255c.073-.267,7.328-26.8,6.73-33.728a17.406,17.406,0,0,0-2.592-7.361c-1.432-2.6-2.784-5.059-2.411-9.23.517-5.781,8.661-16.572,9.007-17.028a.207.207,0,0,1,.33.251c-.084.111-8.417,11.152-8.925,16.814-.362,4.044.961,6.448,2.361,8.993a17.745,17.745,0,0,1,2.643,7.525c.6,7-6.443,32.779-6.743,33.873A.209.209,0,0,1,3515.4,1154.77Z" transform="translate(-3486.429 -1017.416)" fill="#305777"/>
    <path id="Trazado_1008025" data-name="Trazado 1008025" d="M4102.17,1607.58s8.25,4.035,19.191-3.742C4121.361,1603.839,4113.769,1597.351,4102.17,1607.58Z" transform="translate(-4006.953 -1473.875)" fill="#305777"/>
    <path id="Trazado_1008026" data-name="Trazado 1008026" d="M3907.316,1065.267l-7.308-45.5a6.608,6.608,0,0,0-1.231-2.914l-.343-.454-21.831-33.86a8.991,8.991,0,0,0-12.592-1.774c-3.967,2.987-2.4,11.627.585,15.594l17.9,27.491,13.563,44.037a5.794,5.794,0,0,0,11.259-2.625Z" transform="translate(-3793.648 -921.536)" fill="#f69d85"/>
    <path id="Trazado_1008027" data-name="Trazado 1008027" d="M4161.25,1675.759s-1.4,6.361,1.061,11.145,4.508,6.107,6.749,6.551,3.027-9.265,1.6-12.546S4166.257,1674.443,4161.25,1675.759Z" transform="translate(-4058.993 -1539.182)" fill="#f69d85"/>
    <path id="Trazado_1008028" data-name="Trazado 1008028" d="M4146.316,1671.192a29.572,29.572,0,0,0-.721,11.7c.1.494.216,1.291.354,1.772.128.995.706,2.219,1.919,1.891,1.12-.261,1.137-1.457.971-2.37a24.535,24.535,0,0,1,2.028-11.311C4152.76,1669.5,4147.145,1667.4,4146.316,1671.192Z" transform="translate(-4045.211 -1533.608)" fill="#f69d85"/>
    <path id="Trazado_1008029" data-name="Trazado 1008029" d="M4171.016,1748.919a31.3,31.3,0,0,1,2.169,12.03,1.29,1.29,0,0,0,2.55.26,31.744,31.744,0,0,0,.609-5.1,35.239,35.239,0,0,0-.783-8.976C4174.592,1743.623,4169.333,1745.686,4171.016,1748.919Z" transform="translate(-4067.712 -1601.122)" fill="#f69d85"/>
    <path id="Trazado_1008030" data-name="Trazado 1008030" d="M4198.025,1753.93a33.859,33.859,0,0,1,2.388,8.124c.036.19.093.582.115.774.481,1.41-.528,4.263,1.593,4.413,1.93.127,1.433-4.914,1.57-6.281a36.918,36.918,0,0,0-1.186-8.966C4201.411,1748.552,4196.266,1750.769,4198.025,1753.93Z" transform="translate(-4091.634 -1605.516)" fill="#f69d85"/>
    <path id="Trazado_1008031" data-name="Trazado 1008031" d="M4209.194,1744.359a25.512,25.512,0,0,1,4.559,11.712,1.287,1.287,0,0,0,2.556-.109c.051-.837.063-1.884.027-2.722a30.43,30.43,0,0,0-3.165-11.717C4211.381,1738.357,4206.781,1741.63,4209.194,1744.359Z" transform="translate(-4101.253 -1596.618)" fill="#f69d85"/>
    <path id="Trazado_1008032" data-name="Trazado 1008032" d="M4212.879,1706.676a22.9,22.9,0,0,1,6.707,13.212,1.285,1.285,0,0,0,2.55-.2,26.958,26.958,0,0,0-.157-3.268,28.245,28.245,0,0,0-5.328-12.776C4214.535,1700.209,4209.854,1704,4212.879,1706.676Z" transform="translate(-4104.251 -1562.966)" fill="#f69d85"/>
    <path id="Trazado_1008033" data-name="Trazado 1008033" d="M3828.882,934.2s14.486-3.556,27.151,11.976c5.854,7.18,13.976,23.628,16.525,29.646s5.365,35.674,5.365,35.674a24.893,24.893,0,0,0-19.191,3.742s-5.445-25.365-6.786-28.869-12.619-15.319-17.852-23.5C3823.874,946.891,3828.882,934.2,3828.882,934.2Z" transform="translate(-3763.515 -881.532)" fill="#3e8edd"/>
    <path id="Trazado_1008034" data-name="Trazado 1008034" d="M4261.959,1782.144a.239.239,0,0,0,.206-.253,22.34,22.34,0,0,0-1.555-6.357.238.238,0,1,0-.437.189,21.844,21.844,0,0,1,1.516,6.2.238.238,0,0,0,.255.221Z" transform="translate(-4147.052 -1627.804)" fill="#af5945"/>
    <path id="Trazado_1008035" data-name="Trazado 1008035" d="M4239.829,1799.919a.237.237,0,0,0,.206-.239,36,36,0,0,0-.939-6.986.238.238,0,1,0-.463.109,35.485,35.485,0,0,1,.926,6.882.238.238,0,0,0,.241.235Z" transform="translate(-4127.961 -1642.986)" fill="#af5945"/>
    <path id="Trazado_1008036" data-name="Trazado 1008036" d="M4213.006,1797.353a.238.238,0,0,0,.206-.232,29.982,29.982,0,0,0-.47-5.75.238.238,0,1,0-.465.1,30.13,30.13,0,0,1,.46,5.64.238.238,0,0,0,.234.242A.173.173,0,0,0,4213.006,1797.353Z" transform="translate(-4104.589 -1641.81)" fill="#af5945"/>
    <path id="Trazado_1008037" data-name="Trazado 1008037" d="M3680.661,949.277a.209.209,0,0,1-.071-.012.207.207,0,0,1-.133-.156l-2.949-15.554a.207.207,0,0,1,.408-.077l2.884,15.21,20.141-16.622a.207.207,0,1,1,.264.32l-20.412,16.845A.2.2,0,0,1,3680.661,949.277Z" transform="translate(-3630.362 -879.907)" fill="#305777"/>
    <path id="Trazado_1008038" data-name="Trazado 1008038" d="M3917.908,1161.009a.207.207,0,0,1-.2-.16l-6.776-28.827a107.473,107.473,0,0,1-12.941-23.176,83,83,0,0,1-3.6-10.594.207.207,0,0,1,.4-.1,82.5,82.5,0,0,0,3.58,10.544,107.05,107.05,0,0,0,12.913,23.111.2.2,0,0,1,.036.076l6.786,28.869a.207.207,0,0,1-.154.249A.25.25,0,0,1,3917.908,1161.009Z" transform="translate(-3822.692 -1027.096)" fill="#305777"/>
    <path id="Trazado_1008039" data-name="Trazado 1008039" d="M4092,1576.08a.207.207,0,0,1-.115-.38,27.284,27.284,0,0,1,13.713-4.592,21.265,21.265,0,0,1,6.125.47.207.207,0,1,1-.108.4,21.336,21.336,0,0,0-6.014-.455,26.87,26.87,0,0,0-13.487,4.522A.207.207,0,0,1,4092,1576.08Z" transform="translate(-3997.753 -1446.617)" fill="#305777"/>
    <path id="Trazado_1008040" data-name="Trazado 1008040" d="M3754.189,1318.4a27.818,27.818,0,0,1-6.854-.739.207.207,0,0,1,.114-.4c.079.023,8.072,2.232,18.567-1.182a.207.207,0,1,1,.128.395A38.738,38.738,0,0,1,3754.189,1318.4Z" transform="translate(-3692.154 -1220.484)" fill="#305777"/>
    <rect id="Rectángulo_456160" data-name="Rectángulo 456160" width="14.128" height="7.793" transform="matrix(1, -0.028, 0.028, 1, 56.974, 80.112)" fill="#f1f3f2"/>
    <rect id="Rectángulo_456161" data-name="Rectángulo 456161" width="2.436" height="4.886" transform="matrix(1, -0.028, 0.028, 1, 62.748, 77.512)" fill="#f76c59"/>
  </g>
  <g id="_x34_" transform="translate(263.693 12.408)">
    <path id="Trazado_1008041" data-name="Trazado 1008041" d="M2724.063,1601.594a16.86,16.86,0,0,1-.314,2.109l-.987,4.338-5.131,22.54h-26.386l-.138-6.739-.043-2.107-.127-6.2-.208-10.207s0,0,0,0l-.1-4.788c-.007-.207-.009-.414-.007-.62a15.787,15.787,0,0,1,.094-1.627c.043-.405.1-.8.177-1.2.015-.075.029-.149.044-.224.038-.187.08-.374.124-.558a16.175,16.175,0,0,1,1.155-3.243h0q.27-.566.583-1.106h0a16.745,16.745,0,0,1,31.172,5.985q.087.632.123,1.274A16.511,16.511,0,0,1,2724.063,1601.594Z" transform="translate(-2672.173 -1444.198)" fill="#f69d85"/>
    <path id="Trazado_1008042" data-name="Trazado 1008042" d="M2692.646,1721.14c-1.871,8.976-3.34,16.125-6.412,31.569H2644.17c.2-4.113.434-8.376.67-12.371.016-.282.033-.561.049-.839.345-5.807.776-12.415,1.134-17.38Z" transform="translate(-2630.979 -1566.326)" fill="#30313c"/>
    <rect id="Rectángulo_456162" data-name="Rectángulo 456162" width="14.561" height="22.825" transform="translate(49.031 34.674)" fill="#f69d85"/>
    <path id="Trazado_1008043" data-name="Trazado 1008043" d="M2972.609,745.438a23.145,23.145,0,0,1-11.846,2.471v-4.421Z" transform="translate(-2911.732 -699.352)" fill="#d1836b"/>
    <path id="Trazado_1008044" data-name="Trazado 1008044" d="M2874.57,502.366a11.953,11.953,0,0,1-1.325-8.066l4.668.714A21.715,21.715,0,0,0,2874.57,502.366Z" transform="translate(-2833.901 -478.374)" fill="#b74f2a"/>
    <path id="Trazado_1008045" data-name="Trazado 1008045" d="M2896.095,467.5h0a15.311,15.311,0,0,1-14.083-16.447l.613-7.924a15.311,15.311,0,0,1,16.447-14.083h0a15.311,15.311,0,0,1,14.083,16.447l-.613,7.924A15.311,15.311,0,0,1,2896.095,467.5Z" transform="translate(-2841.854 -420.462)" fill="#f69d85"/>
    <path id="Trazado_1008046" data-name="Trazado 1008046" d="M3137.094,586.974a4.067,4.067,0,1,1-3.741-4.369A4.067,4.067,0,0,1,3137.094,586.974Z" transform="translate(-3060.898 -556.672)" fill="#f69d85"/>
    <circle id="Elipse_13918" data-name="Elipse 13918" cx="4.067" cy="4.067" r="4.067" transform="matrix(0.411, -0.912, 0.912, 0.411, 34.973, 30.076)" fill="#f69d85"/>
    <path id="Trazado_1008047" data-name="Trazado 1008047" d="M2831.293,893.639h-.884a24.352,24.352,0,0,1-24.352-24.352V832a24.352,24.352,0,0,1,24.352-24.352h.884c11.23,0,24.352,10.9,24.352,24.352v37.287A24.351,24.351,0,0,1,2831.293,893.639Z" transform="translate(-2774.541 -756.25)" fill="#f69d85"/>
    <path id="Trazado_1008048" data-name="Trazado 1008048" d="M3040.956,573.4c-.088,1.139.312,2.1.892,2.142s1.122-.842,1.21-1.981-.312-2.1-.892-2.142S3041.043,572.258,3040.956,573.4Z" transform="translate(-2982.836 -546.759)" fill="#30313c"/>
    <path id="Trazado_1008049" data-name="Trazado 1008049" d="M2959.535,567.132c-.087,1.139.312,2.1.893,2.143s1.122-.842,1.209-1.981-.312-2.1-.892-2.143S2959.623,565.994,2959.535,567.132Z" transform="translate(-2910.632 -541.203)" fill="#30313c"/>
    <path id="Trazado_1008050" data-name="Trazado 1008050" d="M2812.648,365.75c2.975-5.37,8.554-3.572,12.145-7.139,2.644-2.626,11-6.568,16.69-4.325a11.147,11.147,0,0,1,6.917,8.329,9.217,9.217,0,0,1,5.534,6.906c.951,4.639-2.9,10.127-2.9,10.127a12.765,12.765,0,0,1-6.643-6.655,20.739,20.739,0,0,1-1.64-6.282,38.559,38.559,0,0,0-6.936.247c-7,1.125-7.153,5.775-14.225,7.333C2813.4,376.094,2810.584,369.473,2812.648,365.75Z" transform="translate(-2779.808 -353.621)" fill="#b74f2a"/>
    <path id="Trazado_1008051" data-name="Trazado 1008051" d="M3071.081,618.8a1.629,1.629,0,1,1-1.738-1.342A1.556,1.556,0,0,1,3071.081,618.8Z" transform="translate(-3006.69 -587.587)" fill="#d1836b"/>
    <path id="Trazado_1008052" data-name="Trazado 1008052" d="M2918.961,612.988a1.628,1.628,0,1,1-1.738-1.342A1.556,1.556,0,0,1,2918.961,612.988Z" transform="translate(-2871.792 -582.431)" fill="#d1836b"/>
    <path id="Trazado_1008053" data-name="Trazado 1008053" d="M2863.616,583.611a.238.238,0,0,0,.218-.221,1.933,1.933,0,0,0-1.589-2.164c-.3-.108-.589-.211-.663-.37a.541.541,0,0,1,.035-.4,2.419,2.419,0,0,1,2.278-1.347.236.236,0,0,0,.244-.232.238.238,0,0,0-.231-.244,2.889,2.889,0,0,0-2.737,1.659.966.966,0,0,0-.02.762c.158.339.535.474.934.617.667.239,1.358.486,1.274,1.682a.238.238,0,0,0,.221.254Z" transform="translate(-2823.335 -553.164)" fill="#af5945"/>
    <path id="Trazado_1008054" data-name="Trazado 1008054" d="M3158.573,603.389l.019,0a.238.238,0,0,0,.2-.273c-.19-1.183.475-1.491,1.119-1.789.384-.178.748-.346.875-.7a.966.966,0,0,0-.087-.757,2.892,2.892,0,0,0-2.874-1.408.237.237,0,0,0-.209.264.242.242,0,0,0,.263.21,2.418,2.418,0,0,1,2.389,1.138.54.54,0,0,1,.07.391c-.06.165-.335.292-.627.427a1.934,1.934,0,0,0-1.389,2.3A.238.238,0,0,0,3158.573,603.389Z" transform="translate(-3086.296 -570.732)" fill="#af5945"/>
    <path id="Trazado_1008055" data-name="Trazado 1008055" d="M3090.808,1630.58h-26.385l-.557-27.22-.039-1.925-.018-.9q-.024-.762.023-1.509c.024-.384.062-.764.113-1.141a16.764,16.764,0,0,1,27.855-10.1q.4.363.778.753a16.848,16.848,0,0,1,2.376,3.112,16.66,16.66,0,0,1,1.234,2.546c.06.153.116.306.171.461.129.369.247.744.35,1.123.025.089.049.18.073.271.046.182.091.366.131.55q.119.54.2,1.089c.022.151.043.3.061.453s.037.318.052.478q.033.345.05.693c.009.149.015.3.018.449,0,.022,0,.045,0,.069q.014.671-.027,1.349c-.012.218-.031.437-.053.655-.01.115-.024.231-.037.345-.049.4-.111.8-.19,1.2-.019.105-.041.211-.063.316l-.108.476-.162.713-.4,1.759-.1.438,0,.023-.145.636-.6,2.635-.033.144-.218.959-.058.255-.786,3.449-.488,2.145Z" transform="translate(-3003.104 -1444.198)" fill="#f69d85"/>
    <path id="Trazado_1008056" data-name="Trazado 1008056" d="M3014.618,1718.025c-.071,3.765-.229,7.528-.462,11.319a0,0,0,0,1,0,0c-.262,4.207-.6,8.62-1.055,12.951h-41.974c-.749-10.927-1.478-22.375-2.1-32.626,11.812-.07,27.806-.168,39.721-.237l5.808-.035C3014.679,1712.363,3014.667,1714.807,3014.618,1718.025Z" transform="translate(-2919.063 -1555.915)" fill="#30313c"/>
    <path id="Trazado_1008057" data-name="Trazado 1008057" d="M2717.145,813.788c-3.679-1.8-16.212,3.881-21.688,23.393-6.145,21.894,3.244,41.436-9.411,75.932,0,0,14.776,7.145,44.674,5.443s32.892-3.658,32.892-3.658a277.248,277.248,0,0,1-8.777-42.4c-2.583-22.6,5.919-49.447-23.127-58.7A16.688,16.688,0,0,1,2717.145,813.788Z" transform="translate(-2668.114 -761.414)" fill="#f76c59"/>
    <path id="Trazado_1008058" data-name="Trazado 1008058" d="M2977.609,659.34a8.7,8.7,0,0,0,2.746-.687.238.238,0,0,0-.189-.437,8.577,8.577,0,0,1-6.682-.024.238.238,0,1,0-.212.427A8.866,8.866,0,0,0,2977.609,659.34Z" transform="translate(-2922.708 -623.689)" fill="#af5945"/>
    <path id="Trazado_1008059" data-name="Trazado 1008059" d="M2988.868,592.845a.238.238,0,0,0,.057-.463c-.546-.187-1.645-.725-1.553-1.2a45.111,45.111,0,0,1,1.926-4.586.238.238,0,1,0-.432-.2,47.188,47.188,0,0,0-1.962,4.7c-.2,1,1.656,1.666,1.867,1.739A.233.233,0,0,0,2988.868,592.845Z" transform="translate(-2934.901 -559.924)" fill="#af5945"/>
    <path id="Trazado_1008060" data-name="Trazado 1008060" d="M2926.027,798.687l-4.434,2.135,6.305,9.989,4.827-5.346,3.833,5.648,7.765-9.064-3.735-3.361S2932.959,805.982,2926.027,798.687Z" transform="translate(-2876.996 -748.302)" fill="#f1f3f2"/>
    <path id="Trazado_1008061" data-name="Trazado 1008061" d="M3131.009,956.79q0,2.131-.009,4.226h-33.98c.045-40.366,2.454-98.32,2.871-132.636,4.2.5,14.264,5.722,16.723,14.459,6.841,18.425,13.82,51.327,14.017,73.134C3131,929.531,3131.016,943.219,3131.009,956.79Z" transform="translate(-3032.563 -774.634)" fill="#f1f3f2"/>
    <path id="Trazado_1008062" data-name="Trazado 1008062" d="M3167.876,1701.932a10.015,10.015,0,0,1-10-10V1679.62a.207.207,0,0,1,.207-.207h19.593a.208.208,0,0,1,.208.207v12.308A10.015,10.015,0,0,1,3167.876,1701.932Zm-9.589-22.1v12.1a9.589,9.589,0,1,0,19.178,0v-12.1Z" transform="translate(-3086.527 -1529.323)" fill="#818496"/>
    <path id="Trazado_1008063" data-name="Trazado 1008063" d="M2663.782,817.54c-1.635,42.859-1.844,89.645-1.6,133.864H2630.87c.38-10.228.82-20.528,1.346-30.77C2634.843,881.734,2634.241,832.679,2663.782,817.54Z" transform="translate(-2619.185 -765.021)" fill="#f1f3f2"/>
    <path id="Trazado_1008064" data-name="Trazado 1008064" d="M3335.374,1695.875a24.632,24.632,0,0,1-18.274-1.479S3324.629,1689.515,3335.374,1695.875Z" transform="translate(-3227.729 -1541.023)" fill="#818496"/>
    <path id="Trazado_1008065" data-name="Trazado 1008065" d="M3220.565,969.873l11.7,23.256,1.2,52.125a5.791,5.791,0,0,0,11.552.445l2.449-51.878a6.783,6.783,0,0,0-.412-3.11l-11.194-31.035a8.992,8.992,0,0,0-11.63-5.143C3219.6,956.325,3218.775,965.242,3220.565,969.873Z" transform="translate(-3141.345 -885.967)" fill="#f69d85"/>
    <path id="Trazado_1008066" data-name="Trazado 1008066" d="M3130.264,845.122c2.665,10,1.468,12.294,14.4,36.055,0,0-.57,21.835,1.364,45.32,0,0,7.024-3.176,18.274,1.479,0,0,2.788-30.19,1.242-47-2.255-24.507-17.742-54.3-41.355-54.3Z" transform="translate(-3056.66 -773.124)" fill="#f1f3f2"/>
    <path id="Trazado_1008067" data-name="Trazado 1008067" d="M3351.566,1710.18s-3.889,5.86-3.28,11.636,2.157,7.909,4.24,9.23,6.663-8.149,6.505-12.01S3357.124,1710.81,3351.566,1710.18Z" transform="translate(-3255.327 -1556.607)" fill="#f69d85"/>
    <path id="Trazado_1008068" data-name="Trazado 1008068" d="M3316.088,1716.235a31.939,31.939,0,0,0-5.292,11.5c-.093.536-.286,1.384-.335,1.923-.259,1.052-.156,2.51,1.195,2.653,1.229.174,1.714-1.024,1.9-2.008a26.493,26.493,0,0,1,6.455-10.6C3323.237,1717.046,3318.4,1712.742,3316.088,1716.235Z" transform="translate(-3221.741 -1560.815)" fill="#f69d85"/>
    <path id="Trazado_1008069" data-name="Trazado 1008069" d="M3327.854,1790.5a33.828,33.828,0,0,1-2.509,12.961,1.393,1.393,0,0,0,2.466,1.257,34.3,34.3,0,0,0,2.6-4.9,38.087,38.087,0,0,0,2.714-9.344C3333.523,1786.567,3327.421,1786.592,3327.854,1790.5Z" transform="translate(-3234.938 -1625.225)" fill="#f69d85"/>
    <path id="Trazado_1008070" data-name="Trazado 1008070" d="M3350.735,1805.284a29.583,29.583,0,0,1-.313,8.849c.083,1.771-2.4,4.8-.216,5.8,2.294.765,3.841-5.815,4.5-7.474a31.232,31.232,0,0,0,1.269-7.968C3355.879,1800.438,3349.627,1801.375,3350.735,1805.284Z" transform="translate(-3256.289 -1637.915)" fill="#f69d85"/>
    <path id="Trazado_1008071" data-name="Trazado 1008071" d="M3376.465,1802a21.785,21.785,0,0,1-.19,12.8,1.391,1.391,0,0,0,2.556,1.054,23.454,23.454,0,0,0,2.084-5.325,25.905,25.905,0,0,0,.515-10.558C3380.517,1795.637,3374.076,1798.269,3376.465,1802Z" transform="translate(-3279.905 -1634.24)" fill="#f69d85"/>
    <path id="Trazado_1008072" data-name="Trazado 1008072" d="M3400.09,1757.7a26.2,26.2,0,0,1,1.922,13.194c.2,1.828-2.415,5.315-.294,6.214,2.994.822,4.3-8.6,4.428-10.741a30.976,30.976,0,0,0-1.294-10.938C3403.533,1751.745,3398.059,1754.35,3400.09,1757.7Z" transform="translate(-3300.927 -1595.14)" fill="#f69d85"/>
    <path id="Trazado_1008073" data-name="Trazado 1008073" d="M3354.85,1864.1a16.792,16.792,0,0,0,.287-3.172.257.257,0,1,0-.514.01,24.929,24.929,0,0,1-1.282,7.029.257.257,0,0,0,.487.167A29.46,29.46,0,0,0,3354.85,1864.1Z" transform="translate(-3259.854 -1690.062)" fill="#af5945"/>
    <path id="Trazado_1008074" data-name="Trazado 1008074" d="M3382.2,1879.255a20.935,20.935,0,0,0,.339-2.972.258.258,0,0,0-.515-.013,33.254,33.254,0,0,1-1.046,6.147.254.254,0,0,0,.182.315.257.257,0,0,0,.315-.182C3381.505,1882.455,3381.9,1880.972,3382.2,1879.255Z" transform="translate(-3284.37 -1703.672)" fill="#af5945"/>
    <path id="Trazado_1008075" data-name="Trazado 1008075" d="M3416.979,1873.017v-.008a25.25,25.25,0,0,0,.231-4.88.257.257,0,0,0-.512.045,25.2,25.2,0,0,1-.228,4.76.257.257,0,0,0,.508.082Z" transform="translate(-3315.848 -1696.468)" fill="#af5945"/>
    <path id="Trazado_1008076" data-name="Trazado 1008076" d="M2544.74,1695.875a24.63,24.63,0,0,0,18.274-1.479S2555.483,1689.515,2544.74,1695.875Z" transform="translate(-2542.806 -1541.023)" fill="#818496"/>
    <path id="Trazado_1008077" data-name="Trazado 1008077" d="M2580.99,974.233l-11.791,29.731-1.2,52.125a5.791,5.791,0,0,1-11.552.446l-2.95-51.878a6.789,6.789,0,0,1,.412-3.11l10.312-29.652a8.992,8.992,0,0,1,11.629-5.143C2580.478,968.543,2582.78,969.6,2580.99,974.233Z" transform="translate(-2550.537 -896.802)" fill="#f69d85"/>
    <path id="Trazado_1008078" data-name="Trazado 1008078" d="M2562.234,837.636c-2.665,10-13.008,36.055-13.008,36.055s.57,21.835-1.364,45.32c0,0-7.024-3.176-18.274,1.479,0,0-3.728-34.094-.831-50.107,4.189-23.146,19.488-52.225,43.256-52.147C2572.013,818.237,2564.74,828.238,2562.234,837.636Z" transform="translate(-2527.655 -765.638)" fill="#f1f3f2"/>
    <path id="Trazado_1008079" data-name="Trazado 1008079" d="M2586.981,1710.18s3.889,5.86,3.28,11.636-2.157,7.909-4.24,9.23-6.664-8.149-6.506-12.01S2581.423,1710.81,2586.981,1710.18Z" transform="translate(-2573.641 -1556.607)" fill="#f69d85"/>
    <path id="Trazado_1008080" data-name="Trazado 1008080" d="M2623.042,1716.235a31.938,31.938,0,0,1,5.292,11.5c.094.536.286,1.384.335,1.923.259,1.052.156,2.51-1.2,2.653-1.229.174-1.713-1.024-1.9-2.008a26.493,26.493,0,0,0-6.455-10.6C2615.892,1717.046,2620.729,1712.742,2623.042,1716.235Z" transform="translate(-2607.809 -1560.815)" fill="#f69d85"/>
    <path id="Trazado_1008081" data-name="Trazado 1008081" d="M2633.377,1790.5a33.828,33.828,0,0,0,2.509,12.961,1.393,1.393,0,0,1-2.466,1.257,34.224,34.224,0,0,1-2.6-4.9,38.1,38.1,0,0,1-2.714-9.344C2627.709,1786.567,2633.811,1786.592,2633.377,1790.5Z" transform="translate(-2616.714 -1625.225)" fill="#f69d85"/>
    <path id="Trazado_1008082" data-name="Trazado 1008082" d="M2620.315,1805.284a29.591,29.591,0,0,0,.313,8.849c-.082,1.771,2.4,4.8.216,5.8-2.294.765-3.84-5.815-4.5-7.474a31.222,31.222,0,0,1-1.269-7.968C2615.171,1800.438,2621.423,1801.375,2620.315,1805.284Z" transform="translate(-2605.182 -1637.915)" fill="#f69d85"/>
    <path id="Trazado_1008083" data-name="Trazado 1008083" d="M2601.189,1802a21.787,21.787,0,0,0,.19,12.8,1.391,1.391,0,0,1-2.556,1.054,23.466,23.466,0,0,1-2.084-5.325,25.909,25.909,0,0,1-.514-10.558C2597.137,1795.637,2603.576,1798.269,2601.189,1802Z" transform="translate(-2588.169 -1634.24)" fill="#f69d85"/>
    <path id="Trazado_1008084" data-name="Trazado 1008084" d="M2571.86,1757.7a26.2,26.2,0,0,0-1.923,13.194c-.2,1.828,2.415,5.315.294,6.214-2.994.822-4.3-8.6-4.428-10.741a30.993,30.993,0,0,1,1.294-10.938C2568.417,1751.745,2573.892,1754.35,2571.86,1757.7Z" transform="translate(-2561.444 -1595.14)" fill="#f69d85"/>
    <path id="Trazado_1008085" data-name="Trazado 1008085" d="M2654.207,1864.1a16.772,16.772,0,0,1-.287-3.172.257.257,0,1,1,.514.01,24.933,24.933,0,0,0,1.281,7.029.257.257,0,0,1-.487.167A29.479,29.479,0,0,1,2654.207,1864.1Z" transform="translate(-2639.625 -1690.062)" fill="#af5945"/>
    <path id="Trazado_1008086" data-name="Trazado 1008086" d="M2628.746,1879.255a20.935,20.935,0,0,1-.339-2.972.258.258,0,0,1,.515-.013,33.276,33.276,0,0,0,1.046,6.147.254.254,0,0,1-.182.315.257.257,0,0,1-.315-.182C2629.446,1882.455,2629.049,1880.972,2628.746,1879.255Z" transform="translate(-2617.001 -1703.672)" fill="#af5945"/>
    <path id="Trazado_1008087" data-name="Trazado 1008087" d="M2600.093,1873.017s0-.005,0-.008a25.245,25.245,0,0,1-.23-4.88.257.257,0,0,1,.512.045,25.244,25.244,0,0,0,.227,4.76.257.257,0,0,1-.508.082Z" transform="translate(-2591.645 -1696.468)" fill="#af5945"/>
    <path id="Trazado_1008088" data-name="Trazado 1008088" d="M2943.908,544.158a.4.4,0,0,0,.161-.049,7.154,7.154,0,0,1,4.857-.391.4.4,0,0,0,.228-.766,7.846,7.846,0,0,0-5.473.458.4.4,0,0,0,.227.748Z" transform="translate(-2896.401 -521.253)" fill="#af5945"/>
    <path id="Trazado_1008089" data-name="Trazado 1008089" d="M3031.822,548.151a.4.4,0,0,0,.194-.728,8.494,8.494,0,0,0-5.586-1.287.4.4,0,0,0,.117.791,7.871,7.871,0,0,1,5.017,1.155A.4.4,0,0,0,3031.822,548.151Z" transform="translate(-2969.662 -524.274)" fill="#af5945"/>
    <path id="Trazado_1008090" data-name="Trazado 1008090" d="M3125.507,845.378a.9.9,0,0,1-.884-1.063,43.148,43.148,0,0,0-.054-16.294,29.283,29.283,0,0,0-1.919-6.288.9.9,0,0,1,1.617-.785,30.271,30.271,0,0,1,2.049,6.646,44.946,44.946,0,0,1,.074,17.048A.9.9,0,0,1,3125.507,845.378Z" transform="translate(-3055.212 -767.595)" fill="#30313c"/>
    <circle id="Elipse_13919" data-name="Elipse 13919" cx="2.542" cy="2.542" r="2.542" transform="translate(66.696 76.885) rotate(-45)" fill="#606a97"/>
    <circle id="Elipse_13920" data-name="Elipse 13920" cx="1.642" cy="1.642" r="1.642" transform="translate(45.825 83.242) rotate(-45)" fill="#606a97"/>
    <circle id="Elipse_13921" data-name="Elipse 13921" cx="1.642" cy="1.642" r="1.642" transform="translate(37.447 86.232) rotate(-45)" fill="#606a97"/>
    <path id="Trazado_1008091" data-name="Trazado 1008091" d="M2864.129,822.422a.9.9,0,0,1-.9-.9c-.029-7.409,4.414-10.623,4.6-10.756a.9.9,0,1,1,1.035,1.469c-.155.111-3.865,2.85-3.84,9.279a.9.9,0,0,1-.9.9Z" transform="translate(-2825.241 -758.873)" fill="#30313c"/>
    <path id="Trazado_1008092" data-name="Trazado 1008092" d="M2826.38,923.1a.9.9,0,0,1-.571-1.593,16.286,16.286,0,0,0,2.6-2.7c-5.572-2.693-8.732-7.926-8.987-12.592-.229-4.191,1.933-7.327,5.641-8.185,2.945-.682,5.644.822,7.22,4.022a16.313,16.313,0,0,1,1,10.262,18.844,18.844,0,0,1-2.144,5.659,17.065,17.065,0,0,0,3.3.723.9.9,0,1,1-.212,1.785,18.719,18.719,0,0,1-4.1-.955,18.243,18.243,0,0,1-3.183,3.368A.894.894,0,0,1,2826.38,923.1Zm.092-23.438a4.431,4.431,0,0,0-1,.119c-2.843.658-4.432,3.026-4.251,6.336.227,4.159,3.117,8.835,8.214,11.186,2.9-4.816,3.114-10.654,1.24-14.456C2830.057,901.594,2828.737,899.667,2826.472,899.667Z" transform="translate(-2786.381 -836.259)" fill="#30313c"/>
    <path id="Trazado_1008093" data-name="Trazado 1008093" d="M2702.356,1051.807a.208.208,0,0,1-.207-.2,314.239,314.239,0,0,1,1.365-45.355c2.015-17.643,3.987-24.557,6.074-31.877.578-2.026,1.175-4.12,1.78-6.472a.207.207,0,0,1,.4.1c-.607,2.357-1.205,4.454-1.783,6.482-2.083,7.3-4.05,14.2-6.061,31.81a313.726,313.726,0,0,0-1.363,45.286.207.207,0,0,1-.2.218Z" transform="translate(-2682.147 -898.227)" fill="#818496"/>
    <path id="Trazado_1008094" data-name="Trazado 1008094" d="M3239.036,1037.92h-.006a.207.207,0,0,1-.2-.213,442.878,442.878,0,0,0-1.364-45.3,188.569,188.569,0,0,0-8.383-40.043.207.207,0,0,1,.392-.137,189.049,189.049,0,0,1,8.4,40.143,443.163,443.163,0,0,1,1.365,45.345A.207.207,0,0,1,3239.036,1037.92Z" transform="translate(-3149.664 -884.341)" fill="#818496"/>
    <path id="Trazado_1008095" data-name="Trazado 1008095" d="M2543.114,1665.82a.207.207,0,0,1-.108-.384c3.785-2.309,8.549-2.836,11.879-2.871a36.016,36.016,0,0,1,6.376.479.207.207,0,1,1-.077.408c-.108-.02-10.866-1.991-17.962,2.338A.2.2,0,0,1,2543.114,1665.82Z" transform="translate(-2541.18 -1514.38)" fill="#818496"/>
    <path id="Trazado_1008096" data-name="Trazado 1008096" d="M3334.859,1665.6a.2.2,0,0,1-.1-.028c-7.525-4.347-18.237-1.981-18.344-1.956a.207.207,0,1,1-.092-.4,34.862,34.862,0,0,1,6.408-.68c3.367-.055,8.225.365,12.235,2.681a.207.207,0,0,1-.1.387Z" transform="translate(-3226.894 -1514.349)" fill="#818496"/>
  </g>
  <g id="_x33_" transform="translate(0 5.713)">
    <path id="Trazado_1008097" data-name="Trazado 1008097" d="M1199.461,1177.94s3.109,9.5-2.306,17.884C1197.156,1195.824,1191.65,1187.232,1199.461,1177.94Z" transform="translate(-1082.415 -1077.926)" fill="#dbbfb2"/>
    <path id="Trazado_1008098" data-name="Trazado 1008098" d="M289.063,327.325s-6.143,4.232-10.321,14.964c-3.025,7.769-10.8,20.626-14.033,28.1-13.068,30.205-1.6,45.99,38.614,44.733,19-.594,23.284-15.287,20.165-28.178-3.1-12.819-6.914-25.186-3.772-39.3,0,0-3.108-12.545-10.528-14.878S289.063,327.325,289.063,327.325Z" transform="translate(-252.638 -323.607)" fill="#2a3047"/>
    <rect id="Rectángulo_456163" data-name="Rectángulo 456163" width="22.623" height="14.432" transform="matrix(0.051, -0.999, 0.999, 0.051, 42.057, 54.987)" fill="#f69d85"/>
    <path id="Trazado_1008099" data-name="Trazado 1008099" d="M610.523,654.015a14.126,14.126,0,0,0,10.206,3.153l.4-7.865Z" transform="translate(-563.865 -609.135)" fill="#d1836b"/>
    <path id="Trazado_1008100" data-name="Trazado 1008100" d="M517.412,398h0a15.175,15.175,0,0,0,14.378-15.932l-.4-7.867a15.175,15.175,0,0,0-15.932-14.378h0a15.175,15.175,0,0,0-14.378,15.932l.4,7.867A15.175,15.175,0,0,0,517.412,398Z" transform="translate(-466.79 -352.411)" fill="#f69d85"/>
    <path id="Trazado_1008101" data-name="Trazado 1008101" d="M396.016,817.718c13.313.68,33.289-1.947,29.042-20.487-2.181-9.521-4.858-22.38-1.3-39.049,2.786-13.035-6.745-27.172-20.255-28.287l-.875-.045c-13-.457-20.043,12.174-19.349,25.485a73.007,73.007,0,0,1-7.671,37.2C364.679,815.511,396.016,817.718,396.016,817.718Z" transform="translate(-353.494 -680.552)" fill="#f69d85"/>
    <path id="Trazado_1008102" data-name="Trazado 1008102" d="M637.782,762.182a8.912,8.912,0,0,1,11.93,4.064l17.771,36.136,39.043,9.993a5.743,5.743,0,0,1-2.05,11.273L659.69,818.74a7.873,7.873,0,0,1-6.143-4.307l-19.829-40.321A8.912,8.912,0,0,1,637.782,762.182Z" transform="translate(-583.62 -708.422)" fill="#f69d85"/>
    <path id="Trazado_1008103" data-name="Trazado 1008103" d="M599.838,502.208c.057,1.13-.363,2.07-.939,2.1s-1.09-.863-1.148-1.994.363-2.07.94-2.1S599.78,501.078,599.838,502.208Z" transform="translate(-552.534 -476.924)" fill="#30313c"/>
    <path id="Trazado_1008104" data-name="Trazado 1008104" d="M699.347,744.8s18.089-1.7,27.952,40.781c0,0,21.07,4.675,32.381,8.246a24.4,24.4,0,0,0-2.306,17.884s-37.806.149-44.9-8.009-11.869-32.1-11.869-32.1Z" transform="translate(-642.633 -693.81)" fill="#f1f3f2"/>
    <path id="Trazado_1008105" data-name="Trazado 1008105" d="M680.665,498.1c.057,1.13-.363,2.07-.94,2.1s-1.09-.863-1.148-1.994.363-2.07.94-2.1S680.607,496.971,680.665,498.1Z" transform="translate(-624.21 -473.282)" fill="#30313c"/>
    <path id="Trazado_1008106" data-name="Trazado 1008106" d="M560.237,546.322a1.614,1.614,0,1,0,1.756-1.285A1.542,1.542,0,0,0,560.237,546.322Z" transform="translate(-519.264 -516.664)" fill="#e58a76"/>
    <path id="Trazado_1008107" data-name="Trazado 1008107" d="M552.247,1618.174H534.09l-8.137-27.566-1.208-4.094-4.74-16.057-.035-.118,6.2-.311,11.9-.6,1.428,4.909,12.114,41.648Z" transform="translate(-483.563 -1425.096)" fill="#f69d85"/>
    <path id="Trazado_1008108" data-name="Trazado 1008108" d="M507.249,1441.2H460.643c-12.525-24.412-15.274-46.819-9.135-71.337,11.846,5.279,29.965,4.543,40.265,2.811C497.143,1391.538,503.159,1413.884,507.249,1441.2Z" transform="translate(-420.063 -1248.119)" fill="#30313c"/>
    <path id="Trazado_1008109" data-name="Trazado 1008109" d="M405.965,1572.989l-.945,15.716-1.75,29.089-.155,2.571H384.96l2.052-34.128.863-14.337,4.373.264,7.369.443.662.041Z" transform="translate(-363.837 -1427.287)" fill="#f69d85"/>
    <path id="Trazado_1008110" data-name="Trazado 1008110" d="M321.24,1385.5c-.549,19.4-1.5,39.811-3.619,62.316H275.367c-3.692-25.655-4.226-53.956,9.19-70.491C292.635,1382.958,314.749,1386.209,321.24,1385.5Z" transform="translate(-264.65 -1254.744)" fill="#30313c"/>
    <path id="Trazado_1008111" data-name="Trazado 1008111" d="M711.11,544.484a1.614,1.614,0,1,0,1.756-1.285A1.542,1.542,0,0,0,711.11,544.484Z" transform="translate(-653.057 -515.034)" fill="#e58a76"/>
    <path id="Trazado_1008112" data-name="Trazado 1008112" d="M394.2,739.1s7.111,1.972,13.6,13.036c1.779,3.033,5.78,11.1,5.546,15.679-.255,4.984-5.483,7.553-5.944,16.577-.457,8.948,9.036,31.765,4.889,37.142-2.439,3.163-41.41,5.326-55-4.448-7.561-5.438,8.427-31.158,6.624-55.963-1.373-18.891,9.151-21.353,15.864-22.761,0,0,5.475,11.585,10.442,11.371C394.237,749.56,394.2,739.1,394.2,739.1Z" transform="translate(-337.486 -688.112)" fill="#3e8edd"/>
    <path id="Trazado_1008113" data-name="Trazado 1008113" d="M460.656,511.027a4.031,4.031,0,1,0,3.819-4.232A4.031,4.031,0,0,0,460.656,511.027Z" transform="translate(-430.959 -482.755)" fill="#f69d85"/>
    <path id="Trazado_1008114" data-name="Trazado 1008114" d="M733.172,886.96H710.7c.377-17.5-2.122-38.682-2.887-57.442.025-3.446.211-6.9.482-10.3.5-6.39,1.336-12.679,1.695-19.064,1.57-16.114-7.084-44.03-10.641-55.283,12.44,1.936,21.963,22.77,23.143,34.828.759,12.178.406,19.7.672,28.932C723.608,828.083,733.038,870.485,733.172,886.96Z" transform="translate(-642.636 -693.883)" fill="#f1f3f2"/>
    <path id="Trazado_1008115" data-name="Trazado 1008115" d="M290.365,767.619c.088,7.562-1.187,12.629-1.652,20.814-.291,4.7-.472,9.007-.661,14.587-.8,25.384-.929,53.247-1,78.167h-36.3c-.441-23.576,2.489-55.494,11.482-80.433,4.492-15.32,5.762-29.4,8.854-42.83,2.358-9.327,6.091-15.813,15.986-19.565a0,0,0,0,0,0,0A132.784,132.784,0,0,1,290.365,767.619Z" transform="translate(-244.789 -688.109)" fill="#f1f3f2"/>
    <path id="Trazado_1008116" data-name="Trazado 1008116" d="M679.9,328.5a10.777,10.777,0,0,1,11.825,4.132c4.253,5.7,2.531,11.974-.062,17.817C691.664,350.454,681.95,337.74,679.9,328.5Z" transform="translate(-625.388 -324.275)" fill="#2a3047"/>
    <path id="Trazado_1008117" data-name="Trazado 1008117" d="M735.794,502.836a4.031,4.031,0,1,0,3.819-4.232A4.031,4.031,0,0,0,735.794,502.836Z" transform="translate(-674.949 -475.491)" fill="#f69d85"/>
    <path id="Trazado_1008118" data-name="Trazado 1008118" d="M632.26,588.841a2.329,2.329,0,0,0,4.61-.04,1.745,1.745,0,0,0-.157-.708,2.317,2.317,0,0,0-2.166-1.266,2.382,2.382,0,0,0-2,1.033A1.771,1.771,0,0,0,632.26,588.841Z" transform="translate(-583.14 -553.732)" fill="#d1836b"/>
    <path id="Trazado_1008119" data-name="Trazado 1008119" d="M634.81,587.86c2.71,1.19,4.163.235,4.163.235v0a2.317,2.317,0,0,0-2.166-1.266A2.382,2.382,0,0,0,634.81,587.86Z" transform="translate(-585.402 -553.732)" fill="#fff"/>
    <path id="Trazado_1008120" data-name="Trazado 1008120" d="M768.889,516.368a.236.236,0,0,0,.189-.246c-.073-1.186.613-1.425,1.276-1.657.4-.138.771-.269.93-.6a.957.957,0,0,0-.013-.755,2.864,2.864,0,0,0-2.7-1.666.236.236,0,0,0,.008.472,2.4,2.4,0,0,1,2.247,1.353.537.537,0,0,1,.031.392c-.075.157-.359.256-.66.361a1.917,1.917,0,0,0-1.592,2.132.236.236,0,0,0,.25.221Z" transform="translate(-703.816 -486.879)" fill="#af5945"/>
    <path id="Trazado_1008121" data-name="Trazado 1008121" d="M478.149,524.333a.236.236,0,0,0,.189-.21,1.917,1.917,0,0,0-1.529-2.177c-.3-.114-.579-.221-.649-.38a.537.537,0,0,1,.043-.391,2.429,2.429,0,0,1,2.285-1.287.236.236,0,1,0,.022-.472A2.863,2.863,0,0,0,475.763,521a.957.957,0,0,0-.035.755c.15.339.52.481.912.63.657.251,1.335.51,1.227,1.693a.236.236,0,0,0,.214.257A.247.247,0,0,0,478.149,524.333Z" transform="translate(-444.274 -493.95)" fill="#af5945"/>
    <path id="Trazado_1008122" data-name="Trazado 1008122" d="M497.449,303.161s-3.13,8.276-11.412,8.488c-9.727.248-13.709,12.63-13.709,12.63s-5.634-9.32-4.025-16.005C471.985,292.977,487.772,289.174,497.449,303.161Z" transform="translate(-437.489 -294.484)" fill="#2a3047"/>
    <path id="Trazado_1008123" data-name="Trazado 1008123" d="M669.752,460.157a.391.391,0,0,0,.146-.062.4.4,0,0,0,.1-.549A3.83,3.83,0,0,0,667.61,458a3.166,3.166,0,0,0-2.513.9.4.4,0,0,0,.52.6,2.418,2.418,0,0,1,1.887-.709,3.068,3.068,0,0,1,1.843,1.212A.4.4,0,0,0,669.752,460.157Z" transform="translate(-612.139 -439.465)" fill="#af5945"/>
    <path id="Trazado_1008124" data-name="Trazado 1008124" d="M590.124,462.151a.4.4,0,0,0,.214-.655,3.132,3.132,0,0,0-2.212-.949,3.517,3.517,0,0,0-2.58,1.495.4.4,0,0,0,.612.5,2.784,2.784,0,0,1,1.982-1.205,2.356,2.356,0,0,1,1.615.694A.4.4,0,0,0,590.124,462.151Z" transform="translate(-541.635 -441.746)" fill="#af5945"/>
    <path id="Trazado_1008125" data-name="Trazado 1008125" d="M647.459,522.142a.232.232,0,0,0,.035-.01c.208-.077,2.026-.779,1.807-1.769a46.739,46.739,0,0,0-2.061-4.6.236.236,0,0,0-.422.211,44.54,44.54,0,0,1,2.022,4.5c.1.466-.972,1.026-1.509,1.224a.236.236,0,0,0,.128.453Z" transform="translate(-596.029 -490.592)" fill="#af5945"/>
    <path id="Trazado_1008126" data-name="Trazado 1008126" d="M756.428,1065.824a12.95,12.95,0,0,0,6.12-2.246.236.236,0,0,0-.288-.374,13.294,13.294,0,0,1-9.362,2.087.236.236,0,1,0-.067.467A14.283,14.283,0,0,0,756.428,1065.824Z" transform="translate(-689.882 -976.136)" fill="#dbbfb2"/>
    <path id="Trazado_1008127" data-name="Trazado 1008127" d="M636.934,983.861l17.231,1.686h0a2.454,2.454,0,0,0-2.2-2.682l-12.346-1.208a2.455,2.455,0,0,0-2.682,2.2Z" transform="translate(-587.286 -903.853)" fill="#7ce1f7"/>
    <path id="Trazado_1008128" data-name="Trazado 1008128" d="M513.329,1042.546l28.053,2.745a4.44,4.44,0,0,0,4.852-3.987L550,1002.755a4.441,4.441,0,0,0-3.987-4.852l-28.053-2.744a4.441,4.441,0,0,0-4.852,3.987l-3.771,38.548A4.44,4.44,0,0,0,513.329,1042.546Z" transform="translate(-474.119 -915.818)" fill="#30313c"/>
    <path id="Trazado_1008129" data-name="Trazado 1008129" d="M215.975,865.618l16.3-34.313a8.912,8.912,0,0,1,16.1,7.649l-11.462,24.124,33.952,9.07a5.742,5.742,0,0,1-2.192,11.246l-46.1-5.742a8.685,8.685,0,0,1-2.587-.754A8.466,8.466,0,0,1,215.975,865.618Z" transform="translate(-213.254 -766.019)" fill="#f69d85"/>
    <path id="Trazado_1008130" data-name="Trazado 1008130" d="M640.393,1235.167s6.078-2.172,11.09-.356,6.57,3.666,7.287,5.813-8.729,4.139-12.134,3.147S639.728,1240.256,640.393,1235.167Z" transform="translate(-590.28 -1127.716)" fill="#f69d85"/>
    <path id="Trazado_1008131" data-name="Trazado 1008131" d="M637.156,1219.705a25.383,25.383,0,0,1,9.332-3.286c.425-.039,1.108-.125,1.534-.127.994.084,2.278-.23,2.217-1.467-.113-1.818-2.625-1.375-3.9-1.56a28.9,28.9,0,0,0-11.734,2.324C631.38,1217.158,634.305,1221.9,637.156,1219.705Z" transform="translate(-583.969 -1109.25)" fill="#f69d85"/>
    <path id="Trazado_1008132" data-name="Trazado 1008132" d="M713.1,1243.608a34.681,34.681,0,0,0,13.533-1.636,1.279,1.279,0,0,0-.576-2.474,29.113,29.113,0,0,1-3.491.321,32.327,32.327,0,0,1-8.609-.944C710.333,1237.607,709.256,1243.465,713.1,1243.608Z" transform="translate(-652.685 -1131.804)" fill="#f69d85"/>
    <path id="Trazado_1008133" data-name="Trazado 1008133" d="M721.234,1269.484a36.147,36.147,0,0,0,13.707-1,1.279,1.279,0,0,0-.444-2.5,28.511,28.511,0,0,1-3.932.13,33.558,33.558,0,0,1-8.287-1.328C718.738,1263.431,717.449,1269.165,721.234,1269.484Z" transform="translate(-660.009 -1154.759)" fill="#f69d85"/>
    <path id="Trazado_1008134" data-name="Trazado 1008134" d="M712.341,1281.235a28.915,28.915,0,0,0,14.27,1.151,1.277,1.277,0,0,0-.313-2.527c-.28,0-.911,0-1.177,0a26.085,26.085,0,0,1-10.811-3.011C711.093,1274.739,708.636,1280.171,712.341,1281.235Z" transform="translate(-652.508 -1165.209)" fill="#f69d85"/>
    <path id="Trazado_1008135" data-name="Trazado 1008135" d="M674.664,1289.078a28.032,28.032,0,0,0,12.43,3.769,22.331,22.331,0,0,0,4.314-.22,1.274,1.274,0,0,0-.123-2.532l-1.058-.024a22.312,22.312,0,0,1-10.571-3.39,20.19,20.19,0,0,1-2.2-1.521C674.733,1282.587,671.356,1287.3,674.664,1289.078Z" transform="translate(-619.529 -1172.341)" fill="#f69d85"/>
    <path id="Trazado_1008136" data-name="Trazado 1008136" d="M755.545,1326.526a.236.236,0,0,0-.039-.47,21.609,21.609,0,0,1-6.287-.712.236.236,0,1,0-.131.453,22.1,22.1,0,0,0,6.445.73Z" transform="translate(-686.591 -1208.634)" fill="#af5945"/>
    <path id="Trazado_1008137" data-name="Trazado 1008137" d="M770.232,1302.54h.011a.236.236,0,0,0-.053-.469h-.011a35.325,35.325,0,0,1-6.873-.048.236.236,0,1,0-.049.469A35.82,35.82,0,0,0,770.232,1302.54Z" transform="translate(-699.12 -1187.961)" fill="#af5945"/>
    <path id="Trazado_1008138" data-name="Trazado 1008138" d="M763.46,1274.583c.521-.057.86-.106.9-.112a.236.236,0,0,0,.2-.267.239.239,0,0,0-.267-.2,29.878,29.878,0,0,1-5.6.255.236.236,0,0,0-.042.47A26.746,26.746,0,0,0,763.46,1274.583Z" transform="translate(-695.031 -1163.113)" fill="#af5945"/>
    <path id="Trazado_1008139" data-name="Trazado 1008139" d="M1253.834,1217.03s6.294,1.433,9.546,5.656,3.573,6.621,3.024,8.818-9.586-1.2-11.925-3.864S1250.539,1220.966,1253.834,1217.03Z" transform="translate(-1132.689 -1112.591)" fill="#f69d85"/>
    <path id="Trazado_1008140" data-name="Trazado 1008140" d="M1255.971,1211.07l.349.048c.112.016.188.03.268.044s.161.029.236.045c.153.031.307.061.454.095.3.064.592.136.884.209s.579.156.867.233l.856.258a31.4,31.4,0,0,1,3.327,1.268,25.9,25.9,0,0,1,3.152,1.664l.754.479.729.521.362.261.349.284.692.568a1.387,1.387,0,0,1-1.582,2.269l-.095-.056-.665-.391-.33-.195-.345-.174-.687-.347-.486-.212c.16.162.327.323.494.485.363.346.739.686,1.121,1.02.765.668,1.568,1.3,2.395,1.9.411.305.837.583,1.261.871l.648.407.326.2.332.19a26.988,26.988,0,0,0,2.73,1.389l.055.025a1.275,1.275,0,0,1-.844,2.4,29.827,29.827,0,0,1-3.25-.987l-.4-.144-.394-.158-.276-.112.182.136.636.443.319.222.326.208a28.023,28.023,0,0,0,2.689,1.545l.052.027a1.275,1.275,0,0,1-.969,2.349,30.944,30.944,0,0,1-3.221-1.166l-.378-.158.2.16.633.463.318.232.33.21.663.423.084.053a1.273,1.273,0,0,1-1.177,2.246l-.829-.348-.416-.176-.4-.2-.806-.4-.781-.442c-.409-.24-.812-.493-1.209-.753l.519.411.368.291.388.258.779.522.1.067a1.271,1.271,0,0,1-1.257,2.2l-.973-.467-.489-.236-.467-.27-.936-.548-.892-.611c-.147-.1-.3-.2-.444-.312l-.425-.334c-.28-.226-.575-.44-.843-.679l-.808-.719c-.27-.24-.515-.5-.774-.754a29.686,29.686,0,0,1-2.813-3.28l-.628-.884c-.2-.3-.406-.6-.6-.911s-.386-.62-.57-.942c-.094-.157-.184-.325-.275-.491-.045-.081-.091-.167-.136-.257s-.089-.171-.146-.294l-.133-.285a2.432,2.432,0,1,1,4.59-1.521c.006.03.027.091.049.153a3.056,3.056,0,0,0,1.667-.758,2.425,2.425,0,0,1,1.044-3.145c-.83-.21-1.669-.384-2.513-.515l-.765-.107c-.255-.027-.51-.061-.763-.083s-.506-.046-.755-.06c-.126-.01-.247-.014-.369-.019-.062,0-.121-.005-.176-.005s-.119,0-.145,0a2.546,2.546,0,0,1-.6-.008,2.439,2.439,0,0,1,.664-4.833Z" transform="translate(-1133.785 -1107.285)" fill="#f69d85"/>
    <path id="Trazado_1008141" data-name="Trazado 1008141" d="M1314.182,1345.051a.239.239,0,0,0,.028.038,22.127,22.127,0,0,0,5.044,4.078.236.236,0,0,0,.231-.412,21.6,21.6,0,0,1-4.921-3.978.236.236,0,0,0-.382.274Z" transform="translate(-1187.836 -1225.805)" fill="#af5945"/>
    <path id="Trazado_1008142" data-name="Trazado 1008142" d="M1338.619,1332.979a.235.235,0,0,0,.058.067,35.7,35.7,0,0,0,5.868,3.791.236.236,0,0,0,.206-.425,35.254,35.254,0,0,1-5.78-3.736.236.236,0,0,0-.332.038A.233.233,0,0,0,1338.619,1332.979Z" transform="translate(-1209.506 -1215.1)" fill="#af5945"/>
    <path id="Trazado_1008143" data-name="Trazado 1008143" d="M1348.558,1308.779a.236.236,0,0,0,.061.069,29.731,29.731,0,0,0,4.957,2.85.236.236,0,1,0,.194-.43,29.875,29.875,0,0,1-4.863-2.794.236.236,0,0,0-.331.043A.239.239,0,0,0,1348.558,1308.779Z" transform="translate(-1218.321 -1193.639)" fill="#af5945"/>
    <path id="Trazado_1008144" data-name="Trazado 1008144" d="M1299.832,1273.349a.236.236,0,0,0,.439-.09,7.622,7.622,0,0,0-.434-3.028,10.088,10.088,0,0,0,3.755.159.236.236,0,0,0-.075-.466,9.249,9.249,0,0,1-3.984-.286.236.236,0,0,0-.3.311,8,8,0,0,1,.571,3.256A.237.237,0,0,0,1299.832,1273.349Z" transform="translate(-1174.59 -1159.23)" fill="#af5945"/>
    <path id="Trazado_1008145" data-name="Trazado 1008145" d="M240.664,737.924s-17.833-1.9-28.531,16.435-15.673,34.033-13.088,41.732c3.266,9.729,45.132,12.6,45.132,12.6s5.392-6.649,3.935-18.987c0,0-13.4-4.151-22.568-5.692C225.545,784.011,241.209,752.515,240.664,737.924Z" transform="translate(-198.373 -687.674)" fill="#f1f3f2"/>
    <path id="Trazado_1008146" data-name="Trazado 1008146" d="M635.074,586.144a2.539,2.539,0,0,0-2.383-1.4,2.628,2.628,0,0,0-2.2,1.142,2.011,2.011,0,0,0-.325,1.109,0,0,0,0,0,0,0,2.087,2.087,0,0,0,.771,1.581,2.719,2.719,0,0,0,1.791.626,2.827,2.827,0,0,0,.541-.055,2.327,2.327,0,0,0,1.98-2.2A1.965,1.965,0,0,0,635.074,586.144Zm-3.828,2.069a1.621,1.621,0,0,1-.6-1.225,1.521,1.521,0,0,1,.25-.851l.023-.034a2.076,2.076,0,0,1,1.327-.845,2.4,2.4,0,0,1,.453-.048,2.094,2.094,0,0,1,1.948,1.128.055.055,0,0,1,0,.011,1.468,1.468,0,0,1,.131.6,1.934,1.934,0,0,1-2.052,1.776A2.249,2.249,0,0,1,631.247,588.214Z" transform="translate(-581.287 -551.88)" fill="#af5945"/>
    <path id="Trazado_1008147" data-name="Trazado 1008147" d="M447.1,911.387a.22.22,0,0,1-.043,0l-10.337-2.175a.208.208,0,0,1-.146-.289c.087-.191,8.762-19.212,12.171-29.955a.207.207,0,0,1,.4.125c-3.21,10.115-11.07,27.535-12.082,29.766l10.084,2.121a.207.207,0,0,1-.042.41Z" transform="translate(-409.592 -812.668)" fill="#818496"/>
    <path id="Trazado_1008148" data-name="Trazado 1008148" d="M359.536,1327.2h-.025c-.136-.016-13.633-1.647-19.181-3.29a.207.207,0,0,1,.118-.4c5.514,1.633,18.977,3.26,19.113,3.276a.207.207,0,0,1-.025.413Z" transform="translate(-324.128 -1207.007)" fill="#818496"/>
    <path id="Trazado_1008149" data-name="Trazado 1008149" d="M347.7,1523.552q-.241,0-.482-.011a10,10,0,0,1-9.522-10.464l.58-12.294a.208.208,0,0,1,.068-.144.215.215,0,0,1,.149-.054l19.571.923a.207.207,0,0,1,.2.217l-.58,12.294a10,10,0,0,1-9.982,9.533Zm-9.02-22.543-.57,12.087a9.589,9.589,0,1,0,19.157.9l.57-12.087Z" transform="translate(-321.916 -1364.045)" fill="#818496"/>
    <path id="Trazado_1008150" data-name="Trazado 1008150" d="M805.168,919.476a.207.207,0,0,1-.206-.184c-.009-.078-.914-7.87-2.976-17.806-1.9-9.164-5.205-22.076-10.142-31.55a.207.207,0,1,1,.368-.192c4.959,9.517,8.274,22.471,10.181,31.661,2.066,9.953,2.972,17.761,2.981,17.839a.207.207,0,0,1-.182.23Z" transform="translate(-724.638 -804.522)" fill="#818496"/>
    <path id="Trazado_1008151" data-name="Trazado 1008151" d="M568.263,1204.219a.207.207,0,0,1-.179-.312,31.24,31.24,0,0,0,4.151-13.6,24.935,24.935,0,0,0-.259-6.04.207.207,0,0,1,.406-.085,25.325,25.325,0,0,1,.268,6.135,31.652,31.652,0,0,1-4.207,13.8A.205.205,0,0,1,568.263,1204.219Z" transform="translate(-526.205 -1083.312)" fill="#818496"/>
    <path id="Trazado_1008152" data-name="Trazado 1008152" d="M1170.239,1186.191a.207.207,0,0,1-.192-.13,20.092,20.092,0,0,1-.7-13.751,17,17,0,0,1,2.7-5.356.207.207,0,0,1,.32.264,16.952,16.952,0,0,0-2.634,5.234,19.687,19.687,0,0,0,.694,13.453.207.207,0,0,1-.192.285Z" transform="translate(-1058.636 -1068.117)" fill="#30313c"/>
  </g>
  <g id="_x32__1_" transform="translate(85.58)">
    <path id="Trazado_1008153" data-name="Trazado 1008153" d="M1152.827,1574.6h-24.67l-.756-36.954c-.007-.207-.009-.414-.007-.62a15.888,15.888,0,0,1,.438-3.61,16.38,16.38,0,0,1,2.086-4.93,17.282,17.282,0,0,1,4.39-4.695q.416-.306.849-.585a17.178,17.178,0,0,1,3.121-1.587c.11-.041.219-.083.33-.121a16.016,16.016,0,0,1,9.041-.568,16.752,16.752,0,0,1,13.092,14.121q.086.632.123,1.274a16.741,16.741,0,0,1-.346,4.486l-.987,4.338Z" transform="translate(-1107.801 -1376.018)" fill="#f69d85"/>
    <path id="Trazado_1008154" data-name="Trazado 1008154" d="M1126.943,1658.25s-.175.833-.5,2.4c-.115.558-.251,1.21-.4,1.951-1.017,4.909-2.825,13.728-5.11,25.227q-.2.992-.4,2.009c-.434,2.189-.966,4.517-1.555,6.89h-40.82c.765-18.288,2.169-37.5,2.169-37.5l3.406-.071,3.191-.067,9.4-.2h0l10.2-.214,8.8-.184,1.876-.038,4-.085,4.8-.1Z" transform="translate(-1064.133 -1498.148)" fill="#263656"/>
    <rect id="Rectángulo_456164" data-name="Rectángulo 456164" width="14.561" height="22.826" transform="translate(50.174 39.962)" fill="#f69d85"/>
    <path id="Trazado_1008155" data-name="Trazado 1008155" d="M1409.37,682.541a23.145,23.145,0,0,1-11.846,2.471v-4.421Z" transform="translate(-1347.351 -631.168)" fill="#d1836b"/>
    <path id="Trazado_1008156" data-name="Trazado 1008156" d="M1268.063,830.747h-.884a24.352,24.352,0,0,1-24.352-24.352V769.108a24.352,24.352,0,0,1,24.352-24.352h.884c11.23,0,24.352,10.9,24.352,24.352v37.287A24.353,24.353,0,0,1,1268.063,830.747Z" transform="translate(-1210.168 -688.069)" fill="#f69d85"/>
    <path id="Trazado_1008157" data-name="Trazado 1008157" d="M1526,1574.6h-24.671l-.7-34.126-.04-1.93-.018-.9q-.024-.762.022-1.508.037-.578.113-1.142c1.259-9.326,10.606-16.236,20.114-14.067a16.669,16.669,0,0,1,2.342.683c.3.111.6.232.894.36a16.475,16.475,0,0,1,2.614,1.44q.661.443,1.271.947a16.814,16.814,0,0,1,5.934,10.44c.022.15.043.3.061.453a16.712,16.712,0,0,1-.249,5.56Z" transform="translate(-1438.722 -1376.018)" fill="#f69d85"/>
    <path id="Trazado_1008158" data-name="Trazado 1008158" d="M1450.069,1677.381c-.259,2.77-.659,5.817-1.135,8.931H1408.37c-.757-10.656-1.474-21.74-1.958-29.452-.162-2.587-.3-4.794-.4-6.479-.058-.941-.105-1.719-.14-2.307-.052-.844-.079-1.3-.079-1.3l1.832-.011,4.135-.025,4.905-.03,10.714-.063.352,0,.934-.006,2.62-.016,15.687-.094.4,0,2.466-.015,1.487-.009S1451.926,1657.521,1450.069,1677.381Z" transform="translate(-1354.681 -1487.728)" fill="#263656"/>
    <path id="Trazado_1008159" data-name="Trazado 1008159" d="M1153.9,753.36s-16,2.129-21.689,23.393c-5.881,21.967,3.244,41.436-9.411,75.933,0,0,14.776,7.145,44.674,5.443s32.892-3.658,32.892-3.658a277.263,277.263,0,0,1-8.777-42.405c-2.583-22.6,5.919-49.447-23.127-58.7A16.685,16.685,0,0,1,1153.9,753.36Z" transform="translate(-1103.732 -695.699)" fill="#f76c59"/>
    <path id="Trazado_1008160" data-name="Trazado 1008160" d="M1604.646,1639.042a10.015,10.015,0,0,1-10-10V1616.73a.207.207,0,0,1,.207-.208h19.593a.207.207,0,0,1,.208.208v12.308A10.016,10.016,0,0,1,1604.646,1639.042Zm-9.59-22.1v12.1a9.589,9.589,0,0,0,19.178,0v-12.1Z" transform="translate(-1522.154 -1461.145)" fill="#263656"/>
    <path id="Trazado_1008161" data-name="Trazado 1008161" d="M1158.915,901.279H1071.95c1.265-28.914,2.081-66.669,6.752-96.267,3.816-15.741,11.149-40.172,26.868-43.761l10.517,55.063c.179-.827,11.571-53.475,11.742-54.269,13.4,2.638,17.647,14.18,21.358,29.039,2.3,8.516,4.481,18.453,6.138,27.737C1160.408,846.151,1158.56,871.935,1158.915,901.279Z" transform="translate(-1058.635 -702.696)" fill="#f1f3f2"/>
    <circle id="Elipse_13922" data-name="Elipse 13922" cx="4.067" cy="4.067" r="4.067" transform="translate(68.829 35.235) rotate(-59.697)" fill="#f69d85"/>
    <path id="Trazado_1008162" data-name="Trazado 1008162" d="M1607.515,526.741a.241.241,0,0,1-.043.006.238.238,0,0,1-.249-.226,1.934,1.934,0,0,1,1.635-2.129c.3-.1.593-.2.671-.355a.542.542,0,0,0-.026-.4,2.418,2.418,0,0,0-2.249-1.4.238.238,0,0,1,0-.476,2.889,2.889,0,0,1,2.7,1.718.967.967,0,0,1,0,.762c-.166.335-.545.462-.947.6-.673.225-1.368.457-1.31,1.654A.239.239,0,0,1,1607.515,526.741Z" transform="translate(-1533.126 -490.324)" fill="#af5945"/>
    <path id="Trazado_1008163" data-name="Trazado 1008163" d="M1287.475,501.7a4.067,4.067,0,1,1-3.877-4.249A4.067,4.067,0,0,1,1287.475,501.7Z" transform="translate(-1242.551 -468.754)" fill="#f69d85"/>
    <path id="Trazado_1008164" data-name="Trazado 1008164" d="M1291.827,517.782a.239.239,0,0,1-.29-.262c.148-1.189-.528-1.473-1.182-1.748-.391-.164-.759-.319-.9-.666a.966.966,0,0,1,.06-.76,2.889,2.889,0,0,1,2.822-1.509.238.238,0,0,1-.038.475,2.417,2.417,0,0,0-2.347,1.223.543.543,0,0,0-.056.393c.065.163.345.28.642.4a1.934,1.934,0,0,1,1.47,2.246A.237.237,0,0,1,1291.827,517.782Z" transform="translate(-1251.469 -482.4)" fill="#af5945"/>
    <path id="Trazado_1008165" data-name="Trazado 1008165" d="M1343.014,391.882h0a15.311,15.311,0,0,1-14.594-16l.364-7.939a15.311,15.311,0,0,1,16-14.594h0a15.311,15.311,0,0,1,14.594,16l-.364,7.939A15.31,15.31,0,0,1,1343.014,391.882Z" transform="translate(-1286.056 -340.961)" fill="#f69d85"/>
    <path id="Trazado_1008166" data-name="Trazado 1008166" d="M1416.1,585.107a4.071,4.071,0,0,1-2.237,2.948c-1.98,1.124-5.769,1.021-7.426-.044a3.649,3.649,0,0,1-1.6-2.25,1.2,1.2,0,0,1,.565-1.467c1.132-.459,4.133.514,6.211-.04,2.237-.6,3.832-.84,4.329.015A1.427,1.427,0,0,1,1416.1,585.107Z" transform="translate(-1353.794 -545.258)" fill="#d1836b"/>
    <path id="Trazado_1008167" data-name="Trazado 1008167" d="M1416.1,585.107c-4.639,1.773-10.6.773-11.265.655a1.2,1.2,0,0,1,.565-1.467c1.132-.459,4.133.514,6.211-.04,2.237-.6,3.832-.84,4.329.015A1.427,1.427,0,0,1,1416.1,585.107Z" transform="translate(-1353.794 -545.258)" fill="#fff"/>
    <path id="Trazado_1008168" data-name="Trazado 1008168" d="M1414.275,582.312c-.567-.974-2.18-.77-4.6-.125a10.719,10.719,0,0,1-3.622.024,6.415,6.415,0,0,0-2.619.025,1.252,1.252,0,0,0-.748,1.147,2.251,2.251,0,0,0,.04.588,3.892,3.892,0,0,0,1.708,2.4,8.936,8.936,0,0,0,6.087.64,5.977,5.977,0,0,0,1.585-.589,4.321,4.321,0,0,0,2.347-3.042c0-.032.007-.063.009-.1A1.652,1.652,0,0,0,1414.275,582.312Zm-.3,1.05a.116.116,0,0,1,0,.02,3.945,3.945,0,0,1-2.1,2.628c-1.837,1.044-5.528,1.024-7.18-.037a3.416,3.416,0,0,1-1.479-2.006c-.007-.031-.013-.06-.019-.088a1.884,1.884,0,0,1-.028-.5.771.771,0,0,1,.449-.705,1.234,1.234,0,0,1,.169-.052,8.2,8.2,0,0,1,2.221.059,11.059,11.059,0,0,0,3.793-.037c1.852-.494,3.624-.847,4.063-.094a1.185,1.185,0,0,1,.128.7v0c0,.036-.007.073-.013.11h0Z" transform="translate(-1351.928 -543.421)" fill="#af5945"/>
    <path id="Trazado_1008169" data-name="Trazado 1008169" d="M1513.177,534.664a1.629,1.629,0,1,1-1.779-1.286A1.556,1.556,0,0,1,1513.177,534.664Z" transform="translate(-1447.046 -500.61)" fill="#d1836b"/>
    <path id="Trazado_1008170" data-name="Trazado 1008170" d="M1365.136,540.149a1.629,1.629,0,1,1-1.779-1.287A1.556,1.556,0,0,1,1365.136,540.149Z" transform="translate(-1315.764 -505.473)" fill="#d1836b"/>
    <path id="Trazado_1008171" data-name="Trazado 1008171" d="M1319.566,255.923s2.221-5.006-.314-7.38c-2.587-2.421-6.745-.046-8.609,2.093a17.212,17.212,0,0,0-1.948-4.619c-2.428-3.892-9.866-2.15-5.954,5.65,0,0-1.952-3.766-7.341-2.871s-3.306,7.145,1.168,8.618c0,0-5.509-1.681-7.6,2.846-.992,2.149-.072,3.811,1.88,4.771-.017,1.888.281,5.488,2.511,8.082,0,0,.893-4.62,3.116-7.192a17.4,17.4,0,0,0,3.462-.581,27.262,27.262,0,0,0,10.318-5.1,8.12,8.12,0,0,0,4.3,4.925,10.507,10.507,0,0,0,5.289.794l-.085.077a20.727,20.727,0,0,1,4.212,7.939s4.728-5.278.732-9.944C1327.629,261.7,1326.488,254.67,1319.566,255.923Z" transform="translate(-1250.728 -244.019)" fill="#5e3628"/>
    <path id="Trazado_1008172" data-name="Trazado 1008172" d="M1432.915,513.291a.237.237,0,0,1-.113,0c-.217-.055-2.115-.569-2-1.586a47.13,47.13,0,0,1,1.586-4.836.238.238,0,0,1,.446.167,45.032,45.032,0,0,0-1.559,4.723c-.055.477,1.083.927,1.643,1.07a.238.238,0,0,1-.005.463Z" transform="translate(-1376.859 -476.974)" fill="#af5945"/>
    <path id="Trazado_1008173" data-name="Trazado 1008173" d="M1399.826,490.267c.018,1.142.5,2.06,1.086,2.051s1.04-.942,1.022-2.084-.5-2.06-1.086-2.051S1399.809,489.125,1399.826,490.267Z" transform="translate(-1349.392 -460.542)" fill="#30313c"/>
    <path id="Trazado_1008174" data-name="Trazado 1008174" d="M1475.546,491.51c.018,1.142.5,2.06,1.086,2.051s1.04-.942,1.022-2.084-.5-2.06-1.086-2.051S1475.529,490.368,1475.546,491.51Z" transform="translate(-1416.54 -461.644)" fill="#30313c"/>
    <path id="Trazado_1008175" data-name="Trazado 1008175" d="M1382.083,456.893a.4.4,0,0,1-.184,0,7.328,7.328,0,0,0-4.9.858.4.4,0,1,1-.415-.683,8.052,8.052,0,0,1,5.5-.952.4.4,0,0,1,0,.778Z" transform="translate(-1328.615 -431.956)" fill="#af5945"/>
    <path id="Trazado_1008176" data-name="Trazado 1008176" d="M1479.774,458.621a.4.4,0,0,1-.3-.051c-2.836-1.788-4.649-.782-4.667-.772a.4.4,0,1,1-.4-.693c.09-.052,2.253-1.254,5.493.788a.4.4,0,0,1-.123.727Z" transform="translate(-1415.35 -432.629)" fill="#af5945"/>
    <path id="Trazado_1008177" data-name="Trazado 1008177" d="M1355.989,491.9c0-.018,0-.035,0-.052h0c-.032-.874-.084-1.387-.084-1.387s-.164.186-.412.506a15.592,15.592,0,0,0-1.244,1.86h0a0,0,0,0,0,0,0,10.183,10.183,0,0,0-.846,1.882c-.163.512-.327.974-.491,1.4v0c-1.474,3.835-2.875,4.271-2.875,4.271l-2.5-1.574a7.245,7.245,0,0,0-3.193-.814,6.787,6.787,0,0,0-1.891.257,19.874,19.874,0,0,1-8.247.47l-.034,0a7.2,7.2,0,0,0-4.359.8l-1.818,1.242a13.266,13.266,0,0,1-1.1-3.772c-.165-1.053-.255-2.022-.443-2.857-.182-.816-.391-1.764-.565-2.554-.2-.924-.358-1.632-.366-1.666,0,0,0,.016-.011.039-.036.122-.151.526-.29,1.148a0,0,0,0,0,0,0v0c0,.017-.008.035-.011.053,0,0,0,0,0,0a29.686,29.686,0,0,0-.69,7.593,19.381,19.381,0,0,0,1.172,5.988,13.773,13.773,0,0,0,7.07,7.639,17.653,17.653,0,0,0,11.839,1.068l.006,0a14.775,14.775,0,0,0,2.716-.994,12.745,12.745,0,0,0,1.224-.677c3.66-2.306,5.557-6.3,6.52-10.211.016-.06.031-.12.045-.18q.07-.294.132-.586c0-.01,0-.019.007-.029.083-.381.156-.762.222-1.137A38.194,38.194,0,0,0,1355.989,491.9Zm-24.34,9.567a2.122,2.122,0,0,1,2.4-1.446,24.236,24.236,0,0,0,9.588-.661,2.156,2.156,0,0,1,1.55.166,2.4,2.4,0,0,1,1.395,1.756,2.02,2.02,0,0,1-.086.752c-.5,1.779-3.038,4.611-7.383,4.62-3.38.007-5.291-.873-6.358-2.029a4.737,4.737,0,0,1-1.129-2.179A1.962,1.962,0,0,1,1331.649,501.466Z" transform="translate(-1282.585 -462.071)" fill="#5e3628"/>
    <path id="Trazado_1008178" data-name="Trazado 1008178" d="M1677.45,1461.088s3.432,9.214,16.685,11.313C1694.135,1472.4,1693.26,1457.736,1677.45,1461.088Z" transform="translate(-1595.587 -1322.865)" fill="#818496"/>
    <path id="Trazado_1008179" data-name="Trazado 1008179" d="M1453.645,1365.8h0a.207.207,0,0,1-.205-.209l.083-8.9.661-71.648a.2.2,0,0,1,.209-.205.207.207,0,0,1,.206.209l-.744,80.547A.208.208,0,0,1,1453.645,1365.8Z" transform="translate(-1396.934 -1167.007)" fill="#818496"/>
    <path id="Trazado_1008180" data-name="Trazado 1008180" d="M1643.01,859.728l-.257-.561-18.036-39.427c-.106-.231-.23-.476-.358-.7a9.15,9.15,0,1,0-15.924,9.016l19.828,35.02-12.825,33.475a5.631,5.631,0,0,0,10.331,4.46l17.186-35.651A6.671,6.671,0,0,0,1643.01,859.728Z" transform="translate(-1533.33 -749.824)" fill="#f69d85"/>
    <path id="Trazado_1008181" data-name="Trazado 1008181" d="M1665.047,1514.28s-5.728,5.938-6.214,11.726l12.718.793C1673.908,1520.047,1670.388,1515.941,1665.047,1514.28Z" transform="translate(-1579.078 -1370.477)" fill="#f69d85"/>
    <path id="Trazado_1008182" data-name="Trazado 1008182" d="M1602.911,1635.562c-.209,0-.418-.006-.629-.02a10,10,0,0,1-9.362-10.607l.765-12.284a.207.207,0,0,1,.07-.143.2.2,0,0,1,.15-.051l19.555,1.219a.207.207,0,0,1,.194.22l-.765,12.284A10.019,10.019,0,0,1,1602.911,1635.562Zm-8.825-22.678-.752,12.077a9.589,9.589,0,1,0,19.141,1.193l.753-12.077Z" transform="translate(-1520.609 -1457.539)" fill="#818496"/>
    <path id="Trazado_1008183" data-name="Trazado 1008183" d="M1619.424,1524.536c-6.187,1.485-9.235,5.838-11.572,9.384-.273.47-.748,1.2-.98,1.688-.607.9-1.015,2.3.2,2.9,1.093.589,1.962-.367,2.48-1.225a26.5,26.5,0,0,1,9.726-7.709C1623.226,1528.2,1622.8,1522.059,1619.424,1524.536Z" transform="translate(-1532.48 -1379.055)" fill="#f69d85"/>
    <path id="Trazado_1008184" data-name="Trazado 1008184" d="M1102.63,1468.833s12.488-1.852,16.685-11.313C1119.315,1457.52,1105.258,1451.7,1102.63,1468.833Z" transform="translate(-1085.841 -1319.297)" fill="#818496"/>
    <path id="Trazado_1008185" data-name="Trazado 1008185" d="M1565.55,766.045s14.923-3.085,25.636,11.137,18.585,32.9,19.095,44.153c.456,10.065-15.378,34.9-15.378,34.9a17.654,17.654,0,0,0-16.685-11.314l11.832-23.585s-14.443-21.459-18.978-30.567S1565.55,766.045,1565.55,766.045Z" transform="translate(-1496.355 -706.697)" fill="#f1f3f2"/>
    <path id="Trazado_1008186" data-name="Trazado 1008186" d="M1038.759,815.057a9.15,9.15,0,0,0-12.014,4.807l-16.875,39.388-.255.6a6.552,6.552,0,0,0,.057,5.26l16.061,35.692a5.631,5.631,0,0,0,10.447-4.181l-11.834-33.606,18.875-35.223c.121-.228.242-.477.346-.719A9.148,9.148,0,0,0,1038.759,815.057Z" transform="translate(-1002.892 -749.753)" fill="#f69d85"/>
    <path id="Trazado_1008187" data-name="Trazado 1008187" d="M1156.947,1514.28s5.728,5.938,6.214,11.726l-12.718.793C1148.085,1520.047,1151.605,1515.941,1156.947,1514.28Z" transform="translate(-1127.579 -1370.477)" fill="#f69d85"/>
    <path id="Trazado_1008188" data-name="Trazado 1008188" d="M1161.967,1635.561a10.005,10.005,0,0,1-9.971-9.382l-.765-12.284a.207.207,0,0,1,.194-.22l19.555-1.219a.2.2,0,0,1,.15.051.206.206,0,0,1,.07.143l.766,12.284a10.015,10.015,0,0,1-9.362,10.607h0Q1162.284,1635.56,1161.967,1635.561Zm-10.31-21.485.753,12.077a9.589,9.589,0,0,0,19.141-1.193l-.752-12.077Z" transform="translate(-1128.94 -1457.538)" fill="#818496"/>
    <path id="Trazado_1008189" data-name="Trazado 1008189" d="M1188.516,1520.082c6.088,1.85,8.871,6.377,10.994,10.056.244.486.675,1.242.878,1.743.552.932.876,2.357-.375,2.886-1.126.523-1.937-.483-2.4-1.37a26.491,26.491,0,0,0-9.25-8.274C1184.5,1523.51,1185.289,1517.408,1188.516,1520.082Z" transform="translate(-1159.569 -1375.029)" fill="#f69d85"/>
    <path id="Trazado_1008190" data-name="Trazado 1008190" d="M1003.451,760.938s-16.713-1.374-26.43,11.93c-10.5,14.378-19.708,32.9-20.218,44.153-.456,10.065,16.5,34.9,16.5,34.9a17.654,17.654,0,0,1,16.685-11.313l-11.832-23.585s14.443-21.459,18.978-30.567S1003.451,760.938,1003.451,760.938Z" transform="translate(-956.515 -702.383)" fill="#f1f3f2"/>
    <path id="Trazado_1008191" data-name="Trazado 1008191" d="M1344.8,819a.207.207,0,0,1-.186-.117l-12.049-24.8a.207.207,0,0,1,.019-.213l3.974-5.435-6.619-5.171a.207.207,0,0,1-.08-.167l.469-23.833a.207.207,0,0,1,.415.008l-.467,23.729,6.7,5.231a.207.207,0,0,1,.04.286l-4.019,5.5,11.807,24.3,11.821-24.433-4.7-5.455a.207.207,0,0,1,.036-.3l6.113-4.393.521-23.595a.211.211,0,0,1,.212-.2.207.207,0,0,1,.2.212l-.523,23.7a.207.207,0,0,1-.086.164l-6.013,4.321,4.638,5.387a.207.207,0,0,1,.03.226l-12.067,24.941a.207.207,0,0,1-.187.117Z" transform="translate(-1287.343 -700.758)" fill="#818496"/>
    <rect id="Rectángulo_456165" data-name="Rectángulo 456165" width="14.128" height="7.793" transform="translate(28.541 97.364) rotate(4.37)" fill="#3e8edd"/>
    <rect id="Rectángulo_456166" data-name="Rectángulo 456166" width="2.436" height="4.886" transform="translate(34.556 95.38) rotate(4.37)" fill="#f76c59"/>
    <path id="Trazado_1008192" data-name="Trazado 1008192" d="M1155.7,990.936a.208.208,0,0,1-.186-.114l-11.832-23.585a.21.21,0,0,1-.022-.092,123.062,123.062,0,0,1,6.547-36.821.207.207,0,0,1,.391.138,122.721,122.721,0,0,0-6.523,36.633l11.81,23.541a.207.207,0,0,1-.092.278A.2.2,0,0,1,1155.7,990.936Z" transform="translate(-1122.226 -852.506)" fill="#818496"/>
    <path id="Trazado_1008193" data-name="Trazado 1008193" d="M1674.653,997.9a.207.207,0,0,1-.185-.3l11.8-23.519c-.3-1.347-4.759-21.137-11.949-35.743a.207.207,0,1,1,.372-.183c7.432,15.1,11.954,35.7,12,35.909a.206.206,0,0,1-.017.137l-11.832,23.585A.207.207,0,0,1,1674.653,997.9Z" transform="translate(-1592.79 -859.474)" fill="#818496"/>
    <path id="Trazado_1008194" data-name="Trazado 1008194" d="M1076.526,1439.246a.207.207,0,0,1-.185-.3,19.919,19.919,0,0,1,11.079-10.033,18.121,18.121,0,0,1,6.566-1.154.207.207,0,0,1-.023.414,18.08,18.08,0,0,0-6.419,1.136,19.514,19.514,0,0,0-10.833,9.825A.207.207,0,0,1,1076.526,1439.246Z" transform="translate(-1062.509 -1293.742)" fill="#818496"/>
    <path id="Trazado_1008195" data-name="Trazado 1008195" d="M1711.623,1437.66a.207.207,0,0,1-.183-.11,19.883,19.883,0,0,0-10.868-9.78,17.212,17.212,0,0,0-6.274-1.085.207.207,0,1,1-.028-.414,17.29,17.29,0,0,1,6.425,1.1,20.288,20.288,0,0,1,11.112,9.982.207.207,0,0,1-.183.3Z" transform="translate(-1610.332 -1292.421)" fill="#818496"/>
    <path id="Trazado_1008196" data-name="Trazado 1008196" d="M955.945,1135.857a.207.207,0,0,1-.2-.145,54.053,54.053,0,0,1-1.335-6.912c-.768-5.093,4.065-15.783,4.271-16.236a.207.207,0,1,1,.378.172c-.05.11-4.988,11.031-4.238,16a55.031,55.031,0,0,0,1.32,6.85.207.207,0,0,1-.136.26A.223.223,0,0,1,955.945,1135.857Z" transform="translate(-954.33 -1014.13)" fill="#818496"/>
  </g>
  <g id="_x31_" transform="translate(181.195 24.561)">
    <path id="Trazado_1008197" data-name="Trazado 1008197" d="M1924.064,1648.33l-1.112,18.484-1.284,21.328H1882.23c.882-9.921,1.76-18.4,2.482-24.887.99-8.9,1.686-14.059,1.686-14.059l30.09-.692Z" transform="translate(-1872.799 -1513.912)" fill="#30313c"/>
    <path id="Trazado_1008198" data-name="Trazado 1008198" d="M2227.038,1687.3h-40.031l-1.2-21.19-1.045-18.447-.01-.174,37.432-.108s.832,5.474,2,14.768C2225.022,1668.784,2226.033,1677.369,2227.038,1687.3Z" transform="translate(-2141.071 -1513.07)" fill="#30313c"/>
    <path id="Trazado_1008199" data-name="Trazado 1008199" d="M2218.515,500.854a8.993,8.993,0,0,1,8.55,4.548c2.528,4.125,2.322,9.5,1.505,15.053a30.848,30.848,0,0,0,2.373,16.754c2.384,5.677,2.874,11.8-.19,15.406s-15.611,2.777-17.833-4.8S2212.647,505.8,2218.515,500.854Z" transform="translate(-2165.261 -496.306)" fill="#b74f2a"/>
    <path id="Trazado_1008200" data-name="Trazado 1008200" d="M2008.354,975.314h.884c13.449,0,32.669-12.063,24.868-22.983-5.166-7.231-3.1-25.062-3-35.42.128-13.419-8.417-27.4-21.866-27.4h-.884c-13.449,0-20.88,13.726-21.327,27.138-.492,14.753,1.49,27.951-3.024,35.682C1977.236,963.92,1994.905,975.314,2008.354,975.314Z" transform="translate(-1961.726 -840.997)" fill="#f69d85"/>
    <rect id="Rectángulo_456167" data-name="Rectángulo 456167" width="14.561" height="22.825" transform="translate(39.531 31.601)" fill="#f69d85"/>
    <path id="Trazado_1008201" data-name="Trazado 1008201" d="M1925.252,899.455s20.428,3.146,23.229,28.1c.952,8.482,7.687,48.329,8.534,70.779,0,0-45.614,10.192-76.634,0,0,0,2.569-47.777,5.83-70.779,1.994-14.062,11.329-24,24.469-28.1l7.649,12.867Z" transform="translate(-1871.159 -849.816)" fill="#3e8edd"/>
    <path id="Trazado_1008202" data-name="Trazado 1008202" d="M2188.71,810.564a20.7,20.7,0,0,0,9.965,1.087v-7.314Z" transform="translate(-2144.583 -765.466)" fill="#d1836b"/>
    <path id="Trazado_1008203" data-name="Trazado 1008203" d="M2079.183,559.246h0a15.311,15.311,0,0,0,12.615-17.6l-1.293-7.842a15.311,15.311,0,0,0-17.6-12.615h0a15.311,15.311,0,0,0-12.615,17.6l1.293,7.842A15.311,15.311,0,0,0,2079.183,559.246Z" transform="translate(-2030.52 -514.191)" fill="#f69d85"/>
    <circle id="Elipse_13923" data-name="Elipse 13923" cx="4.067" cy="4.067" r="4.067" transform="translate(56.586 28.792) rotate(-86.979)" fill="#f69d85"/>
    <path id="Trazado_1008204" data-name="Trazado 1008204" d="M2127.43,715.831a1.629,1.629,0,1,0,1.616-1.487A1.556,1.556,0,0,0,2127.43,715.831Z" transform="translate(-2090.24 -685.662)" fill="#d1836b"/>
    <path id="Trazado_1008205" data-name="Trazado 1008205" d="M2278.49,696.943a1.628,1.628,0,1,0,1.615-1.487A1.556,1.556,0,0,0,2278.49,696.943Z" transform="translate(-2224.199 -668.912)" fill="#d1836b"/>
    <path id="Trazado_1008206" data-name="Trazado 1008206" d="M2024.65,695.684A4.067,4.067,0,1,0,2028,691.01,4.067,4.067,0,0,0,2024.65,695.684Z" transform="translate(-1999.047 -664.919)" fill="#f69d85"/>
    <path id="Trazado_1008207" data-name="Trazado 1008207" d="M2193.473,755.222c-.057.662,1.018,1.295,2.4,1.414s2.551-.32,2.608-.982-1.018-1.295-2.4-1.414S2193.53,754.56,2193.473,755.222Z" transform="translate(-2148.805 -721.023)" fill="#db7777"/>
    <path id="Trazado_1008208" data-name="Trazado 1008208" d="M2183.459,755.48a9.288,9.288,0,0,1-2.5-.971.238.238,0,1,1,.233-.415,8.619,8.619,0,0,0,7.181.615.238.238,0,0,1,.191.437A8.785,8.785,0,0,1,2183.459,755.48Z" transform="translate(-2137.602 -720.883)" fill="#af5945"/>
    <path id="Trazado_1008209" data-name="Trazado 1008209" d="M2252.76,531.344s4.35,7.53,8.825,10.127c0,0,2.348-7.9-6.924-13.326Z" transform="translate(-2201.382 -520.541)" fill="#b74f2a"/>
    <path id="Trazado_1008210" data-name="Trazado 1008210" d="M2331.646,662.958a.238.238,0,0,1-.184-.21,1.934,1.934,0,0,1,1.541-2.2c.3-.115.584-.224.655-.384a.541.541,0,0,0-.043-.395,2.419,2.419,0,0,0-2.307-1.3.238.238,0,0,1-.022-.476,2.889,2.889,0,0,1,2.773,1.6.965.965,0,0,1,.036.762c-.151.342-.524.485-.92.637-.662.254-1.347.516-1.237,1.709a.238.238,0,0,1-.216.259A.229.229,0,0,1,2331.646,662.958Z" transform="translate(-2270.817 -635.692)" fill="#af5945"/>
    <path id="Trazado_1008211" data-name="Trazado 1008211" d="M2346.313,695.264a2.149,2.149,0,0,0-.323-.1,2.121,2.121,0,0,0-2.537,1.6,2.078,2.078,0,0,0-.031.774,2.121,2.121,0,0,0,1.429,1.706c.064.022.13.04.2.056a2.119,2.119,0,0,0,1.263-4.03Zm.807,2.329a1.642,1.642,0,0,1-1.965,1.236,1.612,1.612,0,0,1-.34-.118,1.646,1.646,0,0,1-.928-1.3,1.69,1.69,0,0,1,.031-.549,1.642,1.642,0,0,1,3.2.729Z" transform="translate(-2281.76 -668.603)" fill="#efbb6a"/>
    <path id="Trazado_1008212" data-name="Trazado 1008212" d="M2139.578,638.148a.4.4,0,0,1-.18-.685c2.46-2.237,4.649-1.736,4.745-1.712a.4.4,0,0,1-.184.778h-.005c-.093-.021-1.9-.4-4.018,1.526A.4.4,0,0,1,2139.578,638.148Z" transform="translate(-2100.738 -615.908)" fill="#af5945"/>
    <path id="Trazado_1008213" data-name="Trazado 1008213" d="M2223.692,626.321a.4.4,0,0,1-.078-.753,5.657,5.657,0,0,1,4.894.211.4.4,0,0,1-.4.692,4.93,4.93,0,0,0-4.161-.177A.4.4,0,0,1,2223.692,626.321Z" transform="translate(-2175.329 -606.517)" fill="#af5945"/>
    <path id="Trazado_1008214" data-name="Trazado 1008214" d="M2214.5,686.325a.238.238,0,0,1-.012-.462c.556-.157,1.683-.634,1.616-1.11a45.086,45.086,0,0,0-1.673-4.684.238.238,0,1,1,.442-.178,47.2,47.2,0,0,1,1.7,4.8c.141,1.014-1.744,1.574-1.959,1.634A.241.241,0,0,1,2214.5,686.325Z" transform="translate(-2167.287 -654.976)" fill="#af5945"/>
    <path id="Trazado_1008215" data-name="Trazado 1008215" d="M2167.378,674.337c.185,1.127-.13,2.117-.7,2.211s-1.19-.742-1.376-1.869.13-2.117.7-2.211S2167.193,673.21,2167.378,674.337Z" transform="translate(-2123.774 -648.519)" fill="#30313c"/>
    <path id="Trazado_1008216" data-name="Trazado 1008216" d="M2247.957,661.088c.185,1.127-.13,2.117-.7,2.211s-1.19-.742-1.375-1.869.13-2.117.7-2.211S2247.772,659.961,2247.957,661.088Z" transform="translate(-2195.231 -636.77)" fill="#30313c"/>
    <path id="Trazado_1008217" data-name="Trazado 1008217" d="M2054.356,989.512l-.062-.281L2043.7,941.592c-.024-.106-.057-.239-.085-.344a7.543,7.543,0,0,0-14.555,3.963l10.711,39.34-44.108.949a5.266,5.266,0,0,0,0,10.529l52.424,1.128a6.589,6.589,0,0,0,1.5-.148A6.283,6.283,0,0,0,2054.356,989.512Z" transform="translate(-1968.822 -881.944)" fill="#f69d85"/>
    <path id="Trazado_1008218" data-name="Trazado 1008218" d="M2121.011,905.149s21.281-2.829,28.435,21.846c3.743,12.911,9.055,37.211,2.254,44.863-9.831,11.06-53.242-1.363-53.242-1.363l1.687-16.058,29.8,1.215S2117.29,919.4,2121.011,905.149Z" transform="translate(-2064.548 -854.778)" fill="#3e8edd"/>
    <path id="Trazado_1008219" data-name="Trazado 1008219" d="M2372.93,1321.482s5.142-4,10.518-3.835,7.452,1.444,8.816,3.276-7.063,6.717-10.639,6.839S2373.9,1326.571,2372.93,1321.482Z" transform="translate(-2307.948 -1220.661)" fill="#f69d85"/>
    <path id="Trazado_1008220" data-name="Trazado 1008220" d="M2368.253,1289.2a29.574,29.574,0,0,1,10.255-5.683c.488-.123,1.258-.36,1.752-.443.954-.312,2.307-.317,2.533.92.246,1.123-.826,1.653-1.722,1.9a24.536,24.536,0,0,0-9.34,6.694C2369.5,1295.741,2365.187,1291.574,2368.253,1289.2Z" transform="translate(-2302.856 -1189.847)" fill="#f69d85"/>
    <path id="Trazado_1008221" data-name="Trazado 1008221" d="M2446.439,1290.963a31.321,31.321,0,0,0,11.794-3.215,1.29,1.29,0,0,1,1.332,2.19,30.362,30.362,0,0,1-3.592,2.333,35.222,35.222,0,0,1-9.193,3.564C2443.2,1296.47,2442.8,1290.834,2446.439,1290.963Z" transform="translate(-2370.876 -1194.021)" fill="#f69d85"/>
    <path id="Trazado_1008222" data-name="Trazado 1008222" d="M2459.628,1312.437a25.3,25.3,0,0,0,8.8-.922c1.465-.13,3.579-2.213,4.591-.369.888,2.8-9.406,5.585-11.613,5.912C2454.764,1318.876,2455.282,1311.53,2459.628,1312.437Z" transform="translate(-2381.953 -1214.228)" fill="#f69d85"/>
    <path id="Trazado_1008223" data-name="Trazado 1008223" d="M2454.647,1342a29.226,29.226,0,0,0,10.19-.5c.425-.116,1.115-.286,1.527-.434.849-.391,2.109-.6,2.466.536.524,1.6-2,2.135-3.034,2.737a33.113,33.113,0,0,1-11.455,2.5C2450.514,1347.126,2450.89,1341.194,2454.647,1342Z" transform="translate(-2377.751 -1241.164)" fill="#f69d85"/>
    <path id="Trazado_1008224" data-name="Trazado 1008224" d="M2411.5,1369.61a21.219,21.219,0,0,0,15.345-.162,1.286,1.286,0,0,1,1.127,2.309,26.888,26.888,0,0,1-3.635,1.668,24.95,24.95,0,0,1-14.5.744C2405.357,1373.414,2407.773,1367.061,2411.5,1369.61Z" transform="translate(-2338.525 -1266.214)" fill="#f69d85"/>
    <path id="Trazado_1008225" data-name="Trazado 1008225" d="M2515.557,1318.373a.238.238,0,0,1-.12.286,24.05,24.05,0,0,1-6.348,2.039.238.238,0,1,1-.07-.471,23.542,23.542,0,0,0,6.2-1.994.238.238,0,0,1,.319.106C2515.548,1318.35,2515.553,1318.361,2515.557,1318.373Z" transform="translate(-2428.45 -1221.162)" fill="#af5945"/>
    <path id="Trazado_1008226" data-name="Trazado 1008226" d="M2529.076,1344.463a.237.237,0,0,1-.122.286,21.352,21.352,0,0,1-5.377,1.727.238.238,0,0,1-.071-.471,21.286,21.286,0,0,0,5.24-1.684.239.239,0,0,1,.319.11A.134.134,0,0,1,2529.076,1344.463Z" transform="translate(-2441.298 -1244.298)" fill="#af5945"/>
    <path id="Trazado_1008227" data-name="Trazado 1008227" d="M2514.188,1378.856a.238.238,0,0,1-.154.3,30.188,30.188,0,0,1-5.075,1.143.238.238,0,0,1-.05-.474,30.276,30.276,0,0,0,4.979-1.123A.239.239,0,0,1,2514.188,1378.856Z" transform="translate(-2428.344 -1274.799)" fill="#af5945"/>
    <path id="Trazado_1008228" data-name="Trazado 1008228" d="M1921.386,984.675a5.265,5.265,0,0,0-5.692-4.8l-48.014,4.079,12.661-38.306c.033-.1.072-.229.1-.332a7.542,7.542,0,0,0-14.526-4.07l-13.457,48.03-.083.292a6.312,6.312,0,0,0,6.863,7.932l57.551-7.154A5.275,5.275,0,0,0,1921.386,984.675Z" transform="translate(-1846.125 -881.989)" fill="#f69d85"/>
    <path id="Trazado_1008229" data-name="Trazado 1008229" d="M1836.081,904.692S1816.3,900.645,1806.138,925c-5.929,14.2-10.449,35.871-4.228,45.755,4.422,7.026,29.009,10.447,57.255-2.542,0,0,2.747-9.687-3.607-17.693l-28.1.466S1837.1,919.17,1836.081,904.692Z" transform="translate(-1798.923 -854.237)" fill="#3e8edd"/>
    <path id="Trazado_1008230" data-name="Trazado 1008230" d="M2253.913,1330.653h-.022a.208.208,0,0,1-.184-.228c1.325-12.45-3.7-19.614-3.746-19.685a.207.207,0,0,1,.337-.242,20.764,20.764,0,0,1,2.426,5.217,35.2,35.2,0,0,1,1.4,14.753A.207.207,0,0,1,2253.913,1330.653Z" transform="translate(-2198.865 -1214.248)" fill="#305777"/>
    <path id="Trazado_1008231" data-name="Trazado 1008231" d="M2235.01,1440.615a73.719,73.719,0,0,1-9.118-.57,62.626,62.626,0,0,1-10.906-2.264.207.207,0,0,1,.012-.4,72.117,72.117,0,0,0,12.83-4.862,14.407,14.407,0,0,0,.54-4.122.207.207,0,0,1,.2-.211h0a.208.208,0,0,1,.208.2,14.293,14.293,0,0,1-.586,4.339.207.207,0,0,1-.1.119,72.336,72.336,0,0,1-12.3,4.745,66.432,66.432,0,0,0,10.16,2.04,68.042,68.042,0,0,0,24.856-1.344.207.207,0,0,1,.1.4A64.42,64.42,0,0,1,2235.01,1440.615Z" transform="translate(-2167.76 -1318.693)" fill="#305777"/>
    <path id="Trazado_1008232" data-name="Trazado 1008232" d="M2028.906,1085.962a.207.207,0,0,1-.181-.1,21.945,21.945,0,0,0-1.653-2.5c-1.717.026-25.364.382-34.181.7a.207.207,0,0,1-.214-.192c-.011-.16-1.135-16.163,1.592-29.7a.208.208,0,0,1,.407.082c-2.551,12.658-1.718,27.5-1.6,29.384,9.27-.325,33.837-.69,34.086-.693h0a.207.207,0,0,1,.155.07,20.808,20.808,0,0,1,1.764,2.646.207.207,0,0,1-.078.283A.2.2,0,0,1,2028.906,1085.962Z" transform="translate(-1970.531 -986.863)" fill="#305777"/>
    <path id="Trazado_1008233" data-name="Trazado 1008233" d="M2385.155,1078.31h-.014a.208.208,0,0,1-.193-.221c.87-12.693-2.156-30.219-2.187-30.395a.207.207,0,1,1,.408-.071c.031.176,3.065,17.752,2.192,30.494A.207.207,0,0,1,2385.155,1078.31Z" transform="translate(-2316.663 -981.058)" fill="#305777"/>
    <path id="Trazado_1008234" data-name="Trazado 1008234" d="M1907.983,1513.339c-.812,0-1.588-.012-2.322-.033a74.555,74.555,0,0,1-11.682-1.183.207.207,0,0,1,.084-.406,74.128,74.128,0,0,0,11.619,1.175c6.285.179,15.656-.289,24.612-3.527a.207.207,0,0,1,.141.39A67.339,67.339,0,0,1,1907.983,1513.339Z" transform="translate(-1883.071 -1390.667)" fill="#305777"/>
    <path id="Trazado_1008235" data-name="Trazado 1008235" d="M2135.537,920.736a.207.207,0,0,1-.176-.1l-10.012-16.146a.207.207,0,1,1,.353-.219l9.829,15.85,9.12-15.928a.208.208,0,0,1,.36.206l-9.294,16.23a.208.208,0,0,1-.177.1Z" transform="translate(-2088.368 -853.927)" fill="#305777"/>
    <path id="Trazado_1008236" data-name="Trazado 1008236" d="M1949.684,465.525a16.614,16.614,0,0,0-15.58-4.086c-9.9,2.186-14.912,12.384-15.193,20.71s-14.584,17.993-8.548,29.791c4.013,7.843,21.666,9.729,26.412,4.448,7.138-7.943-4.878-14.516-6.311-26.482-.854-7.125,4.384-11.345,8.942-12.863s10.194-6.831,10.194-6.831Z" transform="translate(-1896.43 -460.977)" fill="#b74f2a"/>
    <path id="Trazado_1008237" data-name="Trazado 1008237" d="M1918.149,1746.9c-5,0-9.987-.205-14.918-.615a135.006,135.006,0,0,1-22.221-3.479.207.207,0,1,1,.11-.4,134.645,134.645,0,0,0,22.156,3.466,180.558,180.558,0,0,0,53.819-3.667.207.207,0,1,1,.091.4,176.813,176.813,0,0,1-29.76,4.054C1924.341,1746.817,1921.242,1746.9,1918.149,1746.9Z" transform="translate(-1871.582 -1597.153)" fill="#305777"/>
    <rect id="Rectángulo_456168" data-name="Rectángulo 456168" width="14.128" height="7.793" transform="translate(50.834 74.342) rotate(8.546)" fill="#f1f3f2"/>
    <rect id="Rectángulo_456169" data-name="Rectángulo 456169" width="2.436" height="4.886" transform="translate(56.976 72.802) rotate(8.546)" fill="#f76c59"/>
  </g>
</svg>
