<svg xmlns="http://www.w3.org/2000/svg" width="40" height="33.947" viewBox="0 0 40 33.947">
  <g id="Grupo_1182074" data-name="Grupo 1182074" transform="translate(0 -38.74)">
    <path id="Trazado_1007740" data-name="Trazado 1007740" d="M36.85,41.889a10.783,10.783,0,0,0-15.232,0L20,43.507l-1.618-1.618A10.771,10.771,0,1,0,3.15,57.122L17.824,71.785a3.09,3.09,0,0,0,4.364,0l5.733-5.733a.781.781,0,0,0-1.105-1.105l-5.733,5.733a1.525,1.525,0,0,1-2.154,0L4.255,56.016A9.208,9.208,0,1,1,17.277,42.994l2.171,2.171a.782.782,0,0,0,1.105,0l2.171-2.171A9.208,9.208,0,1,1,35.745,56.016l-3.968,3.968a.781.781,0,0,0,1.105,1.105l3.968-3.968a10.783,10.783,0,0,0,0-15.232Z" fill="#3e5d56"/>
    <path id="Trazado_1007741" data-name="Trazado 1007741" d="M146.536,159.765a8.557,8.557,0,1,0,8.557-8.557A8.567,8.567,0,0,0,146.536,159.765Zm15.551,0a6.994,6.994,0,1,1-6.994-6.994A7,7,0,0,1,162.087,159.765Z" transform="translate(-135.088 -103.682)" fill="#3e5d56"/>
    <path id="Trazado_1007742" data-name="Trazado 1007742" d="M200.385,204.531v.594h-.594a1.569,1.569,0,0,0-1.567,1.567v1.571a1.569,1.569,0,0,0,1.567,1.567h.594v.594a1.569,1.569,0,0,0,1.567,1.567h1.571a1.569,1.569,0,0,0,1.567-1.567v-.594h.594a1.569,1.569,0,0,0,1.567-1.567v-1.571a1.569,1.569,0,0,0-1.567-1.567h-.594v-.594a1.569,1.569,0,0,0-1.567-1.567h-1.571A1.569,1.569,0,0,0,200.385,204.531Zm3.143,0v1.375a.781.781,0,0,0,.781.781h1.375l0,0,0,1.576h-1.375a.782.782,0,0,0-.781.781l0,1.379-1.576,0v-1.375a.781.781,0,0,0-.781-.781l-1.379,0,0-1.576h1.375a.782.782,0,0,0,.781-.781l0-1.379Z" transform="translate(-182.738 -151.394)" fill="#3e5d56"/>
    <circle id="Elipse_13915" data-name="Elipse 13915" cx="0.781" cy="0.781" r="0.781" transform="translate(29.053 62.223)" fill="#3e5d56"/>
  </g>
</svg>
