<svg xmlns="http://www.w3.org/2000/svg" width="116" height="116" viewBox="0 0 116 116">
  <g id="Grupo_1183476" data-name="Grupo 1183476" transform="translate(-15801.82 7005)">
    <circle id="Elipse_13955" data-name="Elipse 13955" cx="58" cy="58" r="58" transform="translate(15801.82 -7005)" fill="#3e5d56"/>
    <g id="Grupo_1183475" data-name="Grupo 1183475" transform="translate(15476.109 -10647)">
      <circle id="Elipse_13822" data-name="Elipse 13822" cx="45" cy="45" r="45" transform="translate(338.711 3655)" fill="#fff"/>
      <g id="Filled_outline" data-name="Filled outline" transform="translate(340.397 3656.662)">
        <path id="Trazado_1003154" data-name="Trazado 1003154" d="M27.645,185.823v15.492H40.4a1.823,1.823,0,1,1,0,3.645H25.823A1.823,1.823,0,0,1,24,203.137V185.823a1.823,1.823,0,0,1,3.645,0Z" transform="translate(-7.112 -148.863)" fill="#8fd0d9"/>
        <path id="Trazado_1003155" data-name="Trazado 1003155" d="M349.669,185.823v15.492H337.823a1.823,1.823,0,1,0,0,3.645h13.669a1.823,1.823,0,0,0,1.823-1.823V185.823a1.823,1.823,0,1,0-3.645,0Z" transform="translate(-283.572 -148.863)" fill="#8fd0d9"/>
        <path id="Trazado_1003156" data-name="Trazado 1003156" d="M56,288H71.525a4.321,4.321,0,0,1,4.294,4.8l-1.593,14.339H70.58V293.468H59.645A3.645,3.645,0,0,1,56,289.823Z" transform="translate(-35.467 -241.017)" fill="#fec9a3"/>
        <path id="Trazado_1003157" data-name="Trazado 1003157" d="M189.755,459.645H184V456h3.645l2.482.621a1.535,1.535,0,0,1-.372,3.025Z" transform="translate(-148.887 -389.88)" fill="#92563a"/>
        <path id="Trazado_1003158" data-name="Trazado 1003158" d="M56,288H68.758v5.468H59.645A3.645,3.645,0,0,1,56,289.823Z" transform="translate(-35.467 -241.017)" fill="#92563a"/>
        <circle id="Elipse_13793" data-name="Elipse 13793" cx="2.734" cy="2.734" r="2.734" transform="translate(23.424 17.823)" fill="#fcac1f"/>
        <path id="Trazado_1003159" data-name="Trazado 1003159" d="M392.2,174.58H384V166.6a9.334,9.334,0,0,1,2.734-6.6H392.2Z" transform="translate(-326.105 -127.597)" fill="#ffb531"/>
        <path id="Trazado_1003160" data-name="Trazado 1003160" d="M369.823,56,368,61.468h1.823v3.645h2.734v2.734h5.468V56Z" transform="translate(-311.927 -35.444)" fill="#fec9a3"/>
        <path id="Trazado_1003161" data-name="Trazado 1003161" d="M368,24h6.379a3.645,3.645,0,0,1,3.645,3.645V31.29l-2.734-3.645h-5.468A1.823,1.823,0,0,1,368,25.823Z" transform="translate(-311.927 -7.089)" fill="#92563a"/>
        <g id="Grupo_1180032" data-name="Grupo 1180032" transform="translate(16.888 56.096)">
          <path id="Trazado_1003162" data-name="Trazado 1003162" d="M0,0H3.645V9.113H0Z" transform="translate(9.113 9.113) rotate(180)" fill="#cfcfcd"/>
          <path id="Trazado_1003163" data-name="Trazado 1003163" d="M25.821,448.911,29.466,448h3.645l3.645.911a1.823,1.823,0,1,1-1.577,2.734H27.4a1.822,1.822,0,1,1-1.577-2.734Z" transform="translate(-23.998 -438.887)" fill="#cfcfcd"/>
          <path id="Trazado_1003164" data-name="Trazado 1003164" d="M408,368h3.645v9.113H408Z" transform="translate(-364.259 -368)" fill="#cfcfcd"/>
          <path id="Trazado_1003165" data-name="Trazado 1003165" d="M372.744,448.911,369.1,448h-3.645l-3.645.911a1.823,1.823,0,1,0,1.577,2.734h7.782a1.822,1.822,0,1,0,1.577-2.734Z" transform="translate(-321.712 -438.887)" fill="#cfcfcd"/>
        </g>
        <path id="Trazado_1003166" data-name="Trazado 1003166" d="M303.025,288H287.374a4.014,4.014,0,0,0-3.919,4.885l3.167,14.252h4.556l-2.734-13.669H299.38a3.645,3.645,0,0,0,3.645-3.645Z" transform="translate(-236.928 -241.017)" fill="#92563a"/>
        <path id="Trazado_1003167" data-name="Trazado 1003167" d="M281.823,456H288.2v3.645h-6.379a1.823,1.823,0,0,1,0-3.645Z" transform="translate(-233.951 -389.88)" fill="#34507b"/>
        <path id="Trazado_1003168" data-name="Trazado 1003168" d="M302.58,208v5.468l-10.935.911L288,216.2v2.734h1.823l2.734-.911H304.4a2.734,2.734,0,0,0,2.734-2.734V208Z" transform="translate(-241.04 -170.129)" fill="#fec9a3"/>
        <path id="Trazado_1003169" data-name="Trazado 1003169" d="M420.556,165.468H416v-3.189a2.278,2.278,0,1,1,4.556,0Z" transform="translate(-354.46 -127.597)" fill="#ffb531"/>
        <path id="Trazado_1003170" data-name="Trazado 1003170" d="M65.113,179.338H56V167.492L63.29,152h5.468l1.919,3.837a3.645,3.645,0,0,1-3.26,5.275h-.481l-1.823,2.734Z" transform="translate(-35.467 -120.508)" fill="#e0e0de"/>
        <path id="Trazado_1003171" data-name="Trazado 1003171" d="M80,296h3.645v1.823H80Z" transform="translate(-56.733 -248.105)" fill="#bfbfbd"/>
        <path id="Trazado_1003172" data-name="Trazado 1003172" d="M125.468,45.667l1.069-2.734h3.289V39.772l1.11-1.11-1.11-2.221v-.555A3.886,3.886,0,0,0,125.988,32a3.964,3.964,0,0,0-3.937,3.974l-.982,6.961L120,45.667Z" transform="translate(-92.177 -14.175)" fill="#fec9a3"/>
        <path id="Trazado_1003173" data-name="Trazado 1003173" d="M117.52,39.1l-.842-.842a1.364,1.364,0,0,1,1.588-2.178l.3.152,2.966-3.954A3.869,3.869,0,0,0,120.073,32h-1.767q-.1,0-.208,0a4.986,4.986,0,0,0-4.678,5.631l.025.151a16.421,16.421,0,0,0,1.758,5.149Z" transform="translate(-86.312 -14.177)" fill="#ffb531"/>
        <path id="Trazado_1003174" data-name="Trazado 1003174" d="M323.645,165.468,320,164.556v-3.645l3.645-.911Z" transform="translate(-269.395 -127.597)" fill="#348fd9"/>
        <path id="Trazado_1003175" data-name="Trazado 1003175" d="M176.226,172.758A8.236,8.236,0,0,1,168,164.531V160h1.823v4.531a6.4,6.4,0,0,0,12.537,1.84l1.17-3.9a.911.911,0,0,1,.873-.649h.911v1.823h-.233l-.975,3.25A8.226,8.226,0,0,1,176.226,172.758Z" transform="translate(-134.709 -127.597)" fill="#348fd9"/>
        <path id="Trazado_1003176" data-name="Trazado 1003176" d="M147.645,90.024A3.649,3.649,0,0,1,144,86.379V80h1.823v6.379a1.823,1.823,0,1,0,3.645,0v-.911h1.823v.911A3.649,3.649,0,0,1,147.645,90.024Z" transform="translate(-113.443 -56.71)" fill="#348fd9"/>
        <path id="Trazado_1003177" data-name="Trazado 1003177" d="M124.384,152.739l7.463,7.463,7.29-6.379h3.645v3.645h-2.734l-5.468,6.379a4.928,4.928,0,0,1-5.468,0l-8.278-7.45a2.522,2.522,0,0,1,1.687-4.4h.078a2.522,2.522,0,0,1,1.783.739Z" transform="translate(-92.177 -120.508)" fill="#fec9a3"/>
        <path id="Trazado_1003178" data-name="Trazado 1003178" d="M124.384,152.739A2.522,2.522,0,0,0,122.6,152h-.078a2.522,2.522,0,0,0-1.687,4.4l2.81,2.529,3.645-3.281Z" transform="translate(-92.177 -120.508)" fill="#e0e0de"/>
        <path id="Trazado_1003179" data-name="Trazado 1003179" d="M41.462,72.942l-1.71-.428.6-5.36-1.811-.2-.594,5.341H36.025V59.536a.911.911,0,0,0-.911-.911H34.2V54.98h1.856a3.432,3.432,0,0,1,2.411,1,3.387,3.387,0,0,1,1,2.411,3.283,3.283,0,0,1-.021.377l-.7,6.337,1.811.2.7-6.335a5.045,5.045,0,0,0,.032-.581,5.2,5.2,0,0,0-1.532-3.7,5.268,5.268,0,0,0-3.7-1.532h-5.5V50.7l1.4-2.1a4.515,4.515,0,0,0,1.359-.211l3.011,2.71a.912.912,0,0,0,.1.081,5.832,5.832,0,0,0,3.239.984c.179,0,.359-.009.538-.026A8.216,8.216,0,0,0,49.4,46.383l.428-1.427h.668l3.536.884a.951.951,0,0,0,.782-.166.911.911,0,0,0,.35-.718V39.488a.911.911,0,0,0-1.132-.884l-3.536.884H46.96a.911.911,0,0,0-.6.225l-6.649,5.818-3.85-3.85-.7-1.409a3.651,3.651,0,0,0,2.691-3.517v-.023a.911.911,0,0,0,.712-.888V33.059l.844-.844a.911.911,0,0,0,.171-1.052l-1.015-2.029v-.341A4.771,4.771,0,0,0,37.153,25.4,4.912,4.912,0,0,0,33.761,24c-1.808,0-3.516-.055-5.066,1.031a3.644,3.644,0,1,0-3.639,6.09l.551-1.737a1.823,1.823,0,1,1,1.775-3.088A5.937,5.937,0,0,0,26.2,30.656a16.7,16.7,0,0,0,1.858,5.309L21.444,49.992V44.044a2.734,2.734,0,0,0-5.468,0v1.823H17.8V44.044a.911.911,0,0,1,1.823,0V62.27h-.911a.912.912,0,0,1-.911-.911V47.689H15.977V61.359a2.737,2.737,0,0,0,2.734,2.734h.911v1.823a.911.911,0,0,0,.911.911h.911v4.756l-2.857.714a2.734,2.734,0,1,0,2.158,4.554h6.865A2.733,2.733,0,1,0,29.769,72.3l-2.857-.714V66.826h2.734a.911.911,0,0,0,.911-.911V64.092h2.734a2.736,2.736,0,0,0,.911-.155V76.85a.911.911,0,0,0,.911.911h5.755a2.446,2.446,0,0,0,.593-4.82ZM32.38,58.625H30.557V54.98H32.38ZM30.557,35.133v1.621a3.638,3.638,0,0,0,.115.911h-1.4ZM28.735,41.1a1.612,1.612,0,0,1,1.611-1.611h.078a1.6,1.6,0,0,1,1.139.472l2.227,2.228-2.321,2.089-2.2-1.981A1.612,1.612,0,0,1,28.735,41.1Zm15.307,8.814,3.683-4.3-.073.243a6.366,6.366,0,0,1-3.61,4.054Zm9.3-6.125-1.823-.456V41.111l1.823-.456ZM40.27,47.464,47.3,41.311h2.391v1.823H47.871a.911.911,0,0,0-.692.318L41.8,49.73a4.006,4.006,0,0,1-4.3-.03l-4.663-4.2,2.25-2.025,3.945,3.945a.911.911,0,0,0,1.244.041Zm-5.963-8.893-.02-.04.695-1.777h1.043A1.823,1.823,0,0,1,34.307,38.571Zm2.527-8.814.817,1.634L37,32.038a.911.911,0,0,0-.267.644v2.25H34.359a.911.911,0,0,0-.849.58l-.842,2.154h-.042a1.809,1.809,0,0,1-.247-.911V30.375H30.912a.454.454,0,0,1-.02-.282.446.446,0,0,1,.253-.3c.243-.109.478.054.689.162a.911.911,0,0,0,1.145-.264l2.5-3.327a3.019,3.019,0,0,1,.39.327,2.959,2.959,0,0,1,.872,2.1v.556A.911.911,0,0,0,36.834,29.758Zm-8.822.654a4.654,4.654,0,0,1,.956-3.183c1.192-1.407,2.939-1.41,4.638-1.41l-1.648,2.2a2.276,2.276,0,0,0-2.234,3.8l.362.362-.964,1.783a15.42,15.42,0,0,1-1.109-3.546Zm1.634,43.7a.911.911,0,1,1-.788,1.366.911.911,0,0,0-.788-.454H20.287a.911.911,0,0,0-.788.454.911.911,0,1,1-.788-1.366c.074,0,3.757-.911,3.757-.911h3.421S29.571,74.116,29.646,74.116ZM25.09,71.383H23.267V66.826H25.09ZM28.735,65h-7.29V54.272l5.664-12.035a3.434,3.434,0,0,0,.941,1.413l2.81,2.529.665.6h-.055a.911.911,0,0,0-.758.406l-1.823,2.734a.912.912,0,0,0-.153.506Zm5.2-3a.91.91,0,0,1-.646.267H30.557V60.447h2.734A.912.912,0,0,1,33.937,62Zm6.931,13.936H36.025V74.116h2.622l2.373.593a.624.624,0,0,1-.151,1.229Z" transform="translate(0 -7.085)"/>
        <path id="Trazado_1003180" data-name="Trazado 1003180" d="M80,296h3.645v1.823H80Z" transform="translate(-56.733 -248.105)"/>
        <path id="Trazado_1003181" data-name="Trazado 1003181" d="M297.516,48.806V36.959a2.733,2.733,0,0,0-3.645-2.577V20.556A4.562,4.562,0,0,0,289.314,16h-6.379a.911.911,0,0,0-.911.911v1.823a2.737,2.737,0,0,0,1.558,2.468l-1.511,4.534a.911.911,0,0,0,.865,1.2h.911v2.734a.911.911,0,0,0,.911.911h1.823v1.458A10.171,10.171,0,0,0,283.846,39v3.8l-6.455.538a.913.913,0,0,0-.332.093l-3.645,1.823a.911.911,0,0,0-.5.815v2.734a.911.911,0,0,0,.911.911h1.823a.915.915,0,0,0,.288-.047l2.594-.865h11.7a3.622,3.622,0,0,0,1.823-.49v.49a2.737,2.737,0,0,1-2.734,2.734H278.379a.911.911,0,0,0-.894,1.09L280,65.209h-2.714l-3.009-13.541a3.065,3.065,0,0,1-.074-.672h-1.823a4.886,4.886,0,0,0,.117,1.069l2.92,13.144h-.687a2.734,2.734,0,1,0,0,5.468h6.379a.911.911,0,0,0,.89-.718,2.728,2.728,0,0,0,3.879-.194h6.865a2.733,2.733,0,1,0,2.158-4.554l-2.857-.714V58.716h-1.823V64.3H288.4v-7.29h6.379a2.737,2.737,0,0,0,2.734-2.734V50.742h-1.823v3.531a.912.912,0,0,1-.911.911H281.113a.911.911,0,0,1,0-1.823h11.847a.911.911,0,0,0,.911-.911V36.959a.911.911,0,1,1,1.823,0V48.806ZM280.2,68.854h-5.468a.911.911,0,0,1,0-1.823H280.2Zm10.823-2.734,3.536.884a.908.908,0,0,0,.221.027.911.911,0,1,1-.788,1.366.911.911,0,0,0-.788-.454h-7.782a.911.911,0,0,0-.788.454.911.911,0,1,1-.788-1.366.909.909,0,0,0,.221-.027l3.536-.884Zm-9.912-9.113h5.468V64.5l-2.857.714a2.723,2.723,0,0,0-1.72.715l-1.816-9.08A2.722,2.722,0,0,0,281.113,57.007Zm8.2-22.326a1.367,1.367,0,0,1,2.734,0v2.278h-2.734Zm-5.468-16.859h5.468a2.737,2.737,0,0,1,2.734,2.734v.911l-1.094-1.458a.911.911,0,0,0-.729-.365h-5.468a.912.912,0,0,1-.911-.911Zm1.823,10.935V26.024a.911.911,0,0,0-.911-.911H284.2l1.215-3.645h4.355l2.278,3.038v6.986H288.4V29.669a.911.911,0,0,0-.911-.911Zm0,10.245a8.358,8.358,0,0,1,2.052-5.506,3.173,3.173,0,0,0-.229,1.185V42.5l-1.823.152Zm4.556,7.98H278.379a.915.915,0,0,0-.288.047l-2.594.865h-.763V46.635l2.984-1.492,10.76-.9a.911.911,0,0,0,.836-.908V38.782h2.734v6.379A1.825,1.825,0,0,1,290.225,46.983Z" transform="translate(-226.862)"/>
      </g>
    </g>
  </g>
</svg>
