<svg xmlns="http://www.w3.org/2000/svg" width="96" height="96" viewBox="0 0 96 96">
  <g id="Grupo_1177479" data-name="Grupo 1177479" transform="translate(-383.746 -8400.001)">
    <path id="Trazado_997400" data-name="Trazado 997400" d="M48,0A48,48,0,1,1,0,48,48,48,0,0,1,48,0Z" transform="translate(383.746 8400.001)" fill="#ffbdb6"/>
    <g id="Grupo_1181667" data-name="Grupo 1181667" transform="translate(403.673 8419.435)">
      <path id="Trazado_1006149" data-name="Trazado 1006149" d="M55.725,20l-9.757,3.9-2.387-.682,3.728-3.727a4.627,4.627,0,1,0-6.545-6.543l-.928.927v-6.7a4.418,4.418,0,0,0-4.413-4.413H29.245A1.767,1.767,0,0,0,27.48,1H13.357a1.767,1.767,0,0,0-1.765,1.765H5.413A4.418,4.418,0,0,0,1,7.179V51.311a4.418,4.418,0,0,0,4.413,4.413h30.01a4.418,4.418,0,0,0,4.413-4.413V36.221a8.915,8.915,0,0,0,6.029-1.4l.377-.252,9.482.948ZM34.541,8.061V19.17l-1.295,1.295A9.145,9.145,0,0,0,29.3,21l-3.586,1.346V9.827H8.061V32.776H18.91a2.965,2.965,0,0,0,.883,1.143L17.882,35.83l-2.9,8.688a2.1,2.1,0,0,0-.98,1.174l-.282.849a.545.545,0,0,1-.932.125l-1.007-1.509a2.032,2.032,0,0,0-3.724,1.126v2.381H9.827V46.283a.277.277,0,0,1,.49-.148l1.007,1.509A2.288,2.288,0,0,0,15.4,47.1l.282-.848a.356.356,0,0,1,.65,0l.4,1.207a1.764,1.764,0,0,0,1.675,1.207h4.66V46.9h-4.66L18,45.69a2.1,2.1,0,0,0-.663-.955l7.084-2.361,7.825-7.825a12.31,12.31,0,0,1,2.29.321V50.429H6.3V8.061ZM19.1,30.042a2.932,2.932,0,0,0-.38.968H9.827a7.056,7.056,0,0,1,11.887-5.149ZM13.357,18.653a3.531,3.531,0,1,1,3.531,3.531A3.534,3.534,0,0,1,13.357,18.653Zm9.353,5.733a8.823,8.823,0,0,0-2.566-1.566,5.3,5.3,0,1,0-6.519,0,8.86,8.86,0,0,0-3.8,2.921V11.592H23.949V23.24A6.2,6.2,0,0,0,22.711,24.386ZM17.936,41.25l1.07,1.07-1.6.535Zm2.942.446L18.56,39.378l.479-1.438,3.276,3.276ZM19.9,36.306l5.826-5.826a4.37,4.37,0,0,0,.723,2.076L21.3,37.706Zm4.048,4.048-1.4-1.4L27.7,33.8a4.362,4.362,0,0,0,2.077.724Zm-2.883-7.709a1.17,1.17,0,0,1-.47-1.668l3.15-5.039a4.429,4.429,0,0,1,2.192-1.793l3.983-1.493a7.276,7.276,0,0,1,1.517-.38ZM38.072,18.136l1.4,1.4-7.945,7.945-2.8,0Zm1.248-1.248,1.4-1.4,4.048,4.048-1.4,1.4Zm1.4,3.9,1.4,1.4L38.893,25.41a7.119,7.119,0,0,1-4.861,2.062Zm3.317-7.427a2.863,2.863,0,0,1,2.024,4.886l-.045.044L41.968,14.24l.045-.045a2.839,2.839,0,0,1,2.023-.838ZM35.424,4.531a2.651,2.651,0,0,1,2.648,2.648V15.64l-1.765,1.765V6.3H29.245V4.531ZM27.48,2.765V6.3H13.357V2.765Zm7.944,51.194H5.413a2.651,2.651,0,0,1-2.648-2.648V7.179A2.651,2.651,0,0,1,5.413,4.531h6.179V6.3H4.531v45.9H36.306V35.333l1.765.5V51.311A2.651,2.651,0,0,1,35.424,53.959Zm9.709-20.773-.246.165a7.145,7.145,0,0,1-5.88.918l-3.324-.95a14.088,14.088,0,0,0-3.878-.544H30.117a2.641,2.641,0,0,1-2.637-2.638.892.892,0,0,1,.892-.889l5.525-.005a8.891,8.891,0,0,0,6.245-2.585l2.012-2.012,2.979.851Zm8.827.38L46.9,32.859v-7.43L53.959,22.6Z" fill="#773b3d"/>
      <path id="Trazado_1006150" data-name="Trazado 1006150" d="M31,11h5.3v1.765H31Z" transform="translate(-3.52 -1.173)" fill="#773b3d"/>
      <path id="Trazado_1006151" data-name="Trazado 1006151" d="M31,15h5.3v1.765H31Z" transform="translate(-3.52 -1.643)" fill="#773b3d"/>
      <path id="Trazado_1006152" data-name="Trazado 1006152" d="M31,19h5.3v1.765H31Z" transform="translate(-3.52 -2.112)" fill="#773b3d"/>
      <path id="Trazado_1006153" data-name="Trazado 1006153" d="M9,39h3.531v1.765H9Z" transform="translate(-0.939 -4.459)" fill="#773b3d"/>
      <path id="Trazado_1006154" data-name="Trazado 1006154" d="M9,43h5.3v1.765H9Z" transform="translate(-0.939 -4.928)" fill="#773b3d"/>
    </g>
  </g>
</svg>
