<svg xmlns="http://www.w3.org/2000/svg" width="96" height="96" viewBox="0 0 96 96">
  <g id="Grupo_1180875" data-name="Grupo 1180875" transform="translate(-383.746 -8400.001)">
    <path id="Trazado_997400" data-name="Trazado 997400" d="M48,0A48,48,0,1,1,0,48,48,48,0,0,1,48,0Z" transform="translate(383.746 8400.001)" fill="#ffbdb6"/>
    <g id="_x34_2_Trust" transform="translate(394.22 8386.931)">
      <g id="Grupo_1181669" data-name="Grupo 1181669" transform="translate(4.707 31.788)">
        <g id="Grupo_1181668" data-name="Grupo 1181668" transform="translate(0)">
          <path id="Trazado_1006155" data-name="Trazado 1006155" d="M70.165,211.367a1.027,1.027,0,0,0-1.425-.268c-2.48,1.694-4.962,3.5-7.379,5.359-.348.269-.977.475-1.19.174l-8.355-12.74a1.465,1.465,0,0,1,.544-.549c1.789-1.089,3.571-2.222,5.3-3.368a1.025,1.025,0,1,0-1.134-1.709c-1.7,1.13-3.463,2.249-5.227,3.323a3.5,3.5,0,0,0-1.336,1.432H25.093a3.493,3.493,0,0,0-1.334-1.43c-1.767-1.076-3.526-2.194-5.23-3.325a1.025,1.025,0,1,0-1.134,1.709c1.725,1.145,3.507,2.279,5.3,3.369a2.343,2.343,0,0,1,.514.5L15.13,216.268c-.1.042-.331,1.045-1.442.188-2.416-1.861-4.9-3.664-7.378-5.358a1.025,1.025,0,1,0-1.157,1.694c2.447,1.672,4.9,3.451,7.282,5.288a2.837,2.837,0,0,0,4.137-.289l.434-.632a5.533,5.533,0,0,1,1.653,2.3,3.513,3.513,0,0,0-.681.676,3.559,3.559,0,0,0,.744,4.979l.128.095a3.388,3.388,0,0,0,2.441.658,3.615,3.615,0,0,0,1.445,2.65h0a3.512,3.512,0,0,0,2.763.644,3.621,3.621,0,0,0,1.436,2.465,3.529,3.529,0,0,0,2.912.621,3.274,3.274,0,0,0,5.614,1.652A3.756,3.756,0,0,0,41,231.095l.473.337a3.764,3.764,0,0,0,5.861-2.625,3.764,3.764,0,0,0,5.647-2.771l.035.024a3.761,3.761,0,0,0,4.28-6.185l-.176-.134,2.091-1.266a3.055,3.055,0,0,0,3.4-.394c2.385-1.837,4.835-3.617,7.283-5.289a1.025,1.025,0,0,0,.268-1.425ZM22.357,222.916l-.421.582a1.506,1.506,0,0,1-1.867.062h0l-.127-.094a1.507,1.507,0,1,1,1.795-2.422l.127.094A1.506,1.506,0,0,1,22.357,222.916Zm3.819,3.622a1.584,1.584,0,0,1-2.6-1.812c.164-.179.92-1.25,1.192-1.625a1.587,1.587,0,0,1,2.552,1.887Zm4.2,3.109a1.587,1.587,0,0,1-2.219.331h0a1.586,1.586,0,0,1-.331-2.219l2.166-2.926a1.587,1.587,0,1,1,2.551,1.888Zm4.019,2.331-.3.4a1.257,1.257,0,0,1-1.758.263h0a1.259,1.259,0,0,1-.262-1.758l.3-.4a1.257,1.257,0,1,1,2.021,1.5Zm22.162-8.05a1.712,1.712,0,0,1-2.382.438l-10.65-7.288a1.025,1.025,0,1,0-1.161,1.691l7.854,5.393a1.709,1.709,0,0,1-1.935,2.818l-7.855-5.393a1.024,1.024,0,0,0-1.287.1l-.082.078a1.026,1.026,0,0,0,.141,1.6l5.372,3.558a1.709,1.709,0,0,1-1.92,2.828L37.6,226.146a1.026,1.026,0,0,0-1.215,1.653l1.858,1.407a1.713,1.713,0,0,1-1.693,2.964,3.287,3.287,0,0,0-2.408-4.158l.052-.071a3.637,3.637,0,0,0-4.795-5.282,3.619,3.619,0,0,0-5.19-1.75,3.528,3.528,0,0,0-1.123-1.423l-.127-.094a3.525,3.525,0,0,0-2.378-.672,7.755,7.755,0,0,0-2.38-3.252l6.776-9.915a2.326,2.326,0,0,0,.248-.482h4.643A7.08,7.08,0,0,0,26.31,211.2v1.278a2.445,2.445,0,0,0,3.179,2.333,4.756,4.756,0,0,0,2.757-2.432,3.808,3.808,0,0,1,6.332-.524,5.8,5.8,0,0,0,4.979,2.3,5.34,5.34,0,0,1,3,.921l8.06,5.458.015.011,1.474,1,0,0a1.711,1.711,0,0,1,.442,2.377Zm-1.315-5.445-7.532-5.1a7.386,7.386,0,0,0-4.154-1.274,3.845,3.845,0,0,1-3.32-1.455,5.859,5.859,0,0,0-9.8.77,2.723,2.723,0,0,1-1.555,1.434.4.4,0,0,1-.517-.375V211.2a5.031,5.031,0,0,1,2.577-4.389l3.123-1.743H49.829a2.334,2.334,0,0,0,.249.482L57.864,216.9Z" transform="translate(-4.707 -176.375)" fill="#773b3d"/>
          <path id="Trazado_1006156" data-name="Trazado 1006156" d="M182.909,53.735a10.974,10.974,0,1,0-10.974-10.974A10.992,10.992,0,0,0,182.909,53.735Zm0-19.9a8.922,8.922,0,1,1-8.923,8.922A8.938,8.938,0,0,1,182.909,33.839Z" transform="translate(-150.095 -31.788)" fill="#773b3d"/>
          <path id="Trazado_1006157" data-name="Trazado 1006157" d="M224.771,96a1.025,1.025,0,0,0,1.45,0l4.847-4.847a1.025,1.025,0,0,0-1.45-1.45L225.5,93.825l-1.085-1.085a1.025,1.025,0,0,0-1.45,1.45Z" transform="translate(-194.196 -81.879)" fill="#773b3d"/>
        </g>
      </g>
    </g>
  </g>
</svg>
