<svg xmlns="http://www.w3.org/2000/svg" width="96" height="96" viewBox="0 0 96 96">
  <g id="Grupo_1180876" data-name="Grupo 1180876" transform="translate(-383.746 -8400.001)">
    <path id="Trazado_997400" data-name="Trazado 997400" d="M48,0A48,48,0,1,1,0,48,48,48,0,0,1,48,0Z" transform="translate(383.746 8400.001)" fill="#ffbdb6"/>
    <g id="Grupo_1181670" data-name="Grupo 1181670" transform="translate(396.69 8333.371)">
      <path id="Trazado_1006158" data-name="Trazado 1006158" d="M224.76,217.328a1.027,1.027,0,0,0-1.027-1.027h-.012a1.027,1.027,0,1,0,1.039,1.027Z" transform="translate(-192.204 -107.106)" fill="#773b3d"/>
      <path id="Trazado_1006159" data-name="Trazado 1006159" d="M275.146,216.3h-.012a1.033,1.033,0,1,0,.012,0Z" transform="translate(-236.577 -107.106)" fill="#773b3d"/>
      <path id="Trazado_1006160" data-name="Trazado 1006160" d="M236.258,252.738a2.444,2.444,0,0,1-3.319,0,1.027,1.027,0,0,0-1.375,1.526,4.5,4.5,0,0,0,6.069,0,1.027,1.027,0,0,0-1.375-1.526Z" transform="translate(-199.562 -138.326)" fill="#773b3d"/>
      <path id="Trazado_1006161" data-name="Trazado 1006161" d="M112.35,218.355a1.033,1.033,0,1,0-.012,0Z" transform="translate(-96.068 -107.106)" fill="#773b3d"/>
      <path id="Trazado_1006162" data-name="Trazado 1006162" d="M61.957,217.328a1.03,1.03,0,1,0-1.033,1.027h.012A1.022,1.022,0,0,0,61.957,217.328Z" transform="translate(-51.695 -107.106)" fill="#773b3d"/>
      <path id="Trazado_1006163" data-name="Trazado 1006163" d="M68.892,254.265a4.5,4.5,0,0,0,6.069,0,1.027,1.027,0,1,0-1.375-1.526,2.444,2.444,0,0,1-3.319,0,1.027,1.027,0,0,0-1.375,1.526Z" transform="translate(-59.165 -138.326)" fill="#773b3d"/>
      <path id="Trazado_1006164" data-name="Trazado 1006164" d="M21.66,124.1a8.054,8.054,0,0,0-5.379-2.055H9.241a8.077,8.077,0,0,0-8.068,8.068v3.349a3.271,3.271,0,0,0-1.128,1.959,3.376,3.376,0,0,0,3.328,3.933h.2a9.257,9.257,0,0,0,4.637,7.014v1.829a1.311,1.311,0,0,1-.941,1.264l-4.033,1.21A4.519,4.519,0,0,0,0,155.024v6.765a1.027,1.027,0,1,0,2.054,0v-6.765a2.478,2.478,0,0,1,1.777-2.388l2.061-.618a10.412,10.412,0,0,0,13.748-.008,1.026,1.026,0,0,0,.457-2l-1.848-.554a1.312,1.312,0,0,1-.941-1.264v-1.84a9.262,9.262,0,0,0,4.311-5.39,1.027,1.027,0,0,0-1.969-.586,7.188,7.188,0,0,1-14.076-2.054A1.027,1.027,0,0,0,4.547,137.3H3.374a1.321,1.321,0,0,1-1.3-1.549A1.421,1.421,0,0,1,3.5,134.658H4.547a3.378,3.378,0,0,0,3.374-3.374V130.19l10.506,2.1a1.027,1.027,0,0,0,.4-2.014L7.1,127.93a1.027,1.027,0,0,0-1.228,1.007v2.347a1.321,1.321,0,0,1-1.32,1.32H3.5c-.091,0-.182.005-.272.012v-2.505A6.02,6.02,0,0,1,9.241,124.1h7.04a6,6,0,0,1,4.009,1.531,1.027,1.027,0,1,0,1.37-1.531Zm-6.406,23.118v.979a3.348,3.348,0,0,0,1.97,3.066,8.362,8.362,0,0,1-8.926,0,3.348,3.348,0,0,0,1.97-3.066v-.973a9.215,9.215,0,0,0,2.493.343A9.117,9.117,0,0,0,15.254,147.216Z" transform="translate(0 -25.756)" fill="#773b3d"/>
      <path id="Trazado_1006165" data-name="Trazado 1006165" d="M184.676,97.88V94.4a2.2,2.2,0,0,0-3.069-2.022l-6.162,2.648-6.162-2.648a2.2,2.2,0,0,0-3.069,2.022V97.88a2.2,2.2,0,0,0,.224.966,12.746,12.746,0,0,0-3.744,9.029v2.347h0a3.373,3.373,0,0,0,3.373,3.374h.2a9.257,9.257,0,0,0,4.618,7v1.84a1.311,1.311,0,0,1-.941,1.264l-4.033,1.21a4.519,4.519,0,0,0-3.241,4.356v6.765a1.027,1.027,0,0,0,2.054,0v-6.765a2.478,2.478,0,0,1,1.777-2.388l2.06-.618a10.413,10.413,0,0,0,13.74,0l2.061.618a2.478,2.478,0,0,1,1.777,2.388v6.765a1.027,1.027,0,0,0,2.054,0v-6.765a4.519,4.519,0,0,0-3.241-4.355l-4.033-1.21a1.312,1.312,0,0,1-.941-1.264v-1.818a9.258,9.258,0,0,0,4.656-7.025h.2a3.373,3.373,0,0,0,3.373-3.374h0v-2.347a12.779,12.779,0,0,0-3.756-9.041,2.2,2.2,0,0,0,.217-.954Zm-2.258-3.612a.146.146,0,0,1,.2.134V97.88a.146.146,0,0,1-.2.134l-4.359-1.873Zm-14.151.134a.139.139,0,0,1,.066-.122.142.142,0,0,1,.079-.025.15.15,0,0,1,.059.013l4.359,1.873-4.359,1.873a.146.146,0,0,1-.2-.134Zm-.133,5.66a2.179,2.179,0,0,0,.279.019,2.2,2.2,0,0,0,.87-.18l6.162-2.648,6.162,2.648a2.173,2.173,0,0,0,1.161.159,10.721,10.721,0,0,1,3.364,7.081,3.6,3.6,0,0,0-1.417-.293h-1.048a1.321,1.321,0,0,1-1.32-1.32,1.027,1.027,0,0,0-.826-1.007l-11.734-2.347a1.027,1.027,0,0,0-1.228,1.007v2.347a1.321,1.321,0,0,1-1.32,1.32h-1.048a3.6,3.6,0,0,0-1.419.294,10.694,10.694,0,0,1,3.361-7.08ZM179.9,125.505a8.362,8.362,0,0,1-8.926,0,3.348,3.348,0,0,0,1.97-3.066v-.978a9.229,9.229,0,0,0,4.986.01v.968A3.348,3.348,0,0,0,179.9,125.505Zm5.949-14.429a1.319,1.319,0,0,1-1.006.466h-1.173a1.027,1.027,0,0,0-1.027,1.027,7.187,7.187,0,0,1-14.374,0,1.027,1.027,0,0,0-1.027-1.027h-1.173a1.321,1.321,0,0,1-1.3-1.549,1.421,1.421,0,0,1,1.427-1.091h1.048a3.378,3.378,0,0,0,3.374-3.374v-1.094l9.792,1.958a3.38,3.38,0,0,0,3.262,2.509h1.048a1.421,1.421,0,0,1,1.427,1.091A1.318,1.318,0,0,1,185.847,111.076Z" transform="translate(-140.398)" fill="#773b3d"/>
      <path id="Trazado_1006166" data-name="Trazado 1006166" d="M367.69,136.649h2.263a3.378,3.378,0,0,0,3.374-3.374v-7.04a12.761,12.761,0,0,0-21.695-9.112,1.027,1.027,0,0,0,1.438,1.467,10.707,10.707,0,0,1,18.2,7.646v7.04a1.321,1.321,0,0,1-1.32,1.32h-1.01a9.743,9.743,0,0,0,.864-4.013,7.049,7.049,0,0,0-4.826-6.7l-8.412-2.8a2.2,2.2,0,0,0-2.9,2.087v.719a1.027,1.027,0,1,0,2.054,0v-.719a.146.146,0,0,1,.193-.139l8.412,2.8a5,5,0,0,1,3.422,4.75,7.422,7.422,0,0,1-6.965,7.528,7.2,7.2,0,0,1-7.111-5.13,1.027,1.027,0,0,0-1.969.586,9.228,9.228,0,0,0,4.311,5.4V140.8a1.311,1.311,0,0,1-.941,1.264l-1.848.554a1.026,1.026,0,0,0,.457,2,10.412,10.412,0,0,0,13.748.008l2.061.618a2.478,2.478,0,0,1,1.777,2.388v6.765a1.027,1.027,0,1,0,2.054,0v-6.765a4.519,4.519,0,0,0-3.241-4.355l-4.033-1.21a1.312,1.312,0,0,1-.941-1.264v-1.886a9.514,9.514,0,0,0,2.578-2.264Zm-2.662,7.216a8.362,8.362,0,0,1-8.926,0,3.348,3.348,0,0,0,1.97-3.066v-.975a9.226,9.226,0,0,0,2.5.345q.139,0,.279,0a8.732,8.732,0,0,0,2.21-.354v.988A3.349,3.349,0,0,0,365.029,143.865Z" transform="translate(-303.215 -18.36)" fill="#773b3d"/>
      <path id="Trazado_1006167" data-name="Trazado 1006167" d="M386.68,216.3h-.012a1.033,1.033,0,1,0,.012,0Z" transform="translate(-332.838 -107.106)" fill="#773b3d"/>
      <path id="Trazado_1006168" data-name="Trazado 1006168" d="M439.12,217.328a1.027,1.027,0,0,0-1.027-1.027h-.012a1.027,1.027,0,1,0,1.039,1.027Z" transform="translate(-377.21 -107.106)" fill="#773b3d"/>
      <path id="Trazado_1006169" data-name="Trazado 1006169" d="M399.205,252.738a2.444,2.444,0,0,1-3.319,0,1.027,1.027,0,0,0-1.375,1.526,4.5,4.5,0,0,0,6.069,0,1.027,1.027,0,0,0-1.375-1.526Z" transform="translate(-340.195 -138.326)" fill="#773b3d"/>
    </g>
  </g>
</svg>
