<svg id="Grupo_1182076" data-name="Grupo 1182076" xmlns="http://www.w3.org/2000/svg" xmlns:xlink="http://www.w3.org/1999/xlink" width="416.458" height="137" viewBox="0 0 416.458 137">
  <defs>
    <clipPath id="clip-path">
      <rect id="Rectángulo_456158" data-name="Rectángulo 456158" width="416.458" height="137" fill="none"/>
    </clipPath>
  </defs>
  <g id="Grupo_1182075" data-name="Grupo 1182075" clip-path="url(#clip-path)">
    <path id="Trazado_1007743" data-name="Trazado 1007743" d="M72.173,38.737,69.262,53.95s5.032,7.362,12.128,6.933A12.38,12.38,0,0,0,91.4,54.25L87.885,38.038Z" transform="translate(-19.376 -10.641)" fill="#f4b3a6"/>
    <path id="Trazado_1007744" data-name="Trazado 1007744" d="M90.474,46.255l-1.78-8.217-15.712.7-.83,4.338c3.363,2.434,9.473,5.246,18.323,3.18" transform="translate(-20.184 -10.641)" fill="#d38579"/>
    <path id="Trazado_1007745" data-name="Trazado 1007745" d="M65.593,21.727a4.944,4.944,0,0,1-.794-2.14c-.059-1.067,1.221-1.564,1.221-1.564s-1.422-1.848-.924-2.772S67.2,14.112,67.2,14.112s-1.018-1.848-.355-2.844,3.4-.569,3.4-.569-.32-2.346.605-2.915,3.483,1.138,3.483,1.138S74.1,6.861,75.179,6.5s2.074,1.706,2.074,1.706.64-1.919,1.99-1.991,1.564,2.133,1.564,2.133,1.991-1.636,3.2-1.138,1.209,2.631,1.209,2.631,2.053-1.422,2.875-.711.822,2.915.822,2.915,1.706-.711,2.347.355-.427,2.773-.427,2.773a1.348,1.348,0,0,1,1.706.854,2.763,2.763,0,0,1-.794,2.429,1.3,1.3,0,0,1,1.067,1.067c.225.983-1.765,2.2-1.765,2.2Z" transform="translate(-18.127 -1.74)" fill="#030407"/>
    <path id="Trazado_1007746" data-name="Trazado 1007746" d="M70.887,32.413c2.476,4.913,14.88,5.694,17.852.04C92.148,25.965,90,15.822,90,15.822l-8.16-3.946-10.475,3.2s-2.677,12.987-.483,17.34" transform="translate(-19.589 -3.322)" fill="#f4b3a6"/>
    <path id="Trazado_1007747" data-name="Trazado 1007747" d="M77.788,21.133l-2.55.447a.956.956,0,0,1-.33-1.884l2.55-.447a.956.956,0,1,1,.331,1.884" transform="translate(-20.734 -5.381)" fill="#030407"/>
    <path id="Trazado_1007748" data-name="Trazado 1007748" d="M92.608,21.534l-2.575-.267a.956.956,0,1,1,.2-1.9l2.576.266a.957.957,0,1,1-.2,1.9" transform="translate(-24.946 -5.416)" fill="#030407"/>
    <path id="Trazado_1007749" data-name="Trazado 1007749" d="M72.367,28.016A5.546,5.546,0,0,1,76.22,26.68,3.549,3.549,0,0,1,79,28.09a3.6,3.6,0,0,1-3.122,1.453,4.305,4.305,0,0,1-3.506-1.527" transform="translate(-20.244 -7.46)" fill="#fff"/>
    <path id="Trazado_1007750" data-name="Trazado 1007750" d="M78.095,28.1a1.438,1.438,0,1,1-1.438-1.438A1.438,1.438,0,0,1,78.095,28.1" transform="translate(-21.042 -7.459)" fill="#030407"/>
    <path id="Trazado_1007751" data-name="Trazado 1007751" d="M80.51,35.069c.16,0,4.692.266,4.692.266s-.907,2.773-2.56,2.56-2.133-2.826-2.133-2.826" transform="translate(-22.522 -9.81)" fill="#fff"/>
    <path id="Trazado_1007752" data-name="Trazado 1007752" d="M83.277,21.341Q82.99,25.523,82.7,29.7a.27.27,0,0,0,.267.266c.64.008,1.281.01,1.922,0a.267.267,0,0,0,0-.534c-.525.007-1.052-.007-1.577,0-.506.009-.063.19-.071.153a7.87,7.87,0,0,1,.124-1.8q.22-3.224.442-6.448c.024-.343-.509-.341-.533,0" transform="translate(-23.136 -5.899)" fill="#030407"/>
    <path id="Trazado_1007753" data-name="Trazado 1007753" d="M70.051,21.986s1.2-.354,1.446-1.207-.747-1.85-.747-1.85,1.278-.641,1.493-1.493-.746-1.812-.746-1.812a2.909,2.909,0,0,0,2.053,0,1.935,1.935,0,0,0,.756-1.528s.64,1.071,1.493.927,1.564-1.354,1.564-1.354a5.831,5.831,0,0,0,1.847.782c.571,0,1.567-1,1.567-1s.284,1.209,1.279,1.28a2.651,2.651,0,0,0,1.814-.746A1.913,1.913,0,0,0,85.185,15.3a2.309,2.309,0,0,0,1.991-.64,1.948,1.948,0,0,0,.711,1.636,2.28,2.28,0,0,0,1.892,0s-1.245.487-.622,1.523S90.3,18.987,90.3,18.987s-.694.655-.525,1.081,1.106,1.1,1.106,1.1l.841-2.931L90.588,14.1l-4.564-2.275L80.171,9.972,72.1,12.6l-2.841,2.7v5.332Z" transform="translate(-19.376 -2.79)" fill="#030407"/>
    <path id="Trazado_1007754" data-name="Trazado 1007754" d="M96.246,26.834a1.855,1.855,0,0,1,2.141-1.343c3.047.687,2.563,4.694.017,6.065-2.054,1.107-2.324-.861-2.324-.861Z" transform="translate(-26.878 -7.116)" fill="#f4b3a6"/>
    <path id="Trazado_1007755" data-name="Trazado 1007755" d="M98.692,30.11c.282-.678.351-1.965-.732-1.895-.3.019-.274-.443.02-.462a1.292,1.292,0,0,1,1.219.732,2.107,2.107,0,0,1-.067,1.767c-.113.273-.555.134-.44-.142" transform="translate(-27.345 -7.763)" fill="#030407"/>
    <path id="Trazado_1007756" data-name="Trazado 1007756" d="M69.049,26.834a1.855,1.855,0,0,0-2.141-1.343c-3.047.687-2.563,4.694-.017,6.065,2.054,1.107,2.324-.861,2.324-.861Z" transform="translate(-18.127 -7.116)" fill="#f4b3a6"/>
    <path id="Trazado_1007757" data-name="Trazado 1007757" d="M67.689,30.11c-.282-.678-.351-1.965.732-1.895.3.019.274-.443-.02-.462a1.292,1.292,0,0,0-1.219.732,2.107,2.107,0,0,0,.067,1.767c.113.273.555.134.44-.142" transform="translate(-18.747 -7.763)" fill="#030407"/>
    <path id="Trazado_1007758" data-name="Trazado 1007758" d="M94.562,28.016a5.545,5.545,0,0,0-3.852-1.336,3.55,3.55,0,0,0-2.777,1.41,3.6,3.6,0,0,0,3.122,1.453,4.305,4.305,0,0,0,3.506-1.527" transform="translate(-24.599 -7.46)" fill="#fff"/>
    <path id="Trazado_1007759" data-name="Trazado 1007759" d="M90.323,28.4a1.438,1.438,0,1,0,1.114-1.7,1.439,1.439,0,0,0-1.114,1.7" transform="translate(-25.259 -7.459)" fill="#030407"/>
    <path id="Trazado_1007760" data-name="Trazado 1007760" d="M62.848,60.605l4.62-.475A17.346,17.346,0,0,0,79.6,64.058c7.12-.6,10.007-3.628,10.007-3.628h4.919L84.054,88.151l-5.714,8.181L67.468,80.12Z" transform="translate(-17.582 -16.821)" fill="#7fb2df"/>
    <path id="Trazado_1007761" data-name="Trazado 1007761" d="M110.191,131.189c-.537-19.727-10.358-58.544-13.36-64.1s-21.166-7.656-21.166-7.656c-1.8,8.857-14.907,33.4-14.907,33.4-7.251-9.385-14.816-33.4-14.816-33.4l-9.908,1.951.151,1.8s-.451-.45-4.8.75S3.91,101.467,1.208,109.573s-.751,14.711,4.654,20.265,19.815,0,19.815,0v23.789h84.56c.148-5.086.223-12.563-.045-22.437" transform="translate(0 -16.627)" fill="#dbebfb"/>
    <path id="Trazado_1007762" data-name="Trazado 1007762" d="M113.869,71.19A37.518,37.518,0,0,1,111.737,89.9c-.259.678.829.971,1.085.3a38.64,38.64,0,0,0,2.133-19.311c-.1-.715-1.186-.411-1.085.3" transform="translate(-31.247 -19.717)" fill="#030407"/>
    <path id="Trazado_1007763" data-name="Trazado 1007763" d="M55.667,94.113a33.818,33.818,0,0,1-1.446-24.054c.217-.693-.869-.989-1.085-.3a35,35,0,0,0,1.559,24.921c.3.659,1.27.087.972-.568" transform="translate(-14.42 -19.406)" fill="#030407"/>
    <path id="Trazado_1007764" data-name="Trazado 1007764" d="M107.62,134.6c-.251.38-.933.374-1.522-.015s-.863-1.013-.612-1.393.933-.374,1.522.015.864,1.013.612,1.393" transform="translate(-29.483 -37.182)" fill="#030407"/>
    <path id="Trazado_1007765" data-name="Trazado 1007765" d="M96.082,131.83c.045.454.652.764,1.354.694s1.235-.5,1.19-.949-.652-.764-1.354-.694-1.235.495-1.19.949" transform="translate(-26.878 -36.611)" fill="#030407"/>
    <path id="Trazado_1007766" data-name="Trazado 1007766" d="M98.751,122.483c8.243-3.036,14.234-11.294,12.524-20.282-.323-1.7-.8-3.766-2.536-4.537a4.437,4.437,0,0,0-4.546.85c-3.213,2.645-4.312,7.959-4.45,11.888a25.1,25.1,0,0,0,.931,7.616c.619,2.219,1.415,4.75,3.416,6.1.422.285.946-.32.52-.607-2.008-1.352-2.746-4.036-3.321-6.271a23.861,23.861,0,0,1-.715-7.581,20.456,20.456,0,0,1,1.691-6.925c.989-2.2,3.05-5.495,5.963-4.389,2.406.913,2.58,5.121,2.528,7.313A16.661,16.661,0,0,1,108.826,113a19,19,0,0,1-10.349,8.734.4.4,0,0,0,.274.751" transform="translate(-27.478 -27.234)" fill="#030407"/>
    <path id="Trazado_1007767" data-name="Trazado 1007767" d="M101.765,106.822c.678-3.249,2.276-8,6.208-8.5,2.369-.3,2.946,3.119,3.19,4.862a15.128,15.128,0,0,1-.352,5.776c-.186.749.995.961,1.179.215a16.081,16.081,0,0,0,.024-7.851c-.487-1.925-1.2-4.136-3.519-4.221-4.845-.174-7.115,5.706-7.908,9.505a.6.6,0,0,0,1.179.215" transform="translate(-28.135 -27.163)" fill="#030407"/>
    <path id="Trazado_1007768" data-name="Trazado 1007768" d="M128.392,126.24c-.518-5.9-1.762-11.739-1.17-17.681.028-.288-.422-.286-.451,0-.591,5.942.653,11.785,1.171,17.681.534,6.081.342,12.259.412,18.359q.131,11.355.261,22.71h.45q-.13-11.355-.26-22.71c-.071-6.1.122-12.277-.413-18.359" transform="translate(-35.42 -30.309)" fill="#fff"/>
    <path id="Trazado_1007769" data-name="Trazado 1007769" d="M49.654,63.163l4.839,12.744a.229.229,0,0,0,.217.165l5.448-.578-.194-.339c-.823,1.2-1.659,2.4-2.47,3.611-.39.583-.779,1.014-.568,1.731.258.874,1.371,1.786,1.942,2.465L61.8,86.45A158.717,158.717,0,0,0,72.793,98.92c.208.2.527-.117.318-.318a134.031,134.031,0,0,1-9.342-10.509L59,82.427A7.3,7.3,0,0,1,57.719,80.9a2.3,2.3,0,0,1,.472-2.36l2.161-3.159a.227.227,0,0,0-.194-.339,28.382,28.382,0,0,1-4.358.462c-1.09-.063-1.125-.386-1.5-1.381q-.421-1.108-.842-2.216-1.682-4.433-3.366-8.866c-.1-.269-.537-.152-.434.12" transform="translate(-13.886 -17.594)" fill="#fff"/>
    <path id="Trazado_1007770" data-name="Trazado 1007770" d="M79.975,158.66c.017-.29-.434-.289-.45,0-.439,7.548-.717,15.105-.75,22.664h.451c.032-7.559.31-15.117.749-22.664" transform="translate(-22.037 -44.324)" fill="#fff"/>
    <path id="Trazado_1007771" data-name="Trazado 1007771" d="M83.422,105.266q-1.471,3.8-3.082,7.55c-.113.263.274.493.389.227q1.635-3.8,3.127-7.657c.1-.27-.331-.387-.434-.12" transform="translate(-22.469 -29.406)" fill="#fff"/>
    <path id="Trazado_1007772" data-name="Trazado 1007772" d="M108.72,62.581a100.188,100.188,0,0,0-3.264,9.572,8.422,8.422,0,0,1-.59,2.17c-.454.646-1.746.366-2.44.351-1.771-.036-3.541-.112-5.31-.217a.226.226,0,0,0-.114.418,16.024,16.024,0,0,1,3.778,2.63,3.244,3.244,0,0,1,1.3,2.05c.14.926.088.831-.462,1.4l-.78.807q-3.324,3.428-6.756,6.744-6.765,6.536-13.939,12.628c-.221.187.1.5.318.318q8.449-7.187,16.348-14.981,1.9-1.877,3.76-3.786c.681-.7,2.362-1.811,2.438-2.879.072-1.013-1.461-2.215-2.089-2.792a16.4,16.4,0,0,0-3.691-2.53q-.057.21-.114.419,3.911.231,7.828.245a.229.229,0,0,0,.218-.164A102.02,102.02,0,0,1,109.155,62.7c.107-.269-.329-.385-.434-.12" transform="translate(-22.4 -17.465)" fill="#fff"/>
    <rect id="Rectángulo_456150" data-name="Rectángulo 456150" width="29.911" height="46.686" transform="matrix(0.961, -0.276, 0.276, 0.961, 22.573, 77.518)" fill="#030407"/>
    <path id="Trazado_1007773" data-name="Trazado 1007773" d="M59.747,131.485s9.188-3.5,11.888-4.945,6.1-4.036,5.243-6.181-2.925-.686-2.925-.686,2.155-1.173,1.664-2.8-3.078-.848-3.078-.848,1.888-.673,1.2-2.244-3.078-.849-3.078-.849,2.079-.731,1.271-2.369-9.621,2.066-9.621,2.066,3.24-6.935,1.148-7.978-11.8,13.907-11.8,13.907Z" transform="translate(-14.453 -29.261)" fill="#f4b3a6"/>
    <path id="Trazado_1007774" data-name="Trazado 1007774" d="M29.4,126.444l17.038-4.554L56.568,138.3l-19.215,7.956Z" transform="translate(-8.224 -34.098)" fill="#dbebfb"/>
    <path id="Trazado_1007775" data-name="Trazado 1007775" d="M19.2,130.044q11.5-4.374,23.366-7.669a.225.225,0,0,0-.12-.434q-11.855,3.291-23.365,7.669c-.269.1-.152.538.12.434" transform="translate(-5.294 -34.11)" fill="#fff"/>
    <path id="Trazado_1007776" data-name="Trazado 1007776" d="M32.476,156.866a73.9,73.9,0,0,0,12.951-5.278c.256-.134.03-.523-.228-.389a73.252,73.252,0,0,1-12.843,5.233.225.225,0,0,0,.12.434" transform="translate(-9.007 -42.29)" fill="#fff"/>
    <path id="Trazado_1007777" data-name="Trazado 1007777" d="M116.295,67.98,114.381,74.7l-1.876-1.876.787-4.579Z" transform="translate(-31.473 -19.017)" fill="#dbebfb"/>
    <path id="Trazado_1007778" data-name="Trazado 1007778" d="M52.289,67.522l1.62,5.191,1.969-3.931-1.2-2.573Z" transform="translate(-14.628 -18.522)" fill="#dbebfb"/>
    <path id="Trazado_1007779" data-name="Trazado 1007779" d="M85.887,176.155a1.464,1.464,0,1,1-1.464-1.464,1.464,1.464,0,0,1,1.464,1.464" transform="translate(-23.208 -48.869)" fill="#fff"/>
    <path id="Trazado_1007780" data-name="Trazado 1007780" d="M444.347,52.906S442.8,49.8,442.9,47.695s1.3-3.191,1.448-4.748-1-3.658-.727-5.835,1.865-2.3,1.747-4.826a26,26,0,0,1,0-5.423c.256-1.911,2.658-3,2.883-5.122s2.173-7.9,10.318-8.648,11.586,5.254,11.78,6.155.194,2.852.794,3.9a8.578,8.578,0,0,1,1.651,3.971c.3,2.184-.75,4.092-.45,5.164s1.726,2.949,1.876,4.976-1.2,4.014-1.051,5.685,2.327,1.446,2.665,4.185a47.392,47.392,0,0,1,.338,5.159Z" transform="translate(-123.898 -3.645)" fill="#ff8667"/>
    <path id="Trazado_1007781" data-name="Trazado 1007781" d="M540.192,80.335l6.87-19.872s-2.494-14.711-1.142-15.447c1.67-.908,4.589,6.834,4.589,6.834s1.63-13.716,3.429-13.39c2.344.425.22,12.782.22,12.782l.516-.122s3.271-12.5,5.078-12.149c2.187.421-1.937,13.108-1.937,13.108l.579-.138s3.785-10.763,5.6-10.248c1.864.529-3.018,11.51-3.018,11.51s4.726-8.442,6.35-7.707c1.73.784-6.274,17.163-9.583,18.9A20.96,20.96,0,0,1,551.9,75.608a15.722,15.722,0,0,1-11.713,4.727" transform="translate(-151.117 -10.758)" fill="#f4b3a6"/>
    <path id="Trazado_1007782" data-name="Trazado 1007782" d="M557.811,56.037a46.331,46.331,0,0,1,9.488,2.594c.225.088.323-.275.1-.362a46.417,46.417,0,0,0-9.489-2.594c-.236-.038-.338.323-.1.362" transform="translate(-156.008 -15.574)" fill="#030407"/>
    <path id="Trazado_1007783" data-name="Trazado 1007783" d="M556.506,58.918a9.658,9.658,0,0,1,3.08,6.579c.014.241.39.242.375,0a10.072,10.072,0,0,0-3.19-6.844c-.176-.166-.442.1-.265.265" transform="translate(-155.665 -16.393)" fill="#030407"/>
    <path id="Trazado_1007784" data-name="Trazado 1007784" d="M455.771,43.488l-.057.38L453.352,59.7l11.036,11.334,8.7-10.884L469.94,42.8Z" transform="translate(-126.824 -11.973)" fill="#f4b3a6"/>
    <path id="Trazado_1007785" data-name="Trazado 1007785" d="M456,46.935c2.411,2.373,7.839,6.173,16.038,3.323L470.679,42.8l-14.169.689-.057.38Z" transform="translate(-127.564 -11.973)" fill="#d38579"/>
    <path id="Trazado_1007786" data-name="Trazado 1007786" d="M452.744,27.909s-.98,4.962.918,8.938c2.41,5.048,12.12,6.028,15.463,1.356s3.346-11.01,1.123-16.016l-6.412-3.3L454.7,22.3Z" transform="translate(-126.583 -5.284)" fill="#f4b3a6"/>
    <path id="Trazado_1007787" data-name="Trazado 1007787" d="M466.327,31.521a4.925,4.925,0,0,1-.009,2.075.838.838,0,0,1-.3.333c-.089.065-.2.09-.295.145a.744.744,0,0,0-.289.184q-.7.36.189,1.2c.266.089.107.493-.158.406a1.084,1.084,0,0,1-.708-1.5c.163-.362.4-.452.7-.649.731-.484.511-1.328.439-2.12-.025-.277.4-.351.429-.072" transform="translate(-129.986 -8.769)" fill="#030407"/>
    <path id="Trazado_1007788" data-name="Trazado 1007788" d="M454.14,30.572a13.163,13.163,0,0,0,.482,1.307c.089.206.389.029.3-.176a12.318,12.318,0,0,1-.447-1.224c-.066-.214-.4-.122-.336.093" transform="translate(-127.042 -8.492)" fill="#030407"/>
    <path id="Trazado_1007789" data-name="Trazado 1007789" d="M457.627,29.291q.057.635.064,1.272a.175.175,0,0,0,.349,0q-.008-.637-.065-1.272c-.02-.222-.369-.224-.349,0" transform="translate(-128.02 -8.147)" fill="#030407"/>
    <path id="Trazado_1007790" data-name="Trazado 1007790" d="M461.112,29.737a10.067,10.067,0,0,0-.316,1.224c-.042.219.295.313.336.093a9.924,9.924,0,0,1,.316-1.224c.07-.214-.267-.305-.336-.093" transform="translate(-128.905 -8.285)" fill="#030407"/>
    <path id="Trazado_1007791" data-name="Trazado 1007791" d="M454.009,31.979a4.768,4.768,0,0,1,3.949-1.263,4.044,4.044,0,0,1,3.115,2.024s-1.021,1.365-3.765,1.114a4.063,4.063,0,0,1-3.3-1.876" transform="translate(-127.008 -8.583)" fill="#fff"/>
    <path id="Trazado_1007792" data-name="Trazado 1007792" d="M459.89,32.368a1.591,1.591,0,1,1-1.5-1.677,1.591,1.591,0,0,1,1.5,1.677" transform="translate(-127.764 -8.585)" fill="#030407"/>
    <path id="Trazado_1007793" data-name="Trazado 1007793" d="M460.3,25.7l-1.689-.013a.928.928,0,0,1,.014-1.856l1.689.013A.928.928,0,0,1,460.3,25.7" transform="translate(-128.037 -6.666)" fill="#030407"/>
    <path id="Trazado_1007794" data-name="Trazado 1007794" d="M472.287,26.331l1.68.174a.928.928,0,1,0,.191-1.846l-1.68-.174a.928.928,0,0,0-.191,1.846" transform="translate(-131.888 -6.848)" fill="#030407"/>
    <path id="Trazado_1007795" data-name="Trazado 1007795" d="M452.8,26.817a12.383,12.383,0,0,1,4.943-4.865c4.21-2.348,5.514-2.406,5.514-2.406a21.928,21.928,0,0,1,5.121,3.657c1.592,1.677,1.839,3.529,3.268,5.5l1.207-5.385-3.645-3.9-7.587-2.021-8.158,3.044-1.613,3.419Z" transform="translate(-126.404 -4.866)" fill="#ff8667"/>
    <path id="Trazado_1007796" data-name="Trazado 1007796" d="M452.531,30.468a2.2,2.2,0,0,0-2.513-.956c-1.514.6-.561,5.531,1.053,5.507,2.383-.035,1.46-4.551,1.46-4.551" transform="translate(-125.678 -8.217)" fill="#f4b3a6"/>
    <path id="Trazado_1007797" data-name="Trazado 1007797" d="M452.037,31.872a.6.6,0,0,0-.8-.375.964.964,0,0,0-.545.916c-.012.224.337.223.349,0a.694.694,0,0,1,.212-.529.271.271,0,0,1,.443.081c.068.212.405.122.336-.093" transform="translate(-126.081 -8.8)" fill="#030407"/>
    <path id="Trazado_1007798" data-name="Trazado 1007798" d="M478.472,31.524s1.2-1.6,2.668-.886.165,5.557-1.443,5.418c-2.374-.206-1.224-4.533-1.224-4.533" transform="translate(-133.773 -8.52)" fill="#f4b3a6"/>
    <path id="Trazado_1007799" data-name="Trazado 1007799" d="M480.194,32.969c.076-.194.325-.147.446-.035a.708.708,0,0,1,.171.552.174.174,0,0,0,.349,0,.954.954,0,0,0-.485-.943.6.6,0,0,0-.817.332c-.082.209.255.3.336.093" transform="translate(-134.235 -9.088)" fill="#030407"/>
    <path id="Trazado_1007800" data-name="Trazado 1007800" d="M477.851,31.446a12.363,12.363,0,0,1-.537,1.187c-.1.2.2.376.3.176a13.218,13.218,0,0,0,.572-1.271c.081-.21-.256-.3-.336-.093" transform="translate(-133.522 -8.764)" fill="#030407"/>
    <path id="Trazado_1007801" data-name="Trazado 1007801" d="M474.609,29.962q-.107.653-.161,1.31c-.019.224.331.223.349,0,.034-.408.083-.813.149-1.217.036-.22-.3-.314-.336-.093" transform="translate(-132.725 -8.347)" fill="#030407"/>
    <path id="Trazado_1007802" data-name="Trazado 1007802" d="M471.044,30.29a9.639,9.639,0,0,1,.222,1.2c.026.22.375.223.349,0a10.443,10.443,0,0,0-.234-1.29.175.175,0,0,0-.336.093" transform="translate(-131.771 -8.413)" fill="#030407"/>
    <path id="Trazado_1007803" data-name="Trazado 1007803" d="M475.774,32.869a4.767,4.767,0,0,0-3.849-1.541,4.042,4.042,0,0,0-3.251,1.8s.921,1.434,3.675,1.38a4.062,4.062,0,0,0,3.425-1.635" transform="translate(-131.11 -8.763)" fill="#fff"/>
    <path id="Trazado_1007804" data-name="Trazado 1007804" d="M471.4,32.89a1.591,1.591,0,1,0,1.616-1.565A1.59,1.59,0,0,0,471.4,32.89" transform="translate(-131.872 -8.763)" fill="#030407"/>
    <path id="Trazado_1007805" data-name="Trazado 1007805" d="M464.161,40.648s.464-1.268.916-1.312a1.187,1.187,0,0,1,.835.339,1.2,1.2,0,0,1,.5-.689c.371-.186,1.555.78,1.555.78s-.2,1.459-1.216,1.845-2.594-.262-2.594-.962" transform="translate(-129.848 -10.9)" fill="#ff5a94"/>
    <path id="Trazado_1007806" data-name="Trazado 1007806" d="M463.68,41.042a5.833,5.833,0,0,0,4.222-.863c.236-.153.017-.532-.22-.378a5.378,5.378,0,0,1-3.886.819c-.275-.046-.393.375-.116.422" transform="translate(-129.669 -11.124)" fill="#030407"/>
    <path id="Trazado_1007807" data-name="Trazado 1007807" d="M448.32,65.863l3.624-1.035,10.383,9.417,9.26-8.468h3.948l-3.85,27.682-17.321.7Z" transform="translate(-125.416 -18.136)" fill="#ff5a94"/>
    <path id="Trazado_1007808" data-name="Trazado 1007808" d="M480.369,66.086a94.879,94.879,0,0,1-12.862,11.635c-.227.174,0,.565.228.389A95.451,95.451,0,0,0,480.687,66.4c.193-.215-.125-.535-.318-.318" transform="translate(-130.757 -18.467)" fill="#fff"/>
    <path id="Trazado_1007809" data-name="Trazado 1007809" d="M449.53,66.407a166.885,166.885,0,0,0,12.909,11.67c.223.181.544-.135.319-.319a166.888,166.888,0,0,1-12.911-11.67.225.225,0,0,0-.318.318" transform="translate(-125.736 -18.469)" fill="#fff"/>
    <path id="Trazado_1007810" data-name="Trazado 1007810" d="M485.648,116.477c2.8,3,11.409,4,17.414-1s19.381-40.8,19.381-40.8L506.863,68.04,495.655,94.46s-12.81-21.216-15.812-24.819-17.071-4.813-17.071-4.813l-6.347,27.23h-12.21l-7.728-26.87s-13.889,2.452-21.294,6.655-12.609,43.433-11.409,52.24,10.341,8.13,10.341,8.13l-.65,22.923h66.741l-3.577-47.866s6.2,6.2,9.007,9.207" transform="translate(-112.909 -18.135)" fill="#dbebfb"/>
    <path id="Trazado_1007811" data-name="Trazado 1007811" d="M442.816,84.394a32.432,32.432,0,0,0,5.727-.113l-.159-.385-3.452,3.647c-.533.563-1,.8-.854,1.531a8.7,8.7,0,0,0,1.2,2.024l1.35,2.277q1.425,2.4,2.852,4.807a.225.225,0,0,0,.389-.227l-4.2-7.084a6.556,6.556,0,0,1-.9-1.518c-.24-1.1.6-1.619,1.25-2.3l2.685-2.837c.122-.128.046-.406-.159-.384a32.432,32.432,0,0,1-5.727.113c-.29-.02-.288.431,0,.45" transform="translate(-123.816 -23.451)" fill="#fff"/>
    <path id="Trazado_1007812" data-name="Trazado 1007812" d="M490.481,87.817l-5.416,11.477c-.123.26.265.489.389.227q2.707-5.738,5.416-11.477c.123-.261-.265-.49-.389-.228" transform="translate(-135.689 -24.534)" fill="#fff"/>
    <path id="Trazado_1007813" data-name="Trazado 1007813" d="M466.6,153.969q-.4,13.021-.749,26.043h.451q.362-13.022.748-26.043c.009-.29-.441-.29-.45,0" transform="translate(-130.321 -43.012)" fill="#fff"/>
    <rect id="Rectángulo_456151" data-name="Rectángulo 456151" width="34.326" height="40.03" transform="translate(317.096 73.523)" fill="#030407"/>
    <path id="Trazado_1007814" data-name="Trazado 1007814" d="M470.755,125.255s10.508-10.283,12.159-9.607-3.6,7.356-3.6,7.356,4.623-.689,4.838.678c.238,1.5-.673,1.836-.673,1.836s1.207.2,1.314,1.276a1.734,1.734,0,0,1-.769,1.67,1.855,1.855,0,0,1,.938,1.595c.15,1.276-1.3,1.8-1.3,1.8s1.446.508,1.286,1.549-.086,2.054-4.814,2.429-9.382.375-9.382.375Z" transform="translate(-131.692 -32.343)" fill="#f4b3a6"/>
    <path id="Trazado_1007815" data-name="Trazado 1007815" d="M461.78,126.533l.851,14.01-26.82,7.106.7-17.814Z" transform="translate(-121.917 -35.397)" fill="#dbebfb"/>
    <path id="Trazado_1007816" data-name="Trazado 1007816" d="M438.425,93.1a3.252,3.252,0,1,1-3.253-3.253,3.253,3.253,0,0,1,3.253,3.253" transform="translate(-120.828 -25.136)" fill="#030407"/>
    <path id="Trazado_1007817" data-name="Trazado 1007817" d="M502.542,124.857c-.143.4-.766.55-1.392.328s-1.015-.73-.871-1.133.766-.551,1.391-.328,1.015.73.872,1.133" transform="translate(-139.943 -34.582)" fill="#030407"/>
    <path id="Trazado_1007818" data-name="Trazado 1007818" d="M491.422,124.857c.143.4.766.55,1.392.328s1.015-.73.872-1.133-.766-.551-1.392-.328-1.015.73-.872,1.133" transform="translate(-137.466 -34.582)" fill="#030407"/>
    <path id="Trazado_1007819" data-name="Trazado 1007819" d="M493.139,115.057c6.809-4.606,10.4-13.352,6.953-21.173-.694-1.573-1.681-3.529-3.587-3.753a4.228,4.228,0,0,0-3.789,1.845c-2.359,3.2-2.13,8.372-1.325,12.043a23.624,23.624,0,0,0,2.752,6.926c1.059,1.793,2.29,3.67,4.323,4.414.454.166.65-.559.2-.724-2.221-.813-3.568-3.364-4.587-5.364a22.71,22.71,0,0,1-2.108-6.173,19.092,19.092,0,0,1-.053-6.839c.411-2.267,1.731-6.11,4.8-5.338,2.223.56,3.256,4.361,3.652,6.291a15.646,15.646,0,0,1-.148,6.89,17.825,17.825,0,0,1-7.46,10.3c-.4.269-.022.92.379.648" transform="translate(-137.309 -25.208)" fill="#030407"/>
    <path id="Trazado_1007820" data-name="Trazado 1007820" d="M491.737,100.225c-.107-2.983.236-8.1,3.791-9.178,1.456-.44,2.143.409,2.854,1.536a13.4,13.4,0,0,1,1.188,2.381,14.2,14.2,0,0,1,.9,5.107.563.563,0,0,0,1.126,0,15.294,15.294,0,0,0-1.5-6.715c-.78-1.615-1.933-3.8-4.022-3.609-1.927.172-3.485,1.907-4.311,3.525a13.956,13.956,0,0,0-1.152,6.954c.026.722,1.152.726,1.126,0" transform="translate(-137.241 -25.103)" fill="#030407"/>
    <path id="Trazado_1007821" data-name="Trazado 1007821" d="M467.485,78.062a23.475,23.475,0,0,1-.054,3.15c-.025.289.426.287.451,0a23.465,23.465,0,0,0,.053-3.15c-.014-.288-.465-.29-.45,0" transform="translate(-130.762 -21.777)" fill="#fff"/>
    <path id="Trazado_1007822" data-name="Trazado 1007822" d="M438.312,68.368q1.358,5.74,2.847,11.448a.225.225,0,0,0,.434-.12q-1.489-5.708-2.847-11.448c-.067-.282-.5-.163-.434.12" transform="translate(-122.615 -19.047)" fill="#fff"/>
    <path id="Trazado_1007823" data-name="Trazado 1007823" d="M494.246,66.545a61.755,61.755,0,0,0-1.573,7.132q-.185.958-.37,1.917a5.613,5.613,0,0,1-.318,1.643c-.555.854-3.142.578-4.031.632a.227.227,0,0,0-.159.384,49.242,49.242,0,0,1,3.567,3.9c.184.224.5-.1.318-.318a49.1,49.1,0,0,0-3.567-3.9q-.08.192-.159.385l4.141-.25a.229.229,0,0,0,.217-.166,97.737,97.737,0,0,1,2.367-11.239c.089-.277-.346-.395-.434-.12" transform="translate(-136.441 -18.572)" fill="#fff"/>
    <path id="Trazado_1007824" data-name="Trazado 1007824" d="M530.787,106.442q-.147,3.013-.524,6c-.036.286.414.284.45,0q.377-2.994.524-6c.014-.289-.436-.288-.45,0" transform="translate(-148.339 -29.716)" fill="#fff"/>
    <path id="Trazado_1007825" data-name="Trazado 1007825" d="M531.213,106.646q.778,2.7,1.79,5.31c.1.268.539.151.434-.12q-1.012-2.617-1.79-5.31a.225.225,0,0,0-.434.12" transform="translate(-148.603 -29.756)" fill="#fff"/>
    <path id="Trazado_1007826" data-name="Trazado 1007826" d="M430.329,106.3q-.172,9.013-.827,18c-.021.29.429.288.45,0q.655-8.991.827-18a.225.225,0,0,0-.45,0" transform="translate(-120.152 -29.677)" fill="#fff"/>
    <path id="Trazado_1007827" data-name="Trazado 1007827" d="M430.307,131.379a71.071,71.071,0,0,0,9.761-.746c.285-.042.164-.476-.12-.434a70.221,70.221,0,0,1-9.641.73.225.225,0,0,0,0,.45" transform="translate(-120.316 -36.422)" fill="#fff"/>
    <path id="Trazado_1007828" data-name="Trazado 1007828" d="M426.919,131.1c-1.186.676-2.357,1.375-3.508,2.106a12.36,12.36,0,0,0-2.793,1.924.227.227,0,0,0-.058.219l.037.1a.225.225,0,0,0,.157.158l.092.014c.283.045.405-.389.12-.434.5.079,1.278-.688,1.661-.938q.7-.462,1.419-.91,1.53-.958,3.1-1.849a.225.225,0,0,0-.228-.389" transform="translate(-117.648 -36.666)" fill="#fff"/>
    <path id="Trazado_1007829" data-name="Trazado 1007829" d="M428.3,131.288a18.266,18.266,0,0,0-2.673,4.6c-.107.269.328.385.434.12a17.5,17.5,0,0,1,2.557-4.4c.179-.225-.138-.545-.318-.318" transform="translate(-119.062 -36.706)" fill="#fff"/>
    <path id="Trazado_1007830" data-name="Trazado 1007830" d="M479.4,173.134c.012-.29-.439-.29-.45,0a95.122,95.122,0,0,0,.125,12.239h.568a100.155,100.155,0,0,1-.243-12.239" transform="translate(-133.948 -48.373)" fill="#fff"/>
    <path id="Trazado_1007831" data-name="Trazado 1007831" d="M504.45,172.573a.225.225,0,0,0-.45,0c.1,4.142.6,8.473.227,12.643h.488c.348-4.45-.184-9.268-.264-12.643" transform="translate(-140.993 -48.216)" fill="#fff"/>
    <path id="Trazado_1007832" data-name="Trazado 1007832" d="M479.234,173.2c6-.084,12-.32,18-.4a.225.225,0,0,0,0-.45c-6,.084-12,.32-18,.4a.225.225,0,0,0,0,.45" transform="translate(-134.003 -48.213)" fill="#fff"/>
    <path id="Trazado_1007833" data-name="Trazado 1007833" d="M426.777,172.573a.225.225,0,0,0-.45,0c-.081,3.375-.613,8.192-.265,12.643h.485c-.373-4.167.131-8.5.23-12.643" transform="translate(-119.157 -48.216)" fill="#fff"/>
    <path id="Trazado_1007834" data-name="Trazado 1007834" d="M451.824,173.134c-.012-.289-.462-.29-.45,0a100.589,100.589,0,0,1-.246,12.239h.57a95.255,95.255,0,0,0,.125-12.239" transform="translate(-126.202 -48.373)" fill="#fff"/>
    <path id="Trazado_1007835" data-name="Trazado 1007835" d="M444.7,172.749c-6-.084-12-.32-18-.4a.225.225,0,0,0,0,.45c6,.085,12,.32,18,.4a.225.225,0,0,0,0-.45" transform="translate(-119.308 -48.213)" fill="#fff"/>
    <path id="Trazado_1007836" data-name="Trazado 1007836" d="M472.154,166.728A1.151,1.151,0,1,1,471,165.577a1.151,1.151,0,0,1,1.151,1.151" transform="translate(-131.44 -46.32)" fill="#fff"/>
    <path id="Trazado_1007837" data-name="Trazado 1007837" d="M472.154,186.6A1.151,1.151,0,1,1,471,185.446a1.151,1.151,0,0,1,1.151,1.151" transform="translate(-131.44 -51.878)" fill="#fff"/>
    <path id="Trazado_1007838" data-name="Trazado 1007838" d="M436.631,84.2a58.359,58.359,0,0,1-.369-9.064c.137-2.745.67-7.053,3.77-8.038.688-.218.394-1.306-.3-1.085-2.9.92-3.969,4.11-4.38,6.847a45.039,45.039,0,0,0,.151,11.34c.076.713,1.2.721,1.126,0" transform="translate(-121.705 -18.459)" fill="#030407"/>
    <path id="Trazado_1007839" data-name="Trazado 1007839" d="M490.488,65.432c2.927,1.245,4.029,4.736,4.757,7.579a26.944,26.944,0,0,1,.593,9.927c-.086.717,1.04.712,1.126,0a27.741,27.741,0,0,0-.92-11.256c-.838-2.811-2.1-5.994-4.988-7.222-.659-.28-1.234.689-.568.972" transform="translate(-137.13 -18.018)" fill="#030407"/>
    <path id="Trazado_1007840" data-name="Trazado 1007840" d="M417.394,157.3a82.945,82.945,0,0,0,19.087-3.455c.277-.084.158-.519-.12-.434a82.431,82.431,0,0,1-18.968,3.439c-.288.018-.29.468,0,.45" transform="translate(-116.704 -42.912)" fill="#fff"/>
    <path id="Trazado_1007841" data-name="Trazado 1007841" d="M359.6,44.254l-3.343,15.1L369.3,73.916,381.333,58.3l-3.291-15.1Z" transform="translate(-99.661 -12.086)" fill="#f4b3a6"/>
    <path id="Trazado_1007842" data-name="Trazado 1007842" d="M381.166,53.4l-2.223-10.2L360.5,44.253l-1.022,4.617c2.991,4.2,9.317,9.018,21.691,4.533" transform="translate(-100.562 -12.086)" fill="#d38579"/>
    <path id="Trazado_1007843" data-name="Trazado 1007843" d="M405.181,95.531S393.773,71.363,390.02,67.609s-23.312-5.094-23.312-5.094L354.665,76.166l-12.777-12.2s-11.614,1.095-19.87,5S304.9,104.838,304.9,104.838l13.51-.15v49.8h71.348l-5.147-54.9Z" transform="translate(-85.296 -17.488)" fill="#00ac8e"/>
    <path id="Trazado_1007844" data-name="Trazado 1007844" d="M356.274,22.152s-.544-9.645,1.111-10.31a2.195,2.195,0,0,1,2.447.162,13.994,13.994,0,0,1,9.58-3.485A14.665,14.665,0,0,1,379.8,13.264s.325-1.029,1.228-.674c2.466.969.756,9.755.756,9.755Z" transform="translate(-99.643 -2.382)" fill="#030407"/>
    <path id="Trazado_1007845" data-name="Trazado 1007845" d="M359.038,33.919c2.6,5.439,16.162,6.592,19.552.468,3.889-7.025,1.783-18.185,1.783-18.185l-8.844-4.517-11.549,3.253s-3.243,14.16-.943,18.981" transform="translate(-100.209 -3.269)" fill="#f4b3a6"/>
    <path id="Trazado_1007846" data-name="Trazado 1007846" d="M367,21.652l-2.8.429a1.048,1.048,0,1,1-.317-2.071l2.8-.429A1.048,1.048,0,1,1,367,21.652" transform="translate(-101.544 -5.474)" fill="#030407"/>
    <path id="Trazado_1007847" data-name="Trazado 1007847" d="M383.221,22.42l-2.814-.354a1.048,1.048,0,0,1,.261-2.079l2.815.354a1.048,1.048,0,1,1-.261,2.079" transform="translate(-106.161 -5.589)" fill="#030407"/>
    <path id="Trazado_1007848" data-name="Trazado 1007848" d="M360.894,29.059a6.08,6.08,0,0,1,4.251-1.372,3.892,3.892,0,0,1,3.008,1.611,3.941,3.941,0,0,1-3.455,1.517,4.716,4.716,0,0,1-3.8-1.756" transform="translate(-100.959 -7.739)" fill="#fff"/>
    <path id="Trazado_1007849" data-name="Trazado 1007849" d="M367.164,29.275a1.576,1.576,0,1,1-1.541-1.61,1.576,1.576,0,0,1,1.541,1.61" transform="translate(-101.832 -7.739)" fill="#030407"/>
    <path id="Trazado_1007850" data-name="Trazado 1007850" d="M385.2,29.585a6.079,6.079,0,0,0-4.188-1.556,3.888,3.888,0,0,0-3.074,1.479,3.939,3.939,0,0,0,3.385,1.666,4.717,4.717,0,0,0,3.876-1.589" transform="translate(-105.729 -7.839)" fill="#fff"/>
    <path id="Trazado_1007851" data-name="Trazado 1007851" d="M380.551,29.887a1.576,1.576,0,1,0,1.261-1.837,1.576,1.576,0,0,0-1.261,1.837" transform="translate(-106.45 -7.839)" fill="#030407"/>
    <path id="Trazado_1007852" data-name="Trazado 1007852" d="M373.027,21.979q-.414,4.572-.827,9.144c-.01.111.059.258.189.262.722.024,1.444.045,2.167.049.293,0,.241-.452-.05-.454-.681,0-1.363-.023-2.043-.046l.189.261q.413-4.572.827-9.144c.027-.292-.424-.366-.451-.073" transform="translate(-104.122 -6.096)" fill="#030407"/>
    <path id="Trazado_1007853" data-name="Trazado 1007853" d="M358.149,22.608l2.74-7.41s12.95.983,17.988.391l1.9,6.765.981-.122-.394-7.115-10.142-5.012-12.41,3.7-1.24,7.569Z" transform="translate(-100.031 -2.827)" fill="#030407"/>
    <path id="Trazado_1007854" data-name="Trazado 1007854" d="M357.276,27.679a2.031,2.031,0,0,0-2.313-1.521c-3.353.678-2.92,5.079-.163,6.642,2.223,1.262,2.566-.887,2.566-.887Z" transform="translate(-98.636 -7.305)" fill="#f4b3a6"/>
    <path id="Trazado_1007855" data-name="Trazado 1007855" d="M355.719,31.222c-.293-.749-.338-2.161.848-2.058.324.028.311-.479-.011-.506a1.416,1.416,0,0,0-1.353.772,2.308,2.308,0,0,0,.031,1.937c.117.3.6.16.485-.145" transform="translate(-99.311 -8.016)" fill="#030407"/>
    <path id="Trazado_1007856" data-name="Trazado 1007856" d="M388.2,28.346a2.032,2.032,0,0,1,2.377-1.42c3.321.825,2.7,5.2-.125,6.644-2.277,1.163-2.525-1-2.525-1Z" transform="translate(-108.521 -7.513)" fill="#f4b3a6"/>
    <path id="Trazado_1007857" data-name="Trazado 1007857" d="M390.847,31.976c.326-.736.431-2.144-.757-2.093-.326.014-.29-.492.032-.506a1.418,1.418,0,0,1,1.319.83,2.313,2.313,0,0,1-.115,1.934c-.131.3-.611.133-.479-.166" transform="translate(-109.063 -8.218)" fill="#030407"/>
    <path id="Trazado_1007858" data-name="Trazado 1007858" d="M358.145,35.529a23.044,23.044,0,0,1,6.108-.292c2.212.4,3.68,1.482,5.261,1.341s3.685-1.67,5.436-1.575a41.444,41.444,0,0,1,5.321.972s.749,7.4-3.552,11.686-13.582,3.678-16.975-1.538c-2.6-3.989-1.6-10.594-1.6-10.594" transform="translate(-100.138 -9.791)" fill="#030407"/>
    <path id="Trazado_1007859" data-name="Trazado 1007859" d="M393.278,116.319c-.258.376-.939.357-1.521-.042s-.845-1.029-.587-1.4.939-.357,1.521.043.845,1.028.587,1.4" transform="translate(-109.401 -32.06)" fill="#030407"/>
    <path id="Trazado_1007860" data-name="Trazado 1007860" d="M381.789,113.341c.037.454.638.776,1.341.718s1.245-.472,1.207-.927-.638-.776-1.342-.718-1.244.472-1.206.927" transform="translate(-106.804 -31.446)" fill="#030407"/>
    <path id="Trazado_1007861" data-name="Trazado 1007861" d="M384.46,104.1c8.3-2.887,14.435-11.035,12.889-20.053-.292-1.7-.733-3.78-2.453-4.582a4.438,4.438,0,0,0-4.561.768c-3.259,2.586-4.455,7.88-4.663,11.806a25.108,25.108,0,0,0,.792,7.632c.58,2.229,1.329,4.775,3.306,6.158.417.292.951-.3.531-.6-1.983-1.388-2.673-4.085-3.207-6.33a23.858,23.858,0,0,1-.578-7.593,20.47,20.47,0,0,1,1.816-6.894c1.029-2.186,3.15-5.439,6.042-4.281,2.388.956,2.488,5.167,2.4,7.357A16.656,16.656,0,0,1,394.7,94.8a19,19,0,0,1-10.5,8.546.4.4,0,0,0,.26.756" transform="translate(-107.407 -22.135)" fill="#030407"/>
    <path id="Trazado_1007862" data-name="Trazado 1007862" d="M387.862,88.485c.736-3.236,2.42-7.96,6.36-8.387,2.374-.257,2.89,3.171,3.1,4.919a15.154,15.154,0,0,1-.457,5.769c-.2.745.977.978,1.175.236a16.087,16.087,0,0,0,.165-7.849c-.452-1.933-1.126-4.158-3.442-4.283-4.841-.262-7.218,5.576-8.079,9.361a.6.6,0,0,0,1.175.236" transform="translate(-108.17 -22.067)" fill="#030407"/>
    <path id="Trazado_1007863" data-name="Trazado 1007863" d="M354.815,103.206a3.64,3.64,0,1,1-3.64-3.64,3.64,3.64,0,0,1,3.64,3.64" transform="translate(-97.222 -27.853)" fill="#030407"/>
    <path id="Trazado_1007864" data-name="Trazado 1007864" d="M370.041,39.118c.2-.022,5.865-.332,5.865-.332s-.733,3.572-2.817,3.54-3.048-3.208-3.048-3.208" transform="translate(-103.518 -10.85)" fill="#fff"/>
    <path id="Trazado_1007865" data-name="Trazado 1007865" d="M307.7,114.551s-1.2,13.961,1.051,19.815,8.106,7.656,15.312,5.855,21.862-7.506,21.862-7.506,32.179,9.457,44.638,5.254,12.46-12.759,12.46-16.212-1.051-14.86-1.051-14.86l-18.614,3.9v10.207H378.4s-9.157-5.553-18.314-5.254a62.067,62.067,0,0,0-17.759,3.6s-5.659-3-11.063-3.152-6.68,1.126-6.68,1.126Z" transform="translate(-85.988 -29.904)" fill="#f4b3a6"/>
    <path id="Trazado_1007866" data-name="Trazado 1007866" d="M367.277,190.031H406.7l-.006-.463Z" transform="translate(-102.745 -53.031)" fill="#00ac8e"/>
    <path id="Trazado_1007867" data-name="Trazado 1007867" d="M306.848,119.1l17.59.091v-5.629H308.351Z" transform="translate(-85.84 -31.769)" fill="#00ac8e"/>
    <path id="Trazado_1007868" data-name="Trazado 1007868" d="M410.643,111.305l21.266-3.691-.75-3.915-20.516,2.8Z" transform="translate(-114.876 -29.01)" fill="#00ac8e"/>
    <path id="Trazado_1007869" data-name="Trazado 1007869" d="M359.811,138.391c11.031-5.455,23.222-8.661,35.072-11.809a.225.225,0,0,0-.12-.434c-11.891,3.158-24.11,6.38-35.18,11.855-.259.129-.032.516.228.388" transform="translate(-100.561 -35.287)" fill="#030407"/>
    <path id="Trazado_1007870" data-name="Trazado 1007870" d="M348.035,123.7c-6.444.688-11.822,4.465-16.175,9.067-.793.839-1.533,1.732-2.36,2.539-.457.447-1.062,1.236-1.711.946s-.146-1.022.15-1.564a25.3,25.3,0,0,1,5.246-6.033c.212-.2-.107-.515-.319-.318-2.043,1.893-4.455,4.074-5.6,6.685-.607,1.385.033,2.509,1.477,1.532a15.331,15.331,0,0,0,2.563-2.522,44.306,44.306,0,0,1,4.276-4.182,23.386,23.386,0,0,1,12.452-5.7c.285-.03.288-.481,0-.45" transform="translate(-91.488 -34.604)" fill="#030407"/>
    <path id="Trazado_1007871" data-name="Trazado 1007871" d="M327.548,120.159a26.761,26.761,0,0,0-8.307,4.651,17.46,17.46,0,0,0-2.956,3.277,7.391,7.391,0,0,0-1.513,3.041c-.2,1.878,1.6,1.345,2.527.541,1.129-.977,2.121-2.12,3.242-3.114,1.5-1.332,3.07-2.582,4.692-3.766.232-.169.007-.56-.228-.389a63.8,63.8,0,0,0-5.761,4.723c-.683.632-1.3,1.33-1.979,1.963-.256.238-.913.987-1.328.931-1.218-.162-.627-1.267-.367-1.829,2.255-4.869,7.275-7.8,12.1-9.6.269-.1.153-.536-.12-.434" transform="translate(-88.052 -33.61)" fill="#030407"/>
    <path id="Trazado_1007872" data-name="Trazado 1007872" d="M319.157,132.436c-.624.779-1.463,2.4-.735,3.351.537.705,1.3.22,1.894-.171,2.988-1.966,5.349-4.882,8.01-7.246.217-.193-.1-.511-.319-.318-1.83,1.626-3.533,3.389-5.34,5.042a21.238,21.238,0,0,1-2.579,2.135c-.557.366-.809.666-1.2.018-.486-.8.037-1.8.589-2.491.179-.224-.137-.545-.318-.318" transform="translate(-88.999 -35.805)" fill="#030407"/>
    <path id="Trazado_1007873" data-name="Trazado 1007873" d="M326.9,131.167a20.68,20.68,0,0,0-2.9,3.418c-.537.776-1.6,2.141-1.411,3.185.43,2.319,4.255-1.505,4.78-2.087.194-.215-.124-.534-.318-.318a12.587,12.587,0,0,1-2.478,2.169c-.431.277-1.37.766-1.533.019-.081-.376.308-1,.463-1.305a17.734,17.734,0,0,1,3.715-4.763c.213-.2-.106-.515-.318-.318" transform="translate(-90.236 -36.676)" fill="#030407"/>
    <path id="Trazado_1007874" data-name="Trazado 1007874" d="M374.9,125.959a4.128,4.128,0,1,1-4.128-4.128,4.129,4.129,0,0,1,4.128,4.128" transform="translate(-102.569 -34.082)" fill="#030407"/>
    <path id="Trazado_1007875" data-name="Trazado 1007875" d="M368.034,120.246l1.974,12.621,4.262-1.548-1.744-11.883Z" transform="translate(-102.956 -33.412)" fill="#030407"/>
    <path id="Trazado_1007876" data-name="Trazado 1007876" d="M412.035,104.046a39.311,39.311,0,0,1,.017,9.191c-.033.287.417.285.45,0a39.311,39.311,0,0,0-.017-9.191c-.034-.285-.485-.287-.45,0" transform="translate(-115.265 -29.047)" fill="#fff"/>
    <path id="Trazado_1007877" data-name="Trazado 1007877" d="M327.918,72.687a20.344,20.344,0,0,1,1.831,4.015c.091.274.526.156.434-.12a20.888,20.888,0,0,0-1.876-4.123.225.225,0,0,0-.389.228" transform="translate(-91.725 -20.24)" fill="#fff"/>
    <path id="Trazado_1007878" data-name="Trazado 1007878" d="M417.9,73.274q1.679-2.145,3.168-4.425c.158-.243-.231-.469-.389-.227q-1.456,2.233-3.1,4.333c-.176.225.14.547.318.318" transform="translate(-116.802 -19.168)" fill="#fff"/>
    <path id="Trazado_1007879" data-name="Trazado 1007879" d="M353.483,64.478a77.025,77.025,0,0,0,14.393,16.79.228.228,0,0,0,.318,0l15.049-18.293c.183-.222-.134-.542-.318-.318L375.4,71.8l-3.763,4.573q-.94,1.144-1.881,2.287c-.366.445-1.273,2.03-1.959,1.94-.539-.07-1.549-1.4-1.948-1.775q-.958-.905-1.883-1.842-1.759-1.783-3.4-3.678a76.428,76.428,0,0,1-6.7-9.056c-.155-.243-.544-.018-.389.228" transform="translate(-98.876 -17.507)" fill="#fff"/>
    <path id="Trazado_1007880" data-name="Trazado 1007880" d="M353.1,92.132c-1.531-4.267-1.813-8.805-2.134-13.291a64.709,64.709,0,0,1-.211-6.737c.065-2-.071-5.513,1.578-6.915.553-.47-.247-1.263-.8-.8-1.513,1.286-1.587,3.634-1.768,5.479a48.86,48.86,0,0,0-.006,7.846c.313,4.935.567,10.02,2.251,14.713.243.676,1.331.385,1.085-.3" transform="translate(-97.802 -17.974)" fill="#030407"/>
    <path id="Trazado_1007881" data-name="Trazado 1007881" d="M396.487,63.529a16.073,16.073,0,0,1,1.549,11.049c-.153.707.932,1.008,1.085.3a17.309,17.309,0,0,0-1.662-11.917c-.341-.64-1.314-.071-.972.568" transform="translate(-110.896 -17.535)" fill="#030407"/>
    <path id="Trazado_1007882" data-name="Trazado 1007882" d="M148.211,54.653s-1.052-5.358,0-8.861,4.045-5.755,4.162-8.907-.843-10.75-.364-14.232,4.895-11.212,12.37-9.636a8.845,8.845,0,0,1,8.67.751,11.174,11.174,0,0,1,5.089,9.307c-.063,2.4-1.013,7.656-.537,10.058s3.9,7.456,4.294,12.66a31.617,31.617,0,0,1-1.335,10.533Z" transform="translate(-41.331 -3.415)" fill="#030407"/>
    <path id="Trazado_1007883" data-name="Trazado 1007883" d="M131.4,187.066l-.027,2.265h62.989l-.037-2.265Z" transform="translate(-36.75 -52.331)" fill="#00ac8e"/>
    <path id="Trazado_1007884" data-name="Trazado 1007884" d="M161.453,44.212l-2.1,15.712s3.274,5.4,9.236,5.354S179,60.224,179,60.224l-2.7-16.012Z" transform="translate(-44.579 -12.368)" fill="#f4b3a6"/>
    <path id="Trazado_1007885" data-name="Trazado 1007885" d="M178.041,50.851l-1.121-6.639H162.076l-.5,3.709c2.46,2.046,7.809,5.072,16.461,2.931" transform="translate(-45.202 -12.368)" fill="#d38579"/>
    <path id="Trazado_1007886" data-name="Trazado 1007886" d="M157.988,26.624s-1.057,5.353.99,9.643c2.6,5.446,13.075,6.5,16.682,1.462s3.611-11.878,1.212-17.278l-6.919-3.559L160.1,20.57Z" transform="translate(-44.12 -4.725)" fill="#f4b3a6"/>
    <path id="Trazado_1007887" data-name="Trazado 1007887" d="M172.643,30.519a5.316,5.316,0,0,1-.01,2.239.9.9,0,0,1-.323.359c-.1.07-.217.1-.318.156a.792.792,0,0,0-.312.2q-.755.388.2,1.291c.287.1.116.532-.171.437a1.169,1.169,0,0,1-.764-1.614c.176-.391.434-.488.756-.7.789-.522.552-1.433.474-2.288-.027-.3.436-.379.463-.078" transform="translate(-47.792 -8.484)" fill="#030407"/>
    <path id="Trazado_1007888" data-name="Trazado 1007888" d="M170.065,39.009l4.705-.574s-.312,2.611-2.053,2.945-2.652-2.371-2.652-2.371" transform="translate(-47.575 -10.752)" fill="#fff"/>
    <path id="Trazado_1007889" data-name="Trazado 1007889" d="M159.494,29.5a14.261,14.261,0,0,0,.521,1.41c.1.222.42.03.325-.19a13.208,13.208,0,0,1-.483-1.32c-.071-.23-.435-.133-.363.1" transform="translate(-44.615 -8.187)" fill="#030407"/>
    <path id="Trazado_1007890" data-name="Trazado 1007890" d="M163.257,28.115q.063.685.07,1.372a.188.188,0,0,0,.376,0q-.008-.688-.07-1.372c-.022-.239-.4-.241-.376,0" transform="translate(-45.67 -7.815)" fill="#030407"/>
    <path id="Trazado_1007891" data-name="Trazado 1007891" d="M167.017,28.6a10.706,10.706,0,0,0-.341,1.321c-.045.236.317.338.362.1a10.684,10.684,0,0,1,.341-1.32c.076-.231-.288-.33-.363-.1" transform="translate(-46.626 -7.963)" fill="#030407"/>
    <path id="Trazado_1007892" data-name="Trazado 1007892" d="M159.354,31.014a5.143,5.143,0,0,1,4.261-1.362,4.359,4.359,0,0,1,3.36,2.184s-1.1,1.471-4.061,1.2a4.382,4.382,0,0,1-3.56-2.023" transform="translate(-44.579 -8.285)" fill="#fff"/>
    <path id="Trazado_1007893" data-name="Trazado 1007893" d="M165.7,31.435a1.716,1.716,0,1,1-1.619-1.809,1.717,1.717,0,0,1,1.619,1.809" transform="translate(-45.394 -8.287)" fill="#030407"/>
    <path id="Trazado_1007894" data-name="Trazado 1007894" d="M166.137,24.238l-1.822-.014a1,1,0,1,1,.016-2l1.822.014a1,1,0,0,1-.016,2" transform="translate(-45.689 -6.216)" fill="#030407"/>
    <path id="Trazado_1007895" data-name="Trazado 1007895" d="M179.072,24.92l1.812.187a1,1,0,0,0,.206-1.992l-1.812-.187a1,1,0,1,0-.206,1.992" transform="translate(-49.844 -6.413)" fill="#030407"/>
    <path id="Trazado_1007896" data-name="Trazado 1007896" d="M158.049,25.445a13.357,13.357,0,0,1,5.333-5.249c4.541-2.532,5.949-2.6,5.949-2.6a23.658,23.658,0,0,1,5.525,3.945c1.718,1.809,1.984,3.807,3.526,5.933l1.3-5.809-3.932-4.21-8.186-2.181-8.8,3.284-1.741,3.689Z" transform="translate(-43.927 -4.274)" fill="#030407"/>
    <path id="Trazado_1007897" data-name="Trazado 1007897" d="M157.758,29.384a2.368,2.368,0,0,0-2.711-1.032c-1.634.65-.606,5.968,1.136,5.942,2.571-.038,1.575-4.91,1.575-4.91" transform="translate(-43.144 -7.89)" fill="#f4b3a6"/>
    <path id="Trazado_1007898" data-name="Trazado 1007898" d="M157.226,30.9a.649.649,0,0,0-.859-.4,1.04,1.04,0,0,0-.586.988c-.013.242.363.241.376,0a.751.751,0,0,1,.229-.571c.153-.12.408-.129.478.088s.438.131.363-.1" transform="translate(-43.579 -8.518)" fill="#030407"/>
    <path id="Trazado_1007899" data-name="Trazado 1007899" d="M185.745,30.524s1.294-1.721,2.878-.956.178,6-1.557,5.846c-2.561-.222-1.321-4.89-1.321-4.89" transform="translate(-51.878 -8.217)" fill="#f4b3a6"/>
    <path id="Trazado_1007900" data-name="Trazado 1007900" d="M187.6,32.082c.082-.209.349-.158.481-.037a.762.762,0,0,1,.184.6.188.188,0,0,0,.376,0,1.028,1.028,0,0,0-.523-1.017.647.647,0,0,0-.882.358c-.089.225.275.323.364.1" transform="translate(-52.376 -8.83)" fill="#030407"/>
    <path id="Trazado_1007901" data-name="Trazado 1007901" d="M185.075,30.439a13.193,13.193,0,0,1-.579,1.281c-.111.215.213.406.325.19a14.258,14.258,0,0,0,.617-1.371c.088-.226-.276-.324-.363-.1" transform="translate(-51.606 -8.48)" fill="#030407"/>
    <path id="Trazado_1007902" data-name="Trazado 1007902" d="M181.578,28.838q-.116.7-.174,1.414c-.019.241.357.24.377,0q.054-.66.161-1.314c.039-.237-.324-.339-.363-.1" transform="translate(-50.747 -8.029)" fill="#030407"/>
    <path id="Trazado_1007903" data-name="Trazado 1007903" d="M177.731,29.192a10.339,10.339,0,0,1,.239,1.291c.028.237.4.24.376,0a11.116,11.116,0,0,0-.252-1.392.188.188,0,0,0-.363.1" transform="translate(-49.718 -8.101)" fill="#030407"/>
    <path id="Trazado_1007904" data-name="Trazado 1007904" d="M182.836,31.973a5.144,5.144,0,0,0-4.152-1.663,4.362,4.362,0,0,0-3.508,1.938s.994,1.547,3.966,1.489a4.382,4.382,0,0,0,3.695-1.764" transform="translate(-49.005 -8.478)" fill="#fff"/>
    <path id="Trazado_1007905" data-name="Trazado 1007905" d="M178.112,32a1.717,1.717,0,1,0,1.744-1.688A1.716,1.716,0,0,0,178.112,32" transform="translate(-49.826 -8.479)" fill="#030407"/>
    <path id="Trazado_1007906" data-name="Trazado 1007906" d="M194.443,106.762s.75-28.672-4.954-34.526-25.04-7.985-25.04-7.985a19.892,19.892,0,0,1-9.556,4.682,10.594,10.594,0,0,1-9.823-3.4,61.659,61.659,0,0,0-19.079,5.354c-9.307,4.5-17.7,31.224-17.7,31.224l18.965,1.11-5.483,51.756h68.261l-7-50.163Z" transform="translate(-30.294 -17.974)" fill="#00ac8e"/>
    <path id="Trazado_1007907" data-name="Trazado 1007907" d="M151.755,67.276c1.52,19.417,7.725,38.011,15.179,55.882.367.879,1.819.493,1.448-.4-7.4-17.735-13.618-36.211-15.126-55.483-.075-.956-1.577-.965-1.5,0" transform="translate(-42.452 -18.619)" fill="#dee2e1"/>
    <path id="Trazado_1007908" data-name="Trazado 1007908" d="M188.262,65.8c-1.45,9.652-2.906,19.319-5.143,28.826a132.488,132.488,0,0,1-9.951,28.069c-.424.865.871,1.626,1.3.758a133.621,133.621,0,0,0,9.975-27.886c2.31-9.681,3.794-19.533,5.272-29.368.142-.945-1.3-1.353-1.448-.4" transform="translate(-48.42 -18.254)" fill="#dee2e1"/>
    <path id="Trazado_1007909" data-name="Trazado 1007909" d="M153.885,67.055c3.3,4.726,9.156,6.945,14.81,6.478,5.308-.439,10.585-2.772,13.111-7.694.132-.257-.256-.485-.389-.227-2.453,4.78-7.568,7.04-12.722,7.47-5.477.457-11.217-1.667-14.421-6.255-.165-.236-.555-.011-.389.228" transform="translate(-43.038 -18.323)" fill="#fff"/>
    <path id="Trazado_1007910" data-name="Trazado 1007910" d="M111.129,111.6s-4.7,17.113-2,22.017,8.407,6.1,13.21,3.6,15.912-12.176,15.912-12.176l-5.718-10.017-5.19,2.779-.2-3.133Z" transform="translate(-30.294 -31.22)" fill="#f4b3a6"/>
    <path id="Trazado_1007911" data-name="Trazado 1007911" d="M182.4,110.773s5.1,24.819,10.908,27.02,10.008,2.5,13.41-3.2,6.6-17.613,6.6-17.613l-15.011-2.6-3.611-7.882Z" transform="translate(-51.026 -29.791)" fill="#f4b3a6"/>
    <path id="Trazado_1007912" data-name="Trazado 1007912" d="M180.361,101.147A102.157,102.157,0,0,1,179.2,88.6c.1-4.2,1.4-16.612,2.6-17.213s1.9,9.707,1.9,9.707,1.9-5.6,1.7-7.805-1.371-7.006.015-7.406,2.487,6.005,2.487,6.005,0-8.307,1.4-8.508,1.9,8.107,1.9,8.107,1.1-8.113,2.4-8.11,1.2,8.41.8,10.512-2.4,6.134-2.5,8.371,2.2,13.745,2.2,13.745-9.589,5.672-13.751,5.137" transform="translate(-50.129 -17.731)" fill="#7fb2df"/>
    <path id="Trazado_1007913" data-name="Trazado 1007913" d="M191.424,101.756a15.484,15.484,0,0,1-2.353,1.763,12.254,12.254,0,0,0-2.04,2.36.226.226,0,0,0,.194.339c1.9-.116,3.713-.767,5.617-.82.289-.008.29-.459,0-.45-1.907.053-3.719.7-5.617.82l.194.339a10.229,10.229,0,0,1,2.5-2.644,7.835,7.835,0,0,0,1.826-1.387c.185-.22-.132-.541-.318-.318" transform="translate(-52.312 -28.445)" fill="#fff"/>
    <path id="Trazado_1007914" data-name="Trazado 1007914" d="M186.874,103.515a32.412,32.412,0,0,1,2.079-3.887c.154-.246-.236-.472-.389-.227a32.4,32.4,0,0,0-2.079,3.886c-.118.262.27.492.389.228" transform="translate(-52.163 -27.778)" fill="#fff"/>
    <path id="Trazado_1007915" data-name="Trazado 1007915" d="M140.3,113.573l6.4,11.108s15.993-8.406,17.154-11.108c0,0,8.766-1.3,8.766-2.4s-2-1.1-2-1.1,3.092-.5,3.047-1.4-3.347-.9-3.347-.9,3.793.1,3.347-1.1-13.055-3.1-15.357-2.6-18.014,9.507-18.014,9.507" transform="translate(-39.248 -29.089)" fill="#7fb2df"/>
    <path id="Trazado_1007916" data-name="Trazado 1007916" d="M172.38,109.645l9.058-.322c.289-.011.29-.461,0-.45l-9.058.322c-.289.01-.29.46,0,.45" transform="translate(-48.162 -30.457)" fill="#fff"/>
    <path id="Trazado_1007917" data-name="Trazado 1007917" d="M173.833,113.169q3.646-.44,7.313-.629c.288-.015.29-.465,0-.45q-3.668.188-7.313.629c-.285.034-.287.485,0,.45" transform="translate(-48.569 -31.357)" fill="#fff"/>
    <path id="Trazado_1007918" data-name="Trazado 1007918" d="M179.083,105.675a13.308,13.308,0,0,1,3.268.6c.4.129,1.5.348,1.69.687.39.69-.252.686-.639.912a.225.225,0,0,0,.227.388c.754-.441,1.745-.935.64-1.689a10.9,10.9,0,0,0-5.186-1.349c-.29-.019-.288.432,0,.45" transform="translate(-50.037 -29.436)" fill="#fff"/>
    <path id="Trazado_1007919" data-name="Trazado 1007919" d="M184.77,109.434a2.775,2.775,0,0,1,.595.376c.3.291-.012.58-.246.78a3.181,3.181,0,0,1-1.3.621.225.225,0,0,0,.12.434,3.225,3.225,0,0,0,1.86-1.124c.524-.725-.2-1.147-.8-1.476-.254-.14-.482.249-.228.389" transform="translate(-51.377 -30.497)" fill="#fff"/>
    <path id="Trazado_1007920" data-name="Trazado 1007920" d="M182.928,112.646q.794,1.036-.13,1.206l-.256.1c-.3.115-.6.22-.908.318-.568.183-1.143.334-1.724.466-.283.064-.163.5.12.434a19.745,19.745,0,0,0,2.115-.6,4.076,4.076,0,0,0,1.544-.7c.625-.642.009-1.4-.641-1.666-.269-.109-.385.327-.12.434" transform="translate(-50.284 -31.386)" fill="#fff"/>
    <path id="Trazado_1007921" data-name="Trazado 1007921" d="M119.236,127.081a67.284,67.284,0,0,1,14.546-8.922c.264-.119.035-.507-.228-.389a67.732,67.732,0,0,0-14.637,8.993c-.226.182.094.5.318.318" transform="translate(-33.245 -32.939)" fill="#030407"/>
    <path id="Trazado_1007922" data-name="Trazado 1007922" d="M205.377,101.724a98.693,98.693,0,0,0-1.168,10.372c-.017.29.434.288.451,0a97.409,97.409,0,0,1,1.152-10.253c.047-.283-.387-.406-.434-.12" transform="translate(-57.127 -28.411)" fill="#fff"/>
    <path id="Trazado_1007923" data-name="Trazado 1007923" d="M109.938,115.093l17.779,1.041.193-3.657-16.82-2.056Z" transform="translate(-30.755 -30.89)" fill="#00ac8e"/>
    <path id="Trazado_1007924" data-name="Trazado 1007924" d="M135.2,100.6q-.6,6.644-.621,13.317a.226.226,0,0,0,.451,0q.023-6.671.62-13.317c.026-.289-.424-.287-.45,0" transform="translate(-37.648 -28.083)" fill="#fff"/>
    <path id="Trazado_1007925" data-name="Trazado 1007925" d="M219.749,120.569l-15.257-3.928,2.6-2.052,11.409.7Z" transform="translate(-57.206 -32.056)" fill="#00ac8e"/>
    <path id="Trazado_1007926" data-name="Trazado 1007926" d="M201.189,111.608a53.091,53.091,0,0,1,5.21,14.979c.053.285.488.164.434-.12a53.515,53.515,0,0,0-5.256-15.087c-.135-.256-.524-.029-.389.228" transform="translate(-56.274 -31.127)" fill="#030407"/>
    <rect id="Rectángulo_456152" data-name="Rectángulo 456152" width="16.478" height="9.911" transform="translate(117.062 106.563)" fill="#fff"/>
    <rect id="Rectángulo_456153" data-name="Rectángulo 456153" width="4.654" height="4.654" transform="translate(127.745 107.692)" fill="#7fb2df"/>
    <rect id="Rectángulo_456154" data-name="Rectángulo 456154" width="7.455" height="0.3" transform="translate(118.814 108.418)" fill="#030407"/>
    <rect id="Rectángulo_456155" data-name="Rectángulo 456155" width="4.003" height="0.3" transform="translate(122.266 109.869)" fill="#030407"/>
    <rect id="Rectángulo_456156" data-name="Rectángulo 456156" width="2.12" height="0.3" transform="translate(118.814 109.869)" fill="#030407"/>
    <rect id="Rectángulo_456157" data-name="Rectángulo 456157" width="3.978" height="0.3" transform="translate(118.814 111.32)" fill="#030407"/>
    <path id="Trazado_1007927" data-name="Trazado 1007927" d="M173.179,147.49h0a1.2,1.2,0,0,1-1.2-1.2v-2.828a1.2,1.2,0,0,1,2.4,0v2.828a1.2,1.2,0,0,1-1.2,1.2" transform="translate(-48.11 -39.797)" fill="#030407"/>
    <path id="Trazado_1007928" data-name="Trazado 1007928" d="M263.448,36.888l-2.325,14.546s4.527,6,11.564,5.6a14.43,14.43,0,0,0,10.629-5.8l-2.191-15.766Z" transform="translate(-73.048 -9.922)" fill="#f4b3a6"/>
    <path id="Trazado_1007929" data-name="Trazado 1007929" d="M283.009,44.214l-1.215-8.745-17.677,1.42-.6,3.772c3.659,3.139,10.207,6.635,19.5,3.554" transform="translate(-73.717 -9.922)" fill="#d38579"/>
    <path id="Trazado_1007930" data-name="Trazado 1007930" d="M256.589,57.321l3.353-.45a17.735,17.735,0,0,0,10.872,3.2,32.092,32.092,0,0,0,11.233-3.2l3.064.3L272.7,89.246l-2.752-.3Z" transform="translate(-71.78 -15.91)" fill="#00ac8e"/>
    <path id="Trazado_1007931" data-name="Trazado 1007931" d="M306.546,122.174c3.2-2.8,3.6-5.8,3.176-12.609s-13.184-44.234-17.586-47.836-26.209-5.2-26.209-5.2L253.474,87.947,240.194,56.524s-16.911,2.2-24.717,6.424-23.618,39.211-23.017,49.818,21.416,22.818,21.416,22.818v17.228h74.473l-.617-16.028s15.612-11.809,18.814-14.611" transform="translate(-53.835 -15.812)" fill="#dbebfb"/>
    <path id="Trazado_1007932" data-name="Trazado 1007932" d="M259.951,12.987s-.518-9.184,1.058-9.818a2.091,2.091,0,0,1,2.33.155A13.328,13.328,0,0,1,272.462.006a13.961,13.961,0,0,1,9.888,4.518s.31-.98,1.17-.642c2.349.923.72,9.289.72,9.289Z" transform="translate(-72.698 0)" fill="#ff8667"/>
    <path id="Trazado_1007933" data-name="Trazado 1007933" d="M262.583,24.192c2.471,5.18,15.39,6.277,18.619.446,3.7-6.69,1.7-17.317,1.7-17.317l-8.422-4.3-11,3.1s-3.087,13.484-.9,18.074" transform="translate(-73.237 -0.845)" fill="#f4b3a6"/>
    <path id="Trazado_1007934" data-name="Trazado 1007934" d="M270.161,12.51l-2.67.408a1,1,0,1,1-.3-1.972l2.67-.409a1,1,0,0,1,.3,1.973" transform="translate(-74.508 -2.945)" fill="#030407"/>
    <path id="Trazado_1007935" data-name="Trazado 1007935" d="M285.611,13.242l-2.68-.337a1,1,0,0,1,.249-1.98l2.68.337a1,1,0,0,1-.249,1.98" transform="translate(-78.905 -3.054)" fill="#030407"/>
    <path id="Trazado_1007936" data-name="Trazado 1007936" d="M264.351,19.565a5.79,5.79,0,0,1,4.048-1.307,3.7,3.7,0,0,1,2.864,1.534,3.753,3.753,0,0,1-3.289,1.444,4.491,4.491,0,0,1-3.622-1.672" transform="translate(-73.951 -5.101)" fill="#fff"/>
    <path id="Trazado_1007937" data-name="Trazado 1007937" d="M270.321,19.77a1.5,1.5,0,1,1-1.468-1.533,1.5,1.5,0,0,1,1.468,1.533" transform="translate(-74.782 -5.102)" fill="#030407"/>
    <path id="Trazado_1007938" data-name="Trazado 1007938" d="M287.5,20.065a5.787,5.787,0,0,0-3.987-1.481,3.7,3.7,0,0,0-2.928,1.407,3.754,3.754,0,0,0,3.224,1.587,4.491,4.491,0,0,0,3.691-1.513" transform="translate(-78.493 -5.197)" fill="#fff"/>
    <path id="Trazado_1007939" data-name="Trazado 1007939" d="M283.069,20.353a1.5,1.5,0,1,0,1.2-1.749,1.5,1.5,0,0,0-1.2,1.749" transform="translate(-79.181 -5.197)" fill="#030407"/>
    <path id="Trazado_1007940" data-name="Trazado 1007940" d="M275.9,12.822q-.394,4.354-.787,8.708c-.009.106.056.245.18.249.687.024,1.375.043,2.063.047.279,0,.23-.431-.048-.432-.649,0-1.3-.022-1.946-.044l.18.249q.393-4.354.787-8.708c.025-.278-.4-.348-.429-.069" transform="translate(-76.963 -3.537)" fill="#030407"/>
    <path id="Trazado_1007941" data-name="Trazado 1007941" d="M261.737,13.422l2.609-7.056s12.332.936,17.13.372l1.812,6.442.934-.117-.375-6.775-9.658-4.772L262.371,5.043l-1.18,7.208Z" transform="translate(-73.067 -0.424)" fill="#ff8667"/>
    <path id="Trazado_1007942" data-name="Trazado 1007942" d="M260.905,18.25a1.934,1.934,0,0,0-2.2-1.449c-3.194.647-2.78,4.836-.156,6.325,2.118,1.2,2.444-.845,2.444-.845Z" transform="translate(-71.739 -4.687)" fill="#f4b3a6"/>
    <path id="Trazado_1007943" data-name="Trazado 1007943" d="M259.423,21.624c-.279-.714-.322-2.056.807-1.959.308.027.3-.456-.011-.483a1.347,1.347,0,0,0-1.289.736,2.2,2.2,0,0,0,.029,1.844c.112.287.576.153.463-.138" transform="translate(-72.382 -5.365)" fill="#030407"/>
    <path id="Trazado_1007944" data-name="Trazado 1007944" d="M290.352,18.885a1.935,1.935,0,0,1,2.264-1.352c3.162.785,2.567,4.953-.12,6.326-2.167,1.108-2.4-.951-2.4-.951Z" transform="translate(-81.152 -4.887)" fill="#f4b3a6"/>
    <path id="Trazado_1007945" data-name="Trazado 1007945" d="M292.873,22.343c.31-.7.411-2.041-.721-1.993-.31.014-.277-.468.031-.481a1.347,1.347,0,0,1,1.255.791,2.2,2.2,0,0,1-.11,1.841c-.125.282-.582.127-.456-.158" transform="translate(-81.668 -5.558)" fill="#030407"/>
    <path id="Trazado_1007946" data-name="Trazado 1007946" d="M261.733,25.726a21.958,21.958,0,0,1,5.817-.279c2.106.38,3.5,1.412,5.01,1.278s3.51-1.59,5.177-1.5a39.38,39.38,0,0,1,5.067.926s.713,7.045-3.382,11.129-12.934,3.5-16.165-1.464c-2.471-3.8-1.525-10.089-1.525-10.089" transform="translate(-73.169 -7.055)" fill="#ff8667"/>
    <path id="Trazado_1007947" data-name="Trazado 1007947" d="M274.517,30.194c1.647.387,3.985.03,4.871-1.6.134-.246-.264-.421-.4-.177-.789,1.451-2.979,1.683-4.4,1.348-.273-.065-.34.365-.069.429" transform="translate(-76.747 -7.917)" fill="#030407"/>
    <path id="Trazado_1007948" data-name="Trazado 1007948" d="M243.2,157.676s7.094,8.406,6.85,13.21-15.256,0-15.256,0l-1.2-4Z" transform="translate(-65.347 -44.109)" fill="#f4b3a6"/>
    <path id="Trazado_1007949" data-name="Trazado 1007949" d="M298.4,160.177a21.13,21.13,0,0,0-4.154,10.408l14.762.8,2.2-4.4Z" transform="translate(-82.314 -44.809)" fill="#f4b3a6"/>
    <path id="Trazado_1007950" data-name="Trazado 1007950" d="M253.939,174.627H231.272a99.921,99.921,0,0,0-.16,11.224h23.043c-.024-5.432-.558-11.224-.216-11.224" transform="translate(-64.626 -48.851)" fill="#dbebfb"/>
    <path id="Trazado_1007951" data-name="Trazado 1007951" d="M308.552,174.627H285.885c.342,0-.192,5.792-.216,11.224h23.043a100.116,100.116,0,0,0-.16-11.224" transform="translate(-79.915 -48.851)" fill="#dbebfb"/>
    <path id="Trazado_1007952" data-name="Trazado 1007952" d="M273.628,98.939l-9.7,20.412c-.123.261.264.489.389.228l9.7-20.412c.124-.261-.264-.49-.389-.228" transform="translate(-73.826 -27.645)" fill="#fff"/>
    <path id="Trazado_1007953" data-name="Trazado 1007953" d="M264.345,127.493c-.01-.289-.46-.29-.45,0,.519,15.032,1.115,30.071,1.281,45.112h.438c-.1-8.931-.333-17.862-.631-26.789-.2-6.108-.427-12.215-.638-18.323" transform="translate(-73.824 -35.605)" fill="#fff"/>
    <path id="Trazado_1007954" data-name="Trazado 1007954" d="M226.406,112.358q-1.038,7.082-2.617,14.067c-.063.282.37.4.434.12q1.577-6.982,2.617-14.067c.042-.283-.393-.405-.434-.12" transform="translate(-62.603 -31.386)" fill="#fff"/>
    <path id="Trazado_1007955" data-name="Trazado 1007955" d="M224.107,132.3c7.016,5.94,12.5,13.408,19.247,19.625.213.2.532-.122.318-.318-6.748-6.217-12.231-13.686-19.247-19.625-.22-.187-.54.131-.318.318" transform="translate(-62.672 -36.904)" fill="#fff"/>
    <path id="Trazado_1007956" data-name="Trazado 1007956" d="M221.675,166.314a60.68,60.68,0,0,1,7.821,6.3c.213.194.533-.122.318-.318a61.392,61.392,0,0,0-7.912-6.367c-.244-.158-.47.232-.228.389" transform="translate(-61.984 -46.407)" fill="#fff"/>
    <path id="Trazado_1007957" data-name="Trazado 1007957" d="M287.351,175.137c7.362,0,14.725.037,22.087.037a.226.226,0,0,0,0-.451c-7.362,0-14.724-.036-22.087-.036a.225.225,0,0,0,0,.45" transform="translate(-80.325 -48.868)" fill="#fff"/>
    <path id="Trazado_1007958" data-name="Trazado 1007958" d="M286.761,184.367l.382-9.436c.012-.29-.439-.29-.45,0l-.382,9.436c-.021.5-.042,1-.062,1.509h.446c.022-.506.046-1.011.066-1.509" transform="translate(-80.077 -48.876)" fill="#fff"/>
    <path id="Trazado_1007959" data-name="Trazado 1007959" d="M318.238,174.967c-.019-.288-.47-.29-.45,0,.238,3.627.408,7.28.294,10.919h.452c0-.117,0-.237.007-.352.093-3.525-.073-7.05-.3-10.567" transform="translate(-88.9 -48.886)" fill="#fff"/>
    <path id="Trazado_1007960" data-name="Trazado 1007960" d="M324.43,109.1q.051,6.044.368,12.08c.015.288.465.29.45,0q-.318-6.036-.368-12.08a.225.225,0,0,0-.45,0" transform="translate(-90.758 -30.46)" fill="#fff"/>
    <path id="Trazado_1007961" data-name="Trazado 1007961" d="M316.456,125.665q-10.8,13.134-21.373,26.452c-.178.224.138.545.318.318q10.574-13.317,21.373-26.452c.183-.222-.134-.542-.318-.318" transform="translate(-82.534 -35.133)" fill="#fff"/>
    <path id="Trazado_1007962" data-name="Trazado 1007962" d="M319.241,171.458c1.875-1.733,3.761-3.476,5.742-5.088.225-.183-.1-.5-.318-.318-1.981,1.612-3.867,3.355-5.742,5.088-.213.2.106.515.318.318" transform="translate(-89.198 -46.437)" fill="#fff"/>
    <path id="Trazado_1007963" data-name="Trazado 1007963" d="M325,125.961a66.375,66.375,0,0,0,9.134,4.792c.264.113.493-.275.228-.389a66.257,66.257,0,0,1-9.134-4.792c-.246-.155-.472.235-.228.389" transform="translate(-90.888 -35.118)" fill="#fff"/>
    <path id="Trazado_1007964" data-name="Trazado 1007964" d="M325.548,125.612a101.653,101.653,0,0,1,9.876,2.736c.276.091.394-.344.12-.434a101.658,101.658,0,0,0-9.876-2.736c-.282-.063-.4.371-.12.434" transform="translate(-91.026 -35.016)" fill="#fff"/>
    <path id="Trazado_1007965" data-name="Trazado 1007965" d="M301.965,132.269c-.258.376-.939.357-1.521-.043s-.845-1.029-.587-1.4.939-.357,1.521.043.845,1.028.587,1.4" transform="translate(-83.856 -36.522)" fill="#030407"/>
    <path id="Trazado_1007966" data-name="Trazado 1007966" d="M290.476,129.292c.037.454.638.776,1.341.718s1.245-.472,1.207-.927-.638-.776-1.342-.718-1.244.473-1.206.927" transform="translate(-81.259 -35.908)" fill="#030407"/>
    <path id="Trazado_1007967" data-name="Trazado 1007967" d="M293.147,120.049c8.3-2.887,14.435-11.035,12.889-20.053-.292-1.7-.733-3.78-2.453-4.582a4.438,4.438,0,0,0-4.561.768c-3.259,2.586-4.455,7.88-4.663,11.806a25.107,25.107,0,0,0,.792,7.632c.58,2.229,1.329,4.775,3.306,6.158.417.292.951-.3.531-.6-1.983-1.388-2.673-4.085-3.207-6.33a23.857,23.857,0,0,1-.578-7.593,20.454,20.454,0,0,1,1.816-6.894c1.029-2.186,3.149-5.439,6.041-4.281,2.388.956,2.488,5.167,2.4,7.357a16.656,16.656,0,0,1-2.064,7.307,19,19,0,0,1-10.5,8.546.4.4,0,0,0,.26.756" transform="translate(-81.862 -26.597)" fill="#030407"/>
    <path id="Trazado_1007968" data-name="Trazado 1007968" d="M296.55,104.435c.735-3.236,2.419-7.96,6.359-8.387,2.374-.257,2.89,3.171,3.1,4.919a15.167,15.167,0,0,1-.456,5.769c-.2.745.976.978,1.174.236a16.079,16.079,0,0,0,.165-7.849c-.451-1.933-1.125-4.158-3.441-4.283-4.842-.262-7.218,5.577-8.08,9.361a.6.6,0,0,0,1.176.236" transform="translate(-82.625 -26.528)" fill="#030407"/>
    <path id="Trazado_1007969" data-name="Trazado 1007969" d="M252.3,106.155a3.64,3.64,0,1,1-3.64-3.64,3.64,3.64,0,0,1,3.64,3.64" transform="translate(-68.544 -28.678)" fill="#030407"/>
    <path id="Trazado_1007970" data-name="Trazado 1007970" d="M248.957,92.569a38.029,38.029,0,0,1-3.491-15.246,76.158,76.158,0,0,1,.144-7.725,40.358,40.358,0,0,1,1.009-8.078.564.564,0,0,0-1.086-.3A39.939,39.939,0,0,0,244.524,69a75.562,75.562,0,0,0-.158,8.912,39.027,39.027,0,0,0,3.619,15.22c.316.652,1.287.081.972-.568" transform="translate(-68.341 -17.015)" fill="#030407"/>
    <path id="Trazado_1007971" data-name="Trazado 1007971" d="M308.106,85.886c1.5-8.267,2.89-16.679,1.38-25.052-.128-.712-1.213-.411-1.085.3,1.471,8.16.086,16.4-1.38,24.453-.129.709.956,1.013,1.085.3" transform="translate(-85.885 -16.904)" fill="#030407"/>
    <path id="Trazado_1007972" data-name="Trazado 1007972" d="M246.884,66.676,245.078,61.5l1.235-2.177,2.927,1.8-1.389,4.54Z" transform="translate(-68.56 -16.595)" fill="#dbebfb"/>
    <path id="Trazado_1007973" data-name="Trazado 1007973" d="M310.853,60.575l-2.248,3.994-1.527-3.415.5-2.253Z" transform="translate(-85.904 -16.477)" fill="#dbebfb"/>
    <path id="Trazado_1007974" data-name="Trazado 1007974" d="M299.415,58.7l-5.472,10.943-1.3,2.606c-.539,1.078-.753,1.854-2.029,2.08a33.283,33.283,0,0,1-6.518.158.227.227,0,0,0-.114.42,43.286,43.286,0,0,1,4.657,3.208c.952.758,1.6,1.017.689,2.113q-.905,1.094-1.818,2.185-3.729,4.459-7.571,8.823c-5.128,5.811-10.438,11.461-15.975,16.883-.207.2.112.521.318.318a367.3,367.3,0,0,0,26.27-28.988.229.229,0,0,0,0-.318,44.919,44.919,0,0,0-6.342-4.613l-.114.419a59.292,59.292,0,0,0,7.109-.208c.721-.067.535,0,.915-.429a15.488,15.488,0,0,0,1.564-3.127L299.8,58.926c.129-.259-.259-.487-.389-.228" transform="translate(-73.823 -16.389)" fill="#fff"/>
    <path id="Trazado_1007975" data-name="Trazado 1007975" d="M243.257,59.036q2.776,7.571,5.779,15.055a.234.234,0,0,0,.277.157q3.062-.511,6.064-1.282l-.254-.331q-.806,1.776-1.613,3.552c-.336.742-1.339,2.161-1.278,2.985.042.574.56,1.077.879,1.539l2.377,3.429a136.3,136.3,0,0,0,8.634,11.6c.19.22.507-.1.319-.319a123.917,123.917,0,0,1-7.885-10.527L254.688,82.2c-.5-.721-1.686-1.865-1.868-2.694-.232-1.06.884-2.662,1.309-3.6l1.382-3.045a.228.228,0,0,0-.254-.331c-.91.233-1.823.455-2.741.654a10.9,10.9,0,0,1-2.489.487c-.971-.05-1.088-1.026-1.411-1.841q-.53-1.339-1.054-2.68-1.989-5.1-3.869-10.236c-.1-.27-.534-.153-.434.12" transform="translate(-68.046 -16.439)" fill="#fff"/>
    <path id="Trazado_1007976" data-name="Trazado 1007976" d="M271.933,134.31a1.8,1.8,0,1,1-1.8-1.8,1.8,1.8,0,0,1,1.8,1.8" transform="translate(-75.065 -37.069)" fill="#fff"/>
    <path id="Trazado_1007977" data-name="Trazado 1007977" d="M271.933,158.768a1.8,1.8,0,1,1-1.8-1.8,1.8,1.8,0,0,1,1.8,1.8" transform="translate(-75.065 -43.911)" fill="#fff"/>
    <path id="Trazado_1007978" data-name="Trazado 1007978" d="M271.933,183.225a1.8,1.8,0,1,1-1.8-1.8,1.8,1.8,0,0,1,1.8,1.8" transform="translate(-75.065 -50.753)" fill="#fff"/>
    <path id="Trazado_1007979" data-name="Trazado 1007979" d="M244.665,159.586l-10.639,10.369-1.516-.982-1.495-4.991s6.936-5.742,7.086-5.742,4.713-1.273,4.713-1.273Z" transform="translate(-64.626 -43.911)" fill="#dbebfb"/>
    <path id="Trazado_1007980" data-name="Trazado 1007980" d="M246.388,159.221q-5.6,5.716-11.441,11.187c-.212.2.107.516.319.318q5.853-5.455,11.44-11.187c.2-.207-.115-.526-.318-.318" transform="translate(-65.706 -44.523)" fill="#fff"/>
    <path id="Trazado_1007981" data-name="Trazado 1007981" d="M232.224,175.137c7.362,0,14.725.037,22.087.037a.226.226,0,0,0,0-.451c-7.362,0-14.724-.036-22.087-.036a.225.225,0,0,0,0,.45" transform="translate(-64.903 -48.868)" fill="#fff"/>
    <path id="Trazado_1007982" data-name="Trazado 1007982" d="M263.111,174.967c-.019-.288-.47-.29-.45,0,.238,3.627.408,7.28.294,10.919h.452c0-.117,0-.237.007-.352.093-3.525-.073-7.05-.3-10.567" transform="translate(-73.478 -48.886)" fill="#fff"/>
    <path id="Trazado_1007983" data-name="Trazado 1007983" d="M231.634,184.367l.382-9.436c.012-.29-.439-.29-.45,0l-.382,9.436c-.021.5-.042,1-.062,1.509h.446c.022-.506.046-1.011.066-1.509" transform="translate(-64.656 -48.876)" fill="#fff"/>
    <path id="Trazado_1007984" data-name="Trazado 1007984" d="M297.543,161.846l14.194,6.677,1.383-3.232-13.588-6.973Z" transform="translate(-83.237 -44.289)" fill="#dbebfb"/>
    <path id="Trazado_1007985" data-name="Trazado 1007985" d="M295.324,162.751l17.03,7.718c.262.119.491-.269.228-.389l-17.03-7.718c-.261-.12-.491.269-.227.388" transform="translate(-82.583 -45.414)" fill="#fff"/>
  </g>
</svg>
