<svg xmlns="http://www.w3.org/2000/svg" width="40" height="47.152" viewBox="0 0 40 47.152">
  <g id="Grupo_1180451" data-name="Grupo 1180451" transform="translate(-38.829)">
    <g id="Grupo_1180450" data-name="Grupo 1180450" transform="translate(38.829)">
      <g id="Grupo_1180449" data-name="Grupo 1180449" transform="translate(0)">
        <path id="Trazado_1004510" data-name="Trazado 1004510" d="M162.767,248.531a7.455,7.455,0,1,0-4.437-13.446.691.691,0,0,0,.823,1.11,6.063,6.063,0,1,1-1.851,2.228.691.691,0,1,0-1.242-.6,7.385,7.385,0,0,0-.748,3.258A7.463,7.463,0,0,0,162.767,248.531Z" transform="translate(-144.585 -212.107)" fill="#3e5d56"/>
        <path id="Trazado_1004511" data-name="Trazado 1004511" d="M159.142,51.115v-3.37a1.152,1.152,0,0,0-1.151-1.151H139.3a.691.691,0,0,0,0,1.381h18.46v2.91H133.4v-2.91h2.681a.691.691,0,1,0,0-1.381h-2.911a1.152,1.152,0,0,0-1.151,1.151v3.37a1.152,1.152,0,0,0,1.151,1.151h24.825A1.152,1.152,0,0,0,159.142,51.115Z" transform="translate(-123.433 -42.303)" fill="#3e5d56"/>
        <path id="Trazado_1004512" data-name="Trazado 1004512" d="M213.228,298.785a.691.691,0,0,0,.691.691h.74v3.6a.691.691,0,0,0,.691.691h1.43a.691.691,0,1,0,0-1.381h-.74v-3.6a.691.691,0,0,0-.691-.691h-1.43A.691.691,0,0,0,213.228,298.785Z" transform="translate(-197.167 -270.642)" fill="#3e5d56"/>
        <circle id="Elipse_13798" data-name="Elipse 13798" cx="0.691" cy="0.691" r="0.691" transform="translate(17.491 24.592)" fill="#3e5d56"/>
        <path id="Trazado_1004513" data-name="Trazado 1004513" d="M213.425,139.781H194.831a.691.691,0,0,0,0,1.381h18.594a.691.691,0,0,0,0-1.381Z" transform="translate(-179.837 -126.908)" fill="#3e5d56"/>
        <path id="Trazado_1004514" data-name="Trazado 1004514" d="M171.122,170.844H148.237a.691.691,0,0,0,0,1.381h22.885a.691.691,0,1,0,0-1.381Z" transform="translate(-137.534 -155.11)" fill="#3e5d56"/>
        <path id="Trazado_1004515" data-name="Trazado 1004515" d="M78.138,24.741a.691.691,0,0,0,.691-.691V1.612A1.614,1.614,0,0,0,77.217,0H44.731A1.614,1.614,0,0,0,43.12,1.612V38.591l-3.632,3.074a1.86,1.86,0,0,0-.114,2.735l2.207,2.207a1.865,1.865,0,0,0,1.316.545l.077,0a1.865,1.865,0,0,0,1.343-.657l.653-.772H77.217a1.614,1.614,0,0,0,1.612-1.612V27.273a.691.691,0,0,0-1.381,0v9.336H71.329a1.614,1.614,0,0,0-1.612,1.612V44.34H46.138l5.5-6.5a10.34,10.34,0,0,0,5.377,1.5h.1A10.519,10.519,0,0,0,67.386,29.06q0-.252-.008-.5h2.178a.691.691,0,1,0,0-1.381H67.233a10.278,10.278,0,0,0-.37-1.479h5.554a.691.691,0,0,0,0-1.381H66.29a10.3,10.3,0,0,0-.908-1.479h7.035a.691.691,0,1,0,0-1.381H64.165a10.417,10.417,0,0,0-1.971-1.479h5.932a.691.691,0,1,0,0-1.381H49.532a.691.691,0,1,0,0,1.381h2.382a10.754,10.754,0,0,0-2.194,1.692,10.264,10.264,0,0,0-1.583,12.679L44.5,37.422V1.612a.23.23,0,0,1,.23-.23H77.217a.23.23,0,0,1,.23.23V24.05a.691.691,0,0,0,.691.691ZM77.447,44.11a.23.23,0,0,1-.23.23H72.075l5.372-5.372Zm-6.119-6.119h5.142L71.1,43.363V38.221A.23.23,0,0,1,71.329,37.991ZM42.916,45.77a.474.474,0,0,1-.358-.14L40.35,43.423a.478.478,0,0,1,.029-.7l5.036-4.262,2.107,2.107L43.261,45.6A.474.474,0,0,1,42.916,45.77Zm6.492-11.993a8.963,8.963,0,0,1-1.391-4.9,9.149,9.149,0,0,1,8.915-8.9A8.989,8.989,0,0,1,66,29.048a9.149,9.149,0,0,1-8.9,8.915,8.952,8.952,0,0,1-4.9-1.391,1.156,1.156,0,0,0-1.5.228l-2.29,2.706-1.944-1.944,2.706-2.29a1.156,1.156,0,0,0,.228-1.5Z" transform="translate(-38.829)" fill="#3e5d56"/>
      </g>
    </g>
  </g>
</svg>
