<svg xmlns="http://www.w3.org/2000/svg" width="292" height="163" viewBox="0 0 292 163">
  <g id="Grupo_1181230" data-name="Grupo 1181230" transform="translate(-185.711 -932)">
    <path id="Rectángulo_455878" data-name="Rectángulo 455878" d="M20,0H272a20,20,0,0,1,20,20V163a0,0,0,0,1,0,0H0a0,0,0,0,1,0,0V20A20,20,0,0,1,20,0Z" transform="translate(185.711 932)" fill="#bbded6"/>
    <rect id="Rectángulo_455976" data-name="Rectángulo 455976" width="292" height="35" transform="translate(185.711 1060)" fill="#99bfb7"/>
    <g id="_22457172_21_07_07_Family_doctor_similars_44_" data-name="22457172_21_07_07_Family_doctor_similars_44_" transform="translate(-354.58 351.518)">
      <g id="Grupo_1181116" data-name="Grupo 1181116" transform="translate(623.083 608.372)">
        <g id="Grupo_1181109" data-name="Grupo 1181109" transform="translate(0 44.543)">
          <g id="Grupo_1181106" data-name="Grupo 1181106" transform="translate(6.017 3.943)">
            <path id="Trazado_1005694" data-name="Trazado 1005694" d="M1277.77,1935.631h6.1l2.2-33.211h-8.3Z" transform="translate(-1277.77 -1902.42)" fill="#eac7b9"/>
            <path id="Trazado_1005695" data-name="Trazado 1005695" d="M1830.84,1967.36h3.32l4.979-64.94h-8.3Z" transform="translate(-1801.793 -1902.42)" fill="#eac7b9"/>
            <path id="Trazado_1005696" data-name="Trazado 1005696" d="M3786.809,1964.785h-3.319l-4.979-62.365h8.3Z" transform="translate(-3647.173 -1902.42)" fill="#eac7b9"/>
            <path id="Trazado_1005697" data-name="Trazado 1005697" d="M3281.069,1964.785h-3.32l-4.979-62.365h8.3Z" transform="translate(-3167.994 -1902.42)" fill="#eac7b9"/>
          </g>
          <g id="Grupo_1181108" data-name="Grupo 1181108">
            <path id="Trazado_1005698" data-name="Trazado 1005698" d="M2132.721,1916.623h71.617a1.641,1.641,0,0,0,1.641-1.641v-6.642h-74.9v6.642A1.641,1.641,0,0,0,2132.721,1916.623Z" transform="translate(-2080.248 -1904.086)" fill="#eac7b9"/>
            <g id="Grupo_1181107" data-name="Grupo 1181107">
              <path id="Trazado_1005699" data-name="Trazado 1005699" d="M1164.269,1835.018h150.575a1.066,1.066,0,0,0,1.066-1.066v-5.545a1.066,1.066,0,0,0-1.066-1.066H1164.269a1.066,1.066,0,0,0-1.066,1.066v5.545A1.066,1.066,0,0,0,1164.269,1835.018Z" transform="translate(-1163.203 -1827.341)" fill="#f4d7c9"/>
              <path id="Trazado_1005700" data-name="Trazado 1005700" d="M1164.269,1835.019h38.562v-7.677h-38.562a1.066,1.066,0,0,0-1.066,1.066v5.545A1.066,1.066,0,0,0,1164.269,1835.019Z" transform="translate(-1163.203 -1827.342)" fill="#eac7b9"/>
            </g>
          </g>
        </g>
        <g id="Grupo_1181115" data-name="Grupo 1181115" transform="translate(38.444 0)">
          <g id="Grupo_1181110" data-name="Grupo 1181110" transform="translate(21.171 35.075)">
            <rect id="Rectángulo_455975" data-name="Rectángulo 455975" width="7.379" height="7.477" transform="translate(12.558 7.477) rotate(180)" fill="#5b98e3"/>
            <path id="Trazado_1005701" data-name="Trazado 1005701" d="M2298.31,1782.755h17.736v-1.222a1.249,1.249,0,0,0-1.249-1.249h-15.237a1.249,1.249,0,0,0-1.249,1.249v1.222Z" transform="translate(-2298.31 -1773.286)" fill="#64a3ef"/>
          </g>
          <g id="Grupo_1181114" data-name="Grupo 1181114">
            <g id="Grupo_1181111" data-name="Grupo 1181111">
              <path id="Trazado_1005702" data-name="Trazado 1005702" d="M1896.376,1015.462h56.816a1.171,1.171,0,0,0,1.172-1.172v-33.9a1.171,1.171,0,0,0-1.172-1.172h-56.816a1.171,1.171,0,0,0-1.172,1.172v33.9A1.171,1.171,0,0,0,1896.376,1015.462Z" transform="translate(-1895.204 -979.216)" fill="#5b98e3"/>
              <path id="Trazado_1005703" data-name="Trazado 1005703" d="M1930.33,1014.287v-33.9a1.172,1.172,0,0,1,1.172-1.172h54.972a1.172,1.172,0,0,1,1.171,1.172v33.9a1.172,1.172,0,0,1-1.171,1.172H1931.5A1.171,1.171,0,0,1,1930.33,1014.287Z" transform="translate(-1928.485 -979.212)" fill="#64a3ef"/>
            </g>
            <g id="Grupo_1181113" data-name="Grupo 1181113" transform="translate(3.607 1.867)">
              <path id="Trazado_1005704" data-name="Trazado 1005704" d="M2017.675,1046.276v-30.419a1.1,1.1,0,0,0-1.1-1.1h-51.591a1.1,1.1,0,0,0-1.1,1.1v30.419a1.1,1.1,0,0,0,1.1,1.1h51.591A1.1,1.1,0,0,0,2017.675,1046.276Z" transform="translate(-1963.885 -1014.758)" fill="#83baef"/>
              <g id="Grupo_1181112" data-name="Grupo 1181112">
                <path id="Trazado_1005705" data-name="Trazado 1005705" d="M2476.95,1047.372H2488.1l15.4-32.268a1.1,1.1,0,0,0-.8-.35h-10.182Z" transform="translate(-2450.004 -1014.754)" fill="#8dbfef"/>
                <path id="Trazado_1005706" data-name="Trazado 1005706" d="M2184.624,1047.378l15.563-32.618h-11.263l-15.563,32.618Z" transform="translate(-2162.358 -1014.76)" fill="#8dbfef"/>
                <path id="Trazado_1005707" data-name="Trazado 1005707" d="M1974.2,1014.76l-10.32,21.629v9.89a1.1,1.1,0,0,0,1.1,1.1h4.811l15.563-32.618Z" transform="translate(-1963.879 -1014.76)" fill="#8dbfef"/>
              </g>
            </g>
          </g>
        </g>
      </g>
      <g id="Grupo_1181229" data-name="Grupo 1181229" transform="translate(593.144 587.816)">
        <g id="Grupo_1181180" data-name="Grupo 1181180" transform="translate(100.566 0)">
          <g id="Grupo_1181132" data-name="Grupo 1181132" transform="translate(21.449 12.025)">
            <g id="Grupo_1181125" data-name="Grupo 1181125" transform="translate(16.74 94.008)">
              <g id="Grupo_1181123" data-name="Grupo 1181123" transform="translate(0 9.223)">
                <g id="Grupo_1181121" data-name="Grupo 1181121" transform="translate(0 13.193)">
                  <g id="Grupo_1181117" data-name="Grupo 1181117" transform="translate(18.969 3.782)">
                    <path id="Trazado_1005708" data-name="Trazado 1005708" d="M3630.54,3112.863h-2.265l-.415-7.293h3.094Z" transform="translate(-3626.202 -3105.57)" fill="#1a2347"/>
                    <circle id="Elipse_13847" data-name="Elipse 13847" cx="3.232" cy="3.232" r="3.232" transform="translate(0 6.602)" fill="#1a2347"/>
                  </g>
                  <g id="Grupo_1181118" data-name="Grupo 1181118" transform="translate(29.441 0.808)">
                    <path id="Trazado_1005709" data-name="Trazado 1005709" d="M3795.69,3048.96s10.559-.039,13.293,7.172l-.331.539s-2.86-5.139-11.562-5.429Z" transform="translate(-3795.69 -3048.96)" fill="#1a2347"/>
                    <circle id="Elipse_13848" data-name="Elipse 13848" cx="3.232" cy="3.232" r="3.232" transform="translate(5.799 8.581) rotate(-45)" fill="#1a2347"/>
                  </g>
                  <g id="Grupo_1181119" data-name="Grupo 1181119" transform="translate(0 0.784)">
                    <path id="Trazado_1005710" data-name="Trazado 1005710" d="M3277.495,3048.5s-10.655-.014-13.39,7.2l.332.539s2.859-5.139,11.562-5.428Z" transform="translate(-3262.582 -3048.5)" fill="#1a2347"/>
                    <circle id="Elipse_13849" data-name="Elipse 13849" cx="3.232" cy="3.232" r="3.232" transform="translate(0 11.025) rotate(-76.714)" fill="#1a2347"/>
                  </g>
                  <g id="Grupo_1181120" data-name="Grupo 1181120" transform="translate(13.416)">
                    <path id="Trazado_1005711" data-name="Trazado 1005711" d="M3506.661,3052.526a33.784,33.784,0,0,0-14.721,0h-1.384v1.326c0,.975,3.915,1.765,8.744,1.765s8.744-.79,8.744-1.765v-1.326Z" transform="translate(-3490.557 -3050.762)" fill="#1a2347"/>
                    <ellipse id="Elipse_13850" data-name="Elipse 13850" cx="8.744" cy="1.765" rx="8.744" ry="1.765" transform="translate(0)" fill="#212851"/>
                  </g>
                </g>
                <g id="Grupo_1181122" data-name="Grupo 1181122" transform="translate(18.241)">
                  <path id="Trazado_1005712" data-name="Trazado 1005712" d="M3582.43,2797.41v13.99c0,.437,1.753.791,3.917.791s3.916-.354,3.916-.791v-13.99Z" transform="translate(-3582.43 -2796.62)" fill="#28325b"/>
                  <ellipse id="Elipse_13851" data-name="Elipse 13851" cx="3.916" cy="0.79" rx="3.916" ry="0.79" transform="translate(0)" fill="#2f3d70"/>
                </g>
              </g>
              <g id="Grupo_1181124" data-name="Grupo 1181124" transform="translate(15.048)">
                <path id="Trazado_1005713" data-name="Trazado 1005713" d="M3625.98,2656.886v-7.251h3.258v7.251a.531.531,0,0,1-.531.531h-2.2A.531.531,0,0,1,3625.98,2656.886Z" transform="translate(-3620.5 -2647.383)" fill="#28325b"/>
                <path id="Trazado_1005714" data-name="Trazado 1005714" d="M3521.64,2607.727s2.156,2.911,3.126,2.911,7.761-.431,8.624-.862,1.186-3.019,1.186-3.019Z" transform="translate(-3521.64 -2606.757)" fill="#1a2347"/>
              </g>
            </g>
            <g id="Grupo_1181131" data-name="Grupo 1181131">
              <g id="Grupo_1181127" data-name="Grupo 1181127" transform="translate(0 57.079)">
                <path id="Trazado_1005715" data-name="Trazado 1005715" d="M3087.13,2063.444s4.772,2.629,7.352,9.784l1.947-.633s-2-8.469-4.843-11.02Z" transform="translate(-3078.162 -2053.279)" fill="#212851"/>
                <path id="Trazado_1005716" data-name="Trazado 1005716" d="M3311.614,2015.293s-2.478,7.414-2.739,12.167l-1.8.633s-1.729-10.415-.28-12.869Z" transform="translate(-3285.741 -2009.361)" fill="#212851"/>
                <g id="Grupo_1181126" data-name="Grupo 1181126">
                  <path id="Trazado_1005717" data-name="Trazado 1005717" d="M2928.25,1907.615s-6.6,2.62-9.667,4.789-2.259,3.795-1.536,4.337,4.517-1.265,7.59-2.349,18.883-4.789,22.859-5.511a1.831,1.831,0,0,0,.362-3.433c-1.988-1.084-5.15-2.078-7.048-1.807A70.764,70.764,0,0,0,2928.25,1907.615Z" transform="translate(-2916.377 -1903.595)" fill="#344075"/>
                  <path id="Trazado_1005718" data-name="Trazado 1005718" d="M2954.329,1968.2a2.03,2.03,0,0,0,1.427-2,5.519,5.519,0,0,1-1.879.552c-2.981.451-22.588,5.873-26.654,7.68a24.094,24.094,0,0,1-3.633,1.346,1.677,1.677,0,0,0,.29.28c.723.542,4.518-1.265,7.59-2.349S2950.353,1968.921,2954.329,1968.2Z" transform="translate(-2923.211 -1962.912)" fill="#28325b"/>
                </g>
              </g>
              <g id="Grupo_1181130" data-name="Grupo 1181130" transform="translate(4.369)">
                <g id="Grupo_1181128" data-name="Grupo 1181128" transform="translate(29.307)">
                  <path id="Trazado_1005719" data-name="Trazado 1005719" d="M3572.393,817.444a2.452,2.452,0,0,0-1.924,1.49,172.173,172.173,0,0,0-10.342,37.526c-3.45,22.206-2.372,34.172-2.372,34.172l32.447,12.612s3.126,1.509,3.449-3.342,3.019-50.449,7.438-70.069a54.346,54.346,0,0,0,1.087-7.023,3.938,3.938,0,0,0-3.1-4.263A79.785,79.785,0,0,0,3572.393,817.444Z" transform="translate(-3557.596 -816.781)" fill="#374577"/>
                  <path id="Trazado_1005720" data-name="Trazado 1005720" d="M4188.423,855.441a54.338,54.338,0,0,0,1.087-7.023,3.939,3.939,0,0,0-3.1-4.263c-.525-.111-1.1-.228-1.734-.346a5.818,5.818,0,0,1,2.229,4.3c0,3.305-5.317,31.761-6.324,46.133-.821,11.74-2.506,28.753-3.1,34.591l.05.02s3.126,1.509,3.45-3.342S4184,875.06,4188.423,855.441Z" transform="translate(-4144.93 -842.389)" fill="#28325b"/>
                </g>
                <g id="Grupo_1181129" data-name="Grupo 1181129" transform="translate(0 73.372)">
                  <path id="Trazado_1005721" data-name="Trazado 1005721" d="M3036.215,2214.014s-6.467-1.006-19.976,1.725-16.671,5.461-16.671,9.629,16.815,10.491,24.719,10.922,24.288-2.3,30.181-3.736,9.054-1.868,8.479-6.18S3046.563,2215.451,3036.215,2214.014Z" transform="translate(-2999.568 -2213.833)" fill="#2f3d70"/>
                  <path id="Trazado_1005722" data-name="Trazado 1005722" d="M3062.949,2414.888c-.005-.041-.013-.081-.021-.122-5.824,1.876-29.77,7.552-37.2,6.877-6.936-.631-22.391-7.236-26.075-8.846a6.889,6.889,0,0,0-.081,1.085c0,4.168,16.815,10.491,24.719,10.923s24.288-2.3,30.18-3.737S3063.524,2419.2,3062.949,2414.888Z" transform="translate(-2999.57 -2402.348)" fill="#28325b"/>
                </g>
              </g>
            </g>
          </g>
          <g id="Grupo_1181177" data-name="Grupo 1181177">
            <g id="Grupo_1181173" data-name="Grupo 1181173">
              <g id="Grupo_1181158" data-name="Grupo 1181158" transform="translate(0 17.453)">
                <g id="Grupo_1181137" data-name="Grupo 1181137" transform="translate(0 12.022)">
                  <g id="Grupo_1181134" data-name="Grupo 1181134" transform="translate(0 26.136)">
                    <path id="Trazado_1005723" data-name="Trazado 1005723" d="M2818.607,1666.71s-6.423.444-12.975.339c-5.827-.093-11.268-.994-12.159-2.857s1.712-3.224,4.538-3.8c4.1-.828,8.576-1.617,11.9-2.027,4.651-.573,9.256-1.577,11.141.644C2823.491,1661.884,2822.819,1665.359,2818.607,1666.71Z" transform="translate(-2778.311 -1657.065)" fill="#f6af9a"/>
                    <g id="Grupo_1181133" data-name="Grupo 1181133" transform="translate(0 3.571)">
                      <path id="Trazado_1005724" data-name="Trazado 1005724" d="M2527.879,1714.8a16.319,16.319,0,0,1-3.972.224c-1.826-.184-6.085-.386-7.26-.34s-4.047,1.578-4.989,2.091-3.552,2.836-3.679,3.453,2.03.5,2.774.012a21.475,21.475,0,0,1,3.082-1.825c.659-.208,6.211.548,6.211.548s-.176.851-1.757.8c-1.551-.052-2.613.641-2.489,1.192s1.886.484,3.731.524a8.849,8.849,0,0,0,5.071-1.2c1.434-.937,3.979-.579,5.143-1C2531.734,1718.554,2531.774,1714.421,2527.879,1714.8Z" transform="translate(-2507.973 -1714.678)" fill="#f6af9a"/>
                      <path id="Trazado_1005725" data-name="Trazado 1005725" d="M2737.573,1769.058c.054-.133.111-.264.167-.4l.084-.2.086-.194c.029-.065.052-.132.076-.2a.892.892,0,0,1,.1-.187,1.376,1.376,0,0,1,.3-.326.017.017,0,0,1,.023,0,.015.015,0,0,1,0,.009.967.967,0,0,1-.065.446.788.788,0,0,1-.1.191c-.043.059-.086.116-.126.176l-.122.178-.127.174c-.086.114-.173.228-.267.338a.015.015,0,0,1-.021,0A.016.016,0,0,1,2737.573,1769.058Z" transform="translate(-2725.514 -1764.779)" fill="#e57e73"/>
                    </g>
                    <path id="Trazado_1005726" data-name="Trazado 1005726" d="M2881.476,1650.619s-1.383-3.887-4.889-3.928a102.421,102.421,0,0,0-21.527,2.652,24.733,24.733,0,0,0,.375,7.056s17.726,1.233,22.22.1C2878.264,1656.346,2882.636,1654.6,2881.476,1650.619Z" transform="translate(-2836.737 -1646.69)" fill="#e8e8e8"/>
                  </g>
                  <g id="Grupo_1181136" data-name="Grupo 1181136" transform="translate(35.585)">
                    <path id="Trazado_1005727" data-name="Trazado 1005727" d="M3204.88,1153.4s-2.734,2.8-5.34,9.022-6.92,16.8-7.228,19.414,2.891,5.816,6.61,3.461,5.908-6.423,8.453-10.6c5.422-8.906,5.644-15.934,4.26-19.059S3206.369,1151.778,3204.88,1153.4Z" transform="translate(-3191.937 -1152.375)" fill="#f7bead"/>
                    <g id="Grupo_1181135" data-name="Grupo 1181135">
                      <path id="Trazado_1005728" data-name="Trazado 1005728" d="M3197.916,1150.486s-2.083,1.49-7.2,13.472-5.043,14.136-5.178,15.4c-.172,1.62,2.762,6.786,6.189,5.361s6.724-7.459,8.91-11.3a42.212,42.212,0,0,0,5.266-13.934c.968-5.593-.792-9.269-3.488-10.212A4.235,4.235,0,0,0,3197.916,1150.486Z" transform="translate(-3185.528 -1149.037)" fill="#e8e8e8"/>
                    </g>
                    <path id="Trazado_1005729" data-name="Trazado 1005729" d="M3353.09,1242.64s-1.014.966-1.883,8.693c-.77,6.845-.517,15.584-.718,20.311,2.5-2.471,4.79-6.63,6.443-9.536a43.58,43.58,0,0,0,4.891-12.061C3359.119,1245.942,3355.522,1242.688,3353.09,1242.64Z" transform="translate(-3341.825 -1237.724)" fill="#d6d8d8"/>
                  </g>
                  <path id="Trazado_1005730" data-name="Trazado 1005730" d="M3209.4,1402.61q-.337.769-.694,1.6c-2.239,5.241-3.484,8.6-4.188,10.83a91.053,91.053,0,0,0,7.465,8.363,19.423,19.423,0,0,0,2.161-2.493l4.3-6.907.188-.331c.605-1.063,1.2-2.178,1.776-3.352Z" transform="translate(-3167.94 -1389.293)" fill="#d6d8d8"/>
                </g>
                <g id="Grupo_1181157" data-name="Grupo 1181157" transform="translate(6.258)">
                  <g id="Grupo_1181154" data-name="Grupo 1181154">
                    <g id="Grupo_1181139" data-name="Grupo 1181139" transform="translate(39.74)">
                      <path id="Trazado_1005731" data-name="Trazado 1005731" d="M3404.416,1083.852a17.548,17.548,0,0,1,12.181,2.553c5.779,3.862,4.955,12.3,3.551,21.14a79.87,79.87,0,0,0-.991,18.961c.337,5.64-3.508,11.128-13.764,11.506s-12.481-4.6-13.021-8.441c-.687-4.882-1.243-18.132-2.4-23.968s-1.659-16.527,4.153-18.995S3401.319,1084.193,3404.416,1083.852Z" transform="translate(-3388.962 -1075.051)" fill="#f6af9a"/>
                      <g id="Grupo_1181138" data-name="Grupo 1181138" transform="translate(10.265)">
                        <path id="Trazado_1005732" data-name="Trazado 1005732" d="M3586.656,921.208a3.234,3.234,0,0,1,.8,1.888,15.973,15.973,0,0,0,1.354,5.54c1.224,2.252-2.238,5.542-4.937,5.441-2.925-.109-3.893-1.141-4.167-3.7s-.325-3.07-.428-5.129a4.509,4.509,0,0,1,3.928-5.069A3.767,3.767,0,0,1,3586.656,921.208Z" transform="translate(-3579.269 -920.132)" fill="#f6af9a"/>
                        <path id="Trazado_1005733" data-name="Trazado 1005733" d="M3583.2,920.173a3.768,3.768,0,0,1,3.451,1.034c.468.521.166,1.871-.1,2.52a10.93,10.93,0,0,1-6.869,6.494c-.26-2.434-.311-2.962-.412-4.98A4.509,4.509,0,0,1,3583.2,920.173Z" transform="translate(-3579.265 -920.131)" fill="#e57e73"/>
                      </g>
                      <path id="Trazado_1005734" data-name="Trazado 1005734" d="M3393.429,1079.966s-1.624,3.331,1.211,3.578a10.763,10.763,0,0,0,9.387-5.01s6.336,1.209,9.474,4.9,2.477,9.038,2.366,11.736-1.38,12.132-1.435,16.867a127.712,127.712,0,0,0,1.321,14.149s-16.572,2.918-30.225-.716c0,0,.055-7.157-.551-13.929s-2.863-22.9,1.266-27.8C3386.52,1083.3,3388.942,1080.985,3393.429,1079.966Z" transform="translate(-3383.818 -1070.216)" fill="#de6a5b"/>
                    </g>
                    <g id="Grupo_1181153" data-name="Grupo 1181153" transform="translate(0 43.673)">
                      <g id="Grupo_1181145" data-name="Grupo 1181145" transform="translate(0 12.316)">
                        <g id="Grupo_1181142" data-name="Grupo 1181142" transform="translate(0 52.921)">
                          <g id="Grupo_1181140" data-name="Grupo 1181140" transform="translate(0.806)">
                            <path id="Trazado_1005735" data-name="Trazado 1005735" d="M2659.281,2994.573a2.717,2.717,0,0,1,4.432,1.144,5.17,5.17,0,0,1,.249,1.265,22.046,22.046,0,0,0,1.082,5.176c.567,2.226-.293,4.075-3.145,4.507s-8.312.25-12.4.563-6.881-.435-7.009-2.022,2.755-2.9,6.039-3.874,6.771-2.244,8.194-3.477C2657.97,2996.778,2658.284,2995.507,2659.281,2994.573Z" transform="translate(-2642.489 -2993.842)" fill="#f6af9a"/>
                          </g>
                          <g id="Grupo_1181141" data-name="Grupo 1181141" transform="translate(0 4.94)">
                            <path id="Trazado_1005736" data-name="Trazado 1005736" d="M2629.26,3221.71a10.685,10.685,0,0,0,.287,1.928c.146.184,1.945,1.578,8.625,1.138a121.255,121.255,0,0,1,13.25-.184h.518a.8.8,0,0,0,.8-.872l-.1-1.146Z" transform="translate(-2629.149 -3214.682)" fill="#e0e0e0"/>
                            <path id="Trazado_1005737" data-name="Trazado 1005737" d="M2640.012,3087.9s1.248-.073,2.679,2.239a8.044,8.044,0,0,0,4.7-.441c1.267-.545,2.046-1.127,2.412-1.048.289.062.977,3.215,1.075,4.976a5.6,5.6,0,0,1-.257,2.165,72.52,72.52,0,0,1-8.368.7c-5.249.184-13.03.844-14.608-.917s.848-3.422,2.716-4.111C2633.847,3090.171,2640.012,3087.9,2640.012,3087.9Z" transform="translate(-2627.135 -3087.896)" fill="#e8e8e8"/>
                            <path id="Trazado_1005738" data-name="Trazado 1005738" d="M2735.456,3087.9l-7.587,2.8c1.091,1.084,1.561,1.435,3.147,1.165,1.725-.293,7.12-1.725,7.12-1.725C2736.7,3087.822,2735.456,3087.9,2735.456,3087.9Z" transform="translate(-2722.578 -3087.896)" fill="#e0e0e0"/>
                          </g>
                        </g>
                        <g id="Grupo_1181143" data-name="Grupo 1181143" transform="translate(10.087)">
                          <path id="Trazado_1005739" data-name="Trazado 1005739" d="M2868.489,2001.057s1.51,10.938-10.8,14.3c-14.723,4.014-23.508,1.582-29.141-.385s-7.752-10.336,2.646-13.61c9.106-2.867,11.2-3.414,17.811-5.171C2857.37,1993.963,2867.093,1991.552,2868.489,2001.057Z" transform="translate(-2823.612 -1993.754)" fill="#dd887a"/>
                          <path id="Trazado_1005740" data-name="Trazado 1005740" d="M2819.206,2001.281s-.44-3.771,4.322-6.5,13.048-4.294,18.856-5.946,14.865-3.744,17.893-1.982,5.67,6.661,3.468,12.277-7.35,9.717-18.581,10.571-17.645-.055-22.683-2.835A7,7,0,0,1,2819.206,2001.281Z" transform="translate(-2819.195 -1986.188)" fill="#1b2449"/>
                          <path id="Trazado_1005741" data-name="Trazado 1005741" d="M3074.668,2260.59l-1.263,9.17c1.186.12,2.451.195,3.81.227C3076.637,2262.56,3074.668,2260.59,3074.668,2260.59Z" transform="translate(-3060.054 -2246.179)" fill="#172142"/>
                        </g>
                        <g id="Grupo_1181144" data-name="Grupo 1181144" transform="translate(9.924 8.691)">
                          <path id="Trazado_1005742" data-name="Trazado 1005742" d="M2834.62,2184.07s1.407,3.372,1.672,12.854.106,14.914-1.7,22.709-1.211,9.9-4.808,10.275c-3.7.389-3.169-4.995-4.722-13.346-2.158-11.607-4.466-26.375-3.774-31.688C2821.935,2179.919,2832.178,2178.535,2834.62,2184.07Z" transform="translate(-2820.898 -2178.982)" fill="#f6af9a"/>
                          <path id="Trazado_1005743" data-name="Trazado 1005743" d="M2816.6,2155.834s-.8,1.927-.385,7.46,3.331,26.674,4.047,32.95c0,0,5.12,1.707,9.414.055a98.543,98.543,0,0,0,2.2-17.948c0-8.093.055-15.911-.881-21.2-.9-5.074-10.112-8.218-13.985-2.218A5.1,5.1,0,0,0,2816.6,2155.834Z" transform="translate(-2816.095 -2151.662)" fill="#1b2449"/>
                        </g>
                      </g>
                      <path id="Trazado_1005744" data-name="Trazado 1005744" d="M3462.219,1751.8s12.186-1.582,13.245,7.343c.269,2.687,2.472,8.871,3.083,13.764.771,6.166-.356,11.182-6.886,15.57s-18.458,2.643-20.695-6.638c-2.258-9.372-1.983-11.519-2.287-19.3C3448.487,1757.6,3455.15,1751.079,3462.219,1751.8Z" transform="translate(-3405.528 -1751.688)" fill="#212851"/>
                      <g id="Grupo_1181152" data-name="Grupo 1181152" transform="translate(15.557 16.514)">
                        <g id="Grupo_1181147" data-name="Grupo 1181147" transform="translate(10.299)">
                          <path id="Trazado_1005745" data-name="Trazado 1005745" d="M3178.1,2078.906s1.57,11.375-11.231,14.865c-15.31,4.175-24.444,1.646-30.3-.4s-8.062-10.748,2.751-14.152c9.469-2.981,11.648-3.55,18.521-5.377C3166.539,2071.529,3176.649,2069.022,3178.1,2078.906Z" transform="translate(-3131.048 -2071.453)" fill="#f9b3a2"/>
                          <g id="Grupo_1181146" data-name="Grupo 1181146">
                            <path id="Trazado_1005746" data-name="Trazado 1005746" d="M3119.508,2082.835a6.819,6.819,0,0,1,1.468-5.175c1.945-2.128,4.147-3.6,12.919-5.946s18.241-5.689,23.674-5.579,8.111.807,9.323,7.377-3.964,12.332-8.3,14.094-17.69,5.579-30.427,1.725C3126.812,2089,3119.948,2087.46,3119.508,2082.835Z" transform="translate(-3119.456 -2066.132)" fill="#212851"/>
                            <path id="Trazado_1005747" data-name="Trazado 1005747" d="M3395.788,2377.69l-.863,8.087c1.363.19,2.717.308,4.048.367A19.227,19.227,0,0,0,3395.788,2377.69Z" transform="translate(-3380.458 -2361.327)" fill="#1b2449"/>
                          </g>
                        </g>
                        <g id="Grupo_1181148" data-name="Grupo 1181148" transform="translate(10.278 9.985)">
                          <path id="Trazado_1005748" data-name="Trazado 1005748" d="M3142.879,2269.2s1.463,3.506,1.738,13.367.109,15.508-1.765,23.613-1.156,11.892-4.9,12.285c-3.846.4-3.4-6.794-5.013-15.479-2.244-12.07-4.645-27.426-3.925-32.951C3129.688,2264.886,3140.339,2263.448,3142.879,2269.2Z" transform="translate(-3128.371 -2265.002)" fill="#f6af9a"/>
                          <path id="Trazado_1005749" data-name="Trazado 1005749" d="M3122.01,2257.077s-3.33,1.184-2.918,6.854c.4,5.444,3.413,30.747,4.569,37.188a16.474,16.474,0,0,0,9.965.275,139.121,139.121,0,0,0,2.313-21.855c.11-10.626.44-23.4-9.084-23.288A15.438,15.438,0,0,0,3122.01,2257.077Z" transform="translate(-3119.056 -2256.25)" fill="#212851"/>
                        </g>
                        <g id="Grupo_1181151" data-name="Grupo 1181151" transform="translate(0 56.105)">
                          <g id="Grupo_1181149" data-name="Grupo 1181149" transform="translate(1.037)">
                            <path id="Trazado_1005750" data-name="Trazado 1005750" d="M2959.871,3135.324c2.415-1.964,5.409-.419,5.558,1.124a26.078,26.078,0,0,0,1.126,5.382c.59,2.314-.305,4.238-3.27,4.687s-8.643.26-12.891.585-7.155-.452-7.289-2.1,2.865-3.012,6.28-4.028,7.041-2.333,8.52-3.615C2959.2,3136.236,2958.769,3136.221,2959.871,3135.324Z" transform="translate(-2943.1 -3134.4)" fill="#f6af9a"/>
                          </g>
                          <g id="Grupo_1181150" data-name="Grupo 1181150" transform="translate(0 3.822)">
                            <path id="Trazado_1005751" data-name="Trazado 1005751" d="M2923.78,3341.18s.088,1.489.124,1.893,1.945,1.872,6.533,1.835,9.543-.4,12.186-.44,5.116.117,5.542-.11c.551-.294.294-2.2.294-2.2Z" transform="translate(-2923.758 -3334.142)" fill="#e0e0e0"/>
                            <path id="Trazado_1005752" data-name="Trazado 1005752" d="M2947.008,3207.237a.1.1,0,0,0-.082-.064,1.78,1.78,0,0,0-1.074.34,9.841,9.841,0,0,1-5.175,1.725s-1.8-2.055-3.45-2.055a35.262,35.262,0,0,1-5.983,2.276c-3.854,1.064-7.854,2.753-7.891,4.441s1.872,2.459,5.726,2.606,8.111-.22,13.323-.477,5.469-.293,5.652-.844a11.408,11.408,0,0,0-.073-4.478A34.159,34.159,0,0,0,2947.008,3207.237Z" transform="translate(-2923.352 -3207.17)" fill="#e8e8e8"/>
                            <path id="Trazado_1005753" data-name="Trazado 1005753" d="M3026.988,3207.41a35.263,35.263,0,0,1-5.983,2.276c-.985.272-1.98.584-2.916.928,1.884,1.74,2.9,1.069,5.485.466,2.679-.624,6.864-1.615,6.864-1.615S3028.64,3207.41,3026.988,3207.41Z" transform="translate(-3013.115 -3207.397)" fill="#e0e0e0"/>
                          </g>
                        </g>
                      </g>
                    </g>
                  </g>
                  <g id="Grupo_1181156" data-name="Grupo 1181156" transform="translate(10.796 7.958)">
                    <g id="Grupo_1181155" data-name="Grupo 1181155">
                      <path id="Trazado_1005754" data-name="Trazado 1005754" d="M2881.19,1071.65a14.451,14.451,0,0,1-1.947,3.719c-1.239,1.6-7.267,7.515-9.882,15.085,0,0-.386-13.791,2.917-17.2a19.308,19.308,0,0,0-5.855,1.992c-2.56,1.487-4.009,3.586-4.7,8.21s-.293,9.589-.238,13.25,1.156,9.69,1.211,13.544.11,4.845.11,4.845-.716.385-.22,3.413c0,0-1.487,1.1-10.516,3.688s-17.732,4.751-19.369,9.525c0,0,4.084-3.776,12.971,1.827a8.746,8.746,0,0,1,3.388-1.368,38.883,38.883,0,0,1,5.212-.954,11.9,11.9,0,0,0-3.587,2.845s1.468-.507,7.286,2.954c6.386,3.8,6.667,13.844,6.667,13.844a1.734,1.734,0,0,0,1.415-1.65s20.206,1.054,26.427-7.039c1.156-1.431,4.9-5.23,2.808-16.021a114.758,114.758,0,0,1-1.834-28.481c.58-8.162,2.27-17.87-2.845-22.169A25.373,25.373,0,0,0,2881.19,1071.65Z" transform="translate(-2832.705 -1071.65)" fill="#e8e8e8"/>
                      <path id="Trazado_1005755" data-name="Trazado 1005755" d="M3399.911,1224.722c-3.929,1.02-16.349,16.415-16.349,16.415l-4.455-2.981c.035,1.1.072,2.14.087,3.092.055,3.661,1.156,9.69,1.211,13.543.007.483.014.921.021,1.318.009.487,5.48,2.9,8.28.458,3.381-2.946,12.365-10.765,17-18.227,3.886-6.254,4.2-8.91,4.2-8.91S3409.4,1222.259,3399.911,1224.722Z" transform="translate(-3350.41 -1216.195)" fill="#d6d8d8"/>
                      <path id="Trazado_1005756" data-name="Trazado 1005756" d="M3258.519,1429.7c-.111.508-.181,1.024-.242,1.539-.016.129-.031.258-.043.387l-.04.388c-.021.259-.048.517-.064.776-.075,1.036-.112,2.075-.126,3.113,0,.519-.011,1.038,0,1.558,0,.26,0,.519.008.779l.018.779c.028,1.039.064,2.078.1,3.117.135,4.157.25,8.314.31,12.474q.011.78.015,1.56l0,.78v.781c0,1.041-.008,2.081-.051,3.124-.014.261-.019.521-.047.784l-.035.393c-.02.132-.036.264-.066.4a3.281,3.281,0,0,1-.253.769,3.122,3.122,0,0,1-.451.674l-.136.149c-.047.047-.1.093-.145.139-.024.023-.048.047-.073.068l-.077.064-.154.128a7.717,7.717,0,0,1-.65.452c-.447.278-.91.522-1.377.755-.937.461-1.891.877-2.848,1.285s-1.918.806-2.88,1.2l-5.778,2.354,1.428-.627,1.431-.62,2.863-1.237c.955-.41,1.911-.819,2.862-1.239s1.9-.848,2.821-1.317c.46-.237.915-.484,1.347-.761.217-.137.425-.286.626-.442l.145-.123.073-.061c.023-.021.046-.043.069-.065.045-.044.091-.087.135-.131l.126-.139a2.866,2.866,0,0,0,.409-.62,3.008,3.008,0,0,0,.228-.71c.027-.123.042-.249.06-.374l.031-.384c.026-.254.029-.515.041-.773.037-1.035.044-2.074.042-3.113l0-.779-.007-.779q-.005-.779-.018-1.559c-.025-2.078-.067-4.157-.111-6.236l-.131-6.237c-.02-1.04-.042-2.079-.057-3.119l-.008-.781c0-.26,0-.521,0-.781,0-.521.013-1.041.024-1.561.036-1.04.094-2.08.191-3.116.021-.259.053-.518.08-.776l.048-.387c.016-.129.032-.258.052-.387C3258.31,1430.719,3258.394,1430.2,3258.519,1429.7Z" transform="translate(-3221.863 -1410.896)" fill="#d6d8d8"/>
                    </g>
                    <path id="Trazado_1005757" data-name="Trazado 1005757" d="M3485.294,1083.391a4.633,4.633,0,0,0-.413-1.817s7.051-6.267,7.594-8.683a22.006,22.006,0,0,0-4.354-1.237,14.449,14.449,0,0,1-1.947,3.719c-1.239,1.6-7.267,7.515-9.882,15.085,0,0-.386-13.791,2.917-17.2a12.645,12.645,0,0,0-4.012,1.113,18.923,18.923,0,0,0-.224,5.389,8.158,8.158,0,0,0-1.651,2.395c-.413,1.156,2.348,15.015,2.348,15.015S3477.449,1090.741,3485.294,1083.391Z" transform="translate(-3439.635 -1071.655)" fill="#d6d8d8"/>
                  </g>
                </g>
              </g>
              <g id="Grupo_1181172" data-name="Grupo 1181172" transform="translate(49.168)">
                <g id="Grupo_1181159" data-name="Grupo 1181159" transform="translate(3.662 23.82)">
                  <path id="Trazado_1005758" data-name="Trazado 1005758" d="M3546.564,1301.747a.168.168,0,0,1-.117-.047,7.317,7.317,0,0,1-1.84-3.449,9.312,9.312,0,0,1-.165-4.1,12.343,12.343,0,0,0,.288-3.853.169.169,0,0,1,.334-.05,12.412,12.412,0,0,1-.292,3.971c-.512,2.492.343,5.736,1.907,7.233a.169.169,0,0,1-.117.291Z" transform="translate(-3542.69 -1277.044)" fill="#1a2347"/>
                  <path id="Trazado_1005759" data-name="Trazado 1005759" d="M3528.654,1042.012a6.059,6.059,0,0,0-2.47-.643.267.267,0,0,0-.115.016c.045.174.094.348.146.519a5.4,5.4,0,0,1,2.093.51c.114.1.353.427.132,1.387a14.6,14.6,0,0,1-2.136,4.278,17.189,17.189,0,0,1-5,5.006c-1.413.877-3.511,1.771-5.483,1.049-.793-.291-1.286-1.658-1.386-3.849a20.333,20.333,0,0,1,.25-4.247c.309-1.369.592-2.168,1.2-2.471.046-.023.165-.085.3-.162a5.3,5.3,0,0,1-.761-.178,4.4,4.4,0,0,0-1.254,2.694,20.973,20.973,0,0,0-.263,4.388c.114,2.488.7,3.943,1.735,4.323a4.936,4.936,0,0,0,1.71.3c3.333,0,7.074-3.041,9.4-6.557C3529.681,1043.931,3529.2,1042.481,3528.654,1042.012Z" transform="translate(-3513.886 -1041.368)" fill="#1a2347"/>
                </g>
                <g id="Grupo_1181171" data-name="Grupo 1181171">
                  <path id="Trazado_1005760" data-name="Trazado 1005760" d="M3472.01,679.66a24.8,24.8,0,0,0,0,5.891l1.872-4.9Z" transform="translate(-3470.386 -674.836)" fill="#1a2347"/>
                  <path id="Trazado_1005761" data-name="Trazado 1005761" d="M3477.274,619.8s-7.295-1.274-9.476,5.085-1.795,17.161,2.458,18.416,10.822-2.6,13.417-9.139S3483.549,620.55,3477.274,619.8Z" transform="translate(-3465.323 -618.02)" fill="#f6af9a"/>
                  <path id="Trazado_1005762" data-name="Trazado 1005762" d="M3464.343,597.138a15.832,15.832,0,0,0-.242,3.574c.11,1.817,1.172,3.89,1.38,6.021s1.134,4.739,1.574,4.353,1.092-2.246,2.745-5.3c2.467-4.561,5.144-10.335-1.016-13.97,0,0-.795-4.069-6.18-4a19.356,19.356,0,0,0-3.785.638,7.731,7.731,0,0,1-4.514,0c-1.542-.33-3.6.34-2.061,3.974,1.075,2.533,5.639,2.963,7.4,3.018S3461.866,597.689,3464.343,597.138Z" transform="translate(-3451.304 -587.816)" fill="#212851"/>
                  <path id="Trazado_1005763" data-name="Trazado 1005763" d="M3465.8,894.174a.1.1,0,0,1,.03-.063,1.238,1.238,0,0,1,.722-.242,4.047,4.047,0,0,0,1.674-.515c.58-.322,1.417.1,2.8.837s3.928.258,3.928.258-1.546,3.831,1.674,5.474c0,0-.708,2.544-4.186,3.123S3465.2,901.264,3465.8,894.174Z" transform="translate(-3464.601 -877.203)" fill="#e8e8e8"/>
                  <g id="Grupo_1181160" data-name="Grupo 1181160" transform="translate(9.84 13.749)">
                    <path id="Trazado_1005764" data-name="Trazado 1005764" d="M3633.468,858.894a.145.145,0,0,1-.119-.228,32.776,32.776,0,0,0,3-6.459,2.091,2.091,0,0,0-.692-2.263c-.319-.137-.567.113-.72.347a19.98,19.98,0,0,1-3.165,3.208.145.145,0,0,1-.185-.224,20.125,20.125,0,0,0,3.106-3.143.857.857,0,0,1,1.078-.456,2.356,2.356,0,0,1,.859,2.6,33.333,33.333,0,0,1-3.045,6.557A.145.145,0,0,1,3633.468,858.894Z" transform="translate(-3631.536 -849.614)" fill="#e8e8e8"/>
                  </g>
                  <g id="Grupo_1181165" data-name="Grupo 1181165" transform="translate(0 12.294)">
                    <g id="Grupo_1181161" data-name="Grupo 1181161">
                      <path id="Trazado_1005765" data-name="Trazado 1005765" d="M3447.356,825.138a.568.568,0,0,1-.069,0l-2.608-.314a.58.58,0,0,1-.51-.575V822.48a.579.579,0,0,1,.648-.575l2.608.314a.58.58,0,0,1,.51.575v1.765a.579.579,0,0,1-.58.579Zm-.035-.292a.289.289,0,0,0,.325-.288v-1.765a.29.29,0,0,0-.255-.288l-2.608-.314a.289.289,0,0,0-.324.288v1.765a.29.29,0,0,0,.255.288Z" transform="translate(-3444.168 -821.901)" fill="#1a2347"/>
                    </g>
                    <g id="Grupo_1181162" data-name="Grupo 1181162" transform="translate(5.441 0.742)">
                      <path id="Trazado_1005766" data-name="Trazado 1005766" d="M3551.99,839.277l-.051,0-3.638-.325a.576.576,0,0,1-.528-.577V836.6a.579.579,0,0,1,.631-.577l3.639.325a.576.576,0,0,1,.528.577V838.7a.579.579,0,0,1-.58.579Zm-3.639-2.962a.29.29,0,0,0-.289.29v1.768a.288.288,0,0,0,.264.289l3.638.325a.29.29,0,0,0,.315-.289V836.93a.288.288,0,0,0-.264-.289l-3.638-.325Z" transform="translate(-3547.772 -836.025)" fill="#1a2347"/>
                    </g>
                    <g id="Grupo_1181163" data-name="Grupo 1181163" transform="translate(3.477 1.615)">
                      <path id="Trazado_1005767" data-name="Trazado 1005767" d="M3512.458,853.33a.144.144,0,0,1-.086-.029,1.645,1.645,0,0,0-1.773-.184.145.145,0,0,1-.146-.25,1.931,1.931,0,0,1,2.092.2.145.145,0,0,1-.086.261Z" transform="translate(-3510.381 -852.65)" fill="#1a2347"/>
                    </g>
                    <g id="Grupo_1181164" data-name="Grupo 1181164" transform="translate(10.013 0.959)">
                      <path id="Trazado_1005768" data-name="Trazado 1005768" d="M3634.976,841.911a.145.145,0,0,1-.051-.281l3.928-1.465a.145.145,0,0,1,.1.272l-3.928,1.465A.144.144,0,0,1,3634.976,841.911Z" transform="translate(-3634.831 -840.156)" fill="#1a2347"/>
                    </g>
                  </g>
                  <g id="Grupo_1181170" data-name="Grupo 1181170" transform="translate(12.552 12.923)">
                    <g id="Grupo_1181169" data-name="Grupo 1181169">
                      <path id="Trazado_1005769" data-name="Trazado 1005769" d="M3683.6,835.547s.745-2.219,2.723-1.53-.58,5.62-2.258,5.046S3683.6,835.547,3683.6,835.547Z" transform="translate(-3683.173 -833.884)" fill="#f6af9a"/>
                      <g id="Grupo_1181168" data-name="Grupo 1181168" transform="translate(1.064 1.34)">
                        <g id="Grupo_1181166" data-name="Grupo 1181166">
                          <path id="Trazado_1005770" data-name="Trazado 1005770" d="M3703.62,862.161a.179.179,0,0,0,.176-.184c-.052-1.854.964-2.214,1.007-2.228a.179.179,0,0,0-.109-.341c-.054.017-1.316.44-1.255,2.58A.179.179,0,0,0,3703.62,862.161Z" transform="translate(-3703.437 -859.4)" fill="#e57e73"/>
                        </g>
                        <g id="Grupo_1181167" data-name="Grupo 1181167" transform="translate(0.111 1.289)">
                          <path id="Trazado_1005771" data-name="Trazado 1005771" d="M3705.726,884.6a.178.178,0,0,0,.115-.044.941.941,0,0,1,1-.2.179.179,0,0,0,.154-.323,1.292,1.292,0,0,0-1.386.252.179.179,0,0,0,.121.314Z" transform="translate(-3705.543 -883.936)" fill="#e57e73"/>
                        </g>
                      </g>
                    </g>
                  </g>
                </g>
              </g>
            </g>
            <g id="Grupo_1181176" data-name="Grupo 1181176" transform="translate(10.547 21.671)">
              <path id="Trazado_1005772" data-name="Trazado 1005772" d="M2731.806,1000.5l-11.635,5.127a.625.625,0,0,0-.28.9l11.963,19.362a.625.625,0,0,0,.558.3l12.477-.523a.625.625,0,0,0,.525-.919l-12.8-23.966A.625.625,0,0,0,2731.806,1000.5Z" transform="translate(-2719.219 -1000.447)" fill="#1a2347"/>
              <path id="Trazado_1005773" data-name="Trazado 1005773" d="M2720.8,1005.37l-11.635,5.127a.625.625,0,0,0-.28.9l11.963,19.362a.623.623,0,0,0,.558.3l12.477-.522a.625.625,0,0,0,.525-.919l-12.8-23.967A.625.625,0,0,0,2720.8,1005.37Z" transform="translate(-2708.788 -1005.061)" fill="#212851"/>
              <path id="Trazado_1005774" data-name="Trazado 1005774" d="M2865.811,1153.893c-1.086-1.666-2.173-2.608-2.463-4.709s-.435-3.767-1.739-5.143a6.967,6.967,0,0,0-3.463-1.7l1.489,2.79c.147.293.993,1.7-.054,2.1-1.007.381-4.028-1.286-6.635-2.662s-3.9-1.7-4.186-1.191c-.357.646.606,1.391.606,1.391s-1.014-.507-1.086.362,1.594,2.1,1.594,2.1-.507-.362-.652.362,1.521,1.956,1.521,1.956c-.58,1.014,1.422,2.071,4.854,3.332,2.236.822,3.839,2.608,5.36,4.057a4.435,4.435,0,0,0,3.188,1.3C2866.462,1158.384,2866.9,1155.559,2865.811,1153.893Z" transform="translate(-2840.951 -1134.889)" fill="#f6af9a"/>
              <path id="Trazado_1005775" data-name="Trazado 1005775" d="M2868.733,1188.182l3.027,1.318.38.16.382.155c.255.1.505.216.753.333s.493.242.737.37c.123.062.244.126.366.193s.244.129.364.2a.017.017,0,0,1,.006.024.017.017,0,0,1-.018.008c-.137-.025-.273-.057-.408-.09s-.267-.075-.4-.116c-.263-.085-.525-.177-.781-.279s-.508-.216-.755-.338l-.738-.374-.739-.371-.734-.38c-.487-.259-.974-.515-1.456-.782a.017.017,0,0,1-.007-.023A.016.016,0,0,1,2868.733,1188.182Z" transform="translate(-2860.311 -1178.321)" fill="#e57e73"/>
              <path id="Trazado_1005776" data-name="Trazado 1005776" d="M2878.389,1235.078c.421.171.841.346,1.263.513l.632.254.632.252c.211.084.425.159.638.236s.423.162.629.254l.309.142.306.148c.1.049.2.1.3.154s.2.105.3.166a.017.017,0,0,1,.006.024.017.017,0,0,1-.017.008c-.115-.012-.229-.032-.343-.052s-.225-.049-.336-.077c-.223-.057-.442-.123-.658-.2a6.365,6.365,0,0,1-.633-.26l-.616-.3-.617-.295-.61-.305c-.4-.209-.81-.416-1.208-.636a.017.017,0,0,1,.015-.031Z" transform="translate(-2869.459 -1222.754)" fill="#e57e73"/>
              <path id="Trazado_1005777" data-name="Trazado 1005777" d="M2894.944,1279.218c.357.135.712.273,1.07.4.178.067.357.133.536.2s.357.131.536.2.36.122.542.179.358.123.532.2.347.153.519.236.343.169.51.274a.018.018,0,0,1,.006.024.018.018,0,0,1-.016.008,3.816,3.816,0,0,1-.576-.081c-.19-.037-.375-.089-.559-.144a4.688,4.688,0,0,1-.537-.2c-.175-.079-.347-.163-.522-.24s-.348-.158-.521-.239-.345-.166-.516-.249c-.342-.172-.683-.343-1.018-.528a.017.017,0,0,1-.006-.023A.016.016,0,0,1,2894.944,1279.218Z" transform="translate(-2885.146 -1264.576)" fill="#e57e73"/>
              <g id="Grupo_1181174" data-name="Grupo 1181174" transform="translate(35.7 10.309)">
                <path id="Trazado_1005778" data-name="Trazado 1005778" d="M3426.53,1208.687a7.2,7.2,0,0,1-1.1,3.024c-1.1,1.72-3.927,5.625-10.2,11.81-8.757,8.64-12.569,14.135-16.859,10.636-4.121-3.36,2.245-11.1,5.22-15.634s11.616-15.478,16.428-16.448C3424.181,1201.235,3427.005,1204.679,3426.53,1208.687Z" transform="translate(-3396.579 -1201.673)" fill="#f7bead"/>
                <path id="Trazado_1005779" data-name="Trazado 1005779" d="M3416.453,1197.8s-2.97-2.572-6.994.281-7.25,6.505-11.465,11.665-13.19,15.676-7.758,19.792c1.086.781,3.323,2.246,7.358-1.155a216.4,216.4,0,0,0,16.582-16.928C3417.721,1207.321,3421.517,1202.166,3416.453,1197.8Z" transform="translate(-3388.539 -1196.741)" fill="#e8e8e8"/>
              </g>
              <g id="Grupo_1181175" data-name="Grupo 1181175" transform="translate(18.16 16.651)">
                <path id="Trazado_1005780" data-name="Trazado 1005780" d="M3074.352,1344.141a60.866,60.866,0,0,1-9.969-10.067,88.893,88.893,0,0,1-9.309-12.928c-1.785-2.935,1.386-5.2,5.026-2.321s7.116,5.106,11.76,9.2,9.229,7.4,10.033,9.932C3083.028,1341.542,3077.638,1346.261,3074.352,1344.141Z" transform="translate(-3054.561 -1317.494)" fill="#f6af9a"/>
                <path id="Trazado_1005781" data-name="Trazado 1005781" d="M3098.677,1359.174s.067-1.6-2.934-4.566c-2.8-2.761-18.793-15.725-18.793-15.725a40.01,40.01,0,0,0-5.546,5.124s14.732,18.639,19.082,20.76c.52.205,2.508,1.234,5.425-.747C3099.05,1361.886,3098.677,1359.174,3098.677,1359.174Z" transform="translate(-3070.519 -1337.76)" fill="#e8e8e8"/>
              </g>
            </g>
          </g>
          <g id="Grupo_1181179" data-name="Grupo 1181179" transform="translate(46.187 76.227)">
            <path id="Trazado_1005782" data-name="Trazado 1005782" d="M3587.9,2202.734s9.485,7.329,11.138,17.6l2.3.719s-.719-12.863-7.9-20.192Z" transform="translate(-3577.37 -2192.377)" fill="#212851"/>
            <path id="Trazado_1005783" data-name="Trazado 1005783" d="M3887.255,2143.271s2.659-14.3,7.114-22.06l-6.036-1.078s-2.155,15.09-2.155,21.7Z" transform="translate(-3859.982 -2115.884)" fill="#212851"/>
            <g id="Grupo_1181178" data-name="Grupo 1181178">
              <path id="Trazado_1005784" data-name="Trazado 1005784" d="M3401.566,2044.03s-7.869,3.126-11.534,5.713-2.695,4.527-1.833,5.174,5.39-1.509,9.055-2.8,22.53-5.713,27.273-6.576a2.185,2.185,0,0,0,.431-4.1c-2.372-1.294-6.145-2.479-8.409-2.156S3409,2041.119,3401.566,2044.03Z" transform="translate(-3387.402 -2039.233)" fill="#344075"/>
              <path id="Trazado_1005785" data-name="Trazado 1005785" d="M3432.677,2116.31a2.421,2.421,0,0,0,1.7-2.383,6.578,6.578,0,0,1-2.241.658c-3.557.539-26.95,7.007-31.8,9.163a28.848,28.848,0,0,1-4.334,1.606,2,2,0,0,0,.346.334c.862.647,5.39-1.509,9.055-2.8S3427.933,2117.173,3432.677,2116.31Z" transform="translate(-3395.551 -2110.004)" fill="#28325b"/>
            </g>
            <circle id="Elipse_13852" data-name="Elipse 13852" cx="5.461" cy="5.461" r="5.461" transform="translate(16.601 27.747) rotate(-45)" fill="#344075"/>
          </g>
        </g>
        <g id="Grupo_1181228" data-name="Grupo 1181228" transform="translate(0 4.691)">
          <g id="Grupo_1181181" data-name="Grupo 1181181" transform="translate(0 42.78)">
            <path id="Trazado_1005786" data-name="Trazado 1005786" d="M863.326,2541.24l-3.105,35.24a1.488,1.488,0,0,0,1.483,1.607h.98a1.488,1.488,0,0,0,1.473-1.276l5.638-35.571Z" transform="translate(-846.189 -2486.118)" fill="#5571a3"/>
            <path id="Trazado_1005787" data-name="Trazado 1005787" d="M599.479,2423.01l-6.315,35.119a1.488,1.488,0,0,0,1.469,1.729h.942a1.488,1.488,0,0,0,1.451-1.158l8.921-35.689h-6.468Z" transform="translate(-593.144 -2374.098)" fill="#5571a3"/>
            <path id="Trazado_1005788" data-name="Trazado 1005788" d="M1150.659,2423.01l6.315,35.119a1.488,1.488,0,0,1-1.469,1.729h-.943a1.488,1.488,0,0,1-1.451-1.158l-8.922-35.689h6.468Z" transform="translate(-1115.25 -2374.098)" fill="#5571a3"/>
            <path id="Trazado_1005789" data-name="Trazado 1005789" d="M1497.968,2507.99l6.205,36.88a1.488,1.488,0,0,1-1.471,1.714h-.945a1.488,1.488,0,0,1-1.455-1.175l-8.8-37.418Z" transform="translate(-1444.318 -2454.615)" fill="#5571a3"/>
            <path id="Trazado_1005790" data-name="Trazado 1005790" d="M1237.8,1491.7s5.821-.485,5.821,4.463v27.554s-.873,3.4,8.247,5.142c8.485,1.625,8.926,5.142,8.344,11.157l-18.143-6.985v-37.062S1242.166,1492.287,1237.8,1491.7Z" transform="translate(-1203.943 -1491.692)" fill="#f4d7c9"/>
            <path id="Trazado_1005791" data-name="Trazado 1005791" d="M689.137,2422.9s.582,4.56,7.083,5.239,32.017.485,38.615-1.067,5.433-5.919,5.433-5.919Z" transform="translate(-684.096 -2372.343)" fill="#46699b"/>
            <path id="Trazado_1005792" data-name="Trazado 1005792" d="M668.816,1496.216v41.04h34.152v-41.04a4.269,4.269,0,0,0-4.269-4.269H673.085A4.268,4.268,0,0,0,668.816,1496.216Z" transform="translate(-664.842 -1491.934)" fill="#d6d8d8"/>
            <path id="Trazado_1005793" data-name="Trazado 1005793" d="M668.81,2282.9s-.194-3.978,8.829-3.978h25.322L721.1,2285.9s1.164,2.523-6.694,3.881-22.5,1.987-25.711,1.649C685.013,2291.046,668.81,2282.9,668.81,2282.9Z" transform="translate(-664.836 -2237.574)" fill="#d6d8d8"/>
          </g>
          <g id="Grupo_1181227" data-name="Grupo 1181227" transform="translate(11.059)">
            <g id="Grupo_1181219" data-name="Grupo 1181219">
              <g id="Grupo_1181183" data-name="Grupo 1181183" transform="translate(18.539 27.1)">
                <path id="Trazado_1005794" data-name="Trazado 1005794" d="M1172.338,1201.725s4.75,1.59,12.332,9.655,11.184,9.737,13.137,12.557a3.153,3.153,0,0,1-2.56,4.974c-2.318-.209-10.046-4.781-16.131-9.9s-11.108-9.756-10.625-13.813S1172.338,1201.725,1172.338,1201.725Z" transform="translate(-1167.841 -1201.247)" fill="#f6af9a"/>
                <path id="Trazado_1005795" data-name="Trazado 1005795" d="M1623.244,1435.168s1.92.342,5.059-2.33c3.348-2.85,8.452-7.39,10.384-9.37s.676-3.574-.386-4.008-2.463.821-5.409,2.173-7.679,3.236-10.915,6.665S1619.916,1434.8,1623.244,1435.168Z" transform="translate(-1595.73 -1407.491)" fill="#f6af9a"/>
                <g id="Grupo_1181182" data-name="Grupo 1181182" transform="translate(36.197 4.671)">
                  <path id="Trazado_1005796" data-name="Trazado 1005796" d="M1846.641,1295.042s-1.778-2.251.241-3.477a7.821,7.821,0,0,0,3.767-4.105,7.164,7.164,0,0,1,2.753-3.043c1.159-.869,2.463-2.415,3.091-2.318s0,1.3-.483,2.028-1.159,1.3-1.014,1.884a15.306,15.306,0,0,0,3.043-.821c1.014-.483,3.284-3.236,4.1-3.043s.242.821.242.821,1.352-.676,1.159.58c0,0,1.256-.048.193,1.4,0,0,.966,0-.048,1.352a12.626,12.626,0,0,1-4.009,3.671c-1.5.724-4.685,1.256-6.423,2.85S1849.072,1298.069,1846.641,1295.042Z" transform="translate(-1845.918 -1282.095)" fill="#f6af9a"/>
                  <path id="Trazado_1005797" data-name="Trazado 1005797" d="M2001.135,1356.364a4.278,4.278,0,0,1,0,.674q-.012.169-.037.338c-.019.112-.041.225-.068.337s-.055.226-.091.339a1.029,1.029,0,0,1-.168.317,1.094,1.094,0,0,1-.268.252.747.747,0,0,1-.347.127.022.022,0,0,1-.023-.02.023.023,0,0,1,0-.013,4.8,4.8,0,0,0,.309-.553c.043-.09.092-.177.145-.266a2.068,2.068,0,0,0,.147-.279c.041-.1.078-.2.112-.3s.067-.206.1-.311c.06-.21.108-.425.148-.642a.019.019,0,0,1,.023-.016A.019.019,0,0,1,2001.135,1356.364Z" transform="translate(-1992.036 -1352.446)" fill="#e57e73"/>
                  <path id="Trazado_1005798" data-name="Trazado 1005798" d="M2078.181,1298.414c-.319.369-.652.725-.986,1.08q-.254.263-.512.523t-.527.51c-.178.167-.353.339-.534.505a5.268,5.268,0,0,1-.577.46,4.961,4.961,0,0,1-.644.377,2.021,2.021,0,0,1-.721.22.019.019,0,0,1-.021-.018.019.019,0,0,1,.01-.019,4.861,4.861,0,0,0,.588-.414c.186-.149.37-.3.555-.455s.372-.3.565-.446.387-.29.574-.443.372-.309.557-.467.369-.314.552-.474c.369-.316.73-.642,1.092-.967a.02.02,0,0,1,.028,0A.021.021,0,0,1,2078.181,1298.414Z" transform="translate(-2061.698 -1297.526)" fill="#e57e73"/>
                  <path id="Trazado_1005799" data-name="Trazado 1005799" d="M2089.786,1309.443q-.277.3-.564.583t-.578.571c-.2.188-.393.373-.591.557l-.3.272-.305.269-.306.268c-.1.089-.2.181-.308.268s-.21.173-.318.256-.222.158-.334.235-.23.147-.348.216-.235.139-.36.2-.245.123-.372.176-.257.1-.388.142a.02.02,0,0,1-.025-.013.019.019,0,0,1,.006-.021c.1-.093.211-.177.316-.26.054-.039.1-.085.157-.127s.105-.084.158-.126l.314-.252c.105-.083.212-.163.315-.248s.211-.164.319-.243.216-.159.325-.236.219-.155.329-.233.218-.158.324-.24l.319-.247.317-.25c.211-.167.422-.335.63-.506.42-.338.833-.687,1.243-1.037a.019.019,0,0,1,.027,0A.02.02,0,0,1,2089.786,1309.443Z" transform="translate(-2072.145 -1307.976)" fill="#e57e73"/>
                  <path id="Trazado_1005800" data-name="Trazado 1005800" d="M2113.516,1336.115c-.288.318-.588.623-.888.929q-.227.227-.458.451c-.156.147-.311.3-.47.44l-.472.44c-.079.073-.162.142-.246.209-.043.033-.085.067-.128.1l-.133.093a5.327,5.327,0,0,1-.558.336c-.1.049-.2.094-.3.138s-.208.075-.313.1a.02.02,0,0,1-.025-.014.019.019,0,0,1,0-.019c.079-.081.16-.15.24-.221s.157-.145.238-.213c.156-.145.317-.28.477-.419l.246-.2c.083-.066.169-.127.254-.19.173-.124.346-.247.513-.379s.334-.264.5-.4.333-.266.5-.4c.333-.267.661-.541.991-.813a.019.019,0,0,1,.027,0A.022.022,0,0,1,2113.516,1336.115Z" transform="translate(-2095.681 -1333.247)" fill="#e57e73"/>
                  <path id="Trazado_1005801" data-name="Trazado 1005801" d="M2004.99,1399a3.066,3.066,0,0,1,.853-.505,4.138,4.138,0,0,1,.959-.262,4.5,4.5,0,0,1,.5-.046c.084,0,.167,0,.25,0,.042,0,.083,0,.125,0l.125.014a2.941,2.941,0,0,1,.958.26c-.334.02-.649.014-.964.043l-.117.007c-.039,0-.078.008-.117.011-.078.009-.156.014-.234.021-.155.022-.311.035-.465.063-.309.046-.618.1-.927.169S2005.313,1398.924,2004.99,1399Z" transform="translate(-1996.635 -1392.089)" fill="#e57e73"/>
                </g>
                <path id="Trazado_1005802" data-name="Trazado 1005802" d="M1160.762,1193.185s5.236.939,11.064,7.315a18.668,18.668,0,0,1-5.313,9.853s-7.953-5.667-9.434-10.754S1158.843,1192.89,1160.762,1193.185Z" transform="translate(-1156.703 -1193.152)" fill="#d66658"/>
                <path id="Trazado_1005803" data-name="Trazado 1005803" d="M1538.457,1632.259c-.207-.752-.575-1.862-.984-2.051-.628-.29-3.767-1.69-4.781-1.98a3.441,3.441,0,0,0-2.125.241,4.648,4.648,0,0,0-2.85.58l.005.018a37.841,37.841,0,0,0,6.826,3.625,4.416,4.416,0,0,0,.6.182,3.288,3.288,0,0,0,.485.087l.025,0,.084.01A4.742,4.742,0,0,0,1538.457,1632.259Z" transform="translate(-1508.231 -1605.296)" fill="#f6a187"/>
              </g>
              <g id="Grupo_1181218" data-name="Grupo 1181218">
                <g id="Grupo_1181209" data-name="Grupo 1181209" transform="translate(0 15.792)">
                  <g id="Grupo_1181190" data-name="Grupo 1181190" transform="translate(8.746 56.542)">
                    <path id="Trazado_1005804" data-name="Trazado 1005804" d="M975.977,2068.712s.642-9.6,13.576-9.538c12.11.06,29.437.182,34.387,4.169,1.5,1.074,4.376,7.72-2.068,10.161a136.555,136.555,0,0,1-22.842,5.706C993,2080.154,975.3,2082.089,975.977,2068.712Z" transform="translate(-975.658 -2058.925)" fill="#ea9a88"/>
                    <g id="Grupo_1181184" data-name="Grupo 1181184">
                      <path id="Trazado_1005805" data-name="Trazado 1005805" d="M970.249,2065.2a10.043,10.043,0,0,1,6.665-9.611c1.642-.628,5.458-1.256,12.8-1.159s17.87.579,23.472,2.029,7.728,2.922,7.486,7.9c-.193,4.4-6.23,5.723-8.211,6.3,0,0-15.214,5.023-26.95,4.975S970.249,2071.382,970.249,2065.2Z" transform="translate(-970.245 -2054.42)" fill="#d46557"/>
                      <path id="Trazado_1005806" data-name="Trazado 1005806" d="M1645.007,2253.273l-1.142-6.855s-2.489,2.1-3.605,8.157C1642.168,2254.089,1643.8,2253.63,1645.007,2253.273Z" transform="translate(-1605.07 -2236.334)" fill="#cc6154"/>
                    </g>
                    <path id="Trazado_1005807" data-name="Trazado 1005807" d="M1678.536,2120.055c2.979.318,4.766,3.041,4.64,6.034a226.109,226.109,0,0,1-2.331,24.747c-2.643,19.561-3.36,18.648-5.6,19.081-2.752.532-2.673-5.69-3.46-10.81-.707-4.594-2.525-14.94-2.23-21.716.338-7.776,2.889-17.064,7.517-17.362A8.573,8.573,0,0,1,1678.536,2120.055Z" transform="translate(-1632.799 -2116.564)" fill="#ea9a88"/>
                    <g id="Grupo_1181189" data-name="Grupo 1181189" transform="translate(38.014 42.965)">
                      <g id="Grupo_1181187" data-name="Grupo 1181187" transform="translate(0 13.751)">
                        <g id="Grupo_1181185" data-name="Grupo 1181185" transform="translate(0.257 2.458)">
                          <path id="Trazado_1005808" data-name="Trazado 1005808" d="M1698.95,3181.12V3185a.106.106,0,0,0,.061.1,8.928,8.928,0,0,0,4.2.4v-3.365Z" transform="translate(-1698.95 -3181.12)" fill="#e0e0e0"/>
                          <path id="Trazado_1005809" data-name="Trazado 1005809" d="M1780.18,3203.8l1.639-.72a.141.141,0,0,0,.084-.129v-2.516h-1.723Z" transform="translate(-1775.914 -3199.42)" fill="#d8d8d8"/>
                        </g>
                        <g id="Grupo_1181186" data-name="Grupo 1181186">
                          <path id="Trazado_1005810" data-name="Trazado 1005810" d="M1699.789,3134.53s.241-.572,2.109.2,8.9,3.083,10.964,3.759,5.329.193,6.842-.032,3.059-.386,2.994.032c0,0-.547.934-3.123,1.288a16.5,16.5,0,0,1-9.933-1.03C1705.649,3136.913,1699.6,3136.751,1699.789,3134.53Z" transform="translate(-1699.483 -3134.326)" fill="#e0e0e0"/>
                          <path id="Trazado_1005811" data-name="Trazado 1005811" d="M1694.354,3138.2a3.173,3.173,0,0,0-.293,1.861.531.531,0,0,0,.369.469,46.649,46.649,0,0,0,5.88,1.7,20.644,20.644,0,0,1,5.576,2.008,3.072,3.072,0,0,0,1.144.316,27.3,27.3,0,0,0,9.691-.662.715.715,0,0,0,.522-.609,6.7,6.7,0,0,0,.02-1.117,15.955,15.955,0,0,1-7.647,1.159c-4.314-.419-4.975-1.529-10.062-2.721C1694.471,3139.573,1694.4,3138.728,1694.354,3138.2Z" transform="translate(-1694.049 -3137.997)" fill="#e8e8e8"/>
                        </g>
                      </g>
                      <path id="Trazado_1005812" data-name="Trazado 1005812" d="M1706.559,2876.4a12.713,12.713,0,0,1,.113,3.912c-.36,2.458-1.892,5.144-.322,6.738,1.463,1.486,4.137,1.038,7.615,2.391s4.057,2.415,9.724,2.206c2.415-.29,3.866-.308,3.783-2.093-.064-1.385-1.69-2.125-3.268-2.35-1.416-.2-3.252-1.079-6.407-3.4-3.53-2.593-4.7-3.413-4.636-4.99.048-1.167.129-2.367.177-3.461.063-1.425-1.143-2.745-3.51-2.841C1707.591,2872.421,1706.22,2873.769,1706.559,2876.4Z" transform="translate(-1705.045 -2872.508)" fill="#f6af9a"/>
                      <g id="Grupo_1181188" data-name="Grupo 1181188" transform="translate(1.13 8.444)">
                        <path id="Trazado_1005813" data-name="Trazado 1005813" d="M1916.59,3130.713a7.865,7.865,0,0,0,2.053-1.907,20.436,20.436,0,0,1,2.1-3.271.235.235,0,0,1,.24-.049,12.227,12.227,0,0,0,3.6,1.387c2.487.531,3.5,1.2,3.534,3.228A12.749,12.749,0,0,1,1916.59,3130.713Z" transform="translate(-1906.032 -3120.631)" fill="#e8e8e8"/>
                        <path id="Trazado_1005814" data-name="Trazado 1005814" d="M1715.871,3033.31a1.339,1.339,0,0,0-.279,1.149.149.149,0,0,0,.045.083c.246.237,1.746,1.692,3.467,3.611,1.249,1.393,2.777,2.463,2.7,3.96,0,0,2.318.724,2.995,1.038,0,0,1.884.628,2.222.676l.62-1.256s-2.97-.411-6.078-3.792a62.072,62.072,0,0,0-5.6-5.478A.07.07,0,0,0,1715.871,3033.31Z" transform="translate(-1715.566 -3033.286)" fill="#e8e8e8"/>
                      </g>
                    </g>
                    <path id="Trazado_1005815" data-name="Trazado 1005815" d="M1664.557,2111.967s-4.057.1-5.892,6.085-2.125,8.693-2.56,19.27.467,26.724.982,27.884c.319.719,3.775.467,7.083-.354a40.408,40.408,0,0,0,6.882-2.174c.459-.362.184-1.688.031-5.069-.44-9.722-.445-15.21-.217-21.877.217-6.375,2.722-21.81-4.185-23.621A6.359,6.359,0,0,0,1664.557,2111.967Z" transform="translate(-1619.975 -2108.914)" fill="#d46557"/>
                  </g>
                  <g id="Grupo_1181198" data-name="Grupo 1181198">
                    <g id="Grupo_1181192" data-name="Grupo 1181192" transform="translate(0.461)">
                      <path id="Trazado_1005816" data-name="Trazado 1005816" d="M917.457,1171.73c3.961-.241,6.292.594,9.11,3.388,2.4,2.382,4.632,7.854,6.583,11.743,1.9,3.79,1.3,7.164-1.143,11.639-.159.29-.821,1.256-.821,1.256s-.053,5.1-.515,8.935c-.385,3.2-.926,10.27-9.426,11.406s-11.583-8.882-13.145-19.359a125.939,125.939,0,0,1-1.6-19.855C906.729,1175.533,910.517,1172.152,917.457,1171.73Z" transform="translate(-901.532 -1161.51)" fill="#f6af9a"/>
                      <g id="Grupo_1181191" data-name="Grupo 1181191" transform="translate(12.125)">
                        <path id="Trazado_1005817" data-name="Trazado 1005817" d="M1053.286,985.555a12.45,12.45,0,0,0,.114,3.844c.405,1.673,1.209,3.442-1.937,4.255-2.456.634-6.647-1.07-7.479-2.3s-.783-1.445-.291-2.776c.273-.74,1.37-2.4,1.01-8.14-.136-1.785,1.953-3.28,4.135-2.285C1050.358,978.844,1053.792,979.806,1053.286,985.555Z" transform="translate(-1043.338 -977.832)" fill="#f6af9a"/>
                        <path id="Trazado_1005818" data-name="Trazado 1005818" d="M1087.461,979.006c-2.182-.995-3.587.939-3.327,2.711s2.728,7.169,7.864,8.424a12.685,12.685,0,0,1-.089-3.731C1092.415,980.662,1088.982,979.7,1087.461,979.006Z" transform="translate(-1081.962 -978.688)" fill="#e57e73"/>
                      </g>
                      <path id="Trazado_1005819" data-name="Trazado 1005819" d="M819.143,1560.191a20.888,20.888,0,0,1-3.416,14.527c-4.231,6.231-6.391,18.765,6.878,21.776,10.085,2.289,17.381-5.6,18.578-15.181.479-3.354.024-8.983.241-13.394.272-5.526-1.122-11.924-4.969-15.055C829.17,1546.938,817.8,1548.279,819.143,1560.191Z" transform="translate(-812.479 -1519.417)" fill="#f6af9a"/>
                    </g>
                    <g id="Grupo_1181197" data-name="Grupo 1181197" transform="translate(0 10.11)">
                      <path id="Trazado_1005820" data-name="Trazado 1005820" d="M816.915,1170.34s-1.992.994-3.779,2.008-3.912,2.56-4.25,8.017a79.624,79.624,0,0,0,.821,15.552c.4,2.163.918,3.188,1.063,4.4a27.25,27.25,0,0,1,.1,3.091,43.641,43.641,0,0,1-2.463,9.176c-1.546,3.477-6.279,10.481-4.154,17.532s13.668,10.577,20.671,6.761,8.693-14.537,8.452-19.9a88.591,88.591,0,0,1,.29-12.267c.242-2.511.58-6.4.724-7.172,0,0,3.091-3.5,2.9-7.752s-4.919-11.547-6.037-13.62c-1.159-2.149-3.529-4.339-4.94-4.592,0,0,4.65,5.027,6.533,15.169,0,0-4.105-6.858-10.094-10.915C822.747,1175.825,817.688,1171.934,816.915,1170.34Z" transform="translate(-803.71 -1170.34)" fill="#de6a5b"/>
                      <g id="Grupo_1181193" data-name="Grupo 1181193" transform="translate(5.081 4.886)">
                        <path id="Trazado_1005821" data-name="Trazado 1005821" d="M925.668,1288.41l-9.638,2.036-1.521-14.271.8-.362s-.724-3.622-1.666-7.679-2.825-5.65-7.969-4.274c-3.315.887-4.871,2.883-5.221,7.3-.016,1.517.021,3.087.094,4.607l1.143.26s3.26,17.893,4.057,21.08,2.173,7.461,5.723,6.447c2.568-.734,9.762-4.235,13.544-6.116.075-1.869.2-3.428.308-4.586C925.462,1291.353,925.572,1289.678,925.668,1288.41Z" transform="translate(-900.446 -1263.375)" fill="#d66658"/>
                        <path id="Trazado_1005822" data-name="Trazado 1005822" d="M1138,2081.842c-8.074-2.1-12.725-1.658-12.725-1.658-.315,5.978,7.037,8.691,11.122,9.734A31.289,31.289,0,0,0,1138,2081.842Z" transform="translate(-1113.455 -2037.247)" fill="#cc6154"/>
                      </g>
                      <g id="Grupo_1181194" data-name="Grupo 1181194" transform="translate(13.206 0)">
                        <path id="Trazado_1005823" data-name="Trazado 1005823" d="M1233.99,1193.79c.609.69,4.792,5.8,6.533,15.169,0,0-.411-8.392-1.57-9.6-.9-.937-3.394-3.853-4.526-5.126C1234.222,1194,1234.076,1193.885,1233.99,1193.79Z" transform="translate(-1224.598 -1192.559)" fill="#ed7e6f"/>
                        <path id="Trazado_1005824" data-name="Trazado 1005824" d="M1061.759,1180.324c4.347,1.98,9.321,6.424,9.321,6.424s-4.105-6.858-10.094-10.915c0,0-5.059-3.891-5.832-5.485.29,1.69,1.727,3.5,3.224,7.224C1058.951,1178.995,1060.358,1179.647,1061.759,1180.324Z" transform="translate(-1055.154 -1170.347)" fill="#ed7e6f"/>
                      </g>
                      <g id="Grupo_1181196" data-name="Grupo 1181196" transform="translate(4.935 16.4)">
                        <g id="Grupo_1181195" data-name="Grupo 1181195" transform="translate(0 5.377)">
                          <path id="Trazado_1005825" data-name="Trazado 1005825" d="M994.039,1827.007c-.024.037-.052.089-.077.136s-.049.1-.073.147c-.046.1-.09.2-.129.306-.08.208-.15.421-.21.637a10.758,10.758,0,0,0-.275,1.323c-.069.448-.129.9-.2,1.352s-.137.9-.219,1.352a21.552,21.552,0,0,1-.65,2.662c-.136.436-.308.861-.47,1.285a4.038,4.038,0,0,0-.189.653,5.721,5.721,0,0,0-.082.677,5.72,5.72,0,0,1,.06-.681,4.083,4.083,0,0,1,.168-.665c.148-.432.3-.859.425-1.3s.229-.879.325-1.323.178-.891.25-1.339.133-.9.188-1.351.1-.9.164-1.358a10.949,10.949,0,0,1,.25-1.358c.057-.224.124-.447.2-.666.039-.11.083-.218.129-.326.024-.054.048-.107.075-.161s.052-.1.088-.164a.145.145,0,0,1,.248.15Z" transform="translate(-986.544 -1814.082)" fill="#cc6154"/>
                          <path id="Trazado_1005826" data-name="Trazado 1005826" d="M1034.962,1829.4c-.086.779-.212,1.542-.357,2.306-.072.382-.155.76-.23,1.138s-.142.758-.192,1.139-.083.766-.1,1.151-.026.771-.026,1.158c0,.773.04,1.546.089,2.319-.075-.771-.138-1.543-.167-2.318-.013-.387-.021-.775-.013-1.164s.029-.777.066-1.165c.072-.776.224-1.541.351-2.3s.23-1.528.3-2.291a.145.145,0,1,1,.289.021A.013.013,0,0,1,1034.962,1829.4Z" transform="translate(-1026.8 -1816.409)" fill="#cc6154"/>
                          <path id="Trazado_1005827" data-name="Trazado 1005827" d="M901.6,1808.325c-.028.038-.06.088-.088.134s-.057.1-.085.144c-.054.1-.107.2-.155.3a6.731,6.731,0,0,0-.263.625c-.078.213-.147.429-.206.649s-.115.445-.173.668c-.229.894-.472,1.785-.742,2.668s-.568,1.758-.917,2.613c-.175.427-.363.849-.575,1.26a7.719,7.719,0,0,1-.729,1.174,7.71,7.71,0,0,0,.7-1.191c.2-.415.376-.84.54-1.27.325-.861.6-1.741.845-2.627s.466-1.781.67-2.679c.052-.225.1-.448.156-.675s.12-.452.195-.674a7.016,7.016,0,0,1,.256-.656c.048-.107.1-.213.155-.318.028-.052.056-.1.086-.156s.06-.1.1-.157a.145.145,0,0,1,.239.164Z" transform="translate(-897.669 -1796.376)" fill="#cc6154"/>
                          <path id="Trazado_1005828" data-name="Trazado 1005828" d="M935.368,1811.582c0,.118,0,.223-.007.333s-.016.217-.028.325c-.025.216-.06.429-.1.641a7.837,7.837,0,0,1-.371,1.238q-.458,1.187-.875,2.391c-.277.8-.54,1.61-.778,2.424a21.737,21.737,0,0,0-.59,2.477,21.76,21.76,0,0,1,.52-2.5c.216-.823.456-1.639.711-2.451s.524-1.618.808-2.421a7.6,7.6,0,0,0,.326-1.211c.036-.206.064-.412.082-.62.009-.1.015-.207.018-.31s0-.209,0-.3a.145.145,0,1,1,.289-.022S935.368,1811.58,935.368,1811.582Z" transform="translate(-930.78 -1799.549)" fill="#cc6154"/>
                          <path id="Trazado_1005829" data-name="Trazado 1005829" d="M1158.981,1850.1c-.069.393-.123.8-.167,1.2-.023.2-.04.4-.058.606s-.042.407-.067.61c-.1.811-.239,1.617-.421,2.414-.092.4-.2.794-.323,1.183s-.286.765-.435,1.144a8.986,8.986,0,0,0-.394,1.15,3.167,3.167,0,0,0-.091.6,3.282,3.282,0,0,0,.027.608,3.29,3.29,0,0,1-.048-.609,3.215,3.215,0,0,1,.072-.608,9.082,9.082,0,0,1,.357-1.17c.136-.383.28-.766.4-1.151s.207-.782.287-1.18c.158-.8.271-1.6.351-2.406.019-.2.037-.4.05-.6s.025-.408.042-.611c.033-.409.075-.813.136-1.224a.145.145,0,1,1,.286.042Z" transform="translate(-1143.384 -1836.013)" fill="#cc6154"/>
                          <path id="Trazado_1005830" data-name="Trazado 1005830" d="M1201.424,1850.971c.053.639.079,1.274.091,1.911s0,1.275-.022,1.908-.037,1.268-.038,1.9.018,1.268.067,1.9c-.073-.631-.117-1.265-.139-1.9s-.029-1.27-.035-1.905-.013-1.266-.05-1.9-.086-1.264-.162-1.887a.145.145,0,1,1,.287-.038S1201.424,1850.969,1201.424,1850.971Z" transform="translate(-1185.198 -1836.876)" fill="#cc6154"/>
                          <path id="Trazado_1005831" data-name="Trazado 1005831" d="M956.273,1593.923c-.03-.754-.046-1.506-.047-2.26q0-.283,0-.565c0-.1,0-.186,0-.279s0-.185-.012-.277a7.218,7.218,0,0,0-.167-1.1c-.159-.73-.392-1.45-.522-2.194l-.026-.139-.02-.14c-.013-.094-.027-.187-.038-.28-.015-.188-.037-.375-.038-.564a7.28,7.28,0,0,1,.054-1.127,7.258,7.258,0,0,0-.018,1.125c.006.187.035.373.056.559.014.093.031.185.047.277l.024.138.03.137c.152.734.407,1.441.592,2.175a7.4,7.4,0,0,1,.206,1.12c.013.094.016.19.021.286s.011.192.012.285q.005.281.015.562c.025.749.065,1.5.119,2.246a.145.145,0,1,1-.289.022Z" transform="translate(-952.368 -1584.996)" fill="#cc6154"/>
                          <path id="Trazado_1005832" data-name="Trazado 1005832" d="M983.024,1663.795a9.947,9.947,0,0,1,.031-1.328c.019-.22.043-.439.076-.656.015-.109.035-.217.053-.326l.057-.322c.073-.429.137-.86.182-1.293a11.062,11.062,0,0,0,.067-1.305,11.068,11.068,0,0,1,.005,1.31c-.022.437-.062.873-.111,1.308l-.039.326c-.012.108-.026.215-.034.323-.021.215-.033.431-.039.647a9.777,9.777,0,0,0,.041,1.288.145.145,0,1,1-.288.035S983.024,1663.8,983.024,1663.795Z" transform="translate(-978.532 -1654.701)" fill="#cc6154"/>
                          <path id="Trazado_1005833" data-name="Trazado 1005833" d="M1033.257,1612.171c.01-.083.015-.179.018-.27s0-.185,0-.278a5.351,5.351,0,0,0-.047-.556c-.025-.186-.063-.365-.1-.556q-.029-.142-.051-.284c-.015-.095-.033-.189-.046-.285a22.1,22.1,0,0,1-.212-2.288c-.033-.764-.033-1.53,0-2.293a19.487,19.487,0,0,1,.24-2.277,19.471,19.471,0,0,0-.168,2.279c-.013.762.011,1.523.068,2.282a21.9,21.9,0,0,0,.281,2.261c.015.093.036.186.054.279s.037.185.059.277c.041.181.089.374.12.566a5.518,5.518,0,0,1,.068.582c.006.1.01.2.01.294s0,.194-.011.3a.145.145,0,0,1-.289-.026A.047.047,0,0,1,1033.257,1612.171Z" transform="translate(-1025.697 -1602.134)" fill="#cc6154"/>
                          <path id="Trazado_1005834" data-name="Trazado 1005834" d="M1049.4,1634.516c0-.052.01-.092.016-.136s.013-.086.021-.128c.015-.085.031-.169.048-.253q.053-.25.115-.5c.081-.329.184-.653.263-.974a14.463,14.463,0,0,0,.326-1.977q.05-.5.071-1c.016-.335.01-.67.019-1.008s.029-.674.06-1.009.069-.67.123-1c-.042.334-.069.669-.087,1s-.027.672-.023,1.007.021.672.017,1.01-.014.675-.036,1.012a14.658,14.658,0,0,1-.259,2.013c-.07.336-.16.657-.228.984-.035.163-.067.327-.1.49-.014.082-.027.163-.038.245l-.015.122c0,.039-.008.083-.01.115a.145.145,0,1,1-.29-.01A.016.016,0,0,1,1049.4,1634.516Z" transform="translate(-1041.432 -1624.349)" fill="#cc6154"/>
                          <path id="Trazado_1005835" data-name="Trazado 1005835" d="M1175.408,1671.869c-.024-.159-.037-.308-.049-.462s-.018-.306-.022-.458,0-.306,0-.458a3.124,3.124,0,0,0-.028-.434,7.884,7.884,0,0,0-.183-.874c-.075-.291-.153-.584-.221-.88a9.036,9.036,0,0,1-.1-3.608,8.963,8.963,0,0,0,.243,3.573c.078.29.168.577.255.867a8.122,8.122,0,0,1,.224.889,3.332,3.332,0,0,1,.048.467q.005.224.019.447c.009.148.022.3.039.444s.037.3.063.436a.145.145,0,1,1-.284.058A.028.028,0,0,1,1175.408,1671.869Z" transform="translate(-1160.12 -1660.509)" fill="#cc6154"/>
                          <path id="Trazado_1005836" data-name="Trazado 1005836" d="M1196.51,1703.18c.039-.094.076-.2.107-.308s.06-.214.086-.322a5.781,5.781,0,0,0,.112-.661l.016-.167.009-.166c0-.112,0-.225,0-.338,0-.226-.011-.454-.021-.681-.02-.455-.046-.912-.058-1.368a7.713,7.713,0,0,1,.052-1.368,7.647,7.647,0,0,0,.021,1.364c.036.454.086.907.13,1.362.022.227.043.455.058.685.008.114.012.23.016.346v.175l-.007.174a5.905,5.905,0,0,1-.081.693c-.021.115-.043.229-.072.343s-.058.225-.1.344a.145.145,0,1,1-.274-.1l0-.007Z" transform="translate(-1180.803 -1691.876)" fill="#cc6154"/>
                        </g>
                        <path id="Trazado_1005837" data-name="Trazado 1005837" d="M1333.992,1482.61a19.709,19.709,0,0,1,.57,1.968,18.5,18.5,0,0,1,.365,2.022,11.509,11.509,0,0,1,.08,2.063c-.019.345-.06.686-.1,1.027-.024.17-.052.34-.079.51s-.061.338-.1.507a19.145,19.145,0,0,1-.539,1.987c-.107.326-.221.648-.333.969-.056.161-.112.321-.164.481-.028.08-.051.16-.076.24l-.074.246c-.207.656-.443,1.289-.595,1.95-.08.329-.141.663-.192,1l-.035.253-.029.254c-.022.169-.033.339-.05.509,0-.341.006-.683.034-1.024s.072-.681.133-1.019.143-.672.234-1,.194-.656.283-.982l.065-.246c.023-.083.045-.168.07-.25.049-.165.1-.328.155-.49.106-.325.213-.647.313-.972a19.96,19.96,0,0,0,.516-1.963,15.318,15.318,0,0,0,.29-2,12.411,12.411,0,0,0-.031-2.021c-.061-.675-.157-1.347-.28-2.016S1334.159,1483.272,1333.992,1482.61Z" transform="translate(-1309.795 -1482.61)" fill="#cc6154"/>
                        <path id="Trazado_1005838" data-name="Trazado 1005838" d="M1202.378,1676.683a7.165,7.165,0,0,1-1.679.411c-.143.017-.287.038-.431.048s-.289.02-.434.029l-.434.007c-.073,0-.145,0-.217,0l-.217-.008-.217-.01-.217-.021c-.144-.016-.289-.026-.432-.048a8.59,8.59,0,0,1-.853-.165,7.86,7.86,0,0,1-1.63-.576c.141.031.281.065.42.1.07.017.138.035.207.053s.14.029.209.044l.418.087c.069.016.139.026.21.037l.21.034c.279.051.561.078.842.114.141.016.282.024.423.036l.211.019.212.008c.141,0,.282.017.424.016l.425,0,.425-.009c.071,0,.141-.006.213-.009l.213-.009A16.026,16.026,0,0,0,1202.378,1676.683Z" transform="translate(-1179.968 -1666.17)" fill="#cc6154"/>
                      </g>
                    </g>
                  </g>
                  <g id="Grupo_1181207" data-name="Grupo 1181207" transform="translate(0.432 57.423)">
                    <g id="Grupo_1181206" data-name="Grupo 1181206">
                      <path id="Trazado_1005839" data-name="Trazado 1005839" d="M823.382,2095.816a8.978,8.978,0,0,1-.609-13.507,13.023,13.023,0,0,1,10.816-3.44c10.715,1.055,14.343,2.484,22.579,5.472,5.95,2.159,7.154,2.46,11.165,4.55s4.547,6.033,3.695,8.186-3.115,5.144-10.142,5.144a132.271,132.271,0,0,1-17.716-.791C838.793,2100.892,828.843,2100.149,823.382,2095.816Z" transform="translate(-819.578 -2078.385)" fill="#f6af9a"/>
                      <g id="Grupo_1181199" data-name="Grupo 1181199">
                        <path id="Trazado_1005840" data-name="Trazado 1005840" d="M812.164,2079.525a11.893,11.893,0,0,1,11.156-8.331s7.606-.217,19.342,3.55c0,0,18.98,5,20.863,10.649,1.676,5.028.072,8.91-9.78,10.069-10.146,1.194-28.542-1.956-33.541-3.984S810.86,2085.466,812.164,2079.525Z" transform="translate(-811.93 -2071.192)" fill="#de6a5b"/>
                        <path id="Trazado_1005841" data-name="Trazado 1005841" d="M1415.879,2353.6l2.968-10.239c-3.841,2.273-7.046,7.982-8.118,10.053C1412.5,2353.53,1414.234,2353.6,1415.879,2353.6Z" transform="translate(-1379.28 -2329.066)" fill="#cc6154"/>
                      </g>
                      <g id="Grupo_1181204" data-name="Grupo 1181204" transform="translate(22.196 49.388)">
                        <g id="Grupo_1181202" data-name="Grupo 1181202" transform="translate(0 12.978)">
                          <g id="Grupo_1181200" data-name="Grupo 1181200" transform="translate(0.257 2.351)">
                            <path id="Trazado_1005842" data-name="Trazado 1005842" d="M1239.45,3303.43v3.835a.174.174,0,0,0,.105.16,9.2,9.2,0,0,0,4.161.384v-3.365Z" transform="translate(-1239.45 -3303.43)" fill="#e0e0e0"/>
                            <path id="Trazado_1005843" data-name="Trazado 1005843" d="M1320.69,3326.1l1.618-.711a.173.173,0,0,0,.1-.159v-2.494h-1.722Z" transform="translate(-1316.423 -3321.721)" fill="#d8d8d8"/>
                          </g>
                          <g id="Grupo_1181201" data-name="Grupo 1181201">
                            <path id="Trazado_1005844" data-name="Trazado 1005844" d="M1240.288,3258.768s.354-.386,2.222.386,8.79,2.9,10.851,3.574,6.279.193,7.792-.032,3.059-.387,2.994.032c0,0-.547.934-3.123,1.288s-6.891.8-10.883-1.031S1240.1,3260.989,1240.288,3258.768Z" transform="translate(-1239.983 -3258.671)" fill="#e0e0e0"/>
                            <path id="Trazado_1005845" data-name="Trazado 1005845" d="M1234.854,3260.51a3.171,3.171,0,0,0-.292,1.861.531.531,0,0,0,.369.469c.858.275,3.256,1.026,5.88,1.7a29.262,29.262,0,0,1,5.575,2.008,3.068,3.068,0,0,0,1.144.316,32.616,32.616,0,0,0,10.641-.662.715.715,0,0,0,.522-.609,6.7,6.7,0,0,0,.02-1.117,22.175,22.175,0,0,1-8.6,1.159c-4.314-.418-5.667-1.7-10.754-2.889C1236.489,3262.136,1235.209,3261.412,1234.854,3260.51Z" transform="translate(-1234.549 -3260.414)" fill="#e8e8e8"/>
                          </g>
                        </g>
                        <path id="Trazado_1005846" data-name="Trazado 1005846" d="M1259.165,3014.966a8.478,8.478,0,0,1-1.111,3.188c-1.111,2.222-2.56,5.94-1.014,7.341s3.413.821,6.891,2.174,5.329,2.447,10.207,2.157c2.415-.29,4.5-.306,4.54-2.093.032-1.481-1.707-2-3.284-2.222a11.2,11.2,0,0,1-6.955-3.349c-2.946-2.85-3.864-3.477-3.719-4.636s.724-1.594,1.014-2.559-.435-2.753-2.608-3.285S1260.034,3012.5,1259.165,3014.966Z" transform="translate(-1255.22 -3011.567)" fill="#f6af9a"/>
                        <g id="Grupo_1181203" data-name="Grupo 1181203" transform="translate(1.781 7.538)">
                          <path id="Trazado_1005847" data-name="Trazado 1005847" d="M1464.14,3255.108a7.676,7.676,0,0,0,1.771-1.932,18.547,18.547,0,0,1,2.026-3.23.231.231,0,0,1,.225-.056,18.879,18.879,0,0,0,4.157,1.242c1.833.274,4.153.918,3.928,3.268A14.1,14.1,0,0,1,1464.14,3255.108Z" transform="translate(-1453.863 -3244.902)" fill="#e8e8e8"/>
                          <path id="Trazado_1005848" data-name="Trazado 1005848" d="M1268.969,3155.107a1.29,1.29,0,0,0-.5,1.277.2.2,0,0,0,.035.091,38.932,38.932,0,0,0,2.84,3.509c1.249,1.393,2.777,2.464,2.7,3.96,0,0,2.318.725,2.994,1.038,0,0,1.884.628,2.222.676l.966-1.594a11.94,11.94,0,0,1-6.424-3.453,37.377,37.377,0,0,1-4.732-5.486A.076.076,0,0,0,1268.969,3155.107Z" transform="translate(-1268.461 -3155.091)" fill="#e8e8e8"/>
                        </g>
                      </g>
                      <g id="Grupo_1181205" data-name="Grupo 1181205" transform="translate(21.834 10.397)">
                        <path id="Trazado_1005849" data-name="Trazado 1005849" d="M1327.464,2280.459s-3.979,8.569-8.4,16.082c-3.839,6.52-9.808,16.842-11.771,20.226s-3.734,1.727-4.378,1.062-1.164-2.349-.122-5.811,2.5-9.568,4.246-15.187c2.028-6.52,5.288-18.545,10.359-23.616C1323.408,2267.2,1330.217,2273.939,1327.464,2280.459Z" transform="translate(-1298.283 -2270.787)" fill="#f6af9a"/>
                        <path id="Trazado_1005850" data-name="Trazado 1005850" d="M1254.339,2269.721a7.535,7.535,0,0,0-7.325.885c-3.583,2.444-6.7,7.921-9.4,14.2s-6.166,18-7.567,22.587c-.946,3.1-3.8,11.752-1.5,11.784a16.363,16.363,0,0,0,3.824.726c7.4.385,11.5,0,12.033-.387s.612-5.747,2.109-10.432,6.23-18.063,8.355-23.375,4.057-9.128,2.656-12.461C1256.319,2270.253,1254.339,2269.721,1254.339,2269.721Z" transform="translate(-1227.672 -2269.157)" fill="#de6a5b"/>
                      </g>
                    </g>
                  </g>
                  <g id="Grupo_1181208" data-name="Grupo 1181208" transform="translate(6.924 40.082)">
                    <path id="Trazado_1005851" data-name="Trazado 1005851" d="M935.682,1741.02s13.4,6.005,23.127,1.529a5.292,5.292,0,0,1-.251,3.041s-7.711,3.752-22.779-1.48A6.379,6.379,0,0,1,935.682,1741.02Z" transform="translate(-935.546 -1741.02)" fill="#212851"/>
                    <path id="Trazado_1005852" data-name="Trazado 1005852" d="M1274.69,1823.79a39.466,39.466,0,0,1,.724,4.636,26.015,26.015,0,0,1-.483,8.645c-.458,2.6-1.111,5.168-.145,8.114a8.49,8.49,0,0,0-2.608.676,15.409,15.409,0,0,1-.193-7.728C1273,1834.077,1274.5,1827.412,1274.69,1823.79Z" transform="translate(-1253.931 -1819.443)" fill="#1a2347"/>
                    <path id="Trazado_1005853" data-name="Trazado 1005853" d="M1194.944,1814.277a.2.2,0,0,0-.152.183c-.039.581-.181,2.814-.264,5.343a10.5,10.5,0,0,1-2.27,6.713c-1.98,2.8-4.25,5.168-3.429,11.108a1.9,1.9,0,0,0,1.207-.435c.628-.483.966.048,1.594-.145a14.681,14.681,0,0,1,1.932-8.21,14.692,14.692,0,0,0,2.608-9.418c-.037-2.884-.022-4.572-.013-5.185a.2.2,0,0,0-.253-.2Z" transform="translate(-1175.363 -1810.192)" fill="#212851"/>
                  </g>
                </g>
                <g id="Grupo_1181217" data-name="Grupo 1181217" transform="translate(5.281)">
                  <path id="Trazado_1005854" data-name="Trazado 1005854" d="M1018.8,693.755s8.881-1.975,10.592,7.906,1.22,15.054-2.746,15.719-9.83-2.12-12.932-7.156S1010.337,695.629,1018.8,693.755Z" transform="translate(-1006.08 -692.73)" fill="#f6af9a"/>
                  <path id="Trazado_1005855" data-name="Trazado 1005855" d="M1107.133,894.81s-.173-3.5-2.4-3.115c-1.874.322-.613,3.746-.15,4.63C1105.37,897.819,1107.587,898.138,1107.133,894.81Z" transform="translate(-1093.263 -880.398)" fill="#e57e73"/>
                  <g id="Grupo_1181210" data-name="Grupo 1181210">
                    <path id="Trazado_1005856" data-name="Trazado 1005856" d="M923.517,688.738a9.477,9.477,0,0,1-1.449,5.8c-1.787,2.511-3.671,3.719-5.12,5.8s1.191,8.13-2.9,12.187c-1.77,1.756-7.1-2.8-9.716,6.89a16.606,16.606,0,0,1,.877-7.1c1.352-4.2,3.181-4.531,2.753-11.672-.5-8.323,1.69-16.727,12.461-14.65C923.469,686.468,923.517,688.738,923.517,688.738Z" transform="translate(-904.254 -685.218)" fill="#8c4949"/>
                    <path id="Trazado_1005857" data-name="Trazado 1005857" d="M1138.15,677.717s9.74-3.55,10.73,7c0,0-1.674-4.057-5.128-4.926A18.715,18.715,0,0,1,1138.15,677.717Z" transform="translate(-1125.866 -677.143)" fill="#8c4949"/>
                  </g>
                  <g id="Grupo_1181212" data-name="Grupo 1181212" transform="translate(11.493 13.204)">
                    <path id="Trazado_1005858" data-name="Trazado 1005858" d="M1172,970.6c.173,1.01.552,4.281-1.506,5.467a.334.334,0,0,0-.146.414c.321.8,1.6,2.979,5.941,2.7,5.118-.333,4.443-6.79,4.25-9.147a.032.032,0,0,0-.012-.023,1.567,1.567,0,0,0-.555-.24,6.238,6.238,0,0,0-3.844.523,5.856,5.856,0,0,1-3.9.108A.179.179,0,0,0,1172,970.6Z" transform="translate(-1167.84 -967.502)" fill="#e8e8e8"/>
                    <g id="Grupo_1181211" data-name="Grupo 1181211">
                      <path id="Trazado_1005859" data-name="Trazado 1005859" d="M1125.634,937.392a.121.121,0,0,1-.11-.071c-.007-.016-.723-1.6-1.372-3.3-.88-2.314-1.221-3.754-1.013-4.279.292-.736.651-1.122,1.1-1.179.926-.12,1.981,1.208,3.264,2.956a.121.121,0,1,1-.195.143c-1.193-1.625-2.245-2.961-3.039-2.859-.348.045-.652.391-.905,1.029-.373.941,1.592,5.655,2.38,7.392a.121.121,0,0,1-.11.171Z" transform="translate(-1123.08 -928.554)" fill="#e8e8e8"/>
                    </g>
                  </g>
                  <g id="Grupo_1181216" data-name="Grupo 1181216" transform="translate(10.767 11.544)">
                    <path id="Trazado_1005860" data-name="Trazado 1005860" d="M1112.746,899.874s-.605-3.153-2.493-2.922-.562,3.554-.079,4.428C1110.775,902.465,1113.294,903.208,1112.746,899.874Z" transform="translate(-1109.271 -896.939)" fill="#f6af9a"/>
                    <g id="Grupo_1181215" data-name="Grupo 1181215" transform="translate(0.916 1.258)">
                      <g id="Grupo_1181213" data-name="Grupo 1181213" transform="translate(0.321)">
                        <path id="Trazado_1005861" data-name="Trazado 1005861" d="M1133.791,923.73a.192.192,0,0,1-.145-.224c0-.018.341-1.771-.711-2.257a.191.191,0,1,1,.161-.348c1.327.613.943,2.6.926,2.68a.191.191,0,0,1-.225.15Z" transform="translate(-1132.824 -920.884)" fill="#e57e73"/>
                      </g>
                      <g id="Grupo_1181214" data-name="Grupo 1181214" transform="translate(0 0.905)">
                        <path id="Trazado_1005862" data-name="Trazado 1005862" d="M1128.014,939.136a.189.189,0,0,1-.112-.075,1.327,1.327,0,0,0-.979-.557.191.191,0,0,1-.03-.382,1.682,1.682,0,0,1,1.32.716.191.191,0,0,1-.2.3Z" transform="translate(-1126.716 -938.119)" fill="#e57e73"/>
                      </g>
                    </g>
                  </g>
                </g>
              </g>
            </g>
            <g id="Grupo_1181226" data-name="Grupo 1181226" transform="translate(5.369 27.802)">
              <path id="Trazado_1005863" data-name="Trazado 1005863" d="M1046.214,1733.622s2.727-.018,11.055-4.76c5.924-3.374,10.183-5.524,11-6.654,1.33-1.841.238-3.326-2.18-3.1-2.4.226-6.514,1.812-14.009,3.833-8.4,2.265-10.142,3.767-10.467,5.95C1041.054,1732.65,1043.193,1733.882,1046.214,1733.622Z" transform="translate(-1034.403 -1692.165)" fill="#f7bead"/>
              <path id="Trazado_1005864" data-name="Trazado 1005864" d="M1394.566,1689.742a14.24,14.24,0,0,0,2.946-1.449c1.594-1.014,4.782-1.884,5.409-1.208s.435,3.236-2.56,5.264-5.409,2.028-6.52.531S1393.31,1690.321,1394.566,1689.742Z" transform="translate(-1367.658 -1661.619)" fill="#f7bead"/>
              <g id="Grupo_1181220" data-name="Grupo 1181220">
                <path id="Trazado_1005865" data-name="Trazado 1005865" d="M929.588,1210.206s-5.443.87-4.983,7.855c.384,5.844,4.063,30.449,7.168,32.416s6.649,1.056,6.17-7.076-1.75-20.625-2.485-26.253S932.123,1209.637,929.588,1210.206Z" transform="translate(-923.599 -1209.92)" fill="#f7bead"/>
                <path id="Trazado_1005866" data-name="Trazado 1005866" d="M910.941,1206.594s-3.357.6-4.323,5.337a48.9,48.9,0,0,0-.676,8.838s7.438,2.318,13.958-.048c0,0-1.5-6.4-2.391-9.539C916.633,1208.1,914.756,1206.063,910.941,1206.594Z" transform="translate(-905.942 -1206.51)" fill="#de6a5b"/>
              </g>
              <g id="Grupo_1181225" data-name="Grupo 1181225" transform="translate(24.441 23.158)">
                <g id="Grupo_1181222" data-name="Grupo 1181222" transform="translate(0 3.745)">
                  <path id="Trazado_1005867" data-name="Trazado 1005867" d="M1383.682,1719.11s-4.105.338-5.313.58a4.537,4.537,0,0,0-3.188,3.767c-.435,2.27-2.608,11.2-3.429,15.455s-.918,6.617,3.622,7.824,12.654-.724,16.952-2.8,5.023-3.187,4.975-4.878-1.883-6.472-2.656-10.142-2.463-9.08-3.091-9.708S1388.9,1718.676,1383.682,1719.11Z" transform="translate(-1371.315 -1718.76)" fill="#212851"/>
                  <path id="Trazado_1005868" data-name="Trazado 1005868" d="M1481.036,1719.11s-4.105.338-5.313.579a3.557,3.557,0,0,0-1.658.9,4.924,4.924,0,0,0,2.866.645c2.367-.1,7.728-2.415,11.978-2.028C1488.281,1718.579,1486.252,1718.675,1481.036,1719.11Z" transform="translate(-1468.669 -1718.76)" fill="#111b3a"/>
                  <path id="Trazado_1005869" data-name="Trazado 1005869" d="M1375.184,1756.589c-.435,2.27-2.608,11.2-3.429,15.455-.81,4.194-.914,6.554,3.447,7.776a7.007,7.007,0,0,1-.549-4.105c.386-4.3,1.884-14.779,2.366-17.725s1.449-3.67,1.449-3.67a8.083,8.083,0,0,1-1.762-.59A5.172,5.172,0,0,0,1375.184,1756.589Z" transform="translate(-1371.317 -1751.892)" fill="#1a2347"/>
                  <path id="Trazado_1005870" data-name="Trazado 1005870" d="M1540.59,1774.538s.049,2.56.338,2.7,2.028.193,2.125-.1a18.521,18.521,0,0,0-.145-2.753C1542.86,1773.959,1540.59,1773.862,1540.59,1774.538Z" transform="translate(-1531.7 -1771.145)" fill="#344075"/>
                  <path id="Trazado_1005871" data-name="Trazado 1005871" d="M1699.68,1743.747s.29,2.511.58,2.656,2.028-.1,2.125-.387a20.244,20.244,0,0,0-.387-2.7C1701.95,1742.877,1699.68,1743.07,1699.68,1743.747Z" transform="translate(-1682.434 -1741.802)" fill="#344075"/>
                  <g id="Grupo_1181221" data-name="Grupo 1181221" transform="translate(9.806 2.886)">
                    <path id="Trazado_1005872" data-name="Trazado 1005872" d="M1564.605,1787.332a5.228,5.228,0,0,1-3.973-1.682,11.048,11.048,0,0,1-2.427-6.282,22.216,22.216,0,0,1-.144-3.815.266.266,0,1,1,.53.036c0,.066-.41,6.662,2.43,9.7a4.716,4.716,0,0,0,3.584,1.513,2.773,2.773,0,0,0,2.391-1.119c2.309-3.111-.2-11.542-.23-11.627a.266.266,0,0,1,.509-.154c.108.357,2.615,8.774.148,12.1A3.315,3.315,0,0,1,1564.605,1787.332Z" transform="translate(-1558.035 -1773.712)" fill="#28325b"/>
                  </g>
                </g>
                <g id="Grupo_1181224" data-name="Grupo 1181224" transform="translate(4.543)">
                  <g id="Grupo_1181223" data-name="Grupo 1181223">
                    <path id="Trazado_1005873" data-name="Trazado 1005873" d="M1457.82,1651.5a5.984,5.984,0,0,0,2.174-2.125,2.01,2.01,0,0,1,2.221-.966,2.172,2.172,0,0,1,2.174-.628,3.63,3.63,0,0,1,2.173-.241,21.168,21.168,0,0,1,3.622,1.739c.628.386,1.4,3.236,1.449,3.96s-.531.58-.676.386c0,0,.209,1.328-.491,1.376-.482.033-.91-.7-.91-.7s.177,1.32-.4,1.32-1.047-1.127-1.047-1.127-.338,1.594-.966.338a21.216,21.216,0,0,0-1.4-2.656,4.855,4.855,0,0,0-3.574-.193A8.524,8.524,0,0,1,1457.82,1651.5Z" transform="translate(-1457.82 -1647.456)" fill="#f7bead"/>
                    <path id="Trazado_1005874" data-name="Trazado 1005874" d="M1643.207,1679.738c-.23-.469-.452-.941-.68-1.41l-.671-1.413c-.114-.233-.229-.47-.349-.694a.427.427,0,0,0-.082-.124,1.042,1.042,0,0,0-.122-.108,3.345,3.345,0,0,0-.3-.2c-.429-.263-.9-.487-1.359-.746a.017.017,0,0,1-.007-.023.018.018,0,0,1,.018-.009,4.934,4.934,0,0,1,.771.184,4.833,4.833,0,0,1,.742.3,2.379,2.379,0,0,1,.353.221,1.174,1.174,0,0,1,.166.156.5.5,0,0,1,.038.049l.019.026.017.03.017.031c.005.01.007.016.011.024l.021.046c.1.247.2.488.295.731l.292.726.286.729c.186.488.375.974.556,1.464a.017.017,0,0,1-.01.022A.018.018,0,0,1,1643.207,1679.738Z" transform="translate(-1630.085 -1673.559)" fill="#e57e73"/>
                    <path id="Trazado_1005875" data-name="Trazado 1005875" d="M1618.72,1692.609l-.616-1.442-.309-.719c-.1-.24-.206-.479-.312-.717s-.218-.473-.337-.7l-.044-.083a.854.854,0,0,0-.043-.076l-.02-.033a.128.128,0,0,0-.019-.028.141.141,0,0,0-.02-.02.327.327,0,0,0-.026-.023,1.073,1.073,0,0,0-.137-.1c-.05-.032-.1-.062-.158-.091-.22-.118-.454-.227-.689-.336s-.474-.217-.711-.336a.017.017,0,0,1-.008-.023.017.017,0,0,1,.017-.01,5.215,5.215,0,0,1,.781.144,4.862,4.862,0,0,1,.76.257,1.691,1.691,0,0,1,.372.22.556.556,0,0,1,.047.042.51.51,0,0,1,.046.052.334.334,0,0,1,.035.053l.03.051a.815.815,0,0,1,.048.1l.042.093c.051.124.1.247.146.371s.094.246.139.369c.092.245.182.491.271.737l.258.741c.166.5.334.991.49,1.49a.017.017,0,0,1-.011.021A.017.017,0,0,1,1618.72,1692.609Z" transform="translate(-1606.999 -1685.755)" fill="#e57e73"/>
                    <path id="Trazado_1005876" data-name="Trazado 1005876" d="M1594.619,1708.483c-.193-.419-.38-.839-.576-1.256-.1-.209-.193-.417-.292-.624s-.2-.414-.3-.618c-.052-.1-.105-.2-.162-.3-.027-.05-.058-.091-.087-.136a.582.582,0,0,0-.092-.1,3.332,3.332,0,0,0-.53-.351c-.193-.109-.394-.215-.6-.319s-.409-.208-.613-.322a.017.017,0,0,1-.007-.023.017.017,0,0,1,.017-.009,3.922,3.922,0,0,1,.69.133,4.394,4.394,0,0,1,.665.24,1.962,1.962,0,0,1,.612.415.9.9,0,0,1,.124.168c.028.055.06.111.083.164.05.108.1.215.143.322q.136.321.261.644c.083.216.163.432.242.649.154.435.309.869.451,1.308a.017.017,0,0,1-.011.021A.018.018,0,0,1,1594.619,1708.483Z" transform="translate(-1584.348 -1701.436)" fill="#e57e73"/>
                  </g>
                </g>
              </g>
            </g>
          </g>
          <path id="Trazado_1005877" data-name="Trazado 1005877" d="M643.274,1491.94s-2.911.679-2.911,8.247v27.36s-1.11,4.493,9.624,5.756c11,1.294,11.527,3.842,11.527,12.574a44.153,44.153,0,0,1-9.023.1c-4.366-.485-13.777-.582-14.747-8.053s.194-17.852,0-24.061c-.14-4.472-.078-13.876-.033-18.788a3.168,3.168,0,0,1,3.168-3.138Z" transform="translate(-635.03 -1449.147)" fill="#e8e8e8"/>
        </g>
      </g>
    </g>
  </g>
</svg>
