<svg xmlns="http://www.w3.org/2000/svg" width="49.721" height="46.561" viewBox="0 0 49.721 46.561">
  <g id="Grupo_1183259" data-name="Grupo 1183259" transform="translate(0 -16.269)">
    <path id="Trazado_1009431" data-name="Trazado 1009431" d="M48.992,41.71H48L42.649,31.4a7.692,7.692,0,0,0,.949.059c2.121,0,5.3-.956,5.358-3.59a2.913,2.913,0,0,0-4.467-2.6A3,3,0,0,0,43.213,27.1a3.548,3.548,0,0,1-1.344-.436A16.354,16.354,0,0,0,30.72,25.2l-3.373.757-.159-2.092.2-.149a3.107,3.107,0,0,0,.494-4.55L25.659,16.63a1.062,1.062,0,0,0-.8-.361h0a1.062,1.062,0,0,0-.8.361l-2.227,2.536a3.107,3.107,0,0,0,.494,4.551l.2.149-.159,2.093L19,25.2A16.788,16.788,0,0,0,7.725,26.727a3.345,3.345,0,0,1-1.217.369,2.9,2.9,0,0,0-5.717.294,3,3,0,0,0,1.494,3.031,7.507,7.507,0,0,0,3.832,1.043,7.632,7.632,0,0,0,.953-.06L1.72,41.71H.729a.729.729,0,1,0,0,1.458h.918a7.586,7.586,0,0,0,9.821,4.324.729.729,0,0,0-.53-1.358,6.133,6.133,0,0,1-7.7-2.966H14.189a6.111,6.111,0,0,1-.766,1.172.729.729,0,1,0,1.121.932,7.53,7.53,0,0,0,1.237-2.1H16.7a.729.729,0,1,0,0-1.458h-.992L9.875,30.473a12.239,12.239,0,0,1,8.213-1.035l3.868.868.1.02-1.618,22.1a2.83,2.83,0,0,0-2.394,4.2H15.834a4.025,4.025,0,0,0-4.02,4.021,2.183,2.183,0,0,0,2.181,2.181H35.726a2.183,2.183,0,0,0,2.181-2.181,4.025,4.025,0,0,0-4.02-4.021H31.681a2.83,2.83,0,0,0-2.394-4.2l-1.618-22.1.091-.019,3.868-.868a12.316,12.316,0,0,1,8.215,1.037L34.013,41.71h-.992a.729.729,0,0,0,0,1.458h.918A7.585,7.585,0,0,0,43.95,47.415a.729.729,0,1,0-.566-1.343,6.132,6.132,0,0,1-7.855-2.9H46.481a6.117,6.117,0,0,1-.662,1.044.729.729,0,0,0,1.145.9,7.537,7.537,0,0,0,1.109-1.946h.918a.729.729,0,1,0,0-1.458ZM22.932,20.128l1.929-2.2,1.928,2.2a1.646,1.646,0,0,1-.262,2.414l-.336.247H23.529l-.335-.246A1.646,1.646,0,0,1,22.932,20.128Zm2.974,6.1a9.206,9.206,0,0,1-2.091,0l.151-1.982h1.789ZM14.066,41.71H3.363L8.714,31.4ZM33.886,58.086a2.566,2.566,0,0,1,2.563,2.563.724.724,0,0,1-.723.723H14a.724.724,0,0,1-.723-.723,2.566,2.566,0,0,1,2.563-2.563H33.886ZM30.58,55.254a1.376,1.376,0,0,1-1.374,1.374h-8.69a1.374,1.374,0,1,1,0-2.749h8.69A1.376,1.376,0,0,1,30.58,55.254Zm-2.755-2.832H21.9l1.6-21.866a13.4,13.4,0,0,0,2.728,0ZM31.31,28.016l-3.868.868a11.866,11.866,0,0,1-5.166,0l-3.868-.868a13.52,13.52,0,0,0-9.4,1.269,6.192,6.192,0,0,1-5.985-.121L3,29.152a1.546,1.546,0,0,1-.765-1.573A1.445,1.445,0,0,1,5.1,27.5a1.287,1.287,0,0,0,1.346,1.06A4.841,4.841,0,0,0,8.4,28.017a15.248,15.248,0,0,1,10.273-1.394l3.868.868a10.661,10.661,0,0,0,4.625,0l3.869-.868a14.884,14.884,0,0,1,10.175,1.341,4.866,4.866,0,0,0,2.052.6,1.286,1.286,0,0,0,1.35-1.057,1.535,1.535,0,0,1,.667-1.017A1.454,1.454,0,0,1,47.5,27.835a1.886,1.886,0,0,1-1.3,1.62A6.554,6.554,0,0,1,43.6,30a6.31,6.31,0,0,1-2.924-.735,13.809,13.809,0,0,0-9.365-1.25ZM35.655,41.71,41.007,31.4l5.351,10.31Z" transform="translate(0 0)" fill="#3e5d56"/>
  </g>
</svg>
