<svg xmlns="http://www.w3.org/2000/svg" width="40" height="41.14" viewBox="0 0 40 41.14">
  <g id="Grupo_1180452" data-name="Grupo 1180452" transform="translate(-7.105)">
    <path id="Trazado_1004516" data-name="Trazado 1004516" d="M282.253,211.079a1.814,1.814,0,0,0-2.366,0l-5.78,4.994a2.132,2.132,0,0,0-3.2-.577l-5,4.122a5.293,5.293,0,0,0-1.935,4.1v3.564a1.524,1.524,0,0,0-.528,1.153v5.844a.6.6,0,0,0,1.2,0v-5.844a.325.325,0,0,1,.324-.324h7.349a.325.325,0,0,1,.324.324v5.844a.6.6,0,0,0,1.2,0v-5.844a1.529,1.529,0,0,0-.813-1.349v-2.691l1.372-.511a5.693,5.693,0,0,0,2.8-2.232l5.378-8.217A1.813,1.813,0,0,0,282.253,211.079Zm-.682,1.691-5.378,8.217a4.5,4.5,0,0,1-2.208,1.764l-2.393.891a.6.6,0,0,0,.21,1.166h.028v2.1h-6.658v-3.188a4.093,4.093,0,0,1,1.5-3.17l5-4.122a.927.927,0,0,1,1.245,1.371l-1.975,1.975a.6.6,0,0,0,.851.851l1.975-1.975a2.115,2.115,0,0,0,.6-1.214l6.3-5.444a.6.6,0,0,1,.9.785Z" transform="translate(-235.765 -193.735)" fill="#3e5d56"/>
    <path id="Trazado_1004517" data-name="Trazado 1004517" d="M26.007,227.275v-3.564a5.3,5.3,0,0,0-1.9-4.065.6.6,0,1,0-.774.922,4.1,4.1,0,0,1,1.466,3.144V226.9H18.146v-2.1h.028a.6.6,0,0,0,.21-1.166l-2.393-.891a4.5,4.5,0,0,1-2.208-1.764L8.4,212.769a.6.6,0,0,1,.9-.785l6.3,5.445a2.119,2.119,0,0,0,.6,1.213l1.975,1.975a.6.6,0,1,0,.851-.851l-1.975-1.975a.927.927,0,0,1,1.245-1.371L21.32,218.9a.6.6,0,1,0,.765-.929l-3.017-2.485a2.13,2.13,0,0,0-3.2.577l-5.781-4.994A1.806,1.806,0,0,0,7.4,213.428l5.378,8.217a5.693,5.693,0,0,0,2.8,2.232l1.372.511v2.691a1.529,1.529,0,0,0-.813,1.349v5.844a.6.6,0,0,0,1.2,0v-5.844a.325.325,0,0,1,.324-.324h7.349a.325.325,0,0,1,.324.324v5.844a.6.6,0,0,0,1.2,0v-5.844a1.524,1.524,0,0,0-.528-1.153Z" transform="translate(0 -193.734)" fill="#3e5d56"/>
    <path id="Trazado_1004518" data-name="Trazado 1004518" d="M20.646,19.066a9.533,9.533,0,1,0-9.533-9.533,9.544,9.544,0,0,0,9.533,9.533Zm0-17.862a8.329,8.329,0,1,1-8.329,8.329A8.339,8.339,0,0,1,20.646,1.2Z" transform="translate(-3.686 0)" fill="#3e5d56"/>
    <path id="Trazado_1004519" data-name="Trazado 1004519" d="M77.179,77.347a1.806,1.806,0,0,0,2.533-.048l1.278-1.307a.6.6,0,0,0-.861-.842l-1.278,1.307a.6.6,0,0,1-.844.016L76.2,74.762l.828-.874.7.664a.948.948,0,0,0,1.324-.025l3.517-3.6.861.842-1.509,1.543a.6.6,0,1,0,.861.842l1.691-1.729a.944.944,0,0,0-.015-1.335l-1.232-1.2a.944.944,0,0,0-1.335.015l-3.52,3.6-.7-.667a.944.944,0,0,0-1.334.036l-1.185,1.251a.945.945,0,0,0,.036,1.334Z" transform="translate(-62.346 -64.033)" fill="#3e5d56"/>
    <path id="Trazado_1004520" data-name="Trazado 1004520" d="M273.506,19.066a9.542,9.542,0,0,0,6.124-2.227.6.6,0,0,0-.774-.922,8.322,8.322,0,1,1,1.6-1.787.6.6,0,1,0,1,.665,9.533,9.533,0,1,0-7.95,4.271Z" transform="translate(-236.256)" fill="#3e5d56"/>
    <path id="Trazado_1004521" data-name="Trazado 1004521" d="M328.485,56.975l-1.38-1.414a.941.941,0,0,0-1.33-.016l-2.185,2.133L321.4,55.544a.941.941,0,0,0-1.33.016l-1.38,1.414a.941.941,0,0,0,.016,1.33l2.12,2.07-2.12,2.07a.941.941,0,0,0-.016,1.33l1.38,1.414a.934.934,0,0,0,.662.283h.012a.935.935,0,0,0,.657-.268l2.186-2.134,2.185,2.133a.941.941,0,0,0,1.33-.016l1.38-1.414a.942.942,0,0,0-.016-1.33l-2.119-2.069L328.47,58.3A.942.942,0,0,0,328.485,56.975Zm-3.417,2.969a.6.6,0,0,0,0,.861l2.372,2.316-1.013,1.037-2.417-2.36a.6.6,0,0,0-.841,0l-2.418,2.361-1.013-1.037,2.373-2.317a.6.6,0,0,0,0-.861l-2.373-2.317,1.013-1.037,2.418,2.361a.6.6,0,0,0,.841,0l2.417-2.36,1.013,1.037Z" transform="translate(-286.339 -50.841)" fill="#3e5d56"/>
  </g>
</svg>
