<svg xmlns="http://www.w3.org/2000/svg" width="116" height="116" viewBox="0 0 116 116">
  <g id="Grupo_1183475" data-name="Grupo 1183475" transform="translate(9781.289 10487.169)">
    <circle id="Elipse_13859" data-name="Elipse 13859" cx="58" cy="58" r="58" transform="translate(-9781.289 -10487.169)" fill="#3e5d56"/>
    <g id="Grupo_1181260" data-name="Grupo 1181260" transform="translate(-10107 -14129.169)">
      <circle id="Elipse_13822" data-name="Elipse 13822" cx="45" cy="45" r="45" transform="translate(338.711 3655)" fill="#fff"/>
      <g id="Grupo_1181247" data-name="Grupo 1181247" transform="translate(343.417 3665.562)">
        <g id="Grupo_1181245" data-name="Grupo 1181245" transform="translate(12.461 4.677)">
          <path id="Trazado_1005878" data-name="Trazado 1005878" d="M83.35,90.353a6.539,6.539,0,0,1,4.66,1.953l1.269,1.285,1.272-1.285a6.545,6.545,0,0,1,9.323,0,6.714,6.714,0,0,1,0,9.42l-.934.941-8.708,8.8a1.334,1.334,0,0,1-1.9,0l-8.37-8.457-1.272-1.283a6.709,6.709,0,0,1,0-9.42A6.549,6.549,0,0,1,83.35,90.353Z" transform="translate(-61.597 -69.904)" fill="#44c7b6"/>
          <path id="Trazado_1005879" data-name="Trazado 1005879" d="M82.783,103.008,90.694,111l-.459.465a1.331,1.331,0,0,1-1.9,0l-8.37-8.457-1.272-1.283a6.708,6.708,0,0,1,0-9.42,6.541,6.541,0,0,1,6.075-1.8,6.564,6.564,0,0,0-3.253,1.8,6.708,6.708,0,0,0,0,9.42Z" transform="translate(-61.599 -69.904)" fill="#4bdbc3"/>
          <path id="Trazado_1005880" data-name="Trazado 1005880" d="M133.7,101.732l-.933.941-8.709,8.8a1.331,1.331,0,0,1-1.9,0l-.459-.465,8.249-8.334.933-.941a6.711,6.711,0,0,0,0-9.42,6.514,6.514,0,0,0-1.913-1.345,6.584,6.584,0,0,0-1.338-.451,6.549,6.549,0,0,1,6.073,1.8A6.711,6.711,0,0,1,133.7,101.732Z" transform="translate(-95.418 -69.91)" fill="#3bb2a0"/>
          <g id="Grupo_1181237" data-name="Grupo 1181237" transform="translate(6.374 37.744)">
            <g id="Grupo_1181236" data-name="Grupo 1181236">
              <g id="Grupo_1181235" data-name="Grupo 1181235">
                <g id="Grupo_1181234" data-name="Grupo 1181234">
                  <g id="Grupo_1181233" data-name="Grupo 1181233">
                    <g id="Grupo_1181232" data-name="Grupo 1181232">
                      <g id="Grupo_1181231" data-name="Grupo 1181231">
                        <path id="XMLID_52_" d="M80.179,163.257c-.465-.042-.932-.064-1.4-.064a15.5,15.5,0,0,0-4.958.813,15.179,15.179,0,0,0-1.866.766L62.21,169.54,45.9,160.691a3.127,3.127,0,0,0-4.268,1.154c-.86,1.5-.224,3.078,1.154,4.266L58.91,180.882l.03.025a5.766,5.766,0,0,0,5.529.764L77.5,176.75a9.13,9.13,0,0,1,6.856.423V164.233a15.6,15.6,0,0,0-4.178-.976Z" transform="translate(-41.242 -160.276)" fill="#ffbb98"/>
                        <path id="Trazado_1005881" data-name="Trazado 1005881" d="M221.728,164.593v16.218a1.118,1.118,0,0,1-1.119,1.119h-3.941a1.118,1.118,0,0,1-1.119-1.119V164.593a1.119,1.119,0,0,1,1.119-1.119h3.941A1.12,1.12,0,0,1,221.728,164.593Z" transform="translate(-172.435 -162.683)" fill="#4bdbc3"/>
                        <path id="Trazado_1005882" data-name="Trazado 1005882" d="M231.047,164.593v16.218a1.118,1.118,0,0,1-1.119,1.119h-.878a1.118,1.118,0,0,1-1.119-1.119V164.593a1.119,1.119,0,0,1,1.119-1.119h.878A1.12,1.12,0,0,1,231.047,164.593Z" transform="translate(-181.754 -162.683)" fill="#3bb2a0"/>
                        <path id="XMLID_51_" d="M134.43,172.132c-.465-.042-.932-.064-1.4-.064a15.5,15.5,0,0,0-4.958.813,15.171,15.171,0,0,0-1.866.766l-9.746,4.768-1.545.756a2.9,2.9,0,0,0,2.613,5.18l11.965-5.853a17.8,17.8,0,0,1,7.72-1.257l1.394.112v-4.245A15.584,15.584,0,0,0,134.43,172.132Z" transform="translate(-95.493 -169.151)" fill="#ffcaa6"/>
                      </g>
                    </g>
                  </g>
                </g>
              </g>
            </g>
          </g>
          <g id="Grupo_1181244" data-name="Grupo 1181244" transform="translate(0 0)">
            <g id="Grupo_1181243" data-name="Grupo 1181243">
              <g id="Grupo_1181242" data-name="Grupo 1181242">
                <g id="Grupo_1181241" data-name="Grupo 1181241">
                  <g id="Grupo_1181240" data-name="Grupo 1181240">
                    <g id="Grupo_1181239" data-name="Grupo 1181239">
                      <g id="Grupo_1181238" data-name="Grupo 1181238">
                        <path id="XMLID_53_" d="M44.63,26.475c.465.042.932.064,1.4.064a15.5,15.5,0,0,0,4.958-.813,15.174,15.174,0,0,0,1.866-.766L62.6,20.192l16.308,8.849a3.127,3.127,0,0,0,4.268-1.154c.86-1.5.224-3.078-1.154-4.266L65.9,8.85l-.03-.025a5.766,5.766,0,0,0-5.529-.764l-13.03,4.921a9.131,9.131,0,0,1-6.856-.423V25.5a15.58,15.58,0,0,0,4.177.976Z" transform="translate(-34.274 -7.679)" fill="#ffbb98"/>
                        <path id="Trazado_1005883" data-name="Trazado 1005883" d="M15.471,35.247V19.029A1.118,1.118,0,0,1,16.59,17.91h3.941a1.118,1.118,0,0,1,1.119,1.119V35.247a1.119,1.119,0,0,1-1.119,1.119H16.59a1.12,1.12,0,0,1-1.119-1.119Z" transform="translate(-15.471 -15.379)" fill="#4bdbc3"/>
                        <path id="Trazado_1005884" data-name="Trazado 1005884" d="M15.471,35.247V19.029A1.118,1.118,0,0,1,16.59,17.91h.878a1.118,1.118,0,0,1,1.119,1.119V35.247a1.119,1.119,0,0,1-1.119,1.119H16.59A1.12,1.12,0,0,1,15.471,35.247Z" transform="translate(-15.471 -15.379)" fill="#3bb2a0"/>
                        <path id="XMLID_47_" d="M44.63,45.54c.465.042.932.064,1.4.064a15.5,15.5,0,0,0,4.958-.813,15.174,15.174,0,0,0,1.866-.766L62.6,39.257l1.545-.756a2.9,2.9,0,0,0-2.613-5.18L49.566,39.173a17.8,17.8,0,0,1-7.72,1.257l-1.394-.112v4.245A15.58,15.58,0,0,0,44.63,45.54Z" transform="translate(-34.274 -26.744)" fill="#ffcaa6"/>
                      </g>
                    </g>
                  </g>
                </g>
              </g>
            </g>
          </g>
        </g>
        <g id="Grupo_1181246" data-name="Grupo 1181246" transform="translate(11.472 3.691)">
          <path id="Trazado_1005885" data-name="Trazado 1005885" d="M153.787,219.606l-2.291.932a.989.989,0,0,0,.745,1.833l2.291-.932A.989.989,0,0,0,153.787,219.606Z" transform="translate(-116.399 -166.138)"/>
          <path id="Trazado_1005886" data-name="Trazado 1005886" d="M176.156,211.488l-1.5.61a.989.989,0,0,0,.745,1.833l1.5-.61A.989.989,0,0,0,176.156,211.488Z" transform="translate(-133.829 -160.027)"/>
          <path id="Trazado_1005887" data-name="Trazado 1005887" d="M86.406,157.022h-3.94a2.111,2.111,0,0,0-2.108,2.108v.675a16.5,16.5,0,0,0-11.844,1.021l-9.285,4.543-15.84-8.594c-4.121-2.36-8.854,3.186-4.256,7.025.616.564,16.113,14.769,16.2,14.835a6.791,6.791,0,0,0,6.477.9l13.013-4.913a8.088,8.088,0,0,1,5.533.14v.58a2.111,2.111,0,0,0,2.108,2.108h3.94a2.111,2.111,0,0,0,2.108-2.108V159.13a2.11,2.11,0,0,0-2.108-2.108Zm-6.049,15.647a10.043,10.043,0,0,0-6.215.1l-13.031,4.919a4.806,4.806,0,0,1-4.546-.6c-.78-.712-15.96-14.62-16.113-14.76-2.843-2.618.048-4.923,1.973-3.822l14.633,7.939c-4.341,2.438-.869,9.142,3.648,6.864l12.2-5.966a.99.99,0,0,0-.87-1.778l-12.207,5.971a1.911,1.911,0,0,1-1.732-3.408L69.384,162.6a14.527,14.527,0,0,1,10.973-.729v10.8Zm6.178,2.676a.13.13,0,0,1-.13.13h-3.94a.13.13,0,0,1-.13-.13V159.13a.13.13,0,0,1,.13-.13h3.94a.13.13,0,0,1,.13.13Z" transform="translate(-30.869 -118.485)"/>
          <path id="Trazado_1005888" data-name="Trazado 1005888" d="M19.629,24.54v-.672a16.494,16.494,0,0,0,11.844-1.024L40.758,18.3,56.6,26.895c4.132,2.367,8.839-3.2,4.256-7.025-.616-.564-16.113-14.769-16.2-14.835a6.791,6.791,0,0,0-6.477-.9L25.163,9.046a8.089,8.089,0,0,1-5.533-.14v-.58a2.111,2.111,0,0,0-2.108-2.108H13.58a2.111,2.111,0,0,0-2.108,2.108V24.54a2.111,2.111,0,0,0,2.108,2.108h3.94A2.111,2.111,0,0,0,19.629,24.54Zm0-13.539a10.05,10.05,0,0,0,6.182-.086L38.875,5.984a4.8,4.8,0,0,1,4.546.6c.78.712,15.96,14.62,16.113,14.76,2.843,2.618-.048,4.923-1.973,3.822L42.929,17.227c4.4-2.472.784-9.1-3.648-6.864l-12.2,5.966a.99.99,0,0,0,.87,1.778l12.207-5.971a1.912,1.912,0,0,1,1.732,3.408L30.6,21.067a14.529,14.529,0,0,1-10.973.729ZM17.65,24.54a.13.13,0,0,1-.13.13H13.58a.13.13,0,0,1-.13-.13V8.325a.13.13,0,0,1,.13-.13h3.94a.13.13,0,0,1,.13.13Z" transform="translate(-11.472 -3.691)"/>
          <path id="Trazado_1005889" data-name="Trazado 1005889" d="M86.283,89.176c-3.97-4.021-8.588-3.3-11.3-.575a7.708,7.708,0,0,0,0,10.813l9.639,9.737a2.322,2.322,0,0,0,3.312,0c9.894-10,8.4-8.484,9.642-9.74a7.714,7.714,0,0,0,0-10.812C94.918,85.912,90.293,85.123,86.283,89.176Zm9.891.818a5.727,5.727,0,0,1,0,8.027l-9.645,9.742a.344.344,0,0,1-.5,0c-9.639-9.739-7.978-8.062-9.642-9.739a5.723,5.723,0,0,1,0-8.028,5.55,5.55,0,0,1,7.917,0c1.315,1.332,1.439,1.58,1.973,1.58h0c.534,0,.659-.249,1.975-1.579a5.564,5.564,0,0,1,7.917,0Z" transform="translate(-57.61 -65.909)"/>
          <path id="Trazado_1005890" data-name="Trazado 1005890" d="M114.174,116.86a.989.989,0,0,0-1.979,0v2.7h-2.7a.989.989,0,0,0,0,1.979h2.7v2.7a.989.989,0,0,0,1.979,0v-2.7h2.7a.989.989,0,0,0,0-1.979h-2.7Z" transform="translate(-84.512 -88.129)"/>
        </g>
      </g>
    </g>
  </g>
</svg>
