<svg xmlns="http://www.w3.org/2000/svg" width="20.529" height="36.906" viewBox="0 0 20.529 36.906">
  <path id="Trazado_1010214" data-name="Trazado 1010214" d="M35.114,6.152h1.038a.545.545,0,0,0,.577-.577v-3A.545.545,0,0,0,36.152,2H24.158a.545.545,0,0,0-.577.577.545.545,0,0,0,.577.577h11.36V5H17.411V3.153h4.037a.545.545,0,0,0,.577-.577A.545.545,0,0,0,21.448,2H16.834a.545.545,0,0,0-.577.577v3a.545.545,0,0,0,.577.577h.98c.173,8.477,3.748,11.36,7.669,14.3a20.385,20.385,0,0,0-5.305,5.132.584.584,0,0,0,.98.634,18.911,18.911,0,0,1,4.729-4.613v6.055c-.461.288-.865.577-1.269.807-1.845,1.1-3.518,2.076-3.633,6.286H18.968a18.651,18.651,0,0,1,1.1-6.343.584.584,0,0,0-1.1-.4,19.629,19.629,0,0,0-1.153,6.747H16.777a.545.545,0,0,0-.577.577v3a.545.545,0,0,0,.577.577h12.4a.577.577,0,1,0,0-1.153H17.411V35.907H35.576v1.845H32.231a.577.577,0,0,0,0,1.153h3.864a.545.545,0,0,0,.577-.577v-3a.545.545,0,0,0-.577-.577h-.98c-.173-8.477-3.806-11.36-7.669-14.3,3.864-2.941,7.5-5.824,7.669-14.3ZM22.14,34.754c.115-3.518,1.326-4.267,3.056-5.305.4-.231.865-.519,1.269-.807.461.288.865.577,1.269.807,1.788,1.038,2.941,1.73,3.056,5.305Zm11.821,0H32c-.115-4.21-1.788-5.19-3.633-6.286-.4-.231-.865-.519-1.269-.807V21.606C30.732,24.374,33.788,27.084,33.961,34.754Zm-7.5-14.993c-2.883-2.191-5.536-4.152-6.747-8.3h9.053a.577.577,0,0,0,0-1.153H19.429a26.781,26.781,0,0,1-.461-4.152H33.961A21.729,21.729,0,0,1,33.5,10.3H31.481a.577.577,0,0,0,0,1.153h1.73C32,15.609,29.348,17.57,26.464,19.761Z" transform="translate(-16.2 -2)" fill="#3e5d56"/>
</svg>
