<svg xmlns="http://www.w3.org/2000/svg" width="116" height="116" viewBox="0 0 116 116">
  <g id="Grupo_1183476" data-name="Grupo 1183476" transform="translate(-741.711 -1154.831)">
    <circle id="Elipse_13823" data-name="Elipse 13823" cx="58" cy="58" r="58" transform="translate(741.711 1154.831)" fill="#565097"/>
    <g id="Grupo_1180775" data-name="Grupo 1180775" transform="translate(416 -2487.169)">
      <circle id="Elipse_13822" data-name="Elipse 13822" cx="45" cy="45" r="45" transform="translate(338.711 3655)" fill="#fff"/>
      <g id="Grupo_1181252" data-name="Grupo 1181252" transform="translate(352.659 3631.674)">
        <circle id="Elipse_13853" data-name="Elipse 13853" cx="20.86" cy="20.86" r="20.86" transform="translate(16.875 41.642)" fill="#ff7d7d"/>
        <path id="Trazado_1005891" data-name="Trazado 1005891" d="M294.87,48.224c-.63,0-1.252.03-1.868.084a20.859,20.859,0,0,1,0,41.551c.615.055,1.238.084,1.868.084a20.86,20.86,0,0,0,0-41.72Z" transform="translate(-257.135 -6.582)" fill="#ff6161"/>
        <g id="Grupo_1181249" data-name="Grupo 1181249" transform="translate(24.643 49.41)">
          <path id="Trazado_1005892" data-name="Trazado 1005892" d="M224.811,120.118h-4.389a1.365,1.365,0,0,1-1.365-1.365v-4.389a2.683,2.683,0,0,0-2.683-2.683h-3.943a2.683,2.683,0,0,0-2.683,2.683v4.389a1.365,1.365,0,0,1-1.365,1.365h-4.389a2.683,2.683,0,0,0-2.683,2.683v3.943a2.683,2.683,0,0,0,2.683,2.683h4.389a1.365,1.365,0,0,1,1.365,1.365v4.389a2.683,2.683,0,0,0,2.683,2.683h3.943a2.683,2.683,0,0,0,2.683-2.683v-4.389a1.365,1.365,0,0,1,1.365-1.365h4.389a2.683,2.683,0,0,0,2.683-2.683V122.8a2.683,2.683,0,0,0-2.683-2.683Z" transform="translate(-201.31 -111.681)" fill="#f9f6f6"/>
          <g id="Grupo_1181248" data-name="Grupo 1181248" transform="translate(11.897 0)">
            <path id="Trazado_1005893" data-name="Trazado 1005893" d="M370.592,180.6h-3.166a2.683,2.683,0,0,1,2.683,2.683v3.943a2.683,2.683,0,0,1-2.683,2.683h3.166a2.683,2.683,0,0,0,2.683-2.683v-3.943A2.683,2.683,0,0,0,370.592,180.6Z" transform="translate(-358.989 -172.167)" fill="#ececec"/>
            <path id="Trazado_1005894" data-name="Trazado 1005894" d="M301.185,114.364v4.389a1.365,1.365,0,0,0,1.365,1.365h3.166a1.365,1.365,0,0,1-1.365-1.365v-4.389a2.683,2.683,0,0,0-2.683-2.683H298.5A2.683,2.683,0,0,1,301.185,114.364Z" transform="translate(-298.502 -111.681)" fill="#ececec"/>
            <path id="Trazado_1005895" data-name="Trazado 1005895" d="M301.184,258.017v4.389a2.683,2.683,0,0,1-2.683,2.683h3.166a2.683,2.683,0,0,0,2.683-2.683v-4.389a1.365,1.365,0,0,1,1.365-1.365H302.55A1.365,1.365,0,0,0,301.184,258.017Z" transform="translate(-298.501 -238.906)" fill="#ececec"/>
          </g>
        </g>
        <path id="Trazado_1005896" data-name="Trazado 1005896" d="M18.114,293.119H9.971A2.471,2.471,0,0,1,7.5,290.648V271.777a2.471,2.471,0,0,1,2.471-2.471h8.143a2.471,2.471,0,0,1,2.471,2.471v18.872A2.471,2.471,0,0,1,18.114,293.119Z" transform="translate(-6.582 -200.601)" fill="#fe9738"/>
        <path id="Trazado_1005897" data-name="Trazado 1005897" d="M72.177,269.306H69.1a2.471,2.471,0,0,1,2.471,2.471v18.872a2.471,2.471,0,0,1-2.471,2.471h3.073a2.471,2.471,0,0,0,2.471-2.471V271.777A2.471,2.471,0,0,0,72.177,269.306Z" transform="translate(-60.645 -200.601)" fill="#fe7d43"/>
        <path id="Trazado_1005898" data-name="Trazado 1005898" d="M158.04,255.494,147.714,261.3a14.727,14.727,0,0,1-7.22,1.891H130.9a1.071,1.071,0,0,1-.818-1.762l4.435-5.254a2.844,2.844,0,0,0-3.62-4.282l-3.786,2.238a3.76,3.76,0,0,1-1.913.523h-3.761a6.475,6.475,0,0,0-4.6,1.92l-2.451,2.476v15.51l16.668-.863a41.451,41.451,0,0,0,22.508-8.072l7.463-5.521a2.753,2.753,0,0,0-2.987-4.613Z" transform="translate(-100.385 -184.974)" fill="#ffd3a3"/>
        <g id="Grupo_1181250" data-name="Grupo 1181250" transform="translate(14.003 70.477)">
          <path id="Trazado_1005899" data-name="Trazado 1005899" d="M161.646,284.643a2.741,2.741,0,0,0-.989-.864,2.751,2.751,0,0,1-1.085,2.614l-7.463,5.521a41.453,41.453,0,0,1-22.508,8.072l-15.212.788v2.118l16.668-.863a41.452,41.452,0,0,0,22.508-8.072l7.463-5.521A2.753,2.753,0,0,0,161.646,284.643Z" transform="translate(-114.389 -283.779)" fill="#ffbe84"/>
        </g>
        <g id="Grupo_1181251" data-name="Grupo 1181251" transform="translate(0 40.724)">
          <path id="Trazado_1005900" data-name="Trazado 1005900" d="M36.652,390.077a.918.918,0,0,0,.135,1.291l.01.008-.2.2-.166-.134a.918.918,0,0,0-1.156,1.427l.016.013-.546.546a.918.918,0,0,0,1.3,1.3l.682-.682.061.049a.918.918,0,0,0,1.239-1.35l.205-.205.067.055a.918.918,0,0,0,1.234-1.356l.452-.452a.918.918,0,0,0-1.3-1.3l-.583.583-.16-.129A.918.918,0,0,0,36.652,390.077Z" transform="translate(-30.257 -346.559)"/>
          <path id="Trazado_1005901" data-name="Trazado 1005901" d="M58.859,296.506l.756.606a.918.918,0,0,0,1.149-1.432l-.756-.606a.918.918,0,1,0-1.149,1.432Z" transform="translate(-51.352 -263.76)"/>
          <path id="Trazado_1005902" data-name="Trazado 1005902" d="M57.093,360.7l.756.606A.918.918,0,0,0,59,359.877l-.756-.606a.918.918,0,1,0-1.149,1.432Z" transform="translate(-49.802 -320.099)"/>
          <path id="Trazado_1005903" data-name="Trazado 1005903" d="M31.1,330.123l-.692.558a.918.918,0,0,0,1.152,1.43l.692-.558a.918.918,0,1,0-1.152-1.43Z" transform="translate(-26.383 -294.518)"/>
          <path id="Trazado_1005904" data-name="Trazado 1005904" d="M62.012,70.815a3.658,3.658,0,0,0-3.578-1.525,21.811,21.811,0,0,0-8.049-24.517.918.918,0,0,0-1.068,1.494A20,20,0,0,1,57.676,62.5a19.8,19.8,0,0,1-1.608,7.857l-9.191,5.17a13.837,13.837,0,0,1-6.77,1.773H30.519a.153.153,0,0,1-.117-.252l2.139-2.533a3.606,3.606,0,0,0,3.223,1.995h3.943a3.605,3.605,0,0,0,3.6-3.6V68.522a.448.448,0,0,1,.447-.447h4.389a3.605,3.605,0,0,0,3.6-3.6V60.53a3.605,3.605,0,0,0-3.6-3.6H43.755a.448.448,0,0,1-.447-.447V52.093a3.605,3.605,0,0,0-3.6-3.6H35.763a3.605,3.605,0,0,0-3.6,3.6v4.389a.448.448,0,0,1-.447.447H27.326a3.605,3.605,0,0,0-3.6,3.6v3.943a3.607,3.607,0,0,0,3.1,3.566l-.559.33a2.845,2.845,0,0,1-1.446.4H21.055a7.365,7.365,0,0,0-2.149.323A19.952,19.952,0,0,1,46.379,44.526a.918.918,0,1,0,.8-1.654,21.576,21.576,0,0,0-9.441-2.147A21.792,21.792,0,0,0,17.224,69.838,7.346,7.346,0,0,0,15.8,70.957l-.88.889v-.67a3.393,3.393,0,0,0-3.389-3.389H3.389A3.393,3.393,0,0,0,0,71.176v5.7a.918.918,0,0,0,1.836,0v-5.7a1.554,1.554,0,0,1,1.553-1.553h8.143a1.554,1.554,0,0,1,1.553,1.553V90.048A1.554,1.554,0,0,1,11.532,91.6H3.389a1.554,1.554,0,0,1-1.553-1.553V80.423a.918.918,0,0,0-1.836,0v9.625a3.393,3.393,0,0,0,3.389,3.389h8.143A3.394,3.394,0,0,0,14.9,90.462l15.822-.819a42.42,42.42,0,0,0,9.977-1.729.918.918,0,1,0-.527-1.759,40.572,40.572,0,0,1-9.545,1.654l-15.7.813V74.456l2.185-2.207A5.593,5.593,0,0,1,21.055,70.6h3.761a4.681,4.681,0,0,0,2.38-.651l3.786-2.238a1.926,1.926,0,0,1,2.451,2.9L29,75.866a1.989,1.989,0,0,0,1.52,3.272h9.589a15.677,15.677,0,0,0,7.67-2.009L58.1,71.321A1.835,1.835,0,0,1,60.1,74.4l-7.463,5.521a40.554,40.554,0,0,1-9.181,5.1.918.918,0,0,0,.676,1.707,42.387,42.387,0,0,0,9.6-5.329l7.463-5.521a3.651,3.651,0,0,0,.824-5.056ZM32.986,65.75a3.729,3.729,0,0,0-2.937.382l-.18.107H27.326a1.767,1.767,0,0,1-1.765-1.765V60.53a1.767,1.767,0,0,1,1.765-1.765h4.389A2.286,2.286,0,0,0,34,56.482V52.093a1.767,1.767,0,0,1,1.765-1.765h3.943a1.767,1.767,0,0,1,1.765,1.765v4.389a2.286,2.286,0,0,0,2.283,2.283h4.389a1.767,1.767,0,0,1,1.765,1.765v3.943a1.767,1.767,0,0,1-1.765,1.765H43.755a2.286,2.286,0,0,0-2.283,2.283V72.91a1.767,1.767,0,0,1-1.765,1.765H35.763A1.767,1.767,0,0,1,34,72.91v-.12l.839-.994a3.762,3.762,0,0,0-1.852-6.047Z" transform="translate(0 -40.724)"/>
        </g>
      </g>
    </g>
  </g>
</svg>
