<svg xmlns="http://www.w3.org/2000/svg" width="130" height="130" viewBox="0 0 130 130">
  <g id="Grupo_1181059" data-name="Grupo 1181059" transform="translate(-383.746 -8400)">
    <circle id="Elipse_13609" data-name="Elipse 13609" cx="65" cy="65" r="65" transform="translate(383.746 8400)" fill="#fff5c1"/>
    <g id="Grupo_1183236" data-name="Grupo 1183236" transform="translate(411.137 8427.243)">
      <path id="Trazado_1009404" data-name="Trazado 1009404" d="M14.057,8.783H47.764a1.147,1.147,0,0,0,0-2.293H14.057a1.147,1.147,0,0,0,0,2.293Z" transform="translate(1.666 0.873)" fill="#773b3d"/>
      <path id="Trazado_1009405" data-name="Trazado 1009405" d="M14.057,14.013H28.136a1.147,1.147,0,0,0,0-2.293H14.057a1.147,1.147,0,0,0,0,2.293Z" transform="translate(1.666 1.639)" fill="#773b3d"/>
      <path id="Trazado_1009406" data-name="Trazado 1009406" d="M24.851,25.617A1.15,1.15,0,0,0,23.7,24.47H11.2a1.147,1.147,0,1,0,0,2.293H23.7A1.15,1.15,0,0,0,24.851,25.617Z" transform="translate(1.247 3.508)" fill="#773b3d"/>
      <path id="Trazado_1009407" data-name="Trazado 1009407" d="M11.2,28.06a1.147,1.147,0,1,0,0,2.293h6.868a1.147,1.147,0,1,0,0-2.293Z" transform="translate(1.247 4.034)" fill="#773b3d"/>
      <path id="Trazado_1009408" data-name="Trazado 1009408" d="M72.532,65.595a1.15,1.15,0,0,0,1.147-1.147V53.969a3.325,3.325,0,0,0-3.313-3.325h-.482V45.886A10.021,10.021,0,0,0,59.875,35.877,10.026,10.026,0,0,0,49.866,45.886v4.758h-.482a3.327,3.327,0,0,0-3.325,3.325v3.6H4.005L8.694,23.793a1.516,1.516,0,0,1,1.49-1.3H60.4a1.5,1.5,0,0,1,1.49,1.708l-1.227,8.885a1.146,1.146,0,1,0,2.27.321l1.227-8.885a3.835,3.835,0,0,0-.894-3.015,3.754,3.754,0,0,0-2.706-1.284V15.6A3.068,3.068,0,0,0,57.5,12.534H55.965V5.128a4.6,4.6,0,0,0-4.6-4.6H13.819a4.6,4.6,0,0,0-4.6,4.6v1.5H4.6A3.068,3.068,0,0,0,1.54,9.691V58.7a1.032,1.032,0,0,0,.034.183.984.984,0,0,0,.034.195,1.772,1.772,0,0,0,.138.252.607.607,0,0,0,.069.115c.011.011.023.011.023.023a1.234,1.234,0,0,0,.275.206.8.8,0,0,0,.1.069,1.219,1.219,0,0,0,.459.1H46.059V71.66a3.327,3.327,0,0,0,3.325,3.325H70.365a3.325,3.325,0,0,0,3.313-3.325v-2.1a1.147,1.147,0,0,0-2.293,0v2.1a1.018,1.018,0,0,1-1.02,1.032H49.384a1.028,1.028,0,0,1-1.032-1.032V53.969a1.028,1.028,0,0,1,1.032-1.032H70.365a1.011,1.011,0,0,1,1.02,1.032V64.448a1.143,1.143,0,0,0,1.147,1.147ZM57.478,14.816a.768.768,0,0,1,.768.768v4.609H55.931V14.8h1.548ZM11.5,5.128a2.3,2.3,0,0,1,2.3-2.3H51.322a2.3,2.3,0,0,1,2.3,2.3V20.2H11.5ZM4.6,8.922H9.21V20.342a3.814,3.814,0,0,0-2.8,3.13L3.833,42.114V9.691A.768.768,0,0,1,4.6,8.922ZM52.159,45.886a7.726,7.726,0,0,1,7.716-7.716,7.731,7.731,0,0,1,7.716,7.716v4.758H65.424V45.886a5.469,5.469,0,0,0-1.617-3.91A5.553,5.553,0,0,0,54.326,45.9v4.758H52.159Zm10.972,4.758H56.619V45.886a3.259,3.259,0,0,1,5.572-2.293,3.226,3.226,0,0,1,.952,2.293v4.758Z" transform="translate(0)" fill="#773b3d"/>
      <path id="Trazado_1009409" data-name="Trazado 1009409" d="M52.92,62.083a1.15,1.15,0,0,0,1.147-1.147V57.876a3.915,3.915,0,1,0-2.282,0v3.061a1.126,1.126,0,0,0,1.135,1.147ZM51.3,54.161a1.622,1.622,0,1,1,1.617,1.617A1.625,1.625,0,0,1,51.3,54.161Z" transform="translate(6.955 7.283)" fill="#773b3d"/>
    </g>
  </g>
</svg>
