<svg xmlns="http://www.w3.org/2000/svg" xmlns:xlink="http://www.w3.org/1999/xlink" width="292" height="139" viewBox="0 0 292 139">
  <defs>
    <clipPath id="clip-path">
      <rect id="Rectángulo_456221" data-name="Rectángulo 456221" width="249.021" height="135.441" fill="none"/>
    </clipPath>
    <clipPath id="clip-path-3">
      <rect id="Rectángulo_456213" data-name="Rectángulo 456213" width="29.691" height="29.225" fill="none"/>
    </clipPath>
    <clipPath id="clip-path-4">
      <rect id="Rectángulo_456214" data-name="Rectángulo 456214" width="39.681" height="17.858" fill="none"/>
    </clipPath>
    <clipPath id="clip-path-5">
      <rect id="Rectángulo_456215" data-name="Rectángulo 456215" width="61.113" height="28.797" fill="none"/>
    </clipPath>
    <clipPath id="clip-path-6">
      <rect id="Rectángulo_456216" data-name="Rectángulo 456216" width="24.688" height="13.184" fill="none"/>
    </clipPath>
  </defs>
  <g id="Grupo_1182107" data-name="Grupo 1182107" transform="translate(-186 -1662.59)">
    <rect id="Rectángulo_455934" data-name="Rectángulo 455934" width="292" height="139" rx="10" transform="translate(186 1662.59)" fill="#3e5d56"/>
    <g id="Grupo_1182106" data-name="Grupo 1182106" transform="translate(207.49 1666.149)">
      <g id="Grupo_1182105" data-name="Grupo 1182105" clip-path="url(#clip-path)">
        <g id="Grupo_1182104" data-name="Grupo 1182104">
          <g id="Grupo_1182103" data-name="Grupo 1182103" clip-path="url(#clip-path)">
            <path id="Trazado_1008284" data-name="Trazado 1008284" d="M140.811,17.176A5.47,5.47,0,0,1,146.66,9.99a22.739,22.739,0,0,1,1.589-5.485,8,8,0,0,1,3.9-4.024,7.068,7.068,0,0,1,5.913.38,10.492,10.492,0,0,1,4.215,4.315,9.028,9.028,0,0,1,9.651,1.536,9.028,9.028,0,0,1,2.294,9.5,3.8,3.8,0,0,1,4.126,3.117h-40.5a4.487,4.487,0,0,1,1.012-1.816,1.588,1.588,0,0,1,1.952-.337" transform="translate(-105.345 -0.001)" fill="#fff"/>
            <path id="Trazado_1008285" data-name="Trazado 1008285" d="M805.157,17.14h29.68a2.409,2.409,0,0,0-2.389-1.788A6.5,6.5,0,0,0,822.829,8.9a5.551,5.551,0,0,0-4.678-3.474,6.35,6.35,0,0,0-5.388,2.416,7.434,7.434,0,0,0-1.4,5.806,2.205,2.205,0,0,0-3.868,1.916,1.818,1.818,0,0,0-2.338,1.572" transform="translate(-615.314 -4.135)" fill="#fff"/>
            <path id="Trazado_1008286" data-name="Trazado 1008286" d="M340.717,369.4a.917.917,0,0,0-1-.105,3.359,3.359,0,0,0-.19-3.488,2.96,2.96,0,0,0-3.134-1.134,6.209,6.209,0,0,0-5.472-4.733,6.125,6.125,0,0,0-5.894,4.132,4.378,4.378,0,0,0-5.209-.384,4.938,4.938,0,0,0-1.958,5.1.922.922,0,0,0-1.083.376,1.043,1.043,0,0,0,.1,1.2v-.009h24.131a.95.95,0,0,0-.289-.957" transform="translate(-241.977 -275.063)" fill="#fff"/>
            <rect id="Rectángulo_456199" data-name="Rectángulo 456199" width="39.611" height="60.937" transform="translate(91.013 26.472)" fill="none" stroke="#a8dce0" stroke-miterlimit="10" stroke-width="1"/>
            <rect id="Rectángulo_456200" data-name="Rectángulo 456200" width="35.746" height="56.644" transform="translate(92.945 28.619)" fill="none" stroke="#a8dce0" stroke-miterlimit="10" stroke-width="1"/>
            <line id="Línea_3393" data-name="Línea 3393" y2="56.644" transform="translate(110.818 28.618)" fill="none" stroke="#a8dce0" stroke-miterlimit="10" stroke-width="1"/>
            <line id="Línea_3394" data-name="Línea 3394" x2="35.746" transform="translate(92.945 42.325)" fill="none" stroke="#a8dce0" stroke-miterlimit="10" stroke-width="1"/>
            <line id="Línea_3395" data-name="Línea 3395" x2="35.746" transform="translate(92.945 56.94)" fill="none" stroke="#a8dce0" stroke-miterlimit="10" stroke-width="1"/>
            <line id="Línea_3396" data-name="Línea 3396" x2="35.746" transform="translate(92.945 71.555)" fill="none" stroke="#a8dce0" stroke-miterlimit="10" stroke-width="1"/>
            <rect id="Rectángulo_456201" data-name="Rectángulo 456201" width="41.724" height="2.312" transform="translate(89.956 86.831)" fill="#a8dce0"/>
            <rect id="Rectángulo_456202" data-name="Rectángulo 456202" width="30.963" height="39.172" transform="translate(37.27 90.968)" fill="none" stroke="#a8dce0" stroke-miterlimit="10" stroke-width="1"/>
            <rect id="Rectángulo_456203" data-name="Rectángulo 456203" width="26.681" height="14.823" transform="translate(39.411 93.165)" fill="none" stroke="#a8dce0" stroke-miterlimit="10" stroke-width="1"/>
            <rect id="Rectángulo_456204" data-name="Rectángulo 456204" width="15.712" height="1.153" transform="translate(44.895 100.001)" fill="#a8dce0"/>
            <rect id="Rectángulo_456205" data-name="Rectángulo 456205" width="26.681" height="14.823" transform="translate(39.411 110.458)" fill="none" stroke="#a8dce0" stroke-miterlimit="10" stroke-width="1"/>
            <rect id="Rectángulo_456206" data-name="Rectángulo 456206" width="15.712" height="1.153" transform="translate(44.895 117.293)" fill="#a8dce0"/>
            <rect id="Rectángulo_456207" data-name="Rectángulo 456207" width="32.94" height="3.459" transform="translate(36.282 88.307)" fill="#a8dce0"/>
            <rect id="Rectángulo_456208" data-name="Rectángulo 456208" width="39.611" height="60.937" transform="translate(134.888 26.472)" fill="none" stroke="#a8dce0" stroke-miterlimit="10" stroke-width="1"/>
            <rect id="Rectángulo_456209" data-name="Rectángulo 456209" width="35.746" height="56.644" transform="translate(136.82 28.619)" fill="none" stroke="#a8dce0" stroke-miterlimit="10" stroke-width="1"/>
            <line id="Línea_3397" data-name="Línea 3397" y2="56.644" transform="translate(154.693 28.618)" fill="none" stroke="#a8dce0" stroke-miterlimit="10" stroke-width="1"/>
            <line id="Línea_3398" data-name="Línea 3398" x2="35.746" transform="translate(136.82 42.325)" fill="none" stroke="#a8dce0" stroke-miterlimit="10" stroke-width="1"/>
            <line id="Línea_3399" data-name="Línea 3399" x2="35.746" transform="translate(136.82 56.94)" fill="none" stroke="#a8dce0" stroke-miterlimit="10" stroke-width="1"/>
            <line id="Línea_3400" data-name="Línea 3400" x2="35.746" transform="translate(136.82 71.555)" fill="none" stroke="#a8dce0" stroke-miterlimit="10" stroke-width="1"/>
            <rect id="Rectángulo_456210" data-name="Rectángulo 456210" width="41.724" height="2.312" transform="translate(133.831 86.831)" fill="#a8dce0"/>
            <rect id="Rectángulo_456211" data-name="Rectángulo 456211" width="26.167" height="2.89" transform="translate(2.16 111.804)" fill="#a8dce0"/>
            <rect id="Rectángulo_456212" data-name="Rectángulo 456212" width="23.398" height="0.843" transform="translate(3.545 114.272)" fill="#a8dce0"/>
            <path id="Trazado_1008287" data-name="Trazado 1008287" d="M4.665,488.22.651,503.246h.923L7.313,488.22Z" transform="translate(-0.498 -373.106)" fill="none" stroke="#a8dce0" stroke-miterlimit="10" stroke-width="1"/>
            <path id="Trazado_1008288" data-name="Trazado 1008288" d="M103.045,488.22l4.013,15.025h-.923L100.4,488.22Z" transform="translate(-76.724 -373.106)" fill="none" stroke="#a8dce0" stroke-miterlimit="10" stroke-width="1"/>
            <path id="Trazado_1008289" data-name="Trazado 1008289" d="M514.524,271.668a39.321,39.321,0,0,1-10.41-3.547,8.507,8.507,0,0,0,2.846-3.331,12.158,12.158,0,0,0,1.112-4.751,15.629,15.629,0,0,0-5.725-12.635,17.078,17.078,0,0,0,.6,20.1c-.35-.191-.7-.385-1.042-.586A41,41,0,0,1,494,260.9a8.478,8.478,0,0,0,3.557-2.842,12.161,12.161,0,0,0,1.94-4.478,15.63,15.63,0,0,0-3.384-13.452,17.077,17.077,0,0,0-2.979,19.9q-.8-.83-1.556-1.7a38.921,38.921,0,0,1-6.145-9.731,8.43,8.43,0,0,0,4.36-2.014,12.152,12.152,0,0,0,2.891-3.931,15.629,15.629,0,0,0-.295-13.868,17.087,17.087,0,0,0-7.227,19.184q-.33-.789-.624-1.593a40.641,40.641,0,0,1-2.421-14.661q.029-1.608.189-3.212a8.453,8.453,0,0,0,4.658-.227,12.156,12.156,0,0,0,4.176-2.525,15.63,15.63,0,0,0,5.039-12.924,16.792,16.792,0,0,0-2.165.534c.1-.079.2-.156.294-.237a15.629,15.629,0,0,0,5.444-12.758,17.08,17.08,0,0,0-14.519,14.749.364.364,0,0,0-.025.042q-.472,1-.884,2.023a17.047,17.047,0,0,0-7.03-16.212A15.629,15.629,0,0,0,476.3,214.8a12.156,12.156,0,0,0,2.689,4.072,8.478,8.478,0,0,0,3.995,2.179,40.85,40.85,0,0,0-1.526,8.773q-.03.48-.049.96a17.078,17.078,0,0,0-14.094-14.482,15.629,15.629,0,0,0,5.143,12.883,12.158,12.158,0,0,0,4.2,2.491,8.443,8.443,0,0,0,4.726.171,41.892,41.892,0,0,0,.832,8.988,17.076,17.076,0,0,0-17.228-8.9,15.63,15.63,0,0,0,8.644,10.849,12.156,12.156,0,0,0,4.736,1.173,8.492,8.492,0,0,0,4.324-1.053q.256.991.561,1.969a39.075,39.075,0,0,0,3.335,7.652,17.089,17.089,0,0,0-19.791-5.25,15.631,15.631,0,0,0,11.111,8.3,12.16,12.16,0,0,0,4.879-.066,8.433,8.433,0,0,0,4.162-2.364,39.229,39.229,0,0,0,2.99,4.344,40.973,40.973,0,0,0,3.387,3.766,17.024,17.024,0,0,0-16.562.126,15.629,15.629,0,0,0,12.1,6.778,12.156,12.156,0,0,0,4.829-.7,8.476,8.476,0,0,0,3.678-2.7q1.341,1.018,2.761,1.929a40.531,40.531,0,0,0,12.625,5.358q.815.19,1.637.344a.371.371,0,0,0,.135-.729m-28.749-55.975a8.444,8.444,0,0,0,3.509.014,16.962,16.962,0,0,0-2.838,2.506,17.192,17.192,0,0,0-3.482,5.955,39.067,39.067,0,0,1,2.159-7c.206-.5.425-.986.652-1.473" transform="translate(-355.346 -153.122)" fill="#a8dce0"/>
            <path id="Trazado_1008290" data-name="Trazado 1008290" d="M893.178,141.489q.707-.284,1.4-.6a36.909,36.909,0,0,0,10.33-7.023q1.107-1.063,2.125-2.212a7.718,7.718,0,0,0,3.764,1.761,11.075,11.075,0,0,0,4.439-.226,14.235,14.235,0,0,0,9.612-8.2,15.5,15.5,0,0,0-14.819,2.821,37.366,37.366,0,0,0,2.359-3.964,35.835,35.835,0,0,0,1.9-4.41,7.682,7.682,0,0,0,4.137,1.375,11.073,11.073,0,0,0,4.371-.805,14.235,14.235,0,0,0,8.456-9.387,15.564,15.564,0,0,0-16.751,8.2,35.593,35.593,0,0,0,1.624-7.427q.1-.927.152-1.858a7.738,7.738,0,0,0,4.05.175,11.077,11.077,0,0,0,4.024-1.887,14.235,14.235,0,0,0,5.8-11.223,15.553,15.553,0,0,0-13.816,11,38.159,38.159,0,0,0-.849-8.177,7.689,7.689,0,0,0,4.192-.991,11.069,11.069,0,0,0,3.308-2.968,14.235,14.235,0,0,0,2.313-12.42,15.554,15.554,0,0,0-10.026,15.435q-.1-.426-.214-.849a37.214,37.214,0,0,0-2.917-7.568,7.72,7.72,0,0,0,3.183-2.655,11.068,11.068,0,0,0,1.681-4.114A14.235,14.235,0,0,0,913.67,71.1a15.526,15.526,0,0,0-3.41,15.728q-.551-.841-1.148-1.651a.337.337,0,0,0-.03-.033A15.556,15.556,0,0,0,893.5,74.542a14.235,14.235,0,0,0,7.123,10.434c.1.055.2.107.3.16a15.311,15.311,0,0,0-2.029-.094A14.235,14.235,0,0,0,905.689,95.7a11.072,11.072,0,0,0,4.178,1.516,7.7,7.7,0,0,0,4.2-.622q.424,1.4.738,2.836a37.019,37.019,0,0,1,.434,13.526q-.12.771-.275,1.534a15.563,15.563,0,0,0-9.855-15.859,14.235,14.235,0,0,0,2.193,12.442,11.069,11.069,0,0,0,3.279,3,7.677,7.677,0,0,0,4.252,1.027,35.449,35.449,0,0,1-3.766,9.782q-.517.914-1.089,1.8a15.554,15.554,0,0,0-6.187-17.252,14.235,14.235,0,0,0-.641,12.618,11.073,11.073,0,0,0,2.526,3.657,7.721,7.721,0,0,0,3.682,1.909,37.349,37.349,0,0,1-6,6.781c-.272.241-.549.476-.827.708a15.553,15.553,0,0,0-3.022-18.068,14.235,14.235,0,0,0-2.877,12.3,11.072,11.072,0,0,0,1.835,4.048,7.747,7.747,0,0,0,3.133,2.471,35.8,35.8,0,0,1-8.672,5.013.338.338,0,0,0,.25.628m16.363-54.528a35.606,35.606,0,0,1,3.169,5.874,15.663,15.663,0,0,0-4.165-4.7,15.453,15.453,0,0,0-2.979-1.736,7.694,7.694,0,0,0,3.132-.634c.289.395.571.794.843,1.2" transform="translate(-682.233 -54.338)" fill="#a8dce0"/>
            <path id="Trazado_1008291" data-name="Trazado 1008291" d="M647.8,211.425c-7.836,8.126-3.973,26.574-.883,34.465h-41.4c1.129-21.487-7.3-26.657-14.884-29.225l0,0c-2.473-.837-4.856-1.4-6.785-2.161-8.624-3.4-1.291-11.97-1.486-14.117-.11-1.212-4.471-3.613-.034-5.9-2.047-1.157-2.5-4.8,1.223-5.728,0,0-6.365-3.524-5.287-6.827,1.045-3.206,10.4-4.3,13.729-16.168a31.259,31.259,0,0,1,8.993-14.161c3.285,4.429,8.018,7.7,12.809,10.514a127.226,127.226,0,0,0,52.631,16.918c-1.871,12.508-11,24.491-18.624,32.395" transform="translate(-441.822 -115.854)" fill="#068fa0"/>
            <g id="Grupo_1182093" data-name="Grupo 1182093" transform="translate(148.812 100.811)" style="mix-blend-mode: multiply;isolation: isolate">
              <g id="Grupo_1182092" data-name="Grupo 1182092">
                <g id="Grupo_1182091" data-name="Grupo 1182091" clip-path="url(#clip-path-3)">
                  <path id="Trazado_1008292" data-name="Trazado 1008292" d="M646.02,456.781c1.129-21.487-7.3-26.657-14.884-29.225,12.3,3.433,29.691,1.244,29.691,1.244a99.544,99.544,0,0,1-14.807,27.981" transform="translate(-631.136 -427.556)" fill="#aee2e3"/>
                </g>
              </g>
            </g>
            <path id="Trazado_1008293" data-name="Trazado 1008293" d="M758.26,255.708a9.344,9.344,0,0,1-2.623,4.016,9.751,9.751,0,0,1-2.431,1.626,10.9,10.9,0,0,1-7.608.522,12.256,12.256,0,0,1-6.148-4.4,8.251,8.251,0,0,0,1.311,7.76,6.963,6.963,0,0,1-3.859.9,14.589,14.589,0,0,1-4.7-10.856,9.607,9.607,0,0,1-10.606-8.312,4.329,4.329,0,0,1-2.376-1.384,2.867,2.867,0,0,1-.441-.766,2.468,2.468,0,0,1,.231-2.384,5.642,5.642,0,0,1,2.71,1.123c.043-.194.092-.385.147-.576a25.214,25.214,0,0,1,8.426-1.092,32.343,32.343,0,0,1,11.4,2.571q1.469.619,2.879,1.345a62.6,62.6,0,0,1,13.689,9.909" transform="translate(-549.15 -184.838)" fill="#cc5050"/>
            <g id="Grupo_1182096" data-name="Grupo 1182096" transform="translate(169.43 57.028)" style="mix-blend-mode: multiply;isolation: isolate">
              <g id="Grupo_1182095" data-name="Grupo 1182095">
                <g id="Grupo_1182094" data-name="Grupo 1182094" clip-path="url(#clip-path-4)">
                  <path id="Trazado_1008294" data-name="Trazado 1008294" d="M758.26,255.708a9.344,9.344,0,0,1-2.623,4.016,8.233,8.233,0,0,1-3.862-1.038,10.293,10.293,0,0,1-7.064.685,10.183,10.183,0,0,1-5.753-4.087,15.607,15.607,0,0,1-7.324-.627,8.7,8.7,0,0,1-5.225-4.941,6.788,6.788,0,0,1-.243-3.444,9.272,9.272,0,0,1-7.387-1.46,2.468,2.468,0,0,1,.231-2.384,5.642,5.642,0,0,1,2.71,1.123c.043-.194.092-.385.147-.576a25.214,25.214,0,0,1,8.426-1.092l6.19,1.669c2.7.729,5.406,1.455,8.088,2.247a62.6,62.6,0,0,1,13.689,9.909" transform="translate(-718.58 -241.866)" fill="#ffe0e0"/>
                </g>
              </g>
            </g>
            <path id="Trazado_1008295" data-name="Trazado 1008295" d="M727.161,159.049a3.7,3.7,0,0,1-.072,2.874,3.646,3.646,0,0,1-2.612,2.212,6.766,6.766,0,0,1-4.735,4.084,7.115,7.115,0,0,1-5.715-1.29,5.859,5.859,0,0,1-.461-.393l-.063.05a8.292,8.292,0,0,1-6.375,1.638,8.125,8.125,0,0,1-5.506-3.545.351.351,0,0,1-.023-.032c-.413.091-.83.168-1.247.23a13.34,13.34,0,0,1-5.129-.12,8.215,8.215,0,0,1-5.155-3.558,6.165,6.165,0,0,1-.547-5.272,4.461,4.461,0,0,1,.441-.856s0,0,0-.005v0a.09.09,0,0,1,.012-.02,8.787,8.787,0,0,1-5.559.654,8.229,8.229,0,0,1-4.207-2.456q-.222-.229-.43-.474a.036.036,0,0,1-.01-.011,8.262,8.262,0,0,1-10.882-9.293,8.444,8.444,0,0,1,5.366-6.281c-.016-.016-.029-.031-.042-.047a1.289,1.289,0,0,1-.283-.565,2.057,2.057,0,0,1,.3-1.576,2.838,2.838,0,0,1,1.707-1.3,5.717,5.717,0,0,1,5.051-5.545,7.493,7.493,0,0,1,2.832.33l.63.161.008,0s.123-.173.344-.426a.033.033,0,0,1,.011-.012c.03-.033.061-.071.1-.107a.007.007,0,0,1,0-.006,6.828,6.828,0,0,1,2.125-1.6,10.761,10.761,0,0,1,3.23-1.053,7.7,7.7,0,0,1,4.623.9,5.063,5.063,0,0,1,3.1-1.575,5.526,5.526,0,0,1,2.807.419,4.044,4.044,0,0,1,.66.358c.008,0,.013.009.02.013a10.435,10.435,0,0,1,13.572,4.011c.11.182.213.368.312.558,0,0,0,.009.007.014a7.329,7.329,0,0,1,8.078,9.328c-.057.2-.123.391-.2.583-.008.019-.014.039-.023.058a3.868,3.868,0,0,1,2.364,2.32,4.472,4.472,0,0,1,.079,2.881,2.638,2.638,0,0,1-.26.553c.031.013.062.026.092.041,0,0,.006,0,.008,0a7.441,7.441,0,0,1,4.351,5.831,6.89,6.89,0,0,1,.015,1.441,7.523,7.523,0,0,1-3,5.316l.009.017a3.205,3.205,0,0,1,.275.551" transform="translate(-511.076 -95.13)" fill="#ef8181"/>
            <g id="Grupo_1182099" data-name="Grupo 1182099" transform="translate(157.683 44.445)" style="mix-blend-mode: multiply;isolation: isolate">
              <g id="Grupo_1182098" data-name="Grupo 1182098">
                <g id="Grupo_1182097" data-name="Grupo 1182097" clip-path="url(#clip-path-5)">
                  <path id="Trazado_1008296" data-name="Trazado 1008296" d="M727.161,207.972a3.7,3.7,0,0,1-.072,2.874,3.646,3.646,0,0,1-2.612,2.212,6.766,6.766,0,0,1-4.735,4.084,7.115,7.115,0,0,1-5.715-1.29,5.859,5.859,0,0,1-.461-.393l-.063.05a8.292,8.292,0,0,1-6.375,1.638,8.125,8.125,0,0,1-5.506-3.545.351.351,0,0,1-.023-.032c-.413.091-.83.168-1.247.23a13.341,13.341,0,0,1-5.129-.12,8.215,8.215,0,0,1-5.155-3.558,6.165,6.165,0,0,1-.547-5.272,4.46,4.46,0,0,1,.441-.856s0,0,0-.005v0a.089.089,0,0,1,.012-.02,8.786,8.786,0,0,1-5.559.654,8.229,8.229,0,0,1-4.207-2.456q-.222-.229-.43-.474a.036.036,0,0,1-.01-.011,8.262,8.262,0,0,1-10.882-9.293,8.277,8.277,0,0,1,1.9-3.888,6.152,6.152,0,0,0,9.283,7.592,6.849,6.849,0,0,0,4.947,4.1,7.1,7.1,0,0,0,6.242-1.967,1.659,1.659,0,0,0,2.217,1.046c-.657,1.352-.049,3,.888,4.178a8.308,8.308,0,0,0,9.831,2.436,7.453,7.453,0,0,0,2.651,3.935,7.739,7.739,0,0,0,4.582,1.553,4.219,4.219,0,0,0,3.143-1.117,3.172,3.172,0,0,0,2.647,2.174,3.256,3.256,0,0,0,3.12-1.525,3.19,3.19,0,0,0,4.776-4.08,9.932,9.932,0,0,0,4.753-4.732,7.523,7.523,0,0,1-3,5.316l.009.016a3.206,3.206,0,0,1,.275.551" transform="translate(-668.759 -188.497)" fill="#ffe0e0"/>
                </g>
              </g>
            </g>
            <path id="Trazado_1008297" data-name="Trazado 1008297" d="M765.344,222.065a5.513,5.513,0,0,1-6.021.518,11.765,11.765,0,0,1-2.513,1.36,4.458,4.458,0,0,1,.441-.856,10.56,10.56,0,0,0,1.091-.58,11.1,11.1,0,0,0,3.107-2.826,4.067,4.067,0,0,1-.495-4.828c.2-.338.752-.057.546.283a3.461,3.461,0,0,0,.31,4.035,11.117,11.117,0,0,0,1.86-5.377c.028-.39.642-.43.615-.037a12.053,12.053,0,0,1-.675,3.224,11.756,11.756,0,0,1-3.74,5.192,4.929,4.929,0,0,0,5.138-.624c.308-.249.641.268.335.515" transform="translate(-578.366 -163.146)" fill="#cc5050"/>
            <path id="Trazado_1008298" data-name="Trazado 1008298" d="M736.867,139.885l-.037.036c.03-.033.061-.071.1-.107a.462.462,0,0,1-.059.071" transform="translate(-563.097 -106.848)" fill="#cc5050"/>
            <path id="Trazado_1008299" data-name="Trazado 1008299" d="M727.044,144.366a8.929,8.929,0,0,1-6.1.245,20.968,20.968,0,0,0,1.158,3.426,7.747,7.747,0,0,1,.55,3.538,6.065,6.065,0,0,1-4.013,4.989.307.307,0,0,1-.193-.584,5.39,5.39,0,0,0,3.612-5.6,6.835,6.835,0,0,0-.231-1.2,6.4,6.4,0,0,0-4.152,2.381c-.244.311-.7-.1-.455-.415a7.01,7.01,0,0,1,4.424-2.558c-.182-.535-.4-1.062-.6-1.585a9.191,9.191,0,0,1-.808-3.406,4.393,4.393,0,0,1,.559-2.155l.63.161a3.755,3.755,0,0,0-.56,2.339,8.306,8.306,0,0,0,5.98-.158c.368-.153.558.433.195.584" transform="translate(-548.06 -108.091)" fill="#cc5050"/>
            <path id="Trazado_1008300" data-name="Trazado 1008300" d="M694.985,176.089a5.826,5.826,0,0,0-4.011-.464,1.29,1.29,0,0,1-.283-.565,6.472,6.472,0,0,1,4.577.483.308.308,0,0,1-.283.546" transform="translate(-527.838 -133.62)" fill="#cc5050"/>
            <path id="Trazado_1008301" data-name="Trazado 1008301" d="M716.019,218.339a7.538,7.538,0,0,1-2.751,2.343c-.148-.153-.291-.311-.43-.475a7.18,7.18,0,0,0,1.881-1.3,4.707,4.707,0,0,1-2.381-6c.139-.371.684-.086.546.281a4.156,4.156,0,0,0,2.28,5.25c.122-.142.239-.289.352-.443a7.006,7.006,0,0,0,1.241-4.94c-.046-.394.568-.427.616-.037a7.648,7.648,0,0,1-1.355,5.327" transform="translate(-544.133 -162.57)" fill="#cc5050"/>
            <path id="Trazado_1008302" data-name="Trazado 1008302" d="M821.02,158.1a8.924,8.924,0,0,0-6.3-4.534l-.01,0a11.527,11.527,0,0,0,.213,6.562.307.307,0,0,1-.583.193,12.072,12.072,0,0,1-.575-4.855,11.822,11.822,0,0,1,3.523-7.5,12.7,12.7,0,0,1,1.218-1.029A9.934,9.934,0,0,0,810.6,145.3c-.385.086-.58-.5-.2-.584a10.594,10.594,0,0,1,8.635,1.85,12.141,12.141,0,0,1,4.094-1.739c.11.182.213.368.311.558a11.419,11.419,0,0,0-8.183,6.583,10.543,10.543,0,0,0-.377,1.01,9.508,9.508,0,0,1,6.652,4.793c.184.347-.33.684-.515.335" transform="translate(-619.164 -110.4)" fill="#cc5050"/>
            <path id="Trazado_1008303" data-name="Trazado 1008303" d="M872.237,186.254c-.057.2-.123.391-.2.583a10.718,10.718,0,0,0-4.436-.443c0,.01,0,.021,0,.03a7.8,7.8,0,0,1-2.9,4.359c-.319.238-.651-.278-.335-.515a7.118,7.118,0,0,0,2.578-3.781,10.285,10.285,0,0,0-3,1c-.349.182-.686-.332-.335-.515a11.306,11.306,0,0,1,8.626-.721" transform="translate(-659.872 -141.928)" fill="#cc5050"/>
            <path id="Trazado_1008304" data-name="Trazado 1008304" d="M879.063,248.929a5.187,5.187,0,0,1-2.607.9,9.946,9.946,0,0,1-3.277-.357,9.157,9.157,0,0,1-2.914-1.3,6.083,6.083,0,0,1-2.739-4.718c-.01-.4.6-.432.614-.038a4.96,4.96,0,0,0,.866,2.637,6.138,6.138,0,0,0,1.677,1.659.307.307,0,0,1,.056-.049,4.676,4.676,0,0,0,1.785-5.172c-.114-.38.469-.573.584-.195a5.305,5.305,0,0,1-1.869,5.756,9.284,9.284,0,0,0,2.377.9c1.681.392,3.727.536,5.171-.571a3.2,3.2,0,0,1,.275.551" transform="translate(-662.978 -185.01)" fill="#cc5050"/>
            <path id="Trazado_1008305" data-name="Trazado 1008305" d="M864.228,284.848a7.714,7.714,0,0,0-5.182,4.185,5.823,5.823,0,0,1-.461-.393l-.063.05a8,8,0,0,1,1.21-1.845,8.3,8.3,0,0,1,4.3-2.579c.384-.091.579.493.193.584" transform="translate(-656.096 -217.232)" fill="#cc5050"/>
            <path id="Trazado_1008306" data-name="Trazado 1008306" d="M808.445,232.988a7.763,7.763,0,0,1-2.811,3.991,5.878,5.878,0,0,1-4.178,1.076,16.425,16.425,0,0,1-1.185,3.271,6.812,6.812,0,0,1-1.208,1.779.291.291,0,0,1-.023-.032c-.413.091-.83.168-1.247.23a.094.094,0,0,1,.017-.011,5.5,5.5,0,0,0,2.158-2.77,16.714,16.714,0,0,0,1.364-7.636,6.229,6.229,0,0,1-5.027-3.211c-.186-.348.327-.685.515-.335a5.627,5.627,0,0,0,4.471,2.931,16.708,16.708,0,0,0-1.15-4.78c-.148-.369.437-.559.584-.195a17.237,17.237,0,0,1,1.052,3.835,17.6,17.6,0,0,1-.186,6.32,4.84,4.84,0,0,0,2.173-.21c3.032-1,4.417-4.185,4.6-7.16.025-.393.639-.433.614-.038a11.678,11.678,0,0,1-.531,2.943" transform="translate(-608.518 -173.555)" fill="#cc5050"/>
            <path id="Trazado_1008307" data-name="Trazado 1008307" d="M887.755,211.467c.031.013.062.026.092.04a8.286,8.286,0,0,0-2.966-.547.3.3,0,0,1-.028.181,6.424,6.424,0,0,1-3.251,3.142.311.311,0,0,1-.388-.2.314.314,0,0,1,.2-.388,5.788,5.788,0,0,0,2.832-2.715,8.242,8.242,0,0,0-2.526.6c-.368.153-.558-.433-.195-.584a8.883,8.883,0,0,1,6.5-.087,2.644,2.644,0,0,1-.26.553" transform="translate(-673.425 -160.747)" fill="#cc5050"/>
            <path id="Trazado_1008308" data-name="Trazado 1008308" d="M785.015,141.555a6.741,6.741,0,0,0-6.6-3.971c.047.153.1.3.147.454.109.325.226.645.344.966.1.274.188.545.284.817.02.052.038.1.057.157a21.542,21.542,0,0,1,.942,2.942c.019.09.038.18.054.271a7.683,7.683,0,0,1,.027,2.778.308.308,0,0,1-.6-.128,9.255,9.255,0,0,0-.626-4.721c-.066-.192-.137-.383-.207-.574a6.793,6.793,0,0,0-3.609,4.533.308.308,0,0,1-.6-.127,7.422,7.422,0,0,1,3.994-4.979,27.92,27.92,0,0,1-.983-2.865,8.852,8.852,0,0,1-.119-4.3,8.276,8.276,0,0,1,4.173-5.386,4.044,4.044,0,0,1,.66.358,7.579,7.579,0,0,0-4.4,6.148,8.516,8.516,0,0,0,.292,3.044,7.376,7.376,0,0,1,7.356,4.385c.159.365-.425.553-.584.195" transform="translate(-591.976 -97.381)" fill="#cc5050"/>
            <g id="Grupo_1182102" data-name="Grupo 1182102" transform="translate(173.098 33.437)" opacity="0.5" style="mix-blend-mode: soft-light;isolation: isolate">
              <g id="Grupo_1182101" data-name="Grupo 1182101">
                <g id="Grupo_1182100" data-name="Grupo 1182100" clip-path="url(#clip-path-6)">
                  <path id="Trazado_1008309" data-name="Trazado 1008309" d="M758.821,147.89c.151,3.629-5.252,6.8-12.068,7.085s-12.463-2.429-12.614-6.058,5.252-6.8,12.068-7.085,12.463,2.429,12.614,6.059" transform="translate(-734.136 -141.811)" fill="#fff"/>
                </g>
              </g>
            </g>
            <path id="Trazado_1008310" data-name="Trazado 1008310" d="M471.181,554.649l.017.1v0c.008.076.017.15.028.226s.022.153.037.233c.007.031.014.061.021.093,0,0,0,.006,0,.009.015.068.029.138.042.211a.084.084,0,0,0,0,.015l.018.095h0l15.815-.064c0-.005,0-.027.008-.062a3.46,3.46,0,0,0,.016-.357,4.28,4.28,0,0,0-.043-.446l0-.017v0a.7.7,0,0,0-.023-.1c-.176-.89-.829-2.116-2.992-2.5a3.117,3.117,0,0,0-.332-.052h-.01c-.169-.024-.339-.04-.521-.054l-.178-.012q-.68-.05-1.281-.136-.311-.041-.6-.092-.348-.059-.665-.127c-.21-.045-.411-.091-.6-.141-.176-.043-.345-.09-.506-.136-.216-.062-.417-.127-.6-.191-.238-.081-.453-.163-.647-.242-.223-.091-.418-.18-.583-.261a5.116,5.116,0,0,1-.763-.438l-.013,0a13.71,13.71,0,0,1-4.847.017,5.382,5.382,0,0,0-.371.826c-.012.031-.023.061-.034.093-.038.1-.074.217-.111.338s-.077.279-.114.432c-.01.029-.016.059-.025.094-.016.06-.028.129-.041.2a.44.44,0,0,0-.009.062c0,.016-.009.023-.009.035a7.745,7.745,0,0,0-.125,1.07,8.252,8.252,0,0,0,.04,1.282" transform="translate(-360.047 -420.47)" fill="#cc5050"/>
            <path id="Trazado_1008311" data-name="Trazado 1008311" d="M497.769,550.45a.285.285,0,0,0-.2-.082.329.329,0,0,0-.2.084l-.13.1q-.312.242-.635.471a.3.3,0,0,0-.129.169.283.283,0,0,0,.417.318q.45-.318.879-.663a.282.282,0,0,0,.082-.2.288.288,0,0,0-.083-.2" transform="translate(-379.407 -420.6)" fill="#fff"/>
            <path id="Trazado_1008312" data-name="Trazado 1008312" d="M502.394,552.571a.286.286,0,0,0-.4,0,4.787,4.787,0,0,1-.685.658c-.04.03-.08.061-.121.09a.3.3,0,0,0-.129.169.289.289,0,0,0,.029.218.286.286,0,0,0,.387.1,5.086,5.086,0,0,0,.921-.837.3.3,0,0,0,.082-.2.289.289,0,0,0-.084-.2" transform="translate(-382.909 -422.222)" fill="#fff"/>
            <path id="Trazado_1008313" data-name="Trazado 1008313" d="M507.495,554.1a.284.284,0,0,0-.2-.082.273.273,0,0,0-.2.084l-.638.827a.309.309,0,0,0-.082.2.288.288,0,0,0,.084.2.284.284,0,0,0,.2.082.272.272,0,0,0,.2-.083l.638-.827a.309.309,0,0,0,.082-.2.287.287,0,0,0-.083-.2" transform="translate(-386.98 -423.388)" fill="#fff"/>
            <path id="Trazado_1008314" data-name="Trazado 1008314" d="M513.221,555.362a.287.287,0,0,0-.387.1l-.416.719a.283.283,0,1,0,.482.3l.416-.719a.286.286,0,0,0-.094-.4" transform="translate(-391.563 -424.389)" fill="#fff"/>
            <path id="Trazado_1008315" data-name="Trazado 1008315" d="M471.4,569.312c.019.149.038.3.069.457.028.137.053.28.087.426l15.815-.064a2.755,2.755,0,0,0,.026-.42,3.533,3.533,0,0,0-.047-.462Z" transform="translate(-360.251 -435.028)" fill="#ef8181"/>
            <path id="Trazado_1008316" data-name="Trazado 1008316" d="M397.936,554.649l-.017.1v0c-.008.076-.017.15-.028.226s-.022.153-.037.233c-.007.031-.014.061-.021.093a.084.084,0,0,0,0,.009c-.015.068-.029.138-.042.211a.085.085,0,0,1,0,.015l-.018.095h0l-15.815-.064c0-.005,0-.027-.008-.062a3.48,3.48,0,0,1-.016-.357,4.272,4.272,0,0,1,.043-.446l0-.017v0a.7.7,0,0,1,.023-.1c.176-.89.829-2.116,2.992-2.5a3.116,3.116,0,0,1,.332-.052h.01c.169-.024.339-.04.521-.054l.178-.012q.68-.05,1.281-.136.311-.041.6-.092.348-.059.665-.127c.21-.045.411-.091.6-.141.176-.043.345-.09.506-.136.216-.062.417-.127.6-.191.238-.081.453-.163.647-.242.223-.091.418-.18.583-.261a5.116,5.116,0,0,0,.763-.438l.013,0a13.71,13.71,0,0,0,4.847.017,5.379,5.379,0,0,1,.371.826c.012.031.023.061.034.093.038.1.074.217.111.338s.077.279.114.432c.01.029.016.059.025.094.016.06.028.129.041.2a.435.435,0,0,1,.009.062c0,.016.009.023.009.035a7.74,7.74,0,0,1,.125,1.07,8.249,8.249,0,0,1-.04,1.282" transform="translate(-291.874 -420.47)" fill="#cc5050"/>
            <path id="Trazado_1008317" data-name="Trazado 1008317" d="M418.9,550.45a.285.285,0,0,1,.2-.082.327.327,0,0,1,.2.084l.131.1q.312.242.635.471a.3.3,0,0,1,.129.169.283.283,0,0,1-.417.318q-.45-.318-.879-.663a.282.282,0,0,1-.082-.2.287.287,0,0,1,.083-.2" transform="translate(-320.064 -420.6)" fill="#fff"/>
            <path id="Trazado_1008318" data-name="Trazado 1008318" d="M414.139,552.571a.286.286,0,0,1,.4,0,4.784,4.784,0,0,0,.685.658c.04.03.08.061.121.09a.3.3,0,0,1,.129.169.289.289,0,0,1-.029.218.286.286,0,0,1-.387.1,5.087,5.087,0,0,1-.921-.837.3.3,0,0,1-.082-.2.288.288,0,0,1,.084-.2" transform="translate(-316.427 -422.222)" fill="#fff"/>
            <path id="Trazado_1008319" data-name="Trazado 1008319" d="M409.767,554.1a.284.284,0,0,1,.2-.082.273.273,0,0,1,.2.084l.638.827a.309.309,0,0,1,.082.2.287.287,0,0,1-.084.2.284.284,0,0,1-.2.082.272.272,0,0,1-.2-.083l-.638-.827a.309.309,0,0,1-.082-.2.288.288,0,0,1,.083-.2" transform="translate(-313.087 -423.388)" fill="#fff"/>
            <path id="Trazado_1008320" data-name="Trazado 1008320" d="M404.74,555.362a.288.288,0,0,1,.388.1l.415.719a.283.283,0,1,1-.481.3l-.416-.719a.286.286,0,0,1,.094-.4" transform="translate(-309.202 -424.389)" fill="#fff"/>
            <path id="Trazado_1008321" data-name="Trazado 1008321" d="M397.916,569.312c-.019.149-.038.3-.069.457-.028.137-.053.28-.087.426l-15.815-.064a2.752,2.752,0,0,1-.026-.42,3.533,3.533,0,0,1,.047-.462Z" transform="translate(-291.869 -435.028)" fill="#ef8181"/>
            <path id="Trazado_1008322" data-name="Trazado 1008322" d="M464.694,300.511c3.728,19.425-1.036,58.873-1.036,58.873a11.042,11.042,0,0,1-4.86.02s-1.634-44.447-4.912-58.892Z" transform="translate(-346.867 -229.655)" fill="#ffbe9e"/>
            <path id="Trazado_1008323" data-name="Trazado 1008323" d="M417.514,300.511c-2.607,15.188,1.272,58.872,1.272,58.872a16.207,16.207,0,0,0,4.86.02c2.168-22.888,6.014-58.892,6.014-58.892Z" transform="translate(-318.382 -229.655)" fill="#ffbe9e"/>
            <path id="Trazado_1008324" data-name="Trazado 1008324" d="M435.663,348.66c-2.42.608-8.879,0-8.879,0l-.565-26.812-1.651,26.9a27.45,27.45,0,0,1-6.873.251l-.121-.009c-1.486-.1-2.533-.242-2.533-.242s-1.554-37.807.9-48.237h18.7s3.055,9.735,1.027,48.15" transform="translate(-316.81 -229.655)" fill="#036a72"/>
            <path id="Trazado_1008325" data-name="Trazado 1008325" d="M463.346,343.359q-.02-2.86.066-5.719t.277-5.7q.108-1.6.248-3.2c.007-.078-.115-.077-.121,0q-.251,2.849-.4,5.706t-.184,5.7q-.022,1.6-.011,3.21a.061.061,0,0,0,.121,0" transform="translate(-354.001 -251.185)" fill="#0a4849"/>
            <path id="Trazado_1008326" data-name="Trazado 1008326" d="M465.926,319.582a2.493,2.493,0,0,0,2.107-2.068,2.527,2.527,0,0,0-.028-.927c-.017-.076-.134-.044-.117.032a2.392,2.392,0,0,1-.18,1.538,2.359,2.359,0,0,1-1.026,1.055,2.386,2.386,0,0,1-.788.252c-.077.011-.044.128.032.117" transform="translate(-356.009 -241.908)" fill="#0a4849"/>
            <path id="Trazado_1008327" data-name="Trazado 1008327" d="M425.166,294.44q-.151.685-.286,1.373a78.531,78.531,0,0,0-1.254,9.7,186.327,186.327,0,0,0,0,19.894q.351,9.449.7,18.9l-.121-.009q-.187-5-.373-10.005-.191-5.089-.379-10.177c-.12-3.336-.22-6.672-.22-10.01,0-3.312.1-6.626.376-9.926a76.4,76.4,0,0,1,1.15-8.36q.136-.7.291-1.405c.017-.077.135-.044.117.032" transform="translate(-323.44 -224.958)" fill="#0a4849"/>
            <path id="Trazado_1008328" data-name="Trazado 1008328" d="M414.9,104.68a6.5,6.5,0,0,0-.765.461,6.792,6.792,0,0,0-2.329,2.873c-.489,1.144-.427,2.49-1.389,3.421a8.238,8.238,0,0,1-2.109,1.158,2.182,2.182,0,0,0-1.389,1.8c.039,1.078,1.373,1.809,1.339,2.887-.023.74-.689,1.29-1.333,1.671a3.794,3.794,0,0,0-1.687,1.415,2.813,2.813,0,0,0,.781,2.822c2.639,3.192,7.05,4.632,11.216,4.354a10.116,10.116,0,0,0,6.369-2.442,5.817,5.817,0,0,0,1.833-4.819c-.2-1.372-1.287-2.325-1.747-3.591a5.737,5.737,0,0,1-.3-2.688c.121-.923.52-1.789.725-2.7.665-2.947-.234-6.107-3.4-7.1a7.871,7.871,0,0,0-5.821.472" transform="translate(-309.569 -79.37)" fill="#421f09"/>
            <path id="Trazado_1008329" data-name="Trazado 1008329" d="M475.476,181.254c2.54.915,3.81,12.357,3.81,12.357l7.953-8.16,2.44,1.615s-7.068,9.6-8.013,10.836c-1.695,2.216-5.4,1.456-6.39-1.021s.2-15.625.2-15.625" transform="translate(-362.913 -138.517)" fill="#ffb794"/>
            <path id="Trazado_1008330" data-name="Trazado 1008330" d="M476.754,181.254c2.931.807,4.169,8.075,4.169,8.075a8.7,8.7,0,0,1-4.367.75Z" transform="translate(-364.192 -138.517)" fill="#cc5050"/>
            <path id="Trazado_1008331" data-name="Trazado 1008331" d="M418.627,206.389c14.861,3.146,19.313.316,19.313.316-.095-.659-3.877-15.36-3.877-15.36,2.247-.914,2.6-4.458.713-7.128a6.934,6.934,0,0,0-1.192-1.3l-1.1-4.65-3.139-.921-4.029.205-3.332,1.293.374,18.2c-2.453,3.01-3.73,9.346-3.73,9.346" transform="translate(-319.921 -135.533)" fill="#cc5050"/>
            <path id="Trazado_1008332" data-name="Trazado 1008332" d="M480.591,200.611a6.981,6.981,0,0,1,2.134,2.666,5.454,5.454,0,0,1,.351,3.418,4.7,4.7,0,0,1-.809,1.765c-.047.063.058.123.1.061a5.076,5.076,0,0,0,.946-3.364,6.084,6.084,0,0,0-1.268-3.253,7.517,7.517,0,0,0-1.4-1.4c-.062-.048-.122.058-.061.1" transform="translate(-367.256 -153.221)" fill="#6d2424"/>
            <path id="Trazado_1008333" data-name="Trazado 1008333" d="M478.693,188.569a17.2,17.2,0,0,1-.9-3.126q-.087-.459-.148-.923c-.01-.076-.132-.077-.121,0a17.292,17.292,0,0,0,.735,3.2q.148.445.32.881c.029.072.146.041.117-.032" transform="translate(-364.928 -140.969)" fill="#6d2424"/>
            <path id="Trazado_1008334" data-name="Trazado 1008334" d="M447.983,117.766c0,.028,0,.056,0,.084s0,.061-.007.094a5,5,0,0,1-1.431,3.354,13.135,13.135,0,0,1-1.134.991c-.109.088-.21.171-.309.253-.077.063-.149.129-.224.2-.752.675-1.166,1.4-1,3.456a2.3,2.3,0,0,1-4.232.344A20.491,20.491,0,0,0,438.3,120.6c-.134-.352-.262-.651-.371-.891-.207-.459-.35-.709-.35-.709s-.325-5.468.344-6.98c1.631-3.651,8.443-3,9.19-.256a19.135,19.135,0,0,1,.872,6" transform="translate(-334.344 -83.675)" fill="#ffbe9e"/>
            <path id="Trazado_1008335" data-name="Trazado 1008335" d="M436.576,116.915a2.548,2.548,0,0,0,1.644-1.145,6.915,6.915,0,0,0,1.027-2.006,5.372,5.372,0,0,0,5.474-3.5,11.423,11.423,0,0,0,1.019,1.718,3.835,3.835,0,0,0,1.53,1.252,3.779,3.779,0,0,0-1.626-4.142,7.342,7.342,0,0,0-3.458-.767,6.03,6.03,0,0,0-3.606.552,4.633,4.633,0,0,0-1.652,2.2,10.219,10.219,0,0,0-.351,5.838" transform="translate(-333.441 -82.756)" fill="#421f09"/>
            <path id="Trazado_1008336" data-name="Trazado 1008336" d="M468.618,142.8a.776.776,0,0,1,.307-.094.442.442,0,0,1,.286.058.353.353,0,0,1,.145.261.648.648,0,0,1-.053.292.1.1,0,0,1-.122.076.1.1,0,0,1-.076-.122.565.565,0,0,0,.05-.214.18.18,0,0,0-.036-.105l0,.006a.137.137,0,0,0-.1-.048h-.033a.577.577,0,0,0-.061,0l-.031,0h-.014a1.119,1.119,0,0,0-.175.063.1.1,0,0,1-.125-.038.1.1,0,0,1,.031-.141" transform="translate(-358.09 -109.056)" fill="#c16b5b"/>
            <path id="Trazado_1008337" data-name="Trazado 1008337" d="M471.9,131.433a1.848,1.848,0,0,0-1.714-.212.291.291,0,0,0-.17.369.307.307,0,0,0,.425.149,1.278,1.278,0,0,1,1.052.11l.038.023a.287.287,0,0,0,.369-.439" transform="translate(-359.179 -100.188)" fill="#421f09"/>
            <path id="Trazado_1008338" data-name="Trazado 1008338" d="M457.4,132.006a1.848,1.848,0,0,0-1.685.378.287.287,0,0,0,.368.441,1.379,1.379,0,0,1,.47-.266l-.022.011a1.377,1.377,0,0,1,.656-.028c.15.027.324,0,.379-.165a.29.29,0,0,0-.167-.37" transform="translate(-348.19 -100.833)" fill="#421f09"/>
            <path id="Trazado_1008339" data-name="Trazado 1008339" d="M458.8,139.414a.465.465,0,1,0,.467-.461.464.464,0,0,0-.467.461" transform="translate(-350.619 -106.19)"/>
            <path id="Trazado_1008340" data-name="Trazado 1008340" d="M460.886,139.858a.135.135,0,1,0,.136-.134.135.135,0,0,0-.136.134" transform="translate(-352.216 -106.779)" fill="#fff"/>
            <path id="Trazado_1008341" data-name="Trazado 1008341" d="M473.152,138.63a.465.465,0,1,0,.467-.461.464.464,0,0,0-.467.461" transform="translate(-361.59 -105.591)"/>
            <path id="Trazado_1008342" data-name="Trazado 1008342" d="M475.241,139.074a.135.135,0,1,0,.136-.134.135.135,0,0,0-.136.134" transform="translate(-363.187 -106.18)" fill="#fff"/>
            <path id="Trazado_1008343" data-name="Trazado 1008343" d="M464.2,148.456c.13-.178.435.033.81.084s.726-.072.8.135c.1.261-.307.822-.922.738s-.856-.732-.692-.958" transform="translate(-354.714 -113.399)" fill="#8e4136"/>
            <path id="Trazado_1008344" data-name="Trazado 1008344" d="M464.358,150.419a2.989,2.989,0,0,1,.378.026,1.862,1.862,0,0,1,.955.352.866.866,0,0,1-1.334-.379" transform="translate(-354.87 -114.953)" fill="#c16b5b"/>
            <path id="Trazado_1008345" data-name="Trazado 1008345" d="M465.452,148.752c-.335-.046-.609-.164-.688-.358.156-.04.414.106.717.148s.59-.031.73.049a.831.831,0,0,1-.759.162" transform="translate(-355.18 -113.399)" fill="#e1eff0"/>
            <path id="Trazado_1008346" data-name="Trazado 1008346" d="M429.869,143.14a1.327,1.327,0,1,0-.223-2.067,1.49,1.49,0,0,0,.223,2.067" transform="translate(-328.095 -107.572)" fill="#ffbe9e"/>
            <path id="Trazado_1008347" data-name="Trazado 1008347" d="M431.37,142.969a1,1,0,0,1,.874-.054.816.816,0,0,1,.355.232.5.5,0,0,1,.108.449.7.7,0,0,1-.217.3.672.672,0,0,0-.148.175.254.254,0,0,0,.354.331.113.113,0,0,1,.111.2.47.47,0,0,1-.193.058.477.477,0,0,1-.476-.683.853.853,0,0,1,.2-.241.523.523,0,0,0,.156-.2.273.273,0,0,0-.065-.241.456.456,0,0,0-.092-.079.461.461,0,0,0-.313.137.4.4,0,0,0-.072.338.113.113,0,0,1-.082.137l-.018,0a.113.113,0,0,1-.118-.085.625.625,0,0,1,.112-.531.515.515,0,0,1,.159-.129.71.71,0,0,0-.51.077.437.437,0,0,0-.176.546.113.113,0,1,1-.2.111.661.661,0,0,1,.251-.848" transform="translate(-329.415 -109.161)" fill="#c16b5b"/>
            <path id="Trazado_1008348" data-name="Trazado 1008348" d="M535.926,139.266a2.3,2.3,0,0,1-.432-1.356,7.578,7.578,0,0,1,7.3-8.064,6.743,6.743,0,0,1,.724,5.232,5.922,5.922,0,0,1-3.068,3.288,10.4,10.4,0,0,1-4.521.9" transform="translate(-409.222 -99.23)" fill="#cc5050"/>
            <path id="Trazado_1008349" data-name="Trazado 1008349" d="M542.508,132.686a10.236,10.236,0,0,0-3.506,3.55c-.487.753-.934,1.533-1.37,2.316a19.311,19.311,0,0,0-1.14,2.342,8.657,8.657,0,0,0-.632,2.814c0,.078.118.078.121,0a11.149,11.149,0,0,1,1.608-4.829c.423-.775.864-1.543,1.333-2.292a14.728,14.728,0,0,1,1.539-2.087,8.2,8.2,0,0,1,2.107-1.709c.068-.038.007-.143-.061-.1" transform="translate(-409.513 -101.395)" fill="#6d2424"/>
            <path id="Trazado_1008350" data-name="Trazado 1008350" d="M529.561,118.9a10.616,10.616,0,0,0-1.457-4.686,7.6,7.6,0,0,0-5.014,4.647A8.423,8.423,0,0,0,524.152,126a5.8,5.8,0,0,0,4.112-2.435,7.459,7.459,0,0,0,1.3-4.662" transform="translate(-399.462 -87.287)" fill="#ef8181"/>
            <path id="Trazado_1008351" data-name="Trazado 1008351" d="M531.357,117.836a22.977,22.977,0,0,0-1.326,2.5,23.608,23.608,0,0,0-2.057,8.173,22.973,22.973,0,0,0-.016,2.829q.01.173.022.347c.005.078.127.078.121,0a23.126,23.126,0,0,1,.287-5.612,23.614,23.614,0,0,1,.644-2.729A23.371,23.371,0,0,1,530,120.7a23.006,23.006,0,0,1,1.283-2.507q.088-.15.179-.3c.041-.067-.064-.128-.1-.061" transform="translate(-403.447 -90.03)" fill="#6d2424"/>
            <path id="Trazado_1008352" data-name="Trazado 1008352" d="M499.809,131.227a12.794,12.794,0,0,0-.11-5.236,7.54,7.54,0,0,0-7.126-5.486,7.457,7.457,0,0,0,1.123,6.8,9.262,9.262,0,0,0,2.676,2.346,21.5,21.5,0,0,0,3.437,1.578" transform="translate(-376.142 -92.092)" fill="#cc5050"/>
            <path id="Trazado_1008353" data-name="Trazado 1008353" d="M497.23,123a8.522,8.522,0,0,1,2.355,1.4,10.124,10.124,0,0,1,1.844,2.026,11.38,11.38,0,0,1,1.318,2.554,14.322,14.322,0,0,1,.752,3.16,19.178,19.178,0,0,1,.114,3.267q-.009.2-.022.4c0,.078.116.078.121,0a19.919,19.919,0,0,0-.052-3.325,14.864,14.864,0,0,0-.681-3.211,11.711,11.711,0,0,0-1.281-2.666,10.406,10.406,0,0,0-1.805-2.1,8.8,8.8,0,0,0-2.313-1.489q-.157-.068-.317-.13c-.073-.028-.1.089-.032.117" transform="translate(-379.96 -93.908)" fill="#6d2424"/>
            <path id="Trazado_1008354" data-name="Trazado 1008354" d="M496.792,144.7a7.625,7.625,0,0,0-7.306-7.077,5.369,5.369,0,0,0,1.669,5.5,7,7,0,0,0,2.613,1.276,22.666,22.666,0,0,0,3.024.3" transform="translate(-373.923 -105.174)" fill="#ef8181"/>
            <path id="Trazado_1008355" data-name="Trazado 1008355" d="M492.078,140.156a13.332,13.332,0,0,1,2.015,1.159,13.744,13.744,0,0,1,1.792,1.493,13.956,13.956,0,0,1,2.713,3.753,13.255,13.255,0,0,1,.845,2.173q.04.139.077.278a.061.061,0,0,0,.117-.032,13.431,13.431,0,0,0-.8-2.2,13.834,13.834,0,0,0-1.169-2.036,14.187,14.187,0,0,0-1.487-1.809,14.022,14.022,0,0,0-1.765-1.537,13.371,13.371,0,0,0-2.007-1.218q-.135-.066-.271-.129c-.07-.033-.132.072-.061.1" transform="translate(-376.03 -107.024)" fill="#6d2424"/>
            <path id="Trazado_1008356" data-name="Trazado 1008356" d="M516.539,186.518l-8.9-.431-.491-9.141,10.766.521Z" transform="translate(-387.568 -135.225)" fill="#ffab24"/>
            <rect id="Rectángulo_456217" data-name="Rectángulo 456217" width="2.472" height="11.712" transform="translate(119.051 42.933) rotate(-87.229)" fill="#ffcb64"/>
            <path id="Trazado_1008357" data-name="Trazado 1008357" d="M430.535,183.7c-2.474,1.425,2.173,14.112,2.986,15.418a3.909,3.909,0,0,0,5.443,1.157c1.547-1.044,11.261-9.935,11.261-9.935l-1.556-2.189-10.943,6.779-3.324-8.213Z" transform="translate(-328.473 -140.388)" fill="#ffbe9e"/>
            <path id="Trazado_1008358" data-name="Trazado 1008358" d="M508.843,191.331c.329-.322.066-2.932.615-3.037.5-.1.876.966.681,1.513.556-.473,2.16-2.949,2.626-2.548.345.3-1.07,2.021-1.07,2.021s1.859-1.821,2.236-1.36S512.195,190,512.195,190s1.874-1.268,2.112-.85-1.816,1.566-1.816,1.566,1.749-.668,1.866-.426-.855.9-1.734,1.176a3.838,3.838,0,0,1-2.264,1.619Z" transform="translate(-388.866 -143.072)" fill="#ffbe9e"/>
            <path id="Trazado_1008359" data-name="Trazado 1008359" d="M428.632,183.7c-2.735,1.338-.323,11.083-.323,11.083a26.1,26.1,0,0,0,7.2-2.467l-2.249-5.941Z" transform="translate(-326.57 -140.388)" fill="#cc5050"/>
            <path id="Trazado_1008360" data-name="Trazado 1008360" d="M452.351,195.169q.9,2.317,1.919,4.589.287.641.582,1.277c.033.071.138.009.1-.061q-1.04-2.242-1.97-4.532-.264-.65-.518-1.3c-.028-.072-.146-.041-.117.032" transform="translate(-345.69 -149.096)" fill="#6d2424"/>
            <path id="Trazado_1008361" data-name="Trazado 1008361" d="M1003.279,254.435h-4.488v-4.488h-4.743v4.488H989.56v4.743h4.488v4.488h4.743v-4.488h4.488Z" transform="translate(-756.237 -191.013)" fill="#cc5050"/>
            <path id="Trazado_1008362" data-name="Trazado 1008362" d="M741.568,43.173h-2.186V40.986h-2.31v2.186h-2.186v2.31h2.186v2.186h2.31V45.483h2.186Z" transform="translate(-561.611 -31.322)" fill="#cc5050"/>
            <path id="Trazado_1008363" data-name="Trazado 1008363" d="M544.934,412h-3.378V408.62h-3.569V412h-3.378v3.57h3.378v3.378h3.569v-3.378h3.378Z" transform="translate(-408.556 -312.274)" fill="#cc5050"/>
            <path id="Trazado_1008364" data-name="Trazado 1008364" d="M611.932,64.8a9.059,9.059,0,1,1-9.059-9.059,9.059,9.059,0,0,1,9.059,9.059" transform="translate(-453.802 -42.595)" fill="#fff"/>
            <path id="Trazado_1008365" data-name="Trazado 1008365" d="M619.423,79.982a2.968,2.968,0,0,0-2.53-1.827,3.312,3.312,0,0,1-5.755,0,2.967,2.967,0,0,0-2.531,1.827,4.219,4.219,0,0,0,.449,3.509,5.2,5.2,0,0,0,9.918,0,4.219,4.219,0,0,0,.449-3.509" transform="translate(-464.943 -59.724)" fill="#cc5050"/>
            <path id="Trazado_1008366" data-name="Trazado 1008366" d="M1008.471,119.916a4.543,4.543,0,1,1-4.543-4.543,4.543,4.543,0,0,1,4.543,4.543" transform="translate(-763.745 -88.17)" fill="#fff"/>
            <path id="Trazado_1008367" data-name="Trazado 1008367" d="M1012.227,127.531a1.488,1.488,0,0,0-1.269-.916,1.661,1.661,0,0,1-2.887,0,1.489,1.489,0,0,0-1.269.916,2.117,2.117,0,0,0,.225,1.76,2.606,2.606,0,0,0,4.974,0,2.116,2.116,0,0,0,.225-1.76" transform="translate(-769.332 -96.76)" fill="#cc5050"/>
            <path id="Trazado_1008368" data-name="Trazado 1008368" d="M742.374,356.676a3.545,3.545,0,1,1-3.545-3.545,3.545,3.545,0,0,1,3.545,3.545" transform="translate(-561.917 -269.868)" fill="#fff"/>
            <path id="Trazado_1008369" data-name="Trazado 1008369" d="M745.305,362.617a1.161,1.161,0,0,0-.99-.715,1.3,1.3,0,0,1-2.252,0,1.161,1.161,0,0,0-.99.715,1.65,1.65,0,0,0,.176,1.373,2.033,2.033,0,0,0,3.88,0,1.65,1.65,0,0,0,.176-1.373" transform="translate(-566.276 -276.57)" fill="#cc5050"/>
            <path id="Trazado_1008370" data-name="Trazado 1008370" d="M645.41,510.069H628.778l.125-1.615.116-1.478,1.216-15.6.085-1.09h13.543l.085,1.09,1.218,15.6.116,1.478Z" transform="translate(-480.523 -374.682)" fill="#cc5050"/>
            <path id="Trazado_1008371" data-name="Trazado 1008371" d="M604.392,489l8.543,6.4c2.422,1.83,2.316,9.129-.324,9.129l-9.028-11.734Z" transform="translate(-461.267 -373.698)" fill="#6d2424"/>
            <path id="Trazado_1008372" data-name="Trazado 1008372" d="M596.194,482.543c-.124,2.315-1.953,4.1-3.4,4.022s-2.522-2.017-2.4-4.332,1.4-4.129,2.847-4.051,3.076,2.047,2.952,4.362" transform="translate(-451.182 -365.432)" fill="#cc5050"/>
            <path id="Trazado_1008373" data-name="Trazado 1008373" d="M692.009,497a4.375,4.375,0,0,0-5.092,2.981c-.251.76.947,1.086,1.2.33a3.1,3.1,0,0,1,3.891-2.025c1.9.635,2.3,2.551,2.223,4.33s-.3,3.809-1.5,5.229c-1.013,1.2-3.121,1.89-4.251.418-.48-.625-1.558-.007-1.071.626a3.853,3.853,0,0,0,5.557.454c2.035-1.655,2.459-4.512,2.515-6.981.054-2.385-.935-4.776-3.468-5.362" transform="translate(-524.927 -379.733)" fill="#cc5050"/>
            <path id="Trazado_1008374" data-name="Trazado 1008374" d="M645.691,562.561h-16.38l.116-1.478h16.148Z" transform="translate(-480.929 -428.788)" fill="#6d2424"/>
            <path id="Trazado_1008375" data-name="Trazado 1008375" d="M647.984,483.663H633.649V483.3a1.679,1.679,0,0,1,1.679-1.679H646.3a1.679,1.679,0,0,1,1.679,1.679Z" transform="translate(-484.245 -368.062)" fill="#cc5050"/>
            <path id="Trazado_1008376" data-name="Trazado 1008376" d="M648.676,491.373H634.961l.085-1.09H648.59Z" transform="translate(-485.248 -374.682)" fill="#6d2424"/>
            <path id="Trazado_1008377" data-name="Trazado 1008377" d="M658.184,471.136c0,1.094-1.171,1.98-2.614,1.98s-2.614-.887-2.614-1.98,1.17-1.98,2.614-1.98,2.614.887,2.614,1.98" transform="translate(-498.999 -358.536)" fill="#cc5050"/>
            <path id="Trazado_1008378" data-name="Trazado 1008378" d="M793.413,438.553h2.562L789.89,470.59h-.724Z" transform="translate(-603.093 -335.149)" fill="#ff812c"/>
            <path id="Trazado_1008379" data-name="Trazado 1008379" d="M969.964,438.553H967.4l6.085,32.037h.724Z" transform="translate(-739.304 -335.149)" fill="#ff812c"/>
            <rect id="Rectángulo_456218" data-name="Rectángulo 456218" width="46.399" height="2.921" transform="translate(187.29 100.932)" fill="#ffab24"/>
            <rect id="Rectángulo_456219" data-name="Rectángulo 456219" width="42.2" height="0.576" transform="translate(189.39 116.012)" fill="#ff812c"/>
            <path id="Trazado_1008380" data-name="Trazado 1008380" d="M877.634,342.745a11.548,11.548,0,0,0-2.9-2.627,5.424,5.424,0,0,0-3.765-.765,3.579,3.579,0,0,0-2.784,2.477,4.475,4.475,0,0,0,1.169,3.808c2.334,2.812,6.349,3.935,8.367,6.982.512.773.87,1.639,1.386,2.41a3.569,3.569,0,0,0,2.153,1.644,1.912,1.912,0,0,0,2.189-1.215c.2-.862-.4-2.22-.643-3.044A27.255,27.255,0,0,0,879.964,346a26.825,26.825,0,0,0-2.33-3.256" transform="translate(-663.412 -259.274)" fill="#ffab24"/>
            <path id="Trazado_1008381" data-name="Trazado 1008381" d="M879.815,346.468c.285.109.533.212.8.334s.538.251.8.387a16.128,16.128,0,0,1,1.532.9q.37.247.726.514c.229.172.453.349.683.542a16.178,16.178,0,0,1,1.3,1.216q.308.321.6.659.146.171.288.347l.137.172.066.084.007.009.014.019.036.047a15.725,15.725,0,0,1,1.047,1.559,16.091,16.091,0,0,1,.87,1.7c.123.28.24.573.351.871s.212.6.3.907a16.171,16.171,0,0,1,.447,1.86q.042.235.077.472c.006.038.011.076.017.114l.008.057c0,.03,0,.024.007.051q.016.117.029.234.055.475.082.953.013.233.019.465a.117.117,0,0,0,.234,0,16.261,16.261,0,0,0-1.18-5.645,16.422,16.422,0,0,0-.832-1.756,15.855,15.855,0,0,0-1.023-1.62,16.132,16.132,0,0,0-2.41-2.665,16.624,16.624,0,0,0-1.418-1.122,16.119,16.119,0,0,0-3.147-1.734q-.2-.084-.408-.162a.117.117,0,0,0-.144.082.12.12,0,0,0,.082.144" transform="translate(-672.304 -264.599)" fill="#ff812c"/>
            <path id="Trazado_1008382" data-name="Trazado 1008382" d="M947.533,346.2a6.107,6.107,0,0,1,1.559-2.848,2.554,2.554,0,0,1,3.022-.416,9.368,9.368,0,0,1,5.659-6.381,3.224,3.224,0,0,1,3.105.116,2.5,2.5,0,0,1,.858,1.788,6.12,6.12,0,0,1-.271,2.013,26.14,26.14,0,0,1-3.179,7.165,22.99,22.99,0,0,1-5.058,6.018q-.19.147-.387.283a5.469,5.469,0,0,1-4.847.915c-2.278-.781-1.458-3.32-1.225-5.119a21.727,21.727,0,0,1,.763-3.536" transform="translate(-723.281 -256.941)" fill="#ffab24"/>
            <path id="Trazado_1008383" data-name="Trazado 1008383" d="M968,340.96q-.67.553-1.295,1.157t-1.206,1.248q-.58.643-1.119,1.322t-1.06,1.41q-.5.707-.971,1.438-.5.777-.964,1.575-.481.823-.933,1.663t-.88,1.684q-.432.851-.849,1.708t-.83,1.718l-.2.419.214.028a12.406,12.406,0,0,1-.207-1.627,13.135,13.135,0,0,1,0-1.653q.027-.411.078-.82c.009-.069.015-.113.025-.187s.02-.137.031-.205q.033-.205.072-.409a13.074,13.074,0,0,1,.413-1.6,12.481,12.481,0,0,1,.606-1.519l.091-.186a.117.117,0,1,0-.2-.118,13.1,13.1,0,0,0-1.1,3.171,13.524,13.524,0,0,0-.239,1.667,13.091,13.091,0,0,0,.16,3.345q.018.1.038.2a.118.118,0,0,0,.214.028q.413-.86.828-1.719t.84-1.705q.428-.852.874-1.7t.916-1.664q.467-.816.966-1.614.461-.735.954-1.448.249-.359.506-.712.129-.176.26-.351l.128-.169.066-.087.056-.073q.532-.688,1.1-1.343t1.181-1.264q.612-.611,1.268-1.176.161-.138.324-.273a.118.118,0,0,0,0-.166.12.12,0,0,0-.166,0" transform="translate(-731.691 -260.542)" fill="#ff812c"/>
            <path id="Trazado_1008384" data-name="Trazado 1008384" d="M920.9,332.12a3.52,3.52,0,0,1,.207-2,1.532,1.532,0,0,1,1.665-.884,12.99,12.99,0,0,1-1.465-10.154,3.537,3.537,0,0,1,1.468-2.286,2.67,2.67,0,0,1,3.015.6,6.134,6.134,0,0,1,1.476,2.9,18.785,18.785,0,0,1,.057,9.467,1.183,1.183,0,0,1,1.487-.852,1.887,1.887,0,0,1,1.208,1.408,5.031,5.031,0,0,1-.019,1.931,18.024,18.024,0,0,1-1.02,4.05,6.785,6.785,0,0,1-2.276,3.286c-.936.575-1.7-.02-2.352-.713a14.293,14.293,0,0,1-2.2-2.9,10.816,10.816,0,0,1-1.25-3.844" transform="translate(-703.73 -241.908)" fill="#ffcb64"/>
            <path id="Trazado_1008385" data-name="Trazado 1008385" d="M928.55,322.8a10.072,10.072,0,0,1,.849,1.558c.057.131.107.25.162.391s.1.275.154.415q.147.418.266.846a17.7,17.7,0,0,1,.389,1.751c.1.6.176,1.161.24,1.763.066.626.116,1.254.16,1.882q.073,1.04.117,2.083t.06,2.085q.016,1.039,0,2.079t-.053,2.078q-.041,1.042-.111,2.083-.017.252-.035.5l.218-.059q-.509-1.2-1.112-2.363t-1.3-2.267q-.39-.623-.808-1.228a.117.117,0,1,0-.2.118q.742,1.075,1.4,2.207t1.217,2.311q.316.663.6,1.34a.117.117,0,0,0,.132.054.122.122,0,0,0,.086-.113q.076-1.044.125-2.09t.067-2.085q.019-1.043.01-2.086t-.047-2.086q-.038-1.042-.1-2.084c-.042-.654-.09-1.308-.152-1.961-.057-.605-.128-1.209-.22-1.81s-.2-1.182-.35-1.763a13.616,13.616,0,0,0-.54-1.7,10.672,10.672,0,0,0-.785-1.6q-.114-.188-.235-.37a.117.117,0,0,0-.2.118" transform="translate(-708.835 -246.556)" fill="#ff812c"/>
            <path id="Trazado_1008386" data-name="Trazado 1008386" d="M900.743,402.361a6.062,6.062,0,0,0,6.062,6.062H915.9a6.062,6.062,0,0,0,6.062-6.062Z" transform="translate(-688.362 -307.491)" fill="#0a4849"/>
            <path id="Trazado_1008387" data-name="Trazado 1008387" d="M797.882,418.278a25.549,25.549,0,0,1,9.352-22.14,20,20,0,0,1-5.976,21.775c-1.182.143-2.194.223-3.376.365" transform="translate(-609.664 -302.735)" fill="#a8dce0"/>
            <path id="Trazado_1008388" data-name="Trazado 1008388" d="M805.431,400.377q-.766.935-1.478,1.912t-1.351,1.968q-.648,1-1.239,2.04t-1.13,2.117q-.533,1.068-1.006,2.165t-.894,2.233q-.415,1.126-.767,2.274t-.636,2.3q-.286,1.159-.508,2.333-.224,1.189-.38,2.388-.037.285-.07.571a.117.117,0,0,0,.117.117.121.121,0,0,0,.117-.117q.035-.3.074-.6l.01-.074.005-.037c.005-.041,0,.022,0-.018s.013-.1.021-.149q.02-.149.042-.3.086-.588.188-1.173.206-1.176.477-2.339t.606-2.309q.334-1.14.729-2.26t.856-2.228c.145-.349.3-.715.465-1.073s.333-.728.507-1.088q.519-1.075,1.1-2.121t1.205-2.046q.634-1.012,1.324-1.986.343-.485.7-.96c.242-.323.471-.619.724-.935q.179-.225.361-.447a.12.12,0,0,0,0-.165.118.118,0,0,0-.166,0" transform="translate(-608.293 -305.949)" fill="#0a4849"/>
            <path id="Trazado_1008389" data-name="Trazado 1008389" d="M773.3,387.209a29.523,29.523,0,0,0-8.436-12.024,32.541,32.541,0,0,0,6.2,27.081l3.709-.068a31.011,31.011,0,0,0-1.475-14.989" transform="translate(-583.939 -286.722)" fill="#036a72"/>
            <path id="Trazado_1008390" data-name="Trazado 1008390" d="M769.228,380.989q.378.59.74,1.189t.711,1.214q.346.609.675,1.227t.642,1.245q.312.626.608,1.261t.577,1.283c.185.427.358.84.534,1.276s.343.868.506,1.306.32.877.471,1.319.3.889.439,1.337.273.893.4,1.342.25.9.366,1.352.226.906.33,1.361.2.916.3,1.375.178.917.258,1.377.154.921.222,1.383c.017.115.034.231.05.347l.024.173.011.083s0,.023,0,.008l0,.019.006.045q.046.347.088.695.083.7.148,1.4t.11,1.4q.046.7.072,1.4.013.34.021.68a.117.117,0,1,0,.234,0q-.018-.7-.054-1.406t-.091-1.4q-.055-.7-.13-1.4t-.167-1.4q-.094-.7-.206-1.4t-.241-1.386q-.13-.691-.278-1.379t-.313-1.365q-.166-.684-.35-1.363t-.386-1.353q-.2-.671-.42-1.336t-.457-1.331q-.236-.659-.49-1.312t-.526-1.3q-.275-.657-.567-1.306t-.591-1.269q-.306-.634-.628-1.259t-.662-1.242q-.337-.614-.691-1.218t-.728-1.2q-.18-.289-.364-.576a.117.117,0,1,0-.2.118" transform="translate(-587.844 -291.023)" fill="#0a4849"/>
            <path id="Trazado_1008391" data-name="Trazado 1008391" d="M745.284,404.8a19.084,19.084,0,0,0,7.939,19.96l2.731-.513a31.062,31.062,0,0,0-10.67-19.448" transform="translate(-569.204 -309.357)" fill="#a8dce0"/>
            <path id="Trazado_1008392" data-name="Trazado 1008392" d="M748.623,409.04q.578.887,1.131,1.789t1.078,1.813q.527.914,1.029,1.841t.982,1.875q.477.941.928,1.894t.877,1.919c.286.647.554,1.28.821,1.932s.522,1.3.77,1.957.49,1.323.721,1.99.454,1.336.667,2.008q.077.243.152.486a.117.117,0,0,0,.226-.062q-.313-1.011-.654-2.013t-.708-1.994q-.367-.992-.762-1.974t-.821-1.969q-.419-.968-.864-1.924t-.916-1.9q-.472-.947-.97-1.881t-1.02-1.854q-.523-.92-1.07-1.826t-1.119-1.8q-.138-.214-.276-.427a.117.117,0,0,0-.2.118" transform="translate(-572.097 -312.46)" fill="#0a4849"/>
            <path id="Trazado_1008393" data-name="Trazado 1008393" d="M781.028,505.569h-9.417l-.967-20.886H782Z" transform="translate(-588.938 -370.402)" fill="#cc5050"/>
            <path id="Trazado_1008394" data-name="Trazado 1008394" d="M344.509,417.2a20.476,20.476,0,0,0-1.943-5.048,9.631,9.631,0,0,1-2.424,4.752c-1.166,1.375-2.51,2.6-3.614,4.021a15.718,15.718,0,0,0-2.874,12.854l1.815.139a74.053,74.053,0,0,0,5.78-6.277,15.65,15.65,0,0,0,3.1-5.116,10.8,10.8,0,0,0,.162-5.325" transform="translate(-254.71 -314.97)" fill="#cc5050"/>
            <path id="Trazado_1008395" data-name="Trazado 1008395" d="M345.021,420a4.824,4.824,0,0,1-.084.511c-.038.174-.085.347-.14.517s-.117.338-.187.5l-.008.018-.015.034-.025.057q-.028.063-.057.125-.058.122-.12.242a10.04,10.04,0,0,1-1.221,1.8c-.5.606-1.052,1.173-1.589,1.749-.514.55-1.013,1.112-1.471,1.71A17.588,17.588,0,0,0,338.936,429a18.189,18.189,0,0,0-.959,1.858,18.645,18.645,0,0,0-.749,1.973,18.314,18.314,0,0,0-.8,4.118,17.567,17.567,0,0,0-.035,2.09q.011.255.03.51a.117.117,0,1,0,.234,0,17.425,17.425,0,0,1-.025-2.1q.025-.522.08-1.043.014-.13.03-.26c0-.04.01-.08.015-.12,0-.022.006-.044.009-.066s0-.02,0-.03l0-.023q.036-.259.079-.517a18.343,18.343,0,0,1,1.154-4.02c.032-.076.057-.135.093-.219s.071-.163.108-.245q.107-.239.221-.474.229-.47.483-.927a17.8,17.8,0,0,1,1.125-1.762q.153-.212.313-.419l.008-.01.019-.024.038-.048.083-.1q.083-.1.168-.208c.241-.293.492-.578.749-.858.531-.579,1.081-1.14,1.6-1.731a12.129,12.129,0,0,0,1.345-1.8,6.659,6.659,0,0,0,.811-2c.037-.178.065-.357.084-.537a.117.117,0,0,0-.117-.117.12.12,0,0,0-.117.117" transform="translate(-257.067 -320.884)" fill="#6d2424"/>
            <path id="Trazado_1008396" data-name="Trazado 1008396" d="M308.231,403.1c-1.343-2.536-3.1-4.886-3.957-7.625a23.94,23.94,0,0,0,4.253,25.7l2.358-.206a27.363,27.363,0,0,0-2.654-17.867" transform="translate(-231.007 -302.226)" fill="#ef8181"/>
            <path id="Trazado_1008397" data-name="Trazado 1008397" d="M311.04,405.355a9.623,9.623,0,0,0,.311,2.185,15.528,15.528,0,0,0,.713,2.087c.288.7.609,1.379.933,2.059s.65,1.353.953,2.04.6,1.406.865,2.128.518,1.453.745,2.191.434,1.485.618,2.237.346,1.5.486,2.262.258,1.52.351,2.269q.143,1.148.219,2.3.018.278.033.557a.117.117,0,0,0,.234,0q-.059-1.155-.186-2.306t-.323-2.309q-.194-1.144-.454-2.276t-.584-2.239q-.324-1.111-.712-2.2t-.846-2.172c-.3-.7-.616-1.388-.944-2.074s-.647-1.345-.948-2.028a18.427,18.427,0,0,1-.778-2.056c-.106-.349-.2-.7-.271-1.061a8.906,8.906,0,0,1-.154-1.065q-.022-.265-.027-.531a.117.117,0,0,0-.234,0" transform="translate(-237.702 -309.689)" fill="#6d2424"/>
            <path id="Trazado_1008398" data-name="Trazado 1008398" d="M284.153,426.189a16.543,16.543,0,0,0-4.864-4.2,12.305,12.305,0,0,1-4.542-4.5,11.17,11.17,0,0,0,.746,10.757c.963,1.485,2.271,2.71,3.376,4.093a7.874,7.874,0,0,1,2.021,4.8l4.131.162a29.643,29.643,0,0,0,.631-5.67,10.138,10.138,0,0,0-1.5-5.435" transform="translate(-209.169 -319.049)" fill="#cc5050"/>
            <path id="Trazado_1008399" data-name="Trazado 1008399" d="M278.881,422.779a5.742,5.742,0,0,0,.966,1.756,9.445,9.445,0,0,0,1.407,1.415c.581.482,1.2.918,1.808,1.361a18.8,18.8,0,0,1,1.709,1.361,12.6,12.6,0,0,1,1.359,1.469q.144.182.292.387t.283.407q.279.418.524.857t.452.89c.139.3.256.587.372.907a12.57,12.57,0,0,1,.541,6.567q-.05.268-.112.533a.117.117,0,0,0,.226.062,12.75,12.75,0,0,0-3.371-11.859,14.883,14.883,0,0,0-1.64-1.4c-.6-.452-1.224-.88-1.821-1.34a11.582,11.582,0,0,1-1.518-1.37q-.168-.186-.324-.381L280,424.35l-.008-.01-.018-.024-.076-.1q-.074-.1-.145-.205a5.539,5.539,0,0,1-.481-.864l-.024-.055,0,0-.014-.033c-.015-.037-.03-.074-.044-.111-.029-.075-.055-.15-.08-.226a.117.117,0,0,0-.226.062" transform="translate(-213.121 -322.981)" fill="#6d2424"/>
            <path id="Trazado_1008400" data-name="Trazado 1008400" d="M302.362,495.9H287.115l-2.457,6.607,2.372,6.607h15.417l2.372-6.607Z" transform="translate(-217.54 -378.976)" fill="#0a4849"/>
            <path id="Trazado_1008401" data-name="Trazado 1008401" d="M85.667,365.1a1.844,1.844,0,0,0-.73-1.732,1.22,1.22,0,0,0-1.708.383,17.34,17.34,0,0,0,2.155-6.849,6.671,6.671,0,0,0-.415-3.5,3.045,3.045,0,0,0-2.8-1.848,3.505,3.505,0,0,0-2.243,1.285A9.081,9.081,0,0,0,77.949,357a27.129,27.129,0,0,0-.469,4.623,1.308,1.308,0,0,0-1.521-.654,2.061,2.061,0,0,0-1.275,1.192,5.15,5.15,0,0,0-.355,1.76,10.252,10.252,0,0,0,1.1,5.988l3.986.89a9.792,9.792,0,0,0,5.494-3.891,3.966,3.966,0,0,0,.76-1.8" transform="translate(-56.771 -268.661)" fill="#036a72"/>
            <path id="Trazado_1008402" data-name="Trazado 1008402" d="M91.126,354.324q-.437.742-.838,1.5t-.762,1.536q-.366.785-.7,1.586t-.614,1.6q-.288.808-.538,1.629t-.462,1.659q-.211.831-.382,1.672t-.3,1.688q-.133.857-.225,1.719t-.141,1.709q-.012.21-.022.42a.118.118,0,0,0,.176.1q.647-.315,1.273-.672t1.228-.751q.6-.4,1.184-.831t1.138-.91q.548-.467,1.065-.969l.129-.126a.117.117,0,0,0-.166-.166q-.511.5-1.053.973-.273.237-.554.465c-.184.15-.369.3-.55.433q-.57.434-1.167.832t-1.223.76q-.62.359-1.263.679l-.162.08.176.1q.04-.857.121-1.711.04-.425.091-.849.025-.212.053-.424c.01-.074.016-.118.026-.19s.02-.143.03-.215q.122-.849.284-1.691t.362-1.67q.2-.83.44-1.651t.519-1.634q.278-.808.593-1.6c.211-.532.427-1.039.664-1.563s.483-1.032.742-1.539.531-1.008.815-1.5q.1-.182.211-.364a.117.117,0,1,0-.2-.118" transform="translate(-65.833 -270.737)" fill="#0a4849"/>
            <path id="Trazado_1008403" data-name="Trazado 1008403" d="M97,373.365q-.193.289-.4.567l-.1.133,0,0-.011.014-.026.033-.055.07q-.108.136-.219.269a13.137,13.137,0,0,1-1.98,1.915l-.033.026-.019.015-.071.055-.139.1q-.137.1-.277.2-.285.2-.579.383a12.891,12.891,0,0,1-1.2.665l-.157.075a.117.117,0,0,0-.042.16.12.12,0,0,0,.16.042,12.96,12.96,0,0,0,1.224-.655,13.109,13.109,0,0,0,1.147-.782,13.514,13.514,0,0,0,1.078-.913,13.16,13.16,0,0,0,1.816-2.119l.1-.144a.118.118,0,0,0-.042-.16.12.12,0,0,0-.16.042" transform="translate(-70.048 -285.288)" fill="#0a4849"/>
            <path id="Trazado_1008404" data-name="Trazado 1008404" d="M60.214,377.287a4.358,4.358,0,0,1-.41-2.26,1.976,1.976,0,0,1,1.394-1.684,10.5,10.5,0,0,1-2.07-4.609,2.541,2.541,0,0,1,.492-2.387,1.889,1.889,0,0,1,2.128-.08,4.741,4.741,0,0,1,1.534,1.646A21.746,21.746,0,0,1,66.7,378.4a4.864,4.864,0,0,1-.343,2.481,2.387,2.387,0,0,1-1.727,1.248,1.849,1.849,0,0,1-1.509-.708,11.621,11.621,0,0,1-2.9-4.135" transform="translate(-45.125 -279.688)" fill="#068fa0"/>
            <path id="Trazado_1008405" data-name="Trazado 1008405" d="M66.9,369.368q.218.229.422.471.1.12.2.242l.049.063.023.029.011.014,0,.005.1.127a11.468,11.468,0,0,1,.7,1.052,12.615,12.615,0,0,1,.584,1.122q.065.143.127.287c.038.088.075.178.116.279q.118.295.223.594.21.6.368,1.215c.114.442.207.888.284,1.338.082.481.142.949.187,1.436s.072.976.086,1.464.012.98,0,1.469-.037.979-.071,1.468q-.012.178-.026.356l.23-.031a13.663,13.663,0,0,0-.993-2.155,13.805,13.805,0,0,0-1.35-1.95q-.422-.509-.892-.975a.117.117,0,0,0-.166.166q.416.413.8.861c.255.3.479.59.707.913a13.615,13.615,0,0,1,1.177,2.011,12.907,12.907,0,0,1,.5,1.192.117.117,0,0,0,.23-.031c.038-.491.067-.983.085-1.474s.025-.985.019-1.477-.027-.983-.065-1.473-.093-.994-.168-1.487c-.071-.469-.159-.934-.269-1.4q-.147-.621-.346-1.228t-.458-1.209q-.252-.584-.56-1.142a11.7,11.7,0,0,0-.673-1.075,10.992,10.992,0,0,0-.8-1.007q-.1-.117-.213-.23a.118.118,0,0,0-.166,0,.12.12,0,0,0,0,.166" transform="translate(-51.098 -282.125)" fill="#0a4849"/>
            <path id="Trazado_1008406" data-name="Trazado 1008406" d="M67.9,410.235a4.829,4.829,0,0,0,1.31.559q.191.05.386.083a.127.127,0,0,0,.09-.012.117.117,0,0,0-.028-.214,4.675,4.675,0,0,1-.678-.17q-.164-.054-.324-.12l-.017-.007c-.025-.01.025.011,0,0l-.041-.018-.081-.037q-.078-.036-.154-.074-.176-.089-.344-.193a.117.117,0,0,0-.118.2" transform="translate(-51.848 -313.341)" fill="#0a4849"/>
            <path id="Trazado_1008407" data-name="Trazado 1008407" d="M66.97,382.372a5.841,5.841,0,0,0,2.821,2.113.118.118,0,0,0,.144-.082.12.12,0,0,0-.082-.144q-.161-.057-.319-.122l-.017-.008-.035-.016-.08-.036q-.078-.035-.154-.073a5.714,5.714,0,0,1-.583-.332q-.141-.092-.276-.191l-.066-.049-.031-.024,0,0-.022-.017c-.045-.035-.089-.071-.133-.107a5.7,5.7,0,0,1-.49-.459q-.129-.136-.249-.28l-.062-.077-.027-.034-.014-.017-.011-.014,0-.005-.017-.022-.03-.04-.058-.08a.12.12,0,0,0-.16-.042.118.118,0,0,0-.042.16" transform="translate(-51.166 -292.08)" fill="#0a4849"/>
            <path id="Trazado_1008408" data-name="Trazado 1008408" d="M76.413,439.334H68.257l-1.05-10.75H77.463Z" transform="translate(-51.361 -327.531)" fill="#ffab24"/>
          </g>
        </g>
      </g>
    </g>
  </g>
</svg>
