<svg id="_347776103_68e9ebbc-af68-4039-a5f0-59a498259087" data-name="347776103_68e9ebbc-af68-4039-a5f0-59a498259087" xmlns="http://www.w3.org/2000/svg" width="292" height="198.063" viewBox="0 0 292 198.063">
  <path id="Trazado_1003182" data-name="Trazado 1003182" d="M0,0H291.675a1.238,1.238,0,0,1,.253.728l.017,38.255-.011,8.42a15.421,15.421,0,0,1-.046,3.207l-.125.313a11.559,11.559,0,0,1,.165,3.519l.006,7.823.011,25.7,0,85.544-.011,18.6,0,4.029a6.877,6.877,0,0,1-.027,1.536.406.406,0,0,1-.032.079,1.715,1.715,0,0,1-.194.313H0V0Z" transform="translate(0 0)" fill="#2b73b0"/>
  <path id="Trazado_1003183" data-name="Trazado 1003183" d="M571.277,52.662a8.313,8.313,0,0,1,.273,2.61,6.217,6.217,0,0,1,2.405.19,9.845,9.845,0,0,1-2.411.254l-.194,2.851a8.65,8.65,0,0,1-.22-2.826,7.854,7.854,0,0,1-2.586-.322,7.819,7.819,0,0,1,2.584-.162A11.637,11.637,0,0,1,571.277,52.662Z" transform="translate(-387.55 -34.746)" fill="#fefefe"/>
  <path id="Trazado_1003184" data-name="Trazado 1003184" d="M430.976,212.134l.325,3.166a9.782,9.782,0,0,1,3.006.329l-3.026.2-.194,2.474c-.369-.457-.31-1.859-.365-2.486l-2.734-.238a9.408,9.408,0,0,1,2.736-.279Z" transform="translate(-291.739 -142.739)" fill="#fefefe"/>
  <path id="Trazado_1003185" data-name="Trazado 1003185" d="M816.063,404.382a.914.914,0,0,1,.606.074l.021,1.833,1.644.027.194.277-.194.2-1.634-.008-.025,1.943-.355.266a5.843,5.843,0,0,1-.139-2.207l-1.838-.043-.16-.225.16-.237,1.826-.013A6.5,6.5,0,0,0,816.063,404.382Z" transform="translate(-554.991 -272.936)" fill="#fefefe"/>
  <path id="Trazado_1003186" data-name="Trazado 1003186" d="M785.45,281.964a3.027,3.027,0,0,1,.635-.12,1.251,1.251,0,0,1,1.106.5c.4.467.188,2.39.179,3.04.907.453,2.4-.348,3.24.394a1.241,1.241,0,0,1,.325.873,1.351,1.351,0,0,1-.584,1.158,11.692,11.692,0,0,1-2.984.086l0,2.551a1.44,1.44,0,0,1-.971.753l-.047.028a1.168,1.168,0,0,1-.909-.082c-.838-.93-.606-2.086-.6-3.276-.813.014-2.263.224-2.959-.184a1.412,1.412,0,0,1-.47-.922,1.364,1.364,0,0,1,.369-1.073c.6-.613,2.317-.351,3.144-.334a12.634,12.634,0,0,1,.051-2.746A4.628,4.628,0,0,1,785.45,281.964Z" transform="translate(-532.647 -189.919)" fill="#fefefe"/>
  <path id="Trazado_1003187" data-name="Trazado 1003187" d="M375.916,159.039a3.361,3.361,0,0,1,2.54.831,5.529,5.529,0,0,1,1.791,3.778,7.372,7.372,0,0,1-1.921,5.378,5.446,5.446,0,0,1-3.862,1.743l-.475-.022-1.217,3.6-1.9-.465a32.331,32.331,0,0,1,3.372-11.28l.03-.124.754-1.751.617-1.542Z" transform="translate(-252.805 -106.717)" fill="#f6b38d"/>
  <path id="Trazado_1003188" data-name="Trazado 1003188" d="M382.167,164.346a3.371,3.371,0,0,1,2.646.828,4.027,4.027,0,0,1,.873,3.069,4.62,4.62,0,0,1-1.721,3.079,2.464,2.464,0,0,1-1.791.724,2.108,2.108,0,0,1-.829-1.374l0-.243c.028-.781.607-1.775.554-2.471a4.917,4.917,0,0,0-.236-.8l-.282-.936.03-.124Z" transform="translate(-259.945 -110.367)" fill="#dc8a68"/>
  <path id="Trazado_1003189" data-name="Trazado 1003189" d="M381.413,169.477c.473-.1.889-.288,1.331-.076a2.849,2.849,0,0,1,.635,2.242,2.786,2.786,0,0,1-1.063,1.84,4.943,4.943,0,0,1-.972.568l0-.243c.028-.781.607-1.775.554-2.471a4.919,4.919,0,0,0-.236-.8l-.282-.936Z" transform="translate(-259.945 -113.745)" fill="#ca6f5c"/>
  <path id="Trazado_1003190" data-name="Trazado 1003190" d="M381.666,171.072l.172-.67.409-.313c.219.121.265.114.342.355a3.45,3.45,0,0,1-.241,2.464,6.339,6.339,0,0,1-1,1.435c.028-.781.607-1.775.554-2.471A4.817,4.817,0,0,0,381.666,171.072Z" transform="translate(-259.947 -114.28)" fill="#dc8a68"/>
  <path id="Trazado_1003191" data-name="Trazado 1003191" d="M430.476,79.131l.914-.1a2.548,2.548,0,0,1,1.921.784c1.3,1.3.812,4.94.811,6.719l3.456-.043a4.319,4.319,0,0,1,2.732.421,3.044,3.044,0,0,1,1.238,2.153,2.717,2.717,0,0,1-.71,2.07c-.929,1-2.314.8-3.54.8l-3.245.008.031,3.231a5.177,5.177,0,0,1-.123,1.734,3.242,3.242,0,0,1-1.936,1.815l-.237.011a3.064,3.064,0,0,1-2.305-.835c-1.159-1.158-.705-4.4-.7-5.975l-3.56.007c-1.224,0-2.515.207-3.49-.692a2.616,2.616,0,0,1-.807-1.927,2.8,2.8,0,0,1,.778-2.1,2.437,2.437,0,0,1,1-.625A7.222,7.222,0,0,1,424.6,86.5l4.171,0-.01-3.516a8.166,8.166,0,0,1,.146-2.21A2.981,2.981,0,0,1,430.476,79.131Z" transform="translate(-286.924 -52.529)" fill="#fefefe"/>
  <path id="Trazado_1003192" data-name="Trazado 1003192" d="M475.712,178.545a19.478,19.478,0,0,1,.526,1.939l1.143,4.032a7.55,7.55,0,0,0,.708,2.084,7.231,7.231,0,0,0,1.009,5.973l.49.781a6.008,6.008,0,0,0,2.788,1.478c2.264,6.377,5.988,11.783,12.01,15.1l-.452,4.2-.807,7.824-3.147,1.253-5.791,2.238-.833.343-8.511,3.625-5.907,3.4a15.13,15.13,0,0,1-2.693,1.7c-1.446-5.56-5.131-9.74-9.482-13.312a20.312,20.312,0,0,1,3.825-3.817,16.708,16.708,0,0,0,3.7-3.215c1.705-2.494-.126-6.085-.95-8.6a12.448,12.448,0,0,1-.8-5.9c.663-3.379,4.465-5.253,7.061-7.031a11,11,0,0,0,3.11-2.952,13.893,13.893,0,0,0,1.613-4.365Z" transform="translate(-311.353 -119.575)" fill="#2d2962"/>
  <path id="Trazado_1003193" data-name="Trazado 1003193" d="M515.185,225.06a6.008,6.008,0,0,0,2.788,1.478c2.264,6.377,5.988,11.783,12.01,15.1l-.452,4.2-.807,7.824-3.147,1.253-5.791,2.238-.833.343-8.511,3.625a3.969,3.969,0,0,1-.638-1.413,12.949,12.949,0,0,1-.817-3.836c-.117-5.5,3.964-7.4,7.291-10.874a8.272,8.272,0,0,0,2.171-3.626c.527-2.243-.159-4.486-.838-6.611a63.6,63.6,0,0,1-2.044-7.134,13.745,13.745,0,0,1-.384-2.46Z" transform="translate(-346.951 -151.237)" fill="#08104a"/>
  <path id="Trazado_1003194" data-name="Trazado 1003194" d="M254.43,63.9a4.612,4.612,0,0,1,.584-2.753,8.169,8.169,0,0,1,5.119-3.468c6.936-1.79,15.013,1.059,20.952,4.593,1.438,1.052,2.9,1.99,4.252,3.157a19.75,19.75,0,0,1,6.989,11.7,16.7,16.7,0,0,1-.161,5.629,1.142,1.142,0,0,1-.4.218l-1.319,6.6-.271.141-.617,1.542-.754,1.751-.03.124a32.333,32.333,0,0,0-3.372,11.28l1.9.465-1.515,3.153a23.418,23.418,0,0,1-3.463,4.672l-.1,4.128c-4.508,3.623-9.794,6.3-15.754,5.649a19.67,19.67,0,0,1-10.62-4.814l.138-4.15a28.722,28.722,0,0,1-3.772-4.11l.1-.49a16.772,16.772,0,0,0,.053-5.318,24.706,24.706,0,0,0-2.742-7.355,14.391,14.391,0,0,0-1.656-2.931l-.08-.1a8.317,8.317,0,0,1-.423-2.985l-.3-.393a4.036,4.036,0,0,0-1.275-.4,18.391,18.391,0,0,1-.321-3.791,83.821,83.821,0,0,1,.032-8.649,26.6,26.6,0,0,1,1.432-8.028l.478-1C248.949,65.457,251.833,64.635,254.43,63.9Z" transform="translate(-167.33 -37.415)" fill="#08104a"/>
  <path id="Trazado_1003195" data-name="Trazado 1003195" d="M250.788,159.816a3.554,3.554,0,0,1,1.234.044,14.219,14.219,0,0,0,2.323,5.981l-.121.644-3.141-6.276Z" transform="translate(-170.95 -107.285)" fill="#f6b38d"/>
  <path id="Trazado_1003196" data-name="Trazado 1003196" d="M361.753,137.467c1.685-.109,3.5.276,5.224.28l.555,3.586c-.591-.265-1.192-.487-1.8-.7a4.123,4.123,0,0,1-.79-.276,6.35,6.35,0,0,1-.814-1.007,5.941,5.941,0,0,0-2.209-1.8Z" transform="translate(-246.59 -92.175)" fill="#f6b38d"/>
  <path id="Trazado_1003197" data-name="Trazado 1003197" d="M308.166,164a9.452,9.452,0,0,0,1.287-5.488,11.021,11.021,0,0,1,4.522.093,8.243,8.243,0,0,0,1.426,5.614A13.459,13.459,0,0,0,308.166,164Z" transform="translate(-210.062 -106.297)" fill="#f6b38d"/>
  <path id="Trazado_1003198" data-name="Trazado 1003198" d="M335.239,146.505a17.811,17.811,0,0,1,6.716.434,5.535,5.535,0,0,1,1.947.76,1.623,1.623,0,0,1,.7,1.265c.3,2.189-.161,5.765-1.6,7.507a5.824,5.824,0,0,1-4.011,1.831,10.79,10.79,0,0,1-7.245-1.61l-.077-.053a8.018,8.018,0,0,1-2.1-4.072c-.311-1.985.4-3.058,1.5-4.6a7.3,7.3,0,0,0,1.427-.77,2.1,2.1,0,0,1,.825-.08l.019.5a9.053,9.053,0,0,1,2.913-.4C335.914,146.944,335.446,146.893,335.239,146.505Z" transform="translate(-224.605 -98.153)" fill="#f6b38d"/>
  <path id="Trazado_1003199" data-name="Trazado 1003199" d="M343.915,149.092a18.017,18.017,0,0,1,2.329,1.177,14,14,0,0,0-3.039-.541,14.558,14.558,0,0,1-2.468-.005l.266-.235A9.033,9.033,0,0,1,343.915,149.092Z" transform="translate(-232.264 -100.078)" fill="#08104a"/>
  <path id="Trazado_1003200" data-name="Trazado 1003200" d="M339.08,159.452a2.951,2.951,0,0,1-.918-.043,1.993,1.993,0,0,1-1.245-1.022,2.916,2.916,0,0,1-.024-2.116,2.276,2.276,0,0,1,1.115-1.223,3.75,3.75,0,0,1,1.82-.528,4.123,4.123,0,0,0-1.783,2.179,2.341,2.341,0,0,0,.275,1.85A4.549,4.549,0,0,0,339.08,159.452Z" transform="translate(-229.517 -103.73)" fill="#fefefe"/>
  <path id="Trazado_1003201" data-name="Trazado 1003201" d="M346.97,154.335a7.624,7.624,0,0,1,2.2-.362c.747.441,1.693.953,1.91,1.879a2.843,2.843,0,0,1-.344,2.022,2.476,2.476,0,0,1-1.338,1.107,2.707,2.707,0,0,1-.834-.007l.513-.764a2.465,2.465,0,0,0,.133-1.93C348.83,155.137,347.935,154.84,346.97,154.335Z" transform="translate(-236.513 -103.36)" fill="#fefefe"/>
  <path id="Trazado_1003202" data-name="Trazado 1003202" d="M342.525,154.523l.145.187c.965.506,1.86.8,2.243,1.944a2.467,2.467,0,0,1-.133,1.93l-.513.764a5.564,5.564,0,0,1-2.491.108,4.558,4.558,0,0,1-.76-.9,2.341,2.341,0,0,1-.275-1.85A4.123,4.123,0,0,1,342.525,154.523Z" transform="translate(-232.214 -103.732)" fill="#2d2962"/>
  <path id="Trazado_1003203" data-name="Trazado 1003203" d="M349.448,159.541l.489.126a1.15,1.15,0,0,1,.31.74l-.514.515a1.734,1.734,0,0,1-.367-.134.779.779,0,0,1-.467-.667Z" transform="translate(-237.829 -107.154)" fill="#fefefe"/>
  <path id="Trazado_1003204" data-name="Trazado 1003204" d="M273.571,148.349a5.735,5.735,0,0,1,1.181,3.8,7.242,7.242,0,0,1-2.706,4.95c-1.918,1.518-4.832,1.7-7.189,1.409a6.162,6.162,0,0,1-4.346-2.654,8.526,8.526,0,0,1-1.618-6.015,2.494,2.494,0,0,1,1.037-1.863,6.854,6.854,0,0,1,2.473-.964,19.925,19.925,0,0,1,8.2-.195,2.189,2.189,0,0,0,.859.35A6.332,6.332,0,0,1,273.571,148.349Z" transform="translate(-176.433 -98.246)" fill="#f6b38d"/>
  <path id="Trazado_1003205" data-name="Trazado 1003205" d="M278.408,158.6l-.089.031a2.573,2.573,0,0,1-1.7-.118,1.968,1.968,0,0,1-.845-1.174,3.758,3.758,0,0,1,.408-2.712c.229-.344.763-1,1.183-1.09.387-.083.577.357.939.122.684-.444,2.48.092,3.306.138.741.042,1.5.008,2.24,0a3.835,3.835,0,0,1,1.93,2.369,2.068,2.068,0,0,1-.6,1.51,4.337,4.337,0,0,1-1.578,1.159,12.332,12.332,0,0,1-2.972-.218A3.2,3.2,0,0,1,278.408,158.6Z" transform="translate(-187.919 -103.029)" fill="#fefefe"/>
  <path id="Trazado_1003206" data-name="Trazado 1003206" d="M281.842,159.77a2.706,2.706,0,0,1-1.116-1.966,2.613,2.613,0,0,1,.651-2,1.914,1.914,0,0,1,1.533-.608,1.814,1.814,0,0,1,1.333.539,3.361,3.361,0,0,1,.892,2.258,2.367,2.367,0,0,1-1.074,1.788A3.2,3.2,0,0,1,281.842,159.77Z" transform="translate(-191.353 -104.192)" fill="#2d2962"/>
  <path id="Trazado_1003207" data-name="Trazado 1003207" d="M288.71,158.6a1.277,1.277,0,0,1,.7.274,1.369,1.369,0,0,1-.143,1.179,1.342,1.342,0,0,1-.661-.289A1.671,1.671,0,0,1,288.71,158.6Z" transform="translate(-196.682 -106.519)" fill="#fefefe"/>
  <path id="Trazado_1003208" data-name="Trazado 1003208" d="M266.918,115.756a9.578,9.578,0,0,0,1.176-.249,1.943,1.943,0,0,0,.4-1.141,2.152,2.152,0,0,0-.457-1.708,17.3,17.3,0,0,0-7.336-.184c-3.094.7-4.958,3.271-6.568,5.834a1.06,1.06,0,0,1-.67-.089,15.212,15.212,0,0,1,.11-2.812,29.219,29.219,0,0,1,2.256-10.174c1.138-2.419,3.252-3.459,5.638-4.317a13.776,13.776,0,0,0,2.792,3.449,30.836,30.836,0,0,0,12.249,7.018,22.577,22.577,0,0,0,2.85.663,4.039,4.039,0,0,1,1.337.246,1.67,1.67,0,0,0-1.021.743,3.2,3.2,0,0,0,.22,1.71c.425.4.981.524,1.373.882a9.024,9.024,0,0,0,2.114-.092c.207.388.675.439,1.016.717a9.053,9.053,0,0,0-2.913.4l-.019-.5a2.093,2.093,0,0,0-.825.08,7.3,7.3,0,0,1-1.427.77l-.337-.172a13.4,13.4,0,0,0-1.446,1.722,8.719,8.719,0,0,0-4.153-.549c-.256.036-1.816.485-1.883.456-.628-.273-.556-1.194-1.509-1.169a6.345,6.345,0,0,0-2.108-1.18A2.194,2.194,0,0,1,266.918,115.756Z" transform="translate(-172.747 -67.359)" fill="#f6b38d"/>
  <path id="Trazado_1003209" data-name="Trazado 1003209" d="M273.588,63.9a4.612,4.612,0,0,1,.583-2.753,8.169,8.169,0,0,1,5.119-3.468c6.936-1.79,15.013,1.059,20.952,4.593,1.438,1.052,2.9,1.99,4.252,3.157a19.75,19.75,0,0,1,6.989,11.7,16.7,16.7,0,0,1-.161,5.629,1.142,1.142,0,0,1-.4.218L306.876,83c-1.724,0-3.539-.388-5.224-.28a2.171,2.171,0,0,1-.538-.1c-1.266-.428-2.87-.159-4.205-.232a8.141,8.141,0,0,1-2.473.054A4.039,4.039,0,0,0,293.1,82.2a22.578,22.578,0,0,1-2.85-.663A30.836,30.836,0,0,1,278,74.521a13.772,13.772,0,0,1-2.792-3.449l1.981-.507a30.1,30.1,0,0,1-2.531-3.851A24.2,24.2,0,0,1,273.588,63.9Z" transform="translate(-186.488 -37.674)" fill="#2d2962"/>
  <path id="Trazado_1003210" data-name="Trazado 1003210" d="M280.666,99.323a12.719,12.719,0,0,0,2.927,2.877,44.779,44.779,0,0,0,16.9,8.209l2.465.533a21.9,21.9,0,0,0-2.569.21,8.141,8.141,0,0,1-2.473.054,4.039,4.039,0,0,0-1.337-.246,22.577,22.577,0,0,1-2.85-.663,30.836,30.836,0,0,1-12.249-7.018,13.772,13.772,0,0,1-2.792-3.449Z" transform="translate(-189.966 -66.312)" fill="#dc8a68"/>
  <path id="Trazado_1003211" data-name="Trazado 1003211" d="M295.34,63.122l1.343-.069a23.721,23.721,0,0,1,4.548.258c5.429.995,11.258,4.6,15.151,8.429,2.238,2.2,5.294,6.155,5.323,9.466l-.932-1.685-.678-1.067a28.58,28.58,0,0,0-7.908-7.224,47.871,47.871,0,0,0-11.679-5.894,59.294,59.294,0,0,0-7.66-1.779Z" transform="translate(-199.621 -41.718)" fill="#1a3c8d"/>
  <path id="Trazado_1003212" data-name="Trazado 1003212" d="M290.139,165.8c1.987-2.213,2.268-4.805,2.68-7.643l1.6.428-.617,1.542-.754,1.751-.03.124a32.332,32.332,0,0,0-3.372,11.28l1.9.465-1.515,3.153a23.418,23.418,0,0,1-3.463,4.672l-.1,4.128c-4.508,3.623-9.794,6.3-15.754,5.649a19.67,19.67,0,0,1-10.62-4.814l.138-4.15a28.722,28.722,0,0,1-3.772-4.11l.1-.49a16.772,16.772,0,0,0,.053-5.318,24.706,24.706,0,0,0-2.742-7.355,14.392,14.392,0,0,0-1.656-2.931l-.08-.1a8.317,8.317,0,0,1-.423-2.985l3.141,6.276.121-.644a7.915,7.915,0,0,0,4.877,2.6c.639.1,1.293.069,1.928.173l.38-.016a10.36,10.36,0,0,0,7.523-3.6,13.46,13.46,0,0,1,7.236.22,3.387,3.387,0,0,0,.858.75c1.486,1.462,3.832,2.036,5.817,2.389C286.093,167.3,288,167.314,290.139,165.8Z" transform="translate(-171.581 -105.992)" fill="#fefefe"/>
  <path id="Trazado_1003213" data-name="Trazado 1003213" d="M351.863,183.611c2.5.054,4.4.067,6.543-1.448a3.754,3.754,0,0,1-.462,1.37c-1.327.828-4.293.494-5.79.15Z" transform="translate(-239.849 -122.472)" fill="#dc8a68"/>
  <path id="Trazado_1003214" data-name="Trazado 1003214" d="M370.741,205.67l1.9.465-1.515,3.153C370.5,208.15,370.708,206.929,370.741,205.67Z" transform="translate(-252.676 -138.38)" fill="#dc8a68"/>
  <path id="Trazado_1003215" data-name="Trazado 1003215" d="M261.7,178.811a7.915,7.915,0,0,0,4.877,2.6c.639.1,1.293.069,1.928.173a16.235,16.235,0,0,1-5.595.363l-1.332-2.489Z" transform="translate(-178.308 -120.193)" fill="#dc8a68"/>
  <path id="Trazado_1003216" data-name="Trazado 1003216" d="M304.525,231.714l-.1,4.128c-4.508,3.623-9.794,6.3-15.754,5.649a19.67,19.67,0,0,1-10.62-4.814l.138-4.15c3.654,2.783,7.142,4.813,11.845,4.961a21.565,21.565,0,0,0,5.052-.336A20,20,0,0,0,304.525,231.714Z" transform="translate(-189.536 -155.97)" fill="#dc8a68"/>
  <path id="Trazado_1003217" data-name="Trazado 1003217" d="M282.406,178.121c2.724-.324,4.532.791,6.864,1.989a12.954,12.954,0,0,0,2.212,1.025,28.125,28.125,0,0,0,8.672.531,19.081,19.081,0,0,0-.888,5.8,15.372,15.372,0,0,1,.1,3.013,9.853,9.853,0,0,1-1.963,2.951,18.1,18.1,0,0,1-12.717,6.543,16.7,16.7,0,0,1-8.009-1.478,26.1,26.1,0,0,1-7.562-5.887,5.818,5.818,0,0,1-.881-.977c-.058-.145.184-2.877.174-3.326a19.437,19.437,0,0,0-1.173-6.059,9.572,9.572,0,0,1,2.266-.159,34.489,34.489,0,0,0,5.78-.6C277.912,180.841,279.889,179.052,282.406,178.121Z" transform="translate(-182.16 -119.554)" fill="#8ccced"/>
  <path id="Trazado_1003218" data-name="Trazado 1003218" d="M307.406,216.462l.164-.042-.138.144a32.849,32.849,0,0,1-9.628,1.609,25.381,25.381,0,0,1-6.8-1.22,1.872,1.872,0,0,1-.747-.4c2.991.227,5.928.668,8.943.6C301.965,217.089,304.66,216.6,307.406,216.462Z" transform="translate(-197.853 -145.674)" fill="#5cb1dc"/>
  <path id="Trazado_1003219" data-name="Trazado 1003219" d="M302.18,201.129l3.693-.045c-5.77,2.032-12.007,2.04-17.993,1.221a15.956,15.956,0,0,1-3.99-.939Z" transform="translate(-193.515 -135.288)" fill="#5cb1dc"/>
  <path id="Trazado_1003220" data-name="Trazado 1003220" d="M517.344,114.555c2.125-7.29,6.145-13.285,12.923-16.993a31.606,31.606,0,0,1,23.391-2.46,27.14,27.14,0,0,1,16.714,13.655,37.3,37.3,0,0,1,3.438,9.455,4.849,4.849,0,0,1,.281,1.788,1.131,1.131,0,0,1-.12.277,2.73,2.73,0,0,1,.528,1.666l.587,3.638a14.953,14.953,0,0,0,.886,3.1c1.209,2.739,3.136,4.02,5.358,5.85,2.923,2.408,5.213,5.35,5.337,9.287.076,2.384-1.27,4.716-.977,7.041.278,2.192,2.286,3.621,3.55,5.259a11.556,11.556,0,0,1,2.29,5.286,13.506,13.506,0,0,1-.268,4.854c-.477,2.138-1.325,4.451-.831,6.647a10.017,10.017,0,0,0,2.18,3.838,28.667,28.667,0,0,1,2.345,3.116c1.7,2.878,1.5,5.73-.019,8.64a19.983,19.983,0,0,1-1.707,3l-.392.164a.817.817,0,0,0-.038-.411,23.611,23.611,0,0,0-1.7-3.38c-3.33-5.985-8.834-12.191-15.127-15.133a9.98,9.98,0,0,0-1.906-1.022l-5.926-2.7a18.9,18.9,0,0,0-3.273-1.269c-.224-.266-.413-.224-.749-.275a2.213,2.213,0,0,0-.962-.541,30.607,30.607,0,0,0-3.155-1.234,5.781,5.781,0,0,0-2.676-.968c-.53-.37-.6-.776-.831-1.365a20.985,20.985,0,0,1-1.236-5.342,10.6,10.6,0,0,0-.416-2.96,3.892,3.892,0,0,0,.008-2.444l-3.47,1.462a21.566,21.566,0,0,1-7.353,1.238c-3.327-.187-6.171-1.612-9.071-3.09-6.022-3.314-9.746-8.72-12.01-15.1a6.006,6.006,0,0,1-2.788-1.478l-.49-.781a7.23,7.23,0,0,1-1.009-5.973,7.548,7.548,0,0,1-.708-2.084l-1.143-4.032a19.46,19.46,0,0,0-.526-1.939Z" transform="translate(-351.932 -61.916)" fill="#08104a"/>
  <path id="Trazado_1003221" data-name="Trazado 1003221" d="M544.6,150.3c8.276-2.071,15.931-6.539,20.412-14l1.325-2.444c.654,5.581,2.8,11.531,7.361,15.1a20.471,20.471,0,0,0,3.828,2.3,15.727,15.727,0,0,1,2.957,1.259c.057.792-.817,2.161-1.159,2.91a75.812,75.812,0,0,1-5.378,10.377c-1.226-.69-2.556-1.2-3.843-1.766-1.515-.664-3.031-1.38-4.584-1.948-8.423-3.085-12.621-2.651-20.69.824l-5.139,2.142c-2.959-3.629-4.638-8.439-6.508-12.671a14.518,14.518,0,0,0,3-.378,43.366,43.366,0,0,0,7.19-1.454,3.1,3.1,0,0,0-1.442,1.818l.183.248c.333.451,1.766-.376,2.288-.473a10.042,10.042,0,0,1,4.878.6,1.987,1.987,0,0,0,.354-.366.926.926,0,0,0,.183-.9,3.228,3.228,0,0,0-1.354-.839A15.085,15.085,0,0,0,544.6,150.3Z" transform="translate(-363.444 -89.56)" fill="#dc8a68"/>
  <path id="Trazado_1003222" data-name="Trazado 1003222" d="M628.235,185l.236-.02a7.463,7.463,0,0,1,5.052,1.394,1.389,1.389,0,0,1-.171,1.05c-.45.169-1.306-.294-1.8-.442a8.142,8.142,0,0,0-1.959-.343l-.171-.008a10.7,10.7,0,0,0-4.17.96c-.3-.149-.464-.23-.57-.572a1.173,1.173,0,0,1,.065-.96A10.887,10.887,0,0,1,628.235,185Z" transform="translate(-425.77 -124.365)" fill="#08104a"/>
  <path id="Trazado_1003223" data-name="Trazado 1003223" d="M631.464,200.911l.84-.131c1.25-.07,2.132.933,3.007,1.689l-.011.208-1.14.02a5.109,5.109,0,0,1-.019,1.848,1.7,1.7,0,0,1-.909,1.072.978.978,0,0,1-.663.386,1.922,1.922,0,0,1-1.6-.435c-.979-.771-.9-1.875-1.03-2.982A5.742,5.742,0,0,1,631.464,200.911Z" transform="translate(-429.398 -135.054)" fill="#060a0c"/>
  <path id="Trazado_1003224" data-name="Trazado 1003224" d="M636.219,205.57a1.168,1.168,0,0,1,.889.083,1.236,1.236,0,0,1,.243.971l-.492.308a.8.8,0,0,1-.715-.218A1.278,1.278,0,0,1,636.219,205.57Z" transform="translate(-433.56 -138.296)" fill="#fefefe"/>
  <path id="Trazado_1003225" data-name="Trazado 1003225" d="M564.67,200.135a4.22,4.22,0,0,1,1.5.114,3.073,3.073,0,0,1,1.8,1.677,2.737,2.737,0,0,1-.033,2.1,2.383,2.383,0,0,1-1.264,1.47,2.127,2.127,0,0,1-1.686.006,4.768,4.768,0,0,1-.776-.7,3.615,3.615,0,0,1-.521-2.728l.024-.187c-.57.276-.98.649-1.645.6l-.142-.173A7.938,7.938,0,0,1,564.67,200.135Z" transform="translate(-383.043 -134.605)" fill="#060a0c"/>
  <path id="Trazado_1003226" data-name="Trazado 1003226" d="M574.106,204.8c.537.128.682.121,1.045.566a1.622,1.622,0,0,1-.317,1.106,1.209,1.209,0,0,1-1.106-.5A1.518,1.518,0,0,1,574.106,204.8Z" transform="translate(-391.081 -137.803)" fill="#fefefe"/>
  <path id="Trazado_1003227" data-name="Trazado 1003227" d="M525.532,192.565l.087-.28.612-.215c1.87,4.231,3.549,9.043,6.508,12.671l5.139-2.142c8.069-3.474,12.267-3.909,20.69-.824,1.553.569,3.07,1.284,4.584,1.948,1.287.564,2.617,1.075,3.843,1.766a75.8,75.8,0,0,0,5.378-10.377c.342-.75,1.216-2.119,1.159-2.91l.88.069.156.214-.308.426a3,3,0,0,1,2,1.436,5.668,5.668,0,0,1,0,4.288c-.7,2.1-1.948,4.581-4.026,5.6l-.933.418a2.7,2.7,0,0,1-.557,1.493,27.3,27.3,0,0,1-2.881,4.409c-.293.354-1.1,1.015-1.241,1.4-.2.543.046,1.263-.232,1.836-1.171,2.414-4.567,4.7-6.964,5.749L555.952,221a21.566,21.566,0,0,1-7.353,1.238c-3.327-.187-6.171-1.612-9.071-3.09-6.021-3.314-9.746-8.72-12.01-15.1a6.006,6.006,0,0,1-2.788-1.478l-.49-.781a7.23,7.23,0,0,1-1.009-5.973A10.065,10.065,0,0,1,525.532,192.565Z" transform="translate(-356.495 -128.967)" fill="#fefefe"/>
  <path id="Trazado_1003228" data-name="Trazado 1003228" d="M540.18,230.958a5.6,5.6,0,0,1,1.346,1.471l2.2,3.08a13.708,13.708,0,0,1,.08,2.458A32.982,32.982,0,0,1,540.18,230.958Z" transform="translate(-368.216 -155.481)" fill="#603332"/>
  <path id="Trazado_1003229" data-name="Trazado 1003229" d="M531.42,196.892a25.067,25.067,0,0,1,1.833,4.273,45.358,45.358,0,0,0,2.176,4.4c.524.942,1.068,1.886,1.671,2.779a6.882,6.882,0,0,1,.74,1.035,20.2,20.2,0,0,1-.084,2.908l-2.2-3.08a5.6,5.6,0,0,0-1.346-1.471,11.216,11.216,0,0,1-.818-2.121,48.049,48.049,0,0,1-1.421-5.565,10.34,10.34,0,0,0-.513-2.459Z" transform="translate(-362.244 -132.35)" fill="#dc8a68"/>
  <path id="Trazado_1003230" data-name="Trazado 1003230" d="M523.228,196.878a10.076,10.076,0,0,1,2.3-3.254,5.932,5.932,0,0,1,.138,1.04l.036.7.244,2.438.655,4.2.911,3.111a6.006,6.006,0,0,1-2.788-1.478l-.49-.781A7.23,7.23,0,0,1,523.228,196.878Z" transform="translate(-356.493 -130.166)" fill="#ca6f5c"/>
  <path id="Trazado_1003231" data-name="Trazado 1003231" d="M668.057,194.71a3,3,0,0,1,2,1.436,5.668,5.668,0,0,1,0,4.288c-.7,2.1-1.948,4.581-4.026,5.6l-.933.418-.492-.038a.954.954,0,0,0-.285.113,5.916,5.916,0,0,0-.507.943l-1.133,2.008a31.782,31.782,0,0,1-2.089,2.865l.127-3.548c2.241-2.322,3.746-5.883,5.143-8.765a11.41,11.41,0,0,0,1.328-3.185l.158-.407.114-.11A2.778,2.778,0,0,0,668.057,194.71Z" transform="translate(-450.291 -130.856)" fill="#dc8a68"/>
  <path id="Trazado_1003232" data-name="Trazado 1003232" d="M681.473,200.125a1.825,1.825,0,0,1,1.519.632,2.839,2.839,0,0,1,.637,2.206l-.192.219-.232-.148a2.084,2.084,0,0,0-.416-1.746,1.153,1.153,0,0,0-.654-.421,5.757,5.757,0,0,1-.819-.335Z" transform="translate(-464.421 -134.629)" fill="#ca6f5c"/>
  <path id="Trazado_1003233" data-name="Trazado 1003233" d="M519.6,114.555c2.125-7.29,6.145-13.285,12.923-16.993a31.606,31.606,0,0,1,23.391-2.46,27.14,27.14,0,0,1,16.714,13.655,37.3,37.3,0,0,1,3.438,9.455,4.849,4.849,0,0,1,.281,1.788,1.131,1.131,0,0,1-.12.277,3.461,3.461,0,0,0-1.087-.316,15.532,15.532,0,0,1-1.712-.55,21.3,21.3,0,0,1-6.3-4.141,74.863,74.863,0,0,1-6.4-6.505,17.4,17.4,0,0,1-1.328-1.654c-.4-.575-.717-1.319-1.368-1.631a4.39,4.39,0,0,0-.5-1.766,27.868,27.868,0,0,1-5.386,5.888c-4.4,3.855-10.033,7.9-15.8,9.251a35.413,35.413,0,0,1-6.84.8l11.361-6.964a41.772,41.772,0,0,0,5.044-3.45,15.152,15.152,0,0,0,3.463-4.327,37.029,37.029,0,0,1-3.138,2.464,42.689,42.689,0,0,1-6.158,3.255c-6.007,2.715-12.9,4.614-19.545,4.017Z" transform="translate(-354.185 -62.554)" fill="#2d2962"/>
  <path id="Trazado_1003234" data-name="Trazado 1003234" d="M648.874,115.031a3.464,3.464,0,0,1,1.572-.025,2.027,2.027,0,0,1,1.192,1,2.413,2.413,0,0,1-.027,1.689,2.063,2.063,0,0,1-1.249,1.1,1.4,1.4,0,0,1-.608.145,1.844,1.844,0,0,1-1.256-.489,2.338,2.338,0,0,1-.593-1.764A2.282,2.282,0,0,1,648.874,115.031Z" transform="translate(-441.644 -76.921)" fill="#80598d"/>
  <path id="Trazado_1003235" data-name="Trazado 1003235" d="M475.342,277.127c2.9,1.477,5.744,2.9,9.071,3.09a21.566,21.566,0,0,0,7.353-1.238l3.47-1.462a3.892,3.892,0,0,1-.008,2.444,10.6,10.6,0,0,1,.416,2.96,20.984,20.984,0,0,0,1.236,5.342c.23.589.3.995.831,1.365a5.783,5.783,0,0,1,2.676.968,30.645,30.645,0,0,1,3.155,1.234,2.21,2.21,0,0,1,.962.541c.337.051.525.009.749.275a18.9,18.9,0,0,1,3.273,1.269l5.926,2.7a9.978,9.978,0,0,1,1.906,1.022c6.293,2.942,11.8,9.148,15.127,15.133a23.571,23.571,0,0,1,1.7,3.38.816.816,0,0,1,.038.411,13.95,13.95,0,0,1,1.851,4.013,105.976,105.976,0,0,1,5.705,27.288l-.245.45a2.964,2.964,0,0,1,.374.476,4.927,4.927,0,0,1,.07,1.125l.266,3.364-.125.211-1.234.157c.823,1.365-.23,8.61-.705,10.523-1.021,4.114-3.1,8.119-6.844,10.347a13,13,0,0,1-5.616,1.751c-1.005.082-2.018,0-3.02.071a7.423,7.423,0,0,1,.724,2.476l.631,2.821-.148.5a1.437,1.437,0,0,1,.477,1.031.608.608,0,0,1-.059.255H444.414a15.36,15.36,0,0,0,.511-2.747l.955-5.08a35.721,35.721,0,0,1-6.761-1.61l-.521-.284a13.741,13.741,0,0,1-4.846-3.251,10.661,10.661,0,0,1-2.2-3.058,15.523,15.523,0,0,1-1.01-4.1,63.405,63.405,0,0,1-.372-9.3l-1.093.026a1.2,1.2,0,0,1-.207-.236,5.946,5.946,0,0,1,0-1.34l-.01-4.786c.467-.058,1.038.131,1.419-.144l.619-7.74.373-3.335a5.149,5.149,0,0,0,.043-2.194l.46-2.442c.585-1.964.881-4.059,1.35-6.059a48.9,48.9,0,0,1,5.5-14.278,32.742,32.742,0,0,1,3.988-5.392c.579-.61,1.163-1.232,1.787-1.8.722-.654,2.541-1.664,2.8-2.564a15.131,15.131,0,0,0,2.693-1.7l5.907-3.4,8.511-3.625.833-.343,5.791-2.238,3.147-1.253.807-7.824Z" transform="translate(-292.31 -185.353)" fill="#fefefe"/>
  <path id="Trazado_1003236" data-name="Trazado 1003236" d="M669.541,424.256l.1.038c1.163.394,3.086.117,4.343.093a12.551,12.551,0,0,1,.327-4.262l.057-.158a1.915,1.915,0,0,1,.422-.768l.12.212a14.653,14.653,0,0,0-.437,4.984l5.966.013-.135,12.538-10.514.011a11.443,11.443,0,0,1-3.164-.076l.038-4.339a8.807,8.807,0,0,0-.008-2.259l-.321-.17A21.935,21.935,0,0,0,669.541,424.256Z" transform="translate(-454.21 -282.831)" fill="#8ccced"/>
  <path id="Trazado_1003237" data-name="Trazado 1003237" d="M563.312,325.01c.337.051.525.009.749.275a68.784,68.784,0,0,1,5.549,11.107c.661,1.525,1.433,3.047,2,4.608l-10.278,5.933,8.965,6.573-2.4,4.16a10.505,10.505,0,0,1-1.441,2.385,21.953,21.953,0,0,1-3.206,5.859l-.034.173a5.445,5.445,0,0,1-.629,1.282l-1.389,2.565-7.308,13.626a4.781,4.781,0,0,0-.314,2.5l8.642.374a7.689,7.689,0,0,0,2.148.143l3.258.194,4.938.336a56.252,56.252,0,0,1,9.343,1.054,30.7,30.7,0,0,1,6.836,2.576l-.07.152c-5.47-2.747-11.179-3.313-17.177-3.642l-8.34-.572c-.766-.047-1.543.02-2.311-.009l-7.507-.44L534.26,383.7l-.029-.2-.046-.288c-.156-1.383-1.455-3.013-2.172-4.24l-5.9-9.75-9.23-15.149,10.1-6.635L515.1,340.788l8.022-15.163.833-.343-8.3,15.269,12.021,6.859-10.206,6.737,16.509,27.289c-.043-2.915-.822-5.935-1.041-8.867a.943.943,0,0,1,.3-.047,5.889,5.889,0,0,1,.963.648l2.966,1.914a32.394,32.394,0,0,0,3.181,1.653,33.428,33.428,0,0,0,13.248,3.03c.144.331.027.461-.084.8.361.695.04,2.089-.038,2.87l16.282-29.815-9.115-6.709,10.434-6.06-2.281-5.254a88.192,88.192,0,0,0-3.961-8.224A9.752,9.752,0,0,0,563.312,325.01Z" transform="translate(-351.118 -217.992)" fill="#038988"/>
  <path id="Trazado_1003238" data-name="Trazado 1003238" d="M530.936,318.832a1.042,1.042,0,0,1,.012.668,1.556,1.556,0,0,0-1.213.1c-.567.7-.446,2.516-.482,3.405-.09,2.189.067,4.357.178,6.542l.922,11.635,2.747,19.207.726,5.493a17.408,17.408,0,0,0,.3,2.471c.219,2.932,1,5.952,1.041,8.867l-16.509-27.289,10.206-6.738-12.021-6.859,8.3-15.269Z" transform="translate(-352.31 -213.781)" fill="#fefefe"/>
  <path id="Trazado_1003239" data-name="Trazado 1003239" d="M635.694,376.764a2.139,2.139,0,0,0,.274-.347,11.075,11.075,0,0,0,.188-1.975l.473-5.25,3.533-27.006,1.207-10.068c.222-2.949.384-5.868.337-8.827a15.84,15.84,0,0,0-.165-2.14,5.705,5.705,0,0,1-.165-1.713,30.641,30.641,0,0,1,3.155,1.234,2.21,2.21,0,0,1,.962.541,9.762,9.762,0,0,1,1.524,2.36,88.177,88.177,0,0,1,3.961,8.224l2.281,5.254-10.434,6.06,9.115,6.709-16.282,29.815C635.734,378.853,636.055,377.458,635.694,376.764Z" transform="translate(-433.297 -214.194)" fill="#fefefe"/>
  <path id="Trazado_1003240" data-name="Trazado 1003240" d="M464.382,326.939,456.36,342.1l11.885,6.647-10.1,6.635,9.23,15.149,5.9,9.75c.717,1.227,2.016,2.857,2.172,4.24l.046.288.029.2a34.917,34.917,0,0,1-4.089-.369c-5.19-.553-10.661-1.61-15.83-.483l-2.467.585c-.918.353-1.7.8-2.575,1.227l-1.255-3.087-13.1-.719-7.278-.564c.467-.058,1.037.131,1.419-.144l.619-7.74.373-3.335a5.149,5.149,0,0,0,.043-2.194l.46-2.442c.584-1.964.881-4.059,1.35-6.059a48.9,48.9,0,0,1,5.5-14.278,32.739,32.739,0,0,1,3.988-5.392c.579-.61,1.163-1.232,1.787-1.8.722-.654,2.541-1.664,2.8-2.564a15.127,15.127,0,0,0,2.693-1.7l5.907-3.4Z" transform="translate(-292.38 -219.307)" fill="#fefefe"/>
  <path id="Trazado_1003241" data-name="Trazado 1003241" d="M488.428,438.927a36.741,36.741,0,0,1,1.464-28c.169-.368.638-1.613.937-1.78a19.881,19.881,0,0,1-.636,1.9l-1.077,3.661c-1.474,5.512-2.089,12.918,1.159,17.913a10.214,10.214,0,0,0,1.8,2.032,7.6,7.6,0,0,1,1.044.865,6.675,6.675,0,0,1,.443,1.336l1.163,3.344-2.467.585c-.918.353-1.7.8-2.575,1.227Z" transform="translate(-331.503 -275.347)" fill="#8ccced"/>
  <path id="Trazado_1003242" data-name="Trazado 1003242" d="M449.964,348.991l-.059.142a23.331,23.331,0,0,1-2.515,3.638,39.294,39.294,0,0,0-3.164,5.543c-4.58,9.729-6.3,21.078-7.407,31.7a71.893,71.893,0,0,0-.614,7.186l-7.278-.564c.467-.058,1.038.131,1.419-.144l.619-7.74.373-3.335a5.149,5.149,0,0,0,.043-2.194l.46-2.442c.585-1.964.881-4.059,1.35-6.059a48.9,48.9,0,0,1,5.5-14.278,32.741,32.741,0,0,1,3.988-5.392c.579-.61,1.163-1.232,1.787-1.8.722-.654,2.541-1.664,2.8-2.564A15.083,15.083,0,0,0,449.964,348.991Z" transform="translate(-292.38 -234.339)" fill="#8ccced"/>
  <path id="Trazado_1003243" data-name="Trazado 1003243" d="M561.848,277.127c2.9,1.477,5.744,2.9,9.071,3.09a21.566,21.566,0,0,0,7.353-1.238l3.47-1.462a3.892,3.892,0,0,1-.008,2.444,10.6,10.6,0,0,1,.416,2.96,20.985,20.985,0,0,0,1.236,5.342c.23.589.3.995.831,1.365a5.783,5.783,0,0,1,2.676.968,5.717,5.717,0,0,0,.165,1.713,15.8,15.8,0,0,1,.165,2.14c.047,2.959-.114,5.878-.336,8.827l-1.207,10.068-3.533,27.006-.473,5.25a11.07,11.07,0,0,1-.188,1.975,2.137,2.137,0,0,1-.274.347c.11-.335.228-.465.084-.8a33.428,33.428,0,0,1-13.248-3.03,32.341,32.341,0,0,1-3.181-1.653L561.9,340.53a5.886,5.886,0,0,0-.963-.648.943.943,0,0,0-.3.047,17.319,17.319,0,0,1-.3-2.471l-.726-5.493-2.747-19.207-.922-11.635c-.11-2.185-.268-4.352-.178-6.542.037-.889-.085-2.707.482-3.405a1.557,1.557,0,0,1,1.213-.1,1.04,1.04,0,0,0-.012-.668l3.147-1.253.807-7.824Z" transform="translate(-378.815 -185.353)" fill="#0aaea3"/>
  <path id="Trazado_1003244" data-name="Trazado 1003244" d="M565.511,277.127c2.9,1.477,5.744,2.9,9.071,3.09a21.566,21.566,0,0,0,7.353-1.238l3.47-1.462a3.892,3.892,0,0,1-.008,2.444,10.6,10.6,0,0,1,.416,2.96,20.985,20.985,0,0,0,1.235,5.342c.23.589.3.995.831,1.365a19.932,19.932,0,0,1,1.551,2.554c-7.062,3.257-14.551,5.7-22.237,2.885a15.5,15.5,0,0,1-5.048-2.966,4.982,4.982,0,0,1-1.03-1.03,1.04,1.04,0,0,0-.012-.668l3.147-1.253.807-7.824Z" transform="translate(-382.479 -186.637)" fill="#dc8a68"/>
  <path id="Trazado_1003245" data-name="Trazado 1003245" d="M571.8,290.321a23.345,23.345,0,0,0,11.988,2.348,18.05,18.05,0,0,1-3.548,1.61l-9.247,3.865Z" transform="translate(-389.218 -195.673)" fill="#ca6f5c"/>
  <path id="Trazado_1003246" data-name="Trazado 1003246" d="M573.979,277.127c2.9,1.477,5.744,2.9,9.071,3.09a21.566,21.566,0,0,0,7.353-1.238l3.47-1.462a3.892,3.892,0,0,1-.008,2.444l-.186-.071a19.221,19.221,0,0,1-8.165,3.786,23.344,23.344,0,0,1-11.988-2.348Z" transform="translate(-390.947 -186.749)" fill="#b94d46"/>
  <path id="Trazado_1003247" data-name="Trazado 1003247" d="M503.4,482.218l1.857.031a46.508,46.508,0,0,1,5.456-4.812c1.328-.98,10.594-7.077,10.757-7.367.766-1.361.2-3.209.754-4.544h.143l.036.079a3.6,3.6,0,0,1-.017,1.14,13.174,13.174,0,0,1-1.426,5.162,60.252,60.252,0,0,1,7.254-2.8,2.31,2.31,0,0,1,1.777.051l-.057.345a1.559,1.559,0,0,1-.612,1.313,8.954,8.954,0,0,1-2.431,2.121,2.771,2.771,0,0,0,1.824-.1c1.015-.224,2.824-.622,3.7-.052l.021.277-.264.3a.9.9,0,0,1-.255.43c-.207.986-2.714,2.464-3.617,3.144a21.982,21.982,0,0,1,4.269-.169l7.954-.025a2.96,2.96,0,0,1,.374.476,4.924,4.924,0,0,1,.07,1.125l.266,3.364-.125.211-1.234.157c.823,1.365-.23,8.61-.705,10.523-1.021,4.114-3.1,8.119-6.844,10.347a13,13,0,0,1-5.616,1.751c-1.005.082-2.018,0-3.02.071a7.424,7.424,0,0,1,.724,2.476l.631,2.821-.148.5a1.438,1.438,0,0,1,.477,1.031.608.608,0,0,1-.059.255H444.414a15.357,15.357,0,0,0,.511-2.747l.955-5.08a35.725,35.725,0,0,1-6.761-1.61l-.521-.284a13.74,13.74,0,0,1-4.846-3.251,10.661,10.661,0,0,1-2.2-3.058,15.525,15.525,0,0,1-1.01-4.1,63.405,63.405,0,0,1-.372-9.3l-1.093.026a1.2,1.2,0,0,1-.207-.236,5.945,5.945,0,0,1,0-1.34l-.01-4.786,7.278.564,13.1.719,1.255,3.087c.872-.428,1.657-.874,2.575-1.227l2.467-.585c5.169-1.127,10.64-.069,15.83.483a34.922,34.922,0,0,0,4.089.369l19.069,2.528,7.507.44c.768.029,1.545-.039,2.311.009l8.34.572c6,.329,11.708.895,17.177,3.642l.07-.152a30.675,30.675,0,0,0-6.836-2.576,56.252,56.252,0,0,0-9.343-1.054l-4.938-.336-3.258-.194A7.678,7.678,0,0,1,503.4,482.218Z" transform="translate(-292.31 -313.776)" fill="#dc8a68"/>
  <path id="Trazado_1003248" data-name="Trazado 1003248" d="M723.969,503.246l1.638-.129c-.163.41-.509.47-.9.639-.969.417-1.916.751-2.851,1.26-1.6.873-3.195,1.975-4.869,2.689a20.909,20.909,0,0,1,3.027-2.237,21.448,21.448,0,0,1,3.487-2.024Z" transform="translate(-488.735 -339.4)" fill="#b94d46"/>
  <path id="Trazado_1003249" data-name="Trazado 1003249" d="M725.271,489.6c-.783.352-1.545,1.085-2.366,1.492-1.633.81-3.383,1.257-5.046,1.994-1.813.8-3.525,1.921-5.388,2.592a39.954,39.954,0,0,1,10.573-6.02,13.655,13.655,0,0,1,2.581-.927l-.1.439A.9.9,0,0,1,725.271,489.6Z" transform="translate(-485.658 -329.596)" fill="#b94d46"/>
  <path id="Trazado_1003250" data-name="Trazado 1003250" d="M716.525,481.445c-.409.563-2.267.79-2.974,1.044-2.245.806-4.335,1.964-6.536,2.871l.076-.06a27.566,27.566,0,0,1,2.467-1.754l7.853-4.422c.468-.264,1.64-1.174,2.157-1.114a1.559,1.559,0,0,1-.612,1.313A8.955,8.955,0,0,1,716.525,481.445Z" transform="translate(-481.939 -322.284)" fill="#b94d46"/>
  <path id="Trazado_1003251" data-name="Trazado 1003251" d="M745.894,500.732a2.956,2.956,0,0,1,.374.476,4.927,4.927,0,0,1,.07,1.125l.266,3.364-.125.211-1.234.157-15.145.109a22.547,22.547,0,0,0,4.461-3.293,3.654,3.654,0,0,0,.931-1.246l-.19-.2-.754.053-1.638.129a2.72,2.72,0,0,0,.762-.694,21.981,21.981,0,0,1,4.269-.169Z" transform="translate(-497.676 -337.774)" fill="#0aaea3"/>
  <path id="Trazado_1003252" data-name="Trazado 1003252" d="M634.717,571.186a41.845,41.845,0,0,1,5.12,1.228l10.151,2.353,9.258,1.528c1.562.192,3.242.173,4.772.487a7.423,7.423,0,0,1,.724,2.476l.631,2.821-.148.5a1.438,1.438,0,0,1,.477,1.031.608.608,0,0,1-.059.255H634.938a1.369,1.369,0,0,0,.163-.283,22.249,22.249,0,0,0-.247-6.064,1.866,1.866,0,0,0-.173-1.5l.268-.487C634.951,574.4,635.23,572.138,634.717,571.186Z" transform="translate(-432.632 -385.799)" fill="#8ccced"/>
  <path id="Trazado_1003253" data-name="Trazado 1003253" d="M635.225,588.244l.046-.115a3.1,3.1,0,0,0,.213-1.2,9.937,9.937,0,0,1,2.417.762l4.195,1.384a101.7,101.7,0,0,0,20.268,4,20.5,20.5,0,0,0,3.233.234,1.437,1.437,0,0,1,.477,1.031.608.608,0,0,1-.059.255H635.309a1.372,1.372,0,0,0,.163-.283A22.234,22.234,0,0,0,635.225,588.244Z" transform="translate(-433.003 -396.529)" fill="#fefefe"/>
  <path id="Trazado_1003254" data-name="Trazado 1003254" d="M428.858,498.651l7.278.564,13.1.719,1.255,3.087c.872-.428,1.657-.875,2.575-1.227-.555,1.81-.965,3.511-.034,5.286l.039.071c2.588.352,5.208.334,7.776.895,6.263,1.369,12.571,4.1,18.335,6.86a130.341,130.341,0,0,0,12.082,5.475l.129.182a14.628,14.628,0,0,1,2.887.99l.116.19c.513.952.234,3.214.232,4.339l-.268.487a1.866,1.866,0,0,1,.173,1.5,22.249,22.249,0,0,1,.247,6.064,1.386,1.386,0,0,1-.163.283h-50.2a15.358,15.358,0,0,0,.511-2.747l.955-5.08a35.724,35.724,0,0,1-6.761-1.61l-.521-.284a13.742,13.742,0,0,1-4.846-3.251,10.661,10.661,0,0,1-2.2-3.058,15.525,15.525,0,0,1-1.01-4.1,63.405,63.405,0,0,1-.372-9.3l-1.093.026a1.2,1.2,0,0,1-.207-.236,5.948,5.948,0,0,1,0-1.34Z" transform="translate(-292.31 -336.355)" fill="#dc8a68"/>
  <path id="Trazado_1003255" data-name="Trazado 1003255" d="M473.925,509.752c.872-.428,1.657-.874,2.575-1.227-.555,1.81-.965,3.511-.034,5.285l.039.071c2.588.352,5.208.334,7.776.895,6.263,1.369,12.571,4.1,18.335,6.86a130.326,130.326,0,0,0,12.082,5.475l.129.182a25.8,25.8,0,0,1-5.6,2.059,31.686,31.686,0,0,1-7.035-3.536c-4.453-2.744-8.579-5.918-13.279-8.263a30.572,30.572,0,0,0-10.94-3.313,31.612,31.612,0,0,0-10.315,1.12c-1.467.4-2.807,1.007-4.237,1.482l-.212-.133.048-.06a5.969,5.969,0,0,1,1.94-.823,32,32,0,0,1,7.007-1.68,11.093,11.093,0,0,1,.676-2.492,3.628,3.628,0,0,0,.408-1.5l0-.141Z" transform="translate(-315.745 -343.086)" fill="#b94d46"/>
  <path id="Trazado_1003256" data-name="Trazado 1003256" d="M428.858,498.651l7.278.564,13.1.719,1.255,3.087-.636.259,0,.141a3.626,3.626,0,0,1-.408,1.5l-12.788-.008c-2.117.006-4.389-.15-6.483.071l-1.093.026a1.2,1.2,0,0,1-.207-.236,5.948,5.948,0,0,1,0-1.34Z" transform="translate(-292.311 -336.355)" fill="#0aaea3"/>
  <path id="Trazado_1003257" data-name="Trazado 1003257" d="M589.46,567.481a14.626,14.626,0,0,1,2.887.99l.116.19c.513.952.234,3.214.232,4.339l-.268.487a1.866,1.866,0,0,1,.173,1.5,22.249,22.249,0,0,1,.247,6.064,1.387,1.387,0,0,1-.163.283H572.692l.188-5.762.031-.2L573,571.94l10.852-2.4A25.805,25.805,0,0,0,589.46,567.481Z" transform="translate(-390.378 -383.274)" fill="#0aaea3"/>
  <path id="Trazado_1003258" data-name="Trazado 1003258" d="M589.929,567.481a14.625,14.625,0,0,1,2.887.99l.116.19c.513.952.234,3.214.232,4.339l-.268.487a17.7,17.7,0,0,0-3.231-1.059,15.2,15.2,0,0,0-2.5.586c-1.237.269-13.149,2.771-13.557,2.573-.092-.044-.149-.139-.223-.209l.091-3.437,10.852-2.4A25.8,25.8,0,0,0,589.929,567.481Z" transform="translate(-390.847 -383.274)" fill="#038988"/>
  <path id="Trazado_1003259" data-name="Trazado 1003259" d="M479.261,583.057a75.777,75.777,0,0,0,15.519-.078l13.535-1.49-.091,3.437-.031.2-.188,5.761H477.8a15.357,15.357,0,0,0,.511-2.747Z" transform="translate(-325.691 -392.822)" fill="#8ccced"/>
  <path id="Trazado_1003260" data-name="Trazado 1003260" d="M478.325,598.663l.588-2.931a64.094,64.094,0,0,0,8.108-.408c7.144-.494,14.518-.937,21.535-2.422l-.188,5.762Z" transform="translate(-326.052 -400.601)" fill="#fefefe"/>
  <path id="Trazado_1003261" data-name="Trazado 1003261" d="M60.861,126.324c.312-5.993,1.624-11.943,4.98-17.011,6-9.06,16.683-12.9,26.879-14.975a26.622,26.622,0,0,0-1.432,8.028,83.909,83.909,0,0,0-.032,8.649,18.392,18.392,0,0,0,.321,3.791,4.033,4.033,0,0,1,1.275.4l.3.393a8.317,8.317,0,0,0,.423,2.985l.08.1a14.421,14.421,0,0,1,1.656,2.931,24.712,24.712,0,0,1,2.742,7.355,16.763,16.763,0,0,1-.053,5.318l-.1.49a28.719,28.719,0,0,0,3.772,4.11l-.138,4.15a19.671,19.671,0,0,0,10.62,4.814c5.96.648,11.246-2.026,15.754-5.649l-.087,4.756.048.006.032-1.219.146-.088a39.746,39.746,0,0,1,10.868,9.57,11.849,11.849,0,0,1,3.635.984A83.706,83.706,0,0,1,154.2,161.1a36.244,36.244,0,0,1,4.227,2.689c4.351,3.572,8.037,7.753,9.482,13.312-.261.9-2.079,1.91-2.8,2.564-.624.564-1.208,1.186-1.787,1.8a32.742,32.742,0,0,0-3.988,5.392,48.9,48.9,0,0,0-5.5,14.278c-.469,2-.765,4.095-1.35,6.059l-.46,2.442a5.149,5.149,0,0,1-.043,2.194l-.373,3.335-.619,7.74c-.381.275-.952.085-1.419.144l.01,4.786a5.946,5.946,0,0,0,0,1.34,1.2,1.2,0,0,0,.207.236l1.093-.026a63.4,63.4,0,0,0,.372,9.3,15.538,15.538,0,0,0,1.01,4.1,10.664,10.664,0,0,0,2.2,3.058A13.741,13.741,0,0,0,159.3,249.1l.521.284a35.731,35.731,0,0,0,6.761,1.61l-.955,5.08a15.36,15.36,0,0,1-.511,2.747H49.784l.022-1.423a79.524,79.524,0,0,1-16.72-15.387c-10.188-12.759-15.495-29.266-13.62-45.56,1.189-10.337,5.4-20.8,13.709-27.4a70.467,70.467,0,0,1,7.177-4.454,49.591,49.591,0,0,0,10.632-7.969,32.266,32.266,0,0,0,7.859-12.581C60.68,138.431,60.9,132.187,60.861,126.324Z" transform="translate(-13.015 -60.754)" fill="#2b73b0"/>
  <path id="Trazado_1003262" data-name="Trazado 1003262" d="M194.008,258.853l.725.119c.327.453.208.683.305,1.194.109.574,1.081.243,1.6.641l.022.428c-.494.441-1.035.213-1.644.416l-.2,1.691-.58-.138c-.336-.42-.225-.7-.269-1.213-.053-.629-1.169-.29-1.655-.683l.012-.4c.478-.442.927-.285,1.531-.455Z" transform="translate(-131.089 -174.391)" fill="#fefefe"/>
  <path id="Trazado_1003263" data-name="Trazado 1003263" d="M86.749,374.158a1.769,1.769,0,0,1,1.288.373c.636.58.516,2.263.547,3.084a29.668,29.668,0,0,1,2.968.215,1.436,1.436,0,0,1,1,.833c0,.523.081.9-.3,1.325-.714.789-2.688.573-3.675.59a15.2,15.2,0,0,1-.031,2.7c-.086.479-.569.818-.932,1.1a1.526,1.526,0,0,1-1.174-.3c-.9-.716-.688-2.465-.729-3.524a13.814,13.814,0,0,1-3.025-.159c-.4-.116-.626-.538-.8-.877a1.338,1.338,0,0,1,.165-1.066c.762-.964,2.534-.758,3.692-.859l.016-1.424A2.448,2.448,0,0,1,86.749,374.158Z" transform="translate(-55.793 -252.42)" fill="#fefefe"/>
  <path id="Trazado_1003264" data-name="Trazado 1003264" d="M238.137,158.629a4.033,4.033,0,0,1,1.275.4l.3.393a8.317,8.317,0,0,0,.423,2.985l.08.1a14.421,14.421,0,0,1,1.656,2.931,24.712,24.712,0,0,1,2.742,7.355,16.763,16.763,0,0,1-.053,5.318,49.871,49.871,0,0,1-2.768-6.064,21.565,21.565,0,0,0-.958-2.5,12.2,12.2,0,0,0-1.285-.033,5.491,5.491,0,0,1-2.431-.747,6.489,6.489,0,0,1-2.874-4.139,5.048,5.048,0,0,1,.624-3.84A4.916,4.916,0,0,1,238.137,158.629Z" transform="translate(-159.574 -106.416)" fill="#f6b38d"/>
  <path id="Trazado_1003265" data-name="Trazado 1003265" d="M260.674,187.363a2.543,2.543,0,0,1-.141.818,12.084,12.084,0,0,1-2.59-4.534l-.1-.3a6.536,6.536,0,0,1,.092-3.337A24.7,24.7,0,0,1,260.674,187.363Z" transform="translate(-175.642 -120.97)" fill="#dc8a68"/>
  <path id="Trazado_1003266" data-name="Trazado 1003266" d="M243.877,166.872a.986.986,0,0,1,.758-.227c.556.076,1.293.853,1.73,1.219l.08.1a2.738,2.738,0,0,0,.011,1.537l.531.318a5.512,5.512,0,0,1-.062,3.387.859.859,0,0,1-.123.162.969.969,0,0,1-.749.42,1.874,1.874,0,0,1-1.167-.625,1.734,1.734,0,0,1,.092-1.469l-.5-.263c-.348-.209-.99-.713-1.067-1.131a6.113,6.113,0,0,1-.119-2.094l.032-.181A2.368,2.368,0,0,1,243.877,166.872Z" transform="translate(-165.81 -111.922)" fill="#dc8a68"/>
  <path id="Trazado_1003267" data-name="Trazado 1003267" d="M243.877,167.378l.1.16c.426.791-.51,1.384.662,1.831l.312-.219a1.383,1.383,0,0,1,1.205-.031l.1.335c-.24.169-.329.129-.616.119l-.167-.087a1.622,1.622,0,0,0-1.1.253c0,.8.84,1.51,1.129,2.251l-.523.207-.5-.263c-.348-.209-.99-.713-1.067-1.131a6.113,6.113,0,0,1-.119-2.094l.032-.181A2.368,2.368,0,0,1,243.877,167.378Z" transform="translate(-165.81 -112.439)" fill="#ca6f5c"/>
  <path id="Trazado_1003268" data-name="Trazado 1003268" d="M154.8,263.169a39.21,39.21,0,0,1,8.035-7.7c1.327-.905,2.769-1.619,4.169-2.4l.165.193-.032,1.363a9.544,9.544,0,0,0-1.476.531l-1.408,1.32-2.383,3.352a5.525,5.525,0,0,1-1.305,1.5,4.026,4.026,0,0,1-.634,1.506,5.02,5.02,0,0,0-.844,3.268l.155,1.557c.232,5.91,1.107,11.807,1.663,17.693l3.209,34.444,1.11,12.633a51.351,51.351,0,0,1,.478,5.358,1.776,1.776,0,0,1,.165,1.291,32.36,32.36,0,0,1,.038,5.155l.051,15.825-.008.118-.006,6.131.018.712H115.5l.022-1.423,2.1-46.029c.714-8.637,1.556-17.583,3.785-25.98a52.057,52.057,0,0,1,5.35-13.057c4.7-8.032,11.963-11.863,20.5-14.881C149.726,264.766,152.258,263.831,154.8,263.169Z" transform="translate(-78.731 -168.95)" fill="#fefefe"/>
  <path id="Trazado_1003269" data-name="Trazado 1003269" d="M234.914,421.691a27.027,27.027,0,0,1-3.206-5.4c-6.385-12.152-10.818-25.334-14.912-38.4l5.849-3.619.389.466-5.51,3.427c3.8,11.742,7.733,23.327,13.06,34.486l2.649,5.182a21.624,21.624,0,0,0,1.516,2.568A1.776,1.776,0,0,1,234.914,421.691Z" transform="translate(-147.78 -251.571)" fill="#08104a"/>
  <path id="Trazado_1003270" data-name="Trazado 1003270" d="M175.4,478.576l1.475-44.173.391-11.436c.05-1.945-.235-4.369.247-6.236l.074,61.845Z" transform="translate(-119.563 -280.514)" fill="#8ccced"/>
  <path id="Trazado_1003271" data-name="Trazado 1003271" d="M222.906,263.169a39.21,39.21,0,0,1,8.035-7.7c1.327-.905,2.769-1.619,4.169-2.4l.165.193-.032,1.363a9.544,9.544,0,0,0-1.476.531l-1.408,1.32-2.383,3.352a5.525,5.525,0,0,1-1.305,1.5,4.027,4.027,0,0,1-.634,1.506,5.02,5.02,0,0,0-.844,3.268l.155,1.557c.232,5.91,1.107,11.807,1.663,17.693l3.209,34.444,1.11,12.633a51.355,51.355,0,0,1,.478,5.358,21.605,21.605,0,0,1-1.516-2.568l-2.649-5.182c-5.327-11.16-9.264-22.745-13.06-34.486l5.51-3.427-.389-.466,1.093-.727c-1.141-.578-7.039-3.322-7.38-3.849a44.688,44.688,0,0,1,3.955-17.894A47.442,47.442,0,0,1,222.906,263.169Z" transform="translate(-146.84 -168.95)" fill="#fefefe"/>
  <path id="Trazado_1003272" data-name="Trazado 1003272" d="M222.905,263.169a39.21,39.21,0,0,1,8.035-7.7c1.327-.905,2.769-1.619,4.169-2.4l.165.193-.032,1.363a9.544,9.544,0,0,0-1.476.531l-1.408,1.32-2.383,3.352a5.525,5.525,0,0,1-1.305,1.5,20.342,20.342,0,0,1-2.955.776c-6.091,6.844-8.413,15.593-9.141,24.526l7.456,4.233-1.936,1.257-.389-.466,1.093-.727c-1.141-.578-7.039-3.322-7.38-3.849a44.688,44.688,0,0,1,3.955-17.894A47.5,47.5,0,0,1,222.905,263.169Z" transform="translate(-146.84 -170.153)" fill="#2d2962"/>
  <path id="Trazado_1003273" data-name="Trazado 1003273" d="M247.766,269.394a24.739,24.739,0,0,1,6.643-5.628l-2.383,3.352a5.526,5.526,0,0,1-1.305,1.5A20.386,20.386,0,0,1,247.766,269.394Z" transform="translate(-168.891 -177.709)" fill="#2b73b0"/>
  <path id="Trazado_1003274" data-name="Trazado 1003274" d="M286.861,244.681l-.087,4.756.048.006.032-1.219.146-.088a39.747,39.747,0,0,1,10.868,9.57,11.848,11.848,0,0,1,3.635.984,83.7,83.7,0,0,1,11.648,4.893,36.241,36.241,0,0,1,4.227,2.689c4.351,3.572,8.037,7.753,9.482,13.312-.261.9-2.079,1.91-2.8,2.564-.624.564-1.208,1.186-1.787,1.8a32.742,32.742,0,0,0-3.988,5.392,48.9,48.9,0,0,0-5.5,14.278c-.469,2-.765,4.095-1.35,6.059l-.46,2.442a5.149,5.149,0,0,1-.043,2.194l-.373,3.335-.619,7.74c-.381.275-.952.085-1.419.144l.01,4.786a5.947,5.947,0,0,0,0,1.34,1.2,1.2,0,0,0,.207.236l1.093-.026a63.405,63.405,0,0,0,.372,9.3,15.534,15.534,0,0,0,1.01,4.1,10.664,10.664,0,0,0,2.2,3.058,13.741,13.741,0,0,0,4.846,3.251l.521.284a35.732,35.732,0,0,0,6.761,1.61l-.955,5.08a15.36,15.36,0,0,1-.511,2.747H259.2l-.018-.712.006-6.131.008-.118-.051-15.825a32.324,32.324,0,0,0-.038-5.155,1.776,1.776,0,0,0-.165-1.291,51.178,51.178,0,0,0-.478-5.358l-1.11-12.633-3.209-34.444c-.556-5.886-1.431-11.782-1.663-17.693l-.155-1.557a5.022,5.022,0,0,1,.844-3.268,4.026,4.026,0,0,0,.634-1.506,5.531,5.531,0,0,0,1.305-1.5l2.383-3.352,1.408-1.32a9.559,9.559,0,0,1,1.476-.531l.032-1.363.082-2.027a19.671,19.671,0,0,0,10.62,4.814C277.067,250.978,282.353,248.3,286.861,244.681Z" transform="translate(-171.97 -163.236)" fill="#95c1ec"/>
  <path id="Trazado_1003275" data-name="Trazado 1003275" d="M351.1,295.811l-.213,1.111-10.06,12.193-3.087-3.294a9.4,9.4,0,0,0-1.576-1.6l.63-.816a28,28,0,0,1,3.963,3.984Z" transform="translate(-229.144 -199.341)" fill="#2b73b0"/>
  <path id="Trazado_1003276" data-name="Trazado 1003276" d="M287.467,589.4l14.423.045-.032,6.112.009.72H273.96l-.018-.712.006-6.131,8.958.012A40.345,40.345,0,0,0,287.467,589.4Z" transform="translate(-186.734 -398.213)" fill="#08104a"/>
  <path id="Trazado_1003277" data-name="Trazado 1003277" d="M273.942,608.747l27.917-.008.009.72H273.96Z" transform="translate(-186.733 -411.397)" fill="#2d2962"/>
  <path id="Trazado_1003278" data-name="Trazado 1003278" d="M360.776,256.845l.032-1.219.146-.088a39.747,39.747,0,0,1,10.868,9.57c5.409,7.227,7.425,14.993,8.055,23.849l-3.755,1.886a26.851,26.851,0,0,1-3.744,1.684c.171.5.692.732,1.119,1l5.305,3.342-1.189,3.113-1.412,3.8-1.524,4.189a15.12,15.12,0,0,1-.975,2.489l-.085.339-.25-.117-2.127,6.007L370.363,319l-.238.631-.565,1.384a1.154,1.154,0,0,1-.558-.431l-2.9,7.335-2.279,5.5a44.253,44.253,0,0,1-2.8,5.946c-.387-.664,1.274-15.094,1.424-16.638l5.216-53.256.213-1.111a3.7,3.7,0,0,0-.75-3.744,4.586,4.586,0,0,1-.792-1.439c-.667-.281-1.8-2.194-2.268-2.81-.643-.843-1.4-1.6-1.957-2.5Z" transform="translate(-245.924 -170.637)" fill="#fefefe"/>
  <path id="Trazado_1003279" data-name="Trazado 1003279" d="M390.733,427.71l.253.336-2.127,6.007-.879,2.306-.238.631-.565,1.384a1.154,1.154,0,0,1-.558-.431l.857-2.05a20.244,20.244,0,0,1,1.085-2.851Z" transform="translate(-263.541 -288.677)" fill="#08104a"/>
  <path id="Trazado_1003280" data-name="Trazado 1003280" d="M360.776,256.845l.032-1.219.146-.088a39.747,39.747,0,0,1,10.868,9.57c5.409,7.227,7.425,14.993,8.055,23.849l-3.755,1.886a26.851,26.851,0,0,1-3.744,1.684c.171.5.692.732,1.119,1l5.305,3.342-1.189,3.113-1.412,3.8-1.524,4.189a15.12,15.12,0,0,1-.975,2.489l-.085.339-.25-.117-.253-.336L376,302.564l1.1-3.007.9-2.387-4.939-3.178-1.735-1.153-.136-.163c.191-.438.828-.616,1.258-.83l4.189-2.038a11.087,11.087,0,0,1,1.994-1.039l0-.649a39.847,39.847,0,0,0-6.369-20.131,21.471,21.471,0,0,0-3.17-4.082l-2.76-.731c-.667-.281-1.8-2.194-2.268-2.81-.643-.843-1.4-1.6-1.957-2.5Z" transform="translate(-245.924 -171.641)" fill="#08104a"/>
  <path id="Trazado_1003281" data-name="Trazado 1003281" d="M364.962,262.842a31.206,31.206,0,0,1,4.254,3.381,26.986,26.986,0,0,1,2.732,2.662l-2.76-.731c-.667-.281-1.8-2.194-2.268-2.81C366.276,264.5,365.521,263.746,364.962,262.842Z" transform="translate(-248.778 -177.08)" fill="#2b73b0"/>
  <path id="Trazado_1003282" data-name="Trazado 1003282" d="M395.476,285.6a11.85,11.85,0,0,1,3.635.984,83.71,83.71,0,0,1,11.648,4.893,36.241,36.241,0,0,1,4.227,2.689c4.351,3.572,8.037,7.753,9.482,13.312-.261.9-2.079,1.91-2.8,2.564-.624.564-1.208,1.186-1.787,1.8a32.742,32.742,0,0,0-3.988,5.392,48.9,48.9,0,0,0-5.5,14.278c-.469,2-.765,4.095-1.35,6.059l-4.715-6.954-6.966.34a15.119,15.119,0,0,0,.975-2.489l1.524-4.189,1.412-3.8,1.189-3.113-5.305-3.342c-.428-.272-.949-.5-1.119-1a26.815,26.815,0,0,0,3.744-1.684l3.755-1.886C402.9,300.594,400.885,292.827,395.476,285.6Z" transform="translate(-269.578 -192.009)" fill="#fefefe"/>
  <path id="Trazado_1003283" data-name="Trazado 1003283" d="M297.013,336l5.469.054,5.742,58.412L302.343,401c-.737.848-1.859,2.6-2.808,3.033l-.734-1.169-7.467-8.28Z" transform="translate(-198.589 -225.486)" fill="#1a3c8d"/>
  <path id="Trazado_1003284" data-name="Trazado 1003284" d="M286.861,244.681l-.087,4.756.048.006,1.333,1.018c.559.9,1.314,1.658,1.957,2.5.47.616,1.6,2.529,2.268,2.81a4.582,4.582,0,0,0,.792,1.439,3.7,3.7,0,0,1,.75,3.744l-10.343,11.58a28,28,0,0,0-3.963-3.984l-.63.816-.073.019a34.1,34.1,0,0,1-3.049,4.42l-5.469-.054-3.546-4.435-.131-.333-.273-.285a30.989,30.989,0,0,0-3.7,3.775l-10.424-12.094a5.022,5.022,0,0,1,.844-3.268,4.026,4.026,0,0,0,.634-1.506,5.531,5.531,0,0,0,1.305-1.5l2.383-3.352,1.408-1.32a9.56,9.56,0,0,1,1.476-.531l.032-1.363.082-2.027a19.671,19.671,0,0,0,10.62,4.814C277.068,250.978,282.353,248.3,286.861,244.681Z" transform="translate(-171.971 -164.581)" fill="#95c1ec"/>
  <path id="Trazado_1003285" data-name="Trazado 1003285" d="M296.766,306.292a26.45,26.45,0,0,0,2.464-2.313l4.136-4.15,6.57,6.317-.63.816-.073.019a34.1,34.1,0,0,1-3.049,4.42l-5.469-.054-3.546-4.435-.131-.333Z" transform="translate(-202.292 -202.078)" fill="#1a3c8d"/>
  <path id="Trazado_1003286" data-name="Trazado 1003286" d="M297.622,321.027c1.068.176,2.338,1.749,3.088,2.507a4.916,4.916,0,0,0,.592.6,7.522,7.522,0,0,0,1.5-.01,25.818,25.818,0,0,0,3.6-.054,1.4,1.4,0,0,0,.591-.277,19.618,19.618,0,0,0,2.526-2.438l.3.073a34.1,34.1,0,0,1-3.049,4.42L301.3,325.8l-3.546-4.435Z" transform="translate(-202.875 -216.494)" fill="#08104a"/>
  <path id="Trazado_1003287" data-name="Trazado 1003287" d="M304.181,244.681l-.087,4.756-13.6,12.918c-1.5-1.309-12.278-11.834-12.8-11.917l0-1.533.032-1.363.082-2.027a19.672,19.672,0,0,0,10.62,4.814C294.387,250.978,299.673,248.3,304.181,244.681Z" transform="translate(-189.29 -164.685)" fill="#f6b38d"/>
  <path id="Trazado_1003288" data-name="Trazado 1003288" d="M252.408,294,262.832,306.1a30.98,30.98,0,0,1,3.7-3.775l.273.285.13.333,3.546,4.435L264.8,365.955l7.467,8.28L273,375.4a1.391,1.391,0,0,0-.176.277,12.263,12.263,0,0,0-.02,2.616c-.024,3.207-.234,6.549-.017,9.744a40.493,40.493,0,0,1-4.562.046l-8.958-.012.008-.118-.051-15.825a32.328,32.328,0,0,0-.038-5.155,1.776,1.776,0,0,0-.165-1.291,51.186,51.186,0,0,0-.478-5.358l-1.11-12.633-3.209-34.444c-.556-5.886-1.431-11.782-1.663-17.693Z" transform="translate(-172.055 -196.856)" fill="#95c1ec"/>
  <path id="Trazado_1003289" data-name="Trazado 1003289" d="M286.957,546.031l.734,1.169a1.391,1.391,0,0,0-.176.277,12.261,12.261,0,0,0-.02,2.616c-.024,3.207-.234,6.549-.017,9.744a40.508,40.508,0,0,1-4.562.046l-8.958-.012.008-.118,12.994.047Z" transform="translate(-186.745 -368.652)" fill="#105ead"/>
  <path id="Trazado_1003290" data-name="Trazado 1003290" d="M252.408,294,262.832,306.1a30.98,30.98,0,0,1,3.7-3.775l.273.285.13.333-4.16,4.812-10.209-12.192Z" transform="translate(-172.055 -198.112)" fill="#2b73b0"/>
  <path id="Trazado_1003291" data-name="Trazado 1003291" d="M373.167,427.34l6.966-.34,4.715,6.954-.46,2.442a5.15,5.15,0,0,1-.043,2.194l-.373,3.335-.619,7.74c-.381.275-.952.085-1.419.144l.01,4.786a5.943,5.943,0,0,0,0,1.34,1.2,1.2,0,0,0,.207.236l1.093-.026a63.4,63.4,0,0,0,.372,9.3,15.538,15.538,0,0,0,1.01,4.1,10.664,10.664,0,0,0,2.2,3.058,13.741,13.741,0,0,0,4.846,3.251l.521.284a35.728,35.728,0,0,0,6.761,1.61L398,482.83a15.358,15.358,0,0,1-.511,2.747h-36.97l-.009-.72.032-6.112-.053-21.067-.37-.162-.134-.368.5-.906a44.3,44.3,0,0,0,2.8-5.946l2.279-5.5,2.9-7.335a1.153,1.153,0,0,0,.558.431l.565-1.384.238-.631.879-2.306,2.127-6.007.25.117Z" transform="translate(-245.386 -287.514)" fill="#fefefe"/>
  <path id="Trazado_1003292" data-name="Trazado 1003292" d="M459.493,580.466l.521.284.06,9.437h-.6Z" transform="translate(-313.205 -392.125)" fill="#08104a"/>
  <path id="Trazado_1003293" data-name="Trazado 1003293" d="M368.466,459.854a1.153,1.153,0,0,0,.558.431l-2.974,7.368-2.415,5.814-3.145,6.606-.37-.162-.134-.368.5-.906a44.307,44.307,0,0,0,2.8-5.946l2.279-5.5Z" transform="translate(-245.386 -309.909)" fill="#08104a"/>
  <path id="Trazado_1003294" data-name="Trazado 1003294" d="M461.162,581.358a35.734,35.734,0,0,0,6.761,1.61l-.955,5.08a15.36,15.36,0,0,1-.511,2.747h-5.235Z" transform="translate(-314.353 -392.733)" fill="#fefefe"/>
  <path id="Trazado_1003295" data-name="Trazado 1003295" d="M393.726,427.34l6.966-.34,4.715,6.954-.46,2.442-3.2,5.747-7.677.269-3.922-5.907.238-.631.879-2.306,2.127-6.007.25.117Z" transform="translate(-265.946 -288.141)" fill="#b94d46"/>
  <path id="Trazado_1003296" data-name="Trazado 1003296" d="M395.782,428.763l.25.117a2.782,2.782,0,0,1-.166,1.473,16.488,16.488,0,0,1-1.006,3.451,4.782,4.782,0,0,1-.782,1.145c-.259,0-.239,0-.422-.18Z" transform="translate(-268.336 -289.441)" fill="#ca6f5c"/>
  <path id="Trazado_1003297" data-name="Trazado 1003297" d="M0,0H291.675a1.238,1.238,0,0,1,.253.728l.017,38.255-.011,8.42a15.422,15.422,0,0,1-.046,3.207l-.125.313a11.559,11.559,0,0,1,.165,3.519l.006,7.823.011,25.7,0,85.544-.011,18.6,0,4.029a6.877,6.877,0,0,1-.027,1.536.407.407,0,0,1-.032.079,1.714,1.714,0,0,1-.194.313H233.743l6.581-4.927a9.7,9.7,0,0,0,2.112-1.935,23.7,23.7,0,0,0,3.455-3.107,92.926,92.926,0,0,0,11.415-13.609,66.8,66.8,0,0,0,9.771-21.124c.439-1.8.608-3.631.935-5.453l.458-2.455a5.014,5.014,0,0,0,.3-1.935,24.692,24.692,0,0,0,1.348-4.222,57.888,57.888,0,0,1,2.716-6.918,116.994,116.994,0,0,1,6.646-11.248c3.664-5.934,6.384-12.3,6.945-19.342A28.53,28.53,0,0,0,283.672,86.9a23,23,0,0,0-11.82-11.226,53.231,53.231,0,0,0-7.838-2.466c-5.981-1.54-11.432-2.79-16.185-7.077C242.206,61.056,239.309,54.412,235.5,48a90.42,90.42,0,0,0-8.435-11.853,83.6,83.6,0,0,0-28.149-22.024,86.214,86.214,0,0,0-30.113-7.766,78.624,78.624,0,0,0-46.335,11.177,63.5,63.5,0,0,0-8.717,6.224c-5.939-3.6-14.016-6.5-20.952-4.677a8.167,8.167,0,0,0-5.119,3.531,4.768,4.768,0,0,0-.584,2.8c-2.6.744-5.481,1.581-6.916,4.145l-.478,1.02C69.51,32.69,58.826,36.6,52.827,45.829c-3.357,5.161-4.669,11.219-4.98,17.322.041,5.97-.181,12.328-2.02,18.037A32.942,32.942,0,0,1,37.969,94a49.676,49.676,0,0,1-10.632,8.114,70.272,70.272,0,0,0-7.177,4.536c-8.308,6.726-12.52,17.379-13.709,27.9-1.874,16.592,3.432,33.4,13.62,46.392a80.087,80.087,0,0,0,16.72,15.668l-.022,1.449H0V0Z" fill="#8ccced"/>
  <path id="Trazado_1003298" data-name="Trazado 1003298" d="M75.592,142.75a7.121,7.121,0,0,1,4.5.792,6.879,6.879,0,0,1,2.989,4.057,6.274,6.274,0,0,1-.764,4.872,6.518,6.518,0,0,1-4.364,2.9,6.7,6.7,0,0,1-3.848-.584,6.5,6.5,0,0,1-3.366-3.738,6.63,6.63,0,0,1,.406-4.887A7.14,7.14,0,0,1,75.592,142.75Z" transform="translate(-48.024 -95.668)" fill="#5cb1dc"/>
  <path id="Trazado_1003299" data-name="Trazado 1003299" d="M771.267,130.31c4.991-.575,10.635,2.067,14.655,4.84,4.261,2.94,8.95,7.438,9.864,12.756a5.313,5.313,0,0,1-.7,4.021,6.527,6.527,0,0,1-4.461,2.229c-4.824.733-10.537-1.5-14.507-4.127-4.109-2.722-8.431-7.458-9.408-12.423a6.712,6.712,0,0,1,.656-5.23A5.45,5.45,0,0,1,771.267,130.31Z" transform="translate(-522.474 -87.161)" fill="#5cb1dc"/>
  <path id="Trazado_1003300" data-name="Trazado 1003300" d="M787.883,442.738l.063.094a10.811,10.811,0,0,0,1.84,1.684,23.112,23.112,0,0,1,2.3,2.374,27.037,27.037,0,0,1,6.38,21.629A25.752,25.752,0,0,1,787.684,485.4a30.683,30.683,0,0,1-17.747,5.185,40.832,40.832,0,0,1-6.228-.683,15.792,15.792,0,0,0-2.163-.333A23.558,23.558,0,0,0,765,486.514a91.681,91.681,0,0,0,11.415-13.365,65.063,65.063,0,0,0,9.771-20.745c.439-1.77.608-3.566.935-5.356l.458-2.41A4.843,4.843,0,0,0,787.883,442.738Z" transform="translate(-519.11 -298.242)" fill="#5cb1dc"/>
  <path id="Trazado_1003301" data-name="Trazado 1003301" d="M49.17,237.2a42.412,42.412,0,0,1-2.663-3.763A26.931,26.931,0,0,1,42.562,220.2a30.669,30.669,0,0,1,.326-4.165,24.945,24.945,0,0,1,9.428-16.057,26.272,26.272,0,0,1,19.675-5.434c1.6.2,3.132.86,4.7,1.051a4.636,4.636,0,0,1,.119-.959l.048-.153c.041,5.863-.181,12.107-2.02,17.714a32.26,32.26,0,0,1-7.859,12.581,49.591,49.591,0,0,1-10.632,7.969A70.468,70.468,0,0,0,49.17,237.2Z" transform="translate(-29.012 -130.379)" fill="#5cb1dc"/>
  <path id="Trazado_1003302" data-name="Trazado 1003302" d="M659.929,0h81.588a1.2,1.2,0,0,1,.253.715l.017,37.569-.011,8.269a14.873,14.873,0,0,1-.046,3.149l-.125.307a8.275,8.275,0,0,0-1-1.477A29.729,29.729,0,0,0,736.96,44.5c-9.427-8.8-22.018-11.07-34.175-13.641-2.961-.627-6.013-1.144-8.91-2.042a51.688,51.688,0,0,1-11.711-5.335,46.766,46.766,0,0,1-6.422-5.055A95.124,95.124,0,0,1,663.9,5.584L661.47,2.178A9.423,9.423,0,0,0,660,.057Z" transform="translate(-449.843 1.11)" fill="#5cb1dc"/>
  <path id="Trazado_1003303" data-name="Trazado 1003303" d="M0,0H85.753C80,14.395,66.2,24.64,52.322,30.571a113.445,113.445,0,0,1-10.644,3.976L17.992,41.479A89.09,89.09,0,0,0,0,50Z" transform="translate(0 1.11)" fill="#5cb1dc"/>
</svg>
