<svg xmlns="http://www.w3.org/2000/svg" width="40" height="51.94" viewBox="0 0 40 51.94">
  <g id="Grupo_1183266" data-name="Grupo 1183266" transform="translate(-58.85)">
    <g id="Grupo_1183261" data-name="Grupo 1183261" transform="translate(58.85)">
      <g id="Grupo_1183260" data-name="Grupo 1183260" transform="translate(0)">
        <path id="Trazado_1009432" data-name="Trazado 1009432" d="M97.567,36.626l-.018-.03q-.065-.107-.134-.212l-.076-.116c-.031-.047-.063-.093-.1-.139s-.084-.119-.127-.177l-.038-.053-.028-.036q-.078-.1-.159-.2l-.057-.07q-.08-.1-.164-.194l-.069-.08c-.046-.052-.094-.1-.141-.154s-.071-.076-.107-.114l-.082-.083a8.819,8.819,0,0,0-3.8-2.269.745.745,0,0,0-.076-.018L85.515,31.4l-.037,0a1.685,1.685,0,0,0-.946.12,1.773,1.773,0,0,1-.4-1.071V29.2a11.036,11.036,0,0,0,1.264-.94,8.935,8.935,0,0,0,3.009-5.9A2.365,2.365,0,0,0,90.66,20V18.228A2.352,2.352,0,0,0,89.8,16.4V12.325c2.487-1.226,3.027-2.654,3.027-3.663,0-1.73-1.611-3.9-4.2-5.651a17.354,17.354,0,0,0-19.541,0c-2.594,1.756-4.2,3.921-4.2,5.651,0,1.008.54,2.437,3.027,3.663V16.4a2.352,2.352,0,0,0-.863,1.824V20a2.365,2.365,0,0,0,2.252,2.359,8.934,8.934,0,0,0,3.009,5.9,11.038,11.038,0,0,0,1.264.94v1.245a1.773,1.773,0,0,1-.4,1.071,1.683,1.683,0,0,0-.982-.115l-6.878,1.278a.747.747,0,0,0-.076.018,8.82,8.82,0,0,0-3.8,2.267l-.084.085c-.036.037-.07.075-.1.112s-.1.1-.143.156l-.068.079q-.084.1-.165.195l-.056.07q-.081.1-.159.2l-.028.036-.038.053q-.065.088-.127.177-.049.069-.1.139l-.076.115q-.069.105-.134.212l-.018.03a8.818,8.818,0,0,0-1.283,4.6v.928a.761.761,0,0,0,1.522,0v-.928a7.368,7.368,0,0,1,.322-2.159,2.489,2.489,0,0,0,1.556.546,2.535,2.535,0,0,0,.272-.015,2.493,2.493,0,0,0,1.686-.92l.828-1.027a2.509,2.509,0,0,0-.083-3.247c.219-.089.442-.169.671-.238l4.389-.815L73.5,38.224a1.791,1.791,0,0,0,1.46.756,1.814,1.814,0,0,0,.71-.146l.232-.1,1.013,1.178-1.462,10.5H65.886V44.247a.761.761,0,1,0-1.522,0v6.171H61.32a.949.949,0,0,1-.948-.948V45.7a.761.761,0,1,0-1.522,0V49.47a2.473,2.473,0,0,0,2.47,2.47H96.38a2.473,2.473,0,0,0,2.47-2.47V41.226A8.82,8.82,0,0,0,97.567,36.626Zm-33.715.07-.828,1.027a.987.987,0,0,1-1.388.149l-.318-.256q.1-.182.214-.358l0,0c.064-.1.131-.2.2-.294l.063-.087q.092-.125.188-.246l.05-.063q.109-.134.225-.262l.068-.074c.076-.082.153-.164.233-.243l.02-.021a7.353,7.353,0,0,1,.955-.79l.167.135a.987.987,0,0,1,.149,1.388ZM94,35.308l.167-.135a7.346,7.346,0,0,1,.955.79l.02.021c.08.079.157.16.233.243l.068.074q.115.128.225.262l.05.063q.1.121.188.246l.063.087c.068.1.136.194.2.294l0,0q.112.175.214.358l-.318.256a.987.987,0,0,1-1.388-.149L93.848,36.7A.988.988,0,0,1,94,35.308ZM84.91,33.076l0,0,.2-.149a.16.16,0,0,1,.124-.029l.8.148-3.069,4.295a.278.278,0,0,1-.337.095l-2.263-.961Zm-6.06,2.629L74.415,32.39a3.268,3.268,0,0,0,.672-1.947V30a9.923,9.923,0,0,0,3.755.764h.017A9.926,9.926,0,0,0,82.613,30v.446a3.269,3.269,0,0,0,.672,1.947Zm1.482,2.406-.693.806H78.062l-.693-.806,1.481-.629ZM67.9,10.59c-.978-.6-1.505-1.269-1.505-1.928,0-1.372,1.833-3.238,3.536-4.39a15.832,15.832,0,0,1,17.834,0c1.7,1.153,3.536,3.018,3.536,4.39,0,.659-.527,1.325-1.505,1.928V9.206a2.35,2.35,0,0,0-1.769-2.278,41.51,41.51,0,0,0-9.655-1.35h-.01a33.635,33.635,0,0,0-8.746,1.336A2.359,2.359,0,0,0,67.9,9.178Zm2.64,2.672-.032-.02c-.049-.032-.1-.063-.143-.1l-.056-.039-.11-.081-.071-.056-.082-.067-.081-.072-.058-.054c-.03-.029-.058-.058-.085-.086l-.039-.041,0,0H82.559a.761.761,0,1,0,0-1.522H69.424V9.178a.832.832,0,0,1,.6-.8A32.1,32.1,0,0,1,78.364,7.1h.009a39.96,39.96,0,0,1,9.279,1.3.828.828,0,0,1,.624.8v1.918H86.234a.761.761,0,1,0,0,1.522h1.685l0,0-.039.041c-.027.029-.055.057-.085.086l-.058.054-.081.072-.082.067-.071.056-.11.081-.056.039c-.046.032-.094.064-.143.1l-.032.02a7.512,7.512,0,0,1-1.124.569l-.026.013a19.338,19.338,0,0,1-7.159,1.18,19.339,19.339,0,0,1-7.159-1.18l-.026-.013A7.511,7.511,0,0,1,70.542,13.262Zm.072,1.769v1.483a4.223,4.223,0,0,0-1.189-.4V14.349A7.7,7.7,0,0,0,70.614,15.031Zm16.473,0a7.694,7.694,0,0,0,1.189-.682v1.768a4.224,4.224,0,0,0-1.189.4ZM73.294,27.1a7.468,7.468,0,0,1-2.526-5.518.761.761,0,0,0-.761-.745H69.4a.841.841,0,0,1-.84-.84V18.228a.836.836,0,0,1,.309-.65,2.762,2.762,0,0,1,1.194.374l.013.008a1.761,1.761,0,0,1,.174.128l.019.016c.027.023.054.048.08.073s.046.043.07.063l.021.017.056.041.022.015c.026.017.052.032.079.046h0c.027.014.055.027.083.039l.024.009.065.023.025.008c.029.008.058.016.087.021h0c.03.006.06.01.091.013l.025,0,.069,0H71.1c.03,0,.06,0,.09,0h0c.031,0,.061-.008.092-.014l.026-.005.068-.017.027-.008c.03-.01.06-.02.089-.032a1.047,1.047,0,0,0,.646-.969v-1.82a23.155,23.155,0,0,0,6.714.936,23.155,23.155,0,0,0,6.714-.936v1.82a1.047,1.047,0,0,0,.646.969c.03.012.06.023.09.032l.026.008.07.017.024.005a1.033,1.033,0,0,0,.186.018h.024l.071,0,.023,0a1.035,1.035,0,0,0,.18-.035l.024-.007.066-.023.023-.009c.028-.012.056-.025.084-.039h0c.027-.014.053-.03.079-.046L87.2,18.3l.056-.041.022-.017c.024-.02.048-.041.07-.063s.052-.049.079-.072l.021-.018c.025-.021.05-.041.076-.06l.007-.005c.028-.021.057-.04.085-.059l.023-.015.078-.047.011-.007.09-.047.023-.011.081-.037.011,0,.094-.038.017-.006.089-.031,0,0,.1-.03h0a3.2,3.2,0,0,1,.589-.109.836.836,0,0,1,.309.65V20a.841.841,0,0,1-.84.84h-.606a.761.761,0,0,0-.761.745A7.468,7.468,0,0,1,84.406,27.1a8.3,8.3,0,0,1-11.113,0Zm1.778,10.329a.278.278,0,0,1-.337-.095l-3.069-4.295.8-.148a.16.16,0,0,1,.124.029l.2.149,0,0,4.544,3.4Zm1.915,12.984,1.388-9.978h.95l1.388,9.978Zm19.394,0H93.336V44.247a.761.761,0,0,0-1.522,0v6.171H82.25l-1.462-10.5L81.8,38.736l.232.1a1.813,1.813,0,0,0,.71.146,1.791,1.791,0,0,0,1.461-.756l3.482-4.873,4.389.815c.229.069.452.149.671.238a2.513,2.513,0,0,0-.083,3.247l.828,1.027a2.492,2.492,0,0,0,1.686.92,2.536,2.536,0,0,0,.272.015,2.49,2.49,0,0,0,1.556-.546,7.368,7.368,0,0,1,.322,2.159V49.47h0A.949.949,0,0,1,96.38,50.418Z" transform="translate(-58.85)" fill="#3e5d56"/>
      </g>
    </g>
    <g id="Grupo_1183263" data-name="Grupo 1183263" transform="translate(83.988 43.486)">
      <g id="Grupo_1183262" data-name="Grupo 1183262">
        <path id="Trazado_1009433" data-name="Trazado 1009433" d="M311.894,428.66h-4.008a1.245,1.245,0,0,0-1.243,1.243v2.135a1.245,1.245,0,0,0,1.243,1.243h4.008a1.245,1.245,0,0,0,1.243-1.243V429.9A1.245,1.245,0,0,0,311.894,428.66Zm-3.729,3.1v-1.578h3.45v1.578Z" transform="translate(-306.643 -428.66)" fill="#3e5d56"/>
      </g>
    </g>
    <g id="Grupo_1183265" data-name="Grupo 1183265" transform="translate(67.218 43.486)">
      <g id="Grupo_1183264" data-name="Grupo 1183264" transform="translate(0)">
        <path id="Trazado_1009434" data-name="Trazado 1009434" d="M146.588,428.659H142.58a1.245,1.245,0,0,0-1.243,1.243v2.135a1.245,1.245,0,0,0,1.243,1.243h4.008a1.245,1.245,0,0,0,1.243-1.243V429.9A1.245,1.245,0,0,0,146.588,428.659Zm-.279,3.1h-3.45v-1.578h3.45Z" transform="translate(-141.337 -428.659)" fill="#3e5d56"/>
      </g>
    </g>
  </g>
</svg>
