<svg xmlns="http://www.w3.org/2000/svg" width="129" height="127" viewBox="0 0 129 127">
  <g id="Grupo_1181070" data-name="Grupo 1181070" transform="translate(-403.711 -4444)">
    <rect id="Rectángulo_454806" data-name="Rectángulo 454806" width="129" height="127" transform="translate(403.711 4444)" fill="#bbded6"/>
    <path id="Rectángulo_454808" data-name="Rectángulo 454808" d="M0,0H79A12,12,0,0,1,91,12V91a0,0,0,0,1,0,0H12A12,12,0,0,1,0,79V0A0,0,0,0,1,0,0Z" transform="translate(422.711 4462)" fill="#fff"/>
    <g id="Grupo_1179095" data-name="Grupo 1179095" transform="translate(393.975 4475)">
      <path id="Trazado_999995" data-name="Trazado 999995" d="M68.912,36.926c-.333-.286-.662-.59-.98-.908s-.626-.647-.912-.984l-2.607,2.607A.946.946,0,0,1,63.075,36.3l2.793-2.793a13.807,13.807,0,0,1-1.223-2.217,3.259,3.259,0,0,1-1.133.207,3.229,3.229,0,0,1-2.285-5.511l4.61-4.614A3.229,3.229,0,0,1,71.143,24.8a13.624,13.624,0,0,1,1.91,1.023,16.58,16.58,0,0,1,2.815,2.264,16.769,16.769,0,0,1,2.264,2.811,13.992,13.992,0,0,1,1.019,1.91A3.23,3.23,0,0,1,82.57,38.11l-4.61,4.61A3.231,3.231,0,0,1,72.653,39.3a14.063,14.063,0,0,1-2.217-1.22L57.3,51.214V62.705H98.4V43.357a.946.946,0,1,1,1.892,0V62.673A1.929,1.929,0,0,1,98.36,64.6H57.335a1.929,1.929,0,0,1-1.928-1.924V53.106l-2.825,2.829a.948.948,0,0,1-1.338,0l-3.23-3.229a.946.946,0,0,1,0-1.341l7.392-7.392V12.4a.951.951,0,0,1,.276-.669L67.134.283A.933.933,0,0,1,67.806,0H98.36a1.9,1.9,0,0,1,1.395.5,1.893,1.893,0,0,1,.533,1.423V39.069a.946.946,0,1,1-1.892,0V1.892H68.751v9.528a1.82,1.82,0,0,1-1.924,1.928H57.3V42.08l2.743-2.743a.946.946,0,1,1,1.338,1.338Q55.7,46.355,50.021,52.033l1.892,1.892,17-17Zm-4.1,20.647a.946.946,0,0,1,0-1.892H70.2a.949.949,0,0,1,.776.4l.669.844,2.618-5.357a.945.945,0,0,1,1.263-.436.926.926,0,0,1,.483.551l2.457,5.944.712-1.424a.946.946,0,0,1,.848-.526h5.386a.946.946,0,0,1,0,1.892h-4.8L79.237,60.33a.947.947,0,0,1-1.72-.064l-2.471-5.983L72.692,59.1a.992.992,0,0,1-.265.325.941.941,0,0,1-1.327-.154l-1.352-1.7ZM85.928,35.728a.946.946,0,0,1,0-1.892h9.22a.946.946,0,1,1,0,1.892ZM64.817,48.589a.946.946,0,0,1,0-1.892H95.148a.946.946,0,0,1,0,1.892ZM80.524,44.3a.946.946,0,0,1,0-1.892H95.148a.946.946,0,1,1,0,1.892Zm4.721-4.285a.946.946,0,0,1,0-1.892h9.9a.946.946,0,1,1,0,1.892ZM82.627,13.033a.946.946,0,1,1,1.892,0v1.216h1.216a.946.946,0,1,1,0,1.892H84.519v1.216a.946.946,0,0,1-1.892,0V16.14H81.411a.946.946,0,0,1,0-1.892h1.216Zm4.413,6.86a.946.946,0,0,1,1.338,1.338l-4.134,4.138a.948.948,0,0,1-1.338,0l-8.623-8.619a6.318,6.318,0,0,1,8.934-8.937l.358.358.354-.358a6.318,6.318,0,0,1,8.934,8.937L91.411,18.2a.946.946,0,0,1-1.338-1.337l1.452-1.456a4.424,4.424,0,0,0-6.259-6.255l-1.023,1.023a.948.948,0,0,1-1.338,0L81.879,9.152a4.424,4.424,0,0,0-6.259,6.255l7.954,7.954ZM66.859,3.23l-8.222,8.222H66.2c.74,0,.662.089.662-.662ZM79.34,34.881l-4.61,4.61a1.337,1.337,0,1,0,1.888,1.892l4.614-4.61a1.338,1.338,0,1,0-1.892-1.892Zm-5.533,2.854,3.777-3.777a11.461,11.461,0,0,0-1.044-2.053,15.325,15.325,0,0,0-4.5-4.5,11.444,11.444,0,0,0-2.053-1.044l-3.777,3.777a11.478,11.478,0,0,0,1.044,2.053,15.217,15.217,0,0,0,4.5,4.5A11.461,11.461,0,0,0,73.808,37.735ZM69.065,24.606a1.337,1.337,0,0,0-1.888-1.892l-4.613,4.614a1.335,1.335,0,0,0-.39.944,1.325,1.325,0,0,0,1.338,1.334,1.331,1.331,0,0,0,.944-.386Z" transform="translate(0)" fill="#3e5d56"/>
    </g>
  </g>
</svg>
