<svg xmlns="http://www.w3.org/2000/svg" width="100" height="100" viewBox="0 0 100 100">
  <g id="Grupo_1181053" data-name="Grupo 1181053" transform="translate(-310 -7666)">
    <rect id="Rectángulo_455205" data-name="Rectángulo 455205" width="100" height="100" transform="translate(310 7666)" fill="#99bfb7"/>
    <g id="Grupo_1180051" data-name="Grupo 1180051" transform="translate(328.273 7684)">
      <g id="Grupo_1180049" data-name="Grupo 1180049">
        <g id="Grupo_1180038" data-name="Grupo 1180038">
          <path id="Trazado_1003304" data-name="Trazado 1003304" d="M62,3V49a1,1,0,0,1-1,1H46V32h5a1,1,0,0,0,1-1V12.41a1.009,1.009,0,0,0-.29-.7L46.29,6.29A.812.812,0,0,0,46,6.1V6.09A.978.978,0,0,0,45.59,6H38V3a1,1,0,0,1,1-1H61a1,1,0,0,1,1,1Z" fill="#e6e9ed"/>
        </g>
        <g id="Grupo_1180039" data-name="Grupo 1180039">
          <path id="Trazado_1003305" data-name="Trazado 1003305" d="M52,12.41V31a1,1,0,0,1-1,1H46V6.1a.812.812,0,0,1,.29.19l5.42,5.42a1.009,1.009,0,0,1,.29.7Z" fill="#fcd770"/>
        </g>
        <g id="Grupo_1180040" data-name="Grupo 1180040">
          <path id="Trazado_1003306" data-name="Trazado 1003306" d="M45.59,6H3A1,1,0,0,0,2,7V37a1,1,0,0,0,1,1H8V61a1,1,0,0,0,1,1H45a1,1,0,0,0,1-1V6.09A.978.978,0,0,0,45.59,6Z" fill="#ffeaa7"/>
        </g>
        <g id="Grupo_1180041" data-name="Grupo 1180041">
          <path id="Trazado_1003307" data-name="Trazado 1003307" d="M42,43V57a1,1,0,0,1-1,1H27a1,1,0,0,1-1-1V43a1,1,0,0,1,1-1H41A1,1,0,0,1,42,43Z" fill="#ff826e"/>
        </g>
        <g id="Grupo_1180042" data-name="Grupo 1180042">
          <path id="Trazado_1003308" data-name="Trazado 1003308" d="M38,49v2a1,1,0,0,1-1,1H36v1a1,1,0,0,1-1,1H33a1,1,0,0,1-1-1V52H31a1,1,0,0,1-1-1V49a1,1,0,0,1,1-1h1V47a1,1,0,0,1,1-1h2a1,1,0,0,1,1,1v1h1A1,1,0,0,1,38,49Z" fill="#e6e9ed"/>
        </g>
        <g id="Grupo_1180043" data-name="Grupo 1180043">
          <path id="Trazado_1003309" data-name="Trazado 1003309" d="M20,10H30V34a9.317,9.317,0,0,0-7.33-5.76L21,28l-.57-2.26v-.01a4,4,0,0,0,2.44-2.74l.03.01.71-.68A7.638,7.638,0,0,0,26,16.75V16a5.992,5.992,0,0,0-1.2-3.6,5.839,5.839,0,0,0-2.12-1.77A6,6,0,0,0,20,10Z" fill="#e6e9ed"/>
        </g>
        <g id="Grupo_1180044" data-name="Grupo 1180044">
          <path id="Trazado_1003310" data-name="Trazado 1003310" d="M13.13,22.99a4,4,0,0,0,2.44,2.74v.01L15,28l-1.67.24A9.317,9.317,0,0,0,6,34V10H16a6,6,0,0,0-6,6v.75a7.638,7.638,0,0,0,2.39,5.57l.71.68Z" fill="#e6e9ed"/>
        </g>
        <g id="Grupo_1180045" data-name="Grupo 1180045">
          <path id="Trazado_1003311" data-name="Trazado 1003311" d="M6,34a9.317,9.317,0,0,1,7.33-5.76L15,28l.11.21a3.228,3.228,0,0,0,5.78,0L21,28l1.67.24A9.317,9.317,0,0,1,30,34Z" fill="#5cd6b3"/>
        </g>
        <g id="Grupo_1180046" data-name="Grupo 1180046">
          <path id="Trazado_1003312" data-name="Trazado 1003312" d="M10.39,19.18A7.679,7.679,0,0,1,10,16.75V16a6,6,0,0,1,6-6h4a6,6,0,0,1,2.68.63A5.839,5.839,0,0,1,24.8,12.4,5.992,5.992,0,0,1,26,16v.75a7.638,7.638,0,0,1-2.39,5.57L22.9,23l-.03-.01A3.585,3.585,0,0,0,23,22V20.49a1.811,1.811,0,0,0-1.46-1.78A8.765,8.765,0,0,1,16,15l-1.22.81A4,4,0,0,0,13,19.14V22a3.585,3.585,0,0,0,.13.99L13.1,23l-.71-.68a7.719,7.719,0,0,1-2-3.14Z" fill="#656d78"/>
        </g>
        <g id="Grupo_1180047" data-name="Grupo 1180047">
          <path id="Trazado_1003313" data-name="Trazado 1003313" d="M19,26a3.789,3.789,0,0,0,1.43-.27v.01L21,28l-.11.21a3.228,3.228,0,0,1-5.78,0L15,28l.57-2.26v-.01A3.753,3.753,0,0,0,17,26Z" fill="#f0d0b4"/>
        </g>
        <g id="Grupo_1180048" data-name="Grupo 1180048">
          <path id="Trazado_1003314" data-name="Trazado 1003314" d="M23,20.49V22a3.585,3.585,0,0,1-.13.99,4,4,0,0,1-2.44,2.74A3.789,3.789,0,0,1,19,26H17a3.753,3.753,0,0,1-1.43-.27,4,4,0,0,1-2.44-2.74A3.585,3.585,0,0,1,13,22V19.14a4,4,0,0,1,1.78-3.33L16,15a8.765,8.765,0,0,0,5.54,3.71A1.811,1.811,0,0,1,23,20.49Z" fill="#f0d0b4"/>
        </g>
      </g>
      <g id="Grupo_1180050" data-name="Grupo 1180050">
        <path id="Trazado_1003315" data-name="Trazado 1003315" d="M37,47a2,2,0,0,0-2-2H33a2,2,0,0,0-2,2,2,2,0,0,0-2,2v2a2,2,0,0,0,2,2,2,2,0,0,0,2,2h2a2,2,0,0,0,2-2,2,2,0,0,0,2-2V49A2,2,0,0,0,37,47Zm0,4H35v2H33V51H31V49h2V47h2v2l2,0Z"/>
        <path id="Trazado_1003316" data-name="Trazado 1003316" d="M41,41H27a2,2,0,0,0-2,2V57a2,2,0,0,0,2,2H41a2,2,0,0,0,2-2V43A2,2,0,0,0,41,41ZM27,57V43H41V57Z"/>
        <path id="Trazado_1003317" data-name="Trazado 1003317" d="M11,57h2v2H11Z"/>
        <path id="Trazado_1003318" data-name="Trazado 1003318" d="M15,57h2v2H15Z"/>
        <path id="Trazado_1003319" data-name="Trazado 1003319" d="M19,57h2v2H19Z"/>
        <path id="Trazado_1003320" data-name="Trazado 1003320" d="M11,53h6v2H11Z"/>
        <path id="Trazado_1003321" data-name="Trazado 1003321" d="M11,49H21v2H11Z"/>
        <path id="Trazado_1003322" data-name="Trazado 1003322" d="M11,45H21v2H11Z"/>
        <path id="Trazado_1003323" data-name="Trazado 1003323" d="M11,41h4v2H11Z"/>
        <path id="Trazado_1003324" data-name="Trazado 1003324" d="M17,41h4v2H17Z"/>
        <path id="Trazado_1003325" data-name="Trazado 1003325" d="M61,1H39a2,2,0,0,0-2,2V5H35V3a2,2,0,0,0-2-2H31a2,2,0,0,0-2,2V5H3A2,2,0,0,0,1,7V37a2,2,0,0,0,2,2H7V61a2,2,0,0,0,2,2H45a2,2,0,0,0,2-2V51H61a2,2,0,0,0,2-2V3A2,2,0,0,0,61,1ZM31,3h2V5H31ZM9,61V39H33a2,2,0,0,0,2-2V19H33V37H3V7H29V9H5V35H31V19H29V30.572a10.321,10.321,0,0,0-6.189-3.323l-1-.144-.213-.851a4.994,4.994,0,0,0,2.117-2.644l.592-.565A8.688,8.688,0,0,0,27,16.752V16a7.04,7.04,0,0,0-1.4-4.2,6.912,6.912,0,0,0-.717-.8H29v4a2,2,0,0,0,2,2h2a2,2,0,0,0,2-2V9H33v6H31V7H45V61ZM24,13a5.028,5.028,0,0,1,1,3v.752a6.62,6.62,0,0,1-1.018,3.539,2.821,2.821,0,0,0-2.251-2.566,7.651,7.651,0,0,1-4.9-3.281l-.555-.832-2.051,1.367A4.992,4.992,0,0,0,12,19.141v1.12a6.6,6.6,0,0,1-1-3.509V16a5,5,0,0,1,5-5h4a5.025,5.025,0,0,1,4,2ZM9.446,19.5a8.712,8.712,0,0,0,2.25,3.544l.593.565a4.994,4.994,0,0,0,2.117,2.644l-.213.851-1,.144A10.317,10.317,0,0,0,7,30.572V11h4.117a6.912,6.912,0,0,0-.717.8A7.04,7.04,0,0,0,9,16v.752A8.658,8.658,0,0,0,9.446,19.5Zm4.027,9.728.991-.141a4.224,4.224,0,0,0,7.072,0l.991.141A8.325,8.325,0,0,1,28.347,33H7.653a8.325,8.325,0,0,1,5.82-3.772Zm6.461-1.368a2.21,2.21,0,0,1-3.868,0l.233-.93A4.911,4.911,0,0,0,17,27h2a4.94,4.94,0,0,0,.7-.071ZM19,25H17a3,3,0,0,1-3-3V19.141a2.992,2.992,0,0,1,1.336-2.5l.429-.286a9.627,9.627,0,0,0,5.576,3.329.822.822,0,0,1,.659.8V22a3,3,0,0,1-3,3ZM47,8.414l4,4V31H47ZM61,49H47V47h4V45H47V43H59V41H47V39H59V37H47V33h4a2,2,0,0,0,2-2V12.414A1.986,1.986,0,0,0,52.414,11L47,5.586A2.011,2.011,0,0,0,45.586,5H39V3H61Z"/>
        <path id="Trazado_1003326" data-name="Trazado 1003326" d="M53,45h6v2H53Z"/>
        <path id="Trazado_1003327" data-name="Trazado 1003327" d="M55,33h4v2H55Z"/>
      </g>
    </g>
  </g>
</svg>
