<svg xmlns="http://www.w3.org/2000/svg" width="42.759" height="30.297" viewBox="0 0 42.759 30.297">
  <g id="Grupo_1183273" data-name="Grupo 1183273" transform="translate(0 -74.611)">
    <g id="Grupo_1183268" data-name="Grupo 1183268" transform="translate(36.53 91.598)">
      <g id="Grupo_1183267" data-name="Grupo 1183267">
        <path id="Trazado_1009435" data-name="Trazado 1009435" d="M438.922,278.344a.838.838,0,0,0-1.328,1.024,6.289,6.289,0,0,1,1.318,3.873.838.838,0,0,0,1.677,0A7.952,7.952,0,0,0,438.922,278.344Z" transform="translate(-437.419 -278.017)" fill="#3e5d56"/>
      </g>
    </g>
    <g id="Grupo_1183270" data-name="Grupo 1183270" transform="translate(0 74.611)">
      <g id="Grupo_1183269" data-name="Grupo 1183269">
        <path id="Trazado_1009436" data-name="Trazado 1009436" d="M35.216,86.3a6.389,6.389,0,1,0-7.134,0,11.046,11.046,0,0,0-3.429,1.9,4.714,4.714,0,0,0-6.545,0,11.053,11.053,0,0,0-3.43-1.9,6.389,6.389,0,1,0-7.133,0A11.128,11.128,0,0,0,0,96.8c0,.007,0,.014,0,.022,0,1.287.731,3.187,4.216,4.927a32.114,32.114,0,0,0,9.868,2.7,57.687,57.687,0,0,0,14.592,0,32.112,32.112,0,0,0,9.867-2.7c3.484-1.741,4.216-3.64,4.216-4.927A11.129,11.129,0,0,0,35.216,86.3ZM26.937,81a4.713,4.713,0,1,1,4.713,4.712A4.718,4.718,0,0,1,26.937,81ZM18.878,89.86a3.044,3.044,0,0,1,5,0h0a3.045,3.045,0,1,1-5,0ZM6.4,81a4.712,4.712,0,1,1,4.712,4.712A4.718,4.718,0,0,1,6.4,81Zm6.958,21.647a29.089,29.089,0,0,1-8.39-2.4c-2.115-1.056-3.281-2.269-3.288-3.417,0,0,0-.007,0-.01a9.432,9.432,0,0,1,15.444-7.268,4.72,4.72,0,0,0,1.245,5.676A8.037,8.037,0,0,0,13.355,102.647Zm14.372.224a56.262,56.262,0,0,1-12.7,0v-.206a6.348,6.348,0,0,1,12.7,0Zm10.066-2.623a29.082,29.082,0,0,1-8.389,2.4,8.037,8.037,0,0,0-5.012-7.418,4.719,4.719,0,0,0,1.245-5.676,9.432,9.432,0,0,1,15.444,7.268C41.082,97.972,39.914,99.189,37.794,100.249Z" transform="translate(0 -74.611)" fill="#3e5d56"/>
      </g>
    </g>
    <g id="Grupo_1183272" data-name="Grupo 1183272" transform="translate(34.711 89.955)">
      <g id="Grupo_1183271" data-name="Grupo 1183271">
        <path id="Trazado_1009437" data-name="Trazado 1009437" d="M416.44,258.344a.839.839,0,0,0,0,1.677A.839.839,0,0,0,416.44,258.344Z" transform="translate(-415.63 -258.344)" fill="#3e5d56"/>
      </g>
    </g>
  </g>
</svg>
