<svg id="Grupo_1181744" data-name="Grupo 1181744" xmlns="http://www.w3.org/2000/svg" xmlns:xlink="http://www.w3.org/1999/xlink" width="178.117" height="114.168" viewBox="0 0 178.117 114.168">
  <defs>
    <clipPath id="clip-path">
      <rect id="Rectángulo_456119" data-name="Rectángulo 456119" width="178.117" height="114.168" fill="none"/>
    </clipPath>
    <clipPath id="clip-path-3">
      <rect id="Rectángulo_456012" data-name="Rectángulo 456012" width="3.091" height="5.965" fill="none"/>
    </clipPath>
    <clipPath id="clip-path-4">
      <rect id="Rectángulo_456013" data-name="Rectángulo 456013" width="26.355" height="15.276" fill="none"/>
    </clipPath>
    <clipPath id="clip-path-5">
      <rect id="Rectángulo_456014" data-name="Rectángulo 456014" width="23.832" height="35.182" fill="none"/>
    </clipPath>
    <clipPath id="clip-path-6">
      <rect id="Rectángulo_456015" data-name="Rectángulo 456015" width="8.177" height="5.979" fill="none"/>
    </clipPath>
    <clipPath id="clip-path-7">
      <rect id="Rectángulo_456016" data-name="Rectángulo 456016" width="19.374" height="40.753" fill="none"/>
    </clipPath>
    <clipPath id="clip-path-8">
      <rect id="Rectángulo_456017" data-name="Rectángulo 456017" width="25.997" height="41.656" fill="none"/>
    </clipPath>
  </defs>
  <g id="Grupo_1181743" data-name="Grupo 1181743" clip-path="url(#clip-path)">
    <g id="Grupo_1181742" data-name="Grupo 1181742">
      <g id="Grupo_1181741" data-name="Grupo 1181741" clip-path="url(#clip-path)">
        <path id="Trazado_1006968" data-name="Trazado 1006968" d="M172.266,111.023c1.16-2.208,3.979-8.709,5.562-22.078,2.027-17.122-7.209-28.386-9.462-34.469s4.956-18.924-5.407-31.54-27.71-12.391-37.4-7.434-22.078,10.138-31.99.676S76.726,2.2,60.773.249C44.067-1.8,17.5,8.833,19.379,31.355,21.237,53.57,5.569,50.635,1.205,71.823c-5.172,25.106,7.89,37.07,9.309,39.2Z" transform="translate(0 0)" fill="#d6f5ff"/>
        <rect id="Rectángulo_456008" data-name="Rectángulo 456008" width="126.227" height="43.213" transform="translate(15.911 68.7)" fill="#65bfce"/>
        <path id="Trazado_1006969" data-name="Trazado 1006969" d="M180.263,285.478h-2.576V242.265H52.133v43.213H49.557V239.689H180.263Z" transform="translate(-35.886 -173.565)" fill="#91d3e2"/>
        <rect id="Rectángulo_456009" data-name="Rectángulo 456009" width="128.13" height="2.576" transform="translate(14.959 88.111)" fill="#91d3e2"/>
        <rect id="Rectángulo_456010" data-name="Rectángulo 456010" width="2.576" height="43.611" transform="translate(54.55 67.412)" fill="#91d3e2"/>
        <rect id="Rectángulo_456011" data-name="Rectángulo 456011" width="2.576" height="43.611" transform="translate(100.923 67.412)" fill="#91d3e2"/>
        <path id="Trazado_1006970" data-name="Trazado 1006970" d="M61.381,292.757s-12.88-28.015-8.05-37.031,25.117-6.762,29.625,1.61,11.27,35.421,11.27,35.421Z" transform="translate(-37.833 -180.982)" fill="#05a"/>
        <path id="Trazado_1006971" data-name="Trazado 1006971" d="M110.159,263.359a10.409,10.409,0,0,0-2.907-3.273c-3.755-1.516-11.335-3.681-16.05,1.034-5.223,5.223,5.585,28.424,11.053,37.659h19.174s-6.762-27.049-11.27-35.421" transform="translate(-65.037 -187.005)" fill="#1a78c6"/>
        <path id="Trazado_1006972" data-name="Trazado 1006972" d="M494.052,292.757s12.88-28.015,8.05-37.031-25.117-6.762-29.625,1.61-11.27,35.421-11.27,35.421Z" transform="translate(-333.973 -180.982)" fill="#1a78c6"/>
        <path id="Trazado_1006973" data-name="Trazado 1006973" d="M477.167,260.208a11.773,11.773,0,0,0-4.69,4.445c-4.508,8.372-11.27,35.421-11.27,35.421h21.234c4.438-9.566,13.057-29.7,9.991-35.681-2.189-4.273-9.228-4.7-15.265-4.184" transform="translate(-333.973 -188.298)" fill="#05a"/>
        <path id="Trazado_1006974" data-name="Trazado 1006974" d="M339.532,343.32a25.282,25.282,0,0,0,3.842.549c1.317,0,5.09-2,5.826-1.262s-2.862,1.7-2.094,2.47,7.135,1.043,6.531,1.647-4.171.329-4.171.329,4.446.439,4.446,1.043-4.391.22-4.391.22,3.876.555,3.348,1.084-3.669,0-3.669,0,2.776.413,2.077,1.112a15.711,15.711,0,0,1-6.476-.823c-1.921-.878-2.762-1.866-3.11-1.866s-4.025-.659-4.025-.659Z" transform="translate(-244.513 -247.973)" fill="#b56167"/>
        <path id="Trazado_1006975" data-name="Trazado 1006975" d="M231.178,230.943s3.041,20.323,7.3,23.162,17.84,6.69,17.84,6.69.811,4.866-2.433,7.5c0,0-15.408-3.041-20.882-6.893s-11.961-27.166-11.15-29.6,9.326-.861,9.326-.861" transform="translate(-160.599 -166.87)" fill="#f0edf2"/>
        <path id="Trazado_1006976" data-name="Trazado 1006976" d="M268.384,177.932a.941.941,0,0,1-.191-.017l.126-.589a1.011,1.011,0,0,0,.831-.361c.883-.873,2.1-3.889.327-14.267l.594-.1c1.74,10.186.672,13.687-.531,14.83a1.675,1.675,0,0,1-1.156.506" transform="translate(-194.206 -117.74)" fill="#39657d"/>
        <path id="Trazado_1006977" data-name="Trazado 1006977" d="M242.47,133.635a39.763,39.763,0,0,0,.009-7.219c-.449-4.7-5.442-5.8-5.442-5.8s-8.639-3.933-12.27,3.462-.329,12.431-.591,14.111a52.961,52.961,0,0,1-2.068,6.348l7.763,4.068s.689-3.07.9-4.435a2.242,2.242,0,0,1,1.766-1.661c2.843,1.09,6.088,1.833,8.295-2.163a12.253,12.253,0,0,0,1.1-3.174,3.1,3.1,0,0,0,1.615-.43c.328-.328-.644-2.281-1.078-3.108" transform="translate(-160.834 -86.585)" fill="#f4b3bd"/>
        <path id="Trazado_1006978" data-name="Trazado 1006978" d="M284.452,185.974l-2.462-.7s.093,2.323.859,2.323,1.6-1.626,1.6-1.626" transform="translate(-204.197 -134.164)" fill="#fff"/>
        <path id="Trazado_1006979" data-name="Trazado 1006979" d="M288.031,163.362a.79.79,0,1,1-.79-.79.789.789,0,0,1,.79.79" transform="translate(-207.428 -117.723)" fill="#39657d"/>
        <path id="Trazado_1006980" data-name="Trazado 1006980" d="M281.99,155.649a10.2,10.2,0,0,1,3.377,0s.329-1.331-1-1.331a3.594,3.594,0,0,0-2.381,1.331" transform="translate(-204.197 -111.746)" fill="#39657d"/>
        <path id="Trazado_1006981" data-name="Trazado 1006981" d="M238.994,107.631a3.3,3.3,0,0,1,3.748,2.275,8.163,8.163,0,0,1,.352,3.545c-.492,3.151-3.869,3.9-6.579,3.293a10.708,10.708,0,0,1-4.066-2.092s.059,3.152-1.58,4.349-1.02,2.666-1.755,2.551.4-3.086-1.483-3.6c-1.864-.508-2.346,2.935-1.1,4.024l-.424,1.355s-1.858,2.7-4.024,2.8-3.261-.948-4.528-5.236-1.721-9.217.623-12.51,5.237-1.981,5.319-2.506,3.1-3.316,7.4-1.11c2.656,1.361,5.077,3.386,8.1,2.865" transform="translate(-156.782 -75.257)" fill="#05a"/>
        <g id="Grupo_1181725" data-name="Grupo 1181725" transform="translate(68.614 51.621)" opacity="0.5" style="mix-blend-mode: multiply;isolation: isolate">
          <g id="Grupo_1181724" data-name="Grupo 1181724">
            <g id="Grupo_1181723" data-name="Grupo 1181723" clip-path="url(#clip-path-3)">
              <path id="Trazado_1006982" data-name="Trazado 1006982" d="M248.935,187.119c-.86,1.037,1.107,5.965,1.107,5.965a2.242,2.242,0,0,1,1.766-1.661s-3.59-2.75-2.873-4.3" transform="translate(-248.717 -187.119)" fill="#f7bfc5"/>
            </g>
          </g>
        </g>
        <g id="Grupo_1181728" data-name="Grupo 1181728" transform="translate(59.913 35.598)" opacity="0.5" style="mix-blend-mode: multiply;isolation: isolate">
          <g id="Grupo_1181727" data-name="Grupo 1181727">
            <g id="Grupo_1181726" data-name="Grupo 1181726" clip-path="url(#clip-path-4)">
              <path id="Trazado_1006983" data-name="Trazado 1006983" d="M243.532,131.871c-6.081,2.352-13.109-1.555-14.241-2.831a8.941,8.941,0,0,1-2.658,6.243c-3.867,3.91-7.425,1.838-9.456-.131a26.734,26.734,0,0,0,.86,3.923c1.267,4.287,2.361,5.327,4.528,5.236s4.024-2.8,4.024-2.8l.424-1.356c-1.245-1.089-.763-4.532,1.1-4.024,1.887.515.747,3.486,1.483,3.6s.116-1.355,1.755-2.551,1.58-4.349,1.58-4.349A10.707,10.707,0,0,0,237,134.928c2.641.587,5.913-.106,6.534-3.057" transform="translate(-217.177 -129.04)" fill="#05a"/>
            </g>
          </g>
        </g>
        <path id="Trazado_1006984" data-name="Trazado 1006984" d="M272.331,209.183a11.174,11.174,0,0,1-2.248-.235c-10.38-2.13-11.977-28.088-12.122-30.976-3.2-1.134-3.557-13.736-3.588-15.2l.6-.013c.083,3.944.842,14.27,3.325,14.684l.241.04.01.244c.012.285,1.35,28.52,11.652,30.633,7.516,1.541,11.823-5.094,15.623-10.948A36.648,36.648,0,0,1,290,191.739c5-5,8.129-5.077,8.26-5.078l0,.6c-.028,0-3.04.1-7.837,4.9a36.217,36.217,0,0,0-4.09,5.573c-3.346,5.155-7.429,11.445-14,11.445" transform="translate(-184.198 -117.856)" fill="#39657d"/>
        <path id="Trazado_1006985" data-name="Trazado 1006985" d="M254.283,160.869a.727.727,0,1,1-.727-.727.727.727,0,0,1,.727.727" transform="translate(-183.08 -115.963)" fill="#fff"/>
        <path id="Trazado_1006986" data-name="Trazado 1006986" d="M176.6,207.514a24.264,24.264,0,0,1,12.667,9.338c4.458,6.344,4.545,45.135,4.545,45.135l-32.6.167a116.488,116.488,0,0,0,4.452-17.422c1.451-9.234,1.686-23.479,4.057-29.144,3.614-8.633,6.878-8.075,6.878-8.075" transform="translate(-116.737 -150.261)" fill="#fff"/>
        <path id="Trazado_1006987" data-name="Trazado 1006987" d="M210.786,267.2c-3.262.3-6.673-2.669-6.821-.3-.08,1.278-.761,3.89-.98,6.259l20.02-.1s-.45-37.907-4.908-44.251c-1.816-2.584-6.927-4.9-8.808-6.011-4.569.987-5.656.876-7.549,4.365,0,0-1.631,2.817,4.152,11.715s12.6,14.236,14.087,16.9,1.038,7.118-1.928,7.859-12.011-9.194-11.418-6.377,7.414,9.639,4.152,9.935" transform="translate(-145.932 -161.333)" fill="#f0edf2"/>
        <path id="Trazado_1006988" data-name="Trazado 1006988" d="M216.984,201.618a19.923,19.923,0,0,1,6.259,7.073c2.433,4.663,1.419,5.068,1.419,5.068l4.866,1.419-4.055,2.433,8.357,24.245s-.653-21.609-2.478-27.489-12.164-15-12.164-15Z" transform="translate(-157.124 -144.366)" fill="#f0edf2"/>
        <path id="Trazado_1006989" data-name="Trazado 1006989" d="M333.579,371.892s-.638-.094.581,1.951,2.686,2.966,3.127,2.745a2.476,2.476,0,0,0,.528-3.136c-.783-1.61-4.236-1.559-4.236-1.559" transform="translate(-241.433 -269.297)" fill="#dd4c38"/>
        <path id="Trazado_1006990" data-name="Trazado 1006990" d="M316.065,372.162a23.05,23.05,0,0,0-2.152,1.163,9.072,9.072,0,0,1-2.757,2.509c-1.593.894-2.884,1.891-3.319,1.386s1.262-1.5,1.751-1.919a2.3,2.3,0,0,0,.625-1.179,7.821,7.821,0,0,0-2.418.29c-1.352.372-2.867,2.615-3.424,2.391-.85-.341,1.52-2.934,1.52-2.934s-2.419,2.437-2.8,2,2.073-3.016,2.073-3.016a9.742,9.742,0,0,1,2.689-1.809c1.364-.528,2.962-.618,4.715-1.117s4.007-2.836,4.007-2.836,3.445,2.165,2.75,3.142a20.217,20.217,0,0,1-3.266,1.931" transform="translate(-219.451 -265.819)" fill="#df9296"/>
        <path id="Trazado_1006991" data-name="Trazado 1006991" d="M361.008,227.976s-5.221,1.684-7.378,9.761-3.412,16.112-5.27,18.6-14.342,11.343-14.342,11.343a7.681,7.681,0,0,1,3.134,2.1c1.308,1.521.574,2.6.574,2.6s14.748-5.8,18.04-12.158,5.671-24.579,5.935-28.108-.692-4.133-.692-4.133" transform="translate(-241.871 -165.084)" fill="#cd4438"/>
        <g id="Grupo_1181731" data-name="Grupo 1181731" transform="translate(95.408 72.11)" style="mix-blend-mode: multiply;isolation: isolate">
          <g id="Grupo_1181730" data-name="Grupo 1181730">
            <g id="Grupo_1181729" data-name="Grupo 1181729" clip-path="url(#clip-path-5)">
              <path id="Trazado_1006992" data-name="Trazado 1006992" d="M364.325,284.411c2.457-4.749,4.406-16.1,5.346-23.024a27.218,27.218,0,0,0-4.448.438s-.185,14.542-2.262,18.989c-1.752,3.751-13.49,11.107-17.121,13.317,1.124,1.435.446,2.437.446,2.437s14.748-5.8,18.04-12.158" transform="translate(-345.839 -261.387)" fill="#dd4c38"/>
            </g>
          </g>
        </g>
        <path id="Trazado_1006993" data-name="Trazado 1006993" d="M445.644,199.185a11.688,11.688,0,0,0,2.152-1.307c.516-.516.281-6.9.281-6.9H456.2s-.723,6.23,0,6.953a2.07,2.07,0,0,0,1.512.659s1.586,4.658-3.852,6.646-9.225-1.43-9.225-3.61,1.009-2.438,1.009-2.438" transform="translate(-321.972 -138.291)" fill="#f7bfc5"/>
        <g id="Grupo_1181734" data-name="Grupo 1181734" transform="translate(126.051 52.685)" opacity="0.5" style="mix-blend-mode: multiply;isolation: isolate">
          <g id="Grupo_1181733" data-name="Grupo 1181733">
            <g id="Grupo_1181732" data-name="Grupo 1181732" clip-path="url(#clip-path-6)">
              <path id="Trazado_1006994" data-name="Trazado 1006994" d="M465.074,191.16c.013-.117.02-.184.02-.184h-8.123s.15,4.077-.054,5.979c2.523-.362,6.957-1.593,8.157-5.795" transform="translate(-456.917 -190.976)" fill="#f7bfc5"/>
            </g>
          </g>
        </g>
        <path id="Trazado_1006995" data-name="Trazado 1006995" d="M409.114,219.164s-2.15,4.78,4.392,5.27,7.676-5.868,7.676-5.868,6.317.57,8.763,5.968-.744,45.648-.744,45.648H394.188s5.149-13.183,5.148-21.175.551-20.9,2.4-25.7c.666-1.731,7.381-4.141,7.381-4.141" transform="translate(-285.442 -158.27)" fill="#dd4c38"/>
        <g id="Grupo_1181737" data-name="Grupo 1181737" transform="translate(126.051 71.16)" style="mix-blend-mode: multiply;isolation: isolate">
          <g id="Grupo_1181736" data-name="Grupo 1181736">
            <g id="Grupo_1181735" data-name="Grupo 1181735" clip-path="url(#clip-path-7)">
              <path id="Trazado_1006996" data-name="Trazado 1006996" d="M469.076,259.881v14.885c0,5.592-6.922,6.846-6.374,8.686s4.181,2.988,3.406,5.375-9.19,2.458-9.19,7.212a5.809,5.809,0,0,0,.722,2.66h16.986s2.219-28,1.536-40.423a7.275,7.275,0,0,0-7.085,1.605" transform="translate(-456.918 -257.946)" fill="#dd4c38"/>
            </g>
          </g>
        </g>
        <path id="Trazado_1006997" data-name="Trazado 1006997" d="M444.082,218.358s-.948-.553-1.738.711S441,224.363,446.61,225s8.218-2.212,8.771-3.24,1.264-2.845,1.106-3.556-1.442-.378-1.442-.378.379,5.661-6.653,5.74-4.311-5.2-4.311-5.2" transform="translate(-319.957 -157.675)" fill="#fff"/>
        <path id="Trazado_1006998" data-name="Trazado 1006998" d="M412.5,360.482a31.028,31.028,0,0,1-5.776.147,9,9,0,0,0-5.474.476c-2.821.918-7.942,4.142-6.85,4.623s4.421-1.756,4.421-1.756-3.846,2.691-3.449,3.2,4.343-2.054,4.343-2.054-2.946,2.86-2.038,2.973,3.329-2.237,3.329-2.237-2.195,2.377-1.344,2.483,2.784-2.016,2.784-2.016,2.892-.1,3.848-.848a3.2,3.2,0,0,1,2.3-.973c.68.084,5.088.391,5.088.391Z" transform="translate(-285.486 -260.984)" fill="#df9296"/>
        <path id="Trazado_1006999" data-name="Trazado 1006999" d="M467.484,224.288s4.99,1.818,7.712,10.337c2.762,8.643,4.269,26.737,1.286,29.987s-23.744,3.3-23.744,3.3a37.422,37.422,0,0,1-1.093-6.423s17.107-2.445,18.016-3.437-4.895-21.441-5.1-26.3a9.5,9.5,0,0,1,2.925-7.459" transform="translate(-327.049 -162.413)" fill="#dd4c38"/>
        <g id="Grupo_1181740" data-name="Grupo 1181740" transform="translate(125.07 63.842)" style="mix-blend-mode: multiply;isolation: isolate">
          <g id="Grupo_1181739" data-name="Grupo 1181739">
            <g id="Grupo_1181738" data-name="Grupo 1181738" clip-path="url(#clip-path-8)">
              <path id="Trazado_1007000" data-name="Trazado 1007000" d="M471.555,231.417c.039.19.083.384.137.588,0,0,4.215,19.918,4.823,27.107s-.159,9.323-7.068,10.5c-4.957.847-12.321.779-16.086.673.3,1.559.62,2.784.62,2.784s20.761-.049,23.744-3.3,1.476-21.344-1.286-29.987a19.521,19.521,0,0,0-4.885-8.37" transform="translate(-453.362 -231.417)" fill="#dd4c38"/>
            </g>
          </g>
        </g>
        <path id="Trazado_1007001" data-name="Trazado 1007001" d="M451.252,346.241a.151.151,0,0,1-.025-.3c.146-.025,14.592-2.447,17.807-3.3a5.493,5.493,0,0,1,5.03,1.23,4.181,4.181,0,0,0-1.8-1.82c-.442-.239-.632-.429-.619-.617a.289.289,0,0,1,.218-.25,3.99,3.99,0,0,1,2.975.824.151.151,0,0,1-.213.213,3.8,3.8,0,0,0-2.667-.754,1.362,1.362,0,0,0,.45.319,4.138,4.138,0,0,1,2.179,2.626.151.151,0,0,1-.264.125,5.336,5.336,0,0,0-5.207-1.6c-3.229.86-17.689,3.285-17.835,3.309l-.025,0" transform="translate(-326.655 -247.016)" fill="#dd4c38"/>
        <path id="Trazado_1007002" data-name="Trazado 1007002" d="M499.4,248.881a.15.15,0,0,1-.145-.108c-2.681-9.059-.913-11.829-.836-11.943a.151.151,0,0,1,.25.168c-.018.027-1.755,2.8.875,11.689a.151.151,0,0,1-.1.187.157.157,0,0,1-.043.006" transform="translate(-360.452 -171.447)" fill="#dd4c38"/>
        <path id="Trazado_1007003" data-name="Trazado 1007003" d="M431.814,123.509s-2.6,8.682.39,15.792c1.771,4.2,5.129,3.53,8.244,2.673a14.6,14.6,0,0,0,9.362-9.313c1.9-5.286,2.057-11.131-3.93-13.634s-12.63.647-14.066,4.483" transform="translate(-311.928 -85.541)" fill="#f7bfc5"/>
        <path id="Trazado_1007004" data-name="Trazado 1007004" d="M437.853,169.178a.748.748,0,1,1-.771-.724.748.748,0,0,1,.771.724" transform="translate(-315.978 -121.982)" fill="#482320"/>
        <path id="Trazado_1007005" data-name="Trazado 1007005" d="M431.949,161.932a9.662,9.662,0,0,1,3.2-.1s.272-1.269-.983-1.23a3.4,3.4,0,0,0-2.214,1.33" transform="translate(-312.786 -116.296)" fill="#482320"/>
        <path id="Trazado_1007006" data-name="Trazado 1007006" d="M457.874,169.683a.748.748,0,1,0,.724-.771.748.748,0,0,0-.724.771" transform="translate(-331.559 -122.313)" fill="#482320"/>
        <path id="Trazado_1007007" data-name="Trazado 1007007" d="M458.822,162.327a9.659,9.659,0,0,0-3.2.1s-.351-1.25.9-1.289a3.4,3.4,0,0,1,2.293,1.189" transform="translate(-329.898 -116.683)" fill="#482320"/>
        <path id="Trazado_1007008" data-name="Trazado 1007008" d="M443.045,182.635a4.782,4.782,0,0,0,2.506,0,2.16,2.16,0,0,1-1.517.583c-.977,0-.989-.583-.989-.583" transform="translate(-320.821 -132.251)" fill="#b56167"/>
        <path id="Trazado_1007009" data-name="Trazado 1007009" d="M443.937,188.547l3.58-.177s-1.375,2.269-2.584,1.7a1.427,1.427,0,0,1-1-1.524" transform="translate(-321.457 -136.404)" fill="#fff"/>
        <path id="Trazado_1007010" data-name="Trazado 1007010" d="M437.369,119.05a11.466,11.466,0,0,1-10.307.17,3.351,3.351,0,0,0-1.673,2.933c0,1.629-3.106-2.41-2.121-6.185s10.747-6.2,14.212-5.7,3.9,2.415,4.51,3.449a4.343,4.343,0,0,1,3.534,3.541c.722,2.982.862,8.812-2.287,13.164a.824.824,0,0,1-1.486-.339c-.058-.395-.084-1.809.162-1.761,1.3.252,3.093-2.859,1.977-4.1-1.575-1.748-2.868.434-2.868,1.843,0,1.459-1.3-1.26-1.409-2.728s-1.928-1.65-2.244-4.285" transform="translate(-306.36 -79.799)" fill="#482320"/>
        <path id="Trazado_1007011" data-name="Trazado 1007011" d="M425.512,234.6H424.05v8.774h1.462c1.615,0,2.925-1.964,2.925-4.387s-1.31-4.387-2.925-4.387" transform="translate(-307.066 -169.878)" fill="#e4dfe8"/>
        <path id="Trazado_1007012" data-name="Trazado 1007012" d="M419.3,238.984c0,2.423-1.31,4.387-2.925,4.387s-2.925-1.964-2.925-4.387,1.31-4.387,2.925-4.387,2.925,1.964,2.925,4.387" transform="translate(-299.389 -169.878)" fill="#b1a9b9"/>
        <path id="Trazado_1007013" data-name="Trazado 1007013" d="M416.81,240.026h-1.926V245.8h1.926c1.064,0,1.926-1.294,1.926-2.889s-.863-2.889-1.926-2.889" transform="translate(-300.429 -173.809)" fill="#e4dfe8"/>
        <path id="Trazado_1007014" data-name="Trazado 1007014" d="M411.755,242.915c0,1.6-.862,2.889-1.926,2.889s-1.926-1.294-1.926-2.889.862-2.889,1.926-2.889,1.926,1.294,1.926,2.889" transform="translate(-295.373 -173.809)" fill="#b1a9b9"/>
        <path id="Trazado_1007015" data-name="Trazado 1007015" d="M368.177,245.551s3.044-.451,4.375-1.577,3.174-4.3,4.811-4.914,5.835-2.354,5.937-1.536-3.48,2.457-3.48,2.457,4.5-1.433,4.3-.409-4.2,2.047-4.2,2.047,4.607.1,3.685.819-3.583.512-3.583.512,3.378.819,2.559,1.228a6.462,6.462,0,0,1-2.764.1s-2.764,3.174-5.938,3.071l-4.2,2.252Z" transform="translate(-266.607 -171.842)" fill="#b56167"/>
        <path id="Trazado_1007016" data-name="Trazado 1007016" d="M202.645,223.228a5.085,5.085,0,0,0-.015,4.6c2.455,5.048,13.759,18.557,20.369,19.134,5.714.5,27.977-7.7,27.977-7.7s.6-5.677-2.433-6.487l-24.125,4.866s-11.056-13.9-13.36-16.2c-1.864-1.864-6.636-1.553-8.413,1.8" transform="translate(-146.338 -159.52)" fill="#fff"/>
        <path id="Trazado_1007017" data-name="Trazado 1007017" d="M301.233,272.889c-2.043,1.1-23.059,5.525-24.864,7.33-.988.988-.659,1.654-.159,2.056.038,0,.076.01.114.013,5.714.5,27.977-7.7,27.977-7.7s.385-3.632-1.015-5.5c-.146,1.075-.606,3.028-2.052,3.8" transform="translate(-199.663 -194.851)" fill="#f0edf2"/>
        <path id="Trazado_1007018" data-name="Trazado 1007018" d="M86.156,325.93H85.091v-2.507a1.228,1.228,0,0,0-1.227-1.227H77.239a1.228,1.228,0,0,0-1.227,1.227v2.507H74.948v-2.507a2.294,2.294,0,0,1,2.291-2.291h6.625a2.294,2.294,0,0,1,2.291,2.291Z" transform="translate(-54.272 -232.54)" fill="#b1a9b9"/>
        <rect id="Rectángulo_456018" data-name="Rectángulo 456018" width="23.071" height="16.829" transform="translate(11.402 92.79)" fill="#fff"/>
        <rect id="Rectángulo_456019" data-name="Rectángulo 456019" width="6.78" height="16.829" transform="translate(34.473 92.79)" fill="#b1a9b9"/>
        <path id="Trazado_1007019" data-name="Trazado 1007019" d="M74.067,352.184a5.587,5.587,0,1,1-5.588-5.588,5.588,5.588,0,0,1,5.588,5.588" transform="translate(-45.542 -250.98)" fill="#75decb"/>
        <rect id="Rectángulo_456020" data-name="Rectángulo 456020" width="3.59" height="7.54" transform="translate(21.208 97.434)" fill="#fff"/>
        <rect id="Rectángulo_456021" data-name="Rectángulo 456021" width="7.54" height="3.59" transform="translate(19.234 99.409)" fill="#fff"/>
        <path id="Trazado_1007020" data-name="Trazado 1007020" d="M162.991,331.6h-7.145V310.125a3.572,3.572,0,1,1,7.145,0Z" transform="translate(-112.852 -221.983)" fill="#b1a9b9"/>
        <path id="Trazado_1007021" data-name="Trazado 1007021" d="M167.72,331.6h-7.145V310.125a3.572,3.572,0,1,1,7.145,0Z" transform="translate(-116.277 -221.983)" fill="#e4dfe8"/>
        <rect id="Rectángulo_456022" data-name="Rectángulo 456022" width="2.764" height="22.973" transform="translate(46.566 86.646)" fill="#fff"/>
        <rect id="Rectángulo_456023" data-name="Rectángulo 456023" width="0.151" height="22.511" transform="translate(47.079 87.108)" fill="#39657d"/>
        <rect id="Rectángulo_456024" data-name="Rectángulo 456024" width="1.15" height="0.151" transform="translate(47.52 87.601)" fill="#39657d"/>
        <rect id="Rectángulo_456025" data-name="Rectángulo 456025" width="0.693" height="0.151" transform="translate(47.52 88.013)" fill="#39657d"/>
        <rect id="Rectángulo_456026" data-name="Rectángulo 456026" width="0.693" height="0.151" transform="translate(47.52 88.425)" fill="#39657d"/>
        <rect id="Rectángulo_456027" data-name="Rectángulo 456027" width="0.693" height="0.151" transform="translate(47.52 88.837)" fill="#39657d"/>
        <rect id="Rectángulo_456028" data-name="Rectángulo 456028" width="0.693" height="0.151" transform="translate(47.52 89.248)" fill="#39657d"/>
        <rect id="Rectángulo_456029" data-name="Rectángulo 456029" width="1.15" height="0.151" transform="translate(47.52 89.672)" fill="#39657d"/>
        <rect id="Rectángulo_456030" data-name="Rectángulo 456030" width="0.693" height="0.151" transform="translate(47.52 90.084)" fill="#39657d"/>
        <rect id="Rectángulo_456031" data-name="Rectángulo 456031" width="0.693" height="0.151" transform="translate(47.52 90.495)" fill="#39657d"/>
        <rect id="Rectángulo_456032" data-name="Rectángulo 456032" width="0.693" height="0.151" transform="translate(47.52 90.907)" fill="#39657d"/>
        <rect id="Rectángulo_456033" data-name="Rectángulo 456033" width="0.693" height="0.151" transform="translate(47.52 91.319)" fill="#39657d"/>
        <rect id="Rectángulo_456034" data-name="Rectángulo 456034" width="1.15" height="0.151" transform="translate(47.52 91.742)" fill="#39657d"/>
        <rect id="Rectángulo_456035" data-name="Rectángulo 456035" width="0.693" height="0.151" transform="translate(47.52 92.154)" fill="#39657d"/>
        <rect id="Rectángulo_456036" data-name="Rectángulo 456036" width="0.693" height="0.151" transform="translate(47.52 92.566)" fill="#39657d"/>
        <rect id="Rectángulo_456037" data-name="Rectángulo 456037" width="0.693" height="0.151" transform="translate(47.52 92.977)" fill="#39657d"/>
        <rect id="Rectángulo_456038" data-name="Rectángulo 456038" width="0.693" height="0.151" transform="translate(47.52 93.389)" fill="#39657d"/>
        <rect id="Rectángulo_456039" data-name="Rectángulo 456039" width="1.15" height="0.151" transform="translate(47.52 93.812)" fill="#39657d"/>
        <rect id="Rectángulo_456040" data-name="Rectángulo 456040" width="0.693" height="0.151" transform="translate(47.52 94.224)" fill="#39657d"/>
        <rect id="Rectángulo_456041" data-name="Rectángulo 456041" width="0.693" height="0.151" transform="translate(47.52 94.636)" fill="#39657d"/>
        <rect id="Rectángulo_456042" data-name="Rectángulo 456042" width="0.693" height="0.151" transform="translate(47.52 95.048)" fill="#39657d"/>
        <rect id="Rectángulo_456043" data-name="Rectángulo 456043" width="0.693" height="0.151" transform="translate(47.52 95.46)" fill="#39657d"/>
        <rect id="Rectángulo_456044" data-name="Rectángulo 456044" width="1.15" height="0.151" transform="translate(47.52 95.883)" fill="#39657d"/>
        <rect id="Rectángulo_456045" data-name="Rectángulo 456045" width="0.693" height="0.151" transform="translate(47.52 96.295)" fill="#39657d"/>
        <rect id="Rectángulo_456046" data-name="Rectángulo 456046" width="0.693" height="0.151" transform="translate(47.52 96.706)" fill="#39657d"/>
        <rect id="Rectángulo_456047" data-name="Rectángulo 456047" width="0.693" height="0.151" transform="translate(47.52 97.118)" fill="#39657d"/>
        <rect id="Rectángulo_456048" data-name="Rectángulo 456048" width="0.693" height="0.151" transform="translate(47.52 97.53)" fill="#39657d"/>
        <rect id="Rectángulo_456049" data-name="Rectángulo 456049" width="1.15" height="0.151" transform="translate(47.52 97.953)" fill="#39657d"/>
        <rect id="Rectángulo_456050" data-name="Rectángulo 456050" width="0.693" height="0.151" transform="translate(47.52 98.365)" fill="#39657d"/>
        <rect id="Rectángulo_456051" data-name="Rectángulo 456051" width="0.693" height="0.151" transform="translate(47.52 98.777)" fill="#39657d"/>
        <rect id="Rectángulo_456052" data-name="Rectángulo 456052" width="0.693" height="0.151" transform="translate(47.52 99.188)" fill="#39657d"/>
        <rect id="Rectángulo_456053" data-name="Rectángulo 456053" width="0.693" height="0.151" transform="translate(47.52 99.6)" fill="#39657d"/>
        <rect id="Rectángulo_456054" data-name="Rectángulo 456054" width="1.15" height="0.151" transform="translate(47.52 100.023)" fill="#39657d"/>
        <rect id="Rectángulo_456055" data-name="Rectángulo 456055" width="0.693" height="0.151" transform="translate(47.52 100.435)" fill="#39657d"/>
        <rect id="Rectángulo_456056" data-name="Rectángulo 456056" width="0.693" height="0.151" transform="translate(47.52 100.847)" fill="#39657d"/>
        <rect id="Rectángulo_456057" data-name="Rectángulo 456057" width="0.693" height="0.151" transform="translate(47.52 101.259)" fill="#39657d"/>
        <rect id="Rectángulo_456058" data-name="Rectángulo 456058" width="0.693" height="0.151" transform="translate(47.52 101.671)" fill="#39657d"/>
        <rect id="Rectángulo_456059" data-name="Rectángulo 456059" width="1.15" height="0.151" transform="translate(47.52 102.094)" fill="#39657d"/>
        <rect id="Rectángulo_456060" data-name="Rectángulo 456060" width="0.693" height="0.151" transform="translate(47.52 102.506)" fill="#39657d"/>
        <rect id="Rectángulo_456061" data-name="Rectángulo 456061" width="0.693" height="0.151" transform="translate(47.52 102.917)" fill="#39657d"/>
        <rect id="Rectángulo_456062" data-name="Rectángulo 456062" width="0.693" height="0.151" transform="translate(47.52 103.329)" fill="#39657d"/>
        <rect id="Rectángulo_456063" data-name="Rectángulo 456063" width="0.693" height="0.151" transform="translate(47.52 103.741)" fill="#39657d"/>
        <rect id="Rectángulo_456064" data-name="Rectángulo 456064" width="1.15" height="0.151" transform="translate(47.52 104.164)" fill="#39657d"/>
        <rect id="Rectángulo_456065" data-name="Rectángulo 456065" width="0.693" height="0.151" transform="translate(47.52 104.576)" fill="#39657d"/>
        <rect id="Rectángulo_456066" data-name="Rectángulo 456066" width="0.693" height="0.151" transform="translate(47.52 104.988)" fill="#39657d"/>
        <rect id="Rectángulo_456067" data-name="Rectángulo 456067" width="0.693" height="0.151" transform="translate(47.52 105.399)" fill="#39657d"/>
        <rect id="Rectángulo_456068" data-name="Rectángulo 456068" width="0.693" height="0.151" transform="translate(47.52 105.811)" fill="#39657d"/>
        <rect id="Rectángulo_456069" data-name="Rectángulo 456069" width="1.15" height="0.151" transform="translate(47.52 106.234)" fill="#39657d"/>
        <rect id="Rectángulo_456070" data-name="Rectángulo 456070" width="0.693" height="0.151" transform="translate(47.52 106.646)" fill="#39657d"/>
        <rect id="Rectángulo_456071" data-name="Rectángulo 456071" width="0.693" height="0.151" transform="translate(47.52 107.058)" fill="#39657d"/>
        <rect id="Rectángulo_456072" data-name="Rectángulo 456072" width="0.693" height="0.151" transform="translate(47.52 107.47)" fill="#39657d"/>
        <rect id="Rectángulo_456073" data-name="Rectángulo 456073" width="0.693" height="0.151" transform="translate(47.52 107.882)" fill="#39657d"/>
        <rect id="Rectángulo_456074" data-name="Rectángulo 456074" width="20.188" height="2.822" transform="translate(42.994 106.797)" fill="#05a"/>
        <rect id="Rectángulo_456075" data-name="Rectángulo 456075" width="16.169" height="2.822" transform="translate(42.994 106.797)" fill="#1a78c6"/>
        <path id="Trazado_1007022" data-name="Trazado 1007022" d="M182.9,397.352H12.442a2.275,2.275,0,0,0,0,4.549H182.9a2.275,2.275,0,1,0,0-4.549" transform="translate(-7.362 -287.733)" fill="#482320"/>
        <rect id="Rectángulo_456076" data-name="Rectángulo 456076" width="23.787" height="32.533" transform="translate(25.97 26.656)" fill="#ffb0c9"/>
        <rect id="Rectángulo_456077" data-name="Rectángulo 456077" width="20.978" height="28.691" transform="translate(27.374 28.577)" fill="#fff"/>
        <path id="Trazado_1007023" data-name="Trazado 1007023" d="M127.443,93.287a.831.831,0,0,1-.67-1.072.831.831,0,0,0-.792-1.081h-4.068a.831.831,0,0,0-.792,1.081.831.831,0,0,1-.67,1.072l-1.572.236v1.629h10.135V93.523Z" transform="translate(-86.084 -65.993)" fill="#dd4c38"/>
        <rect id="Rectángulo_456078" data-name="Rectángulo 456078" width="4.949" height="4.949" transform="translate(29.758 31.904)" fill="#75decb"/>
        <path id="Trazado_1007024" data-name="Trazado 1007024" d="M109.406,118.13h.652l1.4,1.6,2.219-2.77-2.219,3.39Z" transform="translate(-79.224 -84.692)" fill="#fff"/>
        <rect id="Rectángulo_456079" data-name="Rectángulo 456079" width="10.397" height="0.18" transform="translate(35.572 32.564)" fill="#091143"/>
        <path id="Trazado_1007025" data-name="Trazado 1007025" d="M128.943,124.47v-.18h10.4v.18" transform="translate(-93.371 -90.002)" fill="#091143"/>
        <rect id="Rectángulo_456080" data-name="Rectángulo 456080" width="10.397" height="0.18" transform="translate(35.572 36.012)" fill="#091143"/>
        <rect id="Rectángulo_456081" data-name="Rectángulo 456081" width="4.949" height="4.949" transform="translate(29.758 38.008)" fill="#75decb"/>
        <path id="Trazado_1007026" data-name="Trazado 1007026" d="M109.406,140.258h.652l1.4,1.6,2.219-2.77-2.219,3.39Z" transform="translate(-79.224 -100.715)" fill="#fff"/>
        <rect id="Rectángulo_456082" data-name="Rectángulo 456082" width="10.397" height="0.18" transform="translate(35.572 38.669)" fill="#091143"/>
        <path id="Trazado_1007027" data-name="Trazado 1007027" d="M139.339,146.418v.18h-10.4v-.18" transform="translate(-93.371 -106.025)" fill="#091143"/>
        <rect id="Rectángulo_456083" data-name="Rectángulo 456083" width="10.397" height="0.18" transform="translate(35.572 42.117)" fill="#091143"/>
        <rect id="Rectángulo_456084" data-name="Rectángulo 456084" width="4.949" height="4.949" transform="translate(29.758 44.113)" fill="#75decb"/>
        <path id="Trazado_1007028" data-name="Trazado 1007028" d="M109.406,162.386h.652l1.4,1.6,2.219-2.77-2.219,3.39Z" transform="translate(-79.224 -116.738)" fill="#fff"/>
        <rect id="Rectángulo_456085" data-name="Rectángulo 456085" width="10.397" height="0.18" transform="translate(35.572 44.773)" fill="#091143"/>
        <path id="Trazado_1007029" data-name="Trazado 1007029" d="M139.339,168.546v.18h-10.4v-.18" transform="translate(-93.371 -122.049)" fill="#091143"/>
        <rect id="Rectángulo_456086" data-name="Rectángulo 456086" width="10.397" height="0.18" transform="translate(35.572 48.221)" fill="#091143"/>
        <rect id="Rectángulo_456087" data-name="Rectángulo 456087" width="4.949" height="4.949" transform="translate(29.758 50.217)" fill="#75decb"/>
        <path id="Trazado_1007030" data-name="Trazado 1007030" d="M109.406,184.514h.652l1.4,1.6,2.219-2.77-2.219,3.39Z" transform="translate(-79.224 -132.762)" fill="#fff"/>
        <rect id="Rectángulo_456088" data-name="Rectángulo 456088" width="10.397" height="0.18" transform="translate(35.572 50.878)" fill="#091143"/>
        <path id="Trazado_1007031" data-name="Trazado 1007031" d="M139.339,190.674v.18h-10.4v-.18" transform="translate(-93.371 -138.072)" fill="#091143"/>
        <rect id="Rectángulo_456089" data-name="Rectángulo 456089" width="10.397" height="0.18" transform="translate(35.572 54.326)" fill="#091143"/>
        <path id="Trazado_1007032" data-name="Trazado 1007032" d="M510.569,69.594h0a4.564,4.564,0,0,0-6.892-1.6l-.507.393L502.663,68a4.564,4.564,0,0,0-6.369,6.447l6.875,5.962,6.875-5.962a4.564,4.564,0,0,0,.524-4.85" transform="translate(-358.663 -48.545)" fill="#dd4c38"/>
        <path id="Trazado_1007033" data-name="Trazado 1007033" d="M496.7,83.154h0a.219.219,0,0,1-.213-.166l-1.748-6.958L492.6,81.916a.22.22,0,0,1-.422-.034l-.885-4.6-.951,2.335a.219.219,0,0,1-.2.137h-6.9a.22.22,0,1,1,0-.439h6.754l1.174-2.884a.217.217,0,0,1,.225-.136.219.219,0,0,1,.194.177l.875,4.548,2.111-5.811a.22.22,0,0,1,.419.021l1.71,6.808,1.29-5.1a.22.22,0,0,1,.211-.166h0a.22.22,0,0,1,.212.163l.639,2.38h6.255a.22.22,0,1,1,0,.439h-6.423a.22.22,0,0,1-.212-.162l-.465-1.729-1.3,5.128a.22.22,0,0,1-.213.166" transform="translate(-349.768 -54.354)" fill="#fff"/>
        <path id="Trazado_1007034" data-name="Trazado 1007034" d="M544.032,159.973a7.268,7.268,0,1,1-7.268-7.268,7.268,7.268,0,0,1,7.268,7.268" transform="translate(-383.423 -110.578)" fill="#75decb"/>
        <rect id="Rectángulo_456090" data-name="Rectángulo 456090" width="4.67" height="9.807" transform="translate(151.092 44.491)" fill="#fff"/>
        <rect id="Rectángulo_456091" data-name="Rectángulo 456091" width="9.807" height="4.67" transform="translate(148.524 47.06)" fill="#fff"/>
        <path id="Trazado_1007035" data-name="Trazado 1007035" d="M198.792,34.683a8.5,8.5,0,1,1-8.5-8.5,8.5,8.5,0,0,1,8.5,8.5" transform="translate(-131.646 -18.962)" fill="#75decb"/>
        <path id="Trazado_1007036" data-name="Trazado 1007036" d="M199.549,32.1a2.364,2.364,0,0,0-2.365,2.365v3.381h4.729V34.47a2.365,2.365,0,0,0-2.365-2.365" transform="translate(-142.787 -23.248)" fill="#dd4c38"/>
        <path id="Trazado_1007037" data-name="Trazado 1007037" d="M199.549,58.679a2.364,2.364,0,0,1-2.365-2.365V52.933h4.729v3.381a2.365,2.365,0,0,1-2.365,2.365" transform="translate(-142.787 -38.33)" fill="#fff"/>
        <path id="Trazado_1007038" data-name="Trazado 1007038" d="M216.411,48.491a2.365,2.365,0,0,0-3.343-.071l-2.441,2.34,3.272,3.414,2.441-2.34a2.364,2.364,0,0,0,.071-3.343" transform="translate(-152.521 -34.586)" fill="#dd4c38"/>
        <path id="Trazado_1007039" data-name="Trazado 1007039" d="M199.795,64.309a2.364,2.364,0,0,1,.071-3.343l2.441-2.34,3.272,3.414-2.441,2.34a2.365,2.365,0,0,1-3.343-.071" transform="translate(-144.201 -42.453)" fill="#fff"/>
        <path id="Trazado_1007040" data-name="Trazado 1007040" d="M353.669,111.354a8.272,8.272,0,1,1-8.272-8.272,8.272,8.272,0,0,1,8.272,8.272" transform="translate(-244.121 -74.644)" fill="#ffb0c9"/>
        <rect id="Rectángulo_456092" data-name="Rectángulo 456092" width="8.243" height="0.152" transform="translate(104.9 32.978) rotate(-45.002)" fill="#75decb"/>
        <rect id="Rectángulo_456093" data-name="Rectángulo 456093" width="1.39" height="5.462" transform="translate(91.716 42.407) rotate(-45)" fill="#fff"/>
        <rect id="Rectángulo_456094" data-name="Rectángulo 456094" width="15.492" height="1.59" transform="translate(94.068 42.792) rotate(-45)" fill="#b1a9b9"/>
        <rect id="Rectángulo_456095" data-name="Rectángulo 456095" width="10.427" height="3.377" transform="translate(96.105 39.492) rotate(-45)" fill="#fff"/>
        <rect id="Rectángulo_456096" data-name="Rectángulo 456096" width="0.472" height="3.377" transform="translate(96.105 39.492) rotate(-45)" fill="#b1a9b9"/>
        <rect id="Rectángulo_456097" data-name="Rectángulo 456097" width="1.39" height="5.462" transform="translate(94.385 39.738) rotate(-45)" fill="#fff"/>
        <rect id="Rectángulo_456098" data-name="Rectángulo 456098" width="0.171" height="1.307" transform="matrix(0.707, -0.707, 0.707, 0.707, 103.284, 33.046)" fill="#39657d"/>
        <rect id="Rectángulo_456099" data-name="Rectángulo 456099" width="0.171" height="0.788" transform="matrix(0.707, -0.707, 0.707, 0.707, 102.953, 33.377)" fill="#39657d"/>
        <rect id="Rectángulo_456100" data-name="Rectángulo 456100" width="0.171" height="0.788" transform="matrix(0.707, -0.707, 0.707, 0.707, 102.622, 33.708)" fill="#39657d"/>
        <rect id="Rectángulo_456101" data-name="Rectángulo 456101" width="0.171" height="0.788" transform="matrix(0.707, -0.707, 0.707, 0.707, 102.291, 34.039)" fill="#39657d"/>
        <rect id="Rectángulo_456102" data-name="Rectángulo 456102" width="0.171" height="0.788" transform="matrix(0.707, -0.707, 0.707, 0.707, 101.96, 34.37)" fill="#39657d"/>
        <rect id="Rectángulo_456103" data-name="Rectángulo 456103" width="0.171" height="1.307" transform="matrix(0.707, -0.707, 0.707, 0.707, 101.62, 34.71)" fill="#39657d"/>
        <rect id="Rectángulo_456104" data-name="Rectángulo 456104" width="0.171" height="0.788" transform="matrix(0.707, -0.707, 0.707, 0.707, 101.289, 35.041)" fill="#39657d"/>
        <rect id="Rectángulo_456105" data-name="Rectángulo 456105" width="0.171" height="0.788" transform="matrix(0.707, -0.707, 0.707, 0.707, 100.958, 35.372)" fill="#39657d"/>
        <rect id="Rectángulo_456106" data-name="Rectángulo 456106" width="0.171" height="0.788" transform="matrix(0.707, -0.707, 0.707, 0.707, 100.627, 35.703)" fill="#39657d"/>
        <rect id="Rectángulo_456107" data-name="Rectángulo 456107" width="0.171" height="0.788" transform="matrix(0.707, -0.707, 0.707, 0.707, 100.296, 36.034)" fill="#39657d"/>
        <rect id="Rectángulo_456108" data-name="Rectángulo 456108" width="0.171" height="1.307" transform="translate(99.955 36.374) rotate(-45.009)" fill="#39657d"/>
        <rect id="Rectángulo_456109" data-name="Rectángulo 456109" width="0.171" height="0.788" transform="matrix(0.707, -0.707, 0.707, 0.707, 99.625, 36.705)" fill="#39657d"/>
        <rect id="Rectángulo_456110" data-name="Rectángulo 456110" width="0.171" height="0.788" transform="matrix(0.707, -0.707, 0.707, 0.707, 99.294, 37.036)" fill="#39657d"/>
        <rect id="Rectángulo_456111" data-name="Rectángulo 456111" width="0.171" height="0.788" transform="matrix(0.707, -0.707, 0.707, 0.707, 98.963, 37.367)" fill="#39657d"/>
        <rect id="Rectángulo_456112" data-name="Rectángulo 456112" width="0.171" height="0.788" transform="matrix(0.707, -0.707, 0.707, 0.707, 98.632, 37.698)" fill="#39657d"/>
        <rect id="Rectángulo_456113" data-name="Rectángulo 456113" width="0.171" height="1.307" transform="matrix(0.707, -0.707, 0.707, 0.707, 98.292, 38.038)" fill="#39657d"/>
        <rect id="Rectángulo_456114" data-name="Rectángulo 456114" width="0.171" height="0.788" transform="matrix(0.707, -0.707, 0.707, 0.707, 97.961, 38.369)" fill="#39657d"/>
        <rect id="Rectángulo_456115" data-name="Rectángulo 456115" width="0.171" height="0.788" transform="matrix(0.707, -0.707, 0.707, 0.707, 97.629, 38.7)" fill="#39657d"/>
        <rect id="Rectángulo_456116" data-name="Rectángulo 456116" width="0.171" height="0.788" transform="matrix(0.707, -0.707, 0.707, 0.707, 97.299, 39.031)" fill="#39657d"/>
        <rect id="Rectángulo_456117" data-name="Rectángulo 456117" width="0.171" height="0.788" transform="matrix(0.707, -0.707, 0.707, 0.707, 96.968, 39.362)" fill="#39657d"/>
      </g>
    </g>
  </g>
</svg>
