<svg xmlns="http://www.w3.org/2000/svg" width="116" height="116" viewBox="0 0 116 116">
  <g id="Grupo_1183477" data-name="Grupo 1183477" transform="translate(-1157.711 -1154.831)">
    <circle id="Elipse_13824" data-name="Elipse 13824" cx="58" cy="58" r="58" transform="translate(1157.711 1154.831)" fill="#3e5d56"/>
    <g id="Grupo_1180776" data-name="Grupo 1180776" transform="translate(832 -2487.169)">
      <circle id="Elipse_13822" data-name="Elipse 13822" cx="45" cy="45" r="45" transform="translate(338.711 3655)" fill="#fff"/>
      <g id="Grupo_1181257" data-name="Grupo 1181257" transform="translate(345.244 3661.533)">
        <g id="Grupo_1181256" data-name="Grupo 1181256" transform="translate(8.863 8.863)">
          <g id="Grupo_1181253" data-name="Grupo 1181253" transform="translate(20.863 0)">
            <path id="Trazado_1005905" data-name="Trazado 1005905" d="M184.137,20.847a.617.617,0,0,1,.556-.614,27.638,27.638,0,0,0,13-5.235h11.234a27.652,27.652,0,0,0,13,5.236.616.616,0,0,1,.555.612c0,2.915,0,16.189,0,16.189,0,10.809-10.973,19.89-19.171,22.089-8.2-2.2-19.173-11.28-19.173-22.089Z" transform="translate(-184.137 -14.998)" fill="#c6ea94" fill-rule="evenodd"/>
            <path id="Trazado_1005906" data-name="Trazado 1005906" d="M259.662,137.4v-5.8l-3.237,3.2a1.512,1.512,0,0,1-2.139-.012l-.046-.047a1.512,1.512,0,0,1,.012-2.139l3.808-3.764a5.482,5.482,0,0,1,3.854-1.583h4.936a5.482,5.482,0,0,1,3.854,1.583l3.808,3.764a1.512,1.512,0,0,1,.012,2.139l-.046.047a1.512,1.512,0,0,1-2.139.012l-3.237-3.2v5.8l1.37,10.218a1.807,1.807,0,0,1-1.551,2.031l-.305.041a1.807,1.807,0,0,1-1.989-1.336l-2.256-8.671h0l-2.236,8.667a1.807,1.807,0,0,1-1.99,1.34l-.3-.041a1.807,1.807,0,0,1-1.551-2.031l1.37-10.218Z" transform="translate(-245.21 -113.413)" fill="#38a8d2" fill-rule="evenodd"/>
            <circle id="Elipse_13854" data-name="Elipse 13854" cx="3.835" cy="3.835" r="3.835" transform="translate(15.337 4.619)" fill="#937661"/>
            <path id="Trazado_1005907" data-name="Trazado 1005907" d="M220.74,149.689V145.53l-2.322,2.3a1.085,1.085,0,0,1-1.534-.009l-.033-.033a1.085,1.085,0,0,1,.009-1.534l2.731-2.7a3.932,3.932,0,0,1,2.764-1.136H225.9a3.932,3.932,0,0,1,2.764,1.136l2.731,2.7a1.085,1.085,0,0,1,.009,1.534l-.033.033a1.085,1.085,0,0,1-1.534.009l-2.322-2.3v4.158l.983,7.329a1.3,1.3,0,0,1-1.112,1.457l-.219.029a1.3,1.3,0,0,1-1.427-.958l-1.618-6.219h0l-1.6,6.216a1.3,1.3,0,0,1-1.427.961l-.217-.029a1.3,1.3,0,0,1-1.112-1.457Z" transform="translate(-212.541 -126.698)" fill="#4fc0e8" fill-rule="evenodd"/>
            <circle id="Elipse_13855" data-name="Elipse 13855" cx="2.751" cy="2.751" r="2.751" transform="translate(8.834 9.098)" fill="#b9835e"/>
            <path id="Trazado_1005908" data-name="Trazado 1005908" d="M343.771,149.689V145.53l-2.322,2.3a1.085,1.085,0,0,1-1.534-.009l-.033-.033a1.085,1.085,0,0,1,.009-1.534l2.731-2.7a3.933,3.933,0,0,1,2.764-1.136h3.541a3.932,3.932,0,0,1,2.764,1.136l2.731,2.7a1.085,1.085,0,0,1,.009,1.534l-.033.033a1.085,1.085,0,0,1-1.534.009l-2.322-2.3v4.158l.983,7.329a1.3,1.3,0,0,1-1.112,1.457l-.219.029a1.3,1.3,0,0,1-1.427-.958l-1.618-6.219h0l-1.6,6.216a1.3,1.3,0,0,1-1.427.961l-.217-.029a1.3,1.3,0,0,1-1.112-1.457l.983-7.329Z" transform="translate(-320.397 -126.698)" fill="#4fc0e8" fill-rule="evenodd"/>
            <circle id="Elipse_13856" data-name="Elipse 13856" cx="2.751" cy="2.751" r="2.751" transform="translate(24.009 9.098)" fill="#b9835e"/>
          </g>
          <g id="Grupo_1181255" data-name="Grupo 1181255" transform="translate(0 18.243)">
            <path id="Trazado_1005909" data-name="Trazado 1005909" d="M87.612,175.15a1.425,1.425,0,0,0,1.422-1.42v-2.119a8.715,8.715,0,1,0-17.429,0v2.119a1.424,1.424,0,0,0,1.42,1.42Z" transform="translate(-64.623 -162.895)" fill="#636c77" fill-rule="evenodd"/>
            <path id="Trazado_1005910" data-name="Trazado 1005910" d="M26.248,296.336l8.892-.037v5.168l9.286,2.158a2.54,2.54,0,0,1,1.964,2.491v14.057a.636.636,0,0,1-.636.636H15.634a.636.636,0,0,1-.636-.636V306.115a2.529,2.529,0,0,1,1.964-2.491l9.286-2.158Z" transform="translate(-14.998 -279.844)" fill="#a4d4ff" fill-rule="evenodd"/>
            <path id="Trazado_1005911" data-name="Trazado 1005911" d="M105.786,274.29l4.446,5.9,4.446-5.9V265.3h-8.951Z" transform="translate(-94.536 -252.667)" fill="#b9835e" fill-rule="evenodd"/>
            <path id="Trazado_1005912" data-name="Trazado 1005912" d="M202.657,393.766a2.178,2.178,0,1,0-2.18-2.177A2.183,2.183,0,0,0,202.657,393.766Z" transform="translate(-177.599 -361.469)" fill="#636c77" fill-rule="evenodd"/>
            <path id="Trazado_1005913" data-name="Trazado 1005913" d="M89.61,213.429a6.494,6.494,0,0,0,12.988,0v-5.055a9.531,9.531,0,0,1-3.765-4.178c-2.908,2.193-5.645,4.139-9.223,4.178Z" transform="translate(-80.407 -199.101)" fill="#d5a889" fill-rule="evenodd"/>
            <path id="Trazado_1005914" data-name="Trazado 1005914" d="M194.9,245.9h.937a2.045,2.045,0,1,1,0,4.089H194.9Z" transform="translate(-172.714 -235.662)" fill="#b9835e" fill-rule="evenodd"/>
            <path id="Trazado_1005915" data-name="Trazado 1005915" d="M68.4,245.9h-.94a2.045,2.045,0,1,0,0,4.089h.94Z" transform="translate(-59.196 -235.662)" fill="#b9835e" fill-rule="evenodd"/>
            <g id="Grupo_1181254" data-name="Grupo 1181254" transform="translate(8.694 21.623)">
              <path id="Trazado_1005916" data-name="Trazado 1005916" d="M146.694,338.2l2.556.594-4.318,6.4a.96.96,0,0,1-1.479.135l-1.205-1.222Z" transform="translate(-135.246 -338.199)" fill="#e4e8eb" fill-rule="evenodd"/>
              <path id="Trazado_1005917" data-name="Trazado 1005917" d="M92.485,344.1l-1.2,1.222a.924.924,0,0,1-.772.283.937.937,0,0,1-.707-.418l-4.318-6.4,2.556-.594Z" transform="translate(-85.483 -338.199)" fill="#e4e8eb" fill-rule="evenodd"/>
            </g>
          </g>
        </g>
        <path id="Trazado_1005918" data-name="Trazado 1005918" d="M32.683,42.214a2.893,2.893,0,0,1-.691.084h-.125a7.32,7.32,0,0,1-1.493,3.631,10.345,10.345,0,0,1,2.781,2.878l5.331,1.239.008,0a3.4,3.4,0,0,1,2.624,3.33V68.07a.863.863,0,0,1-.863.863H8.863A.863.863,0,0,1,8,68.07V53.378a3.385,3.385,0,0,1,2.632-3.331l5.333-1.239a10.345,10.345,0,0,1,2.782-2.879A7.321,7.321,0,0,1,17.254,42.3h-.127a2.9,2.9,0,0,1-2.145-4.867V35.822a9.606,9.606,0,0,1,9.577-9.579,9.5,9.5,0,0,1,4.3,1.027V14.151a.863.863,0,0,1,.8-.861A26.514,26.514,0,0,0,42.779,8.161a.863.863,0,0,1,.5-.161H54.515a.863.863,0,0,1,.5.161A26.515,26.515,0,0,0,68.138,13.29a.863.863,0,0,1,.8.861V30.9c0,5.627-2.831,10.816-6.754,14.873a30.172,30.172,0,0,1-13.057,8.05.862.862,0,0,1-.447,0,30.671,30.671,0,0,1-15.993-11.61ZM30.589,28.392a9.572,9.572,0,0,1,3.549,7.43v1.611a2.895,2.895,0,0,1,.025,3.885A28.922,28.922,0,0,0,48.9,52.094a28.543,28.543,0,0,0,12.039-7.521c3.613-3.736,6.269-8.491,6.269-13.673V14.934A28.5,28.5,0,0,1,54.24,9.727H43.556a28.5,28.5,0,0,1-12.967,5.207ZM28.142,47.853a7.315,7.315,0,0,1-7.165,0v.588L24.559,53.2l3.582-4.757ZM17.174,50.3l-.1.024a8.433,8.433,0,0,0-.808,2.162c1.351.4,2.677,1.81,3.394,4.379C20.4,59.5,19.478,60.551,18.65,61a.859.859,0,0,1-.571.088,1.234,1.234,0,1,1-.272-1.594l.025-.014a.764.764,0,0,0,.353-.625A3.966,3.966,0,0,0,18,57.328h0A6.133,6.133,0,0,0,16.663,54.7a1.667,1.667,0,0,0-1.323-.613,1.929,1.929,0,0,0-1.239.755,6.468,6.468,0,0,0-1.2,2.482,3.967,3.967,0,0,0-.187,1.523.766.766,0,0,0,.353.626l.026.014a1.233,1.233,0,1,1-.273,1.593A.86.86,0,0,1,12.242,61c-.827-.447-1.746-1.494-1.009-4.134h0c.7-2.493,1.969-3.892,3.262-4.342a10.11,10.11,0,0,1,.465-1.708l-3.938.915a1.673,1.673,0,0,0-1.3,1.65V67.207H23.713V56.681A1.751,1.751,0,0,1,22.5,57h0a1.774,1.774,0,0,1-1.338-.791h0l0,0Zm-.81-11.81a1.18,1.18,0,0,0,.762,2.082H17.2V38.208h-.076a1.174,1.174,0,0,0-.717.244Zm15.553,2.082h.074a1.18,1.18,0,0,0,.764-2.081l-.045-.037a1.174,1.174,0,0,0-.718-.245h-.074Zm2,17.968A1.315,1.315,0,1,0,32.6,57.225,1.318,1.318,0,0,0,33.921,58.539ZM25.44,56.7v10.5H39.391V53.378a1.685,1.685,0,0,0-1.3-1.651l-3.932-.914a10.138,10.138,0,0,1,.626,3.494,3.043,3.043,0,1,1-1.727,0,8.417,8.417,0,0,0-1.011-3.985l-.1-.024L27.96,56.2a1.773,1.773,0,0,1-1.341.8A1.754,1.754,0,0,1,25.44,56.7Zm4.954-8.539q-.253-.24-.526-.459v.337ZM29.357,49.7,25.7,54.557l.681.691a.093.093,0,0,0,.076.031.1.1,0,0,0,.073-.04h0l3.616-5.357Zm-5.935,4.859L19.761,49.7l-.786.183,3.613,5.354,0,0a.1.1,0,0,0,.073.041h0a.089.089,0,0,0,.073-.028l0,0Zm-4.176-6.512,0-.332q-.268.216-.518.453ZM32.411,36.512v-.69a7.851,7.851,0,1,0-15.7,0v.689a2.9,2.9,0,0,1,.418-.03H17.2v-.1a.864.864,0,0,1,.854-.863c3.388-.037,5.958-1.928,8.712-4a.863.863,0,0,1,1.279.277,8.644,8.644,0,0,0,3.363,3.8.864.864,0,0,1,.506.786v.1h.074A2.911,2.911,0,0,1,32.411,36.512ZM18.93,41.434a5.63,5.63,0,0,0,11.261,0V36.9a10.386,10.386,0,0,1-3.162-3.424c-2.549,1.881-5.048,3.447-8.1,3.726Zm6.864,2.2a.863.863,0,1,1,1.037,1.381,4.028,4.028,0,0,1-2.289.613,4.032,4.032,0,0,1-2.292-.613.863.863,0,0,1,1.038-1.381,2.28,2.28,0,0,0,1.254.266,2.276,2.276,0,0,0,1.252-.266Zm1.622-5.483a1.233,1.233,0,1,1-1.233,1.233,1.232,1.232,0,0,1,1.233-1.233Zm-5.712,0a1.233,1.233,0,1,1-1.233,1.233A1.232,1.232,0,0,1,21.7,38.156ZM58.486,23.722A4.8,4.8,0,0,1,61.627,25.1l2.731,2.7a1.948,1.948,0,0,1,.016,2.755h0l-.032.032a1.948,1.948,0,0,1-2.755.016l-.852-.842V31.8l.975,7.272A2.159,2.159,0,0,1,59.856,41.5l-.219.029a2.159,2.159,0,0,1-2.377-1.6l-.779-2.995-.772,2.99a2.16,2.16,0,0,1-.2.511l.338,2.521a2.671,2.671,0,0,1-2.292,3L53.247,46a2.67,2.67,0,0,1-2.939-1.974l-1.417-5.447-1.4,5.441A2.671,2.671,0,0,1,44.546,46l-.3-.041a2.671,2.671,0,0,1-2.292-3l.338-2.518a2.159,2.159,0,0,1-.2-.51l-.779-2.995-.772,2.99a2.16,2.16,0,0,1-2.378,1.6L37.94,41.5a2.16,2.16,0,0,1-1.853-2.427l.975-7.272V29.764l-.851.842a1.948,1.948,0,0,1-2.755-.016h0l-.036-.034h0a1.948,1.948,0,0,1,.016-2.755l2.731-2.7a4.8,4.8,0,0,1,3.141-1.379,3.614,3.614,0,1,1,5.263-4.566,4.7,4.7,0,1,1,8.65,0,3.614,3.614,0,1,1,5.263,4.566ZM44.647,22.1a6.343,6.343,0,0,1,1.783-.256h1.213a4.715,4.715,0,0,1-3-2.53,3.622,3.622,0,0,1,0,2.786Zm5.506-.256h1.213a6.344,6.344,0,0,1,1.783.256,3.622,3.622,0,0,1,0-2.786A4.714,4.714,0,0,1,50.153,21.847Zm-1.255-7.5a2.972,2.972,0,1,0,2.972,2.972A2.973,2.973,0,0,0,48.9,14.346Zm7.588,4.478a1.887,1.887,0,1,0,1.887,1.887A1.888,1.888,0,0,0,56.486,18.825ZM47.938,29.375l.033-.033a.221.221,0,0,0,0-.313l-2.731-2.7a3.069,3.069,0,0,0-2.157-.886H39.54a3.069,3.069,0,0,0-2.157.886l-2.731,2.7a.221.221,0,0,0,0,.313h0l.031.034h0a.221.221,0,0,0,.313,0l2.322-2.3a.863.863,0,0,1,1.47.614v4.158a.848.848,0,0,1-.008.115L37.8,39.3a.433.433,0,0,0,.371.486l.217.029a.433.433,0,0,0,.476-.321l1.6-6.216c-.04.154.1-.341.379-.517a.993.993,0,0,1,.241-.1.864.864,0,0,1,1.053.618l1.618,6.219a.432.432,0,0,0,.476.32l.219-.029a.433.433,0,0,0,.371-.486l-.983-7.329a.87.87,0,0,1-.008-.115V27.7a.863.863,0,0,1,1.47-.614l2.322,2.3a.221.221,0,0,0,.313,0Zm1.824-.189a.22.22,0,0,0,.064.155h0l.031.034h0a.221.221,0,0,0,.313,0l2.322-2.3a.863.863,0,0,1,1.47.614v4.158a.87.87,0,0,1-.008.115L52.973,39.3a.433.433,0,0,0,.371.486l.217.029a.433.433,0,0,0,.476-.321l1.6-6.216a.865.865,0,0,1,.619-.62l.063-.014a.864.864,0,0,1,.99.632l1.618,6.219a.433.433,0,0,0,.476.32l.219-.029A.433.433,0,0,0,60,39.3l-.983-7.329a.87.87,0,0,1-.008-.115V27.7a.863.863,0,0,1,1.47-.614l2.322,2.3a.221.221,0,0,0,.313,0l.033-.033a.221.221,0,0,0,0-.313l-2.731-2.7a3.069,3.069,0,0,0-2.157-.886h-3.54a3.069,3.069,0,0,0-2.157.886l-2.731,2.7a.22.22,0,0,0-.066.157Zm3.45-5.228a4.617,4.617,0,0,0-1.845-.384H46.43a4.618,4.618,0,0,0-1.845.384A4.8,4.8,0,0,1,46.452,25.1L48.9,27.519,51.344,25.1A4.8,4.8,0,0,1,53.211,23.959Zm-4.05,6.852.084.035-.077-.035Zm-.263,0a1.949,1.949,0,0,1-2.487-.211l-.852-.842V31.8l.975,7.272A2.159,2.159,0,0,1,44.681,41.5l-.219.029a2.162,2.162,0,0,1-.576,0l-.223,1.661a.944.944,0,0,0,.81,1.061l.3.04a.944.944,0,0,0,1.039-.7l2.236-8.667a.865.865,0,0,1,.619-.62l.035-.008a.864.864,0,0,1,1.018.627l2.256,8.671a.944.944,0,0,0,1.039.7l.305-.041a.944.944,0,0,0,.81-1.061l-.223-1.661a2.157,2.157,0,0,1-.578,0l-.217-.029a2.159,2.159,0,0,1-1.853-2.427l.975-7.272V29.764l-.852.842a1.949,1.949,0,0,1-2.487.211Zm-14.913,0,.083.035-.077-.035ZM41.31,18.825A1.887,1.887,0,1,0,43.2,20.712,1.888,1.888,0,0,0,41.31,18.825Z" fill-rule="evenodd"/>
      </g>
    </g>
  </g>
</svg>
