<svg xmlns="http://www.w3.org/2000/svg" width="129" height="127" viewBox="0 0 129 127">
  <g id="Grupo_1181071" data-name="Grupo 1181071" transform="translate(-403.711 -4444)">
    <rect id="Rectángulo_454806" data-name="Rectángulo 454806" width="129" height="127" transform="translate(403.711 4444)" fill="#bbded6"/>
    <path id="Rectángulo_454808" data-name="Rectángulo 454808" d="M0,0H79A12,12,0,0,1,91,12V91a0,0,0,0,1,0,0H12A12,12,0,0,1,0,79V0A0,0,0,0,1,0,0Z" transform="translate(422.711 4462)" fill="#fff"/>
    <path id="Trazado_999996" data-name="Trazado 999996" d="M37.966,107.078a1.009,1.009,0,0,1-1.009,1.009H35.29v1.667a1.009,1.009,0,0,1-2.017,0v-1.667H31.605a1.009,1.009,0,0,1,0-2.017h1.667V104.4a1.009,1.009,0,1,1,2.017,0v1.667h1.667A1.009,1.009,0,0,1,37.966,107.078Zm3.769,0a7.455,7.455,0,1,1-7.455-7.455,7.464,7.464,0,0,1,7.455,7.455Zm-2.019,0a5.436,5.436,0,1,0-5.436,5.44A5.442,5.442,0,0,0,39.716,107.078ZM67.411,93.3l-4.967,8.6a2.925,2.925,0,0,1-1.791,1.371,2.987,2.987,0,0,1-.765.1,2.912,2.912,0,0,1-1.464-.4.993.993,0,0,1-.205-.158A3.2,3.2,0,0,1,56.95,100a29.47,29.47,0,0,1-3.806-1.435l-3.229,5.594a25.083,25.083,0,0,1-3.451,10.764A27.147,27.147,0,0,1,34.72,125.1a1.01,1.01,0,0,1-.44.1,1.032,1.032,0,0,1-.44-.1A27.15,27.15,0,0,1,22.1,114.92a24.858,24.858,0,0,1-3.376-10.057l-3.554-6.156a29.564,29.564,0,0,1-3.8,1.434,3.2,3.2,0,0,1-1.268,2.821,1.041,1.041,0,0,1-.205.158,2.913,2.913,0,0,1-1.466.4,3.01,3.01,0,0,1-.769-.1,2.92,2.92,0,0,1-1.787-1.368L.9,93.443a2.945,2.945,0,0,1,1.08-4.02c.016-.009.033-.018.05-.026a2.985,2.985,0,0,1,3.234.252,32.723,32.723,0,0,1,13.365-7.676,2.951,2.951,0,0,1,1.331-2.93,2.231,2.231,0,0,1,1.784-.461,3.29,3.29,0,0,1,2.343,1.478l4.966,8.6a3.006,3.006,0,0,1,.252,2.361A2.732,2.732,0,0,1,27.947,92.7a2.918,2.918,0,0,1-1.439.379,2.963,2.963,0,0,1-1.873-.67q-1.6,1.395-3.176,2.551l.562.974a45.241,45.241,0,0,0,11.612-6.748,1.01,1.01,0,0,1,1.291,0A45.033,45.033,0,0,0,46.4,95.873l.723-.863q-1.713-1.239-3.45-2.75a2.934,2.934,0,0,1-3.312.29A2.734,2.734,0,0,1,39,90.874a3.01,3.01,0,0,1,.252-2.36l4.969-8.6a2.944,2.944,0,0,1,4.02-1.076,1.007,1.007,0,0,1,.207.159,3.2,3.2,0,0,1,1.263,2.84A32.778,32.778,0,0,1,63.051,89.51a2.959,2.959,0,0,1,3.257-.246,2.739,2.739,0,0,1,1.358,1.68,3.008,3.008,0,0,1-.254,2.357Zm-18.564-9.62-4,6.927a33.824,33.824,0,0,0,12.966,7.54l4.034-6.991A30.823,30.823,0,0,0,48.847,83.681ZM42.61,90.449l4.963-8.6c.269-.464.269-.6-.439-1.317a.9.9,0,0,0-.357-.074.939.939,0,0,0-.241.032.917.917,0,0,0-.564.431l-4.967,8.6a1.007,1.007,0,0,0-.067.77.763.763,0,0,0,.354.467l.053.028a.931.931,0,0,0,1.264-.337Zm-19.148.3-4-6.925A30.793,30.793,0,0,0,6.459,91.3l4.036,6.989A33.787,33.787,0,0,0,23.462,90.752Zm-2.726-8.76,4.963,8.6a.932.932,0,0,0,1.267.34l.055-.029a.752.752,0,0,0,.352-.464,1.008,1.008,0,0,0-.067-.77l-4.969-8.6a1.306,1.306,0,0,0-1.075-.482.991.991,0,0,1-.19.142A.928.928,0,0,0,20.736,81.992ZM9.215,100.111l-4.967-8.6a.924.924,0,0,0-1.693.223.911.911,0,0,0,.09.7l4.969,8.6a.927.927,0,0,0,1.163.385c.708-.714.708-.847.44-1.312Zm7.762-2.3,1.528,2.646q.022-1.264.134-2.574a1.006,1.006,0,0,1,.648-.856c.287-.109.569-.219.848-.328l-.334-.579q-1.412.934-2.823,1.692Zm30.98.872A51.563,51.563,0,0,1,34.28,91.257,51.524,51.524,0,0,1,20.6,98.68c-.785,11.247,3.816,19.45,13.68,24.392C44.145,118.129,48.743,109.926,47.957,98.68Zm3.375-1.018q-1.27-.681-2.536-1.505l-.432.515c.3.117.6.234.907.35a1.007,1.007,0,0,1,.647.856q.089,1.025.121,2.023Zm14.4-6.141a.765.765,0,0,0-.354-.469c-.017-.008-.033-.017-.05-.026a.933.933,0,0,0-1.269.34l-4.962,8.6c-.259.448-.294.572.437,1.313a.927.927,0,0,0,1.163-.388l4.967-8.6A1.008,1.008,0,0,0,65.731,91.522Z" transform="translate(434.061 4405.676)" fill="#3e5d56"/>
  </g>
</svg>
