<svg xmlns="http://www.w3.org/2000/svg" width="40.2" height="40.2" viewBox="0 0 40.2 40.2">
  <path id="Trazado_1009438" data-name="Trazado 1009438" d="M17.8,17.877a4.439,4.439,0,1,0-4.439-4.439A4.444,4.444,0,0,0,17.8,17.877Zm0-7.744a3.3,3.3,0,1,1-3.305,3.305A3.309,3.309,0,0,1,17.8,10.134Zm28.255,9.13H34.346A2.949,2.949,0,0,0,31.4,22.208a.567.567,0,1,0,1.134,0A1.814,1.814,0,0,1,34.346,20.4H46.055a1.814,1.814,0,0,1,1.812,1.812V33.576a1.809,1.809,0,0,1-1.051,1.643L45.691,24.223a.567.567,0,1,0-1.128.115l1.556,15.207H34.281l.668-6.527a.567.567,0,1,0-1.128-.115l-.237,2.315a1.818,1.818,0,0,1-.882-.884v-1.8l5.177-6.655a1.942,1.942,0,0,0-3.067-2.384l-4.8,6.174H27.991l-4.8-6.174a1.942,1.942,0,1,0-3.067,2.384L25.3,32.53v1.8a1.83,1.83,0,0,1-1.643,1.054h-.361V32.961a.567.567,0,1,0-1.134,0V47.866H18.367V36.032a.567.567,0,1,0-1.134,0V47.866H13.44V24.281a.567.567,0,0,0-1.134,0V35.387h-.361a1.814,1.814,0,0,1-1.812-1.812V22.208A1.814,1.814,0,0,1,11.945,20.4H23.654a1.814,1.814,0,0,1,1.812,1.812.567.567,0,1,0,1.134,0,2.949,2.949,0,0,0-2.945-2.945H11.945A2.949,2.949,0,0,0,9,22.208V33.576a2.949,2.949,0,0,0,2.945,2.945h.361V48.433a.567.567,0,0,0,.567.567h9.854a.567.567,0,0,0,.567-.567V36.521h.361a2.934,2.934,0,0,0,1.643-.5V48.433a.567.567,0,0,0,.567.567h6.271a.567.567,0,0,0,.567-.567V36.019a2.934,2.934,0,0,0,.763.367l-.375,3.67a.567.567,0,0,0,.564.624h1.053v7.754a.567.567,0,0,0,.567.567h9.854a.567.567,0,0,0,.567-.567V40.68h1.053a.567.567,0,0,0,.564-.624l-.375-3.669A2.943,2.943,0,0,0,49,33.576V22.209a2.949,2.949,0,0,0-2.945-2.945Zm-16.488,28.6V40.542a.567.567,0,1,0-1.134,0v7.325h-2V32.335a.567.567,0,0,0-.119-.348l-5.3-6.808a.809.809,0,1,1,1.277-.993l4.973,6.393a.567.567,0,0,0,.447.219h2.573a.567.567,0,0,0,.447-.219l4.973-6.393a.809.809,0,0,1,1.277.993l-5.3,6.808a.567.567,0,0,0-.119.348V47.866ZM35.84,40.68h3.794v7.187H35.84Zm8.721,7.187H40.767V40.68H44.56ZM40.2,17.877a4.439,4.439,0,1,0-4.439-4.439A4.444,4.444,0,0,0,40.2,17.877Zm0-7.744A3.3,3.3,0,1,1,36.9,13.439,3.309,3.309,0,0,1,40.2,10.134ZM29,28.34a3.031,3.031,0,1,0-3.031-3.031A3.034,3.034,0,0,0,29,28.34Zm0-4.928a1.9,1.9,0,1,1-1.9,1.9A1.9,1.9,0,0,1,29,23.413Z" transform="translate(-8.9 -8.9)" fill="#3e5d56" stroke="#3e5d56" stroke-width="0.2"/>
</svg>
