<svg xmlns="http://www.w3.org/2000/svg" width="84" height="84" viewBox="0 0 84 84">
  <g id="Grupo_1180868" data-name="Grupo 1180868" transform="translate(-185.711 -2433)">
    <rect id="Rectángulo_455054" data-name="Rectángulo 455054" width="84" height="84" rx="10" transform="translate(185.711 2433)" fill="#bbded6"/>
    <g id="layer1" transform="translate(202.652 2169.404)">
      <path id="path5182" d="M47.141,305.466V287.648a81.035,81.035,0,0,1-22.909-6.788,81.035,81.035,0,0,1-22.909,6.788v17.818c0,21.212,22.909,24.606,22.909,24.606S47.141,326.678,47.141,305.466Z" transform="translate(0.584 0.584)" fill="#ff6b6b"/>
      <path id="circle5186" d="M32.817,298.459a14.424,14.424,0,1,1-14.424-14.424,14.424,14.424,0,0,1,14.424,14.424Z" transform="translate(6.423 7.591)" fill="#dbe9ee"/>
      <path id="path5184" d="M11.176,286.152v5.091H6.085v5.091h5.091v5.091h5.091v-5.091h5.091v-5.091H16.267v-5.091Z" transform="translate(11.094 12.263)" fill="#ff6b6b"/>
      <path id="path4550-7" d="M24.433,280.687a80.337,80.337,0,0,1-22.642,6.7.849.849,0,0,0-.732.847v2.542a.849.849,0,1,0,1.7,0v-1.813a82.635,82.635,0,0,0,22.06-6.576,79.952,79.952,0,0,0,22.059,6.576v17.082c0,10.3-5.484,16.136-11.048,19.536a32.726,32.726,0,0,1-11.01,4.2,32.7,32.7,0,0,1-11.01-4.2c-5.565-3.4-11.05-9.236-11.05-19.536V294.172a.849.849,0,1,0-1.7,0v11.875c0,10.911,5.974,17.384,11.864,20.983A34.975,34.975,0,0,0,24.69,331.5a.831.831,0,0,0,.252,0A34.975,34.975,0,0,0,36.71,327.03c5.89-3.6,11.864-10.072,11.864-20.983V288.236a.849.849,0,0,0-.732-.847,80.337,80.337,0,0,1-22.642-6.7.857.857,0,0,0-.766,0Zm.383,10.091a15.273,15.273,0,1,0,11.168,25.693.849.849,0,1,0-1.24-1.16,13.541,13.541,0,1,1,2.053-2.874.849.849,0,0,0,1.5.8,15.283,15.283,0,0,0-13.48-22.46Zm-3.4,7.635v4.247H17.181a.849.849,0,0,0-.852.845V308.6a.848.848,0,0,0,.852.845H21.42v4.247a.848.848,0,0,0,.853.845h5.084a.849.849,0,0,0,.852-.845v-4.247h4.241a.849.849,0,0,0,.852-.845V303.5a.848.848,0,0,0-.852-.845H28.21v-4.247a.848.848,0,0,0-.852-.845H22.23A.854.854,0,0,0,21.42,298.412Zm1.7.852h3.394V303.5a.848.848,0,0,0,.845.845h4.247v3.4H27.358a.848.848,0,0,0-.845.852v4.241H23.119V308.6a.849.849,0,0,0-.845-.852H18.026v-3.4h4.247a.848.848,0,0,0,.845-.845Z" transform="translate(0 0)"/>
    </g>
  </g>
</svg>
