<svg xmlns="http://www.w3.org/2000/svg" width="129" height="127" viewBox="0 0 129 127">
  <g id="Grupo_1181072" data-name="Grupo 1181072" transform="translate(-403.711 -4444)">
    <rect id="Rectángulo_454806" data-name="Rectángulo 454806" width="129" height="127" transform="translate(403.711 4444)" fill="#bbded6"/>
    <path id="Rectángulo_454808" data-name="Rectángulo 454808" d="M0,0H79A12,12,0,0,1,91,12V91a0,0,0,0,1,0,0H12A12,12,0,0,1,0,79V0A0,0,0,0,1,0,0Z" transform="translate(422.711 4462)" fill="#fff"/>
    <g id="Out_line" data-name="Out line" transform="translate(426.151 4465.44)">
      <path id="Trazado_1009636" data-name="Trazado 1009636" d="M360.024,137.828l-3.475-1.737a.869.869,0,0,0-1.165.388l-1.349,2.7-.844-.422a2.823,2.823,0,0,0-3.857,1.413l-1.79,4.175,1.6.684,1.79-4.175a1.086,1.086,0,0,1,1.483-.543l.844.422-8.3,16.6a.869.869,0,0,0-.083.266l-.869,6.081a.869.869,0,0,0,1.474.737l4.343-4.343a.872.872,0,0,0,.163-.226l10.424-20.848a.869.869,0,0,0-.388-1.165ZM348.5,158.938l-2.4,2.4.48-3.361,8.235-16.47,1.921.96Zm9.012-18.024-1.921-.96.96-1.921,1.921.96Z" transform="translate(-292.384 -106.969)" fill="#3e5d56"/>
      <path id="Trazado_1009637" data-name="Trazado 1009637" d="M81.738,20.343a2.609,2.609,0,0,1,2.606-2.606H113.88a4.322,4.322,0,0,0-.871,2.606V30.767h1.737V20.343a2.609,2.609,0,0,1,2.606-2.606h.869a2.609,2.609,0,0,1,2.606,2.606v1.3a1.3,1.3,0,1,1-2.606,0v-1.3a.869.869,0,0,0-.869-.869h-1.737v1.737h.869v.434a3.022,3.022,0,0,0,.294,1.3h-1.162v1.737h3.909a3.044,3.044,0,0,0,3.04-3.04v-1.3A4.348,4.348,0,0,0,118.222,16H84.344A4.348,4.348,0,0,0,80,20.343V57.7h1.737Z" transform="translate(-57.051)" fill="#3e5d56"/>
      <path id="Trazado_1009638" data-name="Trazado 1009638" d="M55.959,391.818a2.609,2.609,0,0,1-2.606,2.606H49.444a1.3,1.3,0,0,1-1.3-1.3v-2.606a1.3,1.3,0,1,1,2.606,0v.434H49.009v1.737h2.606a.869.869,0,0,0,.869-.869v-1.3a3.044,3.044,0,0,0-3.04-3.04H19.04a3.044,3.044,0,0,0-3.04,3.04v2.606a3.044,3.044,0,0,0,3.04,3.04H53.353a4.348,4.348,0,0,0,4.343-4.343V384H55.959ZM46.7,394.424H19.04a1.3,1.3,0,0,1-1.3-1.3v-2.606a1.3,1.3,0,0,1,1.3-1.3H46.7a3.022,3.022,0,0,0-.294,1.3v2.606A3.022,3.022,0,0,0,46.7,394.424Z" transform="translate(0 -328.041)" fill="#3e5d56"/>
      <path id="Trazado_1009639" data-name="Trazado 1009639" d="M128,59.293a3.475,3.475,0,1,0,6.949,0v-.869a.863.863,0,0,0-.125-.446h0L132.6,54.264a4.046,4.046,0,0,1,4.919.165l-.747,7.47h-.083a2.606,2.606,0,0,0,0,5.212H141.9a2.606,2.606,0,1,0,0-5.212h-.083l-.747-7.47a4.046,4.046,0,0,1,4.919-.165l-2.228,3.713h0a.863.863,0,0,0-.125.446v.869a3.475,3.475,0,0,0,6.949,0v-.869a.863.863,0,0,0-.125-.446h0l-1.862-3.1a2.606,2.606,0,0,0-.62-5.137h-.525a5.783,5.783,0,0,0-7.293-.279V48h-1.737v1.459a5.783,5.783,0,0,0-7.293.279H130.6a2.606,2.606,0,0,0-.62,5.137l-1.862,3.1h0a.863.863,0,0,0-.125.446Zm3.475,1.737a1.739,1.739,0,0,1-1.737-1.737h3.475A1.739,1.739,0,0,1,131.473,61.03Zm1.072-3.475H130.4l1.072-1.786ZM142.766,64.5a.87.87,0,0,1-.869.869h-5.212a.869.869,0,0,1,0-1.737H141.9A.87.87,0,0,1,142.766,64.5ZM138.514,61.9l.695-6.949h.165l.695,6.949Zm9.667-4.343h-2.143l1.072-1.786Zm-1.072,3.475a1.739,1.739,0,0,1-1.737-1.737h3.475A1.739,1.739,0,0,1,147.109,61.03Zm-16.5-9.555h.869a.869.869,0,0,0,.614-.254,4.045,4.045,0,0,1,5.721,0,.869.869,0,0,0,.614.254h1.737a.869.869,0,0,0,.614-.254,4.045,4.045,0,0,1,5.721,0,.869.869,0,0,0,.614.254h.869a.869.869,0,0,1,0,1.737h-.525a5.784,5.784,0,0,0-7.636,0h-1.051a5.784,5.784,0,0,0-7.636,0H130.6a.869.869,0,1,1,0-1.737Z" transform="translate(-99.837 -28.525)" fill="#3e5d56"/>
      <path id="Trazado_1009640" data-name="Trazado 1009640" d="M112,224h5.212v1.737H112Z" transform="translate(-85.576 -185.415)" fill="#3e5d56"/>
      <path id="Trazado_1009641" data-name="Trazado 1009641" d="M112,256h6.949v1.737H112Z" transform="translate(-85.576 -213.94)" fill="#3e5d56"/>
      <path id="Trazado_1009642" data-name="Trazado 1009642" d="M192,256h6.949v1.737H192Z" transform="translate(-156.889 -213.94)" fill="#3e5d56"/>
      <path id="Trazado_1009643" data-name="Trazado 1009643" d="M272,256h10.424v1.737H272Z" transform="translate(-228.203 -213.94)" fill="#3e5d56"/>
      <path id="Trazado_1009644" data-name="Trazado 1009644" d="M112,384h6.949v1.737H112Z" transform="translate(-85.576 -328.041)" fill="#3e5d56"/>
      <path id="Trazado_1009645" data-name="Trazado 1009645" d="M192,384h10.424v1.737H192Z" transform="translate(-156.889 -328.041)" fill="#3e5d56"/>
      <path id="Trazado_1009646" data-name="Trazado 1009646" d="M112,288h3.475v1.737H112Z" transform="translate(-85.576 -242.465)" fill="#3e5d56"/>
      <path id="Trazado_1009647" data-name="Trazado 1009647" d="M160,288h8.687v1.737H160Z" transform="translate(-128.364 -242.465)" fill="#3e5d56"/>
      <path id="Trazado_1009648" data-name="Trazado 1009648" d="M256,288h10.424v1.737H256Z" transform="translate(-213.94 -242.465)" fill="#3e5d56"/>
      <path id="Trazado_1009649" data-name="Trazado 1009649" d="M112,352h3.475v1.737H112Z" transform="translate(-85.576 -299.516)" fill="#3e5d56"/>
      <path id="Trazado_1009650" data-name="Trazado 1009650" d="M160,352h8.687v1.737H160Z" transform="translate(-128.364 -299.516)" fill="#3e5d56"/>
      <path id="Trazado_1009651" data-name="Trazado 1009651" d="M256,352h7.818v1.737H256Z" transform="translate(-213.94 -299.516)" fill="#3e5d56"/>
      <path id="Trazado_1009652" data-name="Trazado 1009652" d="M112,320h14.767v1.737H112Z" transform="translate(-85.576 -270.991)" fill="#3e5d56"/>
    </g>
  </g>
</svg>
