<svg xmlns="http://www.w3.org/2000/svg" width="130" height="130" viewBox="0 0 130 130">
  <g id="Grupo_1181061" data-name="Grupo 1181061" transform="translate(-383.746 -8400)">
    <circle id="Elipse_13609" data-name="Elipse 13609" cx="65" cy="65" r="65" transform="translate(383.746 8400)" fill="#fff5c1"/>
    <g id="Layer_x0020_1" transform="translate(267.997 8428.856)">
      <g id="Grupo_1183274" data-name="Grupo 1183274" transform="translate(151)">
        <path id="Trazado_1009439" data-name="Trazado 1009439" d="M185.048,397.1H154.684A3.687,3.687,0,0,1,151,393.42V347.684A3.687,3.687,0,0,1,154.684,344h40.1a3.651,3.651,0,0,1,3.642,3.684v25.028a.862.862,0,0,1-.254.635,1.067,1.067,0,0,1-.678.212,10.833,10.833,0,0,0-1.99-.169,13.313,13.313,0,0,0-9.909,22.233.713.713,0,0,1,.3.635A.849.849,0,0,1,185.048,397.1Zm-30.364-51.41a1.988,1.988,0,0,0-1.99,1.99V393.42a1.988,1.988,0,0,0,1.99,1.99h28.585a14.87,14.87,0,0,1-2.795-8.724A15.028,15.028,0,0,1,195.508,371.7a11.5,11.5,0,0,1,1.228.042V347.684a1.952,1.952,0,0,0-1.948-1.99Z" transform="translate(-151 -329.432)" fill="#773b3d" fill-rule="evenodd"/>
        <path id="Trazado_1009440" data-name="Trazado 1009440" d="M382.517,496.694h-28.67a.847.847,0,1,1,0-1.694h28.67a.847.847,0,1,1,0,1.694Z" transform="translate(-344.446 -474.038)" fill="#773b3d" fill-rule="evenodd"/>
        <path id="Trazado_1009441" data-name="Trazado 1009441" d="M382.517,648.694h-28.67a.847.847,0,1,1,0-1.694h28.67a.847.847,0,1,1,0,1.694Z" transform="translate(-344.446 -619.601)" fill="#773b3d" fill-rule="evenodd"/>
        <path id="Trazado_1009442" data-name="Trazado 1009442" d="M382.517,800.694h-28.67a.847.847,0,1,1,0-1.694h28.67a.847.847,0,1,1,0,1.694Z" transform="translate(-344.446 -765.164)" fill="#773b3d" fill-rule="evenodd"/>
        <path id="Trazado_1009443" data-name="Trazado 1009443" d="M382.517,952.694h-28.67a.847.847,0,0,1,0-1.694h28.67a.847.847,0,1,1,0,1.694Z" transform="translate(-344.446 -910.727)" fill="#773b3d" fill-rule="evenodd"/>
        <path id="Trazado_1009444" data-name="Trazado 1009444" d="M378.621,1104.694H353.847a.847.847,0,0,1,0-1.694h24.774a.847.847,0,0,1,0,1.694Z" transform="translate(-344.446 -1056.29)" fill="#773b3d" fill-rule="evenodd"/>
        <path id="Trazado_1009445" data-name="Trazado 1009445" d="M375.148,1256.694h-21.3a.847.847,0,0,1,0-1.694h21.3a.847.847,0,0,1,0,1.694Z" transform="translate(-344.446 -1201.853)" fill="#773b3d" fill-rule="evenodd"/>
        <path id="Trazado_1009446" data-name="Trazado 1009446" d="M375.148,1408.694h-21.3a.847.847,0,0,1,0-1.694h21.3a.847.847,0,0,1,0,1.694Z" transform="translate(-344.446 -1347.416)" fill="#773b3d" fill-rule="evenodd"/>
        <path id="Trazado_1009447" data-name="Trazado 1009447" d="M432.454,115.857H408.485a.9.9,0,0,1-.8-.508.853.853,0,0,1,.212-.932l10.164-10.164a.818.818,0,0,1,1.186,0,1.821,1.821,0,0,0,2.456,0,.819.819,0,0,1,1.186,0l10.206,10.164a.923.923,0,0,1,.169.932A.853.853,0,0,1,432.454,115.857Zm-21.936-1.694h19.9l-8.215-8.216a3.4,3.4,0,0,1-3.473,0Z" transform="translate(-396.754 -99.596)" fill="#773b3d" fill-rule="evenodd"/>
        <path id="Trazado_1009448" data-name="Trazado 1009448" d="M633.43,6.86A3.471,3.471,0,0,1,630,3.43a3.43,3.43,0,1,1,3.43,3.43Zm0-5.166a1.744,1.744,0,0,0-1.736,1.736,1.772,1.772,0,0,0,1.736,1.736,1.744,1.744,0,0,0,1.736-1.736A1.717,1.717,0,0,0,633.43,1.694Z" transform="translate(-609.715)" fill="#773b3d" fill-rule="evenodd"/>
        <path id="Trazado_1009449" data-name="Trazado 1009449" d="M862.034,1028.025a15.012,15.012,0,1,1,14.991-15.034A15.037,15.037,0,0,1,862.034,1028.025Zm0-28.331a13.318,13.318,0,1,0,13.3,13.3A13.329,13.329,0,0,0,862.034,999.694Z" transform="translate(-817.526 -955.737)" fill="#773b3d" fill-rule="evenodd"/>
        <path id="Trazado_1009450" data-name="Trazado 1009450" d="M1014.7,1167.991a.965.965,0,0,1-.466-.127.909.909,0,0,1-.381-.847,4.273,4.273,0,0,1,.932-1.948c1.059-1.524.974-3.134.847-4.87s-.3-3.6,1.143-5.082a7.005,7.005,0,0,1,10.036,0c1.44,1.482,1.271,3.345,1.143,5.082s-.212,3.345.847,4.87a4.271,4.271,0,0,1,.932,1.948.83.83,0,0,1-.381.847.9.9,0,0,1-.974-.042c-.932-.72-3.345-1.44-6.606-1.44-3.219,0-5.632.72-6.564,1.44A.815.815,0,0,1,1014.7,1167.991Zm7.114-13.3a5.138,5.138,0,0,0-3.811,1.567c-.889.974-.8,2.244-.678,3.854a9.037,9.037,0,0,1-.762,5.251,20.518,20.518,0,0,1,10.46,0,9.037,9.037,0,0,1-.762-5.251c.127-1.609.212-2.88-.678-3.854A5.111,5.111,0,0,0,1021.815,1154.694Z" transform="translate(-977.307 -1104.173)" fill="#773b3d" fill-rule="evenodd"/>
        <path id="Trazado_1009451" data-name="Trazado 1009451" d="M1115.448,1243.125a.814.814,0,0,1-.847-.8c0-.127-.042-.339-.042-.593-.169-1.524-.212-2.88.423-3.6a.912.912,0,0,1,1.228-.042.858.858,0,0,1,.042,1.186,6.126,6.126,0,0,0,0,2.329c0,.254.042.466.042.678a.814.814,0,0,1-.8.847Z" transform="translate(-1073.65 -1185.448)" fill="#773b3d" fill-rule="evenodd"/>
        <path id="Trazado_1009452" data-name="Trazado 1009452" d="M1115.987,1078.844a.764.764,0,0,1-.423-.085,5.585,5.585,0,0,0-5.294,0,.9.9,0,0,1-.8,0,.884.884,0,0,1-.466-.678v-.508c0-2.5,1.736-4.574,3.9-4.574,2.2,0,3.938,2.075,3.938,4.574v.508a.884.884,0,0,1-.466.678A.63.63,0,0,1,1115.987,1078.844Zm-3.049-2.456a7.108,7.108,0,0,1,2.117.3,2.144,2.144,0,0,0-4.277,0A7.2,7.2,0,0,1,1112.938,1076.388Z" transform="translate(-1068.431 -1027.561)" fill="#773b3d" fill-rule="evenodd"/>
        <path id="Trazado_1009453" data-name="Trazado 1009453" d="M1004.724,1436.241c-4.362,0-8.724-1.228-8.724-3.6s4.362-3.642,8.724-3.642c4.32,0,8.681,1.27,8.681,3.642S1009.043,1436.241,1004.724,1436.241Zm0-5.548c-4.658,0-7.03,1.355-7.03,1.948,0,.551,2.371,1.906,7.03,1.906,4.616,0,6.987-1.355,6.987-1.906C1011.711,1432.049,1009.34,1430.694,1004.724,1430.694Z" transform="translate(-960.216 -1368.485)" fill="#773b3d" fill-rule="evenodd"/>
        <path id="Trazado_1009454" data-name="Trazado 1009454" d="M1110.942,1433.87a4.023,4.023,0,0,1-4.023-3.727.866.866,0,0,1,.72-.889,21.325,21.325,0,0,1,6.564,0,.866.866,0,0,1,.72.889A4.046,4.046,0,0,1,1110.942,1433.87Zm-2.118-3.049a2.3,2.3,0,0,0,2.118,1.355,2.239,2.239,0,0,0,2.075-1.355A17.355,17.355,0,0,0,1108.824,1430.821Z" transform="translate(-1066.434 -1368.485)" fill="#773b3d" fill-rule="evenodd"/>
      </g>
    </g>
  </g>
</svg>
