<svg xmlns="http://www.w3.org/2000/svg" width="129" height="127" viewBox="0 0 129 127">
  <g id="Grupo_1181073" data-name="Grupo 1181073" transform="translate(-403.711 -4444)">
    <rect id="Rectángulo_454806" data-name="Rectángulo 454806" width="129" height="127" transform="translate(403.711 4444)" fill="#bbded6"/>
    <path id="Rectángulo_454808" data-name="Rectángulo 454808" d="M0,0H79A12,12,0,0,1,91,12V91a0,0,0,0,1,0,0H12A12,12,0,0,1,0,79V0A0,0,0,0,1,0,0Z" transform="translate(422.711 4462)" fill="#fff"/>
    <g id="Grupo_1179124" data-name="Grupo 1179124" transform="translate(437.17 4476.562)">
      <g id="Grupo_1179099" data-name="Grupo 1179099" transform="translate(8.213 52.643)">
        <path id="Trazado_999997" data-name="Trazado 999997" d="M45.087,64.433H9.536a.936.936,0,0,1,0-1.871,4.748,4.748,0,0,0,3.368-1.4,4.593,4.593,0,0,0,1.4-3.368v-.655a.884.884,0,0,1,.936-.936H50.794a.884.884,0,0,1,.936.936v.748A6.712,6.712,0,0,1,45.087,64.433ZM14.12,62.562H45.087a4.654,4.654,0,0,0,4.678-4.491H16.084a6.4,6.4,0,0,1-1.965,4.491Z" transform="translate(-8.6 -56.2)" fill="#3e5d56"/>
      </g>
      <g id="Grupo_1179100" data-name="Grupo 1179100" transform="translate(2.6 1)">
        <path id="Trazado_999998" data-name="Trazado 999998" d="M9.149,60.876A6.568,6.568,0,0,1,2.6,54.327V5.678A4.632,4.632,0,0,1,7.278,1H40.116a4.632,4.632,0,0,1,4.678,4.678V16.437a.936.936,0,1,1-1.871,0V5.678a2.757,2.757,0,0,0-2.807-2.807H7.184A2.757,2.757,0,0,0,4.378,5.678V54.327A4.691,4.691,0,0,0,9.055,59a4.753,4.753,0,0,0,4.678-4.678v-.655a.936.936,0,1,1,1.871,0v.655a6.429,6.429,0,0,1-6.455,6.549Z" transform="translate(-2.6 -1)" fill="#3e5d56"/>
      </g>
      <g id="Grupo_1179101" data-name="Grupo 1179101" transform="translate(42.922 34.306)">
        <path id="Trazado_999999" data-name="Trazado 999999" d="M46.636,56.434A.884.884,0,0,1,45.7,55.5V37.536a.936.936,0,1,1,1.871,0V55.5A1.006,1.006,0,0,1,46.636,56.434Z" transform="translate(-45.7 -36.6)" fill="#3e5d56"/>
      </g>
      <g id="Grupo_1179102" data-name="Grupo 1179102" transform="translate(22.153 42.726)">
        <path id="Trazado_1000000" data-name="Trazado 1000000" d="M38.282,52.43H24.436a.884.884,0,0,1-.936-.936V48.781A3.155,3.155,0,0,1,26.681,45.6h9.262a3.155,3.155,0,0,1,3.181,3.181v2.713A.809.809,0,0,1,38.282,52.43ZM25.371,50.558H37.346V48.781a1.279,1.279,0,0,0-1.31-1.31H26.774a1.279,1.279,0,0,0-1.31,1.31v1.778Z" transform="translate(-23.5 -45.6)" fill="#3e5d56"/>
      </g>
      <g id="Grupo_1179103" data-name="Grupo 1179103" transform="translate(20.001 47.591)">
        <path id="Trazado_1000001" data-name="Trazado 1000001" d="M40.285,57.723H22.136a.884.884,0,0,1-.936-.936V51.736a.884.884,0,0,1,.936-.936H40.192a.884.884,0,0,1,.936.936v5.052A.815.815,0,0,1,40.285,57.723ZM23.071,55.852H39.256V52.671H23.071Z" transform="translate(-21.2 -50.8)" fill="#3e5d56"/>
      </g>
      <g id="Grupo_1179109" data-name="Grupo 1179109" transform="translate(28.234 15.688)">
        <g id="Grupo_1179104" data-name="Grupo 1179104" transform="translate(3.551 3.579)">
          <path id="Trazado_1000002" data-name="Trazado 1000002" d="M34.735,31.073a.851.851,0,0,1-.748-.374.915.915,0,0,1,.187-1.31,48.88,48.88,0,0,0,8.514-8.514A.936.936,0,0,1,44.184,22a52.144,52.144,0,0,1-8.794,8.794,1.244,1.244,0,0,1-.655.281Z" transform="translate(-33.795 -20.526)" fill="#3e5d56"/>
        </g>
        <g id="Grupo_1179105" data-name="Grupo 1179105" transform="translate(9.959 9.959)">
          <path id="Trazado_1000003" data-name="Trazado 1000003" d="M41.538,37.875a1,1,0,0,1-.561-.187.909.909,0,0,1-.094-1.31,65.1,65.1,0,0,1,8.794-8.794.929.929,0,0,1,1.216,1.4A66.538,66.538,0,0,0,42.38,37.5a1.143,1.143,0,0,1-.842.374Z" transform="translate(-40.645 -27.345)" fill="#3e5d56"/>
        </g>
        <g id="Grupo_1179106" data-name="Grupo 1179106" transform="translate(0 11.601)">
          <path id="Trazado_1000004" data-name="Trazado 1000004" d="M39.356,41.543a2.693,2.693,0,0,1-1.965-.842l-6.549-6.549a2.713,2.713,0,0,1,0-3.929l.281-.281a2.713,2.713,0,0,1,3.929,0L41.6,36.491a2.713,2.713,0,0,1,0,3.929l-.281.281a2.693,2.693,0,0,1-1.965.842ZM33.087,30.971a1.011,1.011,0,0,0-.655.281l-.281.281a.9.9,0,0,0,0,1.31L38.7,39.391a.9.9,0,0,0,1.31,0l.281-.281a.9.9,0,0,0,0-1.31l-6.549-6.549A1.011,1.011,0,0,0,33.087,30.971Z" transform="translate(-30 -29.1)" fill="#3e5d56"/>
        </g>
        <g id="Grupo_1179107" data-name="Grupo 1179107" transform="translate(11.601)">
          <path id="Trazado_1000005" data-name="Trazado 1000005" d="M51.756,29.143a2.693,2.693,0,0,1-1.965-.842l-6.549-6.549a2.713,2.713,0,0,1,0-3.929l.281-.281a2.713,2.713,0,0,1,3.929,0L54,24.091a2.713,2.713,0,0,1,0,3.929l-.281.281a2.853,2.853,0,0,1-1.965.842ZM45.394,18.571a1.011,1.011,0,0,0-.655.281l-.281.281a.9.9,0,0,0,0,1.31l6.549,6.549a.9.9,0,0,0,1.31,0l.281-.281a.9.9,0,0,0,0-1.31l-6.549-6.549A.849.849,0,0,0,45.394,18.571Z" transform="translate(-42.4 -16.7)" fill="#3e5d56"/>
        </g>
        <g id="Grupo_1179108" data-name="Grupo 1179108" transform="translate(12.641 12.711)">
          <path id="Trazado_1000006" data-name="Trazado 1000006" d="M58.376,48.917A3.889,3.889,0,0,1,55.569,47.7L43.781,34.977a.929.929,0,0,1,1.4-1.216L56.973,46.484a2.458,2.458,0,0,0,1.4.655,1.918,1.918,0,0,0,1.965-1.965,1.683,1.683,0,0,0-.655-1.4L46.962,31.89a.929.929,0,0,1,1.216-1.4L60.9,42.274a3.843,3.843,0,0,1,1.216,2.713A3.6,3.6,0,0,1,61,47.7a3.191,3.191,0,0,1-2.62,1.216Z" transform="translate(-43.511 -30.286)" fill="#3e5d56"/>
        </g>
      </g>
      <g id="Grupo_1179117" data-name="Grupo 1179117" transform="translate(9.991 5.771)">
        <g id="Grupo_1179112" data-name="Grupo 1179112">
          <g id="Grupo_1179111" data-name="Grupo 1179111">
            <g id="Grupo_1179110" data-name="Grupo 1179110">
              <path id="Trazado_1000007" data-name="Trazado 1000007" d="M19.2,21.817a.7.7,0,0,1-.468-.094c-.374-.187-8.233-5.146-8.233-10.2a5.473,5.473,0,0,1,8.794-4.3,5.473,5.473,0,0,1,8.794,4.3c0,5.052-7.952,10.01-8.233,10.2A1.826,1.826,0,0,1,19.2,21.817ZM15.833,7.971a3.554,3.554,0,0,0-3.555,3.555c0,3.087,4.584,6.736,6.923,8.233,2.339-1.5,6.923-5.239,6.923-8.233a3.554,3.554,0,0,0-3.555-3.555,3.481,3.481,0,0,0-2.62,1.216,1.017,1.017,0,0,1-1.4,0,3.843,3.843,0,0,0-2.713-1.216Z" transform="translate(-10.5 -6.1)" fill="#3e5d56"/>
            </g>
          </g>
        </g>
        <g id="Grupo_1179116" data-name="Grupo 1179116" transform="translate(6.081 1.59)">
          <g id="Grupo_1179113" data-name="Grupo 1179113" transform="translate(13.098)">
            <path id="Trazado_1000008" data-name="Trazado 1000008" d="M36.239,15.284H33.994A3.015,3.015,0,0,1,31,12.291V8.736a.884.884,0,0,1,.936-.936h1.216a.884.884,0,0,1,.936.936.884.884,0,0,1-.936.936h-.281v2.62a1.138,1.138,0,0,0,1.123,1.123h2.245a1.138,1.138,0,0,0,1.123-1.123V9.671h-.281a.884.884,0,0,1-.936-.936.884.884,0,0,1,.936-.936H38.3a.884.884,0,0,1,.936.936v3.555A2.955,2.955,0,0,1,36.239,15.284Z" transform="translate(-31 -7.8)" fill="#3e5d56"/>
          </g>
          <g id="Grupo_1179114" data-name="Grupo 1179114" transform="translate(1.778 5.52)">
            <path id="Trazado_1000009" data-name="Trazado 1000009" d="M32.466,20.717H23.391A4.492,4.492,0,0,1,18.9,16.226v-.187a.936.936,0,0,1,1.871,0v.187a2.615,2.615,0,0,0,2.62,2.62h9.075a1.038,1.038,0,0,0,1.029-1.029V14.636a.936.936,0,0,1,1.871,0v3.181A2.914,2.914,0,0,1,32.466,20.717Z" transform="translate(-18.9 -13.7)" fill="#3e5d56"/>
          </g>
          <g id="Grupo_1179115" data-name="Grupo 1179115" transform="translate(0 3.555)">
            <path id="Trazado_1000010" data-name="Trazado 1000010" d="M19.62,16.839a2.62,2.62,0,1,1,2.62-2.62A2.677,2.677,0,0,1,19.62,16.839Zm0-3.368a.748.748,0,1,0,.748.748A.8.8,0,0,0,19.62,13.471Z" transform="translate(-17 -11.6)" fill="#3e5d56"/>
          </g>
        </g>
      </g>
      <g id="Grupo_1179123" data-name="Grupo 1179123" transform="translate(7.968 25.324)">
        <g id="Grupo_1179118" data-name="Grupo 1179118" transform="translate(0.246)">
          <path id="Trazado_1000011" data-name="Trazado 1000011" d="M26.376,28.871H9.536a.936.936,0,0,1,0-1.871h16.84a.936.936,0,0,1,0,1.871Z" transform="translate(-8.6 -27)" fill="#3e5d56"/>
        </g>
        <g id="Grupo_1179119" data-name="Grupo 1179119" transform="translate(0.246 5.239)">
          <path id="Trazado_1000012" data-name="Trazado 1000012" d="M22.072,34.471H9.536a.936.936,0,1,1,0-1.871H22.072a.936.936,0,1,1,0,1.871Z" transform="translate(-8.6 -32.6)" fill="#3e5d56"/>
        </g>
        <g id="Grupo_1179120" data-name="Grupo 1179120" transform="translate(0.246 10.478)">
          <path id="Trazado_1000013" data-name="Trazado 1000013" d="M24.972,40.071H9.536a.936.936,0,1,1,0-1.871H24.972a.884.884,0,0,1,.936.936A.938.938,0,0,1,24.972,40.071Z" transform="translate(-8.6 -38.2)" fill="#3e5d56"/>
        </g>
        <g id="Grupo_1179121" data-name="Grupo 1179121" transform="translate(0.246 15.717)">
          <path id="Trazado_1000014" data-name="Trazado 1000014" d="M19.078,45.671H9.536a.936.936,0,0,1,0-1.871h9.543a.884.884,0,0,1,.936.936A.938.938,0,0,1,19.078,45.671Z" transform="translate(-8.6 -43.8)" fill="#3e5d56"/>
        </g>
        <g id="Grupo_1179122" data-name="Grupo 1179122" transform="translate(0 20.885)">
          <path id="Trazado_1000015" data-name="Trazado 1000015" d="M11.951,52.857A7.9,7.9,0,0,1,8.957,52.2a.947.947,0,1,1,.655-1.778c2.152.842,2.994.468,3.181.374a.728.728,0,0,0,.281-.561.9.9,0,0,1,.655-.842.888.888,0,0,1,1.029.374c.468.748,1.029,1.216,1.4,1.123.468,0,.936-.748,1.029-1.029a.921.921,0,1,1,1.684.748,3.732,3.732,0,0,1-2.62,2.152,2.392,2.392,0,0,1-2.058-.842,2.041,2.041,0,0,1-.468.374,2.533,2.533,0,0,1-1.778.561Z" transform="translate(-8.337 -49.323)" fill="#3e5d56"/>
        </g>
      </g>
    </g>
  </g>
</svg>
