<svg xmlns="http://www.w3.org/2000/svg" width="130" height="130" viewBox="0 0 130 130">
  <g id="Grupo_1181060" data-name="Grupo 1181060" transform="translate(-383.746 -8400)">
    <circle id="Elipse_13609" data-name="Elipse 13609" cx="65" cy="65" r="65" transform="translate(383.746 8400)" fill="#fff5c1"/>
    <g id="Layer_x0020_1" transform="translate(418.847 8398.541)">
      <path id="Trazado_1009455" data-name="Trazado 1009455" d="M12.608,94.887a.93.93,0,0,1-.929-.93V82.878H3.962A3.815,3.815,0,0,1,.15,79.067V41.841A3.816,3.816,0,0,1,3.962,38.03H55.837a3.816,3.816,0,0,1,3.811,3.811V79.067a3.815,3.815,0,0,1-3.811,3.811H26.176L13.233,94.645a.933.933,0,0,1-.626.242Zm-8.646-55a1.955,1.955,0,0,0-1.952,1.952V79.067a1.954,1.954,0,0,0,1.952,1.952h8.646a.929.929,0,0,1,.93.93v9.907L25.191,81.26a.933.933,0,0,1,.626-.242H55.837a1.954,1.954,0,0,0,1.952-1.952V41.841a1.955,1.955,0,0,0-1.952-1.952H3.962Z" transform="translate(0 0)" fill="#773b3d" fill-rule="evenodd"/>
      <path id="Trazado_1009456" data-name="Trazado 1009456" d="M715.419,283.056a4.056,4.056,0,0,1-3.957-3.888l-1.02-13.236a1.931,1.931,0,0,1,1.948-2.022h6.06a1.932,1.932,0,0,1,1.948,2.022l-1.02,13.235A4.058,4.058,0,0,1,715.419,283.056Zm-3.03-17.286a.13.13,0,0,0-.1.049l1.026,13.206a2.1,2.1,0,1,0,4.206,0l1.02-13.235c-.007.016-.049-.019-.094-.019h-6.06Z" transform="translate(-685.52 -218.004)" fill="#773b3d" fill-rule="evenodd"/>
      <path id="Trazado_1009457" data-name="Trazado 1009457" d="M745.506,882.7a3.9,3.9,0,1,1,3.9-3.9A3.9,3.9,0,0,1,745.506,882.7Zm0-5.932a2.036,2.036,0,0,0,0,4.073A2.036,2.036,0,0,0,745.506,876.769Z" transform="translate(-715.606 -807.699)" fill="#773b3d" fill-rule="evenodd"/>
    </g>
  </g>
</svg>
