<svg id="Grupo_1181089" data-name="Grupo 1181089" xmlns="http://www.w3.org/2000/svg" width="84" height="84" viewBox="0 0 84 84">
  <rect id="Rectángulo_455073" data-name="Rectángulo 455073" width="84" height="84" rx="10" fill="#bbded6"/>
  <g id="Filled_outline" data-name="Filled outline" transform="translate(-1.231 -1.231)">
    <path id="Trazado_1010215" data-name="Trazado 1010215" d="M190.124,224.321v16.357H152V224.321a5.446,5.446,0,0,1,4.442-5.353l7.147-1.34,2.934-.55V208H175.6v9.077l2.934.55,7.147,1.34a5.422,5.422,0,0,1,2.631,1.3l.015.013c.066.06.131.121.194.184.048.048.094.1.14.145s.091.1.134.149.1.117.148.177c.03.039.06.077.09.117l.028.037c.029.04.059.081.087.123.019.026.037.053.054.081l.024.034.039.06c.025.039.05.077.071.117s.037.061.056.093c.029.051.059.1.087.157s.047.09.069.135c.01.022.022.043.033.066a.863.863,0,0,1,.039.081c.018.039.036.078.053.117s.042.1.061.146.05.126.073.191q.07.191.123.388c.032.117.06.235.084.354.006.024.01.048.015.071h0c.011.057.02.113.029.17,0,0,0,.006,0,.008.008.052.016.1.022.157v0c0,.024.007.047.009.07.007.053.011.107.016.16,0,.02,0,.041,0,.06s0,.014,0,.02c0,.051.007.1.008.154C190.123,224.179,190.124,224.249,190.124,224.321Z" transform="translate(-120.569 -170.215)" fill="#fec9a3"/>
    <path id="Trazado_1010216" data-name="Trazado 1010216" d="M289.077,212.976V208H280v4.976A8.165,8.165,0,0,0,289.077,212.976Z" transform="translate(-234.045 -170.215)" fill="#feb784"/>
    <path id="Trazado_1010217" data-name="Trazado 1010217" d="M190.124,295.244V311.6H152V295.244a5.446,5.446,0,0,1,4.442-5.353L166.523,288l2.723,3.631,1.815,6.354,1.815-6.354L175.6,288l10.081,1.89.087.018a5.3,5.3,0,0,1,.555.143A5.448,5.448,0,0,1,190.124,295.244Z" transform="translate(-120.569 -241.138)" fill="#743b20"/>
    <path id="Trazado_1010218" data-name="Trazado 1010218" d="M284.513,310.155v16.357H258.47c5.876-2.712,16.227-9.053,21.689-21.692a5.292,5.292,0,0,1,.555.143A5.448,5.448,0,0,1,284.513,310.155Z" transform="translate(-214.958 -256.049)" fill="#61311b"/>
    <path id="Trazado_1010219" data-name="Trazado 1010219" d="M259.8,291.631l-4.539,3.631-1.119-6.711,2.934-.55Z" transform="translate(-211.12 -241.138)" fill="#95573a"/>
    <path id="Trazado_1010220" data-name="Trazado 1010220" d="M341.657,288.55l-1.119,6.711L336,291.631,338.723,288Z" transform="translate(-283.691 -241.138)" fill="#95573a"/>
    <path id="Trazado_1010221" data-name="Trazado 1010221" d="M264.339,48.169v7.262a8.169,8.169,0,0,1-16.339,0V48.169a8.172,8.172,0,0,1,11.889-7.275h0A8.177,8.177,0,0,1,264.339,48.169Z" transform="translate(-205.676 -21.277)" fill="#fec9a3"/>
    <path id="Trazado_1010222" data-name="Trazado 1010222" d="M316.2,55.164v7.262a8.173,8.173,0,0,1-9.7,8.025,8.172,8.172,0,0,0,6.638-8.025V52.441a8.126,8.126,0,0,0-1.385-4.551A8.177,8.177,0,0,1,316.2,55.164Z" transform="translate(-257.539 -28.272)" fill="#fec093"/>
    <path id="Trazado_1010223" data-name="Trazado 1010223" d="M363.631,48.58l1.815,1.815V44.116A4.677,4.677,0,0,0,360,39.5v2.723A29.768,29.768,0,0,0,363.631,48.58Z" transform="translate(-304.968 -20.78)" fill="#743b20"/>
    <path id="Trazado_1010224" data-name="Trazado 1010224" d="M233.815,48.58,232,50.4V44.116a4.677,4.677,0,0,1,5.446-4.614v2.723A29.767,29.767,0,0,1,233.815,48.58Z" transform="translate(-191.492 -20.78)" fill="#8c5137"/>
    <path id="Trazado_1010225" data-name="Trazado 1010225" d="M246.523,25.815v2.723l-.1.061a23.133,23.133,0,0,1-9.707,3.141L232,32.169V30.354A6.354,6.354,0,0,1,238.354,24h5.232a3.284,3.284,0,0,1,2.938,1.816Z" transform="translate(-191.492 -7.092)" fill="#7a432a"/>
    <path id="Trazado_1010226" data-name="Trazado 1010226" d="M328.094,25.815v2.723l-.1.061a8.2,8.2,0,0,0-3.98-4.6h1.146a3.284,3.284,0,0,1,2.938,1.816Z" transform="translate(-273.062 -7.092)" fill="#743b20"/>
    <path id="Trazado_1010227" data-name="Trazado 1010227" d="M152,312h14.523v19.97H152Z" transform="translate(-120.569 -262.415)" fill="#3d4d63"/>
    <path id="Trazado_1010228" data-name="Trazado 1010228" d="M24,312H38.523v19.97H24Z" transform="translate(-7.092 -262.415)" fill="#3d4d63"/>
    <path id="Trazado_1010229" data-name="Trazado 1010229" d="M38.523,303.6a3.631,3.631,0,0,0-3.631-3.631H24V280H34.893a3.631,3.631,0,0,1,3.631,3.631Z" transform="translate(-7.092 -234.046)" fill="#fae890"/>
    <path id="Trazado_1010230" data-name="Trazado 1010230" d="M152,303.6a3.631,3.631,0,0,1,3.631-3.631h10.893V280H155.631A3.631,3.631,0,0,0,152,283.631Z" transform="translate(-120.569 -234.046)" fill="#f5df7b"/>
    <path id="Trazado_1010231" data-name="Trazado 1010231" d="M152,318.523v6.354a3.631,3.631,0,0,1,3.631-3.631h10.893V304Z" transform="translate(-120.569 -255.322)" fill="#edd561"/>
    <path id="Trazado_1010232" data-name="Trazado 1010232" d="M59.631,162.154l-1.815,1.815L56,162.154V145.815a1.815,1.815,0,0,1,3.631,0Z" transform="translate(-35.461 -113.477)" fill="#7a432a"/>
    <path id="Trazado_1010233" data-name="Trazado 1010233" d="M56,219.336v3.812l1.815,1.815,1.815-1.815V212.8Z" transform="translate(-35.461 -174.47)" fill="#743b20"/>
    <path id="Trazado_1010234" data-name="Trazado 1010234" d="M392.908,120H392v5.446h.908a2.723,2.723,0,0,0,0-5.446Z" transform="translate(-333.337 -92.2)" fill="#feb784"/>
    <path id="Trazado_1010235" data-name="Trazado 1010235" d="M218.769,120h-.045a2.723,2.723,0,0,0,0,5.446h.962L219.631,120Z" transform="translate(-177.307 -92.2)" fill="#feb784"/>
    <rect id="Rectángulo_456332" data-name="Rectángulo 456332" width="8" height="5" rx="2.5" transform="translate(41 28)" fill="#e0e0de"/>
    <rect id="Rectángulo_456333" data-name="Rectángulo 456333" width="8" height="5" rx="2.5" transform="translate(52 28)" fill="#e0e0de"/>
    <path id="Trazado_1010236" data-name="Trazado 1010236" d="M256,128.77h3.994a1.452,1.452,0,0,0,1.452-1.452v-2.542a1.448,1.448,0,0,0-.425-1.027Z" transform="translate(-212.769 -95.524)" fill="#d6d6d4"/>
    <path id="Trazado_1010237" data-name="Trazado 1010237" d="M352,128.77h3.994a1.452,1.452,0,0,0,1.452-1.452v-2.542a1.448,1.448,0,0,0-.425-1.027Z" transform="translate(-297.876 -95.524)" fill="#d6d6d4"/>
    <path id="Trazado_1010238" data-name="Trazado 1010238" d="M65.283,47.858l-9.344-1.749v-4.7a9.054,9.054,0,0,0,3.631-7.258,3.63,3.63,0,0,0,1.815-6.773V23.337a5.585,5.585,0,0,0-5.878-5.577A4.164,4.164,0,0,0,52.094,16H46.862a7.269,7.269,0,0,0-7.254,6.972c-.007.106-.007,4.409-.007,4.409a3.63,3.63,0,0,0,1.815,6.774,9.054,9.054,0,0,0,3.631,7.258v3.635H35.062a4.534,4.534,0,0,0-3.63,1.817,4.688,4.688,0,0,0-.417-.485l-.009-.009A4.543,4.543,0,0,0,27.8,45.047H25.077V35.062h.908a.909.909,0,0,1,.908.908v5.446h1.815V35.97a2.726,2.726,0,0,0-2.723-2.723h-.908v-.908a2.723,2.723,0,1,0-5.446,0V45.047H16.908a.908.908,0,0,0-.908.908v23.6a.908.908,0,0,0,.908.908H45.955a.908.908,0,0,0,.908-.908V60.478h.908V58.662h-.908V53.108l1.317-1.054,1.406,4.92V70.463H51.4V56.974l1.406-4.92,3.473,2.779a.908.908,0,0,0,1.466-.583l.813-5.8,6.39,1.2a4.54,4.54,0,0,1,3.7,4.464V70.463h1.815V54.106a6.357,6.357,0,0,0-5.181-6.248ZM51.436,50.243l-.943,3.3-.943-3.3a.906.906,0,0,0-.146-.3L46.862,46.56V42.473a9.071,9.071,0,0,0,7.262,0v4.087l-2.542,3.389a.906.906,0,0,0-.146.3Zm-.025-21.2a5.163,5.163,0,0,0-1.836,0,2.362,2.362,0,0,0-2.35-2.156H44.117q.4-.6.8-1.3l.388-.035a24.2,24.2,0,0,0,9.3-2.822,33.178,33.178,0,0,0,2.267,4.162H53.761A2.362,2.362,0,0,0,51.411,29.048Zm-8.543,3.29a.545.545,0,0,1-.545-.545V29.252a.545.545,0,0,1,.545-.545h4.357a.545.545,0,0,1,.545.545v2.542a.545.545,0,0,1-.545.545Zm10.348-3.086a.545.545,0,0,1,.545-.545h4.357a.545.545,0,0,1,.545.545v2.542a.545.545,0,0,1-.545.545H53.761a.545.545,0,0,1-.545-.545Zm7.636,2.553a1.836,1.836,0,0,1-.4.3,2.365,2.365,0,0,0,.023-.312V29.252a2.357,2.357,0,0,0-.023-.313,1.812,1.812,0,0,1,.4,2.866ZM59.57,23.337v3.556H59.1a29.706,29.706,0,0,1-3.159-5.632V19.569a3.77,3.77,0,0,1,3.631,3.767ZM46.862,17.815h5.232a2.362,2.362,0,0,1,2.03,1.14v1.97a22.377,22.377,0,0,1-8.984,2.819l-3.724.338v-.821c0-.065,0-.129,0-.193,0-.014,0-.027,0-.037h0a5.452,5.452,0,0,1,5.44-5.216Zm-5.446,8.091,1.252-.113c-.262.4-.522.772-.777,1.1h-.474ZM39.6,30.523a1.816,1.816,0,0,1,.931-1.584,2.361,2.361,0,0,0-.023.313v2.542a2.372,2.372,0,0,0,.023.313,1.816,1.816,0,0,1-.93-1.584Zm3.631,3.631h3.994a2.363,2.363,0,0,0,2.36-2.36v-.883a3.328,3.328,0,0,1,1.815,0v.883a2.363,2.363,0,0,0,2.36,2.36h3.994a7.262,7.262,0,0,1-14.523,0ZM35.062,46.862h9.985V65.016H35.062a4.515,4.515,0,0,0-2.723.91V49.585A2.726,2.726,0,0,1,35.062,46.862Zm-11.8,1.44-.908.908-.908-.908V35.062h1.815Zm-.908-16.871a.909.909,0,0,1,.908.908v.908H21.446v-.908A.909.909,0,0,1,22.354,31.431ZM17.815,46.862h1.815v1.815a.908.908,0,0,0,.266.642l1.815,1.815a.905.905,0,0,0,.642.266h6.354V49.585H24.545l.266-.266a.908.908,0,0,0,.266-.642V46.862H27.8a2.718,2.718,0,0,1,2.723,2.723V65.927a4.514,4.514,0,0,0-2.723-.91H17.815Zm0,19.97H27.8a2.728,2.728,0,0,1,2.567,1.815H17.815Zm14.68,1.815a2.728,2.728,0,0,1,2.567-1.815h9.985v1.815ZM46.862,50.783v-1.2l.561.749Zm9.307,1.636-2.607-2.085,1.852-2.469,1.355.271Z" transform="translate(0 0)"/>
    <path id="Trazado_1010239" data-name="Trazado 1010239" d="M352.169,394.723H344v1.815h8.169V403.8h1.815V392h-1.815Z" transform="translate(-290.784 -333.338)"/>
    <path id="Trazado_1010240" data-name="Trazado 1010240" d="M301.709,181.524l-.526-1.737a11.24,11.24,0,0,1-3.262.478H296v1.815h1.921a13.052,13.052,0,0,0,3.788-.556Z" transform="translate(-248.23 -145.203)"/>
    <path id="Trazado_1010241" data-name="Trazado 1010241" d="M48,344h9.077v1.815H48Z" transform="translate(-28.369 -290.784)"/>
    <path id="Trazado_1010242" data-name="Trazado 1010242" d="M48,376h9.077v1.815H48Z" transform="translate(-28.369 -319.153)"/>
    <path id="Trazado_1010243" data-name="Trazado 1010243" d="M48,408h9.077v1.815H48Z" transform="translate(-28.369 -347.522)"/>
    <path id="Trazado_1010244" data-name="Trazado 1010244" d="M176,312h9.077v1.815H176Z" transform="translate(-141.846 -262.415)"/>
    <path id="Trazado_1010245" data-name="Trazado 1010245" d="M176,344h9.077v1.815H176Z" transform="translate(-141.846 -290.784)"/>
    <path id="Trazado_1010246" data-name="Trazado 1010246" d="M176,376h5.446v1.815H176Z" transform="translate(-141.846 -319.153)"/>
    <path id="Trazado_1010247" data-name="Trazado 1010247" d="M176,408h9.077v1.815H176Z" transform="translate(-141.846 -347.522)"/>
    <path id="Trazado_1010248" data-name="Trazado 1010248" d="M240,376h1.815v1.815H240Z" transform="translate(-198.584 -319.153)"/>
  </g>
</svg>
