<svg xmlns="http://www.w3.org/2000/svg" width="400" height="621" viewBox="0 0 400 621">
  <g id="Grupo_1182068" data-name="Grupo 1182068" transform="translate(4383 9163)">
    <rect id="Rectángulo_456149" data-name="Rectángulo 456149" width="400" height="621" rx="20" transform="translate(-4383 -9163)" fill="#ffebe7"/>
    <g id="Grupo_1182059" data-name="Grupo 1182059" transform="translate(-17.923 -40.942)">
      <g id="Grupo_1182039" data-name="Grupo 1182039" transform="translate(-4219.012 -9134.521) rotate(90)">
        <path id="Trazado_1007642" data-name="Trazado 1007642" d="M133.941,637.636V553.315c0-10.052,4.536-10.2,10.13-10.2h65c5.595,0,10.13.146,10.13,10.2v84.321Z" transform="translate(-91.42 -543.117)" fill="#ffbdb6"/>
        <path id="Trazado_1007643" data-name="Trazado 1007643" d="M416.049,876.065a22.62,22.62,0,1,0-22.619,22.619A22.619,22.619,0,0,0,416.049,876.065Z" transform="translate(-308.662 -782.62)" fill="#ffbdb6"/>
        <text id="_1" data-name="1" transform="translate(93.744 100.812) rotate(-90)" fill="#12263f" font-size="25" font-family="SegoeUIBlack, Segoe UI"><tspan x="0" y="0">1</tspan></text>
      </g>
      <g id="Grupo_1182047" data-name="Grupo 1182047" transform="translate(-4289.007 -9077)">
        <g id="Grupo_1182047-2" data-name="Grupo 1182047" transform="translate(0.826 1.645)">
          <path id="Trazado_1007644" data-name="Trazado 1007644" d="M414.145,107.822l6.4-6.4a.437.437,0,0,1,.619,0l1.369,1.369.9,1.368a.437.437,0,0,1,0,.619l-6.165,6.165-1.445-1.445Z" transform="translate(-369.676 -91.042)" fill="#fea3ce"/>
          <path id="Trazado_1007645" data-name="Trazado 1007645" d="M437.564,116.351l-1.368-1.368-6.707,6.707,1.677,1.677,6.4-6.4A.437.437,0,0,0,437.564,116.351Z" transform="translate(-383.343 -103.231)" fill="#fe7ab6"/>
          <path id="Trazado_1007646" data-name="Trazado 1007646" d="M178.876,192.6a29.4,29.4,0,0,1,2.642-2.593l11.073-9.58a11.969,11.969,0,0,0,1.42-1.457l-2.61-4.8-5.249-3.062a11.961,11.961,0,0,0-1.457,1.42l-9.58,11.073a29.417,29.417,0,0,1-2.593,2.642l-7.627,6.848,2.476,4.664,4.657,2.47Z" transform="translate(-147.682 -153.224)" fill="#8ac9fe"/>
          <path id="Trazado_1007647" data-name="Trazado 1007647" d="M208.536,238.77l6.848-7.627a29.4,29.4,0,0,1,2.642-2.593l11.073-9.58a11.978,11.978,0,0,0,1.42-1.457l-2.058-3.561c-.22.259-.459.521-.72.782l-9.682,9.682c-1.1,1.1-3.014,1.467-4.164,2.618-1.129,1.129-1.5,3.042-2.618,4.164l-5.825,5.825Z" transform="translate(-183.804 -191.378)" fill="#60b7ff"/>
          <path id="Trazado_1007648" data-name="Trazado 1007648" d="M368.539,155.881a10,10,0,0,0,1.211-2.75l.2-.83c.106-.434-.177-.736-.493-1.052l-1.536-1.845-1.846-1.846a1.278,1.278,0,0,0-1.206-.338l-.83.2a11.963,11.963,0,0,0-4.761,2.378l5.466,5.466,2.624,2.315a11.97,11.97,0,0,0,1.167-1.7Z" transform="translate(-320.812 -131.911)" fill="#f5f8f9"/>
          <path id="Trazado_1007649" data-name="Trazado 1007649" d="M412.05,176.127a11.962,11.962,0,0,0,2.378-4.761l.2-.83a1.278,1.278,0,0,0-.338-1.206l-1.845-1.845a10.455,10.455,0,0,1-3.176,5.863Z" transform="translate(-365.335 -149.992)" fill="#e8edf2"/>
          <path id="Trazado_1007650" data-name="Trazado 1007650" d="M102.982,384.939c1.188,1.188,5.77,1.9,7.95-.531l4.314-4.832-1.875-2.339-5.1-5.1-5.063,4.546A5.692,5.692,0,0,0,102.982,384.939Z" transform="translate(-91.056 -332.261)" fill="#60b7ff"/>
          <path id="Trazado_1007651" data-name="Trazado 1007651" d="M124.819,426.287l4.546-5.063-2.416-2.416-1.692,1.692-.568.787-.585.366-.966.966-.636.855-.517.3-.617.617q-.175.175-.36.336c-.2.174-.409.555-.625.7-.232.16-.472.088-.72.22a7.15,7.15,0,0,1-2.46.778l-.641.08A5.692,5.692,0,0,0,124.819,426.287Z" transform="translate(-104.633 -373.831)" fill="#26a6fe"/>
          <path id="Trazado_1007652" data-name="Trazado 1007652" d="M239.091,283.235l-1.662,1.662-.735.425-.425.734-1.146,1.146-.734.426-.425.735-1.655,1.653a1.9,1.9,0,0,1-2.681,0l-.005-.005a1.9,1.9,0,0,1,0-2.681l1.655-1.653.734-.426.425-.735,1.146-1.145.735-.426.425-.735,1.662-1.662a1.9,1.9,0,0,1,2.681,0l.005.005A1.9,1.9,0,0,1,239.091,283.235Z" transform="translate(-204.837 -250.196)" fill="#f5f8f9"/>
          <path id="Trazado_1007653" data-name="Trazado 1007653" d="M17.148,323.473l-6.166,6.166a.437.437,0,0,1-.619,0L9,328.735l-1.369-1.369a.437.437,0,0,1,0-.619l6.4-6.4Z" transform="translate(-7.499 -286.141)" fill="#fea3ce"/>
          <path id="Trazado_1007654" data-name="Trazado 1007654" d="M21.192,342.4l1.368,1.368a.437.437,0,0,0,.619,0l6.4-6.4L27.9,335.7Z" transform="translate(-19.695 -299.81)" fill="#fe7ab6"/>
          <path id="Trazado_1007655" data-name="Trazado 1007655" d="M92.453,78.725a29.4,29.4,0,0,1-2.642,2.593L78.739,90.9a11.976,11.976,0,0,0-1.42,1.457l3,5.184,4.939,2.752a11.96,11.96,0,0,0,1.457-1.42L96.292,87.8a29.417,29.417,0,0,1,2.593-2.642l7.627-6.848-2.167-4.354L99.3,71.1Z" transform="translate(-69.684 -64.145)" fill="#8ac9fe"/>
          <path id="Trazado_1007656" data-name="Trazado 1007656" d="M134.91,123.653a29.415,29.415,0,0,1,2.593-2.642l7.627-6.848-1.676-3.156-5.9,5.9c-1.067,1.067-2.929,1.383-4.014,2.467-1.2,1.2-1.618,3.164-2.769,4.315l-9.7,9.7c-.252.252-.5.482-.746.7l3.542,2.066a11.961,11.961,0,0,0,1.457-1.42Z" transform="translate(-107.992 -99.69)" fill="#60b7ff"/>
          <path id="Trazado_1007657" data-name="Trazado 1007657" d="M54.839,267.189a11.966,11.966,0,0,0-1.211,3.06l-.2.83a1.278,1.278,0,0,0,.338,1.206l1.845,1.845,1.845,1.381a1.278,1.278,0,0,0,1.206.338l.83-.2a7.8,7.8,0,0,0,2.518-.825,11.971,11.971,0,0,0,1.7-1.167l-2.237-2.7-5.467-5.467A11.972,11.972,0,0,0,54.839,267.189Z" transform="translate(-48.371 -237.278)" fill="#f5f8f9"/>
          <path id="Trazado_1007658" data-name="Trazado 1007658" d="M79.534,315.5c-3.144,3.144-5.846,3.158-5.847,3.158l1.845,1.845a1.278,1.278,0,0,0,1.206.338l.83-.2a11.962,11.962,0,0,0,4.761-2.378l-2.778-2.778Z" transform="translate(-66.449 -281.802)" fill="#e8edf2"/>
          <path id="Trazado_1007659" data-name="Trazado 1007659" d="M291.144,9.187a5.692,5.692,0,0,0-8.26.222l-4.546,5.063,5.1,5.1,2.493,1.875,4.6-4.392c2.428-2.18,1.86-6.621.609-7.873Z" transform="translate(-248.721 -7.52)" fill="#60b7ff"/>
          <path id="Trazado_1007660" data-name="Trazado 1007660" d="M330.712,27.457l-.728.728c-.185.185-.393.612-.623.842-.168.168-.347.128-.536.318l-.96.96c-.186.186-.378.6-.577.8s-.383.164-.582.364l-1.689,1.689,2.416,2.416,5.063-4.546a5.692,5.692,0,0,0,.222-8.26s.474,1.263-.763,3.181c-.126.195-.269.615-.432.823s-.364.223-.581.453Q330.831,27.339,330.712,27.457Z" transform="translate(-290.294 -21.097)" fill="#26a6fe"/>
          <path id="Trazado_1007661" data-name="Trazado 1007661" d="M196.218,138.515l-2.81,2.812-.735.426-.425.735-2.812,2.81a1.9,1.9,0,0,1-2.681,0l-.005-.005a1.9,1.9,0,0,1,0-2.681l2.812-2.81.626-.317.534-.843,2.81-2.811a1.9,1.9,0,0,1,2.681,0l.005.005A1.9,1.9,0,0,1,196.218,138.515Z" transform="translate(-166.653 -121.302)" fill="#f5f8f9"/>
        </g>
        <g id="Grupo_1182048" data-name="Grupo 1182048" transform="translate(0.007 0)">
          <path id="Trazado_1007662" data-name="Trazado 1007662" d="M139.174,96.926l-2.737-2.737a1.259,1.259,0,0,0-1.778,0L129.746,99.1a2.116,2.116,0,0,0-1.508-.2l-.831.2a12.787,12.787,0,0,0-6.643,4.059l-9.581,11.072a28.829,28.829,0,0,1-2.521,2.568L95.973,128.194a6.512,6.512,0,0,0-.254,9.451,6.447,6.447,0,0,0,4.6,1.907l.182,0a6.453,6.453,0,0,0,4.671-2.16l11.4-12.69a28.554,28.554,0,0,1,2.567-2.521l6.539-5.657a.82.82,0,1,0-1.073-1.241l-6.54,5.657a30.207,30.207,0,0,0-2.715,2.666l-6.27,6.983-1.568-1.568a.82.82,0,0,0-1.16,1.16l1.63,1.63-4.027,4.484a4.872,4.872,0,0,1-8.5-3.253,4.88,4.88,0,0,1,1.617-3.626l4.485-4.027,2.081,2.081a.82.82,0,1,0,1.16-1.16l-2.019-2.019,6.984-6.27a30.507,30.507,0,0,0,2.665-2.715l9.581-11.072a11.144,11.144,0,0,1,.8-.832l7.156,7.156a11.215,11.215,0,0,1-.832.8l-1.638,1.417a.82.82,0,1,0,1.073,1.241L130.2,112.6a12.8,12.8,0,0,0,4.058-6.644l.2-.83a2.108,2.108,0,0,0-.2-1.509l4.912-4.912a1.259,1.259,0,0,0,0-1.778Zm-6.3,7.811-.2.83a11.189,11.189,0,0,1-1.129,2.85c-.166.293-.347.579-.54.858l-6.912-6.912q.416-.288.859-.54a11.176,11.176,0,0,1,2.85-1.128l.829-.2a.464.464,0,0,1,.433.121l3.691,3.692A.46.46,0,0,1,132.871,104.737Zm.291-2.34-2.2-2.2,4.581-4.581,2.2,2.2Z" transform="translate(-83.553 -83.562)"/>
          <path id="Trazado_1007663" data-name="Trazado 1007663" d="M229.142,273.313l-6.782,6.782a2.716,2.716,0,0,0,0,3.838l.008.008a2.716,2.716,0,0,0,3.841,0l6.782-6.782a2.716,2.716,0,0,0,0-3.838l-.008-.008A2.719,2.719,0,0,0,229.142,273.313Zm-4.095,9.469a1.076,1.076,0,0,1-1.519,0l-.008-.008a1.076,1.076,0,0,1,0-1.521l1.658-1.658,1.527,1.527Zm2.818-2.818-1.527-1.527,1.146-1.146,1.527,1.527ZM231.829,276l-1.658,1.658-1.527-1.527,1.658-1.658a1.076,1.076,0,0,1,1.519,0l.008.008a1.076,1.076,0,0,1,0,1.521Z" transform="translate(-197.337 -242.718)"/>
          <path id="Trazado_1007664" data-name="Trazado 1007664" d="M11.31,40.654l.831-.2a12.789,12.789,0,0,0,6.643-4.059L28.364,25.32a28.815,28.815,0,0,1,2.521-2.568l10.927-9.81a.82.82,0,0,0-1.1-1.221l-2.721,2.443L31.573,7.743,35.6,3.258a4.872,4.872,0,0,1,7.7,5.924.82.82,0,0,0,1.371.9,6.514,6.514,0,0,0-.842-8.176,6.512,6.512,0,0,0-9.45.255l-11.4,12.69a28.54,28.54,0,0,1-2.567,2.521L14.612,22.4a.82.82,0,0,0,1.073,1.241l5.806-5.023A30.205,30.205,0,0,0,24.2,15.948l6.27-6.983,6.3,6.3-6.983,6.27a30.507,30.507,0,0,0-2.665,2.715L17.543,35.319q-.34.393-.713.75L9.668,28.907c.239-.249.489-.488.749-.713l2.373-2.053A.82.82,0,0,0,11.717,24.9L9.344,26.953A12.8,12.8,0,0,0,5.286,33.6l-.2.83a2.108,2.108,0,0,0,.2,1.509L.374,40.848a1.259,1.259,0,0,0,0,1.779l2.737,2.737a1.259,1.259,0,0,0,1.778,0L9.8,40.45a2.126,2.126,0,0,0,1.018.262,2.084,2.084,0,0,0,.49-.058ZM4,43.932l-2.2-2.2,4.582-4.581,2.2,2.2Zm6.489-4.993L6.8,35.247a.46.46,0,0,1-.121-.432l.2-.83a11.029,11.029,0,0,1,1.74-3.808l6.94,6.94a11.045,11.045,0,0,1-3.808,1.74l-.829.2a.463.463,0,0,1-.433-.121Z" transform="translate(-0.007 0)"/>
          <path id="Trazado_1007665" data-name="Trazado 1007665" d="M182.976,139.97a2.708,2.708,0,0,0,1.921-.794l6.782-6.782a2.716,2.716,0,0,0,0-3.838l-.008-.008a2.716,2.716,0,0,0-3.841,0l-6.782,6.782a2.716,2.716,0,0,0,0,3.838l.008.008A2.707,2.707,0,0,0,182.976,139.97Zm6.016-10.263a1.076,1.076,0,0,1,1.519,0l.008.008a1.076,1.076,0,0,1,0,1.521l-2.811,2.811-1.527-1.527Zm-6.782,6.782,2.811-2.811,1.527,1.527-2.811,2.811a1.076,1.076,0,0,1-1.519,0l-.008-.008a1.076,1.076,0,0,1,0-1.521Z" transform="translate(-160.543 -113.782)"/>
          <circle id="Elipse_13901" data-name="Elipse 13901" cx="0.82" cy="0.82" r="0.82" transform="translate(38.833 3.152)"/>
          <circle id="Elipse_13902" data-name="Elipse 13902" cx="0.82" cy="0.82" r="0.82" transform="translate(40.906 5.224)"/>
          <circle id="Elipse_13903" data-name="Elipse 13903" cx="0.82" cy="0.82" r="0.82" transform="translate(36.714 5.272)"/>
          <circle id="Elipse_13904" data-name="Elipse 13904" cx="0.82" cy="0.82" r="0.82" transform="translate(38.786 7.343)"/>
          <circle id="Elipse_13905" data-name="Elipse 13905" cx="0.82" cy="0.82" r="0.82" transform="translate(34.594 7.391)"/>
          <circle id="Elipse_13906" data-name="Elipse 13906" cx="0.82" cy="0.82" r="0.82" transform="translate(36.666 9.463)"/>
          <circle id="Elipse_13907" data-name="Elipse 13907" cx="0.82" cy="0.82" r="0.82" transform="translate(17.682 44.886)"/>
          <circle id="Elipse_13908" data-name="Elipse 13908" cx="0.82" cy="0.82" r="0.82" transform="translate(19.754 46.957)"/>
          <circle id="Elipse_13909" data-name="Elipse 13909" cx="0.82" cy="0.82" r="0.82" transform="translate(15.563 47.005)"/>
          <circle id="Elipse_13910" data-name="Elipse 13910" cx="0.82" cy="0.82" r="0.82" transform="translate(17.635 49.077)"/>
          <circle id="Elipse_13911" data-name="Elipse 13911" cx="0.82" cy="0.82" r="0.82" transform="translate(13.442 49.125)"/>
          <circle id="Elipse_13912" data-name="Elipse 13912" cx="0.82" cy="0.82" r="0.82" transform="translate(15.515 51.196)"/>
        </g>
      </g>
    </g>
    <g id="Grupo_1182064" data-name="Grupo 1182064" transform="translate(-17.923 304.839)">
      <g id="Grupo_1182039-2" data-name="Grupo 1182039" transform="translate(-4219.012 -9134.521) rotate(90)">
        <path id="Trazado_1007642-2" data-name="Trazado 1007642" d="M133.941,637.636V553.315c0-10.052,4.536-10.2,10.13-10.2h65c5.595,0,10.13.146,10.13,10.2v84.321Z" transform="translate(-91.42 -543.117)" fill="#ffbdb6"/>
        <path id="Trazado_1007643-2" data-name="Trazado 1007643" d="M416.049,876.065a22.62,22.62,0,1,0-22.619,22.619A22.619,22.619,0,0,0,416.049,876.065Z" transform="translate(-308.662 -782.62)" fill="#ffbdb6"/>
        <text id="_4" data-name="4" transform="translate(93.744 100.812) rotate(-90)" fill="#12263f" font-size="25" font-family="SegoeUIBlack, Segoe UI"><tspan x="0" y="0">4</tspan></text>
      </g>
      <g id="Grupo_1182065" data-name="Grupo 1182065" transform="translate(-4283.044 -9073.152)">
        <g id="Grupo_1182057" data-name="Grupo 1182057" transform="translate(0 2.27)">
          <path id="Trazado_1007710" data-name="Trazado 1007710" d="M30.744,43.07A5.254,5.254,0,1,0,36,48.324,5.262,5.262,0,0,0,30.744,43.07Zm0,9.1a3.85,3.85,0,1,1,3.857-3.85A3.857,3.857,0,0,1,30.744,52.173Z" transform="translate(-7.045 -13.546)"/>
          <path id="Trazado_1007711" data-name="Trazado 1007711" d="M34.391,48.343l-3.206,3.206a.708.708,0,0,1-.991,0L28.841,50.2a.7.7,0,0,1,.991-.991l.861.854,2.7-2.706a.7.7,0,0,1,1,.991Z" transform="translate(-7.914 -14.672)"/>
          <path id="Trazado_1007712" data-name="Trazado 1007712" d="M26,11.492a.7.7,0,0,1-.7.7H7.612a.7.7,0,0,1,0-1.4H25.3A.7.7,0,0,1,26,11.492Z" transform="translate(-1.91 -4.625)"/>
          <path id="Trazado_1007713" data-name="Trazado 1007713" d="M18.081,43.692a.707.707,0,0,1-.7.7H6.062a.7.7,0,1,1,0-1.4H17.379A.7.7,0,0,1,18.081,43.692Z" transform="translate(-1.481 -13.524)"/>
          <path id="Trazado_1007714" data-name="Trazado 1007714" d="M49.408,17.868a8.226,8.226,0,1,0-3.806,11A8.237,8.237,0,0,0,49.408,17.868ZM44.986,27.6a6.825,6.825,0,1,1,3.162-9.125A6.784,6.784,0,0,1,44.986,27.6Z" transform="translate(-9.333 -5.298)"/>
          <path id="Trazado_1007715" data-name="Trazado 1007715" d="M45.987,37.735c-.007,0-.007-.007-.007-.014L41.269,28.7a.694.694,0,0,0-.926-.3l-.188.087-.644-1.31A11.089,11.089,0,0,0,32.831,7.335V3.8A1.535,1.535,0,0,0,31.3,2.27H1.534A1.535,1.535,0,0,0,0,3.8V37c0,.014.007.029.007.043a.73.73,0,0,0,.036.181.217.217,0,0,0,.029.072.765.765,0,0,0,.123.188L.21,37.5l7.591,7.6a.719.719,0,0,0,.5.2h23a1.535,1.535,0,0,0,1.534-1.534V29.536a11.066,11.066,0,0,0,2.482-.326l.637,1.317-.188.094a.729.729,0,0,0-.362.412.677.677,0,0,0,.051.543l4.7,9A3.2,3.2,0,0,0,44.4,42.106a4.053,4.053,0,0,0,.427-.239,3.219,3.219,0,0,0,1.158-4.132ZM7.6,42.9,2.4,37.7H7.468a.135.135,0,0,1,.13.13Zm23.829.861a.135.135,0,0,1-.13.13H9V37.829A1.535,1.535,0,0,0,7.468,36.3H1.4V3.8a.13.13,0,0,1,.13-.13H31.3a.13.13,0,0,1,.13.13v3.6a11.021,11.021,0,0,0-8.481,5.68H9.132a.7.7,0,1,0,0,1.4H22.3c-.036.109-.087.2-.123.3a11.367,11.367,0,0,0-.586,2.952H4.581a.7.7,0,1,0,0,1.4H21.593a10.829,10.829,0,0,0,.724,3.256H4.581a.7.7,0,1,0,0,1.4H22.975a10.98,10.98,0,0,0,2.743,3.264H4.581a.7.7,0,1,0,0,1.4H27.947a9.576,9.576,0,0,0,1.093.441,11.064,11.064,0,0,0,2.388.543ZM29.5,27.6a9.7,9.7,0,1,1,7.41-.441,9.642,9.642,0,0,1-7.41.441Zm8.025.825c.275-.137.55-.289.81-.449l.55,1.129-1.672.81-.55-1.136c.289-.109.579-.217.861-.355ZM44.083,40.68a3.21,3.21,0,0,1-.326.174,1.8,1.8,0,0,1-2.359-.9l-4.371-8.38,3.314-1.614,4.385,8.4a1.819,1.819,0,0,1-.644,2.323Z" transform="translate(0 -2.27)"/>
        </g>
        <path id="Trazado_1007716" data-name="Trazado 1007716" d="M50.17,16.661a9.7,9.7,0,1,0,.441,7.41,9.629,9.629,0,0,0-.441-7.41ZM45.04,28.3a8.233,8.233,0,1,1,3.806-11A8.22,8.22,0,0,1,45.04,28.3Z" transform="translate(-8.771 -2.465)" fill="#caebff"/>
        <path id="Trazado_1007717" data-name="Trazado 1007717" d="M52.892,38.919l-1.672.81-.55-1.136c.289-.109.579-.217.861-.355s.55-.289.81-.449Z" transform="translate(-14.004 -9.817)" fill="#4ebde5"/>
        <path id="Trazado_1007718" data-name="Trazado 1007718" d="M58.225,51.254a3.211,3.211,0,0,1-.326.174,1.8,1.8,0,0,1-2.359-.9l-4.371-8.38,3.314-1.614,4.385,8.4a1.819,1.819,0,0,1-.644,2.323Z" transform="translate(-14.142 -10.574)" fill="#4ebde5"/>
        <path id="Trazado_1007719" data-name="Trazado 1007719" d="M8.513,51.36v5.073l-5.2-5.2H8.383A.135.135,0,0,1,8.513,51.36Z" transform="translate(-0.915 -13.531)" fill="#e0e0e0"/>
        <path id="Trazado_1007720" data-name="Trazado 1007720" d="M9.668,13.624H23.482a11.021,11.021,0,0,1,8.481-5.68V4.34a.13.13,0,0,0-.13-.13H2.07a.13.13,0,0,0-.13.13V36.831H8a1.535,1.535,0,0,1,1.534,1.534v6.064h22.3a.135.135,0,0,0,.13-.13V30a11.065,11.065,0,0,1-2.388-.543,9.576,9.576,0,0,1-1.093-.441H5.117a.7.7,0,0,1,0-1.4H26.254a10.98,10.98,0,0,1-2.743-3.264H5.117a.7.7,0,1,1,0-1.4H22.853a10.829,10.829,0,0,1-.724-3.256H5.117a.7.7,0,1,1,0-1.4H22.129a11.367,11.367,0,0,1,.586-2.952c.036-.1.087-.2.123-.3H9.668a.7.7,0,0,1,0-1.4ZM24.235,32.33a5.254,5.254,0,1,1-5.254,5.254A5.264,5.264,0,0,1,24.235,32.33ZM5.117,32.272H16.434a.7.7,0,1,1,0,1.4H5.117a.7.7,0,0,1,0-1.4Zm1.122-21.9a.7.7,0,1,1,0-1.4H23.924a.7.7,0,1,1,0,1.4Z" transform="translate(-0.536 -0.536)" fill="#eaeaea"/>
        <path id="Trazado_1007721" data-name="Trazado 1007721" d="M31.28,45.01a3.85,3.85,0,1,0,3.857,3.85A3.853,3.853,0,0,0,31.28,45.01Zm-.427,5.948a.708.708,0,0,1-.991,0l-1.353-1.353a.7.7,0,0,1,.991-.991l.861.854,2.7-2.706a.7.7,0,1,1,1,.991Z" transform="translate(-7.581 -11.812)" fill="#f49292"/>
      </g>
    </g>
    <g id="Grupo_1182060" data-name="Grupo 1182060" transform="translate(-17.923 74)">
      <g id="Grupo_1182039-3" data-name="Grupo 1182039" transform="translate(-4219.012 -9134.521) rotate(90)">
        <path id="Trazado_1007642-3" data-name="Trazado 1007642" d="M133.941,637.636V553.315c0-10.052,4.536-10.2,10.13-10.2h65c5.595,0,10.13.146,10.13,10.2v84.321Z" transform="translate(-91.42 -543.117)" fill="#99bfb7"/>
        <path id="Trazado_1007643-3" data-name="Trazado 1007643" d="M416.049,876.065a22.62,22.62,0,1,0-22.619,22.619A22.619,22.619,0,0,0,416.049,876.065Z" transform="translate(-308.662 -782.62)" fill="#99bfb7"/>
        <text id="_2" data-name="2" transform="translate(93.744 100.812) rotate(-90)" fill="#12263f" font-size="25" font-family="SegoeUIBlack, Segoe UI"><tspan x="0" y="0">2</tspan></text>
      </g>
      <g id="Grupo_1182061" data-name="Grupo 1182061" transform="translate(-4370.426 -9075.492)">
        <g id="Grupo_1182050" data-name="Grupo 1182050" transform="translate(87.022 1.02)">
          <path id="Trazado_1007666" data-name="Trazado 1007666" d="M119.309,26.823q2.45,0,4.822-.176l.955-5.342,1.986,5.058q2.324-.28,4.538-.72l.964,3.745h1.02a2.027,2.027,0,0,1,1.177.376C135.373,17.65,132.292,10,119.309,10s-16.064,7.65-15.463,19.764a2.027,2.027,0,0,1,1.177-.376h1.02l.964-3.745a63.474,63.474,0,0,0,12.3,1.18Z" transform="translate(-102.982 -10)" fill="#ffc144" fill-rule="evenodd"/>
          <path id="Trazado_1007667" data-name="Trazado 1007667" d="M117.15,126.125q-2.369.174-4.822.176a63.466,63.466,0,0,1-12.3-1.18l-.964,3.745h-1.02a2.041,2.041,0,1,0,0,4.082H99.71a13.361,13.361,0,0,0,9.557,8.825,13.236,13.236,0,0,0,6.123,0,13.361,13.361,0,0,0,9.557-8.825h1.668a2.041,2.041,0,0,0,0-4.082h-1.02l-.964-3.745q-2.211.438-4.538.72l-1.986-5.058Z" transform="translate(-96.001 -109.478)" fill="#f3c9a6" fill-rule="evenodd"/>
          <path id="Trazado_1007668" data-name="Trazado 1007668" d="M115.612,248.826A13.361,13.361,0,0,1,106.056,240h-1.668c0,7.982-4.253,12.67,2.511,14.452a6.082,6.082,0,0,1,3.612-1.187h1.99C114.94,253.267,115.612,251.426,115.612,248.826Z" transform="translate(-102.347 -216.531)" fill="#ffc144" fill-rule="evenodd"/>
          <path id="Trazado_1007669" data-name="Trazado 1007669" d="M295.558,240A13.361,13.361,0,0,1,286,248.827c0,2.6.672,4.441,3.112,4.441h1.99a6.083,6.083,0,0,1,3.612,1.187c6.763-1.783,2.511-6.47,2.511-14.452h-1.668Z" transform="translate(-266.613 -216.532)" fill="#ffc144" fill-rule="evenodd"/>
          <g id="Grupo_1182049" data-name="Grupo 1182049" transform="translate(2.041 32.295)">
            <path id="Trazado_1007670" data-name="Trazado 1007670" d="M217.612,332.48a5.637,5.637,0,0,0,4.362-2.067c-.985-.72-1.3-2.146-1.3-3.929a13.236,13.236,0,0,1-6.123,0c0,1.783-.316,3.209-1.3,3.929A5.637,5.637,0,0,0,217.612,332.48Z" transform="translate(-203.326 -326.484)" fill="#f3c9a6" fill-rule="evenodd"/>
            <path id="Trazado_1007671" data-name="Trazado 1007671" d="M116,462h6.123v4.082H116Z" transform="translate(-116.001 -448.173)" fill="#f3c9a6" fill-rule="evenodd"/>
            <path id="Trazado_1007672" data-name="Trazado 1007672" d="M336,462h6.123v4.082H336Z" transform="translate(-313.55 -448.173)" fill="#f3c9a6" fill-rule="evenodd"/>
          </g>
          <path id="Trazado_1007673" data-name="Trazado 1007673" d="M138.45,378.967v-4.082h6.123V371.62a6.141,6.141,0,0,0-6.123-6.123h-1.99a2.982,2.982,0,0,1-1.811-.512,5.637,5.637,0,0,1-8.725,0,2.982,2.982,0,0,1-1.811.512h-1.99A6.141,6.141,0,0,0,116,371.62v3.265h6.123v4.082Z" transform="translate(-113.96 -328.762)" fill="#c193dc" fill-rule="evenodd"/>
          <path id="Trazado_1007674" data-name="Trazado 1007674" d="M170.358,365.524a9.612,9.612,0,0,0,17.478,0q-.284-.027-.576-.027h-1.99a2.982,2.982,0,0,1-1.811-.512,5.637,5.637,0,0,1-8.725,0,2.982,2.982,0,0,1-1.811.512h-1.99Q170.643,365.5,170.358,365.524Z" transform="translate(-162.77 -328.762)" fill="#b278d3" fill-rule="evenodd"/>
        </g>
        <g id="Grupo_1182051" data-name="Grupo 1182051" transform="translate(86.002 0)">
          <path id="Trazado_1007675" data-name="Trazado 1007675" d="M118.672,25.33a3.058,3.058,0,0,0,1.181-4.987c.321-7.725-.976-12.848-4.074-16.1C113.057,1.388,108.991,0,103.349,0a24.589,24.589,0,0,0-6.027.675,1.02,1.02,0,1,0,.5,1.978,22.567,22.567,0,0,1,5.523-.612c5.054,0,8.636,1.181,10.953,3.611,2.581,2.708,3.716,7.094,3.542,13.744-.069,0-.138-.008-.208-.008h-.23l-.767-2.979a1.021,1.021,0,0,0-1.187-.747c-1.2.238-2.438.442-3.68.608l-1.7-4.319a1.02,1.02,0,0,0-1.954.193l-.814,4.557c-1.309.08-2.637.12-3.958.12a62.436,62.436,0,0,1-12.1-1.16,1.021,1.021,0,0,0-1.187.746l-.767,2.979h-.229c-.07,0-.14,0-.209.008-.146-5.443.571-9.285,2.234-12.024a1.02,1.02,0,1,0-1.745-1.059c-1.966,3.239-2.762,7.706-2.5,14.029a3.058,3.058,0,0,0,1.181,4.987,35.344,35.344,0,0,1-.768,5.614c-.409,2.09-.763,3.9-.349,5.42a4.531,4.531,0,0,0,2.753,2.991,7.11,7.11,0,0,0-1.619,4.523v7.347a1.021,1.021,0,0,0,1.02,1.02h28.572a1.021,1.021,0,0,0,1.02-1.02V43.879a7.11,7.11,0,0,0-1.619-4.523,4.531,4.531,0,0,0,2.753-2.991c.414-1.525.06-3.33-.349-5.42A35.327,35.327,0,0,1,118.672,25.33Zm-29.609-3.9h1.02a1.021,1.021,0,0,0,.988-.766l.726-2.819a64.829,64.829,0,0,0,11.551,1.019c1.637,0,3.284-.06,4.9-.178a1.02,1.02,0,0,0,.93-.838l.32-1.789.667,1.7a1.022,1.022,0,0,0,1.072.64c1.232-.148,2.461-.333,3.667-.552l.726,2.819a1.02,1.02,0,0,0,.988.766h1.02a1.02,1.02,0,0,1,0,2.041h-1.668a1.02,1.02,0,0,0-.97.7,12.24,12.24,0,0,1-23.3,0,1.02,1.02,0,0,0-.97-.7H89.063a1.02,1.02,0,1,1,0-2.041Zm25.421,18.306a1.03,1.03,0,0,0,.1.069,5.1,5.1,0,0,1,2.035,4.074v2.245h-4.082a1.02,1.02,0,1,0-2.041,0v4.082H96.206V46.123a1.02,1.02,0,1,0-2.041,0H90.084V43.878A5.1,5.1,0,0,1,92.118,39.8a.983.983,0,0,0,.1-.07,5.079,5.079,0,0,1,1.823-.826,10.628,10.628,0,0,0,18.623,0A5.08,5.08,0,0,1,114.485,39.735Zm-11.135,2.637a8.642,8.642,0,0,1-6.987-3.6h.813a4.447,4.447,0,0,0,1.592-.272,6.657,6.657,0,0,0,9.162,0,4.445,4.445,0,0,0,1.592.272h.813a8.642,8.642,0,0,1-6.987,3.6Zm2.837-5.321c.035.057.073.115.113.173a4.613,4.613,0,0,1-5.9,0c.038-.056.075-.112.108-.166a5.812,5.812,0,0,0,.745-2.519,14.2,14.2,0,0,0,4.191,0,5.822,5.822,0,0,0,.741,2.513ZM88.879,35.83a11.555,11.555,0,0,1,.382-4.494,38.369,38.369,0,0,0,.794-5.717A14.514,14.514,0,0,0,94.88,31.9a14.226,14.226,0,0,0,4.363,2.195c-.161,2.426-1.1,2.646-2.067,2.646h-1.99a7.1,7.1,0,0,0-3.793,1.094c-1.9-.588-2.343-1.371-2.514-2Zm1.2,12.334h4.082v2.041H90.084Zm22.449,2.041V48.164h4.082v2.041ZM117.82,35.83c-.171.629-.618,1.412-2.514,2a7.1,7.1,0,0,0-3.793-1.094h-1.99c-.964,0-1.907-.22-2.067-2.646a14.225,14.225,0,0,0,4.363-2.195,14.514,14.514,0,0,0,4.824-6.277,38.384,38.384,0,0,0,.794,5.717A11.554,11.554,0,0,1,117.82,35.83Z" transform="translate(-86.002 0)"/>
          <path id="Trazado_1007676" data-name="Trazado 1007676" d="M223.719,266.145a1.02,1.02,0,0,0,1.394.373,3.554,3.554,0,0,1,3.555,0,1.02,1.02,0,0,0,1.02-1.767,5.6,5.6,0,0,0-5.6,0A1.021,1.021,0,0,0,223.719,266.145Z" transform="translate(-209.543 -237.062)"/>
          <path id="Trazado_1007677" data-name="Trazado 1007677" d="M196.885,210.119a2.7,2.7,0,0,0,1.844-.763,1.02,1.02,0,0,0-1.384-1.5.586.586,0,0,1-.919,0,1.02,1.02,0,1,0-1.384,1.5A2.7,2.7,0,0,0,196.885,210.119Z" transform="translate(-183.619 -186.402)"/>
          <path id="Trazado_1007678" data-name="Trazado 1007678" d="M276.888,210.119a2.7,2.7,0,0,0,1.843-.763,1.02,1.02,0,0,0-1.384-1.5.586.586,0,0,1-.919,0,1.02,1.02,0,0,0-1.384,1.5,2.7,2.7,0,0,0,1.844.763Z" transform="translate(-255.459 -186.403)"/>
          <path id="Trazado_1007679" data-name="Trazado 1007679" d="M149.174,26.349a1.02,1.02,0,1,0,0-2.041h0a1.02,1.02,0,1,0,0,2.041Z" transform="translate(-141.811 -21.828)"/>
        </g>
      </g>
    </g>
    <g id="Grupo_1182066" data-name="Grupo 1182066" transform="translate(-17.923 420.1)">
      <g id="Grupo_1182039-4" data-name="Grupo 1182039" transform="translate(-4219.012 -9134.521) rotate(90)">
        <path id="Trazado_1007642-4" data-name="Trazado 1007642" d="M133.941,637.636V553.315c0-10.052,4.536-10.2,10.13-10.2h65c5.595,0,10.13.146,10.13,10.2v84.321Z" transform="translate(-91.42 -543.117)" fill="#99bfb7"/>
        <path id="Trazado_1007643-4" data-name="Trazado 1007643" d="M416.049,876.065a22.62,22.62,0,1,0-22.619,22.619A22.619,22.619,0,0,0,416.049,876.065Z" transform="translate(-308.662 -782.62)" fill="#99bfb7"/>
        <text id="_5" data-name="5" transform="translate(93.744 100.812) rotate(-90)" fill="#12263f" font-size="25" font-family="SegoeUIBlack, Segoe UI"><tspan x="0" y="0">5</tspan></text>
      </g>
      <g id="Grupo_1182067" data-name="Grupo 1182067" transform="translate(-4287.077 -9075.096)">
        <g id="Flat_8_" transform="translate(0.755 0.755)">
          <path id="Trazado_1007691" data-name="Trazado 1007691" d="M7.5,473.5H57.44v3.021H7.5Z" transform="translate(-7.5 -426.58)" fill="#ebfdc0"/>
          <path id="Trazado_1007692" data-name="Trazado 1007692" d="M67.823,407.653H20.5v-5.034l17.989-2.3a5.034,5.034,0,0,1,5.672,4.994v0a5.034,5.034,0,0,1,5.672-4.994l17.989,2.3Z" transform="translate(-19.191 -360.733)" fill="#fff"/>
          <path id="Trazado_1007693" data-name="Trazado 1007693" d="M44.161,444.184a5.094,5.094,0,0,0-.048-.684H20.5v3.021H67.823V443.5H44.209A5.093,5.093,0,0,0,44.161,444.184Z" transform="translate(-19.191 -399.601)" fill="#e4e8ed"/>
          <path id="Trazado_1007694" data-name="Trazado 1007694" d="M111.61,109.538,98.029,95.9a8.677,8.677,0,0,1,12.294-12.247l1.286,1.291,1.286-1.291A8.677,8.677,0,0,1,125.19,95.9Z" transform="translate(-86.639 -73.693)" fill="#f88fa4"/>
          <path id="Trazado_1007695" data-name="Trazado 1007695" d="M125.2,154.681l-13.58,13.633-13.58-13.633a8.635,8.635,0,0,1-2.359-4.413,8.667,8.667,0,0,0,2.359,7.836l13.58,13.633L125.2,158.1a8.668,8.668,0,0,0,2.359-7.836A8.636,8.636,0,0,1,125.2,154.681Z" transform="translate(-86.646 -135.893)" fill="#f05475"/>
          <g id="Grupo_1182054" data-name="Grupo 1182054" transform="translate(3.222)">
            <path id="Trazado_1007696" data-name="Trazado 1007696" d="M49.569,281.521H46.548V278.5H42.521v3.021H39.5v4.027h3.021v3.021h4.027v-3.021h3.021Z" transform="translate(-39.5 -251.214)" fill="#ebfdc0"/>
            <path id="Trazado_1007697" data-name="Trazado 1007697" d="M413.569,10.521h-3.021V7.5h-4.027v3.021H403.5v4.027h3.021v3.021h4.027V14.548h3.021Z" transform="translate(-366.85 -7.5)" fill="#ebfdc0"/>
          </g>
        </g>
        <g id="Grupo_1182055" data-name="Grupo 1182055" transform="translate(12.838 10.673)">
          <path id="Trazado_1007698" data-name="Trazado 1007698" d="M157.5,106h1.51v1.51H157.5Z" transform="translate(-154.479 -106)" fill="#fff"/>
          <path id="Trazado_1007699" data-name="Trazado 1007699" d="M127.5,130h1.51v1.51H127.5Z" transform="translate(-127.5 -127.584)" fill="#fff"/>
        </g>
        <g id="Outline_8_" transform="translate(0)">
          <path id="Trazado_1007700" data-name="Trazado 1007700" d="M1.51,401.665H32.874v-1.51H26.48v-1.582a4.28,4.28,0,0,1,4.27-4.28,4.378,4.378,0,0,1,.551.035l2.357.3.191-1.5-2.357-.3a5.9,5.9,0,0,0-.742-.047,5.783,5.783,0,0,0-5.025,2.931,5.783,5.783,0,0,0-5.025-2.931,5.878,5.878,0,0,0-.742.047l-18.649,2.38v4.944H0v4.531H5.89v-1.51H1.51Zm1.309-5.125,17.33-2.212a4.376,4.376,0,0,1,.551-.035,4.28,4.28,0,0,1,4.27,4.28v1.582H2.819Z" transform="translate(0 -353.235)"/>
          <path id="Trazado_1007701" data-name="Trazado 1007701" d="M116.241,400.028l-14.793-1.888-.191,1.5,13.474,1.72v3.614H100.484v1.51H116.04v1.51H73.5v1.51h44.05v-4.531h-1.309Z" transform="translate(-66.1 -358.053)"/>
          <path id="Trazado_1007702" data-name="Trazado 1007702" d="M40.558,282.579v-3.021h3.021v-5.538H40.558V271H35.021v3.021H32v5.538h3.021v3.021Zm-7.048-4.531v-2.517h3.021V272.51h2.517v3.021h3.021v2.517H39.048v3.021H36.531v-3.021Z" transform="translate(-28.778 -243.714)"/>
          <path id="Trazado_1007703" data-name="Trazado 1007703" d="M404.558,3.021V0h-5.538V3.021H396V8.558h3.021v3.021h5.538V8.558h3.021V3.021Zm1.51,4.027h-3.021v3.021h-2.517V7.048H397.51V4.531h3.021V1.51h2.517V4.531h3.021Z" transform="translate(-356.128)"/>
          <path id="Trazado_1007704" data-name="Trazado 1007704" d="M20.5,219h1.51v1.51H20.5Z" transform="translate(-18.436 -196.95)"/>
          <path id="Trazado_1007705" data-name="Trazado 1007705" d="M475.5,219h1.51v1.51H475.5Z" transform="translate(-427.624 -196.95)"/>
          <path id="Trazado_1007706" data-name="Trazado 1007706" d="M90.135,86.089a7.922,7.922,0,0,1,12.922-8.645l1.821,1.828,1.821-1.828a7.868,7.868,0,0,1,5.612-2.331c.262,0,.528.013.789.039l.149-1.5c-.311-.031-.627-.047-.939-.047a9.368,9.368,0,0,0-6.682,2.776l-.751.754-.751-.754A9.433,9.433,0,0,0,88.741,86.671Z" transform="translate(-79.152 -66.192)"/>
          <path id="Trazado_1007707" data-name="Trazado 1007707" d="M356.382,86.157a7.9,7.9,0,0,1-.611,3.056l1.394.582a9.436,9.436,0,0,0-6.154-12.718L350.6,78.53a7.923,7.923,0,0,1,5.777,7.626Z" transform="translate(-315.304 -69.316)"/>
          <path id="Trazado_1007708" data-name="Trazado 1007708" d="M162.952,248.273l-1.07-1.066-10.6,10.639-10.6-10.639-1.07,1.066,11.668,11.713Z" transform="translate(-125.559 -222.317)"/>
          <path id="Trazado_1007709" data-name="Trazado 1007709" d="M65.163,150.537l4.081,9.988,3.34-11.4,2.612,8.106,3.166-4.18H91.781v-1.51H77.612l-1.868,2.466-3.228-10.018-3.507,11.964-3.571-8.74-2.673,4.328H50.5v1.51H63.608Z" transform="translate(-45.415 -129.495)"/>
        </g>
      </g>
    </g>
    <g id="Grupo_1182062" data-name="Grupo 1182062" transform="translate(-17.923 189.579)">
      <g id="Grupo_1182039-5" data-name="Grupo 1182039" transform="translate(-4219.012 -9134.521) rotate(90)">
        <path id="Trazado_1007642-5" data-name="Trazado 1007642" d="M133.941,637.636V553.315c0-10.052,4.536-10.2,10.13-10.2h65c5.595,0,10.13.146,10.13,10.2v84.321Z" transform="translate(-91.42 -543.117)" fill="#fbe5b2"/>
        <path id="Trazado_1007643-5" data-name="Trazado 1007643" d="M416.049,876.065a22.62,22.62,0,1,0-22.619,22.619A22.619,22.619,0,0,0,416.049,876.065Z" transform="translate(-308.662 -782.62)" fill="#fbe5b2"/>
        <text id="_3" data-name="3" transform="translate(93.744 100.812) rotate(-90)" fill="#12263f" font-size="25" font-family="SegoeUIBlack, Segoe UI"><tspan x="0" y="0">3</tspan></text>
      </g>
      <g id="Grupo_1182063" data-name="Grupo 1182063" transform="translate(-4327.397 -9073.121)">
        <path id="Trazado_1007680" data-name="Trazado 1007680" d="M76.92,52.163l-3.694,1.421a.464.464,0,0,1-.333,0L69.2,52.163A23.171,23.171,0,0,1,54.346,30.536V13.9A.927.927,0,0,1,55,13.017L72.787,7.545a.926.926,0,0,1,.545,0l17.787,5.473a.927.927,0,0,1,.654.886V30.536A23.171,23.171,0,0,1,76.92,52.163Z" transform="translate(-6.806 -6.808)" fill="#dff6fd"/>
        <path id="Trazado_1007681" data-name="Trazado 1007681" d="M98.416,78.753a20.293,20.293,0,0,1-13.008-18.94V44.965a.464.464,0,0,1,.327-.443l15.371-4.73a.463.463,0,0,1,.273,0l15.371,4.73a.464.464,0,0,1,.327.443V59.813a20.293,20.293,0,0,1-13.008,18.94l-2.661,1.023a.464.464,0,0,1-.333,0Z" transform="translate(-34.989 -36.085)" fill="#80d261"/>
        <path id="Trazado_1007682" data-name="Trazado 1007682" d="M314.455,208.43l-3.668-3.668,4.763-3.81a1.932,1.932,0,0,1,2.715,2.715Z" transform="translate(-239.478 -181.942)" fill="#dff6fd"/>
        <path id="Trazado_1007683" data-name="Trazado 1007683" d="M142.327,218.021a6.972,6.972,0,0,0-7-6.863h-5.147a.278.278,0,0,0-.256.169l-.511,1.193a1.113,1.113,0,0,1-1.023.675h-.91a.864.864,0,0,1-.6-.228.836.836,0,0,1-.194-.936l.291-.679a.139.139,0,0,0-.128-.194h-6.815a.278.278,0,0,0-.256.169l-2.244,5.237a.463.463,0,0,0,.426.646h9.671a.864.864,0,0,1,.864.864,6.916,6.916,0,1,0,13.832-.052Z" transform="translate(-64.103 -191.586)" fill="#f2fbff"/>
        <path id="Trazado_1007684" data-name="Trazado 1007684" d="M185.2,84.469l-2.175-.669V97.907a20.292,20.292,0,0,1-13.008,18.94,7.875,7.875,0,0,1-5.654,0,20.373,20.373,0,0,1-3.513-1.755,20.241,20.241,0,0,0,6.016,3.609l2.661,1.023a.464.464,0,0,0,.333,0l2.661-1.023a20.293,20.293,0,0,0,13.008-18.94V84.912a.463.463,0,0,0-.327-.443Z" transform="translate(-103.436 -76.033)" fill="#68ca44"/>
        <circle id="Elipse_13913" data-name="Elipse 13913" cx="2.759" cy="2.759" r="2.759" transform="translate(68.549 23.728)" fill="#01c0fa"/>
        <path id="Trazado_1007685" data-name="Trazado 1007685" d="M122.95,23.035a6.625,6.625,0,0,1,6.476,6.33,6.457,6.457,0,0,1-.667,3.017.937.937,0,0,0-.073.643l.554,2.216a.463.463,0,0,1-.562.562l-2.216-.554a.937.937,0,0,0-.643.073,6.452,6.452,0,0,1-2.869.669,6.629,6.629,0,0,1-6.474-6.265A6.478,6.478,0,0,1,122.95,23.035Z" transform="translate(-63.174 -20.9)" fill="#e53950"/>
        <path id="Trazado_1007686" data-name="Trazado 1007686" d="M158.53,33.026a.937.937,0,0,1,.073-.643,6.457,6.457,0,0,0,.667-3.017,6.625,6.625,0,0,0-6.476-6.33h0a6.6,6.6,0,0,1,3.045,5.228,6.478,6.478,0,0,1-6.474,6.691,6.3,6.3,0,0,0,3.429,1.037,6.451,6.451,0,0,0,2.869-.669.936.936,0,0,1,.643-.073l2.216.554a.463.463,0,0,0,.562-.562Z" transform="translate(-93.017 -20.9)" fill="#ca2e43"/>
        <path id="Trazado_1007687" data-name="Trazado 1007687" d="M280.425,251.958a3.455,3.455,0,1,0-3.455,3.454A3.458,3.458,0,0,0,280.425,251.958Zm-5.519,0a2.064,2.064,0,1,1,2.064,2.064A2.067,2.067,0,0,1,274.906,251.958Z" transform="translate(-205.662 -225.471)"/>
        <path id="Trazado_1007688" data-name="Trazado 1007688" d="M180.711,54.305a.7.7,0,0,0,.7-.7V50.731a.7.7,0,1,0-1.39,0V53.61A.7.7,0,0,0,180.711,54.305Z" transform="translate(-120.828 -45.398)"/>
        <circle id="Elipse_13914" data-name="Elipse 13914" cx="0.695" cy="0.695" r="0.695" transform="translate(59.081 10.503)"/>
        <path id="Trazado_1007689" data-name="Trazado 1007689" d="M84.518,5.545,66.731.072a1.615,1.615,0,0,0-.954,0l-4.8,1.476a6.788,6.788,0,0,0-1.2-.108A7.111,7.111,0,0,0,54.8,3.451L47.99,5.545A1.614,1.614,0,0,0,46.845,7.1V23.728A23.866,23.866,0,0,0,62.144,46l3.694,1.421a1.157,1.157,0,0,0,.832,0L70.364,46a23.866,23.866,0,0,0,15.3-22.276V7.1a1.613,1.613,0,0,0-1.145-1.55Zm-.245,18.183A22.61,22.61,0,0,1,69.865,44.706l-3.611,1.389-3.611-1.389A22.61,22.61,0,0,1,48.235,23.728V7.1a.231.231,0,0,1,.164-.222L53.39,5.338a7.068,7.068,0,0,0-.626,1.75l-2.222.684a1.153,1.153,0,0,0-.818,1.107V23.728A20.987,20.987,0,0,0,63.178,43.316l2.661,1.023a1.157,1.157,0,0,0,.832,0l2.661-1.023A20.987,20.987,0,0,0,82.784,23.728v-7.6a.7.7,0,1,0-1.39,0v7.6A19.6,19.6,0,0,1,68.832,42.019l-2.578.991-2.577-.991A19.6,19.6,0,0,1,51.114,23.728V9.051L52.6,8.593q0,.127,0,.256a6.943,6.943,0,0,0,.819,3.019.7.7,0,1,0,1.227-.653A5.546,5.546,0,0,1,54,8.8a5.783,5.783,0,0,1,5.78-5.973,5.962,5.962,0,0,1,5.781,5.65,5.725,5.725,0,0,1-.6,2.693,1.635,1.635,0,0,0-.124,1.12l.46,1.841-1.841-.46a1.634,1.634,0,0,0-1.12.124,5.723,5.723,0,0,1-2.561.6,5.613,5.613,0,0,1-3.22-1.039.7.7,0,0,0-.8,1.14,7,7,0,0,0,4.016,1.29,7.1,7.1,0,0,0,3.178-.741.243.243,0,0,1,.166-.021l2.216.554a1.159,1.159,0,0,0,1.4-1.405l-.554-2.216a.243.243,0,0,1,.021-.166,7.2,7.2,0,0,0,.739-3.341,7.021,7.021,0,0,0-1.293-3.873l.6-.185,15.14,4.658v3.831a.7.7,0,1,0,1.39,0v-4a1.153,1.153,0,0,0-.818-1.107L66.594,3.042a1.157,1.157,0,0,0-.681,0l-1.253.386a7.467,7.467,0,0,0-1.5-1.1l3.023-.93a.234.234,0,0,1,.136,0L84.109,6.874a.231.231,0,0,1,.164.222Z" transform="translate(0 0)"/>
        <path id="Trazado_1007690" data-name="Trazado 1007690" d="M132.939,193.595l-1.319,1.055a7.708,7.708,0,0,0-3.1-.646h-5.147a.972.972,0,0,0-.895.59l-.512,1.193a.418.418,0,0,1-.384.253h-.91a.181.181,0,0,1-.118-.036.141.141,0,0,1-.034-.158l.291-.679a.834.834,0,0,0-.767-1.163h-6.815a.972.972,0,0,0-.895.59l-2.244,5.237a1.159,1.159,0,0,0,1.065,1.615h3.632a.7.7,0,0,0,0-1.39h-3.281l2-4.661h5.7a1.53,1.53,0,0,0,1.468,2.037h.91a1.807,1.807,0,0,0,1.662-1.1l.4-.941h4.872a6.281,6.281,0,0,1,6.307,6.173,6.221,6.221,0,1,1-12.441.047,1.561,1.561,0,0,0-1.56-1.559h-2.795a.7.7,0,1,0,0,1.39h2.795a.169.169,0,0,1,.169.169,7.611,7.611,0,1,0,15.222-.057,7.47,7.47,0,0,0-.635-2.965l1.045-1.306a2.627,2.627,0,0,0-3.693-3.692Zm2.607,2.824-.7.87a7.744,7.744,0,0,0-1.919-1.906l.878-.7a1.237,1.237,0,0,1,1.738,1.738Z" transform="translate(-57.302 -175.128)"/>
      </g>
    </g>
    <text id="Confirmación_clínica_del_embarazo." data-name="Confirmación clínica del embarazo." transform="translate(-4215.463 -9115.813)" fill="#12263f" font-size="18" font-family="SegoeUIBlack, Segoe UI"><tspan x="0" y="19">Confirmación clínica </tspan><tspan x="0" y="44">del embarazo.</tspan></text>
    <text id="Información_sobre_procedimientos_según_edad_gestacional." data-name="Información sobre procedimientos según edad gestacional." transform="translate(-4215.463 -8783.531)" fill="#12263f" font-size="18" font-family="SegoeUIBlack, Segoe UI"><tspan x="0" y="19">Información sobre </tspan><tspan x="0" y="44">procedimientos </tspan><tspan x="0" y="69">según edad </tspan><tspan x="0" y="94">gestacional.</tspan></text>
    <text id="Manifestación_de_voluntad_de_la_persona_gestante." data-name="Manifestación de voluntad de la persona gestante." transform="translate(-4215.463 -9011)" fill="#12263f" font-size="18" font-family="SegoeUIBlack, Segoe UI"><tspan x="0" y="19">Manifestación de </tspan><tspan x="0" y="44">voluntad de la </tspan><tspan x="0" y="69">persona gestante.</tspan></text>
    <text id="Remisión_oportuna_si_no_hay_capacidad_resolutiva." data-name="Remisión oportuna si no hay capacidad resolutiva." transform="translate(-4215.463 -8668.27)" fill="#12263f" font-size="18" font-family="SegoeUIBlack, Segoe UI"><tspan x="0" y="19">Remisión oportuna </tspan><tspan x="0" y="44">si no hay capacidad </tspan><tspan x="0" y="69">resolutiva.</tspan></text>
    <text id="Certificación_del_hecho_de_violencia_sexual_sin_denuncia_obligatoria_." data-name="Certificación del hecho de violencia sexual (sin denuncia obligatoria)." transform="translate(-4215.463 -8898.791)" fill="#12263f" font-size="18" font-family="SegoeUIBlack, Segoe UI"><tspan x="0" y="19">Certificación del </tspan><tspan x="0" y="44">hecho de violencia </tspan><tspan x="0" y="69">sexual (sin denuncia </tspan><tspan x="0" y="94">obligatoria).</tspan></text>
  </g>
</svg>
