<svg id="Grupo_1181331" data-name="Grupo 1181331" xmlns="http://www.w3.org/2000/svg" width="123.16" height="123.159" viewBox="0 0 123.16 123.159">
  <path id="Trazado_1005919" data-name="Trazado 1005919" d="M321.821,374.97a61.551,61.551,0,0,1-17.777-2.608c-1.288-.386-2.577-.821-3.828-1.291a61.949,61.949,0,0,1-31.038-25.714l-.04-.068a61.585,61.585,0,0,1,47.447-93.258l.03,0c1.71-.144,3.462-.218,5.207-.218a61.58,61.58,0,1,1,0,123.159Z" transform="translate(-260.242 -251.811)" fill="#fff"/>
  <g id="Grupo_1181330" data-name="Grupo 1181330" transform="translate(2.82 2.821)">
    <g id="Grupo_1181261" data-name="Grupo 1181261" transform="translate(8.634)">
      <path id="Trazado_1005920" data-name="Trazado 1005920" d="M370.87,316.3c0,10.565,14.634,19.469,9.753,28.033v0a58.893,58.893,0,0,1-7.3,10.13c-10.757,12.02-27.462,3.6-44.864,3.6-16.869,0-31.008,8.875-41.726-2.51a59.031,59.031,0,0,1-4.379-5.227c-7.279-9.782,1.2-24.318,1.2-37.45,0-17.868-4.808-31.461,7.776-42.237a58.863,58.863,0,0,1,52.8-12.283C369.52,264.848,370.87,288.888,370.87,316.3Z" transform="translate(-279.407 -256.531)" fill="#e36352"/>
    </g>
    <g id="Grupo_1181329" data-name="Grupo 1181329" transform="translate(0 1.828)">
      <g id="Grupo_1181264" data-name="Grupo 1181264">
        <g id="Grupo_1181262" data-name="Grupo 1181262" transform="translate(0 12.283)">
          <path id="Trazado_1005921" data-name="Trazado 1005921" d="M296.677,343.866A36.72,36.72,0,0,1,278.309,359.2c-.578.226-1.166.439-1.762.632a58.769,58.769,0,0,1,8.973-79.687,16.215,16.215,0,0,1,1.018,8.2,25.157,25.157,0,0,1-4.264,11.383,2.636,2.636,0,0,0-.637,1.467c.017,1.069,1.257,1.61,2.268,1.96,7.677,2.668,19.53,6.581,21.8,14.387S300.776,336.848,296.677,343.866Z" transform="translate(-264.961 -280.143)" fill="#f8bdff"/>
        </g>
        <g id="Grupo_1181263" data-name="Grupo 1181263" transform="translate(66.942)">
          <path id="Trazado_1005922" data-name="Trazado 1005922" d="M427.549,316.52a58.464,58.464,0,0,1-7.669,29.043v0a24.507,24.507,0,0,1-19.271-7.721c-6.734-7.322-8.748-18.255-6.447-27.932a79.188,79.188,0,0,0,1.944-8.081,10.983,10.983,0,0,0-1.605-7.953c-2.449-3.3-7-4.052-10.52-6.179a14.721,14.721,0,0,1-6.766-9.813,19.211,19.211,0,0,1,1.953-11.606,39.526,39.526,0,0,1,4.219-6.692A58.782,58.782,0,0,1,427.549,316.52Z" transform="translate(-376.972 -259.59)" fill="#f8bdff"/>
        </g>
      </g>
      <g id="Grupo_1181301" data-name="Grupo 1181301" transform="translate(16.949 4.53)">
        <g id="Grupo_1181265" data-name="Grupo 1181265" transform="translate(7.713 18.924)">
          <ellipse id="Elipse_13860" data-name="Elipse 13860" cx="9.424" cy="10.194" rx="9.424" ry="10.194" fill="#412945"/>
        </g>
        <g id="Grupo_1181266" data-name="Grupo 1181266" transform="translate(29.253)">
          <path id="Trazado_1005923" data-name="Trazado 1005923" d="M350.732,267.285a13.857,13.857,0,0,1,3.359-.016,4.651,4.651,0,0,1,2.916,1.53,2.833,2.833,0,0,1,.353,3.143,3.516,3.516,0,0,1,3.346,1.759,5.28,5.28,0,0,1,.467,3.878,10.913,10.913,0,0,1-1.722,3.589,7.231,7.231,0,0,1-2.166,2.253,7.866,7.866,0,0,1-3.228.855,16.043,16.043,0,0,1-7.08-.482,6.863,6.863,0,0,1-4.634-5.007,8.389,8.389,0,0,1,.214-3.157,11.866,11.866,0,0,1,1.752-4.284,16.021,16.021,0,0,1,3.184-3.035A4.787,4.787,0,0,1,350.732,267.285Z" transform="translate(-342.269 -267.171)" fill="#412945"/>
        </g>
        <g id="Grupo_1181295" data-name="Grupo 1181295" transform="translate(18.121 1.095)">
          <g id="Grupo_1181268" data-name="Grupo 1181268">
            <g id="Grupo_1181267" data-name="Grupo 1181267">
              <path id="Trazado_1005924" data-name="Trazado 1005924" d="M327.139,291.584a4.6,4.6,0,0,0,1.8.663,2.7,2.7,0,0,0,.482.011l-1.28,15.314,14.154,13.412,3.509-14.359-1.95-.716-.552-7.155a13.022,13.022,0,0,0,5.377-6.74c.465-1.238-.714-2.349-.516-3.551.192-1.166,1.767-2.425,1.8-3.411a23.54,23.54,0,0,0-.183-3.92c0-.38-.022-.763-.06-1.15a12.185,12.185,0,1,0-24.25,2.418,9.935,9.935,0,0,0,.325,1.514,2.344,2.344,0,0,0-1.41.612,2.308,2.308,0,0,0-.729,1.669C323.514,288.407,325.136,290.425,327.139,291.584Z" transform="translate(-323.643 -269.003)" fill="#ff997d"/>
            </g>
          </g>
          <g id="Grupo_1181270" data-name="Grupo 1181270" transform="translate(9.39 25.845)">
            <g id="Grupo_1181269" data-name="Grupo 1181269">
              <path id="Trazado_1005925" data-name="Trazado 1005925" d="M349.623,316.155a7.95,7.95,0,0,1-1.853.922s-5.361-1.878-8.416-4.828c0,0,5.714,6.445,8.1,6.575C349.145,318.917,349.623,316.155,349.623,316.155Z" transform="translate(-339.354 -312.249)" fill="#412945"/>
            </g>
          </g>
          <g id="Grupo_1181294" data-name="Grupo 1181294" transform="translate(2.032 11.421)">
            <g id="Grupo_1181293" data-name="Grupo 1181293">
              <g id="Grupo_1181287" data-name="Grupo 1181287">
                <g id="Grupo_1181284" data-name="Grupo 1181284" transform="translate(10.133)">
                  <g id="Grupo_1181275" data-name="Grupo 1181275" transform="translate(0.817 2.435)">
                    <g id="Grupo_1181272" data-name="Grupo 1181272" transform="translate(8.691)">
                      <g id="Grupo_1181271" data-name="Grupo 1181271">
                        <path id="Trazado_1005926" data-name="Trazado 1005926" d="M359.914,293.651a1.1,1.1,0,1,0,.93-1.459A1.241,1.241,0,0,0,359.914,293.651Z" transform="translate(-359.906 -292.188)" fill="#412945"/>
                      </g>
                    </g>
                    <g id="Grupo_1181274" data-name="Grupo 1181274" transform="translate(0 0.867)">
                      <g id="Grupo_1181273" data-name="Grupo 1181273">
                        <path id="Trazado_1005927" data-name="Trazado 1005927" d="M345.372,295.1a1.1,1.1,0,1,0,.93-1.459A1.241,1.241,0,0,0,345.372,295.1Z" transform="translate(-345.363 -293.638)" fill="#412945"/>
                      </g>
                    </g>
                  </g>
                  <g id="Grupo_1181277" data-name="Grupo 1181277" transform="translate(6.998 2.785)">
                    <g id="Grupo_1181276" data-name="Grupo 1181276">
                      <path id="Trazado_1005928" data-name="Trazado 1005928" d="M355.956,299.7a.227.227,0,0,0,.1-.034l1.312-.829a.227.227,0,0,0,.1-.242l-1.3-5.643a.227.227,0,0,0-.442.1l1.263,5.487-1.177.743a.227.227,0,0,0,.144.417Z" transform="translate(-355.706 -292.774)" fill="#412945"/>
                    </g>
                  </g>
                  <g id="Grupo_1181279" data-name="Grupo 1181279" transform="translate(4.274 10.305)">
                    <g id="Grupo_1181278" data-name="Grupo 1181278">
                      <path id="Trazado_1005929" data-name="Trazado 1005929" d="M353.458,307.152a2.469,2.469,0,0,0,1.407-.7.226.226,0,1,0-.328-.312,1.859,1.859,0,0,1-1.55.537,2.516,2.516,0,0,1-1.412-1.2.227.227,0,0,0-.4.21,2.934,2.934,0,0,0,1.719,1.434A1.87,1.87,0,0,0,353.458,307.152Z" transform="translate(-351.148 -305.356)" fill="#412945"/>
                    </g>
                  </g>
                  <g id="Grupo_1181281" data-name="Grupo 1181281" transform="translate(10.067)">
                    <g id="Grupo_1181280" data-name="Grupo 1181280">
                      <path id="Trazado_1005930" data-name="Trazado 1005930" d="M362.95,289.307a.223.223,0,0,0,.147-.075.226.226,0,0,0-.019-.32,3.175,3.175,0,0,0-2-.8.226.226,0,0,0-.015.452,2.763,2.763,0,0,1,1.717.685A.226.226,0,0,0,362.95,289.307Z" transform="translate(-360.842 -288.114)" fill="#412945"/>
                    </g>
                  </g>
                  <g id="Grupo_1181283" data-name="Grupo 1181283" transform="translate(0 0.551)">
                    <g id="Grupo_1181282" data-name="Grupo 1181282">
                      <path id="Trazado_1005931" data-name="Trazado 1005931" d="M344.246,290.175a.228.228,0,0,0,.119-.048,2.933,2.933,0,0,1,2.02-.63.226.226,0,0,0,.032-.452,3.386,3.386,0,0,0-2.336.729.226.226,0,0,0,.164.4Z" transform="translate(-343.997 -289.036)" fill="#412945"/>
                    </g>
                  </g>
                </g>
                <g id="Grupo_1181286" data-name="Grupo 1181286" transform="translate(0 5.113)">
                  <g id="Grupo_1181285" data-name="Grupo 1181285">
                    <path id="Trazado_1005932" data-name="Trazado 1005932" d="M330.417,301.57l.027,0a.227.227,0,0,0,.172-.27A9.486,9.486,0,0,0,329.9,299a4.931,4.931,0,0,0-2.548-2.319.227.227,0,1,0-.167.421,4.471,4.471,0,0,1,2.31,2.1,9.15,9.15,0,0,1,.677,2.184A.227.227,0,0,0,330.417,301.57Z" transform="translate(-327.042 -296.669)" fill="#412945"/>
                  </g>
                </g>
              </g>
              <g id="Grupo_1181292" data-name="Grupo 1181292" transform="translate(5.822 4.616)">
                <g id="Grupo_1181289" data-name="Grupo 1181289" transform="translate(0 1.456)">
                  <g id="Grupo_1181288" data-name="Grupo 1181288">
                    <path id="Trazado_1005933" data-name="Trazado 1005933" d="M336.8,302.185a3.557,3.557,0,1,0,3.187-3.892A3.557,3.557,0,0,0,336.8,302.185Z" transform="translate(-336.784 -298.275)" fill="#f8bdff"/>
                  </g>
                </g>
                <g id="Grupo_1181291" data-name="Grupo 1181291" transform="translate(14.619)">
                  <g id="Grupo_1181290" data-name="Grupo 1181290">
                    <path id="Trazado_1005934" data-name="Trazado 1005934" d="M361.263,299.748a3.559,3.559,0,0,0,2.546,3.063,21.955,21.955,0,0,0,1.28-6.962,3.67,3.67,0,0,0-.637.007A3.558,3.558,0,0,0,361.263,299.748Z" transform="translate(-361.245 -295.838)" fill="#f8bdff"/>
                  </g>
                </g>
              </g>
            </g>
          </g>
        </g>
        <g id="Grupo_1181299" data-name="Grupo 1181299" transform="translate(0 33.966)">
          <g id="Grupo_1181296" data-name="Grupo 1181296" transform="translate(20.762)">
            <path id="Trazado_1005935" data-name="Trazado 1005935" d="M329.874,324.186l16.039-.181.453,3.353,2.809,1.722-3.987,16.4-17.126-16.13Z" transform="translate(-328.062 -324.005)" fill="#f8bdff"/>
          </g>
          <g id="Grupo_1181297" data-name="Grupo 1181297" transform="translate(0 3.172)">
            <path id="Trazado_1005936" data-name="Trazado 1005936" d="M314.74,329.312s14.612,12.845,16.379,17.738l1.269-17.557a84.523,84.523,0,0,1,12.188,8.654c4.961,4.485,7.68,23.039,8.427,29.088s2.854,18.554,2.854,18.554H296.39l1.087-4.961s-3.942-1.223-4.146-7.2,2.787-30.855,6.932-34.864S314.74,329.312,314.74,329.312Z" transform="translate(-293.322 -329.312)" fill="#f7ede5"/>
          </g>
          <g id="Grupo_1181298" data-name="Grupo 1181298" transform="translate(3.891 2.905)">
            <path id="Trazado_1005937" data-name="Trazado 1005937" d="M379.2,370.773c-.406-4.2-2.979-11.409-3-11.482a.266.266,0,1,0-.5.18c.026.072,2.576,7.221,2.976,11.353s-.535,20.59-.544,20.756a.266.266,0,0,0,.25.281h.016a.266.266,0,0,0,.265-.251C378.7,390.933,379.608,374.96,379.2,370.773Z" transform="translate(-330.351 -341.037)" fill="#412945"/>
            <path id="Trazado_1005938" data-name="Trazado 1005938" d="M312.289,418.464a37.039,37.039,0,0,1-12.069-3.369.266.266,0,0,0-.245.472,37.6,37.6,0,0,0,12.262,3.427h.026a.266.266,0,0,0,.025-.531Z" transform="translate(-299.832 -363.549)" fill="#412945"/>
            <path id="Trazado_1005939" data-name="Trazado 1005939" d="M349.854,338.321l-7.419-3.878,4.3-1.433a.266.266,0,1,0-.168-.5l-4.893,1.631a.266.266,0,0,0-.039.489l7.442,3.891c-1.78.683-7.163,2.964-9.18,6.224l1.311-15.4a.267.267,0,0,0-.243-.288.272.272,0,0,0-.288.243l-1.38,16.216c-3.981-6.285-15.329-16.144-15.828-16.576a.266.266,0,0,0-.348.4c.115.1,10.428,9.059,14.943,15.308a27.293,27.293,0,0,0-18.587-6.657l5.256-2.172a.266.266,0,0,0-.056-.508l-9.786-1.722a.266.266,0,1,0-.093.524l8.885,1.563-5.95,2.46a.266.266,0,0,0,.143.509,26.488,26.488,0,0,1,21.352,7.825l.7,29.582-17.8-5.246.134-17.878a.266.266,0,0,0-.264-.268h0a.265.265,0,0,0-.266.264L321.6,371a.267.267,0,0,0,.191.258l18.153,5.351.188,7.9a.267.267,0,0,0,.266.26h.007a.265.265,0,0,0,.259-.273l-.183-7.731,1.98.584a.254.254,0,0,0,.075.011.266.266,0,0,0,.075-.521l-2.144-.632-.708-29.825c1.077-4.409,9.97-7.539,10.06-7.57a.266.266,0,0,0,.178-.232A.269.269,0,0,0,349.854,338.321Z" transform="translate(-305.765 -328.866)" fill="#412945"/>
          </g>
        </g>
        <g id="Grupo_1181300" data-name="Grupo 1181300" transform="translate(17.551 0.299)">
          <path id="Trazado_1005940" data-name="Trazado 1005940" d="M325.373,283.557a4.4,4.4,0,0,1,4.888,2.468s5.131-1.767,6.728-6.252a4.13,4.13,0,0,0,4.078-2.413c1.325-2.753.1-9.685.1-9.685s-11.656-.306-16.175,4.859-1,11.454-1,11.454A5.706,5.706,0,0,1,325.373,283.557Z" transform="translate(-322.69 -267.671)" fill="#412945"/>
        </g>
      </g>
      <g id="Grupo_1181306" data-name="Grupo 1181306" transform="translate(15.964 68.382)">
        <g id="Grupo_1181302" data-name="Grupo 1181302" transform="translate(0 27.724)">
          <path id="Trazado_1005941" data-name="Trazado 1005941" d="M378.263,420.4a58.762,58.762,0,0,1-86.59,1.091V420.4Z" transform="translate(-291.673 -420.401)" fill="#6e72ff"/>
        </g>
        <g id="Grupo_1181305" data-name="Grupo 1181305" transform="translate(12.121)">
          <g id="Grupo_1181303" data-name="Grupo 1181303">
            <path id="Trazado_1005942" data-name="Trazado 1005942" d="M346.04,374.011l-11.016,27.365H311.954l2.76,1.08h66.011l.84-1.08,12.361-27.365Z" transform="translate(-311.954 -374.011)" fill="#412945"/>
          </g>
          <g id="Grupo_1181304" data-name="Grupo 1181304" transform="translate(51.022 8.379)">
            <path id="Trazado_1005943" data-name="Trazado 1005943" d="M402.236,394.488c-.868,3.221-2.558,5.567-3.774,5.239s-1.5-3.205-.63-6.426,2.558-5.567,3.774-5.239S403.1,391.267,402.236,394.488Z" transform="translate(-397.328 -388.031)" fill="#f7ede5"/>
          </g>
        </g>
      </g>
      <g id="Grupo_1181323" data-name="Grupo 1181323" transform="translate(66.248 14.225)">
        <g id="Grupo_1181311" data-name="Grupo 1181311">
          <g id="Grupo_1181308" data-name="Grupo 1181308">
            <g id="Grupo_1181307" data-name="Grupo 1181307">
              <path id="Trazado_1005944" data-name="Trazado 1005944" d="M390.875,306.622a11.8,11.8,0,1,0-3.923.43l2.719,3.767Z" transform="translate(-375.812 -283.393)" fill="#cad472"/>
            </g>
          </g>
          <g id="Grupo_1181310" data-name="Grupo 1181310" transform="translate(6.071 5.525)">
            <g id="Grupo_1181309" data-name="Grupo 1181309">
              <path id="Trazado_1005945" data-name="Trazado 1005945" d="M398.293,297.058h-4.421v-4.421h-3.479v4.421H385.97v3.479h4.422v4.422h3.479v-4.422h4.421Z" transform="translate(-385.97 -292.637)" fill="#f7ede5"/>
            </g>
          </g>
        </g>
        <g id="Grupo_1181322" data-name="Grupo 1181322" transform="translate(21.18 26.318)">
          <g id="Grupo_1181314" data-name="Grupo 1181314">
            <g id="Grupo_1181313" data-name="Grupo 1181313">
              <g id="Grupo_1181312" data-name="Grupo 1181312">
                <path id="Trazado_1005946" data-name="Trazado 1005946" d="M414.822,346.607a11.012,11.012,0,1,1,3.087,2.009l-3.85,1.994Z" transform="translate(-411.252 -327.429)" fill="#f7ede5"/>
              </g>
            </g>
          </g>
          <g id="Grupo_1181321" data-name="Grupo 1181321" transform="translate(4.673 4.312)">
            <g id="Grupo_1181317" data-name="Grupo 1181317">
              <g id="Grupo_1181315" data-name="Grupo 1181315" transform="translate(3.622 3.114)">
                <path id="Trazado_1005947" data-name="Trazado 1005947" d="M429.519,339.855l4.007,3.752c1.606,1.5,1.938,3.785.736,5.068l-.2.214c-1.2,1.283-3.5,1.1-5.106-.4l-2.378-2.227c.441-1.056-1.857-4.271-1.383-5.307C425.7,339.852,428.977,340.931,429.519,339.855Z" transform="translate(-425.131 -339.855)" fill="#fff"/>
              </g>
              <g id="Grupo_1181316" data-name="Grupo 1181316">
                <path id="Trazado_1005948" data-name="Trazado 1005948" d="M419.794,335.714l.2-.214c1.2-1.283,3.5-1.1,5.106.4l1.981,1.856q-1.58,3.135-2.941,6.4l-3.61-3.381C418.923,339.278,418.592,337,419.794,335.714Z" transform="translate(-419.071 -334.645)" fill="#6e72ff"/>
              </g>
            </g>
            <g id="Grupo_1181320" data-name="Grupo 1181320" transform="translate(0.983 3.283)">
              <g id="Grupo_1181318" data-name="Grupo 1181318">
                <path id="Trazado_1005949" data-name="Trazado 1005949" d="M420.729,340.7a1.388,1.388,0,0,0,.283,1.008,2.721,2.721,0,0,0,.81.694.962.962,0,0,0,.788.179.645.645,0,0,0,.387-.466,1.143,1.143,0,0,0-.053-.621C422.719,340.831,420.937,339.322,420.729,340.7Z" transform="translate(-420.716 -340.139)" fill="#fff"/>
              </g>
              <g id="Grupo_1181319" data-name="Grupo 1181319" transform="translate(2.287 2.724)">
                <path id="Trazado_1005950" data-name="Trazado 1005950" d="M425.575,345.151a.524.524,0,1,1-.641-.442A.553.553,0,0,1,425.575,345.151Z" transform="translate(-424.544 -344.696)" fill="#fff"/>
              </g>
            </g>
          </g>
        </g>
      </g>
      <g id="Grupo_1181328" data-name="Grupo 1181328" transform="translate(6.242 18.575)">
        <g id="Grupo_1181324" data-name="Grupo 1181324" transform="translate(11.522)">
          <ellipse id="Elipse_13861" data-name="Elipse 13861" cx="3.84" cy="3.84" rx="3.84" ry="3.84" fill="#6e72ff"/>
        </g>
        <g id="Grupo_1181325" data-name="Grupo 1181325" transform="translate(0 40.566)">
          <ellipse id="Elipse_13862" data-name="Elipse 13862" cx="4.44" cy="4.44" rx="4.44" ry="4.44" fill="#f7ede5"/>
        </g>
        <g id="Grupo_1181326" data-name="Grupo 1181326" transform="translate(91.214 6.961)">
          <path id="Trazado_1005951" data-name="Trazado 1005951" d="M435.951,306.279a3.961,3.961,0,1,1-3.961-3.961A3.961,3.961,0,0,1,435.951,306.279Z" transform="translate(-428.03 -302.318)" fill="#f7ede5"/>
        </g>
        <g id="Grupo_1181327" data-name="Grupo 1181327" transform="translate(96.735 54.729)">
          <path id="Trazado_1005952" data-name="Trazado 1005952" d="M445.429,386.326a4.081,4.081,0,1,1-4.081-4.081A4.081,4.081,0,0,1,445.429,386.326Z" transform="translate(-437.268 -382.245)" fill="#6e72ff"/>
        </g>
      </g>
    </g>
  </g>
</svg>
