<svg xmlns="http://www.w3.org/2000/svg" xmlns:xlink="http://www.w3.org/1999/xlink" width="130" height="119.974" viewBox="0 0 130 119.974">
  <defs>
    <clipPath id="clip-path">
      <path id="Trazado_991612" data-name="Trazado 991612" d="M0-12.8H130V107.171H0Z" transform="translate(0 12.803)" fill="none"/>
    </clipPath>
    <clipPath id="clip-path-2">
      <rect id="Rectángulo_454521" data-name="Rectángulo 454521" width="130" height="119.303" fill="none"/>
    </clipPath>
    <clipPath id="clip-path-3">
      <rect id="Rectángulo_454519" data-name="Rectángulo 454519" width="116.699" height="98.739" fill="#bbded6"/>
    </clipPath>
    <clipPath id="clip-path-4">
      <rect id="Rectángulo_454520" data-name="Rectángulo 454520" width="109.614" height="92.744" fill="#bbded6"/>
    </clipPath>
  </defs>
  <g id="Grupo_1180788" data-name="Grupo 1180788" transform="translate(-1120.136 -272.925)">
    <g id="Grupo_1177858" data-name="Grupo 1177858" transform="translate(1120.136 272.925)">
      <g id="Enmascarar_grupo_1119118" data-name="Enmascarar grupo 1119118" transform="translate(0 0)" clip-path="url(#clip-path)">
        <g id="Grupo_1176801" data-name="Grupo 1176801" transform="translate(0 0.67)">
          <g id="Grupo_1176800" data-name="Grupo 1176800" clip-path="url(#clip-path-2)">
            <g id="Grupo_1176796" data-name="Grupo 1176796" transform="translate(13.301 2.505)" style="isolation: isolate">
              <g id="Grupo_1176795" data-name="Grupo 1176795" transform="translate(0)">
                <g id="Grupo_1176794" data-name="Grupo 1176794" clip-path="url(#clip-path-3)">
                  <path id="Trazado_991607" data-name="Trazado 991607" d="M152.821,49.369c0,27.266-26.124,49.369-58.349,49.369s-58.349-22.1-58.349-49.369S62.246,0,94.471,0s58.349,22.1,58.349,49.369" transform="translate(-36.122)" fill="#bbded6"/>
                </g>
              </g>
            </g>
            <g id="Grupo_1176799" data-name="Grupo 1176799" transform="translate(0 14.481)" opacity="0.59" style="isolation: isolate">
              <g id="Grupo_1176798" data-name="Grupo 1176798">
                <g id="Grupo_1176797" data-name="Grupo 1176797" clip-path="url(#clip-path-4)">
                  <path id="Trazado_991608" data-name="Trazado 991608" d="M109.614,54.274c0,25.611-24.538,46.372-54.807,46.372S0,79.885,0,54.274,24.538,7.9,54.807,7.9s54.807,20.762,54.807,46.372" transform="translate(0 -7.902)" fill="#bbded6"/>
                </g>
              </g>
            </g>
            <path id="Trazado_991609" data-name="Trazado 991609" d="M100.133,2.859C81.389-3.059,59.651.247,44.081,12.451,29.209,24.109,24.48,43.145,32.422,60.374c8.793,19.075,30.95,28.366,51.122,25.6a185.7,185.7,0,0,0-3.739,22.478c-.1.792.975,1.058,1.466.607,7.251-6.665,13.178-15.551,18.946-23.492a.675.675,0,0,0,.109-.235c18.3-1.955,31.473-22.993,32.327-40.033C133.7,24.486,119.18,8.873,100.133,2.859m24.743,61.984c-5.337,9.033-14.408,18.049-25.394,18.86a.91.91,0,0,0-.795,1.165c-5.621,6.989-10.52,14.878-16.858,21.263.922-6.761,2.141-13.483,2.965-20.251a.517.517,0,0,0-.023-.234c.284-.384.066-1.142-.518-1.09C66.845,86.12,48,80.856,37.565,65.91,27.46,51.431,27.64,31.728,39.888,18.6,52.4,5.2,72.218-.223,90.069,2.327c18.344,2.62,36.2,13.825,40.112,32.965a41.841,41.841,0,0,1-5.3,29.551" transform="translate(-12.462 10.021)" fill="#3e5d56"/>
          </g>
        </g>
      </g>
    </g>
    <g id="Grupo_1181099" data-name="Grupo 1181099" transform="translate(1107.544 290.879)">
      <g id="Grupo_1181097" data-name="Grupo 1181097" transform="translate(56.552 0.966)">
        <g id="Grupo_1181095" data-name="Grupo 1181095">
          <path id="Trazado_1005679" data-name="Trazado 1005679" d="M63.713,182.266c4.092,13.291,15.706,21.173,24.158,25.691,8.453-4.517,20.067-12.4,24.158-25.691,2.289-7.434-1.651-14.937-7.743-17.213-6.583-2.459-12.565,1.824-16.415,6.94-3.85-5.117-9.832-9.4-16.415-6.94C65.363,167.329,61.424,174.832,63.713,182.266Zm20.3.526a3.862,3.862,0,1,1,6.31,2.988l1.386,7.6h-7.7l1.39-7.625A3.855,3.855,0,0,1,84.009,182.792Z" transform="translate(-63.054 -144.147)" fill="#fff" fill-rule="evenodd"/>
          <path id="Trazado_1005680" data-name="Trazado 1005680" d="M128.314,28.406a10.981,10.981,0,0,1,5.794-.524V23.915a10.622,10.622,0,1,1,21.243,0v3.968a10.98,10.98,0,0,1,5.794.524V23.915a16.415,16.415,0,1,0-32.83,0Z" transform="translate(-119.912 -7.5)" fill="#fff" fill-rule="evenodd"/>
          <path id="Trazado_1005681" data-name="Trazado 1005681" d="M225.813,292.117h7.7l-1.386-7.6a3.863,3.863,0,1,0-4.919-.021Z" transform="translate(-204.858 -242.88)" fill="#fff" fill-rule="evenodd"/>
        </g>
      </g>
      <g id="Grupo_1181098" data-name="Grupo 1181098" transform="translate(55.592)">
        <path id="Trazado_1005685" data-name="Trazado 1005685" d="M105.97,28.8a14.188,14.188,0,0,0-6.552-7.265c-.221-.113-.444-.216-.668-.314V17.381a17.381,17.381,0,1,0-34.761,0v3.843c-.224.1-.447.2-.668.314A14.188,14.188,0,0,0,56.769,28.8a15.62,15.62,0,0,0-.48,10.565A38.1,38.1,0,0,0,66.994,55.924a64.363,64.363,0,0,0,13.92,9.7l.455.243.455-.243a63.9,63.9,0,0,0,14.2-9.965l-1.333-1.4A61.427,61.427,0,0,1,81.37,63.679a61.89,61.89,0,0,1-13.054-9.163A36.2,36.2,0,0,1,58.134,38.8a13.685,13.685,0,0,1,.418-9.257A12.257,12.257,0,0,1,64.2,23.259a10.124,10.124,0,0,1,7.708-.639c3.1.949,6.023,3.228,8.692,6.774l.772,1.025.772-1.025c2.668-3.546,5.593-5.825,8.691-6.774a10.123,10.123,0,0,1,7.708.639,12.258,12.258,0,0,1,5.646,6.285,13.686,13.686,0,0,1,.418,9.257A35.342,35.342,0,0,1,96.03,52.932l1.39,1.341a37.251,37.251,0,0,0,9.031-14.9,15.622,15.622,0,0,0-.48-10.566Zm-13.014-8.55V17.381a11.566,11.566,0,0,0-18.99-8.89L75.2,9.973a9.658,9.658,0,0,1,15.821,7.407v3.186c-.253.061-.506.128-.758.205a18.882,18.882,0,0,0-8.9,6.475,18.882,18.882,0,0,0-8.9-6.475c-.253-.077-.505-.144-.758-.205V17.381a9.639,9.639,0,0,1,2.248-6.165L72.48,9.977a11.574,11.574,0,0,0-2.7,7.4v2.872a11.822,11.822,0,0,0-3.862.31V17.381a15.45,15.45,0,0,1,30.9,0v3.182A11.822,11.822,0,0,0,92.957,20.253Z" transform="translate(-55.592)" fill="#3e5d56"/>
        <path id="Trazado_1005686" data-name="Trazado 1005686" d="M226.833,286.548l-1.5-8.224a4.828,4.828,0,1,0-7.008-.026l-1.5,8.25Zm-4.991-14.455a2.9,2.9,0,0,1,1.835,5.138l-.44.36,1.281,7.025h-5.381l1.283-7.041-.432-.361a2.9,2.9,0,0,1,1.854-5.123Z" transform="translate(-196.064 -235.38)" fill="#3e5d56"/>
      </g>
    </g>
  </g>
</svg>
