<svg xmlns="http://www.w3.org/2000/svg" width="18" height="18.003" viewBox="0 0 18 18.003">
  <path id="life-ring-solid-full" d="M76.912,78.5a6.748,6.748,0,0,1-7.82,0l2.039-2.039a3.937,3.937,0,0,0,3.748,0L76.919,78.5Zm3.189.028a9.012,9.012,0,0,0,0-11.062A1.127,1.127,0,0,0,78.533,65.9a9.005,9.005,0,0,0-11.062,0A1.127,1.127,0,0,0,65.9,67.471a9.005,9.005,0,0,0,0,11.062A1.127,1.127,0,0,0,67.471,80.1a9.005,9.005,0,0,0,11.062,0A1.127,1.127,0,0,0,80.1,78.533Zm-1.6-1.621-2.039-2.039a3.937,3.937,0,0,0,0-3.748L78.5,69.085a6.752,6.752,0,0,1,0,7.827ZM76.912,67.5l-2.039,2.039a3.937,3.937,0,0,0-3.748,0L69.085,67.5a6.759,6.759,0,0,1,7.827,0Zm-7.374,7.377L67.5,76.915a6.754,6.754,0,0,1,0-7.824l2.039,2.039a3.937,3.937,0,0,0,0,3.748ZM71.314,73A1.688,1.688,0,1,1,73,74.69,1.688,1.688,0,0,1,71.314,73Z" transform="translate(-64 -64)" fill="#99bfb7"/>
</svg>
